<svg width="70" height="70" viewBox="0 0 70 70" fill="none" xmlns="http://www.w3.org/2000/svg">
<path fill-rule="evenodd" clip-rule="evenodd" d="M4.375 63.625C4.375 64.7296 5.27043 65.625 6.375 65.625H63.625C64.7296 65.625 65.625 64.7296 65.625 63.625V6.375C65.625 5.27043 64.7296 4.375 63.625 4.375H6.375C5.27043 4.375 4.375 5.27043 4.375 6.375V63.625Z" fill="#757473"/>
<path fill-rule="evenodd" clip-rule="evenodd" d="M51.4931 30.899C51.4859 28.7727 49.2406 27.4448 47.6118 27.4448C44.6411 27.4448 42.9578 30.175 42.9578 31.9704C42.9578 32.3824 42.9924 32.6204 43.4295 32.6204C43.8665 32.6204 47.0511 32.6101 49.1326 32.6034C50.143 32.6001 50.8936 32.5977 50.9435 32.5977C51.3366 32.5977 51.4989 32.3945 51.4931 30.899ZM52.0888 34.7323L43.3028 34.7597C42.8454 34.7612 42.6827 34.7788 42.7215 35.7342C42.7224 35.7556 42.7234 35.7789 42.7243 35.804C42.7682 36.9272 42.9516 41.6193 47.9399 41.6013C50.3128 41.5929 51.8382 40.6912 52.6342 40.2206C52.837 40.1008 52.9924 40.0089 53.1025 39.9669C53.4247 39.8439 53.6015 40.4651 53.6922 40.9136C53.7981 41.4381 53.785 41.933 53.6518 42.0884C52.9512 42.9058 49.6246 44.1022 47.6349 44.1094C45.6332 44.1162 43.1924 43.3926 41.8841 41.4779C40.5864 39.5623 39.9835 37.9716 39.9835 34.8522C39.9835 29.2885 42.7834 25.1392 47.7169 25.1392C49.9769 25.1392 53.5995 26.389 53.8741 30.7163C53.9822 32.3458 53.7929 33.0556 53.5587 33.8987C53.3421 34.5141 52.7935 34.7294 52.0888 34.7323ZM34.9476 25.7084C35.0698 25.7102 35.2077 25.7122 35.3637 25.7122C35.457 25.7122 35.5441 25.7107 35.6249 25.7094C36.1265 25.701 36.388 25.6967 36.3997 26.067C36.4055 26.2486 32.7126 42.5218 32.553 43.1969C32.361 43.9226 32.1159 44.1592 31.0935 44.1556C29.9557 44.1515 29.7679 43.6806 29.5999 43.2596C29.5915 43.2385 29.5832 43.2176 29.5748 43.1969L26.3254 31.6374C26.3095 31.5904 26.2955 31.5465 26.2825 31.5059C26.2058 31.2653 26.1646 31.1362 25.9651 31.1362C25.7658 31.1362 25.7246 31.2652 25.6479 31.5058C25.6349 31.5465 25.6209 31.5904 25.605 31.6374L22.3555 43.1969C22.3472 43.2176 22.3388 43.2384 22.3305 43.2594C22.1626 43.6805 21.9749 44.1515 20.8368 44.1556C19.8144 44.1592 19.5694 43.9226 19.3774 43.1969C19.2178 42.5218 15.4334 26.3809 15.4298 26.1498C15.4223 25.6486 15.695 25.6019 16.58 25.6019C16.7487 25.6019 16.8942 25.5977 17.0202 25.594C17.5628 25.5781 17.7439 25.5728 17.8673 25.9633L20.549 38.7022C20.5549 38.725 20.5608 38.7478 20.5667 38.7705C20.6581 39.124 20.7443 39.4573 20.927 39.4573C21.1446 39.4573 21.2435 39.3503 21.3369 39.0262L24.7985 26.1907C24.9008 25.7725 25.0931 25.6825 25.9651 25.6825C26.8372 25.6825 26.9934 25.8197 27.084 26.1907L30.6502 39.0241C30.7221 39.3536 30.8134 39.4573 31.0308 39.4573C31.2145 39.4573 31.2892 39.3115 31.38 38.9771C31.391 38.9367 31.399 38.9019 31.407 38.8608C31.5846 37.9506 33.8873 26.1526 33.9436 26.0265C34.0909 25.6962 34.3003 25.6992 34.9476 25.7084Z" fill="white"/>
</svg>
