<svg width="128" height="25" viewBox="0 0 128 25" fill="none" xmlns="http://www.w3.org/2000/svg">
<path fill-rule="evenodd" clip-rule="evenodd" d="M98.0713 2.596C98.0713 2.26438 98.0108 2.0835 97.6781 2.0835L94.4116 2.14379C94.1956 2.14379 94.1965 2.31189 94.1992 2.81953V2.81956V2.81958V2.81961C94.1995 2.88074 94.1999 2.94679 94.1999 3.01807C94.1999 3.07174 94.1995 3.12309 94.1992 3.17203C94.1965 3.59041 94.1949 3.83205 94.4116 3.83205C95.6819 3.83205 96.0751 4.40485 96.0751 5.21883V22.222C96.0751 22.2293 96.075 22.2365 96.075 22.2435C96.0749 22.2629 96.0746 22.2814 96.0743 22.2991L96.074 22.3209C96.0679 22.6742 96.0679 22.6742 97.0429 22.6742L97.2239 22.6744C97.7597 22.6753 97.9579 22.6757 98.0306 22.5804C98.0732 22.5244 98.0726 22.4354 98.0716 22.2942C98.0714 22.2715 98.0713 22.2475 98.0713 22.222V2.596ZM66.0215 20.4442C66.1063 20.4053 66.1879 20.3679 66.2716 20.3346C66.5153 20.2434 66.6067 20.2738 66.759 21.094C66.9113 21.9447 66.8808 22.0662 66.4848 22.2485C65.6928 22.5827 64.5047 22.9168 63.6822 22.9168C62.8597 22.9168 61.7021 22.6738 60.8796 21.8232C60.0571 20.9725 59.5392 20.1523 59.5392 16.4156V9.91431C59.5392 9.59691 59.3743 9.58097 59.0968 9.55414L59.0518 9.54975L57.4373 9.58013C57.1936 9.58013 57.1936 9.18519 57.1936 8.5776C57.1892 8.49484 57.1836 8.41521 57.1782 8.3395L57.1782 8.33896C57.1463 7.88692 57.1242 7.57507 57.4373 7.57507H58.9909C59.4478 7.57507 59.5392 7.33203 59.5392 6.93709V3.71684C59.5392 3.57443 59.5392 3.47971 59.5781 3.4053C59.6553 3.25747 59.886 3.18981 60.575 2.98773C61.5193 2.71431 61.5802 2.71431 61.5802 3.29153V6.93709C61.5802 7.45355 61.7326 7.57507 62.0981 7.57507H66.1497C66.3676 7.57507 66.3663 7.84228 66.3636 8.39842C66.3633 8.46422 66.363 8.53406 66.363 8.60798C66.363 8.71776 66.3637 8.81705 66.3644 8.90642C66.368 9.38588 66.3695 9.58013 66.2411 9.58013H62.0981C61.7021 9.58013 61.5802 9.67127 61.5802 9.97507V17.7219C61.5802 19.1194 62.0677 20.8206 64.2305 20.8206C65.2011 20.8206 65.6431 20.6179 66.0215 20.4442ZM32.7807 9.3322C34.1268 9.3322 36.0237 10.4118 36.0237 12.1511C36.0237 13.3806 35.9013 13.5305 35.5648 13.5305C35.5256 13.5305 34.9242 13.5336 34.1069 13.5378C32.3731 13.5467 29.6672 13.5605 29.2929 13.5605C28.9258 13.5605 28.8952 13.3806 28.8952 13.0207C28.8952 11.5513 30.3025 9.3322 32.7807 9.3322ZM29.2011 15.2998L36.5132 15.2699C37.0945 15.2699 37.5534 15.0899 37.737 14.5801L37.7713 14.4522C37.9424 13.8163 38.0984 13.2364 38.0123 11.9712C37.7982 8.43255 34.7693 7.41296 32.8725 7.41296C28.7728 7.41296 26.417 10.8016 26.417 15.3598C26.417 17.9088 26.9065 19.1983 28.0079 20.7577C29.1093 22.3171 31.1286 22.9168 32.8113 22.9168C34.4634 22.9168 37.2475 21.9272 37.8288 21.2675C37.9511 21.1475 37.9511 20.7277 37.8593 20.3079C37.7982 19.948 37.6452 19.4382 37.3698 19.5282C37.2791 19.5637 37.1526 19.6368 36.9888 19.7313C36.3237 20.1152 35.0444 20.8536 33.056 20.8776C28.8836 20.8776 28.746 17.0383 28.7134 16.1287L28.7116 16.0795C28.681 15.3298 28.8034 15.2998 29.2011 15.2998ZM49.1702 14.3135C48.9511 14.2129 48.7165 14.1183 48.4779 14.022C47.2991 13.5464 46.0219 13.031 46.0219 11.5652C46.0219 10.0417 47.475 9.3248 48.474 9.3248C49.1097 9.3248 49.9574 9.53391 50.8353 9.86251C51.5817 10.1673 51.6716 9.99702 51.8864 9.59038L51.8865 9.59024L51.8866 9.58995L51.8868 9.58959C51.9246 9.51814 51.9662 9.4394 52.0159 9.35467C52.2581 8.93646 52.3489 8.57799 52.2278 8.4585C51.6829 8.01041 50.1995 7.41296 48.474 7.41296C45.3558 7.41296 43.7514 9.35467 43.7514 11.5652C43.7514 13.6862 45.5678 15.0006 47.2631 15.7773C47.4374 15.8544 47.6117 15.9298 47.7844 16.0044L47.7846 16.0044C49.3504 16.6812 50.7747 17.2968 50.7747 18.6152C50.7747 19.5711 49.9271 20.9751 48.141 20.9751C46.7467 20.9751 45.299 20.2098 44.7027 19.8946L44.7025 19.8944C44.6644 19.8743 44.6299 19.8561 44.599 19.84C44.3204 19.7025 44.1957 19.9698 44.0124 20.3626L44.0123 20.3627C43.9965 20.3967 43.9802 20.4316 43.9633 20.4673L43.9094 20.5851C43.6643 21.1197 43.4931 21.493 43.6908 21.6323C44.7807 22.2895 46.597 22.9168 48.1107 22.9168C50.8958 22.9168 53.0755 21.244 53.0452 18.5554C53.0726 16.0143 50.943 15.0878 49.5733 14.4918C49.4294 14.4292 49.294 14.3703 49.1702 14.3135ZM88.0703 12.1511C88.0703 10.4118 86.1734 9.3322 84.8273 9.3322C82.3491 9.3322 80.9418 11.5513 80.9418 13.0207C80.9418 13.3806 80.9724 13.5605 81.3395 13.5605C81.7136 13.5605 84.4178 13.5467 86.1517 13.5378L86.1535 13.5378L86.1586 13.5378C86.9734 13.5336 87.5722 13.5305 87.6114 13.5305C87.9479 13.5305 88.0703 13.3806 88.0703 12.1511ZM88.5598 15.2699L81.2477 15.2998C80.85 15.2998 80.7276 15.3298 80.7582 16.0795L80.76 16.1293C80.7926 17.041 80.9311 20.9071 85.1026 20.8776C87.091 20.8536 88.3703 20.1152 89.0354 19.7313C89.1992 19.6368 89.3257 19.5637 89.4164 19.5282C89.6918 19.4382 89.8447 19.948 89.9059 20.3079C89.9977 20.7277 89.9977 21.1475 89.8753 21.2675C89.294 21.9272 86.5099 22.9168 84.8578 22.9168C83.1752 22.9168 81.1559 22.3171 80.0545 20.7577C78.9531 19.1983 78.4636 17.9088 78.4636 15.3598C78.4636 10.8016 80.8194 7.41296 84.919 7.41296C86.8159 7.41296 89.8447 8.43255 90.0589 11.9712C90.145 13.2364 89.9889 13.8163 89.8178 14.4522L89.7835 14.5801C89.6 15.0899 89.1411 15.2699 88.5598 15.2699ZM118.975 8.04765C116.836 8.04765 115.705 9.099 114.941 9.91005C114.852 10.0058 114.78 10.0888 114.719 10.1586C114.552 10.3514 114.473 10.4428 114.361 10.4207C114.231 10.4207 114.168 10.2914 114.058 10.0692C114.039 10.0291 114.017 9.98601 113.994 9.94009L113.985 9.92178C113.813 9.58241 113.067 8.10772 110.938 8.10772C108.855 8.10772 107.577 9.30971 106.869 9.97595L106.844 10.0002C106.691 10.1504 106.416 10.2405 106.416 9.94009V8.73854C106.416 8.25792 106.293 8.25792 105.499 8.25792C104.735 8.25792 104.491 8.25792 104.491 8.73854V22.4662C104.491 22.8267 104.735 22.8267 105.499 22.8267L105.621 22.827C106.159 22.8289 106.477 22.83 106.477 22.4662V15.6174C106.477 12.2531 108.096 10.0602 110.174 10.0602C112.283 10.0602 112.649 11.8926 112.649 13.3345V22.5263C112.649 22.8498 112.866 22.8356 113.231 22.8118C113.34 22.8047 113.463 22.7967 113.597 22.7967C113.716 22.7967 113.829 22.8017 113.933 22.8064C114.335 22.8245 114.605 22.8366 114.605 22.5263V15.6174C114.605 12.2531 116.163 10.0602 118.578 10.0602C120.38 10.0602 120.9 11.5021 120.9 12.944V22.3761C120.9 22.8288 121.035 22.8285 121.715 22.8269L121.847 22.8267C122.642 22.8267 122.886 22.7666 122.886 22.3761V12.4333C122.825 9.66974 121.205 8.04765 118.975 8.04765ZM21.3552 7.89213C21.4519 7.8933 21.5602 7.8946 21.6817 7.8946C21.7604 7.8946 21.8336 7.89337 21.9011 7.89223C22.3045 7.88543 22.5097 7.88198 22.5358 8.16392C22.5358 8.2818 20.6234 16.5538 19.7522 20.3218C19.5176 21.3365 19.3586 22.0245 19.3327 22.1388C19.1802 22.7373 18.9666 22.9168 18.1124 22.9168C17.1862 22.9168 17.0289 22.5396 16.885 22.1943C16.8772 22.1757 16.8695 22.1571 16.8617 22.1388L14.1771 12.7125C14.1684 12.6869 14.1603 12.6624 14.1525 12.639C14.0784 12.4161 14.0377 12.2935 13.8721 12.2935C13.696 12.2935 13.6651 12.3952 13.6084 12.5819C13.5963 12.6216 13.5831 12.6652 13.567 12.7125L10.8824 22.1388C10.8801 22.1457 10.8777 22.1527 10.8754 22.1597C10.7554 22.5139 10.6189 22.9168 9.63169 22.9168C8.77752 22.9168 8.56397 22.7373 8.41144 22.1388C8.25891 21.6001 5.11676 8.43324 5.11676 8.25369C5.08626 7.83475 5.33031 7.80482 6.06246 7.80482C6.19224 7.80482 6.30572 7.802 6.40529 7.79953C6.86744 7.78804 7.02978 7.78401 7.13018 8.10407L9.41815 18.488C9.47916 18.8171 9.57068 19.1164 9.72321 19.1164C9.90625 19.1164 9.96726 19.0266 10.0588 18.7573L12.9264 8.28362C13.0179 7.92452 13.1704 7.86467 13.9026 7.86467C14.6042 7.86467 14.7567 7.98437 14.8178 8.28362L17.7769 18.7573C17.8379 19.0266 17.8989 19.1164 18.0819 19.1164C18.2345 19.1164 18.2955 18.9668 18.387 18.6675C18.387 18.6675 20.4309 8.28362 20.4919 8.16392C20.622 7.88331 20.7963 7.88541 21.3552 7.89213Z" fill="#292727"/>
</svg>
