<svg width="70" height="70" viewBox="0 0 70 70" fill="none" xmlns="http://www.w3.org/2000/svg">
<rect x="4.375" y="4.375" width="61.25" height="61.25" rx="2.66667" fill="#612066"/>
<path d="M50.771 29.877C50.771 21.4304 43.976 14.583 35.594 14.583C27.212 14.583 20.417 21.4304 20.417 29.877V39.5826C20.417 48.0293 27.212 54.8766 35.594 54.8766C43.976 54.8766 50.771 48.0293 50.771 39.5826V29.877Z" fill="#E50695"/>
<path fill-rule="evenodd" clip-rule="evenodd" d="M29.7875 47.6704C33.867 44.913 35.7829 42.8984 35.9911 41.1168C36.1723 39.5702 35.0832 38.3845 33.8233 37.0142C32.2302 35.2808 30.4268 33.3187 30.4268 29.9779C30.4268 24.5385 40.0686 21.2963 40.1665 21.2669C41.1619 20.9668 41.3139 21.1998 40.5684 21.8188C37.1053 24.6896 35.5434 26.8762 35.3997 28.6642C35.1103 32.2694 43.9462 34.9262 39.9333 42.3696C37.528 46.831 30.2498 48.2245 30.179 48.2391C29.573 48.3692 29.0586 48.1657 29.7875 47.6725V47.6704Z" fill="white"/>
</svg>
