<svg width="86" height="25" viewBox="0 0 86 25" fill="none" xmlns="http://www.w3.org/2000/svg">
<path d="M67.8799 5.2204C67.5428 5.17758 67.1681 5.26723 66.8269 5.47595C66.0763 5.93354 65.707 6.80725 66.0041 7.4254C66.1432 7.71574 66.4135 7.89905 66.7654 7.94454C67.1026 7.98869 67.4772 7.89771 67.8184 7.68898C68.569 7.23139 68.9383 6.35769 68.6412 5.73954C68.5021 5.44919 68.2305 5.26455 67.8786 5.2204H67.8799Z" fill="#552166"/>
<path d="M44.9297 9.03915C44.6621 9.01372 43.0445 8.70599 42.6672 10.1965C42.5562 10.638 42.3287 12.1058 42.2698 12.9059C42.0558 15.8361 41.7146 17.1313 40.2909 17.1795C39.5524 17.2049 37.4397 16.8276 39.4253 9.55026C39.456 9.43787 39.539 9.15689 39.2607 9.17963C38.5074 9.23984 37.2176 9.49674 36.764 10.8802C33.9663 19.4085 38.7081 20.1016 39.8467 20.1016C41.4644 20.1016 42.326 18.4184 42.3354 18.4037C42.3354 18.4037 42.5267 19.9584 44.1336 19.9611C44.5069 19.9611 44.7371 19.8113 44.7692 19.7644C44.7946 19.727 44.8013 19.7109 44.7879 19.6427C44.3277 17.423 44.4588 14.2546 45.1572 9.27864C45.1599 9.26526 45.1853 9.06457 44.9311 9.04048L44.9297 9.03915Z" fill="#552166"/>
<path d="M23.3624 9.03915C23.0948 9.01372 21.4771 8.70599 21.0998 10.1965C20.9888 10.638 20.7613 12.1058 20.7024 12.9059C20.4884 15.8361 20.1472 17.1313 18.7236 17.1795C17.985 17.2049 15.871 16.8276 17.8579 9.55026C17.8887 9.43787 17.9716 9.15689 17.6933 9.17963C16.94 9.23984 15.6502 9.49674 15.1966 10.8802C12.3989 19.4085 17.1407 20.1016 18.2794 20.1016C19.897 20.1016 20.7586 18.4184 20.768 18.4037C20.768 18.4037 20.9593 19.9584 22.5663 19.9611C22.9396 19.9611 23.1697 19.8113 23.2018 19.7644C23.2272 19.727 23.2339 19.7109 23.2205 19.6427C22.7603 17.423 22.8914 14.2546 23.5898 9.27864C23.5925 9.26526 23.6179 9.06457 23.3637 9.04048L23.3624 9.03915Z" fill="#552166"/>
<path d="M67.8786 9.04562C67.6124 9.01351 65.9733 8.70577 65.596 10.1963C65.485 10.6378 65.315 11.648 65.1986 12.9057C64.8869 16.3082 65.2535 18.4182 65.2629 18.4022C65.2629 18.4022 65.4542 19.9569 67.0611 19.9596C67.4344 19.9596 67.6645 19.8097 67.6967 19.7629C67.7221 19.7254 67.7288 19.7094 67.7154 19.6411C67.2551 17.4214 67.3862 14.2531 68.0847 9.27709C68.0847 9.27709 68.1275 9.07505 67.8786 9.04562Z" fill="#552166"/>
<path d="M60.9834 8.93634C59.7364 8.92965 57.8967 9.48358 57.0082 11.1454C57.0082 11.1454 57.2691 7.12337 58.1977 2.30796C58.2231 2.17684 58.1803 2.0591 58.0653 2.08719C57.5876 2.20226 55.9967 2.605 55.5378 4.30424C54.5463 7.97032 53.3274 18.1256 54.5999 19.6469C55.0253 20.1554 56.9681 20.1018 57.047 20.1018C59.4768 20.1018 61.4865 18.9552 62.7081 16.8733C63.9524 14.7512 64.1558 11.9803 63.1924 10.2864C62.6907 9.40464 61.928 8.94304 60.9847 8.93768L60.9834 8.93634ZM60.6449 15.9006C59.8194 17.478 58.5055 17.9999 57.5675 18.0373C57.5675 18.0373 57.2892 18.0681 57.0658 17.8232C56.6109 17.3242 56.6055 16.2525 56.6871 15.1593C56.8423 13.1042 58.2352 11.722 59.4367 11.722C59.8862 11.722 60.2796 11.8933 60.574 12.2184C61.5748 13.3196 61.0891 15.0509 60.6449 15.9006Z" fill="#552166"/>
<path d="M31.8555 8.93634C30.6085 8.92965 28.7687 9.48358 27.8803 11.1454C27.8803 11.1454 28.1412 7.12337 29.0698 2.30796C29.0952 2.17684 29.0524 2.0591 28.9373 2.08719C28.4597 2.20226 26.8688 2.605 26.4099 4.30424C25.4184 7.97032 24.1995 18.1256 25.4719 19.6469C25.8974 20.1554 27.8402 20.1018 27.9191 20.1018C30.3489 20.1018 32.3585 18.9552 33.5801 16.8733C34.8245 14.7512 35.0278 11.9803 34.0645 10.2864C33.5627 9.40464 32.8001 8.94304 31.8568 8.93768L31.8555 8.93634ZM31.517 15.9006C30.6914 17.478 29.3775 17.9999 28.4396 18.0373C28.4396 18.0373 28.1613 18.0681 27.9378 17.8232C27.4829 17.3242 27.4776 16.2525 27.5592 15.1593C27.7144 13.1042 29.1072 11.722 30.3088 11.722C30.7583 11.722 31.1517 11.8933 31.446 12.2184C32.4469 13.3196 31.9612 15.0509 31.517 15.9006Z" fill="#552166"/>
<path d="M78.5168 9.30179C77.9147 9.15194 76.6021 8.93652 75.8488 8.93652C73.035 8.93652 71.2328 10.0176 69.9269 12.2895C69.001 13.9005 68.3601 16.7397 69.7663 18.9259C71.0013 20.8473 74.658 20.2144 75.5464 18.4028C75.5464 18.4028 75.7592 20.0231 77.4852 19.9856C77.7554 19.9803 77.9374 19.904 77.999 19.8063C78.0391 19.7421 78.023 19.6525 77.9829 19.5267C77.6083 18.38 78.0458 15.205 78.7335 9.98015C78.7335 9.98015 78.8486 9.38341 78.5181 9.30179H78.5168ZM75.628 14.2737C75.2146 16.1831 74.3302 17.2789 73.2023 17.2789C72.6671 17.2789 72.2884 17.0233 71.9727 16.5764C71.1016 15.3468 71.7158 13.6864 72.1319 12.9612C73.3481 10.8485 75.2909 10.9984 75.4233 10.9943C75.6374 10.9877 75.7725 11.0666 75.8568 11.1817C76.1392 11.567 75.6321 14.2483 75.6267 14.2737H75.628Z" fill="#552166"/>
<path fill-rule="evenodd" clip-rule="evenodd" d="M4.51012 22.4636C7.59284 20.3965 9.04188 18.8845 9.19976 17.5479C9.33624 16.3879 8.51337 15.4994 7.56073 14.4705C6.35788 13.1713 4.99313 11.6982 4.99313 9.1935C4.99313 5.11399 12.2811 2.68153 12.3547 2.66012C13.108 2.43534 13.2217 2.60928 12.6585 3.07356C10.0414 5.22772 8.85991 6.86541 8.75154 8.20741C8.53211 10.9115 15.21 12.9037 12.1781 18.4858C10.3611 21.8321 4.85934 22.8771 4.80582 22.8878C4.34689 22.9855 3.95887 22.8329 4.51012 22.4636Z" fill="#552166"/>
<path d="M79.5859 18.9002C79.5859 18.7436 79.614 18.5991 79.6702 18.4667C79.7264 18.3342 79.8027 18.2205 79.9004 18.1241C79.998 18.0278 80.1131 17.9529 80.2456 17.898C80.378 17.8432 80.5212 17.8164 80.6737 17.8164C80.8263 17.8164 80.9694 17.8432 81.1019 17.898C81.2343 17.9529 81.3494 18.0278 81.4471 18.1241C81.5447 18.2205 81.621 18.3355 81.6772 18.4667C81.7334 18.5991 81.7615 18.7436 81.7615 18.9002C81.7615 19.0567 81.7334 19.2012 81.6772 19.3337C81.621 19.4661 81.5447 19.5799 81.4471 19.6762C81.3494 19.7725 81.2343 19.8488 81.1019 19.9023C80.9694 19.9558 80.8263 19.9839 80.6737 19.9839C80.5212 19.9839 80.378 19.9572 80.2456 19.9023C80.1131 19.8475 79.998 19.7725 79.9004 19.6762C79.8027 19.5799 79.7264 19.4661 79.6702 19.3337C79.614 19.2012 79.5859 19.0567 79.5859 18.9002ZM79.8214 18.9002C79.8214 19.0219 79.8415 19.1357 79.8816 19.2427C79.9218 19.3497 79.9793 19.4421 80.0542 19.521C80.1292 19.5999 80.2188 19.6615 80.3232 19.707C80.4275 19.7525 80.5439 19.7752 80.6724 19.7752C80.8008 19.7752 80.9172 19.7525 81.0216 19.707C81.126 19.6615 81.2156 19.5999 81.2905 19.521C81.3655 19.4421 81.423 19.3497 81.4631 19.2427C81.5033 19.1357 81.5233 19.0219 81.5233 18.9002C81.5233 18.7784 81.5033 18.6647 81.4631 18.559C81.423 18.4533 81.3655 18.3596 81.2905 18.2807C81.2156 18.2017 81.126 18.1402 81.0216 18.0947C80.9172 18.0492 80.8008 18.0265 80.6724 18.0265C80.5439 18.0265 80.4275 18.0492 80.3232 18.0947C80.2188 18.1402 80.1292 18.2017 80.0542 18.2807C79.9793 18.3596 79.9218 18.4519 79.8816 18.559C79.8415 18.666 79.8214 18.7798 79.8214 18.9002ZM80.8329 18.9992L81.138 19.4501H80.8824L80.6108 19.0246H80.4958V19.4501H80.2737V18.3382H80.6577C80.7152 18.3382 80.7727 18.3436 80.8276 18.3556C80.8824 18.3663 80.9306 18.3864 80.9721 18.4131C81.0136 18.4399 81.047 18.4747 81.0724 18.5175C81.0979 18.5603 81.1112 18.6125 81.1112 18.6754C81.1112 18.765 81.0858 18.836 81.0363 18.8881C80.9868 18.9403 80.9186 18.9751 80.8329 18.9912V19.0005V18.9992ZM80.4971 18.5282V18.8333H80.6202C80.7072 18.8333 80.7714 18.8212 80.8142 18.7958C80.857 18.7717 80.8784 18.7303 80.8784 18.6741C80.8784 18.6312 80.8637 18.5951 80.8343 18.5684C80.8048 18.5416 80.7527 18.5282 80.6791 18.5282H80.4971Z" fill="#552166"/>
<path d="M52.7629 9.16898H52.6492C51.2751 9.1382 50.1311 10.048 49.4822 10.7157C49.5424 10.2527 49.6079 9.77509 49.6775 9.27736C49.6775 9.27736 49.6976 9.0994 49.4434 9.0606C49.1758 9.02046 47.4056 8.6659 47.0658 10.1966C46.9667 10.6408 46.7794 11.7272 46.6684 12.906C46.3499 16.3085 46.7232 18.4185 46.7326 18.4024C46.7326 18.4024 46.9239 19.9572 48.5308 19.9598C48.9041 19.9598 49.1343 19.81 49.1664 19.7632C49.1918 19.7257 49.1945 19.7096 49.1851 19.6414C48.8439 17.1487 48.7918 14.3216 49.5384 13.1548C49.8407 12.6825 50.5164 12.2825 51.1827 12.2825C51.5721 12.2825 52.0404 12.3828 52.312 12.4912C52.4431 12.5434 52.593 12.4564 52.6117 12.3186L52.985 9.42052C53.0024 9.2894 52.8994 9.17032 52.7629 9.17032V9.16898Z" fill="#552166"/>
</svg>
