<svg width="70" height="70" viewBox="0 0 70 70" fill="none" xmlns="http://www.w3.org/2000/svg">
<rect x="4.375" y="4.375" width="61.25" height="61.25" rx="2" fill="#333333"/>
<path d="M52.6953 50.0808L47.139 41.4639C43.8735 36.4409 43.1491 35.5647 40.3764 34.811C45.8703 33.5562 48.8967 30.2929 48.8967 25.7487C48.9004 20.1539 44.0795 16.6826 36.7175 16.6826H31.209V16.7123C32.4593 17.0167 33.4889 17.6182 34.6068 18.3793C34.8532 18.3161 35.2062 18.253 35.8902 18.253C41.1082 18.253 43.925 21.4198 43.925 25.7635C43.925 30.7235 40.9905 34.0277 37.1846 34.0277H35.5519V34.0648C39.2181 35.5907 40.1815 37.7588 41.3951 39.9307L47.1537 50.4929C48.2421 52.3232 49.3637 53.3144 51.2796 53.3144H56.4645V53.0546C54.6002 52.3232 53.7286 51.6512 52.6917 50.0808H52.6953Z" fill="white"/>
<path d="M13.5361 53.3181V53.0583L14.6246 52.5868C15.6101 52.0633 15.8675 51.5918 15.8675 50.7045V19.3C15.8675 18.409 15.6101 17.9375 14.6246 17.414L13.5361 16.9425V16.6826H25.2519C32.3528 16.6826 37.0192 20.191 37.0192 25.37C37.0192 29.2348 33.9083 31.9635 29.2933 33.1144C35.9822 34.0574 40.3876 37.4024 40.3876 43.0566C40.3876 48.7108 36.3426 53.3144 25.5094 53.3144H13.5361V53.3181ZM20.8466 32.8545H24.682C29.5029 32.8545 32.0439 29.5058 32.0439 25.2141C32.0439 20.9224 29.3484 18.253 24.4209 18.253C22.9169 18.253 21.4643 18.6206 20.8429 18.9844V32.8545H20.8466ZM35.1034 42.9564C35.1034 38.8726 32.6653 34.4249 25.4616 34.4249H20.8466V50.9644C22.2991 51.4359 23.7479 51.7477 25.98 51.7477C32.9779 51.7477 35.1034 46.7766 35.1034 42.9564Z" fill="white"/>
</svg>
