<svg width="180" height="25" viewBox="0 0 180 25" fill="none" xmlns="http://www.w3.org/2000/svg">
<path fill-rule="evenodd" clip-rule="evenodd" d="M11.319 9.03472C11.319 11.2072 8.98477 11.3789 7.97302 11.3789C7.47777 11.3789 7.10597 11.3449 7.10597 11.3449V7.00172C7.10597 7.00172 7.58084 6.96484 8.46915 6.96484C9.83145 6.96484 11.319 7.53331 11.319 9.03472ZM14.3675 14.7577C14.3675 11.9018 10.2759 11.6581 10.2759 11.6581C10.2759 11.6581 13.0664 10.9657 13.0664 8.93157C13.0664 6.61707 9.91357 6.25 8.51023 6.25H4.58398C4.95549 6.39003 5.16251 6.63407 5.16251 7.03514V17.2321C5.16251 17.6162 4.95549 17.8579 4.58398 18.0147H9.04682C13.4689 18.0147 14.3675 16.1067 14.3675 14.7577ZM12.3945 14.584C12.3945 17.1621 9.37696 17.3189 8.07667 17.3189C7.47777 17.3189 7.10597 17.2811 7.10597 17.2811V12.1462C7.10597 12.1462 8.11802 12.1127 8.75827 12.1127C10.4915 12.1127 12.3945 12.5611 12.3945 14.584Z" fill="#333333"/>
<path fill-rule="evenodd" clip-rule="evenodd" d="M142.267 9.03472C142.267 11.2072 139.935 11.3789 138.92 11.3789C138.426 11.3789 138.054 11.3449 138.054 11.3449V7.00172C138.054 7.00172 138.529 6.96484 139.418 6.96484C140.78 6.96484 142.267 7.53331 142.267 9.03472ZM145.315 14.7577C145.315 11.9018 141.225 11.6581 141.225 11.6581C141.225 11.6581 144.016 10.9657 144.016 8.93157C144.016 6.61707 140.862 6.25 139.46 6.25H135.531C135.904 6.39003 136.11 6.63407 136.11 7.03514V17.2321C136.11 17.6162 135.904 17.8579 135.531 18.0147H139.995C144.417 18.0147 145.315 16.1067 145.315 14.7577ZM143.342 14.584C143.342 17.1621 140.324 17.3189 139.025 17.3189C138.426 17.3189 138.054 17.2811 138.054 17.2811V12.1462C138.054 12.1462 139.066 12.1127 139.705 12.1127C141.441 12.1127 143.342 12.5611 143.342 14.584Z" fill="#333333"/>
<path fill-rule="evenodd" clip-rule="evenodd" d="M23.1847 13.8649H18.7164C19.5896 12.0423 20.9403 9.13787 20.9403 9.13787C20.9403 9.13787 22.1529 11.7387 23.1847 13.8649ZM27.9138 18.0147C27.2182 17.7448 27.0787 17.5423 26.92 17.1854C26.6017 16.5437 21.477 6.25 21.477 6.25C21.477 6.25 16.3714 16.5437 16.0337 17.1854C15.8535 17.5074 15.6758 17.6927 15.1201 18.0147H17.5428C17.0271 17.8457 16.9677 17.5755 17.1269 17.1854C17.2059 16.9834 17.7221 15.8668 18.377 14.5981H23.5227C24.1387 15.9012 24.6947 16.9834 24.8144 17.1854C24.973 17.5755 24.8337 17.811 24.3175 18.0147H27.9138Z" fill="#333333"/>
<path fill-rule="evenodd" clip-rule="evenodd" d="M40.8917 7.74193V18.75C40.8917 18.75 30.8685 9.02263 30.8685 8.85419V17.6723C30.8685 18.0417 31.0812 18.2792 31.4605 18.4289H29.3407C29.6551 18.2792 29.8864 18.0417 29.8864 17.6723V8.38144C29.8864 7.8938 29.8864 7.86096 29.634 7.59117C29.4021 7.38933 29.1509 7.15323 28.666 6.98535H31.5634L39.8892 15.1816V7.74193C39.8892 7.35536 39.6569 7.11954 39.3411 6.98535H41.4597C41.1237 7.11954 40.8917 7.35536 40.8917 7.74193Z" fill="#333333"/>
<path fill-rule="evenodd" clip-rule="evenodd" d="M49.5252 13.8646H45.0563C45.9297 12.0424 47.2804 9.13717 47.2804 9.13717C47.2804 9.13717 48.4938 11.7393 49.5252 13.8646ZM54.2536 18.0147C53.5581 17.7435 53.4186 17.5401 53.2605 17.1852C52.9419 16.5428 47.8173 6.25 47.8173 6.25C47.8173 6.25 42.7108 16.5428 42.3749 17.1852C42.195 17.5052 42.0165 17.693 41.46 18.0147H43.8839C43.3674 17.8454 43.3077 17.5739 43.4675 17.1852C43.547 16.9813 44.0621 15.8663 44.7183 14.5972H49.8632C50.4791 15.8998 51.035 16.9813 51.1541 17.1852C51.3136 17.5739 51.1743 17.8108 50.6573 18.0147H54.2536Z" fill="#333333"/>
<path fill-rule="evenodd" clip-rule="evenodd" d="M66.4791 7.74302V18.7501C66.4791 18.7501 56.4563 9.02114 56.4563 8.85326V17.6715C56.4563 18.0432 56.6663 18.2787 57.0459 18.4286H54.9271C55.242 18.2787 55.4736 18.0432 55.4736 17.6715V8.38165C55.4736 7.8946 55.4736 7.8612 55.2225 7.59143C54.9902 7.38875 54.7382 7.15519 54.2539 6.98535H57.1512L65.4768 15.1813V7.74302C65.4768 7.35506 65.2443 7.11982 64.9276 6.98535H67.0476C66.7107 7.11982 66.4791 7.35506 66.4791 7.74302Z" fill="#333333"/>
<path fill-rule="evenodd" clip-rule="evenodd" d="M75.865 13.8667H71.3958C72.2703 12.043 73.6207 9.13961 73.6207 9.13961C73.6207 9.13961 74.8321 11.7391 75.865 13.8667ZM80.5935 18.0147C79.8974 17.7443 79.7581 17.5412 79.5998 17.1857C79.2815 16.5448 74.1566 6.25 74.1566 6.25C74.1566 6.25 69.051 16.5448 68.7136 17.1857C68.5351 17.5096 68.3563 17.6955 67.7998 18.0147H70.2226C69.7073 17.8468 69.6481 17.5752 69.8059 17.1857C69.8863 16.9837 70.4028 15.8685 71.0579 14.5991H76.2027C76.8192 15.902 77.3746 16.9837 77.4931 17.1857C77.6523 17.5752 77.5139 17.8144 76.9968 18.0147H80.5935Z" fill="#333333"/>
<path fill-rule="evenodd" clip-rule="evenodd" d="M94.9227 9.16667C94.9227 10.9776 93.3779 11.7536 91.8108 11.7536C91.2733 11.7536 90.6155 11.7211 90.6155 11.7211V6.98255C90.6155 6.98255 91.2338 6.92011 92.1594 6.92011C94.3445 6.92011 94.9227 8.35385 94.9227 9.16667ZM100.16 17.9811C100.16 17.9811 99.2941 17.7055 98.8421 17.2897C97.9568 16.4777 95.7496 13.3157 95.7496 13.3157C95.4384 12.9336 94.862 12.2085 93.7483 12.0146C95.027 11.9285 96.7627 10.9776 96.7627 9.11315C96.7627 8.02526 96.1162 6.25 91.9911 6.25H88.1191C88.4295 6.38811 88.6749 6.60707 88.6749 7.00844V17.204C88.6749 17.5838 88.4295 17.8257 88.1191 17.9811H91.1934C90.8822 17.8257 90.6155 17.5838 90.6155 17.204V12.4502H91.8107C92.8816 12.4502 93.3151 13.1934 93.8509 13.8853C94.5714 14.8535 95.3152 15.9069 96.3687 17.204C96.679 17.5656 97.2555 18.0318 98.0597 18.0142L100.16 17.9811Z" fill="#333333"/>
<path fill-rule="evenodd" clip-rule="evenodd" d="M109.531 18.0147H101.665C102.017 17.858 102.252 17.6505 102.252 17.2313L102.254 7.03627C102.254 6.63434 102.018 6.39052 101.705 6.25H109.064L109.101 7.59143C108.71 7.19295 108.301 6.98578 107.459 6.98578H104.094V11.1252H107.282C107.556 11.1252 107.868 10.8479 107.966 10.6396V12.3249C107.868 12.1163 107.556 11.839 107.282 11.839H104.094V17.2801H106.366C108.479 17.2639 109.218 17.2651 109.943 16.1787L109.531 18.0147Z" fill="#333333"/>
<path fill-rule="evenodd" clip-rule="evenodd" d="M118.819 9.49601C118.819 11.8683 116.555 12.1964 115.509 12.1964C115.105 12.1964 114.737 12.1459 114.561 12.0755V6.98634C114.561 6.98634 114.968 6.93123 115.858 6.93123C117.812 6.93123 118.819 7.91831 118.819 9.49601ZM120.479 9.46167C120.479 8.10874 119.786 6.25 115.912 6.25H112.205C112.496 6.39023 112.748 6.63462 112.748 7.03481L112.745 17.2371C112.745 17.6168 112.493 17.8609 112.201 18.0147H115.093C114.765 17.8609 114.554 17.6168 114.554 17.2371V12.6298C116.042 13.1673 117.803 12.7691 118.403 12.5256C119.003 12.2832 120.479 11.3484 120.479 9.46167Z" fill="#333333"/>
<path fill-rule="evenodd" clip-rule="evenodd" d="M131.995 7.7549V14.9057C131.976 17.7041 129.93 18.75 127.49 18.75C125.344 18.75 122.588 17.8208 122.588 14.9376V7.75319C122.588 7.35988 122.278 7.12139 121.984 6.98535H125.11C124.797 7.12139 124.466 7.35988 124.466 7.75319V14.9709C124.466 16.1494 124.933 17.9566 127.685 17.9566C130.302 17.9566 131.146 16.5097 131.128 14.974L131.123 7.75319C131.123 7.35988 130.927 7.12139 130.615 6.98535H132.52C132.21 7.12139 131.995 7.36216 131.995 7.7549Z" fill="#333333"/>
<path fill-rule="evenodd" clip-rule="evenodd" d="M154.702 18.0147H146.819C147.156 17.8566 147.374 17.6133 147.374 17.231V7.02935C147.374 6.63145 147.156 6.38994 146.819 6.25H149.792C149.475 6.38994 149.257 6.63145 149.257 7.02935V17.2801H151.375C153.751 17.2633 154.424 17.231 155.098 16.1767L154.702 18.0147Z" fill="#333333"/>
<path fill-rule="evenodd" clip-rule="evenodd" d="M157.355 18.0147C157.679 17.8574 157.904 17.6165 157.904 17.2356V7.02794C157.904 6.63003 157.679 6.38735 157.355 6.25H160.366C160.061 6.38735 159.839 6.63003 159.839 7.02794V17.2356C159.839 17.6165 160.061 17.8574 160.366 18.0147H157.355Z" fill="#333333"/>
<path fill-rule="evenodd" clip-rule="evenodd" d="M175.231 16.865C173.556 17.71 171.656 18.0147 170.142 18.0147C166.143 18.0147 162.623 15.6859 162.623 12.1671C162.623 9.30317 165.235 6.25 170.364 6.25C172.04 6.25 173.556 6.64079 175.13 7.21492C175.13 7.21492 175.352 9.77526 175.311 9.70853C174.02 7.21492 171.514 6.96206 170.525 6.96206C166.668 6.96206 164.689 9.21934 164.689 11.9479C164.689 14.372 166.284 17.2681 170.505 17.2681C171.414 17.2681 173.876 17.2188 175.412 14.5404C175.452 14.4908 175.231 16.865 175.231 16.865Z" fill="#333333"/>
</svg>
