<svg xmlns="http://www.w3.org/2000/svg" width="30" height="30" fill="none" overflow="visible" preserveAspectRatio="none" style="display:block" viewBox="0 0 30 30"><mask id="a" width="30" height="30" x="0" y="0" maskUnits="userSpaceOnUse" style="mask-type:alpha"><path fill="#d9d9d9" d="M0 0h30v30H0z"/></mask><g mask="url(#a)"><path fill="#fff" d="M9.25 21.563q-1.312 1.093-2.734 1-1.422-.094-2.485-.97-1.062-.874-1.453-2.296-.39-1.422.516-2.922L5.438 12.5a5 5 0 0 1-1.235-1.656A4.9 4.9 0 0 1 3.75 8.75q0-2.062 1.469-3.531T8.75 3.75t3.531 1.469q1.47 1.469 1.469 3.531t-1.469 3.531q-1.469 1.47-3.531 1.469-.281 0-.562-.031a4 4 0 0 1-.532-.094L5.25 17.688q-.344.562-.219 1.109t.532.89q.405.345.968.391t1.094-.39L20.75 8.406q1.313-1.094 2.75-.984 1.438.109 2.5.984 1.062.876 1.438 2.297.374 1.422-.532 2.922L24.563 17.5q.78.687 1.234 1.656a4.9 4.9 0 0 1 .453 2.094q0 2.063-1.469 3.531-1.468 1.47-3.531 1.469-2.062 0-3.531-1.469-1.47-1.468-1.469-3.531 0-2.062 1.469-3.531 1.468-1.47 3.531-1.469.282 0 .547.031t.515.094l2.438-4.062q.344-.563.219-1.11a1.6 1.6 0 0 0-.532-.89q-.405-.345-.968-.391t-1.094.39zm1.266-11.047q.734-.734.734-1.766 0-1.03-.734-1.766A2.4 2.4 0 0 0 8.75 6.25q-1.03 0-1.766.734A2.4 2.4 0 0 0 6.25 8.75q0 1.031.734 1.766.735.734 1.766.734t1.766-.734m12.5 12.5q.734-.734.734-1.766 0-1.03-.734-1.766a2.4 2.4 0 0 0-1.766-.734q-1.03 0-1.766.734a2.4 2.4 0 0 0-.734 1.766q0 1.032.734 1.766t1.766.734 1.766-.734"/></g></svg>