<svg width="40" height="41" viewBox="0 0 40 41" fill="none" xmlns="http://www.w3.org/2000/svg">
<path d="M20 7.86842C26.9659 7.86842 32.6316 13.5341 32.6316 20.5C32.6316 27.4659 26.9659 33.1316 20 33.1316C13.0341 33.1316 7.36842 27.4659 7.36842 20.5C7.36842 13.5341 13.0358 7.86842 20 7.86842ZM20 4.5C11.1629 4.5 4 11.6629 4 20.5C4 29.3371 11.1629 36.5 20 36.5C28.8371 36.5 36 29.3371 36 20.5C36 11.6629 28.8371 4.5 20 4.5Z" fill="#4D4D4D"/>
<mask id="mask0_1899_68866" style="mask-type:luminance" maskUnits="userSpaceOnUse" x="4" y="4" width="32" height="33">
<path d="M20 36.5C28.8366 36.5 36 29.3366 36 20.5C36 11.6634 28.8366 4.5 20 4.5C11.1634 4.5 4 11.6634 4 20.5C4 29.3366 11.1634 36.5 20 36.5Z" fill="white"/>
</mask>
<g mask="url(#mask0_1899_68866)">
<path d="M35.9082 12.1353L2.22705 16.1396L2.74998 20.5381L36.4311 16.5338L35.9082 12.1353Z" fill="#4D4D4D"/>
<path d="M37.4253 19.8839L3.74414 23.8882L4.26707 28.2867L37.9482 24.2824L37.4253 19.8839Z" fill="#4D4D4D"/>
</g>
<path d="M33.7938 12.3887L30.0312 12.835C30.9828 14.0779 31.707 15.5011 32.1466 17.0438L35.5302 16.6413C35.5184 16.5941 35.5083 16.547 35.4948 16.4998C35.3635 15.9878 35.2068 15.4876 35.0283 14.9975C34.9828 14.8746 34.9374 14.7533 34.8902 14.632C34.6999 14.147 34.486 13.6754 34.2502 13.2156C34.1323 12.9849 34.0094 12.7592 33.8814 12.5352C33.8527 12.4864 33.8241 12.4375 33.7955 12.3887H33.7938Z" fill="#4D4D4D"/>
<path d="M8.44805 15.4019L4.68889 15.8482C4.62321 16.0637 4.56089 16.281 4.50531 16.5016C4.18531 17.7463 4.01184 19.0482 4.00342 20.3905L7.38363 19.9896C7.44931 18.3627 7.82321 16.8149 8.44973 15.4019H8.44805Z" fill="#4D4D4D"/>
<path d="M35.9934 20.0552L32.63 20.4543C32.63 20.4695 32.63 20.4846 32.63 20.4998C32.63 22.0897 32.3319 23.6122 31.793 25.0152L35.473 24.5773C35.8149 23.2754 35.9984 21.9095 35.9984 20.4998C35.9984 20.3516 35.9968 20.2034 35.9917 20.0552H35.9934Z" fill="#4D4D4D"/>
<path d="M7.71195 23.4155L4.34521 23.8164C4.66521 25.3305 5.19743 26.7671 5.91153 28.0909L9.59658 27.653C8.72416 26.3882 8.07743 24.9566 7.71195 23.4172V23.4155Z" fill="#4D4D4D"/>
<mask id="mask1_1899_68866" style="mask-type:luminance" maskUnits="userSpaceOnUse" x="4" y="4" width="32" height="33">
<path d="M20 36.5C28.8366 36.5 36 29.3366 36 20.5C36 11.6634 28.8366 4.5 20 4.5C11.1634 4.5 4 11.6634 4 20.5C4 29.3366 11.1634 36.5 20 36.5Z" fill="white"/>
</mask>
<g mask="url(#mask1_1899_68866)">
<path d="M32.9733 4.88439L1.12891 16.563L2.65404 20.7216L34.4984 9.04302L32.9733 4.88439Z" fill="#4D4D4D"/>
<path d="M35.3292 12.1266L3.48486 23.8052L5.01 27.9638L36.8543 16.2852L35.3292 12.1266Z" fill="#4D4D4D"/>
<path d="M36.2877 20.0018L16.5129 27.254C15.3645 27.6752 14.775 28.9475 15.1962 30.0959C15.6173 31.2443 16.8897 31.8338 18.038 31.4127L37.8129 24.1604C38.9613 23.7393 39.5508 22.4669 39.1296 21.3186C38.7085 20.1702 37.4361 19.5807 36.2877 20.0018Z" fill="#4D4D4D"/>
</g>
</svg>
