<svg width="40"
     height="40"
     viewBox="0 0 40 40"
     fill="none"
     xmlns="http://www.w3.org/2000/svg">
    <path d="M21.5745 18.4766C22.2083 18.378 22.4196 17.9132 22.2928 17.3358C22.1775 16.6627 22.1967 15.9734 22.3491 15.3078C22.8843 12.6601 25.0391 10.7306 27.7995 10.463C30.1937 10.2377 32.7288 11.815 33.7005 14.1248C34.7709 16.6739 34.1371 19.4202 31.9682 21.082C30.1092 22.5045 29.2501 24.2509 29.5459 26.5887C29.7149 27.8844 28.7713 29.0393 27.5319 29.4195C26.2926 29.7998 24.3913 29.0815 24.0533 27.307C23.9406 26.7014 23.4899 26.4479 22.8984 26.6028C22.3069 26.7577 22.2224 27.2225 22.3069 27.7577C22.659 29.8984 25.1518 31.6588 27.3066 31.2786C30.067 30.7856 31.6021 28.7999 31.3063 26.0113C31.1796 24.8283 31.5739 23.8706 32.4189 23.0819C32.7288 22.7862 33.0808 22.5327 33.4048 22.2369C34.5746 21.1889 35.4008 19.8122 35.7752 18.2869C36.1497 16.7615 36.0549 15.1587 35.5032 13.6882C34.9556 12.2115 33.9675 10.9387 32.6728 10.042C31.3781 9.14527 29.8392 8.66787 28.2643 8.6744C23.7293 8.5054 19.7437 12.6741 20.5324 17.6175C20.6169 18.2372 20.9549 18.5752 21.5745 18.4766Z"
          fill="#4D4D4D" />
    <path d="M4.39243 23.6453C5.74446 23.4763 7.36407 24.3495 8.36401 22.7017C8.37809 22.6735 8.46259 22.7017 8.53301 22.7158C8.78651 23.3495 9.0541 23.9833 9.29352 24.6171C9.40619 24.8987 9.50478 25.1945 9.85687 25.1663C10.1385 25.1382 10.2371 24.8846 10.3216 24.6171C10.4625 24.0912 10.6462 23.5778 10.8709 23.0819C11.0399 22.7299 10.9413 22.2088 11.5046 22.0116L12.0539 24.5466C12.2652 25.5466 12.4905 26.5606 12.7158 27.5605C12.7722 27.7859 12.8285 28.0112 13.1524 27.9971C13.4482 27.983 13.5468 27.8 13.589 27.5605C13.6172 27.4197 13.6735 27.2789 13.6876 27.138C13.9411 25.2508 14.1805 23.3495 14.4904 21.4623C14.5608 21.0117 14.4763 20.4624 14.941 20.0117C15.3354 21.744 15.7016 23.3777 16.0677 25.0114C16.1241 25.2649 16.1804 25.5325 16.5184 25.5607C16.8846 25.5888 16.9832 25.3212 17.0958 25.0396C17.4338 24.1946 17.8 23.3636 18.1944 22.4341C18.7154 23.2087 18.8422 24.0537 19.1802 24.8001C19.307 25.0818 19.307 25.4762 19.7154 25.5043C20.1238 25.5325 20.2506 25.1945 20.3632 24.9128C20.7435 23.9974 21.335 23.4622 22.4053 23.6594C22.7011 23.7157 23.0814 23.7016 23.0814 23.2228C23.0814 22.7862 22.7715 22.7299 22.4335 22.7299C21.4618 22.7299 20.4055 22.4904 19.8562 23.9129C19.4619 22.8144 19.1661 21.9834 18.8563 21.1666C18.7436 20.8849 18.6591 20.4906 18.2789 20.4906C17.8986 20.4906 17.8141 20.8849 17.6873 21.1525C17.3775 21.8285 17.2085 22.589 16.6592 23.3214C16.1804 21.1666 15.7438 19.1385 15.2791 17.1246C15.2086 16.8007 15.265 16.2796 14.7157 16.3077C14.1946 16.3359 14.2369 16.8288 14.1946 17.1528C13.9974 18.4203 13.8707 19.7019 13.6594 20.9694C13.4764 22.0538 13.4482 23.1664 13.0257 24.4762C12.6736 22.8284 12.3778 21.4342 12.0821 20.054C12.0117 19.7441 11.9976 19.392 11.5751 19.3639C11.1526 19.3357 11.0962 19.6878 10.9976 19.9836C10.6315 20.9976 10.2653 21.9975 9.8287 23.2228C9.58928 22.6031 9.46253 22.1947 9.27944 21.8285C9.11044 21.5187 9.08227 21.0257 8.63159 20.9976C8.23725 20.9835 8.05417 21.3637 7.91333 21.6736C7.46265 22.5468 6.75847 22.8707 5.80079 22.7439C5.36976 22.6993 4.93505 22.7041 4.5051 22.758C4.23751 22.7721 3.99809 22.9129 4.01217 23.2369C3.99702 23.2908 3.996 23.3478 4.00921 23.4022C4.02241 23.4567 4.04941 23.5069 4.0876 23.5479C4.12579 23.5889 4.17389 23.6194 4.22727 23.6365C4.28066 23.6535 4.33753 23.6566 4.39243 23.6453Z"
          fill="#4D4D4D" />
    <path d="M24.5318 22.3778C25.0248 22.6313 25.5318 22.5609 25.8698 22.0116C26.1505 21.55 26.3193 21.0291 26.3627 20.4906C26.4472 19.209 26.0669 17.9978 25.9824 16.7444C25.8979 15.4909 26.419 14.7022 27.4612 14.3079C27.8944 14.1497 28.3652 14.1255 28.8123 14.2385C29.2594 14.3516 29.6622 14.5966 29.9681 14.9417C30.6864 15.7726 30.7568 16.7444 30.0949 17.7866C29.7568 18.3358 29.6019 18.8992 30.2216 19.2794C30.8413 19.6597 31.3201 19.2794 31.6441 18.7442C32.475 17.4345 32.5877 16.0543 31.8835 14.66C31.137 13.1671 29.8695 12.4348 28.5175 12.3785C25.5318 12.3362 23.5742 14.8431 24.1938 17.5471C24.4755 18.7583 24.7008 19.9413 24.0671 21.1385C23.8136 21.6455 24.0671 22.1384 24.5318 22.3778Z"
          fill="#4D4D4D" />
</svg>