<svg width="81" height="81" viewBox="0 0 81 81" fill="none" xmlns="http://www.w3.org/2000/svg">
<path d="M27.2829 20.002C29.1292 20.002 30.8368 20.1464 32.3971 20.574C33.9602 20.8601 35.2402 21.4322 36.3757 22.1459C37.5141 22.8624 38.3665 23.8621 38.9328 25.1479C39.502 26.4337 39.7881 28.0084 39.7881 29.7218C39.7881 31.7241 39.3604 33.4375 38.3665 34.7232C37.5141 36.0119 36.0926 37.1532 34.3878 38.0113C36.8034 38.7279 38.6497 40.0137 39.7881 41.73C40.9236 43.4433 41.6344 45.5872 41.6344 48.0172C41.6344 50.0195 41.2067 51.7329 40.496 53.1632C39.7881 54.5934 38.6497 55.8792 37.3697 56.7373C35.9792 57.657 34.4422 58.3332 32.8247 58.7367C31.12 59.1673 29.4153 59.4533 27.7105 59.4533H8.66675V20.002H27.2829ZM26.1445 36.009C27.7076 36.009 28.9876 35.5814 29.9816 34.8677C30.9755 34.154 31.4031 32.8654 31.4031 31.2936C31.4031 30.4354 31.2587 29.5802 30.9755 29.0081C30.6923 28.436 30.2647 28.0055 29.6984 27.5779C29.1292 27.2918 28.56 27.0058 27.8492 26.8642C27.1384 26.7197 26.4305 26.7197 25.5753 26.7197H17.3348V36.0119H26.1474L26.1445 36.009ZM26.5721 52.8771C27.4245 52.8771 28.2768 52.7326 28.9876 52.5911C29.6984 52.4466 30.4092 52.1634 30.9755 51.7329C31.5545 51.3146 32.0389 50.7791 32.3971 50.1611C32.6802 49.4474 32.9663 48.5893 32.9663 47.5896C32.9663 45.5873 32.3971 44.157 31.2616 43.1573C30.1231 42.2992 28.56 41.8715 26.7137 41.8715H17.3348V52.88L26.5721 52.8771ZM53.9979 52.7326C55.1335 53.8768 56.8382 54.4489 59.1121 54.4489C60.6753 54.4489 62.0968 54.0213 63.2323 53.3076C64.3707 52.4495 65.0815 51.5913 65.3647 50.7361H72.3281C71.1896 54.1629 69.4849 56.5928 67.2139 58.1675C64.9371 59.5949 62.2384 60.453 58.9705 60.453C56.8797 60.4595 54.8064 60.0713 52.8595 59.3088C51.1076 58.6518 49.5453 57.5719 48.3117 56.1652C46.9921 54.8493 46.0167 53.2289 45.4714 51.4469C44.7607 49.589 44.4746 47.5896 44.4746 45.3012C44.4746 43.1573 44.7607 41.1579 45.4714 39.2971C46.156 37.5068 47.1682 35.8596 48.4561 34.4401C49.7538 33.1076 51.2972 32.0391 53.0011 31.2936C54.8986 30.531 56.9256 30.1424 58.9705 30.1494C61.386 30.1494 63.5184 30.5799 65.3647 31.5796C67.2139 32.5793 68.6326 33.7235 69.7681 35.4398C70.9065 37.0116 71.7617 38.8695 72.3281 40.8718C72.6112 42.8713 72.7528 44.8736 72.6112 47.1591H52.0072C52.0072 49.4474 52.8595 51.5913 53.9979 52.7355V52.7326ZM62.9492 37.7253C61.9552 36.7256 60.3921 36.1535 58.5429 36.1535C57.2658 36.1535 56.269 36.4424 55.4166 36.87C54.5643 37.2977 53.9979 37.8698 53.4287 38.4419C52.9048 38.9942 52.5577 39.6904 52.4319 40.4413C52.2903 41.1579 52.1487 41.73 52.1487 42.2992H64.9371C64.6539 40.1553 63.9431 38.7279 62.9492 37.7253ZM50.444 22.718H66.3586V26.5781H50.4469V22.718H50.444Z" fill="#1769FF"/>
</svg>
