<svg width="80" height="81" viewBox="0 0 80 81" fill="none" xmlns="http://www.w3.org/2000/svg">
<g style="mix-blend-mode:multiply">
<path d="M40 9.00293C35.7977 9.00293 31.6365 9.83063 27.7541 11.4388C23.8717 13.0469 20.3441 15.404 17.3726 18.3755C11.3714 24.3767 8 32.516 8 41.0029C8 55.1469 17.184 67.1469 29.888 71.4029C31.488 71.6589 32 70.6669 32 69.8029V64.3949C23.136 66.3149 21.248 60.1069 21.248 60.1069C19.776 56.3949 17.696 55.4029 17.696 55.4029C14.784 53.4189 17.92 53.4829 17.92 53.4829C21.12 53.7069 22.816 56.7789 22.816 56.7789C25.6 61.6429 30.304 60.2029 32.128 59.4349C32.416 57.3549 33.248 55.9469 34.144 55.1469C27.04 54.3469 19.584 51.5949 19.584 39.4029C19.584 35.8509 20.8 33.0029 22.88 30.7309C22.56 29.9309 21.44 26.6029 23.2 22.2829C23.2 22.2829 25.888 21.4189 32 25.5469C34.528 24.8429 37.28 24.4909 40 24.4909C42.72 24.4909 45.472 24.8429 48 25.5469C54.112 21.4189 56.8 22.2829 56.8 22.2829C58.56 26.6029 57.44 29.9309 57.12 30.7309C59.2 33.0029 60.416 35.8509 60.416 39.4029C60.416 51.6269 52.928 54.3149 45.792 55.1149C46.944 56.1069 48 58.0589 48 61.0349V69.8029C48 70.6669 48.512 71.6909 50.144 71.4029C62.848 67.1149 72 55.1469 72 41.0029C72 36.8006 71.1723 32.6395 69.5641 28.7571C67.956 24.8746 65.5989 21.347 62.6274 18.3755C59.6559 15.404 56.1283 13.0469 52.2459 11.4388C48.3635 9.83063 44.2023 9.00293 40 9.00293Z" fill="#333333"/>
</g>
</svg>
