<svg width="150" height="150" viewBox="0 0 150 150" fill="none" xmlns="http://www.w3.org/2000/svg">
<path d="M80.9041 69.2872C83.2807 68.9175 84.0729 67.1747 83.5976 65.0094C83.1652 62.4852 83.237 59.9004 83.8089 57.4042C85.8158 47.4753 93.8963 40.2398 104.248 39.2364C113.226 38.3914 122.732 44.3065 126.377 52.9679C130.39 62.5271 128.014 72.8257 119.88 79.0577C112.909 84.3919 109.687 90.9408 110.797 99.7078C111.43 104.567 107.892 108.897 103.244 110.323C98.5967 111.749 91.4668 109.056 90.1993 102.401C89.7768 100.13 88.0868 99.1797 85.8686 99.7606C83.6504 100.342 83.3336 102.084 83.6504 104.091C84.9708 112.119 94.3188 118.721 102.399 117.295C112.751 115.446 118.507 108 117.398 97.5425C116.923 93.1061 118.402 89.5148 121.571 86.5573C122.732 85.4482 124.053 84.4975 125.267 83.3884C129.654 79.4585 132.753 74.2957 134.157 68.5758C135.561 62.8558 135.205 56.8452 133.137 51.3307C131.083 45.7932 127.378 41.0203 122.523 37.6575C117.667 34.2948 111.896 32.5046 105.991 32.5291C88.9846 31.8953 74.0384 47.5281 76.9959 66.0656C77.3128 68.3894 78.5803 69.6569 80.9041 69.2872Z" fill="#333333"/>
<path d="M16.4716 88.6698C21.5417 88.0361 27.6153 91.3105 31.365 85.1313C31.4178 85.0257 31.7347 85.1313 31.9988 85.1841C32.9494 87.5608 33.9529 89.9374 34.8507 92.314C35.2732 93.3702 35.6429 94.4793 36.9632 94.3737C38.0195 94.2681 38.3892 93.3174 38.7061 92.314C39.2343 90.3421 39.9232 88.4167 40.7658 86.5573C41.3996 85.237 41.0299 83.2829 43.1424 82.5435L45.2022 92.0499C45.9944 95.7997 46.8394 99.6022 47.6844 103.352C47.8956 104.197 48.1069 105.042 49.3216 104.989C50.4307 104.936 50.8004 104.25 50.9588 103.352C51.0645 102.824 51.2757 102.296 51.3285 101.768C52.2792 94.6906 53.177 87.5608 54.3389 80.4838C54.603 78.7937 54.2861 76.734 56.0289 75.044C57.5077 81.54 58.8808 87.6664 60.254 93.7928C60.4653 94.7434 60.6765 95.7468 61.944 95.8525C63.3172 95.9581 63.6869 94.9546 64.1094 93.8984C65.3769 90.7296 66.7501 87.6136 68.2288 84.1279C70.1829 87.0326 70.6583 90.2014 71.9258 93.0005C72.4011 94.0568 72.4011 95.5356 73.9327 95.6412C75.4643 95.7468 75.9396 94.4793 76.3621 93.4231C77.7881 89.9902 80.0062 87.9833 84.0201 88.7227C85.1291 88.9339 86.5551 88.8811 86.5551 87.0854C86.5551 85.4482 85.3932 85.237 84.1257 85.237C80.4816 85.237 76.5206 84.3391 74.4608 89.6733C72.982 85.5538 71.873 82.4378 70.7111 79.3747C70.2886 78.3184 69.9717 76.8396 68.5457 76.8396C67.1198 76.8396 66.8029 78.3184 66.3275 79.3219C65.1657 81.8569 64.5319 84.7088 62.4722 87.4551C60.6765 79.3747 59.0393 71.7695 57.2964 64.2172C57.0324 63.0025 57.2436 61.0484 55.1839 61.154C53.2298 61.2596 53.3882 63.1081 53.2298 64.3228C52.4904 69.076 52.0151 73.8821 51.2229 78.6353C50.5363 82.7019 50.4307 86.8742 48.8463 91.7858C47.5259 85.6067 46.4169 80.3781 45.3078 75.2024C45.0437 74.0405 44.9909 72.7202 43.4065 72.6145C41.8221 72.5089 41.6108 73.8293 41.2411 74.9383C39.868 78.7409 38.4948 82.4907 36.8576 87.0854C35.9598 84.7616 35.4845 83.2301 34.7979 81.8569C34.1641 80.695 34.0585 78.8465 32.3685 78.7409C30.8897 78.6881 30.2031 80.1141 29.675 81.276C27.985 84.5504 25.3443 85.7651 21.753 85.2898C20.1366 85.1225 18.5065 85.1402 16.8941 85.3426C15.8907 85.3954 14.9928 85.9235 15.0457 87.1383C14.9888 87.3406 14.985 87.5541 15.0345 87.7584C15.0841 87.9626 15.1853 88.1507 15.3285 88.3045C15.4717 88.4583 15.6521 88.5727 15.8523 88.6367C16.0525 88.7007 16.2657 88.7121 16.4716 88.6698Z" fill="#333333"/>
<path d="M91.9949 83.9166C93.8434 84.8673 95.7447 84.6032 97.0122 82.5435C98.0649 80.8124 98.6979 78.859 98.8607 76.8396C99.1776 72.0336 97.7516 67.4916 97.4347 62.7912C97.1178 58.0908 99.0719 55.1333 102.98 53.6545C104.605 53.0611 106.37 52.9705 108.047 53.3944C109.723 53.8183 111.234 54.737 112.381 56.0311C115.074 59.1471 115.338 62.7912 112.856 66.6994C111.589 68.7591 111.008 70.8717 113.332 72.2976C115.655 73.7236 117.451 72.2976 118.666 70.2907C121.782 65.3791 122.204 60.2034 119.564 54.9748C116.764 49.3766 112.011 46.6303 106.941 46.419C95.7447 46.2606 88.4036 55.6614 90.7274 65.8016C91.7837 70.3435 92.6287 74.7799 90.2521 79.269C89.3014 81.1703 90.2521 83.0188 91.9949 83.9166Z" fill="#333333"/>
</svg>
