<svg width="484" height="105" viewBox="0 0 484 105" fill="none" xmlns="http://www.w3.org/2000/svg">
<path d="M93.775 79.8405V21.0983C93.775 18.9414 94.3726 17.4748 95.5676 16.5797C96.7626 15.6846 98.6854 15.2424 101.336 15.2424C103.987 15.2424 105.79 15.6954 106.942 16.5797C108.093 17.4641 108.68 18.9846 108.68 21.0983V44.716H123.194V21.0983C123.194 18.9414 123.791 17.4748 124.986 16.5797C126.181 15.6846 128.094 15.2424 130.744 15.2424C133.395 15.2424 135.198 15.6954 136.361 16.5797C137.523 17.4641 138.099 18.9846 138.099 21.0983V79.8405C138.099 81.9974 137.523 83.464 136.361 84.3591C135.198 85.2542 133.33 85.6964 130.744 85.6964C128.159 85.6964 126.095 85.2434 124.932 84.3591C123.77 83.4748 123.194 81.9542 123.194 79.8405V56.2228H108.68V79.8405C108.68 81.9974 108.104 83.464 106.942 84.3591C105.779 85.2542 103.911 85.6964 101.336 85.6964C98.7615 85.6964 96.6756 85.2434 95.5132 84.3591C94.3508 83.4748 93.775 81.9542 93.775 79.8405Z" fill="#333333"/>
<path d="M168.604 86.5915C160.695 86.5915 155.173 84.5892 152.037 80.5846C148.901 76.58 147.333 69.98 147.333 60.7846V21.0983C147.333 18.9414 147.909 17.4748 149.049 16.5797C150.19 15.6846 152.015 15.2424 154.557 15.2424C157.099 15.2424 158.805 15.6954 159.913 16.5797C161.021 17.4641 161.575 18.9846 161.575 21.0983V62.5748C161.575 67.8016 162.129 71.3389 163.237 73.1866C163.837 74.0496 164.638 74.7552 165.573 75.2426C166.508 75.73 167.548 75.9847 168.604 75.9847C169.66 75.9847 170.7 75.73 171.635 75.2426C172.57 74.7552 173.371 74.0496 173.971 73.1866C175.079 71.3389 175.633 67.8016 175.633 62.5748V21.0983C175.633 18.9414 176.198 17.4748 177.338 16.5797C178.479 15.6846 180.315 15.2424 182.846 15.2424C185.378 15.2424 187.105 15.6954 188.213 16.5797C189.321 17.4641 189.875 18.9846 189.875 21.0983V61.3022C189.875 70.1669 188.086 76.6016 184.509 80.6062C180.931 84.6108 175.629 86.6058 168.604 86.5915Z" fill="#333333"/>
<path d="M220.73 85.2001H207.378C204.782 85.2001 202.935 84.7471 201.838 83.8628C200.741 82.9785 200.176 81.4579 200.176 79.3442V21.5942C200.176 19.4373 200.73 17.9168 201.838 17.0325C202.946 16.1481 204.793 15.7168 207.378 15.7383H222.055C228.429 15.7383 233.18 17.1438 236.309 19.955C239.437 22.7661 240.994 27.1481 240.98 33.101C240.98 41.4409 238.235 46.7001 232.745 48.8785C232.585 48.915 232.442 49.0041 232.34 49.1314C232.237 49.2586 232.181 49.4165 232.18 49.5795C232.18 49.903 232.365 50.1079 232.745 50.1726C234.235 50.4894 235.636 51.1294 236.847 52.0467C238.059 52.964 239.051 54.1359 239.752 55.4785C241.255 58.4461 242.001 61.7344 241.925 65.055C241.925 72.1942 240.299 77.3383 237.047 80.4873C233.795 83.6364 228.356 85.2073 220.73 85.2001ZM214.005 25.7138V45.7619H221.012C225.553 45.7619 227.824 42.1887 227.824 35.0423C227.824 31.6632 227.321 29.2654 226.314 27.8491C225.307 26.4327 223.352 25.7138 220.448 25.6922L214.005 25.7138ZM214.005 54.3893V75.0305H220.817C223.663 75.0305 225.695 74.2325 226.933 72.6472C228.172 71.0619 228.78 68.3334 228.78 64.5158C228.78 60.6981 228.172 58.1962 226.977 56.6756C226.294 55.8839 225.432 55.264 224.461 54.8666C223.491 54.4692 222.439 54.3057 221.393 54.3893H214.005Z" fill="#333333"/>
<path d="M271.396 85.2001H258.023C255.426 85.2001 253.579 84.7471 252.471 83.8628C251.363 82.9785 250.809 81.4579 250.809 79.3442V21.5942C250.809 19.4373 251.363 17.9168 252.471 17.0325C253.579 16.1481 255.43 15.7168 258.023 15.7383H272.743C279.145 15.7383 283.911 17.1438 287.04 19.955C290.168 22.7661 291.733 27.1481 291.733 33.101C291.733 41.4409 288.981 46.7001 283.476 48.8785C283.315 48.9146 283.171 49.0033 283.067 49.1304C282.962 49.2575 282.904 49.4156 282.901 49.5795C282.901 49.903 283.096 50.1079 283.476 50.1726C284.97 50.4872 286.375 51.1261 287.59 52.0435C288.805 52.9609 289.801 54.1339 290.505 55.4785C292.008 58.4461 292.754 61.7344 292.678 65.055C292.678 72.1942 291.048 77.3383 287.789 80.4873C284.53 83.6364 279.066 85.2073 271.396 85.2001ZM264.671 25.7138V45.7619H271.7C276.263 45.7619 278.541 42.1887 278.533 35.0423C278.533 31.6668 278.034 29.2726 277.012 27.8491C275.991 26.4256 274.047 25.6922 271.135 25.6922L264.671 25.7138ZM264.671 54.3893V75.0305H271.515C274.362 75.0305 276.4 74.2361 277.632 72.6472C278.863 71.0583 279.482 68.3478 279.489 64.5158C279.489 60.806 278.881 58.1962 277.686 56.6756C276.998 55.8842 276.132 55.2648 275.158 54.8676C274.184 54.4704 273.13 54.3066 272.08 54.3893H264.671Z" fill="#333333"/>
<path d="M319.795 86.5915C311.886 86.5915 306.364 84.5892 303.228 80.5846C300.092 76.58 298.535 69.98 298.556 60.7846V21.0983C298.556 18.9414 299.132 17.4748 300.273 16.5797C301.414 15.6846 303.239 15.2424 305.77 15.2424C308.301 15.2424 310.029 15.6954 311.137 16.5797C312.245 17.4641 312.799 18.9846 312.799 21.0983V62.5748C312.799 67.8016 313.353 71.3389 314.461 73.1866C315.06 74.0496 315.862 74.7552 316.797 75.2426C317.732 75.73 318.772 75.9847 319.828 75.9847C320.884 75.9847 321.924 75.73 322.859 75.2426C323.793 74.7552 324.595 74.0496 325.194 73.1866C326.302 71.3389 326.857 67.8016 326.857 62.5748V21.0983C326.857 18.9414 327.421 17.4748 328.562 16.5797C329.703 15.6846 331.539 15.2424 334.07 15.2424C336.601 15.2424 338.329 15.6954 339.437 16.5797C340.545 17.4641 341.099 18.9846 341.099 21.0983V61.3022C341.099 70.1669 339.31 76.6016 335.732 80.6062C332.154 84.6108 326.842 86.6058 319.795 86.5915Z" fill="#333333"/>
<path d="M369.083 85.2001H355.688C353.092 85.2001 351.245 84.7471 350.137 83.8628C349.029 82.9785 348.475 81.4579 348.475 79.3442V21.5942C348.475 19.4373 349.029 17.9168 350.137 17.0325C351.245 16.1481 353.095 15.7168 355.688 15.7383H370.409C376.797 15.7383 381.562 17.1438 384.705 19.955C387.849 22.7661 389.413 27.1481 389.398 33.101C389.398 41.4409 386.646 46.7001 381.142 48.8785C380.981 48.9146 380.837 49.0033 380.732 49.1304C380.628 49.2575 380.569 49.4156 380.566 49.5795C380.566 49.903 380.762 50.1079 381.142 50.1726C382.635 50.4893 384.038 51.1291 385.253 52.0462C386.468 52.9633 387.465 54.1353 388.171 55.4785C389.673 58.4461 390.42 61.7344 390.344 65.055C390.344 72.1942 388.71 77.3383 385.444 80.4873C382.178 83.6364 376.724 85.2073 369.083 85.2001ZM362.337 25.7138V45.7619H369.366C373.914 45.7619 376.192 42.1887 376.199 35.0423C376.199 31.6632 375.692 29.2654 374.678 27.8491C373.664 26.4327 371.701 25.7138 368.79 25.6922L362.337 25.7138ZM362.337 54.3893V75.0305H369.17C372.031 75.0305 374.073 74.2361 375.297 72.6472C376.521 71.0583 377.14 68.3478 377.155 64.5158C377.155 60.806 376.55 58.1926 375.341 56.6756C374.656 55.8831 373.792 55.2627 372.82 54.8653C371.848 54.4679 370.794 54.3048 369.746 54.3893H362.337Z" fill="#333333"/>
</svg>
