<svg width="71" height="70" viewBox="0 0 71 70" fill="none" xmlns="http://www.w3.org/2000/svg">
<path d="M57.6429 10H13.3571C11.7792 10 10.5 11.2792 10.5 12.8571V57.1429C10.5 58.7208 11.7792 60 13.3571 60H57.6429C59.2208 60 60.5 58.7208 60.5 57.1429V12.8571C60.5 11.2792 59.2208 10 57.6429 10Z" fill="#BA073F"/>
<path d="M37.7205 38.3015C37.5425 37.9462 37.2691 37.6474 36.9311 37.4385C36.593 37.2296 36.2036 37.1189 35.8062 37.1186C35.2379 37.1186 34.6928 37.3444 34.291 37.7462C33.8891 38.1481 33.6634 38.6931 33.6634 39.2615C33.6634 39.8298 33.8891 40.3748 34.291 40.7767C34.6928 41.1786 35.2379 41.4043 35.8062 41.4043C36.3245 41.4046 36.8252 41.2161 37.2148 40.8743H38.4405V41.4729C38.109 41.8643 37.6984 42.1812 37.2358 42.4028C36.7732 42.6244 36.269 42.7456 35.7562 42.7586C35.2677 42.767 34.7828 42.673 34.3329 42.4827C33.8829 42.2924 33.4777 42.01 33.1435 41.6537C32.8092 41.2974 32.5533 40.875 32.3921 40.4138C32.2309 39.9526 32.1681 39.4627 32.2076 38.9757C32.1752 38.4989 32.2444 38.0206 32.4105 37.5725C32.5766 37.1243 32.836 36.7165 33.1714 36.376C33.5068 36.0355 33.9106 35.77 34.3561 35.5971C34.8017 35.4242 35.2789 35.3478 35.7562 35.3729C36.3909 35.3671 37.0143 35.5418 37.5535 35.8766C38.0928 36.2115 38.5257 36.6928 38.8019 37.2643L40.7476 34.9872C40.1471 34.2007 39.3686 33.568 38.4761 33.1409C37.5836 32.7137 36.6025 32.5043 35.6133 32.53C34.7466 32.4988 33.8826 32.6451 33.0745 32.9598C32.2663 33.2744 31.5309 33.751 30.9134 34.36C30.2959 34.969 29.8094 35.6978 29.4837 36.5015C29.1579 37.3053 28.9998 38.1673 29.0191 39.0343C28.9832 39.9026 29.1269 40.7689 29.4413 41.5791C29.7557 42.3893 30.2339 43.126 30.8461 43.7428C31.4582 44.3597 32.1911 44.8435 32.9989 45.1641C33.8067 45.4846 34.6719 45.635 35.5405 45.6057C36.4685 45.612 37.3873 45.4208 38.2358 45.0447C39.0842 44.6687 39.843 44.1164 40.4617 43.4247C41.0803 42.7329 41.5448 41.9175 41.8241 41.0324C42.1035 40.1474 42.1913 39.213 42.0819 38.2914L37.7205 38.3015Z" fill="white"/>
<path d="M35.659 50.7717C31.3662 50.7717 27.0718 50.7474 22.779 50.7902C21.809 50.8002 21.4704 50.526 21.4761 49.5203C21.5123 41.8869 21.5123 34.2541 21.4761 26.6217C21.4761 25.6974 21.7618 25.326 22.7061 25.3702C23.8847 25.426 25.0676 25.3802 26.2476 25.3888C26.6519 25.3888 27.0847 25.4346 27.1176 25.9603C27.1533 26.5417 26.7147 26.6674 26.2604 26.6746C25.3661 26.696 24.4704 26.7031 23.5776 26.6746C23.0647 26.6603 22.8062 26.7632 22.8076 27.3689C22.8257 34.5022 22.8257 41.636 22.8076 48.7702C22.8076 49.3774 23.0619 49.4588 23.5747 49.4588C31.6604 49.4474 39.7466 49.4474 47.8333 49.4588C48.4633 49.4588 48.6019 49.246 48.6004 48.6603C48.5833 41.5984 48.5833 34.536 48.6004 27.4732C48.6004 26.7589 48.3276 26.6431 47.719 26.6674C46.7904 26.7046 45.8618 26.6831 44.929 26.6674C44.4661 26.6603 44.0376 26.536 44.0619 25.9531C44.0833 25.4231 44.5104 25.3674 44.919 25.366C46.279 25.3588 47.6333 25.366 48.9976 25.366C49.7004 25.366 49.9147 25.716 49.9133 26.366C49.9028 34.1755 49.9028 41.9851 49.9133 49.7946C49.9133 50.6789 49.4347 50.7531 48.7461 50.7502C44.389 50.7717 40.0247 50.7717 35.659 50.7717Z" fill="white"/>
<path d="M42.9865 24.8814C42.9865 25.6385 42.9865 26.3957 42.9865 27.1542C42.9865 27.6299 42.9865 28.1828 42.338 28.1971C41.6894 28.2113 41.6665 27.6671 41.6636 27.1842C41.6636 26.1028 41.6636 25.0199 41.6636 23.9385C41.6636 20.6756 40.4436 19.1328 37.2165 18.4728C35.2627 18.0101 33.2056 18.3246 31.4794 19.3499C30.8004 19.6973 30.2375 20.2352 29.8597 20.8978C29.4818 21.5603 29.3055 22.3187 29.3522 23.08C29.4065 24.34 29.3751 25.6042 29.3522 26.8656C29.3437 27.4142 29.5051 28.1856 28.6565 28.1799C27.8837 28.1799 28.0208 27.4442 28.0151 26.9256C28.0008 25.627 28.0308 24.3285 28.0065 23.0314C27.955 22.0501 28.1889 21.0749 28.68 20.2238C29.1711 19.3727 29.8983 18.6821 30.7737 18.2356C32.2148 17.3577 33.8722 16.899 35.5597 16.9109C37.2471 16.9227 38.8978 17.4047 40.3265 18.3027C41.1784 18.7542 41.8826 19.4411 42.3552 20.2815C42.8278 21.1218 43.0489 22.0803 42.9922 23.0428C42.9722 23.6542 42.9879 24.2685 42.9865 24.8814Z" fill="white"/>
<path d="M35.3202 26.6298C33.9159 26.6298 32.5102 26.6298 31.1059 26.6298C30.6359 26.6298 30.0874 26.6298 30.0602 25.9812C30.0302 25.2898 30.5916 25.314 31.0602 25.314C33.9059 25.3055 36.7512 25.3055 39.5959 25.314C40.0674 25.314 40.6502 25.2913 40.6531 25.9327C40.6531 26.6227 40.0517 26.6327 39.5359 26.6355C38.1288 26.6341 36.7273 26.6298 35.3202 26.6298Z" fill="white"/>
<path d="M28.752 30.9529C28.3352 30.9505 27.9335 30.7963 27.6222 30.5191C27.3109 30.242 27.1112 29.8609 27.0605 29.4472C27.0334 29.1043 27.0605 28.7686 27.4205 28.6315C27.5023 28.5931 27.5915 28.5732 27.6818 28.5732C27.7722 28.5731 27.8614 28.593 27.9432 28.6313C28.025 28.6696 28.0973 28.7255 28.1551 28.7949C28.2129 28.8643 28.2548 28.9455 28.2777 29.0329C28.5734 29.7686 28.8876 29.8029 29.1962 29.0457C29.2161 28.9564 29.2561 28.8727 29.3129 28.8009C29.3698 28.7291 29.4421 28.6712 29.5246 28.6313C29.607 28.5915 29.6974 28.5708 29.789 28.5708C29.8806 28.5708 29.9709 28.5916 30.0534 28.6315C30.4634 28.7901 30.4819 29.1529 30.4219 29.5358C30.3481 29.9276 30.1419 30.2821 29.8379 30.5401C29.5339 30.798 29.1506 30.9438 28.752 30.9529Z" fill="white"/>
<path d="M42.2789 30.9497C41.8618 30.9568 41.4567 30.8104 41.1406 30.5383C40.8245 30.2662 40.6195 29.8874 40.5646 29.4739C40.5317 29.0982 40.5532 28.7282 40.9932 28.6082C41.0701 28.5816 41.1516 28.5709 41.2328 28.5769C41.3139 28.5829 41.3931 28.6053 41.4653 28.6429C41.5375 28.6805 41.6013 28.7323 41.6527 28.7954C41.7042 28.8585 41.7422 28.9314 41.7645 29.0096C42.1174 29.8825 42.4346 29.7054 42.7317 28.974C42.7571 28.8964 42.7985 28.8249 42.8531 28.7642C42.9077 28.7035 42.9744 28.6548 43.0489 28.6214C43.1234 28.5879 43.204 28.5704 43.2857 28.5698C43.3673 28.5693 43.4482 28.5858 43.5231 28.6182C43.8931 28.7354 43.9388 29.0654 43.9217 29.4097C43.8828 29.8226 43.6944 30.2071 43.3918 30.4907C43.0892 30.7743 42.6934 30.9376 42.2789 30.9497Z" fill="white"/>
</svg>
