<svg width="70" height="70" viewBox="0 0 70 70" fill="none" xmlns="http://www.w3.org/2000/svg">
<path d="M35 10C48.5952 10 59.6522 21.1961 59.6522 35C59.6522 48.8039 48.5952 60 35 60C21.4047 60 10.3477 48.8039 10.3477 35C10.3477 21.1961 21.4047 10 35 10Z" fill="#999999"/>
<path d="M35.1041 34.7913C30.6187 34.7913 26.9678 31.1057 26.9678 26.5855C26.9678 22.0306 30.6187 18.3797 35.1041 18.3797C39.5895 18.3797 43.2404 22.0306 43.2404 26.5507C43.2404 31.1057 39.5895 34.7913 35.1041 34.7913ZM44.666 25.9596C44.6312 25.5076 44.5964 25.0556 44.4921 24.6383C43.6229 20.1877 39.7286 16.8845 35.1041 16.8845C29.7842 16.8845 25.4727 21.2308 25.4727 26.5855C25.4727 31.9402 29.7842 36.2865 35.0693 36.2865C39.9372 36.2865 43.9358 32.6703 44.5964 27.9415H45.8482V25.9596H44.666Z" fill="white"/>
<path d="M36.7039 25.9248C36.4257 25.3685 35.8694 25.0208 35.2435 25.0208C34.3395 25.0208 33.5745 25.7858 33.5745 26.6898C33.5745 27.5938 34.3047 28.3588 35.2087 28.3588C35.626 28.3588 36.0085 28.2197 36.2866 27.9415H37.2254V28.3936C37.0863 28.5326 36.3909 29.4019 35.174 29.4019C33.6441 29.4019 32.4271 28.2892 32.4271 26.4812C32.4271 24.9165 33.4354 23.6995 35.174 23.6995C36.4952 23.6995 37.2602 24.5688 37.5036 25.1599L39.0335 23.3518C38.5467 22.726 37.3645 21.4395 35.0697 21.4395C32.0446 21.4395 29.9932 23.6995 29.9932 26.4812C29.9932 29.6453 32.2532 31.5924 35.0001 31.5924C38.0599 31.5924 40.4243 28.9151 40.0418 25.9248H36.7039Z" fill="white"/>
<path d="M51.0989 49.2558C49.256 46.3351 46.9612 44.075 44.2838 42.5451C41.6413 41.05 38.5815 40.2155 35.1044 40.0764C31.6274 40.2503 28.5328 41.0848 25.8902 42.5799C23.2129 44.1098 20.918 46.3699 19.11 49.2906C18.8666 49.7078 18.7623 50.0556 18.797 50.3337C18.8318 50.5076 18.9709 50.6814 19.1795 50.8205C19.3534 50.9248 19.4925 50.9596 19.6315 50.9596C19.9445 50.9596 20.2574 50.6814 20.5703 50.1599C23.8388 44.9443 29.263 41.8149 35.1044 41.8149C40.9111 41.8149 46.3353 44.9095 49.6037 50.0556C49.8471 50.438 50.2296 50.9248 50.6121 50.9248C50.7511 50.9248 50.8902 50.89 51.0293 50.7857C51.2727 50.6467 51.7595 50.3337 51.0989 49.2558Z" fill="white"/>
</svg>
