<svg width="70" height="70" viewBox="0 0 70 70" fill="none" xmlns="http://www.w3.org/2000/svg">
<path d="M35 10C48.6072 10 59.6377 21.1928 59.6377 35C59.6377 48.8072 48.6072 60 35 60C21.3927 60 10.3623 48.8072 10.3623 35C10.3623 21.1928 21.3927 10 35 10Z" fill="#BA073F"/>
<path d="M35.0963 34.7869C30.5948 34.7869 26.9455 31.1079 26.9455 26.5695C26.9455 22.0304 30.5948 18.3514 35.0963 18.3514C39.5977 18.3514 43.247 22.0304 43.247 26.5688C43.247 31.1079 39.5977 34.7869 35.0963 34.7869ZM44.681 25.9471C44.6539 25.5001 44.596 25.0556 44.5078 24.6166C43.6129 20.2029 39.739 16.8818 35.0955 16.8818C29.7905 16.8818 25.4883 21.2188 25.4883 26.5695C25.4883 31.9195 29.7905 36.2565 35.0963 36.2565C39.9484 36.2565 43.9578 32.6297 44.6093 27.9181H45.8542V25.9471H44.681Z" fill="white"/>
<path d="M36.7154 25.9275C36.5793 25.6526 36.3693 25.4211 36.109 25.2591C35.8486 25.097 35.5482 25.0108 35.2415 25.0101C35.0237 25.011 34.8083 25.0547 34.6075 25.1388C34.4066 25.2229 34.2244 25.3458 34.071 25.5003C33.9177 25.6549 33.7962 25.8381 33.7137 26.0396C33.6312 26.2411 33.5892 26.4569 33.59 26.6746C33.5891 26.8924 33.631 27.1082 33.7135 27.3098C33.796 27.5114 33.9174 27.6947 34.0707 27.8493C34.2241 28.004 34.4064 28.1269 34.6073 28.2111C34.8082 28.2952 35.0237 28.339 35.2415 28.3398C35.6567 28.3398 36.0357 28.184 36.3262 27.9282H37.2704V28.3934C37.1175 28.5471 36.4241 29.3971 35.2031 29.3971C33.6632 29.3971 32.4697 28.2775 32.4697 26.4594C32.4697 24.879 33.469 23.6623 35.2031 23.6623C36.5074 23.6623 37.2828 24.5405 37.548 25.1268L39.0458 23.3587C38.5458 22.7297 37.3813 21.4514 35.0922 21.4514C32.0675 21.4514 30.0146 23.7036 30.0146 26.5014C30.0146 29.6485 32.29 31.6072 35.0364 31.6072C38.0806 31.6072 40.4726 28.9224 40.0741 25.9275H36.7154Z" fill="white"/>
<path d="M51.082 49.2457C49.2472 46.3247 46.9566 44.0739 44.2733 42.5573C41.6457 41.0718 38.5588 40.2428 35.0986 40.0928C31.6204 40.2602 28.5262 41.0986 25.9023 42.5841C23.2131 44.1058 20.924 46.3609 19.1008 49.2841C18.8428 49.6971 18.7399 50.0544 18.8015 50.3181C18.845 50.5044 18.9755 50.6616 19.1979 50.7971C19.3595 50.8957 19.5081 50.9449 19.6399 50.9449C19.937 50.9449 20.2537 50.6797 20.5813 50.1551C23.8443 44.9377 29.2791 41.8232 35.1197 41.8232C40.9276 41.8232 46.353 44.9102 49.6342 50.079C49.8842 50.4732 50.2646 50.9435 50.6508 50.9435C50.7813 50.9435 50.9189 50.8942 51.0711 50.7935C51.2784 50.6558 51.7646 50.3319 51.082 49.2457Z" fill="white"/>
</svg>
