<svg width="70" height="70" viewBox="0 0 70 70" fill="none" xmlns="http://www.w3.org/2000/svg">
<path d="M35 10C48.7196 10 59.8417 21.193 59.8417 35C59.8417 48.807 48.7196 60 35 60C21.2804 60 10.1582 48.807 10.1582 35C10.1582 21.193 21.2804 10 35 10Z" fill="#333333"/>
<path d="M35.097 34.7875C30.5581 34.7875 26.8787 31.108 26.8787 26.5691C26.8787 22.0308 30.5581 18.3514 35.097 18.3514C39.6359 18.3514 43.3154 22.0308 43.3154 26.5694C43.3154 31.108 39.6363 34.7875 35.097 34.7875ZM44.7622 25.9476C44.7348 25.5005 44.6764 25.0559 44.5875 24.6169C43.6844 20.2026 39.7783 16.8821 35.097 16.8821C29.747 16.8821 25.4097 21.2191 25.4097 26.5694C25.4097 31.9194 29.747 36.2568 35.097 36.2568C39.9891 36.2568 44.0318 32.6295 44.6888 27.9182H45.9442V25.9476H44.7622Z" fill="white"/>
<path d="M36.7296 25.9279C36.5913 25.6521 36.379 25.4203 36.1164 25.2582C35.8539 25.0961 35.5514 25.0103 35.2429 25.0102C35.0224 25.0072 34.8034 25.048 34.5988 25.1303C34.3941 25.2126 34.2079 25.3347 34.0509 25.4896C33.8938 25.6445 33.7691 25.829 33.684 26.0325C33.5989 26.236 33.5551 26.4544 33.5551 26.6749C33.5551 26.8955 33.5989 27.1139 33.684 27.3173C33.7691 27.5208 33.8938 27.7054 34.0509 27.8603C34.2079 28.0151 34.3941 28.1373 34.5988 28.2196C34.8034 28.3019 35.0224 28.3427 35.2429 28.3396C35.6622 28.3396 36.0439 28.1839 36.3366 27.9282H37.2885V28.3934C37.1347 28.5475 36.4353 29.3966 35.2043 29.3966C33.6518 29.3966 32.4489 28.2779 32.4489 26.4596C32.4489 24.8789 33.4559 23.6621 35.2043 23.6621C36.5192 23.6621 37.3018 24.5406 37.5682 25.127L39.079 23.3593C38.5755 22.7295 37.4005 21.4517 35.0926 21.4517C32.0432 21.4517 29.9727 23.7039 29.9727 26.5013C29.9727 29.6488 32.267 31.607 35.0366 31.607C38.1059 31.607 40.5176 28.9229 40.1157 25.9279H36.7296Z" fill="white"/>
<path d="M51.2153 49.2456C49.3656 46.3247 47.0558 44.0744 44.3501 42.5573C41.7007 41.0719 38.5887 40.2428 35.0994 40.0928C31.5931 40.2605 28.4732 41.0985 25.8267 42.5842C23.1153 44.1064 20.8077 46.3605 18.9691 49.2836C18.7093 49.6966 18.6051 50.0542 18.6675 50.3178C18.7118 50.5045 18.8425 50.6614 19.0672 50.7972C19.2298 50.8953 19.3798 50.9453 19.5131 50.9453C19.8121 50.9453 20.1314 50.6795 20.4618 50.1551C23.752 44.938 29.232 41.8228 35.1206 41.8228C40.977 41.8238 46.4472 44.9099 49.7555 50.0792C50.0077 50.4735 50.3906 50.9437 50.7808 50.9437C50.9121 50.9437 51.0507 50.8947 51.2042 50.7934C51.4134 50.6554 51.9036 50.332 51.2153 49.2456Z" fill="white"/>
</svg>
