<svg width="31" height="31" viewBox="0 0 31 31" fill="none" xmlns="http://www.w3.org/2000/svg">
<mask id="mask0_2434_11058" style="mask-type:alpha" maskUnits="userSpaceOnUse" x="0" y="0" width="31" height="31">
<rect x="0.666626" y="0.867188" width="30" height="30" fill="#D9D9D9"/>
</mask>
<g mask="url(#mask0_2434_11058)">
<path d="M16.9169 22.7461L21.2919 18.3711C21.521 18.1419 21.7033 17.8711 21.8387 17.5586C21.9742 17.2461 22.0419 16.9128 22.0419 16.5586C22.0419 15.8503 21.7919 15.2461 21.2919 14.7461C20.7919 14.2461 20.1877 13.9961 19.4794 13.9961C19.0835 13.9961 18.6929 14.1107 18.3075 14.3398C17.9221 14.569 17.4585 14.9544 16.9169 15.4961C16.2919 14.9128 15.8023 14.5169 15.4481 14.3086C15.094 14.1003 14.7294 13.9961 14.3544 13.9961C13.646 13.9961 13.0419 14.2461 12.5419 14.7461C12.0419 15.2461 11.7919 15.8503 11.7919 16.5586C11.7919 16.9128 11.8596 17.2461 11.995 17.5586C12.1304 17.8711 12.3127 18.1419 12.5419 18.3711L16.9169 22.7461ZM27.4169 18.6836L18.4794 27.6211C18.2294 27.8711 17.9481 28.0586 17.6356 28.1836C17.3231 28.3086 17.0106 28.3711 16.6981 28.3711C16.3856 28.3711 16.0731 28.3086 15.7606 28.1836C15.4481 28.0586 15.1669 27.8711 14.9169 27.6211L3.88562 16.5898C3.65645 16.3607 3.47937 16.0951 3.35437 15.793C3.22937 15.4909 3.16687 15.1732 3.16687 14.8398V5.87109C3.16687 5.18359 3.41166 4.59505 3.90125 4.10547C4.39083 3.61589 4.97937 3.37109 5.66687 3.37109H14.6356C14.969 3.37109 15.2919 3.4388 15.6044 3.57422C15.9169 3.70964 16.1877 3.89193 16.4169 4.12109L27.4169 15.1523C27.6669 15.4023 27.8492 15.6836 27.9637 15.9961C28.0783 16.3086 28.1356 16.6211 28.1356 16.9336C28.1356 17.2461 28.0783 17.5534 27.9637 17.8555C27.8492 18.1576 27.6669 18.4336 27.4169 18.6836ZM16.6981 25.8711L25.6356 16.9336L14.6044 5.87109H5.66687V14.8086L16.6981 25.8711ZM8.79187 10.8711C9.3127 10.8711 9.75541 10.6888 10.12 10.3242C10.4846 9.95964 10.6669 9.51693 10.6669 8.99609C10.6669 8.47526 10.4846 8.03255 10.12 7.66797C9.75541 7.30339 9.3127 7.12109 8.79187 7.12109C8.27104 7.12109 7.82833 7.30339 7.46375 7.66797C7.09916 8.03255 6.91687 8.47526 6.91687 8.99609C6.91687 9.51693 7.09916 9.95964 7.46375 10.3242C7.82833 10.6888 8.27104 10.8711 8.79187 10.8711Z" fill="#333333"/>
</g>
</svg>
