<svg width="70" height="70" viewBox="0 0 70 70" fill="none" xmlns="http://www.w3.org/2000/svg">
<rect x="4.375" y="4.375" width="61.25" height="61.25" rx="2" fill="#122344"/>
<path d="M49.2991 21.7525H44.3879V22.5326H45.6911V46.7193C45.6575 47.2395 45.4571 47.4347 44.6553 47.4672H44.3879V48.1498H49.9338V47.4672H49.3659C48.4304 47.4347 48.0965 47.0771 48.0629 46.2643V36.9016H49.6666C52.0053 36.9016 53.375 35.7964 53.375 34.3334V24.5484C53.375 23.0854 52.2058 21.7523 49.2991 21.7523V21.7525ZM51.0029 29.2295V34.4311C51.0029 35.2437 50.4686 36.024 49.4328 35.9915H48.0629V22.5326H49.2991C50.2346 22.5326 51.0029 23.2805 51.0029 24.1905V29.2297V29.2295ZM20.4003 36.9016H21.8367V46.3617C21.8703 47.1746 21.2021 47.8572 20.3667 47.8897H20.3334C19.4983 47.8897 18.8967 47.2071 18.8967 46.3617V24.1581C18.8967 23.5404 19.0304 22.1101 20.0996 22.1426C20.9683 22.1426 21.6029 22.9227 21.8703 24.1256C22.1709 25.3609 22.3713 28.2542 22.3713 29.5221C22.3713 29.9449 22.5384 30.1073 23.0062 30.1073H24.0417V21.7525H23.2066V22.1423C23.2066 22.5651 22.9392 22.5326 22.7054 22.4027C21.9037 21.8825 21.0016 21.5249 20.1332 21.5249C18.6963 21.5249 16.625 22.1426 16.625 24.8082V44.4112C16.6584 47.8247 18.4959 48.4424 20.3334 48.4749C21.7366 48.4749 22.4047 47.7598 22.9392 47.4997C23.3067 47.337 23.5741 47.7595 23.5741 48.2798H24.3091V36.9016H25.5117V36.0565H20.4003V36.9016ZM32.3941 36.0565L33.6971 25.4584L35.1671 36.089L32.3939 36.0565H32.3941ZM38.8085 46.2643L35.6685 21.7525H33.1959L30.0557 46.3293C29.8888 47.1096 29.8552 47.3045 28.6524 47.3697V48.1173H32.5281V47.4347C32.0936 47.4672 31.6594 47.337 31.3252 47.0771C31.1915 46.9145 31.1246 46.752 31.1246 46.5569L32.294 36.8693H35.301L36.537 46.5569C36.537 47.1746 36.4702 47.4022 35.7019 47.4347H35.3344V48.1173H40.2787V47.4347H40.1452C39.1764 47.4347 38.8759 46.8495 38.8089 46.2643H38.8085Z" fill="white"/>
</svg>
