<svg width="38" height="25" viewBox="0 0 38 25" fill="none" xmlns="http://www.w3.org/2000/svg">
<path d="M30.0013 2.25946H26.2228V2.86251H27.2254V21.5597C27.1996 21.9618 27.0454 22.1127 26.4286 22.1378H26.2228V22.6655H30.4896V22.1378H30.0526C29.333 22.1127 29.0761 21.8363 29.0502 21.2079V13.9702H30.284C32.0833 13.9702 33.1371 13.1159 33.1371 11.9849V4.42074C33.1371 3.28978 32.2375 2.25928 30.0013 2.25928V2.25946ZM31.3121 8.03941V12.0604C31.3121 12.6886 30.901 13.2918 30.1042 13.2667H29.0502V2.86251H30.0013C30.721 2.86251 31.3121 3.44064 31.3121 4.14414V8.0396V8.03941ZM7.76786 13.9702H8.87295V21.2833C8.89881 21.9116 8.38467 22.4393 7.742 22.4644H7.71633C7.07385 22.4644 6.61105 21.9367 6.61105 21.2833V4.11902C6.61105 3.64153 6.71391 2.53588 7.53646 2.56099C8.2048 2.56099 8.69308 3.16404 8.89881 4.09391C9.13002 5.0489 9.28423 7.2855 9.28423 8.2656C9.28423 8.59242 9.41276 8.71798 9.77269 8.71798H10.5694V2.25946H9.9269V2.5608C9.9269 2.88763 9.72117 2.86251 9.5413 2.76207C8.92448 2.35991 8.23047 2.0835 7.56231 2.0835C6.45685 2.0835 4.86328 2.56099 4.86328 4.62163V19.7755C4.88895 22.4142 6.30264 22.8917 7.71633 22.9168C8.79595 22.9168 9.3099 22.364 9.72117 22.1629C10.0039 22.0372 10.2096 22.3638 10.2096 22.766H10.7751V13.9702H11.7003V13.3169H7.76786V13.9702ZM16.9953 13.3169L17.9978 5.12423L19.1287 13.3421L16.9952 13.3169H16.9953ZM21.9302 21.2079L19.5145 2.25946H17.6122L15.1962 21.2582C15.0679 21.8614 15.042 22.0121 14.1166 22.0625V22.6404H17.0984V22.1127C16.7641 22.1378 16.4301 22.0372 16.173 21.8363C16.0701 21.7105 16.0186 21.585 16.0186 21.4341L16.9183 13.9453H19.2318L20.1827 21.4341C20.1827 21.9116 20.1313 22.0876 19.5402 22.1127H19.2574V22.6404H23.0614V22.1127H22.9587C22.2134 22.1127 21.9821 21.6603 21.9306 21.2079H21.9302Z" fill="#122344"/>
</svg>
