<svg width="20" height="20" viewBox="0 0 20 20" fill="none" xmlns="http://www.w3.org/2000/svg">
<path d="M6.13978 8.18399C6.15851 8.18258 6.16558 8.17235 6.17407 8.16495C6.35964 8.00029 6.58233 7.92483 6.8241 7.89839C6.95736 7.88393 7.09204 7.88005 7.22494 7.90156C7.4236 7.9333 7.59185 8.02603 7.74243 8.15895C8.01107 8.39625 8.14787 8.6963 8.1818 9.04783C8.20336 9.27138 8.20654 9.49351 8.13761 9.7107C8.05419 9.97444 7.91351 10.2029 7.71557 10.3975C7.66431 10.448 7.61412 10.4994 7.56039 10.547C7.36315 10.7219 7.1341 10.8369 6.87465 10.8774C6.66893 10.9095 6.46144 10.8951 6.25466 10.8647C6.07721 10.8386 5.90649 10.7942 5.74283 10.7223C5.72445 10.7142 5.71314 10.7205 5.699 10.7297C5.62441 10.7766 5.54912 10.8228 5.47383 10.8686C5.41445 10.9049 5.35365 10.9 5.2918 10.8746C5.26564 10.8637 5.25397 10.846 5.25468 10.8168C5.28331 9.58624 5.25751 8.35535 5.26917 7.12481C5.27023 7.01585 5.26352 6.90796 5.24054 6.80113C5.21827 6.69888 5.16066 6.62695 5.06522 6.58393C4.99664 6.5529 4.92454 6.53175 4.85207 6.51341C4.80789 6.50248 4.7934 6.47921 4.79234 6.43655C4.79128 6.37203 4.79799 6.35193 4.84571 6.33395C4.88813 6.31808 4.93231 6.30609 4.97579 6.29304C5.20519 6.22323 5.42541 6.12909 5.6481 6.04094C5.77287 5.99158 5.89129 5.92988 6.0097 5.86853C6.04646 5.85019 6.08358 5.84314 6.12423 5.84314C6.16841 5.84314 6.18821 5.86394 6.19315 5.9052C6.20199 5.97853 6.19421 6.05223 6.18997 6.12521C6.17088 6.46229 6.15321 6.79972 6.14826 7.1375C6.14367 7.47669 6.14225 7.81588 6.13943 8.15507C6.13943 8.16389 6.13943 8.1727 6.13943 8.18434L6.13978 8.18399ZM6.13978 9.27631C6.14543 9.49668 6.12882 9.76676 6.14897 10.0365C6.15922 10.1747 6.17795 10.3105 6.26314 10.4279C6.36247 10.5647 6.47876 10.6655 6.66363 10.6398C6.67246 10.6387 6.6813 10.6394 6.69014 10.6391C6.78239 10.6377 6.86652 10.6088 6.94287 10.5587C7.15672 10.4191 7.26029 10.2075 7.2762 9.96598C7.29316 9.70647 7.29882 9.44379 7.26347 9.18358C7.23661 8.98507 7.17935 8.79785 7.07012 8.62755C6.97716 8.48263 6.84531 8.39343 6.67918 8.36628C6.50739 8.33842 6.3402 8.37015 6.1822 8.44667C6.15003 8.46218 6.13872 8.48087 6.13907 8.51683C6.14084 8.75307 6.14013 8.98966 6.14013 9.27561L6.13978 9.27631Z" fill="#E6E6E6"/>
<path d="M14.2348 9.22273C14.2348 8.9731 14.2348 8.72346 14.2348 8.47348C14.2348 8.39273 14.2189 8.3201 14.1496 8.26651C14.1082 8.23477 14.0619 8.21891 14.0121 8.21256C13.964 8.20621 13.9152 8.2041 13.8668 8.20022C13.8371 8.1981 13.8216 8.18365 13.8219 8.15262C13.8223 8.10431 13.8187 8.05566 13.8255 8.00735C13.8283 7.98725 13.8339 7.97597 13.8576 7.97491C13.9018 7.9728 13.9453 7.96751 13.9898 7.96786C14.3108 7.96857 14.6317 7.96857 14.9527 7.96786C14.9969 7.96786 15.0407 7.96363 15.0849 7.96116C15.139 7.95834 15.1542 7.97209 15.1549 8.02569C15.1556 8.08457 15.1414 8.14239 15.1365 8.20057C15.1238 8.35148 15.1174 8.50239 15.1174 8.65365C15.1174 9.07535 15.1167 9.49669 15.1181 9.91839C15.1185 10.0446 15.1209 10.1708 15.1432 10.2957C15.1464 10.3129 15.151 10.3302 15.1566 10.3464C15.1789 10.4103 15.2167 10.4508 15.292 10.4497C15.3645 10.4487 15.4359 10.442 15.5073 10.4318C15.5394 10.4272 15.5536 10.4385 15.5578 10.4691C15.5624 10.5055 15.5684 10.5418 15.5741 10.5781C15.5783 10.6049 15.572 10.6204 15.5409 10.6282C15.2743 10.6941 15.0082 10.7628 14.7417 10.8288C14.6561 10.8499 14.5727 10.8796 14.484 10.8866C14.4709 10.8877 14.4575 10.8891 14.4444 10.8894C14.368 10.8901 14.35 10.8721 14.3419 10.7953C14.3309 10.693 14.3178 10.5915 14.3055 10.4896C14.303 10.4705 14.3002 10.4497 14.2772 10.4445C14.2553 10.4395 14.2464 10.4586 14.2362 10.472C14.0245 10.7533 13.7311 10.8721 13.3896 10.8901C13.2899 10.8954 13.1899 10.8922 13.0902 10.8774C12.97 10.8595 12.8697 10.8059 12.7845 10.7234C12.5611 10.5076 12.4264 10.2505 12.4133 9.93532C12.4055 9.75056 12.3893 9.56545 12.3995 9.38069C12.4144 9.11343 12.4045 8.84616 12.4063 8.57925C12.4066 8.52072 12.4045 8.46114 12.3939 8.40366C12.3751 8.2993 12.2741 8.21573 12.1624 8.20374C12.1316 8.20057 12.1009 8.1974 12.0701 8.19352C12.0365 8.18929 12.0167 8.17342 12.0181 8.13605C12.0199 8.09656 12.0185 8.05671 12.0188 8.01722C12.0188 7.99113 12.0309 7.97773 12.0584 7.97491C12.0994 7.97103 12.1404 7.96751 12.1818 7.96751C12.4967 7.96821 12.812 7.96821 13.127 7.96751C13.1698 7.96751 13.2122 7.96151 13.2549 7.96187C13.3087 7.96257 13.3193 7.97491 13.3172 8.02851C13.3111 8.17236 13.2998 8.31587 13.2991 8.45972C13.2959 8.91069 13.2959 9.36165 13.2956 9.81261C13.2956 9.94378 13.3115 10.0732 13.3511 10.1991C13.3797 10.29 13.4253 10.3711 13.501 10.4332C13.5352 10.4614 13.5717 10.479 13.6165 10.4804C13.7134 10.4836 13.8138 10.5023 13.9029 10.4533C14.1005 10.344 14.238 10.1938 14.2348 9.94942C14.2316 9.70719 14.2341 9.46461 14.2341 9.22238L14.2348 9.22273Z" fill="#E6E6E6"/>
<path d="M10.125 10.8908C9.9143 10.9021 9.71034 10.8675 9.51204 10.8023C9.34379 10.7466 9.20947 10.6369 9.07974 10.5199C8.83337 10.2967 8.69057 10.0199 8.6379 9.69446C8.54565 9.12538 8.70612 8.6448 9.14408 8.26224C9.43817 8.0052 9.78387 7.88849 10.1727 7.88991C10.3187 7.89061 10.4629 7.89625 10.6068 7.92834C10.799 7.971 10.9687 8.05915 11.1214 8.17762C11.3059 8.32077 11.4728 8.48331 11.5799 8.69487C11.7958 9.12221 11.7965 9.55766 11.6 9.98958C11.441 10.3397 11.1857 10.6059 10.8287 10.7607C10.6057 10.8577 10.3696 10.9056 10.1246 10.8908H10.125ZM10.7227 9.27347C10.7262 9.03935 10.6955 8.73436 10.5502 8.45229C10.4201 8.19913 10.2872 8.15258 10.0702 8.16246C10.02 8.16457 9.96484 8.16069 9.92137 8.19313C9.84926 8.24708 9.78669 8.30984 9.74428 8.39199C9.66969 8.53691 9.62233 8.68993 9.59546 8.85001C9.55906 9.0665 9.5534 9.28511 9.55764 9.50371C9.56188 9.72584 9.58486 9.94586 9.65732 10.1578C9.68984 10.2523 9.72448 10.346 9.78669 10.4261C9.88319 10.5498 10.003 10.6175 10.1681 10.6175C10.3148 10.6175 10.413 10.5537 10.4922 10.4412C10.5583 10.3475 10.6007 10.2434 10.6318 10.1345C10.705 9.87816 10.7216 9.61478 10.723 9.27312L10.7227 9.27347Z" fill="#E6E6E6"/>
<path d="M4.36012 9.07255C4.37072 9.27247 4.35163 9.45794 4.36506 9.64269C4.37885 9.83027 4.36118 10.0189 4.38168 10.2061C4.38733 10.2587 4.39087 10.3119 4.41137 10.3613C4.44672 10.4455 4.50398 10.4653 4.59518 10.4321C4.64784 10.4128 4.69238 10.3771 4.72313 10.3278C4.74258 10.2964 4.76803 10.2904 4.80231 10.3038C4.92073 10.3496 4.93557 10.3775 4.87548 10.4882C4.73657 10.7445 4.52448 10.8887 4.22615 10.8916C4.1452 10.8923 4.06461 10.8916 3.98614 10.8655C3.84016 10.8172 3.72634 10.7301 3.64999 10.5965C3.63337 10.5672 3.61923 10.5365 3.60333 10.5065C3.57929 10.4614 3.5701 10.4589 3.53193 10.4921C3.43013 10.5813 3.32585 10.6666 3.20426 10.7297C2.96601 10.8528 2.71434 10.9088 2.44605 10.8912C2.36688 10.8859 2.30325 10.851 2.2474 10.7971C2.09293 10.6476 2.02789 10.4632 2.03815 10.2516C2.0537 9.93076 2.21806 9.70017 2.48564 9.53656C2.66662 9.4262 2.86174 9.34264 3.05332 9.25273C3.17951 9.19349 3.305 9.1325 3.42447 9.05986C3.47184 9.0313 3.49481 8.99886 3.49234 8.93998C3.48704 8.81834 3.49022 8.69634 3.49092 8.57434C3.49092 8.5211 3.4835 8.46857 3.46759 8.41815C3.43225 8.30461 3.36403 8.2281 3.23819 8.20941C3.07948 8.18579 2.92749 8.19425 2.78468 8.27464C2.71575 8.31378 2.6797 8.36949 2.69101 8.45235C2.70126 8.52957 2.70621 8.60714 2.71434 8.68435C2.73732 8.9019 2.55917 9.06374 2.38243 9.07855C2.29406 9.08595 2.2064 9.09301 2.12404 9.04682C2.04027 8.99992 1.99573 8.93117 2.00032 8.83526C2.01093 8.62265 2.08728 8.44459 2.26295 8.31096C2.55068 8.09165 2.86916 7.94462 3.22935 7.90125C3.44426 7.87551 3.66165 7.88186 3.87727 7.9083C3.94125 7.91606 3.99462 7.95449 4.04835 7.98693C4.23852 8.10187 4.32972 8.27464 4.34668 8.49254C4.36188 8.6907 4.3435 8.88921 4.35976 9.07185L4.36012 9.07255ZM3.50047 9.77809C3.50047 9.77809 3.50153 9.77809 3.50188 9.77809C3.50188 9.62824 3.50188 9.47874 3.50188 9.32889C3.50188 9.30068 3.50188 9.27529 3.46159 9.29715C3.34918 9.35851 3.23678 9.4195 3.1325 9.49355C3.00985 9.58099 2.93208 9.69734 2.90239 9.84579C2.88083 9.95368 2.88436 10.0616 2.89567 10.1698C2.90769 10.2848 2.96213 10.375 3.0558 10.4417C3.12755 10.4924 3.20426 10.5037 3.28414 10.4628C3.35872 10.4247 3.41811 10.368 3.47078 10.3038C3.49304 10.277 3.50047 10.2449 3.50047 10.2093C3.49941 10.0654 3.50011 9.92159 3.50011 9.77774L3.50047 9.77809Z" fill="#E6E6E6"/>
<path d="M17.0529 9.20403C17.0529 9.47376 17.0504 9.70718 17.0539 9.94059C17.0557 10.0478 17.0745 10.1536 17.114 10.2547C17.1501 10.3464 17.2155 10.4117 17.2968 10.4628C17.3198 10.4772 17.3456 10.4857 17.3717 10.4868C17.4926 10.492 17.6135 10.4966 17.7263 10.4402C17.7379 10.4342 17.7514 10.4314 17.7634 10.4261C17.8008 10.4092 17.8238 10.4205 17.838 10.4593C17.8496 10.4906 17.8676 10.5199 17.8807 10.5509C17.8931 10.5812 17.8892 10.6087 17.8588 10.6274C17.7079 10.7198 17.5516 10.7999 17.3781 10.8418C17.1713 10.8919 16.9613 10.9109 16.7517 10.8817C16.4986 10.8464 16.2321 10.6528 16.1766 10.3729C16.1657 10.3179 16.1635 10.2622 16.1646 10.2061C16.172 9.83305 16.1826 9.46036 16.1795 9.08732C16.1773 8.86272 16.1795 8.63777 16.1816 8.41317C16.1819 8.37756 16.171 8.36945 16.137 8.3698C16.0282 8.37192 15.9189 8.3698 15.8101 8.37086C15.7737 8.37086 15.7373 8.37297 15.7192 8.33313C15.7005 8.29153 15.7037 8.25027 15.7295 8.21184C15.7496 8.18187 15.7761 8.15825 15.808 8.14203C16.1112 7.98724 16.3512 7.75206 16.5994 7.52711C16.7061 7.43015 16.8058 7.32613 16.897 7.21401C16.9327 7.16994 17.0158 7.15125 17.0677 7.17276C17.1084 7.18968 17.1038 7.22706 17.1034 7.25985C17.1027 7.34341 17.0988 7.42733 17.0957 7.51089C17.0904 7.64734 17.0851 7.7838 17.078 7.92025C17.0762 7.95657 17.0872 7.96891 17.1246 7.96855C17.3618 7.9675 17.599 7.9682 17.8358 7.96891C17.8726 7.96891 17.9094 7.97349 17.9458 7.97631C17.9751 7.97843 17.9882 7.99253 17.9815 8.0225C17.9588 8.12264 17.9366 8.22277 17.9136 8.32255C17.9048 8.36063 17.8783 8.37121 17.8408 8.37086C17.5962 8.3698 17.3519 8.37086 17.1073 8.36945C17.0702 8.36945 17.0635 8.37967 17.061 8.41564C17.0423 8.69031 17.0596 8.96497 17.0532 9.20332L17.0529 9.20403Z" fill="#E6E6E6"/>
<path d="M17.7514 13.4485C17.7514 13.6026 17.7514 13.757 17.7514 13.9111C17.7514 13.9763 17.7634 13.9876 17.8285 13.9894C17.8712 13.9904 17.914 13.9887 17.9561 13.9961C17.9752 13.9993 17.9907 14.0067 17.9942 14.0268C17.9992 14.0553 18.0048 14.0856 17.9925 14.1128C17.9872 14.1248 17.9681 14.1177 17.955 14.1181C17.7945 14.1181 17.6341 14.1174 17.4736 14.1188C17.4149 14.1191 17.3562 14.1251 17.2975 14.1272C17.276 14.128 17.2527 14.1311 17.2491 14.0976C17.2417 14.0328 17.2491 14.0063 17.2859 13.9989C17.3294 13.9901 17.3735 13.9876 17.4177 13.9908C17.458 13.9936 17.4789 13.9753 17.481 13.9354C17.4838 13.884 17.4877 13.8328 17.4881 13.7814C17.4888 13.5243 17.4881 13.2673 17.4884 13.0102C17.4884 12.9686 17.4838 12.9274 17.4686 12.8893C17.4347 12.8019 17.376 12.7384 17.2792 12.7243C17.1533 12.7056 17.0282 12.6911 16.9105 12.7627C16.7786 12.8428 16.7062 12.9556 16.7118 13.1111C16.7214 13.3635 16.7136 13.6163 16.7175 13.8691C16.7175 13.8822 16.7175 13.8956 16.7186 13.9086C16.7228 13.9777 16.7355 13.9894 16.8041 13.9901C16.8292 13.9901 16.8543 13.9908 16.879 13.9936C16.9289 13.9989 16.9607 14.0638 16.9356 14.1075C16.9271 14.1223 16.9126 14.1184 16.9002 14.1184C16.8165 14.1184 16.7323 14.1191 16.6486 14.1184C16.528 14.1177 16.4071 14.1177 16.287 14.128C16.2491 14.1311 16.2304 14.1198 16.2329 14.0765C16.2375 13.9915 16.2145 14.0038 16.3142 13.9908C16.3446 13.9869 16.376 13.988 16.4068 13.9894C16.4407 13.9908 16.4549 13.9749 16.4556 13.9425C16.4566 13.8748 16.4602 13.8074 16.4605 13.7397C16.4616 13.5296 16.4591 13.3195 16.463 13.1097C16.4655 12.9764 16.4139 12.8805 16.2912 12.8241C16.2707 12.8146 16.2431 12.8061 16.2435 12.7779C16.2438 12.7511 16.2704 12.7412 16.2905 12.7299C16.393 12.6725 16.4959 12.6153 16.5987 12.5582C16.6026 12.5561 16.6065 12.5536 16.6104 12.5519C16.674 12.5205 16.6843 12.5261 16.6917 12.5963C16.6977 12.6548 16.7037 12.713 16.7097 12.7715C16.7104 12.7796 16.7065 12.7906 16.7178 12.7941C16.7274 12.7969 16.7345 12.7895 16.7408 12.7835C16.7624 12.7634 16.7829 12.7426 16.8048 12.7229C16.967 12.5787 17.1512 12.511 17.3721 12.5399C17.6005 12.5699 17.7532 12.8124 17.7511 12.9863C17.7493 13.1403 17.7511 13.2948 17.7511 13.4489H17.7525L17.7514 13.4485Z" fill="#E6E6E6"/>
<path d="M6.11153 13.8892C6.07442 13.9344 6.03943 13.9714 5.99948 14.0035C5.85102 14.123 5.68418 14.1763 5.49366 14.1445C5.42509 14.1332 5.36429 14.1036 5.31516 14.0546C5.19568 13.9358 5.1158 13.7976 5.11544 13.6234C5.11544 13.403 5.11474 13.183 5.11403 12.9626C5.11403 12.9083 5.11297 12.854 5.09918 12.8008C5.08045 12.7289 5.05394 12.707 4.98042 12.6989C4.96592 12.6971 4.95143 12.6936 4.93694 12.6926C4.90301 12.6904 4.87544 12.6841 4.87756 12.6404C4.87932 12.6002 4.89276 12.5723 4.93871 12.5713C4.95638 12.5713 4.97405 12.5691 4.99173 12.5691C5.09636 12.5688 5.20063 12.5691 5.30526 12.5681C5.38196 12.5674 5.38373 12.5681 5.37984 12.6464C5.37631 12.7225 5.36889 12.7987 5.36889 12.8752C5.36818 13.1217 5.36853 13.3685 5.37207 13.6149C5.37313 13.695 5.39964 13.7687 5.44311 13.8385C5.52795 13.9753 5.65697 14.0165 5.80118 13.9848C5.91924 13.9591 6.02317 13.891 6.0875 13.7799C6.10164 13.7556 6.10659 13.7281 6.10659 13.6996C6.10659 13.4118 6.10659 13.1238 6.10623 12.8361C6.10623 12.7391 6.07407 12.7067 5.97827 12.7C5.95777 12.6985 5.93762 12.6936 5.91712 12.6926C5.88531 12.6908 5.8634 12.683 5.86728 12.6435C5.87082 12.6076 5.87471 12.5751 5.92136 12.5734C5.93904 12.5727 5.95636 12.5695 5.97403 12.5691C6.09633 12.5681 6.21828 12.5691 6.34059 12.5663C6.38336 12.5653 6.39396 12.5833 6.39007 12.621C6.38512 12.6707 6.38229 12.7204 6.37805 12.7701C6.35614 13.0342 6.37417 13.2987 6.36851 13.5627C6.36674 13.6491 6.36533 13.7359 6.37699 13.8223C6.38866 13.909 6.40845 13.9277 6.49541 13.9284C6.53075 13.9284 6.5661 13.9298 6.60145 13.9287C6.62619 13.928 6.6421 13.9312 6.64669 13.9619C6.65129 13.9919 6.64599 14.0105 6.61665 14.0204C6.53606 14.0476 6.45546 14.0751 6.37452 14.1019C6.32433 14.1184 6.27449 14.1364 6.22323 14.1495C6.15572 14.1664 6.14794 14.1572 6.14017 14.0906C6.13274 14.0261 6.13239 13.9601 6.11083 13.8892H6.11153Z" fill="#E6E6E6"/>
<path d="M14.3988 13.3706C14.3899 13.1605 14.4507 12.975 14.5953 12.8184C14.7296 12.6732 14.8869 12.5677 15.0877 12.5413C15.4037 12.4997 15.6579 12.609 15.8311 12.8745C16.0071 13.1446 16.0343 13.4344 15.8685 13.719C15.7374 13.9443 15.5458 14.1082 15.2786 14.1466C15.0552 14.1787 14.8435 14.1343 14.6734 13.9714C14.5525 13.8554 14.4493 13.726 14.4172 13.5546C14.4059 13.494 14.4034 13.4323 14.3988 13.3706ZM14.6943 13.3367C14.6943 13.3706 14.6936 13.4044 14.6943 13.4379C14.6982 13.5783 14.7286 13.7116 14.8088 13.8297C14.8866 13.9439 14.981 14.0366 15.1291 14.0458C15.2044 14.0504 15.2811 14.0638 15.3542 14.0257C15.4161 13.9936 15.4624 13.946 15.5041 13.8921C15.602 13.7644 15.6465 13.6164 15.6642 13.4602C15.6883 13.2465 15.6653 13.0434 15.5345 12.8597C15.4256 12.707 15.2913 12.6224 15.098 12.6418C15.0368 12.6478 14.9831 12.664 14.9371 12.7042C14.818 12.8075 14.7374 12.933 14.7105 13.0913C14.6968 13.1728 14.6925 13.2546 14.6946 13.3367H14.6943Z" fill="#E6E6E6"/>
<path d="M11.7417 13.2514C11.7417 13.4404 11.7417 13.5857 11.7417 13.731C11.7417 13.7828 11.7484 13.8332 11.7693 13.8815C11.8067 13.9676 11.9064 13.9852 11.9732 13.9171C12.0086 13.8812 12.0301 13.8829 12.0637 13.9221C12.0747 13.9348 12.0782 13.9457 12.069 13.9612C12.0001 14.0755 11.9128 14.1573 11.7668 14.1551C11.6763 14.1537 11.613 14.1139 11.565 14.0423C11.5434 14.0102 11.5268 13.9757 11.5173 13.9386C11.5084 13.9041 11.495 13.9052 11.4734 13.9274C11.3957 14.0085 11.2992 14.0603 11.1991 14.1082C11.0963 14.1573 10.9881 14.1618 10.8796 14.1513C10.8064 14.1442 10.7541 14.0966 10.723 14.0293C10.6435 13.8572 10.6933 13.6559 10.8418 13.5363C10.9361 13.4605 11.0461 13.4151 11.1553 13.3675C11.2553 13.3241 11.3508 13.2723 11.4462 13.2197C11.4706 13.2063 11.4812 13.1897 11.4805 13.1605C11.4777 13.0621 11.4833 12.9634 11.4762 12.8654C11.4671 12.7388 11.4162 12.687 11.291 12.6693C11.2048 12.6573 11.1182 12.6559 11.0344 12.6891C10.9535 12.7212 10.9245 12.7642 10.9287 12.8495C10.9308 12.889 10.9323 12.9288 10.9312 12.9683C10.928 13.0857 10.817 13.1386 10.712 13.1146C10.6816 13.1076 10.6717 13.0822 10.6671 13.0554C10.6558 12.9923 10.6671 12.9331 10.6972 12.8766C10.7555 12.767 10.8517 12.6993 10.9545 12.6362C11.1185 12.5353 11.2977 12.5205 11.4823 12.535C11.5964 12.5438 11.7262 12.6739 11.7361 12.7878C11.7509 12.9563 11.7389 13.1256 11.7424 13.2507L11.7417 13.2514ZM11.4794 13.5529C11.4794 13.4842 11.4784 13.4151 11.4798 13.3463C11.4805 13.3132 11.4748 13.299 11.4384 13.3153C11.3158 13.3696 11.197 13.4302 11.0952 13.5184C11.0008 13.6002 10.951 13.7021 10.9733 13.8304C10.992 13.9379 11.0563 13.9891 11.1638 13.9919C11.2603 13.9944 11.3299 13.9411 11.401 13.89C11.4582 13.8487 11.4869 13.7937 11.4798 13.7197C11.4745 13.6643 11.4787 13.6083 11.4787 13.5526L11.4794 13.5529Z" fill="#E6E6E6"/>
<path d="M3.52618 12.782C3.52618 13.0662 3.52618 13.4319 3.52618 13.7975C3.52618 13.8384 3.52971 13.8797 3.53325 13.9206C3.53713 13.9667 3.55728 13.9861 3.60394 13.9882C3.65979 13.9907 3.71599 13.9897 3.77149 13.9932C3.83193 13.9971 3.83335 14.0006 3.83228 14.0591C3.83228 14.0651 3.83087 14.0711 3.83228 14.0767C3.83935 14.1141 3.82027 14.1191 3.78775 14.1191C3.60359 14.1176 3.41978 14.1176 3.23562 14.1191C3.15927 14.1194 3.08257 14.1233 3.00622 14.1268C2.97264 14.1282 2.95355 14.1187 2.95213 14.081C2.94931 14.0239 2.9585 14.0024 2.99703 13.9957C3.05853 13.9847 3.12039 13.99 3.18225 13.9914C3.22749 13.9925 3.25223 13.9756 3.25541 13.9297C3.25683 13.9093 3.26107 13.8888 3.26107 13.8684C3.26107 13.2926 3.26178 12.7172 3.26107 12.1414C3.26107 12.073 3.26036 12.0035 3.23916 11.9365C3.2183 11.8709 3.17836 11.8237 3.11367 11.798C3.07267 11.7817 3.03131 11.7666 2.99172 11.7472C2.95355 11.7285 2.95355 11.7137 2.99172 11.695C3.0762 11.6534 3.16104 11.6136 3.24658 11.5744C3.3148 11.543 3.38231 11.5106 3.44346 11.4665C3.45301 11.4598 3.46361 11.4542 3.47422 11.4496C3.52512 11.4281 3.54138 11.4387 3.54138 11.4937C3.54067 11.896 3.51946 12.2979 3.52688 12.782H3.52618Z" fill="#E6E6E6"/>
<path d="M4.49624 12.6901C4.49624 13.0381 4.49589 13.3862 4.4966 13.7342C4.4966 13.7885 4.50119 13.8428 4.50508 13.8967C4.51003 13.9641 4.53159 13.9849 4.59875 13.9877C4.64859 13.9898 4.69878 13.9891 4.74862 13.994C4.79599 13.9983 4.82815 14.0677 4.80412 14.109C4.79457 14.1255 4.77761 14.1181 4.76418 14.1181C4.56976 14.1185 4.37535 14.1178 4.1813 14.1188C4.11237 14.1192 4.04309 14.1238 3.97416 14.1284C3.93599 14.1308 3.92185 14.1178 3.92291 14.0783C3.92503 14.0025 3.92573 13.9979 4.00032 13.9923C4.05016 13.9887 4.10035 13.9908 4.15019 13.9901C4.20675 13.9891 4.22407 13.9746 4.22795 13.9179C4.23184 13.8607 4.2329 13.8033 4.2329 13.7461C4.2329 13.1852 4.23255 12.6242 4.2322 12.0632C4.2322 12.0484 4.2322 12.034 4.23114 12.0192C4.22195 11.8841 4.17317 11.8207 4.04556 11.7762C4.02188 11.7681 3.99784 11.7614 3.97487 11.7519C3.96002 11.7459 3.94305 11.7378 3.94305 11.7191C3.94305 11.7004 3.95931 11.693 3.97416 11.686C4.05899 11.6454 4.14383 11.6052 4.22866 11.5643C4.29618 11.5319 4.3644 11.5005 4.42484 11.4554C4.44852 11.4377 4.47539 11.4342 4.49978 11.4448C4.52205 11.4547 4.51427 11.4811 4.51392 11.5009C4.50861 11.7473 4.50119 11.9938 4.49695 12.2406C4.49447 12.3904 4.4966 12.5403 4.4966 12.6898L4.49624 12.6901Z" fill="#E6E6E6"/>
<path d="M12.9866 12.5698C13.0616 12.5698 13.1369 12.5681 13.2118 12.5705C13.2666 12.5723 13.2751 12.5843 13.2602 12.6361C13.2189 12.7786 13.2486 12.7574 13.1065 12.7599C12.993 12.762 12.8799 12.7623 12.7664 12.7613C12.735 12.7613 12.724 12.7683 12.7226 12.8025C12.7106 13.1065 12.7159 13.4104 12.7145 13.7143C12.7141 13.806 12.7449 13.8836 12.8131 13.9456C12.8382 13.9686 12.8668 13.9802 12.9011 13.9802C12.9824 13.9802 13.063 13.9738 13.1397 13.9453C13.168 13.9347 13.1857 13.94 13.2023 13.9657C13.2206 13.9939 13.2009 14.007 13.1842 14.02C13.0552 14.1223 12.9071 14.1695 12.7442 14.1512C12.5798 14.1329 12.4271 13.9573 12.4349 13.793C12.448 13.5246 12.4349 13.2556 12.4511 12.9873C12.455 12.9245 12.4501 12.8611 12.4511 12.798C12.4515 12.7712 12.4409 12.7613 12.4147 12.7616C12.35 12.7623 12.285 12.7616 12.2203 12.7616C12.1991 12.7616 12.1772 12.7616 12.1698 12.7366C12.1616 12.7091 12.179 12.6943 12.2002 12.6798C12.3932 12.548 12.5533 12.3844 12.6678 12.1799C12.6812 12.1562 12.6982 12.1552 12.7191 12.1577C12.7481 12.1608 12.7481 12.1844 12.747 12.2042C12.7424 12.3068 12.7367 12.4094 12.7314 12.512C12.7286 12.5691 12.729 12.5691 12.7873 12.5691C12.8534 12.5691 12.9198 12.5691 12.9859 12.5691C12.9859 12.5691 12.9859 12.5695 12.9859 12.5698H12.9866Z" fill="#E6E6E6"/>
<path d="M8.65868 13.4178C8.65868 13.5412 8.65833 13.6364 8.65868 13.7319C8.65868 13.7777 8.66716 13.8232 8.68979 13.8634C8.73185 13.9382 8.7877 13.9911 8.88349 13.9798C8.95489 13.9713 9.02771 13.9731 9.09451 13.9403C9.12421 13.9255 9.1334 13.9502 9.14541 13.9674C9.15814 13.9858 9.15673 13.9995 9.13658 14.0154C9.00827 14.1152 8.8637 14.1638 8.70145 14.1526C8.60319 14.1455 8.53284 14.082 8.46427 14.0189C8.40595 13.965 8.3759 13.8983 8.37979 13.8186C8.39357 13.5271 8.37661 13.2344 8.401 12.9428C8.40524 12.8931 8.40171 12.8434 8.39711 12.7933C8.39499 12.7686 8.38651 12.7602 8.36212 12.7605C8.29743 12.7616 8.23274 12.7605 8.16771 12.7616C8.14367 12.7619 8.12352 12.7591 8.11468 12.733C8.10549 12.7052 8.12458 12.6935 8.14367 12.6808C8.32288 12.5641 8.46003 12.4062 8.5841 12.2355C8.59435 12.2214 8.60354 12.2052 8.60778 12.1886C8.61556 12.1597 8.63323 12.1512 8.66009 12.1558C8.68873 12.1608 8.69297 12.1823 8.69155 12.2055C8.68554 12.3096 8.6813 12.4136 8.67176 12.5172C8.66822 12.5553 8.67423 12.5694 8.71594 12.5687C8.86299 12.5666 9.01039 12.5677 9.15743 12.568C9.20692 12.568 9.21328 12.5765 9.20515 12.6258C9.20515 12.6272 9.20515 12.6287 9.20444 12.6301C9.16309 12.7789 9.19773 12.7563 9.04821 12.7584C8.93474 12.7602 8.82163 12.7598 8.70817 12.7595C8.6813 12.7595 8.6661 12.7619 8.6654 12.7972C8.66186 13.013 8.64878 13.2284 8.65762 13.4163L8.65868 13.4178Z" fill="#E6E6E6"/>
<path d="M9.57068 13.4785C9.57068 13.3477 9.57068 13.2169 9.57068 13.0864C9.57068 13.0702 9.57068 13.054 9.56962 13.0381C9.56573 12.9471 9.52897 12.8773 9.4406 12.841C9.41763 12.8315 9.395 12.8202 9.37344 12.8082C9.33703 12.7881 9.33527 12.7701 9.36602 12.7416C9.37556 12.7328 9.38723 12.7254 9.39889 12.7197C9.51094 12.6644 9.62299 12.6094 9.73505 12.554C9.73752 12.5526 9.74035 12.5519 9.74318 12.5508C9.81246 12.5223 9.81422 12.5244 9.81634 12.5974C9.81811 12.6605 9.82271 12.7236 9.8273 12.7864C9.82836 12.7983 9.8266 12.8156 9.84215 12.8202C9.85629 12.8241 9.86088 12.8082 9.86724 12.7998C9.92345 12.7232 9.99167 12.6584 10.0624 12.5967C10.1444 12.5247 10.2409 12.4965 10.349 12.5127C10.4289 12.5247 10.4872 12.6037 10.4756 12.6816C10.4593 12.7895 10.3907 12.8502 10.2999 12.8368C10.2681 12.8322 10.2387 12.8174 10.2087 12.8082C10.1323 12.7849 10.0514 12.7751 9.9793 12.8223C9.89269 12.8794 9.84391 12.9637 9.84285 13.0667C9.83967 13.3353 9.84109 13.6044 9.84285 13.873C9.84356 13.9686 9.86654 13.9873 9.96233 13.9894C10.0093 13.9905 10.0564 13.9926 10.1034 13.9933C10.1299 13.9936 10.1419 14.0039 10.143 14.0328C10.1458 14.1191 10.1468 14.1191 10.0613 14.1188C9.88456 14.1188 9.70783 14.1181 9.53109 14.1188C9.46782 14.1191 9.40525 14.1311 9.34163 14.1287C9.313 14.1276 9.30416 14.1181 9.30381 14.0895C9.3031 13.9936 9.30381 13.9919 9.39925 13.9894C9.43176 13.9887 9.46393 13.9894 9.49645 13.9887C9.55513 13.9873 9.56891 13.9746 9.56927 13.9146C9.57033 13.8103 9.56927 13.7059 9.56927 13.6019C9.56927 13.5606 9.56927 13.5197 9.56927 13.4785H9.57068Z" fill="#E6E6E6"/>
<path d="M7.4161 12.5332C7.4967 12.5296 7.58895 12.5469 7.67803 12.5794C7.74943 12.6051 7.80139 12.6485 7.8127 12.7313C7.82048 12.7891 7.84027 12.8452 7.85194 12.9027C7.85618 12.9238 7.86678 12.9496 7.83603 12.964C7.8074 12.9771 7.78089 12.9757 7.75968 12.9517C7.7109 12.8967 7.66424 12.8396 7.62713 12.7761C7.5787 12.6932 7.50659 12.6499 7.41151 12.6446C7.38217 12.6428 7.35283 12.6446 7.32314 12.6446C7.1259 12.6439 7.02021 12.8487 7.11706 13.031C7.14676 13.0871 7.19129 13.123 7.2528 13.1421C7.36909 13.1784 7.48645 13.2123 7.59956 13.2574C7.88481 13.3709 7.97565 13.7253 7.77806 13.9619C7.67697 14.0828 7.54088 14.1477 7.38111 14.1533C7.23831 14.1586 7.09904 14.1427 6.97355 14.0655C6.95058 14.0514 6.93679 14.0359 6.93184 14.0084C6.91276 13.903 6.89084 13.7983 6.8714 13.6932C6.86645 13.6674 6.85302 13.6368 6.89331 13.6237C6.93573 13.61 6.95411 13.6188 6.97497 13.6622C7.01456 13.744 7.05874 13.8236 7.10257 13.9033C7.18882 14.0606 7.38394 14.0772 7.51189 14.0222C7.60875 13.9805 7.67838 13.9171 7.68192 13.8032C7.6858 13.6749 7.62996 13.58 7.5179 13.5183C7.46488 13.489 7.40691 13.4721 7.34859 13.457C7.24255 13.4291 7.14287 13.3875 7.05203 13.3254C6.86433 13.1978 6.81803 12.896 6.97744 12.7186C7.09338 12.5896 7.23194 12.5303 7.41681 12.5332H7.4161Z" fill="#E6E6E6"/>
<path d="M13.9163 13.2278C13.9163 13.4333 13.9163 13.6389 13.9163 13.8448C13.9163 13.9402 13.963 13.9885 14.0566 13.9897C14.0683 13.9897 14.0803 13.9897 14.0919 13.9904C14.1821 13.9946 14.1838 13.9971 14.181 14.0877C14.1803 14.1113 14.1754 14.1212 14.1485 14.1209C13.9926 14.1191 13.8364 14.1209 13.6805 14.118C13.5889 14.1163 13.4985 14.1283 13.4073 14.1286C13.3737 14.1286 13.3606 14.1177 13.3606 14.0828C13.3606 13.9943 13.3592 13.9936 13.4493 13.9908C13.4995 13.9894 13.5494 13.9901 13.5995 13.9908C13.6307 13.9908 13.6448 13.9774 13.6448 13.9456C13.6441 13.6255 13.6458 13.3053 13.6427 12.9852C13.6416 12.8766 13.602 12.8396 13.4949 12.824C13.4818 12.8223 13.4688 12.8198 13.4557 12.8177C13.4334 12.8142 13.408 12.8113 13.4058 12.7838C13.4041 12.7553 13.4263 12.7394 13.45 12.7292C13.52 12.6985 13.5911 12.6707 13.6603 12.6386C13.7148 12.6132 13.7674 12.5832 13.8208 12.5557C13.8272 12.5522 13.8339 12.549 13.8406 12.5462C13.906 12.519 13.9198 12.53 13.9194 12.5987C13.918 12.8089 13.9191 13.0187 13.9191 13.2288C13.918 13.2288 13.9173 13.2288 13.9163 13.2288V13.2278Z" fill="#E6E6E6"/>
<path d="M2.28908 13.4633C2.28908 13.3237 2.28908 13.1844 2.28908 13.0448C2.28908 13.0317 2.28908 13.0183 2.28908 13.0053C2.2866 12.878 2.25196 12.8396 2.12542 12.8212C2.0975 12.817 2.05755 12.8212 2.0526 12.7849C2.04766 12.7475 2.08336 12.7313 2.11376 12.7197C2.23358 12.6746 2.34952 12.6213 2.46051 12.5575C2.46829 12.5533 2.47607 12.549 2.4842 12.5455C2.55242 12.5166 2.5715 12.5321 2.56479 12.6065C2.5556 12.7091 2.56019 12.8117 2.56055 12.9143C2.56161 13.2285 2.55984 13.5426 2.56161 13.8568C2.56231 13.9834 2.56797 13.9862 2.69381 13.9883C2.72173 13.9887 2.74966 13.9922 2.77758 13.9918C2.81788 13.9918 2.82954 14.0102 2.82742 14.049C2.82424 14.1181 2.82636 14.1181 2.75566 14.1177C2.52308 14.1177 2.29049 14.117 2.05826 14.1184C2.02291 14.1184 2.01019 14.1085 2.01514 14.0743C2.0169 14.0627 2.0162 14.0507 2.01443 14.0391C2.00983 14.0063 2.02645 13.9922 2.05614 13.9915C2.1134 13.9901 2.17066 13.9897 2.22828 13.9887C2.28484 13.988 2.28908 13.9841 2.28943 13.9291C2.28943 13.7736 2.28943 13.6177 2.28943 13.4622L2.28908 13.4633Z" fill="#E6E6E6"/>
<path d="M2.34751 11.723C2.46628 11.723 2.54192 11.7907 2.54192 11.8968C2.54192 12.005 2.44542 12.0988 2.33408 12.0992C2.23016 12.0992 2.12836 12.0043 2.13401 11.9052C2.13967 11.804 2.20117 11.7184 2.34751 11.723Z" fill="#E6E6E6"/>
<path d="M13.7029 11.723C13.8213 11.723 13.8976 11.7918 13.8962 11.8976C13.8948 12.0072 13.8029 12.0989 13.694 12.0992C13.588 12.0996 13.4897 12.009 13.489 11.9099C13.488 11.7957 13.571 11.7234 13.7029 11.723Z" fill="#E6E6E6"/>
</svg>
