<svg width="20" height="20" viewBox="0 0 20 20" fill="none" xmlns="http://www.w3.org/2000/svg">
<g clip-path="url(#clip0_1173_4160)">
<path d="M15.1798 10.0009C15.1778 10.1587 15.1298 10.2812 15.0563 10.3969C14.6937 10.9653 14.3644 11.5533 14.0273 12.1364C13.989 12.2031 13.9538 12.2717 13.9175 12.3393C13.8597 12.4491 13.8469 12.4491 13.7774 12.353C13.5226 12.0012 13.253 11.6601 12.96 11.3387C12.9081 11.2818 12.8532 11.227 12.7963 11.175C12.6278 11.0192 12.5357 11.0074 12.3416 11.1309C12.1329 11.2642 11.93 11.4063 11.7252 11.5455C11.6478 11.5984 11.5713 11.6513 11.4978 11.7081C11.438 11.7542 11.4027 11.7425 11.3841 11.6719C11.3488 11.5435 11.2744 11.4396 11.1871 11.3406C10.8921 11.0055 10.8892 10.7908 11.1705 10.438C11.5301 9.98721 11.8908 9.53738 12.2534 9.08852C12.7268 8.5005 13.2031 7.91543 13.6764 7.32741C13.8352 7.1314 13.9165 7.13434 14.0635 7.34701C14.529 8.02127 14.8681 8.75433 15.0788 9.54522C15.121 9.70202 15.1739 9.85589 15.1788 10.0009H15.1798Z" fill="#E6E6E6"/>
<path d="M9.0929 10.9682C9.0831 11.0505 9.04684 11.127 9.00371 11.2015C8.91355 11.3553 8.81947 11.5072 8.73225 11.6631C8.69206 11.7346 8.65482 11.7503 8.58132 11.6983C8.38629 11.5592 8.18637 11.4269 7.98742 11.2946C7.91 11.2436 7.82964 11.1936 7.74535 11.1534C7.56209 11.0672 7.42096 11.0907 7.27984 11.2338C7.04463 11.471 6.83196 11.7268 6.63694 11.9973C6.55364 12.1119 6.47033 12.2256 6.38703 12.3403C6.33411 12.4128 6.29883 12.401 6.25571 12.3265C5.92837 11.766 5.59712 11.2064 5.26685 10.6478C5.25019 10.6203 5.23549 10.587 5.21099 10.5684C4.98166 10.392 4.98754 10.1391 5.03263 9.90489C5.20903 8.99934 5.57262 8.17317 6.13908 7.43913C6.16162 7.40973 6.18514 7.38228 6.20964 7.35484C6.24492 7.31564 6.27923 7.31956 6.31059 7.3617C6.80158 8.02029 7.36804 8.61516 7.89432 9.24435C8.29025 9.71868 8.64698 10.2224 8.99489 10.732C9.04292 10.8026 9.09192 10.8732 9.09388 10.9682H9.0929Z" fill="#E6E6E6"/>
<path d="M14.0626 13.6369C14.0666 13.7663 14.0274 13.8986 13.9362 14.0084C13.7157 14.273 13.5579 14.5748 13.3952 14.8747C13.3276 14.9992 13.2404 15.1021 13.1199 15.1775C12.8513 15.3451 12.5838 15.5156 12.3133 15.6793C12.1398 15.7842 12.0712 15.7695 11.935 15.6185C11.4773 15.1109 10.9569 14.6797 10.363 14.3396C10.1023 14.1906 10.0612 14.0525 10.1376 13.6947C10.1945 13.4301 10.3562 13.2361 10.5267 13.045C11.0873 12.4129 11.6978 11.8386 12.4191 11.3907C12.5152 11.3309 12.575 11.3407 12.6514 11.4142C13.1542 11.8934 13.5334 12.4638 13.8598 13.0705C13.9539 13.2449 14.0656 13.4135 14.0626 13.6379V13.6369Z" fill="#E6E6E6"/>
<path d="M9.80134 13.9417C9.82976 14.0652 9.75038 14.1602 9.63768 14.2416C9.08102 14.6434 8.55964 15.0903 8.03336 15.5303C7.82952 15.7009 7.7815 15.7067 7.57177 15.545C7.49141 15.4833 7.41006 15.4186 7.31598 15.3823C6.92887 15.2314 6.67014 14.9472 6.46433 14.5993C6.32615 14.3651 6.18208 14.1338 6.03214 13.9074C5.92727 13.7496 5.92727 13.5997 5.99588 13.4252C6.27421 12.7225 6.71228 12.1286 7.22484 11.5828C7.36498 11.4338 7.47181 11.423 7.67369 11.5573C8.12157 11.8542 8.54102 12.1835 8.92127 12.5667C9.17706 12.8245 9.39169 13.1146 9.6367 13.3801C9.7739 13.5291 9.79938 13.7192 9.80134 13.9427V13.9417Z" fill="#E6E6E6"/>
<path d="M14.4467 7.28725C14.3683 7.25491 14.332 7.18925 14.282 7.13731C14.0811 6.92954 13.9204 6.93052 13.7342 7.15397C13.4461 7.49992 13.1618 7.84979 12.8776 8.19966C12.7355 8.37411 12.712 8.37509 12.5817 8.19182C12.3004 7.79393 12.025 7.39114 11.7349 7.0001C11.5928 6.809 11.5683 6.63749 11.682 6.41894C11.9887 5.83288 12.3484 5.28505 12.7885 4.79111C12.8933 4.67253 12.9982 4.55394 13.1079 4.43928C13.2942 4.24327 13.3402 4.24817 13.4892 4.47848C13.7048 4.81365 13.8881 5.16646 14.036 5.53691C14.2575 6.09063 14.3986 6.66297 14.4604 7.25589C14.4604 7.26275 14.4545 7.27059 14.4467 7.28823V7.28725Z" fill="#E6E6E6"/>
<path d="M10.1161 8.02423C10.1161 7.42249 10.1161 6.82075 10.1161 6.21999C10.1161 6.15923 10.124 6.09847 10.1289 6.0377C10.1387 5.91324 10.1749 5.89168 10.2788 5.96714C10.3906 6.0475 10.4974 6.13669 10.5973 6.23077C11.252 6.84329 11.793 7.54597 12.2467 8.31726C12.33 8.45838 12.2889 8.58187 12.1977 8.69947C12.0703 8.86216 11.939 9.02386 11.8136 9.18851C11.4755 9.6305 11.1403 10.0745 10.8031 10.5174C10.7061 10.6458 10.6806 10.6517 10.5444 10.5655C10.2877 10.4037 10.1348 10.1774 10.123 9.86669C10.0985 9.25319 10.1171 8.63969 10.1171 8.02521L10.1161 8.02423Z" fill="#E6E6E6"/>
<path d="M17.3056 8.65545C17.2556 9.16408 17.1576 9.67272 17.0204 10.1755C16.943 10.4616 16.8587 10.7449 16.7597 11.0252C16.6529 11.328 16.4794 11.5818 16.2276 11.7817C15.6582 12.2345 15.1074 12.7098 14.5919 13.2244C14.3773 13.439 14.3282 13.4243 14.1989 13.1538C14.0636 12.8696 14.0646 12.5893 14.2097 12.311C14.9143 10.9536 15.7728 9.708 16.892 8.65447C16.9655 8.58488 17.0439 8.51922 17.1262 8.45944C17.2389 8.3781 17.2781 8.3977 17.2968 8.53588C17.3017 8.57214 17.3026 8.60841 17.3056 8.65545Z" fill="#E6E6E6"/>
<path d="M5.83228 7.21176C5.85286 6.95793 5.94204 6.75016 5.97928 6.53162C6.08414 5.90832 6.35855 5.35362 6.6653 4.81264C6.72312 4.71072 6.77115 4.60193 6.83093 4.50099C6.91129 4.36672 6.98577 4.35594 7.0877 4.47159C7.67278 5.13605 8.26569 5.79365 8.61557 6.6257C8.65085 6.70998 8.64693 6.77074 8.59597 6.83739C8.25785 7.2735 7.91484 7.70569 7.60221 8.16043C7.54341 8.24667 7.50519 8.25255 7.43855 8.16141C7.17688 7.80958 6.89659 7.47245 6.5967 7.15198C6.58592 7.14022 6.57416 7.12845 6.56338 7.11669C6.32229 6.85895 6.21155 6.85601 5.95674 7.09611C5.9244 7.12649 5.89206 7.1559 5.83228 7.2098V7.21176Z" fill="#E6E6E6"/>
<path d="M6.00965 12.8804C6.00083 12.9098 5.99299 12.946 5.97731 12.9784C5.91556 13.1107 5.85186 13.242 5.78914 13.3733C5.76954 13.4155 5.74896 13.4498 5.70388 13.3959C5.31383 12.9255 4.80911 12.5854 4.34261 12.2022C4.23285 12.112 4.12211 12.0219 4.00646 11.9415C3.74969 11.7622 3.59387 11.5152 3.47725 11.23C3.2097 10.5734 3.01663 9.89715 2.92745 9.19349C2.90491 9.01316 2.87649 8.83186 2.88825 8.64859C2.89021 8.62213 2.87943 8.58587 2.90883 8.57117C2.94117 8.55451 2.95783 8.59077 2.97841 8.60743C3.87318 9.38264 4.59252 10.3048 5.22268 11.3015C5.41967 11.6142 5.60293 11.9346 5.76954 12.2639C5.86068 12.4443 5.92242 12.6393 5.99691 12.8274C6.00279 12.8421 6.00475 12.8588 6.01063 12.8813L6.00965 12.8804Z" fill="#E6E6E6"/>
<path d="M9.78085 6.80113C9.75145 7.79293 9.73773 8.84842 9.76027 9.90391C9.76713 10.2342 9.58288 10.3851 9.34964 10.5311C9.28593 10.5703 9.26241 10.5174 9.23497 10.4792C8.96448 10.0931 8.66753 9.72751 8.37548 9.35804C8.19418 9.12871 8.02463 8.89056 7.82079 8.67985C7.66104 8.51521 7.66202 8.47111 7.79726 8.28196C8.19222 7.72628 8.58521 7.16865 9.03603 6.65609C9.23497 6.43068 9.45156 6.22193 9.68481 6.03083C9.70833 6.01123 9.73185 5.97497 9.76713 5.99065C9.80633 6.00829 9.77987 6.04847 9.78085 6.07885C9.78183 6.29838 9.78085 6.51692 9.78085 6.80113Z" fill="#E6E6E6"/>
<path d="M16.0551 8.69857C16.06 8.95729 15.963 9.18172 15.815 9.38655C15.718 9.52179 15.617 9.6541 15.5161 9.78542C15.4984 9.80894 15.4886 9.85304 15.4475 9.84128C15.4112 9.8305 15.4102 9.79032 15.4053 9.75994C15.3465 9.36401 15.2103 8.99062 15.0741 8.6182C15.0074 8.43592 14.9134 8.26441 14.833 8.08703C14.7007 7.79498 14.6595 7.47941 14.6223 7.1658C14.6037 7.00801 14.5733 6.85415 14.539 6.6993C14.5243 6.63266 14.5086 6.56504 14.4988 6.49643C14.4665 6.27887 14.5066 6.07992 14.6478 5.90253C14.8242 5.68007 14.9898 5.44878 15.1623 5.22337C15.1985 5.17535 15.2358 5.10871 15.3024 5.12243C15.3759 5.13713 15.4004 5.21259 15.422 5.27923C15.5759 5.76239 15.7278 6.24457 15.8287 6.74242C15.96 7.38924 16.0081 8.04292 16.058 8.69857H16.0551Z" fill="#E6E6E6"/>
<path d="M14.0068 15.8155C14.0332 15.6675 14.1048 15.5489 14.1646 15.4254C14.2194 15.3118 14.2655 15.1951 14.289 15.0707C14.3116 14.9531 14.2518 14.8521 14.1381 14.8355C14.0381 14.8208 13.9362 14.81 13.8353 14.8355C13.8049 14.8433 13.7706 14.8707 13.7471 14.8355C13.7285 14.807 13.7471 14.7737 13.7618 14.7433C13.8706 14.5248 13.995 14.3161 14.1469 14.124C14.7242 13.3929 15.3847 12.746 16.1266 12.1835C16.2981 12.0532 16.4814 11.9385 16.6852 11.865C16.8067 11.8219 16.8224 11.8375 16.8009 11.961C16.7362 12.3246 16.5911 12.6608 16.4226 12.9852C15.9904 13.8143 15.4592 14.5767 14.8222 15.2608C14.6232 15.4744 14.3821 15.646 14.1234 15.7861C14.0911 15.8037 14.0597 15.8184 14.0068 15.8155Z" fill="#E6E6E6"/>
<path d="M5.55786 6.43174C5.56864 6.68557 5.45986 6.91097 5.44712 7.1501C5.41086 7.84298 5.09823 8.45256 4.86204 9.08468C4.78854 9.28265 4.71307 9.47866 4.65231 9.68054C4.64349 9.71092 4.63957 9.75013 4.60527 9.76091C4.56509 9.77267 4.55333 9.73052 4.53471 9.70602C4.36516 9.48356 4.18092 9.26893 4.14662 8.97394C4.12113 8.75441 4.15544 8.53587 4.16916 8.3183C4.21228 7.6215 4.32106 6.93253 4.48375 6.25435C4.55529 5.95446 4.63565 5.65653 4.76992 5.37624C4.8248 5.2606 4.83852 5.25178 4.90908 5.34978C5.08059 5.58695 5.26973 5.80942 5.4481 6.0407C5.53924 6.15831 5.5706 6.29551 5.55688 6.43174H5.55786Z" fill="#E6E6E6"/>
<path d="M6.0126 15.8195C5.85677 15.7587 5.73035 15.6627 5.61765 15.5539C4.69544 14.6591 3.94767 13.6418 3.46746 12.4413C3.42335 12.3315 3.39101 12.2188 3.37533 12.1012C3.37141 12.0748 3.34593 12.0454 3.37435 12.0218C3.40179 11.9993 3.42825 12.0238 3.45178 12.0375C3.84869 12.2698 4.23286 12.5207 4.57881 12.8245C5.19231 13.3616 5.74799 13.9525 6.1841 14.6474C6.20174 14.6748 6.21841 14.7032 6.23801 14.7287C6.29877 14.8061 6.25957 14.8306 6.18312 14.8375C6.15078 14.8404 6.11844 14.8414 6.0861 14.8463C5.84795 14.8826 5.80385 14.9443 5.81071 15.1883C5.81659 15.3696 5.89009 15.5343 5.98026 15.6911C5.99986 15.7254 6.02926 15.7567 6.0126 15.8205V15.8195Z" fill="#E6E6E6"/>
<path d="M10.1072 5.05478C10.0376 4.73626 10.1709 4.54222 10.4649 4.41579C10.6835 4.32171 10.8726 4.16687 11.0971 4.07866C11.2519 4.0179 11.3803 4.03946 11.4959 4.15903C11.6851 4.35503 11.8566 4.56672 12.0301 4.77547C12.0859 4.84309 12.0928 4.91071 12.0448 4.98715C11.7635 5.43797 11.4489 5.8682 11.1882 6.33176C11.1549 6.39056 11.1216 6.3886 11.0755 6.34254C10.9403 6.20827 10.8021 6.07695 10.6639 5.94366C10.5669 5.85056 10.4689 5.75648 10.3454 5.70062C10.1641 5.61731 10.1062 5.47129 10.1072 5.28704C10.1072 5.20962 10.1072 5.13318 10.1072 5.05576V5.05478Z" fill="#E6E6E6"/>
<path d="M8.15986 4.99006C8.16182 4.94498 8.16182 4.9244 8.16476 4.9048C8.19024 4.67939 8.59206 4.25504 8.81648 4.21486C8.87921 4.2031 8.93997 4.22172 8.99485 4.24034C9.27024 4.33932 9.53877 4.45692 9.77299 4.63627C9.92196 4.74995 9.98566 4.8999 9.9494 5.09492C9.92392 5.23703 9.96116 5.38599 9.9298 5.53202C9.91608 5.59474 9.8955 5.64962 9.84748 5.6898C9.60247 5.89659 9.35942 6.10632 9.11049 6.30722C9.00759 6.39053 8.95075 6.37681 8.88214 6.26606C8.6587 5.90345 8.43721 5.53888 8.21572 5.17431C8.17652 5.11061 8.15398 5.042 8.15986 4.99006Z" fill="#E6E6E6"/>
<path d="M10.1091 15.7714C10.1091 15.45 10.1072 15.1295 10.1111 14.8081C10.1111 14.7346 10.0935 14.6405 10.1738 14.5983C10.2532 14.5572 10.3257 14.6209 10.3826 14.666C10.6629 14.8875 10.9392 15.1148 11.2146 15.3422C11.393 15.4902 11.5694 15.6401 11.7419 15.794C11.8575 15.8959 11.8644 15.9822 11.7487 16.0811C11.4704 16.3193 11.2273 16.5966 10.9451 16.8269C10.7491 16.9867 10.4943 17.0033 10.2483 16.973C10.1474 16.9602 10.1297 16.8593 10.1287 16.7711C10.1268 16.4379 10.1287 16.1047 10.1287 15.7714C10.1229 15.7714 10.117 15.7714 10.1111 15.7714H10.1091Z" fill="#E6E6E6"/>
<path d="M9.77804 15.7597C9.77804 16.0968 9.77804 16.433 9.77804 16.7701C9.77804 16.874 9.72218 16.9142 9.62711 16.92C9.36055 16.9367 9.12338 16.8593 8.94501 16.6623C8.74215 16.4379 8.51968 16.2399 8.27565 16.0625C8.17863 15.9919 8.17765 15.9351 8.27859 15.8449C8.51086 15.6362 8.74803 15.4323 8.98519 15.2295C9.19198 15.0531 9.40171 14.8796 9.61143 14.7061C9.65064 14.6738 9.69376 14.6228 9.74962 14.6513C9.8045 14.6777 9.7751 14.7395 9.7751 14.7845C9.77706 15.1099 9.7751 15.4343 9.7751 15.7597C9.7751 15.7597 9.77608 15.7597 9.77706 15.7597H9.77804Z" fill="#E6E6E6"/>
<path d="M11.3998 16.9033C11.3165 16.9053 11.292 16.869 11.3321 16.8063C11.3596 16.7622 11.4007 16.7259 11.439 16.6897C12.0299 16.1271 12.711 15.6969 13.4343 15.3274C13.5754 15.2549 13.7156 15.1824 13.8577 15.1128C13.8871 15.0981 13.9253 15.0697 13.9567 15.102C13.9812 15.1275 13.9645 15.1647 13.9567 15.1951C13.792 15.8262 13.4431 16.2888 12.7904 16.4799C12.3425 16.6113 11.8986 16.7543 11.4537 16.8915C11.4341 16.8974 11.4145 16.9004 11.4017 16.9023L11.3998 16.9033Z" fill="#E6E6E6"/>
<path d="M10.1297 13.0616C10.1297 12.8735 10.1297 12.7029 10.1297 12.5334C10.1297 11.9287 10.1297 11.324 10.1297 10.7184C10.1297 10.6801 10.1091 10.6272 10.1522 10.6086C10.1914 10.5919 10.2257 10.6331 10.2571 10.6576C10.6559 10.9771 10.9392 11.3809 11.1342 11.8503C11.1665 11.9277 11.1695 11.9973 11.1068 12.063C10.7971 12.3844 10.4893 12.7078 10.1806 13.0303C10.1728 13.0381 10.161 13.042 10.1306 13.0606L10.1297 13.0616Z" fill="#E6E6E6"/>
<path d="M9.77697 12.8881C9.58783 12.7146 9.41632 12.5725 9.26442 12.4128C9.16641 12.3099 9.07331 12.204 8.96355 12.1129C8.85182 12.0208 8.82928 11.8787 8.9067 11.7532C9.13015 11.3936 9.41534 11.0809 9.68387 10.7565C9.70151 10.736 9.72209 10.7056 9.75345 10.7164C9.78579 10.7281 9.77697 10.7644 9.77697 10.7918C9.77697 11.4778 9.77697 12.1629 9.77697 12.8891V12.8881Z" fill="#E6E6E6"/>
<path d="M8.49209 16.7994C8.34019 16.8102 8.2461 16.7573 8.1481 16.722C7.74825 16.575 7.35134 16.4221 6.94952 16.281C6.48989 16.1203 6.25664 15.7704 6.1263 15.3294C6.11748 15.299 6.09787 15.2647 6.13022 15.2392C6.15766 15.2186 6.18314 15.2451 6.20862 15.2549C6.82702 15.5048 7.38074 15.8625 7.89917 16.2771C8.09714 16.4348 8.28041 16.6112 8.49209 16.7994Z" fill="#E6E6E6"/>
<path d="M10.121 17.6668C10.121 17.61 10.119 17.5532 10.121 17.4963C10.1269 17.3326 10.168 17.2856 10.3278 17.2719C10.8178 17.2307 11.3029 17.1543 11.789 17.0827C11.8517 17.0739 11.937 17.0465 11.9723 17.0965C12.0115 17.1513 11.9713 17.2278 11.9409 17.2915C11.8635 17.4571 11.741 17.5796 11.5773 17.6541C11.1637 17.8432 10.7217 17.9295 10.2758 17.9971C10.1778 18.0118 10.12 17.9706 10.1259 17.8619C10.1298 17.7972 10.1259 17.7315 10.1259 17.6668C10.1239 17.6668 10.122 17.6668 10.121 17.6668Z" fill="#E6E6E6"/>
<path d="M12.4965 4.63235C12.4965 4.64117 12.5053 4.67841 12.4759 4.69017C12.4328 4.70781 12.3975 4.68233 12.3701 4.64999C12.2436 4.502 12.1192 4.35206 11.9927 4.20407C11.8947 4.08941 11.7909 3.9816 11.6595 3.90418C11.5125 3.81696 11.3616 3.8052 11.2058 3.87674C11.1176 3.9179 11.0294 3.95906 10.9412 4.00023C10.849 4.04335 10.8049 4.00121 10.7863 3.913C10.7765 3.86792 10.7824 3.82382 10.7971 3.78168C10.8735 3.56313 10.9461 3.34458 11.0274 3.128C11.1088 2.90945 11.2019 2.89279 11.392 3.06528C11.734 3.37595 12.0339 3.72092 12.2603 4.12665C12.3269 4.24719 12.3955 4.36774 12.4622 4.48828C12.4837 4.52748 12.5014 4.56864 12.4984 4.63431L12.4965 4.63235Z" fill="#E6E6E6"/>
<path d="M9.79838 17.7295C9.78858 17.9363 9.74448 17.9725 9.54259 17.9206C9.22506 17.8392 8.90753 17.7559 8.59196 17.6677C8.37831 17.608 8.19211 17.506 8.099 17.2885C8.0843 17.2542 8.05196 17.215 8.08626 17.1758C8.11763 17.1405 8.15389 17.1718 8.18819 17.1758C8.51846 17.211 8.84873 17.2444 9.179 17.2787C9.32012 17.2934 9.46027 17.312 9.60041 17.3277C9.71214 17.3394 9.7631 17.4071 9.77584 17.5119C9.78466 17.5844 9.7925 17.657 9.80034 17.7295H9.79838Z" fill="#E6E6E6"/>
<path d="M7.66984 4.50106C7.64926 4.48146 7.662 4.46676 7.66984 4.45402C7.95699 3.91794 8.3 3.42401 8.76552 3.02415C8.89488 2.91243 8.98896 2.93301 9.06149 3.08394C9.16047 3.29072 9.21437 3.51025 9.24083 3.73664C9.25259 3.83856 9.22613 3.86796 9.11441 3.84542C8.74298 3.7729 8.38232 3.8023 8.08341 4.06299C7.95895 4.17079 7.86193 4.30996 7.75118 4.43442C7.72766 4.46088 7.7061 4.49126 7.6718 4.50106H7.66984Z" fill="#E6E6E6"/>
<path d="M14.6662 5.25664C14.6643 5.41247 14.5839 5.52321 14.5133 5.63493C14.4741 5.69765 14.4516 5.81428 14.385 5.8084C14.3134 5.80252 14.283 5.69275 14.2497 5.62023C14.1272 5.35562 14.0126 5.08807 13.89 4.82347C13.8205 4.67156 13.8107 4.52848 13.9126 4.38735C13.941 4.34815 13.9645 4.30601 13.989 4.26387C14.1008 4.06982 14.0919 4.03846 14.2321 4.26191C14.4085 4.54318 14.5623 4.83817 14.6466 5.16354C14.6555 5.19882 14.6613 5.2341 14.6662 5.25664Z" fill="#E6E6E6"/>
<path d="M15.6924 14.7139C15.8012 14.5493 15.907 14.3827 16.0187 14.219C16.1834 13.977 16.3255 13.7222 16.4539 13.4595C16.6019 13.1537 16.8498 12.9499 17.1497 12.8039C17.1938 12.7823 17.2477 12.7529 17.2859 12.7901C17.3281 12.8313 17.2791 12.8793 17.2614 12.9215C16.9703 13.6418 16.4735 14.1916 15.8423 14.6297C15.8188 14.6463 15.7963 14.663 15.7737 14.6806C15.7522 14.6973 15.7316 14.7139 15.71 14.7316C15.7041 14.7257 15.6983 14.7198 15.6934 14.7139H15.6924Z" fill="#E6E6E6"/>
<path d="M12.7964 3.36717C12.7974 3.26819 13.0022 2.98986 13.0777 2.98202C13.1492 2.97418 13.2139 3.01044 13.258 3.0663C13.3011 3.11922 13.3344 3.18097 13.3677 3.24075C13.503 3.48086 13.6373 3.72194 13.7725 3.96303C13.8107 4.03163 13.7402 4.2394 13.6696 4.26586C13.6461 4.27468 13.6314 4.26194 13.6147 4.25214C13.2923 4.05221 13.0228 3.79937 12.8366 3.4642C12.817 3.42891 12.8062 3.38971 12.7964 3.36815V3.36717Z" fill="#E6E6E6"/>
<path d="M17.6945 10.9154C17.6857 10.9703 17.6818 11.032 17.6651 11.0898C17.5514 11.4955 17.3936 11.8807 17.129 12.2139C17.1163 12.2296 17.1036 12.2453 17.0889 12.26C17.0663 12.2825 17.0418 12.3168 17.0075 12.2992C16.9654 12.2766 17.0007 12.2394 17.0095 12.2139C17.0379 12.1257 17.0771 12.0404 17.1055 11.9513C17.1682 11.7602 17.1251 11.5867 16.9889 11.4446C16.9242 11.3779 16.9223 11.3221 16.9634 11.2505C17.0203 11.1525 17.0771 11.0536 17.1359 10.9565C17.2457 10.7733 17.4456 10.7674 17.62 10.7135C17.6563 10.7017 17.669 10.735 17.6739 10.7644C17.6818 10.8125 17.6877 10.8605 17.6945 10.9154Z" fill="#E6E6E6"/>
<path d="M6.03122 4.6078C6.02534 4.71267 6.02534 4.78323 5.98614 4.84301C5.83522 5.07626 5.74015 5.33597 5.63921 5.59274C5.60295 5.68486 5.56963 5.67212 5.50985 5.62116C5.36186 5.49767 5.3158 5.33695 5.36774 5.16054C5.45987 4.84693 5.59903 4.55488 5.8019 4.29517C5.8558 4.22559 5.8901 4.22167 5.9244 4.30987C5.96654 4.41866 6.042 4.51666 6.03122 4.60682V4.6078Z" fill="#E6E6E6"/>
<path d="M11.8359 3.13491C11.83 3.08297 11.8525 3.03789 11.9035 3.00751C11.9564 2.97615 12.0044 2.98791 12.0505 3.02221C12.076 3.04181 12.1044 3.06043 12.124 3.08493C12.3406 3.35836 12.5582 3.63179 12.7708 3.90816C12.8149 3.965 12.86 4.03164 12.81 4.10907C12.6856 4.30115 12.5934 4.35603 12.4504 4.15317C12.2602 3.88464 12.0721 3.61513 11.8996 3.33484C11.8633 3.27604 11.8349 3.21234 11.8359 3.13491Z" fill="#E6E6E6"/>
<path d="M6.45557 4.17961C6.50261 3.78661 6.67215 3.44066 6.9544 3.14763C7.0034 3.09667 7.04849 3.11431 7.08867 3.16135C7.16805 3.2574 7.21803 3.36716 7.23763 3.48966C7.24057 3.50535 7.24547 3.52887 7.23763 3.53769C7.13963 3.64745 7.15531 3.82582 7.00536 3.9052C6.82602 4.00026 6.64765 4.09924 6.54083 4.28447C6.53103 4.30211 6.51437 4.32563 6.49477 4.31289C6.45263 4.28447 6.45949 4.23547 6.45655 4.17961H6.45557Z" fill="#E6E6E6"/>
<path d="M4.01037 14.4768C3.51055 14.0475 3.00584 13.6222 2.80493 12.9342C3.02642 12.9989 3.20086 13.0979 3.32337 13.2831C3.5233 13.584 3.69676 13.9015 3.88395 14.2102C3.93491 14.2935 4.00351 14.369 4.01037 14.4768Z" fill="#E6E6E6"/>
<path d="M2.81583 12.0531C2.59042 11.7483 2.44832 11.4171 2.35718 11.0633C2.34052 10.9966 2.32288 10.93 2.30818 10.8634C2.2925 10.7879 2.3268 10.7477 2.4003 10.7712C2.65217 10.8526 2.86287 10.9849 2.95304 11.2544C2.9746 11.32 2.97264 11.3808 2.91776 11.419C2.71293 11.5602 2.71587 11.7405 2.80407 11.9424C2.81583 11.9708 2.83641 12.0002 2.81583 12.0531Z" fill="#E6E6E6"/>
<path d="M10.1298 3.47689C10.1298 3.24953 10.1317 3.02314 10.1288 2.79577C10.1278 2.70463 10.1582 2.69287 10.2376 2.72521C10.4179 2.79969 10.5198 2.94866 10.4904 3.1329C10.4473 3.40829 10.3964 3.6827 10.3464 3.95809C10.3307 4.04629 10.2944 4.12763 10.2454 4.2031C10.2258 4.23446 10.2004 4.26778 10.1582 4.25406C10.12 4.24132 10.1288 4.20016 10.1288 4.1688C10.1288 3.93751 10.1288 3.7072 10.1288 3.47591L10.1298 3.47689Z" fill="#E6E6E6"/>
<path d="M11.6783 2.27539C11.7655 2.29205 11.839 2.31165 11.9027 2.36065C12.1115 2.52138 12.3212 2.68112 12.5299 2.84185C12.5427 2.85165 12.5554 2.86243 12.5652 2.87517C12.6024 2.92515 12.6416 2.98983 12.6044 3.04178C12.5613 3.10156 12.4986 3.04766 12.4545 3.02217C12.3427 2.96043 12.2663 2.85655 12.1703 2.77619C12.0027 2.63408 11.9968 2.6331 11.8155 2.75169C11.5891 2.89869 11.596 2.95063 11.4352 2.65858C11.4156 2.6233 11.3931 2.58998 11.3696 2.55666C11.3519 2.53118 11.3421 2.50178 11.3647 2.47924C11.4568 2.38613 11.5626 2.31459 11.6783 2.27735V2.27539Z" fill="#E6E6E6"/>
<path d="M7.99415 3.07801C8.04903 3.09859 8.08039 3.13191 8.05295 3.18973C8.02159 3.25539 7.98827 3.32105 7.94809 3.38084C7.7707 3.64348 7.58939 3.90221 7.41299 4.16486C7.34929 4.25992 7.29833 4.23542 7.24834 4.16094C7.18562 4.06686 7.1817 3.9669 7.2552 3.87869C7.46199 3.63368 7.67368 3.3926 7.8834 3.14955C7.91281 3.11525 7.94907 3.08977 7.99317 3.07703L7.99415 3.07801Z" fill="#E6E6E6"/>
<path d="M16.2688 8.04091C16.2688 7.95172 16.2688 7.86254 16.2688 7.77434C16.2688 7.70476 16.2943 7.69888 16.3482 7.73318C16.5687 7.87234 16.6922 8.07031 16.7167 8.32904C16.7265 8.429 16.6882 8.5123 16.6157 8.57796C16.5501 8.63775 16.4785 8.69165 16.4099 8.74751C16.3658 8.78279 16.3276 8.79553 16.3237 8.71811C16.3119 8.49172 16.2649 8.26827 16.2688 8.04091Z" fill="#E6E6E6"/>
<path d="M10.271 2.21755C10.2759 2.15777 10.2661 2.0872 10.3278 2.05388C10.3886 2.02154 10.4435 2.0627 10.4954 2.09504C10.7022 2.22441 10.8639 2.41453 11.0795 2.53214C11.1119 2.54978 11.1128 2.57624 11.105 2.60466C11.0707 2.72814 10.8561 2.80655 10.7502 2.73402C10.6365 2.65562 10.5278 2.57134 10.4121 2.49588C10.3092 2.42923 10.2641 2.33809 10.272 2.21853L10.271 2.21755Z" fill="#E6E6E6"/>
<path d="M9.73384 4.14722C9.64368 4.03844 9.65544 3.89829 9.63094 3.77089C9.58781 3.55234 9.55351 3.33281 9.51333 3.11329C9.48491 2.95942 9.53979 2.86534 9.6868 2.80948C9.75246 2.784 9.77696 2.79968 9.77696 2.86828C9.77402 3.19365 9.77206 3.51804 9.7701 3.84341C9.7701 3.94337 9.7701 4.04334 9.7701 4.1433L9.73384 4.1482V4.14722Z" fill="#E6E6E6"/>
<path d="M7.53955 3.14266C7.53955 3.0525 7.58072 3.0231 7.61502 2.99174C7.80514 2.81925 8.01193 2.66931 8.22362 2.52524C8.27752 2.488 8.33926 2.46644 8.40688 2.46938C8.51763 2.47428 8.61955 2.4978 8.67247 2.60757C8.70481 2.67519 8.62641 2.83297 8.54409 2.89374C8.49705 2.92902 8.46372 2.90648 8.42452 2.87904C8.11483 2.66637 8.09621 2.66833 7.80808 2.91432C7.72478 2.98586 7.6405 3.05642 7.53857 3.14168L7.53955 3.14266Z" fill="#E6E6E6"/>
<path d="M9.77789 2.13131C9.77201 2.24891 9.723 2.33418 9.62598 2.38514C9.5172 2.44198 9.41429 2.50372 9.33197 2.59781C9.25847 2.68209 9.20849 2.62525 9.15361 2.56938C9.08794 2.50274 9.12911 2.47138 9.18399 2.42826C9.33393 2.31066 9.47898 2.18619 9.62598 2.06565C9.65832 2.03919 9.68968 1.98235 9.73379 2.00685C9.77495 2.02939 9.77103 2.09211 9.77789 2.13229V2.13131Z" fill="#E6E6E6"/>
<path d="M3.75356 8.38396C3.75748 8.45452 3.74082 8.57311 3.7663 8.68875C3.77218 8.71619 3.78002 8.74657 3.7467 8.76323C3.72121 8.77499 3.70063 8.75931 3.68005 8.74657C3.40662 8.57899 3.41054 8.16149 3.68495 7.99097C3.72905 7.96353 3.75258 7.96647 3.75258 8.02331C3.75258 8.12817 3.75258 8.23402 3.75258 8.38494L3.75356 8.38396Z" fill="#E6E6E6"/>
</g>
<defs>
<clipPath id="clip0_1173_4160">
<rect width="15.3894" height="16" fill="white" transform="translate(2.30518 2)"/>
</clipPath>
</defs>
</svg>
