<svg width="20" height="20" viewBox="0 0 20 20" fill="none" xmlns="http://www.w3.org/2000/svg">
<path d="M11.4009 13.0249C11.2337 13.1602 11.1012 13.266 10.9699 13.3734C9.75425 14.3747 7.51004 14.2729 6.4411 12.5865C5.49498 11.094 5.56946 9.11073 6.67593 7.65515C7.37415 6.73688 8.29355 6.17398 9.43698 6.02217C10.5355 5.87661 11.4572 6.20981 12.1196 7.13831C12.1304 7.15366 12.1423 7.16844 12.1554 7.18209C12.1616 7.18834 12.1713 7.19062 12.1958 7.20312C12.231 6.95124 12.2674 6.70448 12.2998 6.45771C12.3356 6.18536 12.3339 6.18536 12.6091 6.18536C13.097 6.18536 13.5854 6.18877 14.0732 6.18308C14.1886 6.18195 14.2211 6.21663 14.2046 6.32978C14.055 7.37427 13.9072 8.41933 13.7616 9.46496C13.6161 10.5055 13.4734 11.5465 13.3295 12.5871C13.2789 12.9527 13.2266 13.3177 13.1811 13.6839C13.1686 13.7851 13.126 13.8146 13.0253 13.8135C12.4948 13.8089 11.9638 13.8078 11.4333 13.8135C11.3076 13.8152 11.2945 13.7674 11.3122 13.6623C11.3452 13.4627 11.3685 13.2614 11.4009 13.0243V13.0249ZM11.9501 9.74243C11.9422 9.56218 11.9353 9.40128 11.9029 9.24321C11.7585 8.53873 11.3753 8.01904 10.6708 7.82118C9.76903 7.56702 8.97529 7.7973 8.33108 8.48415C7.804 9.04648 7.63058 9.73503 7.65958 10.4867C7.67835 10.97 7.82618 11.4067 8.16221 11.766C8.63129 12.2681 9.22774 12.3846 9.8782 12.3113C10.3422 12.259 10.7606 12.0856 11.0916 11.7501C11.6437 11.19 11.9245 10.5094 11.9501 9.74243Z" fill="#E6E6E6"/>
<path d="M2.00341 10.0011C2.00341 8.08672 2.00512 6.17286 2 4.25844C2 4.11572 2.03525 4.07592 2.18024 4.07763C2.88586 4.08559 3.59204 4.08388 4.29822 4.07876C4.41762 4.07763 4.45231 4.11345 4.44947 4.23115C4.44207 4.53875 4.44151 4.84692 4.44947 5.1551C4.45288 5.28417 4.40625 5.3143 4.28514 5.31146C3.97242 5.3035 3.6597 5.31146 3.34698 5.30691C3.26112 5.30577 3.22303 5.3325 3.23212 5.42006C3.23497 5.44792 3.23212 5.47692 3.23212 5.50535C3.23212 8.50008 3.23212 11.4943 3.23212 14.489C3.23212 14.6236 3.29732 14.691 3.42772 14.6914C3.72623 14.6914 4.02473 14.6943 4.32324 14.6897C4.41649 14.6886 4.44833 14.7221 4.44719 14.8131C4.44378 15.1446 4.44435 15.4766 4.44719 15.8081C4.44776 15.8957 4.41308 15.9218 4.32893 15.9213C3.59431 15.919 2.86027 15.9178 2.12566 15.9224C2.00341 15.923 2.00227 15.8616 2.00227 15.7723C2.00341 14.7301 2.00341 13.6873 2.00341 12.6451C2.00341 11.7638 2.00341 10.8825 2.00341 10.0011Z" fill="#E6E6E6"/>
<path d="M17.9978 9.99489C17.9978 11.9087 17.9978 13.8226 17.9978 15.7365C17.9978 15.8581 17.9357 15.9192 17.8113 15.9196C17.1103 15.9196 16.4092 15.9173 15.7081 15.9218C15.5916 15.9224 15.5518 15.8894 15.554 15.7706C15.5609 15.4533 15.5592 15.136 15.5552 14.8182C15.554 14.7193 15.5882 14.6869 15.6871 14.688C15.9902 14.6931 16.2938 14.6834 16.5968 14.6925C16.7316 14.6971 16.7737 14.6613 16.7731 14.5208C16.7668 13.5497 16.7697 12.5785 16.7697 11.6074C16.7697 9.57016 16.7697 7.53292 16.7697 5.49624C16.7697 5.3704 16.7052 5.30747 16.5764 5.30747C16.2779 5.30747 15.9793 5.30463 15.6808 5.30918C15.5899 5.31032 15.5546 5.28189 15.5552 5.18864C15.5586 4.85715 15.5592 4.5251 15.5552 4.19362C15.554 4.09411 15.5995 4.07876 15.6848 4.07933C16.4098 4.0816 17.1347 4.08331 17.8591 4.07819C17.9745 4.07762 18.0007 4.11629 18.0001 4.22432C17.9967 5.18125 17.9978 6.13818 17.9978 7.09511C17.9978 8.0617 17.9978 9.02773 17.9978 9.99432V9.99489Z" fill="#E6E6E6"/>
</svg>
