<svg width="20" height="20" viewBox="0 0 20 20" fill="none" xmlns="http://www.w3.org/2000/svg">
<path d="M16.3765 8.88531C16.3646 8.97388 16.3512 9.06232 16.3411 9.15115C16.2723 9.75069 15.9813 10.2148 15.505 10.5807C15.1115 10.8831 14.6767 11.0704 14.1882 11.1402C14.0736 11.1566 14.0492 11.1881 14.0658 11.3019C14.1668 11.9928 14.2681 12.6837 14.3681 13.3747C14.3779 13.4419 14.3796 13.5102 14.3854 13.5781C14.391 13.6426 14.4183 13.6912 14.4733 13.7313C14.708 13.9024 14.7893 14.185 14.6875 14.458C14.632 14.6071 14.6559 14.6631 14.806 14.7105C15.1977 14.8344 15.5193 15.0629 15.7941 15.3636C15.8854 15.4635 15.8957 15.5723 15.8423 15.6925C15.8153 15.6907 15.8086 15.6663 15.7957 15.6503C15.507 15.2926 15.1667 15.0025 14.736 14.8262C14.5941 14.7682 14.4621 14.7724 14.3239 14.8382C13.6861 15.1425 13.0415 15.4308 12.3694 15.6533C11.6273 15.8991 10.8657 16.0433 10.0857 16.0798C9.90833 16.0881 9.73238 16.1155 9.55471 16.1127C9.51538 16.112 9.506 16.1408 9.49228 16.1696C9.44106 16.2764 9.39368 16.3853 9.32939 16.485C9.23053 16.6384 9.15199 16.6659 8.97907 16.609C8.73818 16.5298 8.51774 16.4168 8.34417 16.225C8.28477 16.1594 8.23844 16.1544 8.16373 16.2047C7.95966 16.3421 7.75665 16.3311 7.55152 16.2085C7.46744 16.1584 7.43629 16.1675 7.39128 16.2564C7.3427 16.3523 7.29849 16.4503 7.24938 16.5459C7.2119 16.6188 7.16108 16.6824 7.0993 16.7365C6.90896 16.9032 6.62134 16.8747 6.49845 16.661C6.36975 16.4371 6.23776 16.2097 6.18443 15.9539C6.15407 15.8082 6.06629 15.7344 5.94538 15.6832C5.82434 15.6319 5.70937 15.6587 5.59995 15.7251C5.57738 15.7387 5.54754 15.7818 5.52365 15.7434C5.4958 15.6986 5.54253 15.6811 5.57566 15.6639C5.63994 15.6306 5.70462 15.598 5.76811 15.5633C5.85378 15.5163 5.8749 15.3862 5.81101 15.3116C5.78686 15.2835 5.76468 15.3 5.74066 15.3109C5.67096 15.3426 5.60127 15.3744 5.53065 15.4043C5.49673 15.4185 5.46082 15.4271 5.4137 15.4222C5.4562 15.354 5.50742 15.3124 5.57856 15.2935C5.78026 15.2399 5.85668 15.145 5.86685 14.9333C5.87041 14.8577 5.88796 14.7964 5.95647 14.7477C6.04623 14.6838 6.05824 14.5816 6.04768 14.4799C6.01336 14.1478 5.97601 13.8159 5.9731 13.4816C5.97258 13.414 5.93258 13.3856 5.87582 13.3665C5.63585 13.2856 5.39667 13.2856 5.16013 13.3764C4.7318 13.541 4.36485 13.8027 4.02205 14.102C4.00384 14.1178 3.98615 14.1343 3.9678 14.15C3.85679 14.2456 3.75964 14.2515 3.62329 14.1651C3.73232 14.0707 3.83792 13.9764 3.94642 13.8858C4.28697 13.601 4.64851 13.35 5.0746 13.2082C5.26863 13.1437 5.46439 13.0849 5.67387 13.1173C5.733 13.1264 5.78897 13.1439 5.84414 13.166C5.92004 13.1962 5.9401 13.1841 5.93892 13.1009C5.93641 12.912 5.93073 12.7233 5.92611 12.5344C5.91898 12.2358 5.91054 11.9372 5.90486 11.6386C5.90011 11.3905 5.89588 11.1422 5.90394 10.8939C5.90697 10.8001 5.89232 10.7865 5.79834 10.7696C5.42056 10.7016 5.18033 10.4653 5.0247 10.1299C4.80678 9.66 4.75741 9.1662 4.81839 8.65603C4.90393 7.94061 5.18785 7.30069 5.5622 6.69614C5.75346 6.38727 6.14985 6.23996 6.50004 6.33579C6.51693 6.34041 6.53369 6.34582 6.55046 6.35097C6.67137 6.38793 6.70859 6.3709 6.76192 6.25421C6.83293 6.09859 6.90315 5.94244 6.97509 5.78721C7.37544 4.92395 7.92904 4.17539 8.65502 3.55844C9.05352 3.21973 9.50033 2.96115 9.99479 2.78797C10.294 2.68317 10.572 2.53203 10.8559 2.39409C11.4297 2.11531 12.0351 1.98411 12.6721 2.00153C12.8635 2.00681 13.0521 2.0377 13.2382 2.08311C13.2956 2.0971 13.3542 2.107 13.4119 2.12007C13.507 2.14171 13.5404 2.18501 13.5417 2.2811C13.5435 2.42234 13.4752 2.52345 13.3611 2.5975C13.2135 2.69333 13.0584 2.77517 12.897 2.84526C12.8752 2.85476 12.8538 2.86479 12.8238 2.87839C13.013 2.97105 13.1743 3.09275 13.3409 3.20627C13.5433 3.34421 13.686 3.52913 13.7757 3.75577C13.8593 3.9667 13.8016 4.05989 13.5772 4.08801C13.5031 4.09725 13.4288 4.08339 13.3509 4.0954C13.3711 4.1585 13.4065 4.20905 13.4374 4.26106C13.7611 4.80541 13.9727 5.38963 14.062 6.01715C14.0753 6.1106 14.0841 6.20472 14.0963 6.2983C14.1073 6.38106 14.1431 6.40984 14.2253 6.40245C15.0168 6.33064 15.5913 6.67674 15.9921 7.33659C16.2152 7.70394 16.3336 8.1097 16.3652 8.53948C16.3663 8.55413 16.3615 8.5709 16.3767 8.58185C16.3767 8.68296 16.3767 8.78407 16.3767 8.88518L16.3765 8.88531ZM10.9083 2.5612C10.9766 2.57757 11.0296 2.59077 11.083 2.60304C11.1176 2.61109 11.1471 2.62297 11.1417 2.66719C11.1367 2.70838 11.1059 2.70917 11.074 2.71326C10.913 2.73385 10.7505 2.7423 10.5904 2.77147C10.0196 2.87562 9.51221 3.12219 9.04481 3.45772C8.32437 3.97502 7.82304 4.67342 7.41029 5.44441C7.38204 5.49708 7.39748 5.5314 7.44698 5.55714C7.52116 5.59581 7.59191 5.64043 7.65607 5.69402C7.9487 5.93861 8.15013 6.23837 8.21521 6.62077C8.21943 6.64545 8.21653 6.68268 8.24042 6.6906C8.27236 6.70102 8.28516 6.66195 8.30351 6.64229C8.47009 6.46396 8.64129 6.29038 8.82622 6.13093C9.31395 5.70999 9.86029 5.41247 10.5114 5.34396C10.9365 5.29922 11.338 5.37577 11.6639 5.6659C12.1871 6.13159 12.3718 6.72901 12.2801 7.41473C12.2259 7.8193 12.0586 8.18441 11.857 8.53499C11.5823 9.01295 11.2303 9.42993 10.8427 9.8188C10.754 9.90789 10.7455 9.95132 10.7922 10.0658C10.9114 10.3575 10.9981 10.658 11.0407 10.9709C11.1319 11.6393 11.0063 12.2593 10.6315 12.8248C10.2447 13.4086 9.71192 13.8163 9.07899 14.0979C8.62585 14.2994 8.15237 14.3649 7.66359 14.2572C7.04056 14.1199 6.5758 13.7565 6.22522 13.2341C6.19195 13.1846 6.16621 13.1294 6.11276 13.0777C6.08939 13.638 6.15988 14.18 6.20027 14.7238C6.22773 14.6644 6.21967 14.6026 6.22073 14.5418C6.22165 14.4799 6.2239 14.4184 6.25756 14.3636C6.26482 14.3517 6.26838 14.3309 6.28805 14.3359C6.30455 14.3401 6.30798 14.359 6.31102 14.3734C6.31907 14.4122 6.30046 14.4463 6.28871 14.4815C6.26204 14.5612 6.27511 14.5747 6.35959 14.5609C6.48208 14.541 6.54439 14.4597 6.57791 14.3496C6.59587 14.2907 6.60867 14.2303 6.62728 14.1567C6.67652 14.2592 6.65817 14.3447 6.61936 14.4281C6.60444 14.4602 6.59243 14.4873 6.63863 14.4982C6.74713 14.5242 6.83082 14.5914 6.91503 14.6589C6.98169 14.7121 7.04624 14.7687 7.12821 14.8041C7.18497 14.6367 7.1591 14.451 7.24806 14.2836C7.29783 14.3735 7.3006 14.4089 7.26258 14.4929C7.18853 14.6565 7.18972 14.8124 7.30786 14.9561C7.3827 15.0472 7.47589 15.1166 7.57792 15.1743C7.61581 15.1957 7.65686 15.1997 7.69923 15.1898C7.74292 15.1796 7.76721 15.1558 7.76655 15.107C7.76444 14.9687 7.7647 14.8302 7.76404 14.6917C7.76391 14.6607 7.76404 14.6297 7.76404 14.5987C7.80971 14.6451 7.83043 14.6974 7.84495 14.7526C7.87518 14.8676 7.86568 14.9836 7.85433 15.0997C7.85235 15.1201 7.83941 15.1482 7.87729 15.1467C7.96296 15.1433 8.0411 15.1751 8.12109 15.1974C8.16056 15.2084 8.17204 15.1944 8.17455 15.1575C8.18207 15.0455 8.17851 14.9338 8.16861 14.8221C8.15963 14.7204 8.15171 14.6183 8.16755 14.5158C8.2589 14.7581 8.28332 15.0124 8.2952 15.2873C8.36489 15.1553 8.42732 15.0443 8.48276 14.9299C8.53728 14.8173 8.55127 14.6987 8.50599 14.5785C8.49161 14.5405 8.48884 14.5063 8.5184 14.475C8.53028 14.4625 8.54784 14.4595 8.56117 14.4665C8.5976 14.4858 8.58836 14.5236 8.58968 14.5547C8.59179 14.6017 8.59404 14.6474 8.62875 14.6837C8.64116 14.6966 8.6537 14.7106 8.66862 14.6839C8.70082 14.6265 8.75402 14.5901 8.80589 14.5533C8.89578 14.4895 8.9664 14.4153 8.95439 14.2887C9.00785 14.3635 9.07477 14.3866 9.15806 14.3613C9.30313 14.3174 9.41479 14.3683 9.50666 14.4815C9.6347 14.6391 9.7106 14.8129 9.69106 15.0213C9.68314 15.1067 9.69608 15.116 9.78188 15.1128C9.8455 15.1104 9.90926 15.1107 9.97288 15.1082C10.0728 15.1044 10.1685 15.09 10.2498 15.0216C10.2965 14.9823 10.3566 14.9768 10.4126 14.9982C10.5547 15.0525 10.7041 15.0789 10.8504 15.1176C10.9607 15.1467 11.0732 15.1677 11.1873 15.1752C11.2517 15.1795 11.2946 15.1432 11.3109 15.0802C11.3265 15.0204 11.2857 14.9995 11.2436 14.9758C11.2036 14.9532 11.1656 14.9268 11.1288 14.8994C11.1054 14.8821 11.097 14.858 11.1156 14.8303C11.1335 14.8038 11.1579 14.8005 11.1849 14.8113C11.201 14.8178 11.2151 14.8291 11.2307 14.8372C11.4383 14.9462 11.6544 15.0287 11.8907 15.0477C11.9076 15.049 11.9275 15.0568 11.9374 15.0364C11.9452 15.0201 11.932 15.0075 11.9231 14.9952C11.9087 14.9751 11.8901 14.9511 11.9117 14.9309C11.9303 14.9136 11.9518 14.9374 11.9701 14.9468C11.9915 14.9577 12.0103 14.9735 12.0307 14.9862C12.0687 15.0098 12.1041 15.0406 12.158 15.0384C12.1168 14.9374 12.0174 14.871 12.0067 14.7542C12.0571 14.7645 12.0772 14.8047 12.1081 14.8309C12.1228 14.8433 12.1396 14.8649 12.1581 14.8551C12.1808 14.8433 12.1619 14.8195 12.1581 14.8022C12.1383 14.7119 12.0822 14.6401 12.0335 14.5648C11.9873 14.4933 11.942 14.4215 11.934 14.3276C11.9928 14.3368 12.0365 14.3636 12.076 14.3986C12.1159 14.4338 12.1453 14.4775 12.1741 14.522C12.2217 14.5958 12.2579 14.6106 12.3404 14.5914C12.71 14.5051 13.0782 14.4136 13.4419 14.3045C13.5056 14.2854 13.5164 14.2496 13.4742 14.1971C13.4576 14.1767 13.4484 14.1529 13.4625 14.1306C13.4767 14.1083 13.4976 14.1277 13.5154 14.1317C13.5261 14.134 13.5365 14.1373 13.5471 14.1405C13.7176 14.1917 13.8896 14.2381 14.068 14.2494C14.2039 14.2581 14.1819 14.2638 14.1465 14.1513C14.1196 14.0657 14.0846 13.9825 14.0579 13.8967C14.0476 13.8636 14.0194 13.8176 14.0526 13.7932C14.0954 13.7617 14.1212 13.8104 14.1475 13.838C14.1931 13.8856 14.2393 13.8635 14.2854 13.8394C14.333 13.8145 14.3301 13.7758 14.3166 13.7318C14.2993 13.6752 14.2798 13.6186 14.2704 13.5605C14.1845 13.0229 14.1008 12.4849 14.0162 11.9471C13.9818 11.7281 13.948 11.5089 13.9113 11.2903C13.8949 11.1931 13.8479 11.1423 13.7616 11.1444C13.6326 11.1475 13.5153 11.1079 13.3965 11.0684C13.359 11.056 13.3194 11.0485 13.2886 11.0218C13.2665 11.0027 13.2427 10.9747 13.2543 10.9488C13.2684 10.9175 13.3012 10.9433 13.3226 10.9495C13.7159 11.0622 14.1086 11.0448 14.4998 10.9421C14.8894 10.8399 15.2052 10.6155 15.4892 10.3385C15.6903 10.1422 15.879 9.93469 15.9818 9.66951C16.217 9.06324 16.2218 8.45263 15.9876 7.84359C15.9164 7.65879 15.8231 7.48456 15.7159 7.31811C15.5205 7.01465 15.2541 6.80966 14.9051 6.70419C14.4727 6.57352 14.0426 6.52058 13.6076 6.6836C13.5501 6.70512 13.4946 6.73152 13.4391 6.75791C13.413 6.77032 13.388 6.77771 13.3674 6.75356C13.3422 6.72399 13.3758 6.71145 13.3896 6.69561C13.4369 6.64189 13.4959 6.60321 13.5617 6.57708C13.635 6.54804 13.7102 6.52388 13.7843 6.49669C13.8694 6.46541 13.9034 6.41974 13.8953 6.33262C13.8678 6.03523 13.8421 5.73731 13.77 5.44652C13.6423 4.93055 13.3962 4.46895 13.1069 4.02835C13.0117 3.88341 12.9019 3.74931 12.7765 3.60609C12.9267 3.64239 13.0323 3.7134 13.1057 3.82982C13.1753 3.94017 13.2758 3.99218 13.4037 3.99139C13.4672 3.99099 13.531 3.98637 13.5941 3.97845C13.6619 3.97 13.6746 3.93503 13.6333 3.87919C13.5904 3.82138 13.529 3.78587 13.4715 3.74561C13.4243 3.71274 13.3747 3.68212 13.3404 3.6148C13.4268 3.65255 13.5004 3.68463 13.5739 3.7167C13.3698 3.41047 13.1053 3.1771 12.7869 3.0059C12.7145 2.96696 12.6318 2.9564 12.5496 2.96986C12.4284 2.98966 12.3084 3.01685 12.1869 3.03441C12.0568 3.05315 11.9292 3.09288 11.7956 3.0843C11.7405 3.08074 11.6862 3.0752 11.6335 3.03481C12.0081 2.95548 12.3707 2.8702 12.729 2.72738C12.6399 2.67868 12.5433 2.73332 12.467 2.66587C12.6168 2.61228 12.7646 2.59064 12.9163 2.62311C13.0318 2.64792 13.107 2.57572 13.2064 2.52398C13.1728 2.51315 13.1557 2.51434 13.1387 2.52041C13.1108 2.53031 13.0804 2.52873 13.0715 2.49943C13.0607 2.46405 13.0992 2.45837 13.1207 2.45151C13.1644 2.43765 13.2104 2.43131 13.2552 2.42115C13.3082 2.40914 13.3627 2.39964 13.3986 2.35053C13.3713 2.32915 13.3436 2.33218 13.3154 2.33971C13.2815 2.34882 13.2483 2.36175 13.2137 2.36624C13.1833 2.37033 13.1382 2.38551 13.1272 2.34644C13.1184 2.31489 13.1625 2.30961 13.187 2.29787C13.191 2.29602 13.1951 2.29443 13.1993 2.29311C13.2153 2.28797 13.2266 2.27846 13.2266 2.26051C13.2266 2.23873 13.2085 2.23939 13.1941 2.23569C13.1792 2.232 13.1643 2.22804 13.1494 2.22461C12.6279 2.10436 12.1122 2.13366 11.6012 2.28533C11.3676 2.35462 11.1421 2.44451 10.9085 2.56094L10.9083 2.5612ZM8.21309 6.93136C8.14907 6.77521 8.08941 6.63186 8.03133 6.48785C7.9099 6.1869 7.73685 5.92435 7.47272 5.72847C7.32304 5.61746 7.29743 5.62393 7.21731 5.79183C7.05205 6.13845 6.90065 6.49102 6.75571 6.84675C6.28858 7.99367 6.07342 9.19049 6.04108 10.4239C6.02775 10.9314 6.03752 11.4391 6.0457 11.9466C6.04861 12.1287 6.05336 12.3117 6.09876 12.4896C6.29597 13.2643 6.80389 13.7588 7.52961 14.0406C7.96877 14.2111 8.4136 14.1626 8.85104 14.0085C9.37031 13.8256 9.80273 13.5134 10.1758 13.1148C10.6096 12.6511 10.8313 12.0988 10.8518 11.4647C10.8657 11.0407 10.7787 10.6351 10.6259 10.2428C10.5519 10.0531 10.5774 9.88796 10.7146 9.73709C10.8386 9.6006 10.9617 9.46293 11.0809 9.32209C11.4258 8.91435 11.7295 8.48008 11.9264 7.97928C12.1363 7.44562 12.1685 6.90958 11.9453 6.36984C11.7115 5.80437 11.2097 5.46923 10.5997 5.48401C10.3182 5.49088 10.0486 5.56242 9.79033 5.67395C9.34668 5.86548 8.96759 6.15086 8.62215 6.48429C8.47986 6.62156 8.34945 6.77006 8.21309 6.93162V6.93136ZM9.96483 15.9555C9.96483 15.9555 9.96483 15.9559 9.96483 15.956C10.1201 15.9423 10.2753 15.9291 10.4305 15.9147C10.8507 15.8756 11.2666 15.8125 11.6762 15.7085C12.6518 15.4609 13.5569 15.0351 14.4617 14.6084C14.52 14.5809 14.5622 14.5373 14.5728 14.4708C14.6061 14.2642 14.5721 14.0688 14.4733 13.8847C14.455 13.8505 14.4294 13.8415 14.391 13.8539C14.2869 13.8877 14.234 13.9833 14.2674 14.0871C14.2835 14.1371 14.3065 14.1849 14.3223 14.235C14.3466 14.3121 14.3296 14.3423 14.2493 14.3536C14.158 14.3664 14.0648 14.3765 13.9742 14.3524C13.8375 14.3161 13.7058 14.3171 13.578 14.3846C13.5549 14.3967 13.5289 14.4032 13.5041 14.412C13.1415 14.5415 12.7662 14.6222 12.3901 14.6997C12.2948 14.7193 12.2876 14.736 12.3297 14.8239C12.4015 14.9741 12.3416 15.1131 12.1825 15.1615C12.0975 15.1874 12.0104 15.1931 11.9218 15.1836C11.7834 15.1686 11.652 15.1251 11.5192 15.0868C11.4589 15.0694 11.4123 15.082 11.3954 15.1462C11.3619 15.2734 11.2519 15.3025 11.1544 15.2911C10.9778 15.2705 10.8016 15.2423 10.6338 15.1806C10.4986 15.131 10.3656 15.1246 10.2274 15.1639C10.0791 15.206 9.93024 15.2164 9.78069 15.1631C9.71786 15.1408 9.69265 15.1631 9.69106 15.2327C9.68948 15.2963 9.69106 15.3598 9.68328 15.4234C9.66203 15.5982 9.61424 15.7674 9.57715 15.9388C9.56923 15.9755 9.57266 15.9903 9.61688 15.9854C9.73251 15.9728 9.84867 15.965 9.96469 15.9552L9.96483 15.9555ZM5.95898 8.17702C5.98916 8.17746 6.01649 8.18837 6.04095 8.20975C6.09032 8.25291 6.10008 8.25067 6.11223 8.18731C6.16767 7.89573 6.24937 7.61141 6.34058 7.32933C6.34705 7.3094 6.36302 7.28775 6.3485 7.25884C6.23261 7.33659 6.13559 7.42714 6.05098 7.53195C5.96624 7.63675 5.89932 7.75198 5.84058 7.87289C5.78342 7.9905 5.74066 8.11432 5.68588 8.23351C5.68324 8.2013 5.68337 8.17028 5.68997 8.14072C5.77484 7.75542 5.94565 7.42331 6.27815 7.19073C6.33649 7.14995 6.39312 7.10533 6.44803 7.0429C6.27907 7.03168 6.16463 7.15509 6.00927 7.18875C6.05719 7.11946 6.11328 7.08197 6.17545 7.05346C6.26323 7.01346 6.35193 6.97545 6.4405 6.93717C6.46902 6.92476 6.49594 6.91156 6.51324 6.88358C6.53171 6.85348 6.53013 6.82339 6.50862 6.79778C6.48657 6.77138 6.46228 6.78827 6.43773 6.79976C6.32342 6.85308 6.20832 6.90496 6.0886 6.95961C6.09586 6.92727 6.11553 6.91248 6.1315 6.89572C6.22614 6.79633 6.34626 6.74656 6.47812 6.7203C6.54544 6.70683 6.59639 6.67647 6.61236 6.60295C6.62042 6.56612 6.60827 6.53946 6.57593 6.5285C6.46783 6.49168 6.35919 6.45762 6.24145 6.47729C5.99726 6.51808 5.81022 6.64295 5.68073 6.85335C5.57949 7.01795 5.48775 7.18783 5.40288 7.36141C5.08014 8.02218 4.91119 8.71174 5.00966 9.45184C5.05229 9.77246 5.15129 10.071 5.3477 10.3327C5.45805 10.4797 5.60259 10.5783 5.77524 10.6376C5.81999 10.6529 5.86671 10.6665 5.89417 10.6088C5.92268 10.5486 5.88229 10.5194 5.83939 10.4932C5.77379 10.4533 5.70739 10.4145 5.64126 10.3756C5.61988 10.363 5.59942 10.3485 5.59586 10.3226C5.59427 10.311 5.59902 10.2958 5.60602 10.2862C5.61631 10.2721 5.62925 10.2822 5.64021 10.2894C5.69314 10.3243 5.74633 10.3589 5.79873 10.3946C5.82487 10.4123 5.84771 10.4474 5.88348 10.4158C5.91964 10.3837 5.9137 10.3461 5.88796 10.3094C5.85602 10.2639 5.81233 10.2304 5.77141 10.1938C5.73353 10.16 5.69868 10.123 5.7136 10.064C5.76455 10.0656 5.7862 10.1034 5.81141 10.1361C5.82909 10.1591 5.84929 10.1876 5.87965 10.1777C5.90605 10.169 5.90235 10.134 5.90592 10.1093C5.92466 9.97759 5.89232 9.91119 5.77352 9.85285C5.68245 9.8081 5.61882 9.7396 5.57315 9.65129C5.51481 9.53843 5.4859 9.41752 5.47217 9.29226C5.45053 9.09413 5.50676 8.90458 5.53725 8.71226C5.54385 8.67082 5.56787 8.63676 5.61196 8.62039C5.63189 8.65986 5.62384 8.69722 5.61315 8.73246C5.55098 8.93996 5.53989 9.15142 5.56484 9.36499C5.58754 9.55929 5.67888 9.71333 5.84757 9.81708C5.91054 9.85575 5.9339 9.84203 5.93548 9.76864C5.93707 9.69617 5.93654 9.62357 5.94156 9.55137C5.95304 9.38466 5.98749 9.22098 6.00663 9.05532C6.02749 8.87528 6.07329 8.68732 5.87767 8.56218C5.91859 8.52866 5.94934 8.54384 5.97865 8.56601C6.02471 8.60086 6.04451 8.58159 6.04979 8.53235C6.05573 8.47757 6.05573 8.42345 6.04319 8.36881C6.02735 8.29977 5.98921 8.24117 5.95898 8.17702ZM8.96878 15.8823C8.94792 15.8901 8.93789 15.8949 8.92746 15.8975C8.78913 15.9321 8.6537 15.9237 8.52104 15.8705C8.48356 15.8554 8.44171 15.8398 8.42257 15.8944C8.40766 15.9369 8.38297 15.9725 8.35618 16.0071C8.32608 16.0458 8.32648 16.0745 8.37202 16.1036C8.44039 16.1471 8.50573 16.1957 8.57133 16.2435C8.69673 16.3348 8.83005 16.4065 8.98541 16.4344C9.16374 16.4663 9.26049 16.4246 9.322 16.2546C9.42945 15.958 9.53636 15.6599 9.5662 15.3423C9.5889 15.0997 9.55841 14.8641 9.45162 14.6433C9.37282 14.4803 9.23726 14.4423 9.07992 14.5319C8.9895 14.5834 8.91307 14.6524 8.84298 14.729C8.69198 14.894 8.5914 15.0927 8.47009 15.2778C8.39736 15.3888 8.38469 15.4915 8.44554 15.6099C8.48646 15.6895 8.48158 15.6953 8.57081 15.6688C8.67799 15.6368 8.78715 15.6364 8.89697 15.638C8.93631 15.6385 8.96006 15.6557 8.95822 15.6975C8.95624 15.7414 8.92548 15.7412 8.89235 15.7407C8.82886 15.7397 8.76524 15.7403 8.70175 15.7416C8.65502 15.7427 8.61159 15.7536 8.57345 15.7954C8.70623 15.8231 8.84232 15.8116 8.96878 15.8823ZM6.27881 15.3416C6.28118 15.7824 6.40196 16.1694 6.6121 16.5312C6.6678 16.6272 6.73829 16.7057 6.85775 16.7023C6.97456 16.6989 7.03014 16.612 7.07633 16.5176C7.13415 16.3996 7.1814 16.2742 7.27156 16.176C7.35511 16.085 7.36475 15.9887 7.32026 15.8785C7.28859 15.8002 7.2804 15.7964 7.19249 15.8055C7.12966 15.8121 7.06564 15.8087 7.00215 15.8083C6.98116 15.8082 6.96031 15.7962 6.95516 15.7774C6.94843 15.753 6.97509 15.7461 6.99133 15.7379C7.03502 15.7158 7.0832 15.7085 7.13125 15.7043C7.17467 15.7003 7.17137 15.6867 7.1488 15.6566C7.09495 15.5848 7.04268 15.5116 6.99304 15.4369C6.95912 15.3856 6.98024 15.3344 7.03489 15.3269C7.07462 15.3215 7.09521 15.3495 7.11105 15.3786C7.14365 15.439 7.18299 15.494 7.22972 15.5439C7.28159 15.5993 7.29928 15.5987 7.33822 15.5357C7.37399 15.478 7.4058 15.418 7.44857 15.3644C7.49543 15.3059 7.48962 15.2661 7.4285 15.2195C7.19262 15.0401 6.95727 14.8599 6.71889 14.6839C6.56577 14.571 6.39615 14.6356 6.34837 14.8211C6.3027 14.9982 6.28316 15.1791 6.27881 15.3417V15.3416ZM7.48685 15.7356C7.48579 15.9618 7.60828 16.1227 7.79955 16.1524C8.00361 16.1842 8.18564 16.0707 8.25507 15.8684C8.32463 15.6655 8.24556 15.4493 8.06592 15.3508C7.81143 15.2114 7.56934 15.3178 7.50308 15.5983C7.49199 15.6454 7.48473 15.6932 7.48698 15.7354L7.48685 15.7356ZM6.17875 14.9243C6.17691 14.8661 6.13691 14.8512 6.0919 14.8401C6.04465 14.8283 6.02221 14.8532 6.00901 14.893C5.9368 15.1124 5.94274 15.3328 6.00029 15.5538C6.0061 15.5758 6.01864 15.5943 6.03805 15.6057C6.05666 15.6166 6.0783 15.6317 6.09929 15.6203C6.11949 15.6094 6.11078 15.5848 6.10959 15.5661C6.1014 15.4343 6.1121 15.3035 6.12701 15.1727C6.13665 15.0875 6.15816 15.005 6.17875 14.9242V14.9243Z" fill="#E6E6E6"/>
<path d="M5.73646 17.4068C5.67707 17.4763 5.6182 17.5464 5.55814 17.6154C5.49729 17.6853 5.41056 17.6744 5.36476 17.5935C5.34483 17.5583 5.36423 17.5344 5.38614 17.5124C5.48514 17.4126 5.58163 17.31 5.68551 17.2155C5.77672 17.1323 5.82847 17.0386 5.83137 16.9122C5.83467 16.76 5.8843 16.6146 5.91902 16.4675C5.93063 16.4185 5.93961 16.3689 5.95268 16.306C5.98343 16.3868 5.99043 16.4605 5.99888 16.5337C6.02382 16.7473 5.99901 16.959 5.97063 17.1701C5.94106 17.3899 5.90555 17.6088 5.90107 17.831C5.90014 17.8753 5.88602 17.8776 5.85051 17.861C5.76194 17.8195 5.72195 17.7518 5.73026 17.6482C5.73343 17.6088 5.73976 17.5698 5.74333 17.5304C5.74689 17.4915 5.749 17.4523 5.75178 17.4132C5.74663 17.4111 5.74161 17.4089 5.73646 17.4068Z" fill="#E6E6E6"/>
<path d="M6.04403 17.2996C6.04878 17.1161 6.07743 16.9032 6.11174 16.6911C6.11623 16.6638 6.12059 16.6366 6.15808 16.6416C6.19055 16.6459 6.2118 16.6647 6.20916 16.6986C6.20441 16.7597 6.19741 16.8207 6.18923 16.8816C6.14936 17.1776 6.11148 17.4737 6.18289 17.7704C6.18909 17.796 6.19464 17.8216 6.2015 17.847C6.21167 17.8842 6.22394 17.9233 6.17167 17.9378C6.12059 17.9521 6.11491 17.9097 6.10501 17.877C6.05155 17.6989 6.02859 17.517 6.04403 17.2996Z" fill="#E6E6E6"/>
<path d="M5.31191 15.5704C5.33897 15.5688 5.35085 15.5869 5.3593 15.6083C5.36946 15.6339 5.35349 15.6497 5.33594 15.664C5.205 15.77 5.07485 15.877 4.94245 15.9812C4.81323 16.0828 4.68347 16.1837 4.56824 16.3015C4.55319 16.317 4.53907 16.3456 4.50977 16.3209C4.48522 16.3002 4.48693 16.2749 4.50066 16.2498C4.52415 16.207 4.55702 16.1718 4.59451 16.1409C4.81072 15.9622 5.02693 15.7836 5.24327 15.605C5.26347 15.5882 5.28314 15.5701 5.31204 15.5705L5.31191 15.5704Z" fill="#E6E6E6"/>
<path d="M5.01882 14.9877C4.8991 15.0731 4.78651 15.1526 4.67484 15.2332C4.47038 15.3808 4.26618 15.5289 4.08389 15.7042C4.06911 15.7183 4.05525 15.734 4.03386 15.7163C4.01353 15.6994 4.00165 15.6782 4.01776 15.6532C4.02819 15.637 4.04297 15.6233 4.05723 15.6098C4.30657 15.3736 4.59234 15.1844 4.86822 14.9824C4.91323 14.9495 4.9618 14.9502 5.01882 14.9877Z" fill="#E6E6E6"/>
<path d="M12.6387 16.6218C12.5687 16.6464 12.5221 16.6189 12.4836 16.5665C12.3443 16.3771 12.2541 16.1631 12.1734 15.9447C12.166 15.9247 12.1645 15.9014 12.1652 15.8799C12.1661 15.8482 12.1814 15.826 12.2163 15.8219C12.2508 15.818 12.2611 15.8412 12.2708 15.8673C12.3636 16.1206 12.457 16.3735 12.6222 16.5917C12.6285 16.6 12.6323 16.6101 12.6388 16.6219L12.6387 16.6218Z" fill="#E6E6E6"/>
<path d="M4.81837 14.6378C4.4901 14.8853 4.13912 15.0924 3.854 15.3936C3.88384 15.1729 4.56454 14.6416 4.81837 14.6378Z" fill="#E6E6E6"/>
<path d="M6.45392 17.4438C6.45392 17.3143 6.45366 17.1848 6.45419 17.0554C6.45419 17.0314 6.45643 17.0073 6.45947 16.9834C6.46356 16.9505 6.48547 16.9402 6.51583 16.9428C6.54711 16.9455 6.55649 16.9667 6.55451 16.9934C6.54989 17.0546 6.54368 17.1156 6.53774 17.1767C6.51662 17.3937 6.52692 17.6103 6.54249 17.8272C6.54527 17.8648 6.56889 17.9227 6.50804 17.9296C6.44165 17.9372 6.45947 17.8757 6.45881 17.8386C6.4567 17.707 6.45802 17.5755 6.45802 17.4439C6.4567 17.4439 6.45538 17.4439 6.45406 17.4439L6.45392 17.4438Z" fill="#E6E6E6"/>
<path d="M13.9401 17.2204C13.8939 17.222 13.8677 17.1919 13.8441 17.1596C13.7805 17.0722 13.7322 16.9762 13.6894 16.8775C13.6554 16.7991 13.6238 16.7196 13.5921 16.6403C13.5849 16.6222 13.5788 16.6028 13.577 16.5835C13.5734 16.5482 13.5809 16.517 13.623 16.509C13.6655 16.5009 13.6757 16.5325 13.6843 16.5623C13.7231 16.6979 13.7801 16.8259 13.8456 16.95C13.8844 17.0236 13.9262 17.0958 13.9711 17.1659C14 17.2112 13.976 17.2171 13.9403 17.2203L13.9401 17.2204Z" fill="#E6E6E6"/>
<path d="M13.4209 15.6215C13.4612 15.5666 13.5126 15.5561 13.5641 15.5794C13.7975 15.685 13.9684 15.8597 14.0991 16.0765C14.1127 16.0991 14.1152 16.1226 14.0888 16.1395C14.0554 16.1609 14.0375 16.1395 14.0194 16.1147C13.9363 16.0013 13.8412 15.8986 13.7387 15.8029C13.6482 15.7184 13.5431 15.6574 13.421 15.6215H13.4209Z" fill="#E6E6E6"/>
<path d="M14.7918 15.9935C14.8115 16.006 14.8286 16.0158 14.8445 16.0271C14.9493 16.1016 15.0326 16.1971 15.1102 16.2984C15.1675 16.3731 15.2255 16.4473 15.2816 16.5229C15.303 16.5517 15.3509 16.5822 15.2996 16.6205C15.2533 16.655 15.2237 16.6164 15.197 16.5831C15.0861 16.4445 14.9753 16.3059 14.8645 16.1673C14.8331 16.128 14.8014 16.0886 14.7707 16.0488C14.7634 16.0394 14.7486 16.0294 14.7613 16.0154C14.7695 16.0063 14.7815 16.0006 14.7915 15.9936L14.7918 15.9935Z" fill="#E6E6E6"/>
<path d="M14.5327 15.1058C14.5889 15.0753 14.6337 15.0827 14.679 15.0951C14.8999 15.1557 15.1769 15.4497 15.229 15.6878C15.1559 15.6432 15.1004 15.59 15.0487 15.5331C14.9808 15.4584 14.9158 15.381 14.8479 15.3062C14.764 15.2136 14.6643 15.1441 14.5327 15.1058Z" fill="#E6E6E6"/>
<path d="M6.86936 17.3602C6.86936 17.2636 6.86923 17.167 6.86949 17.0703C6.86949 17.0487 6.86619 17.0263 6.88071 17.0068C6.89153 16.9923 6.90381 16.9768 6.92295 16.9819C6.94235 16.987 6.93483 17.0076 6.93536 17.0212C6.93826 17.0958 6.94433 17.1705 6.9409 17.2448C6.93206 17.4422 6.97007 17.6334 7.00901 17.825C7.01482 17.8537 7.03119 17.8889 6.98855 17.903C6.94922 17.916 6.94288 17.8803 6.92981 17.8561C6.88599 17.7753 6.86355 17.6905 6.8683 17.5973C6.87239 17.5185 6.86909 17.4391 6.86909 17.3601L6.86936 17.3602Z" fill="#E6E6E6"/>
<path d="M15.1176 15.8649C15.209 15.8643 15.281 15.9057 15.3394 15.9716C15.4515 16.0982 15.5454 16.2388 15.6464 16.3739C15.6637 16.397 15.6726 16.4205 15.6446 16.4426C15.6196 16.4621 15.5931 16.4671 15.5666 16.4466C15.5564 16.4389 15.5482 16.4278 15.5411 16.4168C15.4204 16.2331 15.2833 16.0625 15.1327 15.9026C15.1238 15.8932 15.113 15.8843 15.1175 15.8648L15.1176 15.8649Z" fill="#E6E6E6"/>
<path d="M12.2941 17.8836C12.2501 17.7487 12.2404 17.6233 12.2147 17.5014C12.1909 17.3887 12.1558 17.2813 12.0872 17.187C12.0662 17.1581 12.0526 17.1259 12.0852 17.0992C12.1207 17.0703 12.1425 17.1075 12.1614 17.1271C12.271 17.2399 12.3054 17.3853 12.3273 17.534C12.344 17.6474 12.3454 17.7608 12.294 17.8837L12.2941 17.8836Z" fill="#E6E6E6"/>
<path d="M5.76078 13.8277C5.38789 13.8639 5.11439 14.1044 4.79126 14.2521C4.95269 13.9953 5.58892 13.704 5.76078 13.8277Z" fill="#E6E6E6"/>
<path d="M5.88777 14.1656C5.69506 14.1978 5.51369 14.2452 5.34038 14.3194C5.25181 14.3572 5.16522 14.3997 5.07837 14.4415C5.05395 14.4532 5.0323 14.4601 5.01673 14.4314C5.0026 14.4054 5.01145 14.3834 5.03679 14.3711C5.26884 14.258 5.49574 14.1303 5.76238 14.1146C5.80778 14.112 5.85002 14.1158 5.88777 14.1655V14.1656Z" fill="#E6E6E6"/>
<path d="M13.2001 16.3389C13.2001 16.3594 13.195 16.372 13.1725 16.3778C13.1486 16.384 13.1372 16.3788 13.1279 16.3553C13.0514 16.1616 12.9727 15.9688 12.8969 15.7747C12.8819 15.7363 12.8799 15.6933 12.9326 15.6784C12.9838 15.6639 12.9924 15.701 13.0053 15.7394C13.056 15.8888 13.1116 16.0365 13.1624 16.1858C13.1793 16.2353 13.1877 16.2878 13.2 16.3389H13.2001Z" fill="#E6E6E6"/>
<path d="M14.0483 16.3681C14.1411 16.3673 14.2147 16.4043 14.2663 16.4783C14.3639 16.6186 14.4583 16.7613 14.554 16.903C14.5688 16.9249 14.5751 16.9475 14.5516 16.9674C14.5293 16.9863 14.5041 16.9897 14.479 16.9728C14.4703 16.9669 14.4619 16.9584 14.457 16.9492C14.346 16.7435 14.2081 16.5571 14.052 16.3837C14.0495 16.3809 14.0501 16.3755 14.0485 16.3681H14.0483Z" fill="#E6E6E6"/>
<path d="M9.80685 17.965C9.80922 17.9823 9.805 17.9947 9.78546 17.9989C9.75458 18.0056 9.75444 17.9794 9.74903 17.9633C9.68937 17.7849 9.63089 17.6064 9.57176 17.4279C9.54285 17.3408 9.51368 17.2537 9.48398 17.1668C9.47672 17.1454 9.47659 17.1292 9.50127 17.1194C9.52569 17.1099 9.53665 17.1205 9.54642 17.1417C9.66759 17.4031 9.7621 17.6726 9.80566 17.9585C9.80592 17.9606 9.80645 17.9629 9.80685 17.965Z" fill="#E6E6E6"/>
<path d="M3.86133 14.8341C3.92548 14.69 4.03081 14.5826 4.14539 14.4837C4.26498 14.3805 4.39671 14.293 4.5229 14.1985C4.54547 14.1816 4.56052 14.1747 4.58137 14.2015C4.59998 14.2253 4.58665 14.2362 4.57068 14.2494C4.33427 14.4444 4.09773 14.6392 3.86133 14.8342V14.8341Z" fill="#E6E6E6"/>
<path d="M13.2712 16.7125C13.3621 16.935 13.4664 17.1462 13.5932 17.3457C13.6083 17.3694 13.6062 17.3911 13.5804 17.4073C13.558 17.4214 13.5313 17.4292 13.5159 17.4047C13.3912 17.2061 13.2332 17.0207 13.252 16.763C13.2531 16.7482 13.2507 16.732 13.2713 16.7123L13.2712 16.7125Z" fill="#E6E6E6"/>
<path d="M12.9614 17.0506C12.9629 17.0277 12.9635 17.006 12.9746 16.9858C12.9845 16.9679 13.0012 16.9631 13.0192 16.9654C13.0415 16.9681 13.0545 16.9842 13.0579 17.0048C13.0879 17.1829 13.1738 17.3381 13.2555 17.4953C13.2757 17.5343 13.2479 17.5686 13.2034 17.5641C13.1844 17.5621 13.1695 17.5526 13.1597 17.5378C13.0611 17.3885 12.9909 17.2276 12.9616 17.0505L12.9614 17.0506Z" fill="#E6E6E6"/>
<path d="M7.42137 17.7987C7.3361 17.6455 7.31987 17.4799 7.32581 17.3104C7.33346 17.0958 7.37636 16.8839 7.37557 16.6492C7.40646 16.7587 7.40896 16.8518 7.40976 16.945C7.41055 17.0393 7.41015 17.1335 7.40976 17.2278C7.40936 17.3243 7.40632 17.4208 7.40817 17.5171C7.41002 17.6111 7.41675 17.7049 7.42124 17.7988L7.42137 17.7987Z" fill="#E6E6E6"/>
<path d="M15.4373 15.77C15.4951 15.7344 15.5421 15.7427 15.5883 15.7692C15.7436 15.8586 15.8397 16.0036 15.9396 16.1448C15.961 16.175 15.9505 16.2041 15.9214 16.2245C15.8965 16.2419 15.8702 16.2415 15.853 16.2137C15.746 16.0399 15.6023 15.9002 15.4373 15.77Z" fill="#E6E6E6"/>
<path d="M4.35352 15.977C4.36302 15.7935 4.90843 15.3375 5.09362 15.3512C4.83728 15.552 4.58794 15.7493 4.35352 15.977Z" fill="#E6E6E6"/>
<path d="M5.4169 16.4781C5.22102 16.6838 5.01246 16.9027 4.79321 17.1329C4.80377 16.9432 5.21178 16.5365 5.4169 16.4781Z" fill="#E6E6E6"/>
<path d="M12.883 16.4758C12.7644 16.3827 12.6999 16.2733 12.6543 16.1504C12.6224 16.064 12.6019 15.9745 12.5847 15.8843C12.5791 15.8555 12.5847 15.8306 12.6163 15.8218C12.6503 15.8123 12.6744 15.8295 12.6811 15.8608C12.7256 16.0667 12.818 16.2568 12.8831 16.4759L12.883 16.4758Z" fill="#E6E6E6"/>
<path d="M14.9023 15.7019C14.6248 15.5748 14.4062 15.3602 14.1531 15.1968C14.4659 15.2703 14.6995 15.4629 14.9023 15.7019Z" fill="#E6E6E6"/>
<path d="M5.08299 17.3837C5.06424 17.3832 5.0484 17.3764 5.03996 17.359C5.03164 17.3418 5.03217 17.3239 5.04853 17.3116C5.21261 17.1879 5.34262 17.0229 5.52399 16.9205C5.54603 16.9081 5.57032 16.8802 5.59659 16.918C5.62523 16.959 5.5822 16.9667 5.56517 16.9817C5.42367 17.1058 5.28072 17.2279 5.1379 17.3505C5.12153 17.3645 5.10741 17.3828 5.08299 17.3837Z" fill="#E6E6E6"/>
<path d="M10.7709 17.919C10.7553 17.8223 10.7394 17.7257 10.7241 17.629C10.7053 17.5099 10.6867 17.3907 10.6687 17.2714C10.6658 17.252 10.666 17.232 10.6653 17.2122C10.6645 17.1885 10.6781 17.1746 10.6996 17.1712C10.721 17.1678 10.7311 17.1832 10.7362 17.2014C10.8021 17.437 10.8496 17.6738 10.7709 17.919Z" fill="#E6E6E6"/>
<path d="M5.57956 13.5751C5.26593 13.65 5.0088 13.8082 4.7522 13.9718C4.78005 13.8145 5.30249 13.5029 5.57956 13.5751Z" fill="#E6E6E6"/>
<path d="M14.4993 16.3136C14.5855 16.3335 14.6534 16.3825 14.7135 16.4434C14.7973 16.5282 14.8566 16.6307 14.9166 16.7324C14.9329 16.7599 14.9367 16.7885 14.9065 16.8071C14.8809 16.823 14.8493 16.8275 14.8326 16.7941C14.7444 16.6185 14.6045 16.4797 14.4993 16.3136Z" fill="#E6E6E6"/>
<path d="M8.2479 17.5512C8.10205 17.2935 8.16118 17.0175 8.17781 16.7451C8.29027 17.0054 8.19748 17.2845 8.2479 17.5512Z" fill="#E6E6E6"/>
<path d="M11.6113 17.2319C11.744 17.4788 11.8634 17.7312 12.0038 17.9807C11.8267 17.8967 11.6474 17.5529 11.6113 17.2319Z" fill="#E6E6E6"/>
<path d="M13.7656 15.393C13.9938 15.3472 14.3815 15.6123 14.4065 15.7978C14.2099 15.6405 14.0004 15.5105 13.7656 15.393Z" fill="#E6E6E6"/>
<path d="M13.4478 16.2099C13.3765 16.1315 13.3356 16.0522 13.3041 15.9684C13.2709 15.8802 13.2427 15.7902 13.2127 15.7008C13.2064 15.682 13.2022 15.6626 13.2093 15.6428C13.2177 15.6194 13.2365 15.609 13.2596 15.6062C13.2791 15.6039 13.2964 15.6123 13.3005 15.6315C13.3392 15.8136 13.4335 15.9804 13.4477 16.169C13.4483 16.1776 13.4477 16.1864 13.4477 16.2097L13.4478 16.2099Z" fill="#E6E6E6"/>
<path d="M10.2552 17.791C10.1835 17.5663 10.0953 17.3596 10.071 17.1289C10.2021 17.202 10.336 17.6286 10.2552 17.791Z" fill="#E6E6E6"/>
<path d="M11.0499 16.8807C10.9956 16.7721 10.9823 16.6676 10.9592 16.566C10.9432 16.4956 10.9271 16.4251 10.9105 16.3549C10.903 16.323 10.8873 16.2831 10.9279 16.2695C10.9657 16.2568 10.9853 16.2942 10.9983 16.3245C11.0499 16.4455 11.0643 16.5738 11.0686 16.7034C11.0705 16.7574 11.0736 16.8121 11.05 16.8807H11.0499Z" fill="#E6E6E6"/>
<path d="M12.5461 16.8553C12.7828 17.0718 12.9297 17.3391 12.9881 17.6553C12.828 17.3962 12.7327 17.1007 12.5461 16.8553Z" fill="#E6E6E6"/>
<path d="M4.64453 16.5951C4.85467 16.3998 5.04118 16.1756 5.30848 16.0509C5.11206 16.2626 4.91354 16.4718 4.64453 16.5951Z" fill="#E6E6E6"/>
<path d="M7.7714 17.6101C7.65049 17.3611 7.65564 17.1028 7.70686 16.821C7.76098 16.9634 7.76111 17.0946 7.75781 17.2244C7.75464 17.3539 7.75715 17.4824 7.7714 17.6101Z" fill="#E6E6E6"/>
<path d="M11.5019 16.8224C11.4047 16.6181 11.4203 16.3868 11.344 16.1776C11.5489 16.3546 11.5073 16.5931 11.5019 16.8224Z" fill="#E6E6E6"/>
<path d="M14.9429 15.1143C15.167 15.1292 15.4006 15.3662 15.3954 15.5627C15.2457 15.4156 15.1283 15.2443 14.9429 15.1143Z" fill="#E6E6E6"/>
<path d="M5.92706 14.421C5.69752 14.5031 5.49978 14.6612 5.25269 14.7008C5.46401 14.5753 5.66056 14.4141 5.92706 14.421Z" fill="#E6E6E6"/>
<path d="M11.9108 16.0525C11.9324 16.1177 11.9541 16.1828 11.9756 16.248C12.0069 16.3434 12.0375 16.4391 12.0694 16.5344C12.0758 16.5532 12.0793 16.5669 12.056 16.5763C12.0379 16.5835 12.0275 16.5784 12.0184 16.5631C11.9249 16.4068 11.8444 16.2476 11.9109 16.0525H11.9108Z" fill="#E6E6E6"/>
<path d="M10.5728 16.9177C10.5183 16.8375 10.4994 16.7599 10.4916 16.6787C10.4845 16.6045 10.4771 16.5304 10.4706 16.4563C10.4684 16.4301 10.4746 16.4076 10.5059 16.4029C10.5259 16.4 10.5432 16.4077 10.546 16.4278C10.5678 16.5854 10.6088 16.7419 10.5728 16.9177Z" fill="#E6E6E6"/>
<path d="M5.37598 15.0748C5.44277 14.925 5.56196 14.8608 5.69779 14.82C5.73395 14.8092 5.76497 14.8249 5.77065 14.8657C5.77632 14.9072 5.74491 14.9099 5.71455 14.9106C5.64987 14.9122 5.59786 14.9446 5.54665 14.9792C5.49636 15.0131 5.4495 15.0535 5.37611 15.0747L5.37598 15.0748Z" fill="#E6E6E6"/>
<path d="M9.77704 16.7036C9.68346 16.5607 9.68359 16.4073 9.72174 16.2381C9.84396 16.388 9.76793 16.5512 9.77704 16.7036Z" fill="#E6E6E6"/>
<path d="M11.1328 17.2902C11.2417 17.4528 11.2718 17.6394 11.295 17.8278C11.169 17.6704 11.1607 17.4774 11.1328 17.2902Z" fill="#E6E6E6"/>
<path d="M8.77605 17.4283C8.67982 17.257 8.66306 17.0703 8.66438 16.88C8.75255 17.0523 8.77103 17.2392 8.77605 17.4283Z" fill="#E6E6E6"/>
<path d="M10.1258 16.3602C10.183 16.5315 10.2135 16.706 10.1903 16.9027C10.1027 16.7193 10.1033 16.5411 10.1258 16.3602Z" fill="#E6E6E6"/>
<path d="M9.10046 16.9512C9.19603 17.1234 9.25596 17.2865 9.26177 17.4713C9.18441 17.3885 9.0936 17.1034 9.10046 16.9512Z" fill="#E6E6E6"/>
<path d="M5.97387 16.0658C5.85983 16.1706 5.74367 16.2696 5.56812 16.3005C5.69628 16.1864 5.81416 16.0897 5.97387 16.0658Z" fill="#E6E6E6"/>
<path d="M8.30509 16.6099C8.20346 16.4915 8.19092 16.3785 8.26299 16.258C8.34113 16.3664 8.31064 16.4849 8.30509 16.6099Z" fill="#E6E6E6"/>
<path d="M5.9749 15.8115C5.88157 15.8978 5.77769 15.9651 5.63672 16.0023C5.72687 15.873 5.8363 15.8157 5.9749 15.8115Z" fill="#E6E6E6"/>
<path d="M7.86953 16.3257C7.94582 16.4253 7.93896 16.5327 7.93619 16.6407C7.84352 16.5722 7.81462 16.4435 7.86953 16.3257Z" fill="#E6E6E6"/>
<path d="M13.4757 8.15429C13.4757 8.02467 13.4753 7.89492 13.4758 7.7653C13.4763 7.65693 13.5013 7.61878 13.6003 7.58116C13.8087 7.50183 14.0216 7.43808 14.2476 7.45511C14.6819 7.48784 14.9806 7.71699 15.1478 8.11232C15.2848 8.43611 15.3 8.77956 15.2521 9.12262C15.2212 9.34372 15.0911 9.52218 14.9292 9.66883C14.5779 9.98721 14.1667 10.1548 13.6858 10.1249C13.6133 10.1204 13.5425 10.1035 13.4737 10.0799C13.3979 10.0539 13.3678 10.0096 13.3728 9.93005C13.4051 9.42384 13.4387 8.91763 13.4699 8.41142C13.4751 8.32615 13.4707 8.24022 13.4707 8.15456C13.4724 8.15456 13.4741 8.15456 13.4757 8.15456V8.15429ZM15.0975 8.81903C15.0975 8.76755 15.0988 8.71924 15.0973 8.67093C15.0872 8.36787 15.0042 8.09146 14.7999 7.85981C14.6168 7.65244 14.3928 7.54605 14.1111 7.57813C13.9639 7.59489 13.8236 7.63713 13.6841 7.68425C13.5889 7.71646 13.5789 7.73124 13.5821 7.83169C13.5946 8.22056 13.5831 8.60889 13.558 8.99696C13.539 9.29066 13.5124 9.58356 13.48 9.87606C13.4712 9.95645 13.503 9.99803 13.583 10.0048C13.6396 10.0096 13.6968 10.0098 13.7538 10.01C14.0203 10.0112 14.2601 9.91408 14.4956 9.80399C14.6623 9.72598 14.8132 9.62474 14.9271 9.47664C15.0776 9.28089 15.1122 9.05465 15.0975 8.81903Z" fill="#E6E6E6"/>
<path d="M9.97035 13.9874C9.97074 13.9416 9.99477 13.9221 10.0316 13.9181C10.0738 13.9136 10.0708 13.9449 10.0765 13.9742C10.1033 14.1125 10.1588 14.2416 10.2119 14.3711C10.2609 14.4908 10.3168 14.6075 10.3897 14.7151C10.4066 14.7402 10.4209 14.7707 10.3962 14.7927C10.3719 14.8144 10.3472 14.7873 10.3275 14.7722C10.3105 14.7593 10.2957 14.7416 10.2844 14.7234C10.1464 14.5024 10.049 14.2637 9.97642 14.0142C9.97338 14.0038 9.97153 13.9931 9.97021 13.9874H9.97035Z" fill="#E6E6E6"/>
<path d="M11.2402 14.1539C11.0343 14.0066 10.8524 13.8355 10.7088 13.6263C10.6729 13.574 10.6416 13.5184 10.6097 13.4635C10.5935 13.4358 10.582 13.4036 10.618 13.3834C10.6531 13.3639 10.6674 13.393 10.6822 13.419C10.79 13.6095 10.94 13.7675 11.0792 13.9338C11.1376 14.0035 11.196 14.0732 11.2402 14.1539Z" fill="#E6E6E6"/>
<path d="M9.89819 5.15112C9.94822 4.87168 10.5142 4.43438 10.8414 4.42963C10.4709 4.61231 10.149 4.82879 9.89819 5.15112Z" fill="#E6E6E6"/>
<path d="M9.91196 14.8038C9.76043 14.6073 9.66803 14.3949 9.62288 14.1611C9.61932 14.1425 9.6213 14.1211 9.62684 14.1029C9.63371 14.0803 9.65272 14.0678 9.67766 14.0691C9.70089 14.0703 9.71647 14.0864 9.71687 14.1067C9.72162 14.3177 9.8457 14.4858 9.91724 14.6727C9.93334 14.7147 9.93268 14.7399 9.91183 14.804L9.91196 14.8038Z" fill="#E6E6E6"/>
<path d="M8.45389 5.20987C8.42854 4.95538 8.73029 4.53603 8.99085 4.45221C8.7683 4.6667 8.60502 4.92318 8.45389 5.20987Z" fill="#E6E6E6"/>
<path d="M10.0791 4.53815C9.80331 4.71581 9.58499 4.92331 9.44864 5.20935C9.37723 5.02244 9.77322 4.55042 10.0791 4.53815Z" fill="#E6E6E6"/>
<path d="M8.86365 5.16698C8.83936 4.95116 9.22387 4.48548 9.47572 4.4538C9.35098 4.56322 9.23627 4.66499 9.13596 4.78141C9.0359 4.89757 8.94931 5.02323 8.86365 5.16698Z" fill="#E6E6E6"/>
<path d="M9.67771 3.58917C9.65646 3.65768 9.61541 3.69319 9.5733 3.7279C9.42533 3.84947 9.30165 3.98926 9.23895 4.17471C9.22852 4.2056 9.21176 4.23319 9.17176 4.21787C9.13441 4.20362 9.14075 4.17194 9.1521 4.14554C9.25783 3.90135 9.42401 3.71351 9.67771 3.58917Z" fill="#E6E6E6"/>
<path d="M12.6383 5.46235C12.733 5.45588 12.8204 5.4671 12.9079 5.47146C12.9276 5.47238 12.9503 5.47317 12.9507 5.50103C12.9512 5.53416 12.9237 5.52281 12.9074 5.52399C12.6754 5.54221 12.4435 5.55977 12.2115 5.5764C12.1929 5.57772 12.1642 5.59316 12.1588 5.55726C12.1537 5.5232 12.183 5.52677 12.2024 5.52175C12.3476 5.48466 12.4953 5.46539 12.6382 5.46222L12.6383 5.46235Z" fill="#E6E6E6"/>
<path d="M9.56177 3.44177C9.59028 3.19771 10.076 2.9085 10.3766 2.96156C10.0479 3.04235 9.78273 3.19731 9.56177 3.44177Z" fill="#E6E6E6"/>
<path d="M11.8536 12.79C11.6575 12.5315 11.5136 12.2512 11.2417 12.0701C11.4297 12.0701 11.8007 12.4586 11.8536 12.79Z" fill="#E6E6E6"/>
<path d="M10.8167 14.3254C10.586 14.24 10.3485 13.8896 10.3667 13.6603C10.504 13.8942 10.6464 14.1103 10.8167 14.3254Z" fill="#E6E6E6"/>
<path d="M12.8693 5.09369C13.1055 5.1391 13.3323 5.1977 13.5488 5.29221C13.5727 5.30264 13.5835 5.31294 13.5729 5.34145C13.5611 5.37352 13.5426 5.35742 13.5258 5.3524C13.3074 5.2868 13.089 5.2208 12.8707 5.1548C12.8525 5.14926 12.8295 5.14886 12.8376 5.11811C12.843 5.09752 12.8515 5.08603 12.8691 5.09382L12.8693 5.09369Z" fill="#E6E6E6"/>
<path d="M10.4542 3.73834C10.226 3.90994 10.0056 4.08879 9.82617 4.33022C9.86907 4.07903 10.2016 3.76857 10.4542 3.73834Z" fill="#E6E6E6"/>
<path d="M15.2418 7.09845C15.4786 7.12379 15.7582 7.52493 15.7366 7.80978C15.6768 7.72412 15.6395 7.63343 15.5978 7.54526C15.5145 7.36878 15.4199 7.20167 15.2417 7.09845H15.2418Z" fill="#E6E6E6"/>
<path d="M12.1362 11.6893C12.4223 11.7828 12.7171 11.8348 13.0173 11.8856C12.8692 11.9737 12.311 11.8492 12.1362 11.6893Z" fill="#E6E6E6"/>
<path d="M8.63733 4.33179C8.43616 4.53467 8.26351 4.73385 8.21758 5.01989C8.11713 4.82572 8.3505 4.41402 8.63733 4.33179Z" fill="#E6E6E6"/>
<path d="M13.1077 5.96304C12.8735 5.86602 12.6297 5.87354 12.3909 5.83658C12.5499 5.7294 12.987 5.76042 13.1077 5.96304Z" fill="#E6E6E6"/>
<path d="M12.7397 5.24182C12.4603 5.26017 12.1897 5.264 11.927 5.35059C12.0143 5.20935 12.554 5.11154 12.7397 5.24182Z" fill="#E6E6E6"/>
<path d="M10.5076 4.25235C10.5571 4.06571 11.0052 3.78152 11.3277 3.80633C11.0371 3.91338 10.746 4.01898 10.5076 4.25235Z" fill="#E6E6E6"/>
<path d="M15.3599 9.69183C15.3865 9.49252 15.3677 9.29439 15.3769 9.09679C15.3782 9.06722 15.395 9.04122 15.4201 9.03805C15.4406 9.03555 15.4643 9.05561 15.4664 9.08412C15.4806 9.28185 15.4825 9.47787 15.3898 9.66134C15.3843 9.6723 15.3827 9.68695 15.36 9.6917L15.3599 9.69183Z" fill="#E6E6E6"/>
<path d="M15.85 8.75384C15.9125 8.48985 15.9053 8.23919 15.8257 7.98773C16.0044 8.1254 16.0444 8.54634 15.85 8.75384Z" fill="#E6E6E6"/>
<path d="M15.605 9.88969C15.695 9.65275 15.8457 9.44842 15.8707 9.18878C15.9709 9.35721 15.812 9.77406 15.605 9.88969Z" fill="#E6E6E6"/>
<path d="M10.7819 3.02768C10.5073 3.10965 10.2521 3.20046 10.0553 3.40572C10.0465 3.22871 10.5037 2.96234 10.7819 3.02768Z" fill="#E6E6E6"/>
<path d="M11.5206 3.43965C11.236 3.42381 10.9905 3.52519 10.729 3.60201C10.9065 3.4089 11.3333 3.31914 11.5206 3.43965Z" fill="#E6E6E6"/>
<path d="M10.5098 5.06267C10.5333 4.84659 10.9667 4.58471 11.1577 4.61559C11.0388 4.68212 10.9216 4.73967 10.812 4.81069C10.7035 4.88091 10.6034 4.96116 10.5098 5.06267Z" fill="#E6E6E6"/>
<path d="M12.4773 6.72662C12.7154 6.62961 13.0217 6.73045 13.1424 6.94719C12.9277 6.83552 12.7138 6.74629 12.4773 6.72662Z" fill="#E6E6E6"/>
<path d="M11.4388 13.6119C11.17 13.4985 11.0094 13.2814 10.8813 13.0324C10.9526 13.0835 11.01 13.1492 11.0696 13.2126C11.1325 13.2796 11.1937 13.3484 11.2561 13.416C11.3167 13.4816 11.3778 13.5467 11.4388 13.612V13.6119Z" fill="#E6E6E6"/>
<path d="M11.9945 4.7146C11.7134 4.82469 11.4222 4.90573 11.1487 5.03377C11.3918 4.82482 11.6794 4.73255 11.9945 4.7146Z" fill="#E6E6E6"/>
<path d="M14.7234 7.36999C14.9595 7.32498 15.2631 7.61247 15.279 7.85178C15.1204 7.64969 14.9706 7.45354 14.7234 7.36999Z" fill="#E6E6E6"/>
<path d="M11.7364 13.246C11.4979 13.0745 11.315 12.8574 11.2065 12.5791C11.3879 12.7977 11.5693 13.0163 11.7506 13.2349C11.7459 13.2386 11.7411 13.2423 11.7364 13.246Z" fill="#E6E6E6"/>
<path d="M13.1405 3.44621C12.9074 3.33745 12.6695 3.24861 12.4084 3.22208C12.5646 3.12018 12.9998 3.25323 13.1405 3.44621Z" fill="#E6E6E6"/>
<path d="M8.37304 6.35636C8.2652 6.1911 8.32077 5.82481 8.48207 5.67328C8.43983 5.90744 8.38228 6.12484 8.37304 6.35636Z" fill="#E6E6E6"/>
<path d="M12.0885 2.53412C11.8488 2.61965 11.6067 2.65186 11.3877 2.7659C11.4441 2.61569 11.8535 2.48448 12.0885 2.53412Z" fill="#E6E6E6"/>
<path d="M12.6825 10.8258C12.3586 10.8158 12.0551 10.7321 11.7688 10.5857C11.7703 10.5806 11.7717 10.5753 11.7732 10.5701C12.0762 10.6554 12.3794 10.7407 12.6825 10.8259V10.8258Z" fill="#E6E6E6"/>
<path d="M7.74892 5.49513C7.62959 5.31113 7.73836 4.98747 7.96671 4.85217C7.8821 5.06706 7.71777 5.24856 7.74892 5.49513Z" fill="#E6E6E6"/>
<path d="M14.9885 7.22455C15.235 7.26138 15.4681 7.5127 15.4621 7.72825C15.3168 7.54913 15.196 7.35655 14.9885 7.22455Z" fill="#E6E6E6"/>
<path d="M12.2092 2.37379C12.309 2.24206 12.7546 2.21645 12.9617 2.37181C12.7013 2.34475 12.4575 2.30383 12.2092 2.37379Z" fill="#E6E6E6"/>
<path d="M11.582 13.7023C11.8079 13.8357 12.0511 13.9125 12.313 13.9395C12.1612 14.0251 11.721 13.9222 11.582 13.7023Z" fill="#E6E6E6"/>
<path d="M11.6226 5.12656C11.8489 4.95536 12.1025 4.88659 12.3825 4.91524C12.1274 4.97991 11.8716 5.04182 11.6226 5.12656Z" fill="#E6E6E6"/>
<path d="M13.4679 13.12C13.3906 13.1196 13.3361 13.0971 13.2826 13.0729C13.1645 13.0196 13.0717 12.9325 12.9806 12.8431C12.9628 12.8255 12.9563 12.8109 12.9744 12.7871C12.9956 12.7593 13.0106 12.775 13.028 12.7882C13.1696 12.895 13.3113 13.0019 13.4678 13.12H13.4679Z" fill="#E6E6E6"/>
<path d="M12.2907 4.19192C12.028 4.2393 11.7704 4.31243 11.5076 4.36101C11.7519 4.22954 12.0073 4.14796 12.2907 4.19192Z" fill="#E6E6E6"/>
<path d="M12.114 10.3837C12.3066 10.4097 12.4993 10.4357 12.6919 10.4619C12.7223 10.466 12.7526 10.4701 12.783 10.4743C12.8026 10.4771 12.8162 10.4852 12.8129 10.5083C12.8102 10.5283 12.7963 10.5321 12.7795 10.5309C12.5507 10.5156 12.322 10.4986 12.114 10.3837Z" fill="#E6E6E6"/>
<path d="M9.99076 3.77728C9.9039 3.84671 9.81691 3.91641 9.74036 3.99785C9.66538 4.07758 9.5912 4.15809 9.51636 4.23861C9.51913 4.05712 9.77058 3.80817 9.99076 3.77728Z" fill="#E6E6E6"/>
<path d="M13.0733 6.46144C12.8481 6.36179 12.628 6.36878 12.4026 6.41683C12.5285 6.27652 12.8937 6.23903 13.0733 6.46144Z" fill="#E6E6E6"/>
<path d="M12.321 8.23222C12.4997 8.27221 12.6713 8.32858 12.8273 8.42533C12.8442 8.43576 12.8632 8.44447 12.8515 8.4706C12.8381 8.5003 12.8183 8.48262 12.8022 8.47641C12.6393 8.41371 12.4766 8.35035 12.3142 8.2862C12.3008 8.28092 12.2761 8.28132 12.284 8.2532C12.2898 8.23235 12.3005 8.22337 12.321 8.23235V8.23222Z" fill="#E6E6E6"/>
<path d="M11.8485 3.95718C11.6007 4.03888 11.349 4.10831 11.104 4.19847C11.3222 4.027 11.5697 3.94464 11.8485 3.95718Z" fill="#E6E6E6"/>
<path d="M15.3562 8.1183C15.4262 8.19551 15.4504 8.27141 15.466 8.35048C15.4804 8.42347 15.4916 8.49726 15.5038 8.57065C15.5081 8.59705 15.5093 8.62332 15.4891 8.6451C15.4618 8.67466 15.4189 8.66846 15.4141 8.63084C15.3934 8.46664 15.3765 8.3019 15.3562 8.11816V8.1183Z" fill="#E6E6E6"/>
<path d="M12.9102 8.26663C12.7358 8.14374 12.5868 8.00184 12.3889 7.93188C12.5233 7.84899 12.8419 8.05174 12.9102 8.26663Z" fill="#E6E6E6"/>
<path d="M8.7379 4.0789C8.66544 3.87945 8.8959 3.60978 9.14274 3.58405C8.97405 3.72911 8.79215 3.84976 8.7379 4.0789Z" fill="#E6E6E6"/>
<path d="M11.009 10.0792C11.2693 10.1661 11.5106 10.3035 11.7796 10.3672C11.4825 10.3785 11.238 10.2496 11.009 10.0792Z" fill="#E6E6E6"/>
<path d="M12.0706 10.1195C11.7913 10.1195 11.5305 10.0605 11.3022 9.8927C11.5558 9.97744 11.816 10.0401 12.0706 10.1195Z" fill="#E6E6E6"/>
<path d="M12.0383 3.92629C12.1887 3.7865 12.5453 3.76987 12.7151 3.88022C12.6116 3.88022 12.5003 3.87837 12.3892 3.88075C12.2754 3.88326 12.1621 3.89421 12.0383 3.92629Z" fill="#E6E6E6"/>
<path d="M12.9562 7.78935C12.8056 7.6266 12.6525 7.49843 12.4426 7.45897C12.5588 7.36076 12.903 7.5181 12.9562 7.78935Z" fill="#E6E6E6"/>
<path d="M11.1416 14.3905C11.3079 14.6014 11.4973 14.766 11.7271 14.8922C11.4903 14.8745 11.1915 14.6219 11.1416 14.3905Z" fill="#E6E6E6"/>
<path d="M9.3883 3.57416C9.23835 3.75315 9.07943 3.9254 8.98584 4.14439C9.00947 3.87683 9.14767 3.68952 9.3883 3.57416Z" fill="#E6E6E6"/>
<path d="M13.8823 7.32376C14.0789 7.21354 14.4246 7.25539 14.577 7.41352C14.3427 7.32772 14.1129 7.32548 13.8823 7.32376Z" fill="#E6E6E6"/>
<path d="M11.5669 2.90124C11.7405 2.71393 11.9634 2.66021 12.2081 2.66509C12.0008 2.76066 11.7699 2.79353 11.5669 2.90124Z" fill="#E6E6E6"/>
<path d="M9.8485 5.43241C9.84625 5.42568 9.84493 5.41618 9.84031 5.40892C9.82962 5.39176 9.83833 5.38067 9.84929 5.36866C9.89971 5.31362 9.95568 5.26478 10.0147 5.21911C10.0944 5.15733 10.1794 5.10361 10.2689 5.05715C10.2849 5.04883 10.2995 5.03972 10.3147 5.05965C10.3324 5.08275 10.3122 5.09067 10.2993 5.10031C10.1627 5.20274 10.0258 5.30464 9.88876 5.40667C9.88005 5.41314 9.87054 5.41842 9.8485 5.43241Z" fill="#E6E6E6"/>
<path d="M12.7076 11.5877C12.539 11.5593 12.3725 11.523 12.2137 11.4573C12.1943 11.4492 12.1775 11.4411 12.1858 11.4145C12.1946 11.3864 12.2123 11.3938 12.2326 11.3995C12.3927 11.4441 12.553 11.4878 12.7132 11.5319C12.7314 11.5369 12.7552 11.5374 12.7486 11.5673C12.7435 11.591 12.7255 11.5897 12.7074 11.5876L12.7076 11.5877Z" fill="#E6E6E6"/>
<path d="M6.39331 14.3236C6.41549 14.1144 6.49772 13.9159 6.44241 13.7003C6.57164 13.8 6.54445 14.2148 6.39331 14.3236Z" fill="#E6E6E6"/>
<path d="M11.1044 3.22278C10.8804 3.29353 10.669 3.39846 10.4453 3.47106C10.6384 3.32059 10.8442 3.20258 11.1044 3.22278Z" fill="#E6E6E6"/>
<path d="M11.9077 11.0942C11.6405 11.0571 11.4293 10.9179 11.241 10.7366C11.4708 10.842 11.6813 10.9834 11.9077 11.0942Z" fill="#E6E6E6"/>
<path d="M13.2861 6.14891C13.4436 6.1039 13.5826 6.14297 13.7188 6.19854C13.7469 6.21002 13.762 6.23788 13.7444 6.26942C13.7258 6.30269 13.6999 6.28896 13.6775 6.27391C13.6122 6.22996 13.5361 6.23246 13.463 6.2223C13.4006 6.21359 13.3399 6.20144 13.2861 6.14904V6.14891Z" fill="#E6E6E6"/>
<path d="M12.0566 10.9592C12.2903 11.0283 12.5053 11.142 12.7315 11.2277C12.4756 11.217 12.2567 11.1112 12.0566 10.9592Z" fill="#E6E6E6"/>
<path d="M12.0354 13.1993C12.2734 13.1546 12.5082 13.1648 12.7396 13.2392C12.5025 13.2755 12.2698 13.2131 12.0354 13.1993Z" fill="#E6E6E6"/>
<path d="M14.8105 6.90168C14.6033 6.78129 14.3892 6.76519 14.1616 6.76823C14.35 6.65167 14.6825 6.7178 14.8105 6.90168Z" fill="#E6E6E6"/>
<path d="M12.2842 4.61954C12.508 4.47962 12.7489 4.45705 13.0009 4.50206C12.761 4.53875 12.5187 4.56133 12.2842 4.61954Z" fill="#E6E6E6"/>
<path d="M11.3283 11.61C11.5684 11.6806 11.7388 11.8375 11.883 12.0278C11.8792 12.0326 11.8755 12.0374 11.8717 12.0423C11.6905 11.8981 11.5094 11.7541 11.3281 11.61H11.3283Z" fill="#E6E6E6"/>
<path d="M14.7874 10.5544C14.8953 10.4996 14.998 10.4636 15.0915 10.4088C15.1847 10.3542 15.2665 10.2865 15.3402 10.2041C15.3501 10.3678 15.048 10.5621 14.7874 10.5544Z" fill="#E6E6E6"/>
<path d="M12.6682 13.7317C12.7997 13.844 12.9252 13.9512 13.0506 14.0586C13.0622 14.0687 13.0748 14.0791 13.0595 14.0965C13.0499 14.1072 13.0407 14.1116 13.0254 14.108C12.8926 14.077 12.6934 13.8723 12.6682 13.7317Z" fill="#E6E6E6"/>
<path d="M14.6367 10.3251C14.8475 10.2545 15.0649 10.1979 15.1977 9.98499C15.1613 10.2081 14.9073 10.3612 14.6367 10.3251Z" fill="#E6E6E6"/>
<path d="M14.0159 7.02551C14.1425 6.89536 14.4847 6.94393 14.6083 7.10325C14.4103 7.05336 14.2213 6.98934 14.0159 7.02551Z" fill="#E6E6E6"/>
<path d="M11.3208 11.2717C11.5554 11.2945 11.8006 11.4286 11.9256 11.6007C11.7131 11.4851 11.5169 11.3785 11.3208 11.2717Z" fill="#E6E6E6"/>
<path d="M13.3066 4.96551C13.0834 4.91469 12.8614 4.85609 12.6301 4.85556C12.8693 4.80566 13.1031 4.78969 13.3066 4.96551Z" fill="#E6E6E6"/>
<path d="M12.2373 9.789C12.0198 9.81632 11.7374 9.73778 11.5635 9.59998C11.7933 9.64274 12.0078 9.742 12.2373 9.789Z" fill="#E6E6E6"/>
<path d="M6.88467 13.9855C6.90566 14.0631 6.89562 14.1317 6.87767 14.1992C6.85682 14.2775 6.82685 14.3534 6.82171 14.4355C6.82012 14.4609 6.80309 14.4768 6.77722 14.4719C6.75122 14.4669 6.72904 14.449 6.73987 14.4207C6.78316 14.3075 6.78264 14.183 6.83095 14.0715C6.84296 14.0437 6.8522 14.014 6.88467 13.9857V13.9855Z" fill="#E6E6E6"/>
<path d="M12.8974 14.2652C12.7105 14.2454 12.5903 14.1491 12.483 14.0297C12.4657 14.0105 12.47 13.9957 12.484 13.9783C12.4946 13.9651 12.5047 13.9549 12.5216 13.9682C12.6424 14.0635 12.7631 14.159 12.8976 14.2652H12.8974Z" fill="#E6E6E6"/>
<path d="M11.7915 13.5438C12.0395 13.6231 12.2849 13.6115 12.5354 13.6245C12.3859 13.7185 11.9619 13.6733 11.7915 13.5438Z" fill="#E6E6E6"/>
<path d="M9.08041 5.41168C8.9595 5.60083 8.81839 5.75646 8.7223 5.95274C8.71279 5.77296 8.88624 5.50883 9.08041 5.41168Z" fill="#E6E6E6"/>
<path d="M11.6599 3.73516C11.8054 3.62481 12.0939 3.58165 12.3423 3.62996C12.115 3.69451 11.8892 3.67761 11.6599 3.73516Z" fill="#E6E6E6"/>
<path d="M11.8472 9.22876C12.0739 9.32433 12.3158 9.34096 12.5563 9.36498C12.3049 9.39745 12.0543 9.42649 11.8472 9.22876Z" fill="#E6E6E6"/>
<path d="M13.2792 9.27814C13.1228 9.45277 12.8398 9.60483 12.6702 9.60391C12.8839 9.52273 13.0489 9.35087 13.2792 9.27814Z" fill="#E6E6E6"/>
<path d="M15.5557 9.65407C15.6506 9.46941 15.5934 9.27432 15.6371 9.08569C15.7321 9.32368 15.6958 9.59481 15.5557 9.65407Z" fill="#E6E6E6"/>
<path d="M13.0728 12.4499C13.2026 12.5477 13.3325 12.6456 13.4624 12.7435C13.4772 12.7545 13.4802 12.7662 13.4697 12.7824C13.4594 12.7982 13.4485 12.8003 13.4315 12.7928C13.2714 12.7221 13.1448 12.6157 13.0728 12.4499Z" fill="#E6E6E6"/>
<path d="M12.1785 12.4299C12.4108 12.4534 12.6504 12.4042 12.8769 12.4938C12.6427 12.4885 12.4052 12.5213 12.1785 12.4299Z" fill="#E6E6E6"/>
<path d="M11.8502 14.7154C11.6369 14.6197 11.5334 14.4363 11.467 14.2241C11.6095 14.3756 11.7007 14.5678 11.8502 14.7154Z" fill="#E6E6E6"/>
<path d="M13.3457 13.4198C13.1675 13.4172 12.975 13.2668 12.9126 13.081C13.0594 13.1958 13.2001 13.3059 13.3457 13.4198Z" fill="#E6E6E6"/>
<path d="M12.5437 9.87302C12.6016 9.85731 12.6596 9.84134 12.7177 9.82616C12.8321 9.7962 12.9466 9.76676 13.061 9.73693C13.078 9.73244 13.0958 9.7236 13.104 9.74868C13.1097 9.7661 13.1035 9.77706 13.0855 9.78405C12.912 9.85177 12.7368 9.90945 12.5437 9.87302Z" fill="#E6E6E6"/>
<path d="M12.6851 4.32138C12.4771 4.37748 12.2582 4.37207 12.0515 4.4353C12.243 4.28654 12.4632 4.29947 12.6851 4.32138Z" fill="#E6E6E6"/>
<path d="M13.045 7.3322C12.8882 7.22331 12.7367 7.14411 12.5615 7.11349C12.714 7.03099 12.9534 7.13315 13.045 7.3322Z" fill="#E6E6E6"/>
<path d="M12.9775 10.1856C12.7531 10.2297 12.5291 10.2488 12.3096 10.1558C12.5317 10.1749 12.7553 10.1513 12.9775 10.1856Z" fill="#E6E6E6"/>
<path d="M15.7222 8.56203C15.6462 8.40707 15.6181 8.25897 15.6282 8.09753C15.7247 8.18478 15.7672 8.38727 15.7222 8.56203Z" fill="#E6E6E6"/>
<path d="M13.8984 13.7351C13.7324 13.7894 13.5331 13.6581 13.4863 13.4595C13.6091 13.5851 13.747 13.6639 13.8984 13.7351Z" fill="#E6E6E6"/>
<path d="M12.802 12.1838C12.5736 12.173 12.3628 12.1602 12.1545 12.076C12.3009 12.0592 12.6916 12.1195 12.802 12.1838Z" fill="#E6E6E6"/>
<path d="M11.8467 2.41574C11.6678 2.49361 11.4744 2.52582 11.2998 2.61135C11.4461 2.44543 11.6368 2.40188 11.8467 2.41574Z" fill="#E6E6E6"/>
<path d="M13.6854 5.67817C13.5113 5.65639 13.3398 5.62893 13.1907 5.52875C13.3686 5.53535 13.5423 5.5566 13.6854 5.67817Z" fill="#E6E6E6"/>
<path d="M12.8261 8.80055C12.6055 8.76531 12.4272 8.68162 12.2556 8.56335C12.3884 8.57523 12.6826 8.69641 12.8261 8.80055Z" fill="#E6E6E6"/>
<path d="M8.16954 5.48676C8.15331 5.67089 8.20439 5.85371 8.18367 6.03798C8.10222 5.85595 8.07596 5.67274 8.16954 5.48676Z" fill="#E6E6E6"/>
<path d="M9.29199 5.62949C9.31813 5.54131 9.37489 5.48046 9.43613 5.42397C9.48933 5.37487 9.54701 5.33051 9.59902 5.28022C9.62568 5.25435 9.64112 5.26214 9.66356 5.28286C9.69353 5.31058 9.66436 5.32061 9.64997 5.33249C9.53104 5.43202 9.41145 5.53062 9.29199 5.62949Z" fill="#E6E6E6"/>
<path d="M13.5152 12.4141C13.3421 12.3457 13.185 12.2548 13.074 12.0994C13.2384 12.1799 13.397 12.269 13.5152 12.4141Z" fill="#E6E6E6"/>
<path d="M12.2337 3.28955C12.0518 3.30908 11.8752 3.32809 11.6907 3.34789C11.8295 3.23873 12.1001 3.21022 12.2337 3.28955Z" fill="#E6E6E6"/>
<path d="M11.0569 15.0533C10.8433 14.9924 10.6886 14.8659 10.6118 14.6522C10.748 14.7995 10.8939 14.936 11.0569 15.0533Z" fill="#E6E6E6"/>
<path d="M12.8359 13.4648C12.9855 13.5302 13.1069 13.6317 13.2075 13.76C13.0452 13.7111 12.919 13.6157 12.8359 13.4648Z" fill="#E6E6E6"/>
<path d="M12.4272 4.07506C12.5207 3.95679 12.823 3.96431 12.9323 4.07136C12.7611 4.07321 12.5975 4.02477 12.4272 4.07506Z" fill="#E6E6E6"/>
<path d="M13.2776 8.94495C13.1515 9.07272 13.0157 9.18294 12.8359 9.22214C12.97 9.10836 13.102 8.99128 13.2776 8.94495Z" fill="#E6E6E6"/>
<path d="M13.1145 7.52719C13.2594 7.39809 13.4246 7.33896 13.6185 7.37829C13.4504 7.42793 13.2825 7.47756 13.1145 7.52719Z" fill="#E6E6E6"/>
<path d="M7.48973 14.9639C7.41818 14.782 7.51322 14.6144 7.48339 14.435C7.57368 14.5286 7.55111 14.711 7.48973 14.9639Z" fill="#E6E6E6"/>
<path d="M12.6174 9.06047C12.4295 9.08265 12.2325 9.03328 12.123 8.93732C12.2923 8.96556 12.4548 8.97494 12.6174 9.06047Z" fill="#E6E6E6"/>
<path d="M13.3894 11.9006C13.563 11.969 13.696 12.0807 13.8555 12.1451C13.7628 12.1937 13.5166 12.0726 13.3894 11.9006Z" fill="#E6E6E6"/>
<path d="M7.93729 5.68755C7.90245 5.51239 7.87935 5.34 8.02085 5.19586C7.993 5.3598 7.96515 5.52361 7.93729 5.68755Z" fill="#E6E6E6"/>
<path d="M6.25162 14.0885C6.19883 13.8962 6.23869 13.6978 6.21704 13.5034C6.31591 13.6928 6.26799 13.8916 6.25162 14.0885Z" fill="#E6E6E6"/>
<path d="M12.7078 12.8075C12.524 12.898 12.3335 12.8777 12.1421 12.8456C12.3283 12.7993 12.5205 12.8307 12.7078 12.8075Z" fill="#E6E6E6"/>
<path d="M13.3784 13.6904C13.5198 13.7669 13.6371 13.8825 13.8037 13.9299C13.6519 13.9736 13.4902 13.8812 13.3784 13.6904Z" fill="#E6E6E6"/>
<path d="M13.1821 7.24737C13.2954 7.12818 13.5072 7.05862 13.6788 7.08409C13.5129 7.1588 13.3446 7.19497 13.1821 7.24737Z" fill="#E6E6E6"/>
<path d="M11.6787 3.55198C11.8401 3.45285 12.0099 3.40902 12.196 3.47423C12.0238 3.50103 11.8503 3.52135 11.6787 3.55198Z" fill="#E6E6E6"/>
<path d="M13.2529 11.6388C13.1122 11.5811 12.9657 11.5307 12.9121 11.3653C13.0353 11.4445 13.1712 11.5073 13.2529 11.6388Z" fill="#E6E6E6"/>
<path d="M11.9493 14.5741C11.8936 14.557 11.8581 14.5201 11.8267 14.4795C11.7714 14.4078 11.7378 14.3243 11.6997 14.2432C11.6902 14.2232 11.6953 14.2103 11.7149 14.201C11.7331 14.1923 11.7426 14.1999 11.7513 14.2158C11.817 14.3353 11.8833 14.4547 11.9494 14.5741H11.9493Z" fill="#E6E6E6"/>
<path d="M10.2632 13.9845C10.38 14.0967 10.3964 14.2653 10.4922 14.3893C10.338 14.2993 10.2785 14.1546 10.2632 13.9845Z" fill="#E6E6E6"/>
<path d="M13.3147 5.87285C13.4619 5.83747 13.6001 5.85793 13.7459 5.94769C13.5804 5.97686 13.4492 5.91746 13.3147 5.87285Z" fill="#E6E6E6"/>
<path d="M13.2563 7.01266C13.2837 6.86918 13.5012 6.81545 13.6867 6.88752C13.544 6.93148 13.3885 6.91247 13.2563 7.01266Z" fill="#E6E6E6"/>
<path d="M13.6614 12.7915C13.815 12.7968 13.9326 12.892 14.0826 12.9561C13.899 12.9787 13.7787 12.8894 13.6614 12.7915Z" fill="#E6E6E6"/>
<path d="M7.07032 14.1603C7.11864 14.2957 7.08907 14.4414 6.98756 14.5827C6.95667 14.4257 7.04261 14.2986 7.07032 14.1603Z" fill="#E6E6E6"/>
<path d="M14.2697 10.4684C14.1048 10.5449 13.9359 10.5517 13.7637 10.4987C13.9312 10.47 14.1007 10.4717 14.2697 10.4684Z" fill="#E6E6E6"/>
<path d="M15.0672 9.79584C15.0229 9.94275 14.8785 10.0407 14.675 10.0588C14.8052 9.95635 14.9485 9.90117 15.0672 9.79584Z" fill="#E6E6E6"/>
<path d="M12.541 3.39119C12.6904 3.33707 12.8883 3.39964 13.0056 3.53401C12.8451 3.49494 12.7068 3.42221 12.541 3.39119Z" fill="#E6E6E6"/>
<path d="M10.9735 5.0224C10.8239 5.09975 10.6886 5.16958 10.5496 5.24125C10.6043 5.11704 10.7967 5.01514 10.9735 5.0224Z" fill="#E6E6E6"/>
<path d="M13.981 13.5129C13.8378 13.5447 13.717 13.4721 13.6284 13.3017C13.7422 13.3698 13.856 13.438 13.981 13.5129Z" fill="#E6E6E6"/>
<path d="M12.8887 11.0262C13.0365 11.0884 13.1391 11.2068 13.2455 11.3204C13.0855 11.2739 12.9833 11.1551 12.8887 11.0262Z" fill="#E6E6E6"/>
<path d="M13.8774 11.8778C13.6959 11.8765 13.5907 11.7642 13.4719 11.6788C13.6264 11.6904 13.7399 11.7849 13.8774 11.8778Z" fill="#E6E6E6"/>
<path d="M12.6572 6.15875C12.5026 6.16245 12.3564 6.1053 12.2031 6.09804C12.3647 6.03692 12.5145 6.069 12.6572 6.15875Z" fill="#E6E6E6"/>
<path d="M13.1362 10.5466C13.2746 10.5794 13.4059 10.6211 13.5519 10.6096C13.4526 10.7089 13.2545 10.6879 13.1362 10.5466Z" fill="#E6E6E6"/>
<path d="M11.3655 2.93132C11.2572 2.97171 11.1488 3.0121 11.0403 3.05223C11.0258 3.05764 11.0098 3.06292 11 3.0447C10.9932 3.03177 10.9949 3.0187 11.0083 3.01039C11.1174 2.94267 11.23 2.88934 11.3655 2.93119V2.93132Z" fill="#E6E6E6"/>
<path d="M13.4348 10.4722C13.2279 10.5019 13.1234 10.451 13.0764 10.2912C13.1932 10.3725 13.3103 10.4286 13.4348 10.4722Z" fill="#E6E6E6"/>
<path d="M14.2291 10.7047C14.073 10.804 13.9101 10.7753 13.7317 10.7398C13.8259 10.7149 13.9075 10.719 13.9886 10.7161C14.0688 10.7132 14.1489 10.7086 14.2291 10.7047Z" fill="#E6E6E6"/>
<path d="M13.6765 12.4611C13.8065 12.4968 13.9219 12.5624 14.0527 12.5826C13.9632 12.6682 13.7846 12.6115 13.6765 12.4611Z" fill="#E6E6E6"/>
<path d="M13.7217 10.3515C13.8421 10.2503 13.9719 10.2136 14.1199 10.285C13.9871 10.3072 13.8545 10.3293 13.7217 10.3515Z" fill="#E6E6E6"/>
<path d="M12.9651 8.2158C13.0799 8.13278 13.1998 8.06018 13.3413 8.0318C13.2484 8.15812 13.1071 8.18782 12.9651 8.2158Z" fill="#E6E6E6"/>
<path d="M12.4417 2.4886C12.5466 2.43844 12.6573 2.43435 12.769 2.43593C12.7975 2.43633 12.8262 2.43527 12.8547 2.43633C12.8726 2.43699 12.8962 2.42907 12.897 2.46154C12.898 2.49401 12.875 2.48847 12.8564 2.4886C12.7182 2.48886 12.58 2.48873 12.4418 2.48873L12.4417 2.4886Z" fill="#E6E6E6"/>
<path d="M13.7205 13.0889C13.8206 13.1405 13.9191 13.1913 14.0226 13.2446C13.8836 13.2821 13.7337 13.2036 13.7205 13.0889Z" fill="#E6E6E6"/>
<path d="M13.0623 7.88954C13.1649 7.79952 13.2834 7.75121 13.434 7.74078C13.3185 7.83833 13.191 7.86644 13.0623 7.88954Z" fill="#E6E6E6"/>
<path d="M13.2611 8.37685C13.1316 8.43664 13.017 8.48957 12.8979 8.54462C12.9492 8.43282 13.1006 8.36114 13.2611 8.37685Z" fill="#E6E6E6"/>
<path d="M12.5281 14.422C12.3639 14.4038 12.2745 14.3267 12.2534 14.1868C12.3452 14.2654 12.4306 14.3385 12.5281 14.422Z" fill="#E6E6E6"/>
<path d="M13.2026 3.74589C13.3381 3.73467 13.4462 3.81136 13.4767 3.94574C13.4243 3.90825 13.3799 3.8771 13.3361 3.84516C13.2928 3.81361 13.2502 3.78127 13.2026 3.74576V3.74589Z" fill="#E6E6E6"/>
<path d="M6.21125 9.29819C6.21138 8.81996 6.54005 8.42107 7.02739 8.3061C7.14117 8.2793 7.13971 8.27996 7.0852 8.17635C7.03333 8.07788 6.96706 7.98667 6.94436 7.87354C6.88971 7.60097 7.09233 7.34067 7.37005 7.32879C7.4738 7.32444 7.5497 7.3676 7.61147 7.44944C7.83072 7.73983 7.95757 8.06798 8.01644 8.42463C8.02317 8.46581 8.02819 8.50726 8.03373 8.54858C8.04957 8.66526 8.03994 8.68321 7.93091 8.73298C7.88999 8.75172 7.87705 8.78155 7.88893 8.82405C7.90926 8.89758 7.9346 8.96912 7.93513 9.04805C7.93566 9.10943 7.98674 9.12422 8.03901 9.12435C8.1227 9.12461 8.20612 9.12659 8.28717 9.14916C8.32505 9.15972 8.36293 9.17226 8.39831 9.18916C8.59498 9.28274 8.64989 9.42807 8.54852 9.62039C8.41454 9.87462 8.19028 10.004 7.91203 10.0461C7.76485 10.0684 7.62863 10.0263 7.50033 9.9591C7.34787 9.87937 7.29217 9.75424 7.32227 9.57182C7.32939 9.52852 7.33731 9.48496 7.35038 9.44325C7.36213 9.4055 7.35183 9.39732 7.31514 9.40128C7.0489 9.42992 6.78253 9.45751 6.51616 9.48549C6.46165 9.49117 6.40726 9.49948 6.35248 9.50265C6.24794 9.50872 6.21877 9.48206 6.21178 9.37725C6.21006 9.35099 6.21151 9.32459 6.21151 9.29819H6.21125ZM7.03834 7.80411C7.03874 7.86892 7.03887 7.88054 7.05365 7.90826C7.22881 8.23588 7.47327 8.48984 7.82491 8.62844C7.85527 8.64045 7.8888 8.65615 7.91784 8.63002C7.94793 8.60283 7.94292 8.56494 7.93143 8.53142C7.84735 8.28471 7.78597 8.03049 7.6875 7.78854C7.65371 7.70538 7.62124 7.62103 7.56501 7.54949C7.44846 7.40126 7.26894 7.39255 7.13747 7.52692C7.05735 7.60876 7.04758 7.71343 7.03821 7.80411H7.03834ZM8.13405 9.21952C8.07016 9.23034 7.99334 9.22216 7.91705 9.22691C7.76327 9.23655 7.61675 9.26941 7.49716 9.37527C7.42008 9.44352 7.36794 9.52443 7.38246 9.63438C7.39315 9.71583 7.42668 9.74592 7.50772 9.74487C7.53623 9.74447 7.56488 9.74262 7.59326 9.74447C7.71799 9.75252 7.75852 9.79041 7.7671 9.89059C7.77092 9.93481 7.8001 9.95369 7.84458 9.95329C7.92827 9.95263 7.99057 9.92623 8.02568 9.84109C8.08033 9.70896 8.17206 9.61841 8.32531 9.61076C8.4383 9.60521 8.48015 9.55703 8.49334 9.41897C8.50219 9.32591 8.4548 9.26493 8.35567 9.24196C8.28677 9.22599 8.21628 9.22717 8.13405 9.21965V9.21952ZM7.13417 9.31007C7.25165 9.33515 7.35078 9.31099 7.4478 9.2772C7.56554 9.23628 7.67773 9.17992 7.80036 9.15233C7.84682 9.1419 7.86121 9.1064 7.85804 9.06218C7.85157 8.97348 7.82267 8.89111 7.78769 8.81033C7.76089 8.74842 7.72209 8.70143 7.65714 8.67041C7.57649 8.63187 7.50231 8.57986 7.42588 8.53261C7.38312 8.50621 7.34141 8.47769 7.28518 8.441C7.39421 8.76703 7.388 9.05795 7.13417 9.31007Z" fill="#E6E6E6"/>
<path d="M10.2416 7.74405C10.3327 7.74405 10.4145 7.73666 10.4946 7.74537C10.768 7.7752 10.9342 7.93809 10.9652 8.21079C10.9972 8.49129 10.9743 8.76769 10.8769 9.03525C10.8319 9.15867 10.7961 9.18361 10.664 9.19034C10.0983 9.21899 9.53265 9.24829 8.96691 9.27759C8.89062 9.28155 8.86924 9.26413 8.86343 9.18572C8.85538 9.07524 8.8864 8.97281 8.93048 8.87342C8.93853 8.85534 8.94804 8.83804 8.95675 8.82036C8.97879 8.77521 9.01496 8.73113 9.01905 8.6844C9.02407 8.62658 8.9516 8.61827 8.91781 8.58289C8.84798 8.51003 8.82449 8.42397 8.84099 8.32827C8.90778 7.94139 9.07832 7.60493 9.34152 7.31506C9.49926 7.14135 9.68168 6.99761 9.88192 6.87617C10.048 6.77546 10.1719 6.80898 10.2627 6.98177C10.3695 7.18478 10.3671 7.39479 10.294 7.60744C10.2799 7.64862 10.2629 7.68875 10.2415 7.74405H10.2416ZM10.2077 7.35994C10.2197 7.23877 10.1798 7.13885 10.1319 7.04236C10.0818 6.94138 10.022 6.92567 9.92257 6.9815C9.89591 6.99655 9.8707 7.0145 9.84654 7.03325C9.71626 7.13436 9.5906 7.24101 9.47906 7.36258C9.21401 7.65139 9.02565 7.98019 8.96401 8.37328C8.95464 8.43268 8.95807 8.48799 9.01404 8.52574C9.06895 8.5627 9.11343 8.52957 9.15989 8.50449C9.47035 8.33632 9.72854 8.10137 9.9796 7.85849C10.1211 7.72161 10.2118 7.55596 10.2078 7.36007L10.2077 7.35994ZM9.808 8.20697C9.84285 8.22531 9.87228 8.23997 9.90079 8.25607C10.0364 8.33302 10.1232 8.4402 10.1129 8.6056C10.1042 8.74604 10.0531 8.87421 9.99715 9.00093C9.96046 9.08409 9.98774 9.12408 10.079 9.12091C10.2757 9.11431 10.4715 9.07128 10.6693 9.10877C10.7069 9.1159 10.7247 9.08844 10.7346 9.05703C10.7544 8.99433 10.7754 8.93189 10.7919 8.8684C10.86 8.60678 10.8784 8.34504 10.7858 8.08474C10.7411 7.95868 10.6529 7.88093 10.5213 7.85453C10.3679 7.82378 10.2251 7.85163 10.0931 7.93505C9.98197 8.00514 9.89644 8.1019 9.808 8.20697Z" fill="#E6E6E6"/>
<path d="M7.81668 12.5693C7.60166 12.5732 7.39799 12.5314 7.21438 12.4137C7.02668 12.2935 6.90115 12.1228 6.81311 11.9211C6.77984 11.8448 6.74328 11.77 6.70791 11.6946C6.69022 11.6568 6.67332 11.6189 6.67134 11.5762C6.66844 11.5124 6.69721 11.4716 6.75833 11.4538C6.76889 11.4508 6.77932 11.4466 6.79014 11.4455C7.17557 11.4109 7.52893 11.2615 7.8869 11.1327C8.47376 10.9216 9.03647 10.655 9.58901 10.3666C9.65712 10.3311 9.72113 10.2868 9.80324 10.2948C9.84138 10.2985 9.87016 10.3136 9.85472 10.3576C9.79558 10.5254 9.77195 10.7024 9.71691 10.8714C9.58544 11.2747 9.40197 11.651 9.10708 11.9588C8.78277 12.2973 8.39417 12.5251 7.91541 12.5689C7.88281 12.572 7.84968 12.5693 7.81668 12.5693ZM8.06919 11.2676C8.0754 11.2942 8.08463 11.337 8.09533 11.3794C8.16476 11.6556 8.22983 11.9334 8.34282 12.1964C8.3844 12.2932 8.41265 12.3018 8.50333 12.2499C8.71928 12.1263 8.90011 11.9616 9.06168 11.7739C9.09243 11.7381 9.09626 11.7029 9.07963 11.6588C9.04716 11.5728 9.01601 11.4859 8.99066 11.3976C8.9479 11.248 8.91014 11.097 8.87002 10.9467C8.85827 10.9026 8.84019 10.8638 8.78396 10.8882C8.57487 10.979 8.3646 11.0661 8.14971 11.1426C8.10113 11.1599 8.06853 11.1943 8.06906 11.2676H8.06919ZM7.79345 12.4643C7.93416 12.4346 8.08661 12.4248 8.23036 12.3738C8.30322 12.348 8.31246 12.3195 8.27999 12.2477C8.24013 12.1597 8.19789 12.0729 8.16172 11.9837C8.08054 11.7835 8.03078 11.5746 7.99039 11.3629C7.96795 11.2453 7.94076 11.2288 7.82922 11.2635C7.69102 11.3065 7.55361 11.3521 7.41567 11.3956C7.36499 11.4116 7.34426 11.443 7.3572 11.4954C7.37977 11.587 7.4001 11.6791 7.42478 11.7702C7.48194 11.9802 7.55387 12.1847 7.65842 12.3767C7.6868 12.4288 7.72296 12.4651 7.79358 12.4644L7.79345 12.4643ZM9.72655 10.3961C9.46308 10.5375 9.21585 10.67 8.96875 10.8027C8.93509 10.8208 8.93417 10.8487 8.94314 10.8819C8.98063 11.0194 9.0168 11.1574 9.05389 11.295C9.0828 11.4023 9.11197 11.5095 9.1711 11.6183C9.45133 11.2528 9.6063 10.8423 9.72655 10.3963V10.3961ZM7.58608 12.4361C7.49342 12.2696 7.41726 12.112 7.36261 11.9445C7.3238 11.8253 7.2982 11.7033 7.27615 11.58C7.25886 11.4833 7.21055 11.4464 7.13214 11.4761C7.03605 11.5126 6.93705 11.5246 6.8366 11.5349C6.76546 11.5421 6.75054 11.5651 6.77694 11.6302C6.84465 11.7977 6.92715 11.9571 7.04489 12.0957C7.18639 12.262 7.36208 12.3746 7.58608 12.4363V12.4361Z" fill="#E6E6E6"/>
<path d="M5.22986 9.53314C5.2461 9.71068 5.27487 9.87554 5.39209 10.0131C5.19805 9.94405 5.11331 9.65049 5.22986 9.53314Z" fill="#E6E6E6"/>
<path d="M5.20386 8.75016C5.10077 8.56616 5.14723 8.37964 5.33915 8.21808C5.30008 8.31206 5.25877 8.39205 5.2358 8.47877C5.2123 8.56761 5.20359 8.65829 5.20386 8.75016Z" fill="#E6E6E6"/>
<path d="M5.22951 8.8902C5.20945 9.06377 5.21037 9.22983 5.22634 9.4001C5.12273 9.31813 5.11019 9.00292 5.22951 8.8902Z" fill="#E6E6E6"/>
<path d="M5.55617 7.30198C5.55432 7.13144 5.73133 6.94321 5.93685 6.89081C5.81528 7.03521 5.64315 7.1222 5.55617 7.30198Z" fill="#E6E6E6"/>
<path d="M5.36124 7.95474C5.29141 7.80334 5.38988 7.56059 5.56583 7.45526C5.52228 7.53987 5.48096 7.61788 5.44163 7.69695C5.4015 7.77747 5.37879 7.86379 5.36124 7.95487V7.95474Z" fill="#E6E6E6"/>
<path d="M5.51237 9.91056C5.39107 9.80192 5.33959 9.66795 5.37351 9.48645C5.43357 9.63455 5.45192 9.77935 5.51237 9.91056Z" fill="#E6E6E6"/>
<path d="M5.36225 8.67678C5.32503 8.53555 5.37307 8.4314 5.42983 8.3291C5.43775 8.31472 5.44449 8.3027 5.46455 8.31128C5.48554 8.32013 5.48752 8.33333 5.48039 8.35286C5.4429 8.4545 5.40621 8.55627 5.36238 8.67678H5.36225Z" fill="#E6E6E6"/>
<path d="M5.35892 8.93439C5.38691 9.03035 5.37859 9.15852 5.33886 9.27903C5.26969 9.19257 5.2755 9.06678 5.35892 8.93439Z" fill="#E6E6E6"/>
<path d="M6.4799 6.6114C6.34844 6.65773 6.23254 6.69851 6.10596 6.74313C6.20218 6.61826 6.33009 6.57259 6.4799 6.6114Z" fill="#E6E6E6"/>
<path d="M5.62914 7.60944C5.58545 7.73457 5.54189 7.85983 5.4982 7.98497C5.47642 7.83713 5.50955 7.70777 5.62914 7.60944Z" fill="#E6E6E6"/>
<path d="M5.70166 7.72113C5.71116 7.57421 5.79736 7.47838 5.87246 7.36896C5.87378 7.46624 5.80594 7.60576 5.70166 7.72113Z" fill="#E6E6E6"/>
<path d="M5.68945 7.34119C5.71123 7.20907 5.78924 7.12749 5.91952 7.09436C5.84283 7.17659 5.76614 7.25883 5.68945 7.34119Z" fill="#E6E6E6"/>
<path d="M14.231 8.81721C14.3387 8.81721 14.4282 8.81682 14.5177 8.81735C14.5536 8.81761 14.5949 8.8184 14.5947 8.86711C14.5946 8.91832 14.5505 8.91133 14.5163 8.91371C14.4464 8.91872 14.3752 8.91766 14.3067 8.93034C14.1157 8.96558 13.9997 9.08715 13.9356 9.26574C13.9213 9.30521 13.9209 9.3716 13.8533 9.35286C13.789 9.33504 13.819 9.27577 13.8226 9.23419C13.8267 9.18628 13.8459 9.14061 13.8692 9.09797C14.0231 8.81655 14.2357 8.59058 14.5099 8.42347C14.5812 8.38004 14.658 8.35932 14.7426 8.37014C14.7674 8.37331 14.785 8.38044 14.7905 8.40538C14.7971 8.43548 14.7696 8.43456 14.7537 8.44168C14.5804 8.52009 14.4192 8.61632 14.2863 8.75504C14.2714 8.77062 14.2575 8.78725 14.2311 8.81708L14.231 8.81721Z" fill="#E6E6E6"/>
</svg>
