<svg width="20" height="20" viewBox="0 0 20 20" fill="none" xmlns="http://www.w3.org/2000/svg">
<g opacity="0.85">
<path d="M2.50801 9.609C2.55706 9.609 2.60158 9.62083 2.64141 9.64448C2.68123 9.66813 2.71289 9.69944 2.73671 9.73839L2.73932 9.741L2.91463 9.91127C2.93828 9.93492 2.95741 9.96257 2.97185 9.99388C2.98628 10.0252 2.99341 10.0594 2.99341 10.0967V10.785C2.99341 10.8511 2.98037 10.9019 2.95411 10.9374C2.92785 10.9729 2.89445 10.9984 2.85376 11.0136C2.81306 11.0287 2.76871 11.0372 2.72036 11.0389C2.67219 11.0407 2.62593 11.0416 2.58193 11.0416H2.57688V11.6435H2.23374L2.0153 11.4301H2V9.609H2.50801ZM2.30731 10.5208V9.91892H2.38853C2.40888 9.91892 2.42662 9.92657 2.44192 9.9417C2.45723 9.95701 2.46471 9.97475 2.46471 9.99509V10.4421C2.46471 10.4624 2.45758 10.4807 2.44314 10.4967C2.4287 10.5127 2.41062 10.5208 2.38853 10.5208H2.30731ZM2.05078 9.65978V11.3793H2.30731V10.7774C2.34801 10.7774 2.39236 10.7777 2.44071 10.7786C2.48888 10.7795 2.53427 10.7739 2.57653 10.7621C2.6188 10.7502 2.65393 10.7295 2.68193 10.6998C2.70993 10.6702 2.72384 10.6248 2.72384 10.564V9.87561C2.72384 9.81631 2.70262 9.76552 2.66036 9.72326C2.6181 9.681 2.56732 9.65978 2.50801 9.65978H2.05078ZM2.28192 10.5462V9.89353H2.38853C2.41566 9.89353 2.43931 9.90361 2.45966 9.92396C2.48001 9.94431 2.4901 9.96796 2.4901 9.99509V10.4421C2.4901 10.4692 2.48036 10.4934 2.46088 10.5144C2.4414 10.5356 2.41723 10.5462 2.38853 10.5462H2.28192ZM2.07618 9.68518V11.3539H2.28192V10.752H2.35566C2.39288 10.752 2.43184 10.7516 2.47253 10.7508C2.51323 10.7499 2.54993 10.744 2.58297 10.733C2.61601 10.7221 2.64349 10.7035 2.66558 10.6772C2.68767 10.6509 2.69862 10.6132 2.69862 10.5642V9.87579C2.69862 9.82153 2.68036 9.77631 2.64401 9.73996C2.60767 9.70361 2.56227 9.68535 2.50818 9.68535H2.07618V9.68518ZM3.06628 11.4301H3.05098V9.87561C3.05098 9.8384 3.05776 9.80361 3.07133 9.77144C3.08489 9.73926 3.10385 9.71126 3.12855 9.68761C3.15307 9.66396 3.18142 9.64483 3.21359 9.63039C3.24577 9.61596 3.28055 9.60883 3.31777 9.60883H3.5743C3.62334 9.60883 3.66786 9.62065 3.70769 9.6443C3.74752 9.66796 3.77917 9.69926 3.803 9.73822L3.98074 9.91092C4.00439 9.93457 4.02352 9.96222 4.03796 9.99353C4.05239 10.0248 4.05952 10.0591 4.05952 10.0963V11.6431H3.71412L3.6303 11.5619V11.6431H3.2849L3.06646 11.4297L3.06628 11.4301ZM3.3609 10.5208V9.99509C3.3609 9.97475 3.36855 9.95701 3.38368 9.9417C3.39881 9.9264 3.41673 9.91892 3.43707 9.91892H3.45481C3.47516 9.91892 3.4929 9.92657 3.50821 9.9417C3.52351 9.95683 3.53099 9.97475 3.53099 9.99509V10.5208H3.3609ZM3.79013 9.87579C3.79013 9.81648 3.76891 9.7657 3.72665 9.72344C3.68438 9.68118 3.6336 9.65996 3.5743 9.65996H3.31777C3.25846 9.65996 3.20768 9.68118 3.16542 9.72344C3.12315 9.7657 3.10194 9.81648 3.10194 9.87579V11.3795H3.36107V10.7775H3.53116V11.3795H3.7903V9.87579H3.79013ZM3.33551 10.5464V9.99527C3.33551 9.96814 3.34577 9.94449 3.36629 9.92414C3.38681 9.90379 3.41081 9.8937 3.43812 9.8937H3.45621C3.48351 9.8937 3.50751 9.90379 3.52803 9.92414C3.54856 9.94449 3.55882 9.96814 3.55882 9.99527V10.5464H3.33533H3.33551ZM3.76473 9.87579C3.76473 9.82153 3.74647 9.77631 3.71012 9.73996C3.67378 9.70361 3.62838 9.68535 3.5743 9.68535H3.31777C3.26351 9.68535 3.21829 9.70361 3.18194 9.73996C3.14559 9.77631 3.12733 9.8217 3.12733 9.87579V11.3541H3.33568V10.7522H3.55916V11.3541H3.76491V9.87579H3.76473Z" fill="#E6E6E6"/>
<path opacity="0.9" d="M4.38444 10.3016V10.2434C4.46966 10.1929 4.5274 10.1458 4.55801 10.102C4.57958 10.0705 4.59018 10.0329 4.59018 9.9891C4.59018 9.96353 4.58566 9.9444 4.57662 9.93206C4.56671 9.91971 4.55592 9.91345 4.54444 9.91345C4.5354 9.91345 4.5234 9.9164 4.50844 9.92214C4.48688 9.92962 4.46914 9.93327 4.45505 9.93327C4.42201 9.93327 4.39261 9.92092 4.36705 9.89605C4.34148 9.87118 4.32861 9.84023 4.32861 9.80301C4.32861 9.76162 4.34148 9.72944 4.36705 9.70631C4.40183 9.67483 4.44305 9.65918 4.49105 9.65918C4.54653 9.65918 4.59627 9.68248 4.64045 9.72927C4.68462 9.77605 4.70688 9.83414 4.70688 9.90353C4.70688 10.0011 4.67001 10.09 4.59645 10.1701C4.54775 10.223 4.47696 10.2668 4.38444 10.3016Z" fill="#E6E6E6"/>
<path d="M6.19944 9.62424L6.41788 9.83764V11.6436H6.07248L5.9683 11.542V11.6436H5.6229L5.40446 11.4302H5.38916V9.60911H5.74986V9.62442L5.83874 9.71085V9.60929H6.19944V9.62459V9.62424ZM6.14865 9.65972H5.88952V10.4319H5.69908V9.65972H5.43994V11.3792H5.69908V10.6884H5.88952V11.3792H6.14865V9.65972ZM6.12326 9.68511H5.91491V10.4573H5.67369V9.68511H5.46534V11.3538H5.67369V10.663H5.91491V11.3538H6.12326V9.68511ZM6.48588 11.43H6.47057V9.87555C6.47057 9.83833 6.47736 9.80355 6.49092 9.77138C6.50449 9.7392 6.52345 9.7112 6.54814 9.68755C6.57284 9.6639 6.60101 9.64477 6.63319 9.63033C6.66536 9.6159 6.70015 9.60876 6.73736 9.60876H6.99389C7.04294 9.60876 7.08746 9.62059 7.12729 9.64424C7.16711 9.6679 7.19877 9.6992 7.22259 9.73816L7.40033 9.91086C7.42399 9.93451 7.44312 9.96216 7.45755 9.99347C7.47199 10.0248 7.47912 10.059 7.47912 10.0963V11.6431H7.13372L7.04989 11.5619V11.6431H6.70449L6.48605 11.4297L6.48588 11.43ZM6.78049 10.5208V9.99503C6.78049 9.97469 6.78815 9.95695 6.80328 9.94164C6.81858 9.92634 6.83632 9.91886 6.85667 9.91886H6.87441C6.89476 9.91886 6.9125 9.92651 6.9278 9.94164C6.94311 9.95695 6.95059 9.97469 6.95059 9.99503V10.5208H6.78049ZM7.20972 9.87573C7.20972 9.81642 7.1885 9.76564 7.14624 9.72338C7.10398 9.68111 7.0532 9.6599 6.99389 9.6599H6.73736C6.67806 9.6599 6.62727 9.68111 6.58501 9.72338C6.54275 9.76564 6.52153 9.81642 6.52153 9.87573V11.3794H6.78067V10.7775H6.95076V11.3794H7.2099V9.87573H7.20972ZM6.7551 10.5464V9.99521C6.7551 9.96808 6.76536 9.94442 6.78589 9.92408C6.80641 9.90373 6.83041 9.89364 6.85771 9.89364H6.8758C6.90311 9.89364 6.92711 9.90373 6.94763 9.92408C6.96815 9.94442 6.97841 9.96808 6.97841 9.99521V10.5464H6.75493H6.7551ZM7.18433 9.87573C7.18433 9.82146 7.16607 9.77625 7.12972 9.7399C7.09337 9.70355 7.04798 9.68529 6.99389 9.68529H6.73736C6.6831 9.68529 6.63788 9.70355 6.60153 9.7399C6.56519 9.77625 6.54692 9.82164 6.54692 9.87573V11.354H6.75528V10.7521H6.97876V11.354H7.1845V9.87573H7.18433ZM7.54712 11.4302H7.53182V9.60911H8.0233C8.07757 9.60911 8.12905 9.62007 8.17739 9.64216C8.22574 9.66424 8.26348 9.69711 8.29079 9.74129L8.46905 9.9166L8.4741 9.91921C8.49618 9.94129 8.51358 9.96703 8.52627 9.9966C8.53897 10.0262 8.5454 10.0597 8.5454 10.0969V10.5008C8.5454 10.5804 8.5174 10.6439 8.46158 10.6912L8.46923 10.6963C8.52001 10.7453 8.5454 10.8072 8.5454 10.8817L8.54279 11.4125C8.54279 11.4464 8.53479 11.4772 8.51862 11.5052C8.50245 11.5332 8.4821 11.5572 8.45757 11.5775C8.43288 11.5979 8.4054 11.6139 8.37479 11.6257C8.34418 11.6375 8.31375 11.6434 8.28314 11.6434H7.76626L7.54729 11.43L7.54712 11.4302ZM8.01443 11.0441C8.01443 11.0662 8.00678 11.0848 7.99165 11.0999C7.97635 11.1152 7.95774 11.1227 7.93582 11.1227H7.84191V10.5996H7.93582C7.95791 10.5996 7.97652 10.6067 7.99165 10.6211C8.00696 10.6356 8.01443 10.6537 8.01443 10.6757V11.0441ZM8.05635 11.3794C8.08174 11.3794 8.10731 11.3747 8.1327 11.3655C8.15809 11.3561 8.18105 11.3431 8.2014 11.3262C8.22174 11.3093 8.23861 11.2893 8.25218 11.2665C8.26574 11.2438 8.27253 11.2187 8.27253 11.1916L8.27514 10.6608C8.27514 10.6218 8.26453 10.585 8.24331 10.5504C8.22209 10.5156 8.19461 10.489 8.1607 10.4703C8.19461 10.4517 8.22209 10.4251 8.24331 10.3903C8.26453 10.3556 8.27514 10.3189 8.27514 10.2799V9.87607C8.27514 9.8406 8.26801 9.80912 8.25357 9.78216C8.23914 9.75503 8.22053 9.73259 8.19774 9.71485C8.17496 9.69711 8.14818 9.68355 8.11757 9.67416C8.08696 9.66477 8.05565 9.66024 8.0233 9.66024H7.58277V11.3798H8.05652L8.05635 11.3794ZM7.84417 10.338V9.91886H7.92295C7.94661 9.91886 7.96783 9.92529 7.98643 9.93799C8.00504 9.95069 8.01443 9.96982 8.01443 9.99521V10.2618C8.01443 10.2787 8.00852 10.2957 7.9967 10.3126C7.98487 10.3295 7.96956 10.338 7.95096 10.338H7.84434H7.84417ZM8.03983 11.0441C8.03983 11.073 8.02974 11.0975 8.00939 11.1178C7.98904 11.1382 7.96452 11.1483 7.93565 11.1483H7.81634V10.5742H7.93565C7.96452 10.5742 7.98904 10.5839 8.00939 10.6034C8.02974 10.6229 8.03983 10.647 8.03983 10.6757V11.0441ZM8.05513 11.354C8.07722 11.354 8.09913 11.3498 8.12122 11.3413C8.14331 11.3328 8.16348 11.3215 8.18226 11.3071C8.20087 11.2926 8.21618 11.2758 8.228 11.2563C8.23983 11.2368 8.24574 11.2152 8.24574 11.1916L8.24835 10.6608C8.24835 10.6269 8.23531 10.5926 8.2094 10.558C8.18348 10.5232 8.1487 10.494 8.10505 10.4703C8.1487 10.4467 8.18348 10.4175 8.2094 10.3827C8.23531 10.3479 8.24835 10.3136 8.24835 10.2799V9.87607C8.24835 9.8439 8.24192 9.8159 8.22922 9.79225C8.21653 9.76859 8.19966 9.74859 8.17844 9.73259C8.15722 9.71642 8.13322 9.70459 8.10609 9.69711C8.07896 9.68964 8.05113 9.68564 8.02226 9.68564H7.60834V11.3544H8.05531L8.05513 11.354ZM7.81895 10.3634V9.89347H7.92313C7.95356 9.89347 7.98069 9.90199 8.00435 9.91886C8.028 9.93573 8.03983 9.96112 8.03983 9.99503V10.2616C8.03983 10.2837 8.03183 10.3062 8.01565 10.329C7.99965 10.3517 7.97791 10.3632 7.95096 10.3632H7.81895V10.3634ZM8.6134 11.4302H8.5981V9.60911H8.95619V9.62442L9.17463 9.83781V11.0723H9.23307V11.0876L9.45151 11.301V11.6439H8.83184L8.6134 11.4305V11.4302ZM8.90541 11.1229V9.6599H8.64888V11.3794H9.18229V11.1229H8.90541ZM8.88002 11.1483V9.68529H8.67428V11.354H9.15689V11.1483H8.88002ZM9.51325 11.4302H9.49795V9.87573C9.49795 9.83851 9.50473 9.80373 9.51829 9.77155C9.53186 9.73938 9.55082 9.71138 9.57551 9.68772C9.60003 9.66407 9.62838 9.64494 9.66056 9.6305C9.69273 9.61607 9.72752 9.60894 9.76473 9.60894H10.0213C10.0703 9.60894 10.1148 9.62076 10.1547 9.64442C10.1945 9.66807 10.2261 9.69938 10.25 9.73833L10.4277 9.91103C10.4514 9.93468 10.4705 9.96234 10.4849 9.99364C10.4994 10.0249 10.5065 10.0592 10.5065 10.0964V11.6432H10.1611L10.0773 11.562V11.6432H9.73186L9.51342 11.4298L9.51325 11.4302ZM9.80787 10.521V9.99521C9.80787 9.97486 9.81552 9.95712 9.83065 9.94182C9.84595 9.92651 9.86369 9.91903 9.88404 9.91903H9.90178C9.92213 9.91903 9.93987 9.92668 9.95517 9.94182C9.97048 9.95712 9.97796 9.97486 9.97796 9.99521V10.521H9.80787ZM10.2371 9.8759C10.2371 9.8166 10.2159 9.76581 10.1736 9.72355C10.1314 9.68129 10.0806 9.66007 10.0213 9.66007H9.76473C9.70543 9.66007 9.65464 9.68129 9.61238 9.72355C9.57012 9.76581 9.5489 9.8166 9.5489 9.8759V11.3796H9.80804V10.7777H9.97813V11.3796H10.2373V9.8759H10.2371ZM9.78247 10.5465V9.99538C9.78247 9.96825 9.79273 9.9446 9.81326 9.92425C9.83378 9.9039 9.85778 9.89381 9.88508 9.89381H9.90317C9.93048 9.89381 9.95448 9.9039 9.975 9.92425C9.99552 9.9446 10.0058 9.96825 10.0058 9.99538V10.5465H9.7823H9.78247ZM10.2117 9.8759C10.2117 9.82164 10.1934 9.77642 10.1571 9.74007C10.1207 9.70372 10.0753 9.68546 10.0213 9.68546H9.76473C9.71047 9.68546 9.66525 9.70372 9.6289 9.74007C9.59256 9.77642 9.5743 9.82181 9.5743 9.8759V11.3542H9.78265V10.7523H10.0061V11.3542H10.2119V9.8759H10.2117ZM10.587 11.4304H10.5717V9.60929H11.0948C11.1439 9.60929 11.1884 9.62111 11.2282 9.64477C11.2681 9.66842 11.2997 9.69972 11.3236 9.73868L11.5013 9.91138C11.5249 9.93503 11.5441 9.96269 11.5585 9.99399C11.5729 10.0253 11.5801 10.0596 11.5801 10.0968V10.7825C11.5801 10.8316 11.5691 10.8761 11.547 10.9159C11.5249 10.9558 11.4928 10.9865 11.4505 11.0086C11.4726 11.1102 11.4962 11.2173 11.5216 11.3298C11.547 11.4424 11.5707 11.5471 11.5928 11.6436H11.2347L11.1482 11.5598V11.6436H10.8053L10.5868 11.4302L10.587 11.4304ZM11.3109 9.8759C11.3109 9.8166 11.2896 9.76581 11.2474 9.72355C11.2051 9.68129 11.1543 9.66007 11.095 9.66007H10.6227V11.3796H10.8792V10.7777H10.9122L11.0442 11.3796H11.3109L11.1736 10.7624C11.2143 10.7471 11.2474 10.7208 11.2728 10.6836C11.2982 10.6464 11.3109 10.6057 11.3109 10.5617V9.8759ZM11.0517 10.4423C11.0517 10.4627 11.0441 10.4804 11.0289 10.4957C11.0136 10.511 10.9959 10.5185 10.9755 10.5185H10.879V9.9166H10.9755C10.9976 9.9166 11.0157 9.9246 11.0302 9.94077C11.0446 9.95695 11.0517 9.97503 11.0517 9.99538V10.4423ZM11.2855 9.8759C11.2855 9.82164 11.2672 9.77642 11.2309 9.74007C11.1945 9.70372 11.1491 9.68546 11.095 9.68546H10.6481V11.3542H10.8538V10.7523H10.935L11.067 11.3542H11.2778L11.1458 10.7446C11.1881 10.7293 11.222 10.7048 11.2474 10.6709C11.2728 10.637 11.2855 10.6006 11.2855 10.5617V9.8759ZM11.0771 10.4423C11.0771 10.4695 11.067 10.4931 11.0467 10.5135C11.0263 10.5338 11.0027 10.5439 10.9755 10.5439H10.8536V9.89121H10.9755C11.0044 9.89121 11.0284 9.90181 11.0479 9.92303C11.0674 9.94425 11.0771 9.96825 11.0771 9.99538V10.4423ZM12.0783 11.4304H12.063V9.60929H12.5545C12.6088 9.60929 12.6603 9.62024 12.7086 9.64233C12.757 9.66442 12.7947 9.69729 12.822 9.74146L13.0003 9.91677L13.0053 9.91938C13.0274 9.94147 13.0448 9.96721 13.0575 9.99677C13.0702 10.0263 13.0766 10.0599 13.0766 10.0971V10.501C13.0766 10.5806 13.0486 10.6441 12.9928 10.6914L13.0005 10.6964C13.0512 10.7455 13.0766 10.8074 13.0766 10.8818L13.074 11.4126C13.074 11.4465 13.066 11.4773 13.0498 11.5053C13.0337 11.5333 13.0133 11.5573 12.9888 11.5777C12.9641 11.598 12.9366 11.614 12.906 11.6259C12.8754 11.6377 12.845 11.6436 12.8144 11.6436H12.2975L12.0785 11.4302L12.0783 11.4304ZM12.5457 11.0443C12.5457 11.0664 12.538 11.085 12.5229 11.1001C12.5076 11.1154 12.489 11.1229 12.4671 11.1229H12.3731V10.5997H12.4671C12.4891 10.5997 12.5078 10.6069 12.5229 10.6213C12.5382 10.6357 12.5457 10.6538 12.5457 10.6759V11.0443ZM12.5876 11.3796C12.613 11.3796 12.6385 11.3749 12.6639 11.3657C12.6893 11.3565 12.7123 11.3432 12.7326 11.3264C12.753 11.3095 12.7698 11.2895 12.7834 11.2667C12.797 11.2439 12.8038 11.2189 12.8038 11.1918L12.8064 10.661C12.8064 10.622 12.7958 10.5851 12.7745 10.5505C12.7533 10.5157 12.7258 10.4891 12.6919 10.4705C12.7258 10.4519 12.7533 10.4253 12.7745 10.3905C12.7958 10.3557 12.8064 10.319 12.8064 10.2801V9.87625C12.8064 9.84077 12.7992 9.80929 12.7848 9.78233C12.7704 9.7552 12.7518 9.73277 12.729 9.71503C12.7062 9.69729 12.6794 9.68372 12.6488 9.67433C12.6182 9.66494 12.5869 9.66042 12.5545 9.66042H12.114V11.3799H12.5878L12.5876 11.3796ZM12.3754 10.3382V9.91903H12.4542C12.4778 9.91903 12.4991 9.92547 12.5177 9.93816C12.5363 9.95086 12.5457 9.96999 12.5457 9.99538V10.262C12.5457 10.2789 12.5398 10.2959 12.5279 10.3128C12.5161 10.3296 12.5008 10.3382 12.4822 10.3382H12.3756H12.3754ZM12.5711 11.0443C12.5711 11.0731 12.561 11.0977 12.5406 11.118C12.5203 11.1384 12.4958 11.1485 12.4669 11.1485H12.3476V10.5744H12.4669C12.4958 10.5744 12.5203 10.5841 12.5406 10.6036C12.561 10.623 12.5711 10.6472 12.5711 10.6759V11.0443ZM12.5864 11.3542C12.6084 11.3542 12.6304 11.35 12.6524 11.3415C12.6745 11.333 12.6947 11.3217 12.7135 11.3072C12.7321 11.2928 12.7474 11.2759 12.7592 11.2565C12.7711 11.237 12.777 11.2154 12.777 11.1918L12.7796 10.661C12.7796 10.627 12.7665 10.5928 12.7406 10.5582C12.7147 10.5234 12.6799 10.4942 12.6363 10.4705C12.6799 10.4469 12.7147 10.4177 12.7406 10.3829C12.7665 10.3481 12.7796 10.3138 12.7796 10.2801V9.87625C12.7796 9.84407 12.7731 9.81607 12.7605 9.79242C12.7478 9.76877 12.7309 9.74877 12.7097 9.73277C12.6884 9.71659 12.6644 9.70477 12.6373 9.69729C12.6102 9.68964 12.5824 9.68581 12.5535 9.68581H12.1396V11.3545H12.5865L12.5864 11.3542ZM12.3502 10.3636V9.89364H12.4544C12.4848 9.89364 12.5119 9.90216 12.5356 9.91903C12.5592 9.9359 12.5711 9.96129 12.5711 9.99521V10.2618C12.5711 10.2839 12.5631 10.3063 12.5469 10.3291C12.5309 10.3519 12.5091 10.3634 12.4822 10.3634H12.3502V10.3636ZM13.1497 11.4304H13.1344V9.8759C13.1344 9.83868 13.1412 9.8039 13.1547 9.77172C13.1683 9.73955 13.1872 9.71155 13.2119 9.6879C13.2366 9.66424 13.2648 9.64511 13.297 9.63068C13.3292 9.61624 13.3639 9.60911 13.4012 9.60911H13.6577C13.7067 9.60911 13.7513 9.62094 13.7911 9.64459C13.8309 9.66824 13.8626 9.69955 13.8864 9.73851L14.0641 9.91121C14.0878 9.93486 14.1069 9.96251 14.1214 9.99382C14.1358 10.0251 14.1429 10.0594 14.1429 10.0966V11.6434H13.7975L13.7137 11.5622V11.6434H13.3683L13.1499 11.43L13.1497 11.4304ZM13.4443 10.5211V9.99538C13.4443 9.97503 13.4519 9.95729 13.4671 9.94199C13.4824 9.92668 13.5001 9.91921 13.5205 9.91921H13.5382C13.5586 9.91921 13.5763 9.92686 13.5916 9.94199C13.6069 9.95729 13.6144 9.97503 13.6144 9.99538V10.5211H13.4443ZM13.8735 9.87607C13.8735 9.81677 13.8523 9.76599 13.81 9.72372C13.7678 9.68146 13.717 9.66024 13.6577 9.66024H13.4012C13.3419 9.66024 13.2911 9.68146 13.2488 9.72372C13.2065 9.76599 13.1853 9.81677 13.1853 9.87607V11.3798H13.4445V10.7778H13.6146V11.3798H13.8737V9.87607H13.8735ZM13.4189 10.5467V9.99556C13.4189 9.96842 13.4292 9.94477 13.4497 9.92442C13.4702 9.90408 13.4942 9.89399 13.5215 9.89399H13.5396C13.5669 9.89399 13.5909 9.90408 13.6114 9.92442C13.6319 9.94477 13.6422 9.96842 13.6422 9.99556V10.5467H13.4187H13.4189ZM13.8481 9.87607C13.8481 9.82181 13.8299 9.77659 13.7935 9.74025C13.7572 9.7039 13.7118 9.68564 13.6577 9.68564H13.4012C13.3469 9.68564 13.3017 9.7039 13.2653 9.74025C13.229 9.77659 13.2107 9.82199 13.2107 9.87607V11.3544H13.4191V10.7524H13.6426V11.3544H13.8483V9.87607H13.8481ZM14.2234 11.4305H14.2081V9.60946H14.7313C14.7803 9.60946 14.8248 9.62129 14.8647 9.64494C14.9045 9.66859 14.9362 9.6999 14.96 9.73885L15.1377 9.91155C15.1614 9.93521 15.1805 9.96286 15.1949 9.99416C15.2094 10.0255 15.2165 10.0597 15.2165 10.0969V10.7827C15.2165 10.8317 15.2055 10.8763 15.1835 10.9161C15.1614 10.9559 15.1292 10.9867 15.0869 11.0088C15.109 11.1104 15.1327 11.2175 15.1581 11.33C15.1835 11.4425 15.2071 11.5472 15.2292 11.6438H14.8711L14.7847 11.5599V11.6438H14.4417L14.2233 11.4304L14.2234 11.4305ZM14.9473 9.87607C14.9473 9.81677 14.9261 9.76599 14.8838 9.72372C14.8415 9.68146 14.7908 9.66024 14.7315 9.66024H14.2591V11.3798H14.5156V10.7778H14.5487L14.6807 11.3798H14.9473L14.8101 10.7625C14.8508 10.7472 14.8838 10.721 14.9092 10.6837C14.9346 10.6465 14.9473 10.6058 14.9473 10.5618V9.87607ZM14.6881 10.4425C14.6881 10.4629 14.6805 10.4806 14.6654 10.4959C14.6502 10.5112 14.6323 10.5187 14.612 10.5187H14.5154V9.91677H14.612C14.6341 9.91677 14.6521 9.92477 14.6666 9.94095C14.681 9.95712 14.6881 9.97521 14.6881 9.99556V10.4425ZM14.9219 9.87607C14.9219 9.82181 14.9036 9.77659 14.8673 9.74025C14.8309 9.7039 14.7855 9.68564 14.7315 9.68564H14.2845V11.3544H14.4902V10.7524H14.5714L14.7035 11.3544H14.9142L14.7822 10.7448C14.8245 10.7295 14.8584 10.705 14.8838 10.671C14.9092 10.6371 14.9219 10.6008 14.9219 10.5618V9.87607ZM14.7135 10.4425C14.7135 10.4697 14.7035 10.4933 14.6831 10.5137C14.6628 10.534 14.6391 10.5441 14.612 10.5441H14.4901V9.89138H14.612C14.6408 9.89138 14.6648 9.90199 14.6843 9.92321C14.7038 9.94442 14.7135 9.96842 14.7135 9.99556V10.4425ZM15.301 11.4305H15.2857V9.60946H15.8089C15.8579 9.60946 15.9024 9.62129 15.9423 9.64494C15.9821 9.66859 16.0137 9.6999 16.0376 9.73885L16.2153 9.91155C16.239 9.93521 16.2581 9.96286 16.2725 9.99416C16.287 10.0255 16.2941 10.0597 16.2941 10.0969V10.7827C16.2941 10.8317 16.2831 10.8763 16.261 10.9161C16.239 10.9559 16.2068 10.9867 16.1645 11.0088C16.1866 11.1104 16.2103 11.2175 16.2357 11.33C16.261 11.4425 16.2847 11.5472 16.3068 11.6438H15.9487L15.8623 11.5599V11.6438H15.5193L15.3009 11.4304L15.301 11.4305ZM16.0249 9.87607C16.0249 9.81677 16.0037 9.76599 15.9614 9.72372C15.9191 9.68146 15.8683 9.66024 15.809 9.66024H15.3367V11.3798H15.5932V10.7778H15.6263L15.7583 11.3798H16.0249L15.8877 10.7625C15.9283 10.7472 15.9614 10.721 15.9868 10.6837C16.0122 10.6465 16.0249 10.6058 16.0249 10.5618V9.87607ZM15.7657 10.4425C15.7657 10.4629 15.7581 10.4806 15.743 10.4959C15.7276 10.5112 15.7099 10.5187 15.6896 10.5187H15.593V9.91677H15.6896C15.7116 9.91677 15.7297 9.92477 15.7442 9.94095C15.7586 9.95712 15.7657 9.97521 15.7657 9.99556V10.4425ZM15.9995 9.87607C15.9995 9.82181 15.9812 9.77659 15.9449 9.74025C15.9085 9.7039 15.8631 9.68564 15.809 9.68564H15.3621V11.3544H15.5678V10.7524H15.649L15.781 11.3544H15.9918L15.8598 10.7448C15.9021 10.7295 15.936 10.705 15.9614 10.671C15.9868 10.6371 15.9995 10.6008 15.9995 10.5618V9.87607ZM15.7911 10.4425C15.7911 10.4697 15.781 10.4933 15.7607 10.5137C15.7403 10.534 15.7167 10.5441 15.6896 10.5441H15.5676V9.89138H15.6896C15.7184 9.89138 15.7424 9.90199 15.7619 9.92321C15.7814 9.94442 15.7911 9.96842 15.7911 9.99556V10.4425ZM16.7164 9.60946V9.62476L16.9348 9.83816V11.6441H16.5894L16.371 11.4307H16.3557V9.60963H16.7164V9.60946ZM16.4064 9.66024V11.3798H16.6656V9.66024H16.4064ZM16.4318 9.68564V11.3544H16.6402V9.68564H16.4318ZM17.1237 11.3951C17.0847 11.373 17.0531 11.3413 17.0284 11.2998C17.0038 11.2582 16.9915 11.213 16.9915 11.1639V9.87625C16.9915 9.83903 16.9983 9.80425 17.0118 9.77207C17.0254 9.7399 17.0444 9.7119 17.0691 9.68824C17.0936 9.66459 17.1219 9.64546 17.1541 9.63103C17.1863 9.61659 17.2211 9.60946 17.2583 9.60946H17.5148C17.5639 9.60946 17.6084 9.62129 17.6482 9.64494C17.688 9.66859 17.7197 9.6999 17.7435 9.73885L17.9213 9.91155C17.9449 9.93521 17.964 9.96286 17.9785 9.99416C17.9929 10.0255 18 10.0597 18 10.0969V11.3846C18 11.4201 17.9933 11.4537 17.9797 11.485C17.9661 11.5163 17.9475 11.5438 17.9239 11.5676C17.9002 11.5912 17.8726 11.6099 17.8413 11.6234C17.81 11.637 17.7766 11.6438 17.7409 11.6438H17.4844C17.4132 11.6438 17.3531 11.6192 17.304 11.57L17.1237 11.3947V11.3951ZM17.4717 11.0446C17.4717 11.0667 17.4646 11.0848 17.4501 11.0992C17.4357 11.1137 17.4176 11.1208 17.3955 11.1208H17.3778C17.3557 11.1208 17.3376 11.1137 17.3232 11.0992C17.3087 11.0848 17.3016 11.0667 17.3016 11.0446V9.99556C17.3016 9.97347 17.3087 9.95486 17.3232 9.93973C17.3376 9.9246 17.3557 9.91695 17.3778 9.91695H17.3955C17.4176 9.91695 17.4357 9.9246 17.4501 9.93973C17.4646 9.95486 17.4717 9.97364 17.4717 9.99556V11.0446ZM17.7308 9.87625C17.7308 9.81694 17.7096 9.76616 17.6673 9.7239C17.6251 9.68164 17.5743 9.66042 17.515 9.66042H17.2585C17.1992 9.66042 17.1484 9.68164 17.1061 9.7239C17.0638 9.76616 17.0426 9.81694 17.0426 9.87625V11.1639C17.0426 11.2232 17.0638 11.274 17.1061 11.3163C17.1484 11.3585 17.1992 11.3798 17.2585 11.3798H17.515C17.5743 11.3798 17.6251 11.3585 17.6673 11.3163C17.7096 11.274 17.7308 11.2232 17.7308 11.1639V9.87625ZM17.4997 11.0446C17.4997 11.0735 17.4898 11.0975 17.4701 11.117C17.4505 11.1365 17.4259 11.1462 17.3969 11.1462H17.3788C17.3498 11.1462 17.3252 11.1365 17.3056 11.117C17.2859 11.0975 17.276 11.0733 17.276 11.0446V9.99556C17.276 9.96669 17.2859 9.94216 17.3056 9.92181C17.3252 9.90147 17.3498 9.89138 17.3788 9.89138H17.3969C17.4259 9.89138 17.4505 9.90147 17.4701 9.92181C17.4898 9.94216 17.4997 9.96669 17.4997 9.99556V11.0446ZM17.7054 9.87625C17.7054 9.82199 17.6872 9.77677 17.6508 9.74042C17.6145 9.70407 17.5691 9.68581 17.515 9.68581H17.2585C17.2042 9.68581 17.159 9.70407 17.1226 9.74042C17.0863 9.77677 17.068 9.82216 17.068 9.87625V11.1639C17.068 11.2182 17.0863 11.2634 17.1226 11.2998C17.159 11.3361 17.2044 11.3544 17.2585 11.3544H17.515C17.5693 11.3544 17.6145 11.3361 17.6508 11.2998C17.6872 11.2634 17.7054 11.218 17.7054 11.1639V9.87625Z" fill="#E6E6E6"/>
<path d="M2.50801 9.609C2.55706 9.609 2.60158 9.62083 2.64141 9.64448C2.68123 9.66813 2.71289 9.69944 2.73671 9.73839L2.73932 9.741L2.91463 9.91127C2.93828 9.93492 2.95741 9.96257 2.97185 9.99388C2.98628 10.0252 2.99341 10.0594 2.99341 10.0967V10.785C2.99341 10.8511 2.98037 10.9019 2.95411 10.9374C2.92785 10.9729 2.89445 10.9984 2.85376 11.0136C2.81306 11.0289 2.76871 11.0372 2.72036 11.0389C2.67219 11.0407 2.62593 11.0416 2.58193 11.0416H2.57688V11.6435H2.23374L2.0153 11.4301H2V9.609H2.50801ZM2.30731 10.5208V9.91892H2.38853C2.40888 9.91892 2.42662 9.92657 2.44192 9.9417C2.45723 9.95701 2.46471 9.97475 2.46471 9.99509V10.4421C2.46471 10.4624 2.45758 10.4807 2.44314 10.4967C2.4287 10.5127 2.41062 10.5208 2.38853 10.5208H2.30731ZM2.05078 9.65978V11.3793H2.30731V10.7774C2.34801 10.7774 2.39236 10.7777 2.44071 10.7786C2.48888 10.7795 2.53427 10.7739 2.57653 10.7621C2.6188 10.7502 2.65393 10.7295 2.68193 10.6998C2.70993 10.6702 2.72384 10.6248 2.72384 10.564V9.87561C2.72384 9.81631 2.70262 9.76552 2.66036 9.72326C2.6181 9.681 2.56732 9.65978 2.50801 9.65978H2.05078ZM3.06628 11.4301H3.05098V9.87561C3.05098 9.8384 3.05776 9.80361 3.07133 9.77144C3.08489 9.73926 3.10385 9.71126 3.12855 9.68761C3.15307 9.66396 3.18142 9.64483 3.21359 9.63039C3.24577 9.61596 3.28055 9.60883 3.31777 9.60883H3.5743C3.62334 9.60883 3.66786 9.62065 3.70769 9.6443C3.74752 9.66796 3.77917 9.69926 3.803 9.73822L3.98074 9.91092C4.00439 9.93457 4.02352 9.96222 4.03796 9.99353C4.05239 10.0248 4.05952 10.0591 4.05952 10.0963V11.6431H3.71412L3.6303 11.5619V11.6431H3.2849L3.06646 11.4297L3.06628 11.4301ZM3.3609 10.5208V9.99509C3.3609 9.97475 3.36855 9.95701 3.38403 9.9417C3.39951 9.9264 3.4176 9.91892 3.43812 9.91892H3.45621C3.4769 9.91892 3.49482 9.92657 3.51029 9.9417C3.52577 9.95701 3.53342 9.97475 3.53342 9.99509V10.5208H3.36073H3.3609ZM3.79013 9.87579C3.79013 9.81648 3.76891 9.7657 3.72665 9.72344C3.68438 9.68118 3.6336 9.65996 3.5743 9.65996H3.31777C3.25846 9.65996 3.20768 9.68118 3.16542 9.72344C3.12315 9.7657 3.10194 9.81648 3.10194 9.87579V11.3795H3.36107V10.7775H3.53377V11.3795H3.7903V9.87579H3.79013Z" fill="#E6E6E6"/>
<path d="M4.38444 10.3016V10.2434C4.46966 10.1929 4.5274 10.1458 4.55801 10.102C4.57958 10.0705 4.59018 10.0329 4.59018 9.9891C4.59018 9.96353 4.58566 9.9444 4.57662 9.93206C4.56671 9.91971 4.55592 9.91345 4.54444 9.91345C4.5354 9.91345 4.5234 9.9164 4.50844 9.92214C4.48688 9.92962 4.46914 9.93327 4.45505 9.93327C4.42201 9.93327 4.39261 9.92092 4.36705 9.89605C4.34148 9.87118 4.32861 9.84023 4.32861 9.80301C4.32861 9.76162 4.34148 9.72944 4.36705 9.70631C4.40183 9.67483 4.44305 9.65918 4.49105 9.65918C4.54653 9.65918 4.59627 9.68248 4.64045 9.72927C4.68462 9.77605 4.70688 9.83414 4.70688 9.90353C4.70688 10.0011 4.67001 10.09 4.59645 10.1701C4.54775 10.223 4.47696 10.2668 4.38444 10.3016Z" fill="#E6E6E6"/>
<path d="M6.19944 9.62424L6.41788 9.83764V11.6436H6.07248L5.9683 11.542V11.6436H5.6229L5.40446 11.4302H5.38916V9.60911H5.74986V9.62442L5.83874 9.71085V9.60929H6.19944V9.62459V9.62424ZM6.14865 9.65972H5.88952V10.4319H5.69908V9.65972H5.43994V11.3792H5.69908V10.6884H5.88952V11.3792H6.14865V9.65972ZM6.48588 11.43H6.47057V9.87555C6.47057 9.83833 6.47736 9.80355 6.49092 9.77138C6.50449 9.7392 6.52345 9.7112 6.54814 9.68755C6.57284 9.6639 6.60101 9.64477 6.63319 9.63033C6.66536 9.6159 6.70015 9.60876 6.73736 9.60876H6.99389C7.04294 9.60876 7.08746 9.62059 7.12729 9.64424C7.16711 9.6679 7.19877 9.6992 7.22259 9.73816L7.40033 9.91086C7.42399 9.93451 7.44312 9.96216 7.45755 9.99347C7.47199 10.0248 7.47912 10.059 7.47912 10.0963V11.6431H7.13372L7.04989 11.5619V11.6431H6.70449L6.48605 11.4297L6.48588 11.43ZM6.78049 10.5208V9.99503C6.78049 9.97469 6.78815 9.95695 6.80363 9.94164C6.8191 9.92634 6.83719 9.91886 6.85771 9.91886H6.8758C6.8965 9.91886 6.91441 9.92651 6.92989 9.94164C6.94537 9.95695 6.95302 9.97469 6.95302 9.99503V10.5208H6.78032H6.78049ZM7.20972 9.87573C7.20972 9.81642 7.1885 9.76564 7.14624 9.72338C7.10398 9.68111 7.0532 9.6599 6.99389 9.6599H6.73736C6.67806 9.6599 6.62727 9.68111 6.58501 9.72338C6.54275 9.76564 6.52153 9.81642 6.52153 9.87573V11.3794H6.78067V10.7775H6.95337V11.3794H7.2099V9.87573H7.20972ZM7.54712 11.4302H7.53182V9.60911H8.0233C8.07757 9.60911 8.12905 9.62007 8.17739 9.64216C8.22574 9.66424 8.26348 9.69711 8.29079 9.74129L8.46905 9.9166L8.4741 9.91921C8.49618 9.94129 8.51358 9.96703 8.52627 9.9966C8.53897 10.0262 8.5454 10.0597 8.5454 10.0969V10.5008C8.5454 10.5804 8.5174 10.6439 8.46158 10.6912L8.46923 10.6963C8.52001 10.7453 8.5454 10.8072 8.5454 10.8817L8.54279 11.4125C8.54279 11.4464 8.53479 11.4772 8.51862 11.5052C8.50245 11.5332 8.4821 11.5572 8.45757 11.5775C8.43288 11.5979 8.4054 11.6139 8.37479 11.6257C8.34418 11.6375 8.31375 11.6434 8.28314 11.6434H7.76626L7.54729 11.43L7.54712 11.4302ZM8.01443 11.0441C8.01443 11.0662 8.00678 11.0848 7.99165 11.0999C7.97635 11.1152 7.95774 11.1227 7.93582 11.1227H7.84191V10.5996H7.93582C7.95791 10.5996 7.97652 10.6067 7.99165 10.6211C8.00696 10.6356 8.01443 10.6537 8.01443 10.6757V11.0441ZM8.05513 11.3794C8.08052 11.3794 8.10592 11.3747 8.13131 11.3655C8.1567 11.3561 8.17948 11.3431 8.19983 11.3262C8.22018 11.3093 8.23705 11.2893 8.25061 11.2665C8.26418 11.2438 8.27096 11.2187 8.27096 11.1916L8.27357 10.6608C8.27357 10.6218 8.26314 10.585 8.24227 10.5504C8.2214 10.5156 8.19426 10.489 8.16087 10.4703C8.19426 10.4517 8.2214 10.4251 8.24227 10.3903C8.26314 10.3556 8.27357 10.3189 8.27357 10.2799V9.87607C8.27357 9.8406 8.26644 9.80912 8.25201 9.78216C8.23757 9.75503 8.21896 9.73259 8.19618 9.71485C8.17339 9.69711 8.14661 9.68355 8.11618 9.67416C8.08574 9.66477 8.05444 9.66024 8.02226 9.66024H7.58277V11.3798H8.05513V11.3794ZM7.84434 10.338V9.91886H7.92313C7.94678 9.91886 7.968 9.92529 7.98661 9.93799C8.00522 9.95069 8.01461 9.96982 8.01461 9.99521V10.2618C8.01461 10.2787 8.0087 10.2957 7.99687 10.3126C7.98504 10.3295 7.96974 10.338 7.95113 10.338H7.84452H7.84434ZM8.6134 11.4302H8.5981V9.60911H8.95619V9.62442L9.17463 9.83781V11.0723H9.23307V11.0876L9.45151 11.301V11.6439H8.83184L8.6134 11.4305V11.4302ZM8.90541 11.1229V9.6599H8.64888V11.3794H9.18229V11.1229H8.90541ZM9.51325 11.4302H9.49795V9.87573C9.49795 9.83851 9.50473 9.80373 9.51829 9.77155C9.53186 9.73938 9.55082 9.71138 9.57551 9.68772C9.60003 9.66407 9.62838 9.64494 9.66056 9.6305C9.69273 9.61607 9.72752 9.60894 9.76473 9.60894H10.0213C10.0703 9.60894 10.1148 9.62076 10.1547 9.64442C10.1945 9.66807 10.2261 9.69938 10.25 9.73833L10.4277 9.91103C10.4514 9.93468 10.4705 9.96234 10.4849 9.99364C10.4994 10.0249 10.5065 10.0592 10.5065 10.0964V11.6432H10.1611L10.0773 11.562V11.6432H9.73186L9.51342 11.4298L9.51325 11.4302ZM9.80787 10.521V9.99521C9.80787 9.97486 9.81552 9.95712 9.831 9.94182C9.84647 9.92651 9.86456 9.91903 9.88508 9.91903H9.90317C9.92387 9.91903 9.94178 9.92668 9.95726 9.94182C9.97274 9.95695 9.98039 9.97486 9.98039 9.99521V10.521H9.80769H9.80787ZM10.2371 9.8759C10.2371 9.8166 10.2159 9.76581 10.1736 9.72355C10.1314 9.68129 10.0806 9.66007 10.0213 9.66007H9.76473C9.70543 9.66007 9.65464 9.68129 9.61238 9.72355C9.57012 9.76581 9.5489 9.8166 9.5489 9.8759V11.3796H9.80804V10.7777H9.98074V11.3796H10.2373V9.8759H10.2371ZM10.587 11.4304H10.5717V9.60929H11.0948C11.1439 9.60929 11.1884 9.62111 11.2282 9.64477C11.2681 9.66842 11.2997 9.69972 11.3236 9.73868L11.5013 9.91138C11.5249 9.93503 11.5441 9.96269 11.5585 9.99399C11.5729 10.0253 11.5801 10.0596 11.5801 10.0968V10.7825C11.5801 10.8316 11.5691 10.8761 11.547 10.9159C11.5249 10.9558 11.4928 10.9865 11.4505 11.0086C11.4726 11.1102 11.4962 11.2173 11.5216 11.3298C11.547 11.4424 11.5707 11.5471 11.5928 11.6436H11.2347L11.1482 11.5598V11.6436H10.8053L10.5868 11.4302L10.587 11.4304ZM11.3109 9.8759C11.3109 9.8166 11.2896 9.76581 11.2474 9.72355C11.2051 9.68129 11.1543 9.66007 11.095 9.66007H10.6227V11.3796H10.8792V10.7777H10.9122L11.0442 11.3796H11.3109L11.1736 10.7624C11.2143 10.7471 11.2474 10.7208 11.2728 10.6836C11.2982 10.6464 11.3109 10.6057 11.3109 10.5617V9.8759ZM11.0517 10.4423C11.0517 10.4627 11.0441 10.4804 11.0289 10.4957C11.0136 10.511 10.9959 10.5185 10.9755 10.5185H10.879V9.9166H10.9755C10.9976 9.9166 11.0157 9.9246 11.0302 9.94077C11.0446 9.95695 11.0517 9.97503 11.0517 9.99538V10.4423ZM12.0783 11.4304H12.063V9.60929H12.5545C12.6088 9.60929 12.6603 9.62024 12.7086 9.64233C12.757 9.66442 12.7947 9.69729 12.822 9.74146L13.0003 9.91677L13.0053 9.91938C13.0274 9.94147 13.0448 9.96721 13.0575 9.99677C13.0702 10.0263 13.0766 10.0599 13.0766 10.0971V10.501C13.0766 10.5806 13.0486 10.6441 12.9928 10.6914L13.0005 10.6964C13.0512 10.7455 13.0766 10.8074 13.0766 10.8818L13.074 11.4126C13.074 11.4465 13.066 11.4773 13.0498 11.5053C13.0337 11.5333 13.0133 11.5573 12.9888 11.5777C12.9641 11.598 12.9366 11.614 12.906 11.6259C12.8754 11.6377 12.845 11.6436 12.8144 11.6436H12.2975L12.0785 11.4302L12.0783 11.4304ZM12.5457 11.0443C12.5457 11.0664 12.538 11.085 12.5229 11.1001C12.5076 11.1154 12.489 11.1229 12.4671 11.1229H12.3731V10.5997H12.4671C12.4891 10.5997 12.5078 10.6069 12.5229 10.6213C12.5382 10.6357 12.5457 10.6538 12.5457 10.6759V11.0443ZM12.5864 11.3796C12.6118 11.3796 12.6371 11.3749 12.6625 11.3657C12.6879 11.3563 12.7107 11.3432 12.7311 11.3264C12.7514 11.3095 12.7683 11.2895 12.7818 11.2667C12.7954 11.2439 12.8022 11.2189 12.8022 11.1918L12.8048 10.661C12.8048 10.622 12.7944 10.5851 12.7735 10.5505C12.7526 10.5159 12.7255 10.4891 12.6921 10.4705C12.7255 10.4519 12.7526 10.4253 12.7735 10.3905C12.7944 10.3557 12.8048 10.319 12.8048 10.2801V9.87625C12.8048 9.84077 12.7977 9.80929 12.7832 9.78233C12.7688 9.7552 12.7502 9.73277 12.7274 9.71503C12.7046 9.69729 12.6778 9.68372 12.6474 9.67433C12.617 9.66494 12.5857 9.66042 12.5535 9.66042H12.114V11.3799H12.5864V11.3796ZM12.3756 10.3382V9.91903H12.4544C12.478 9.91903 12.4992 9.92547 12.5178 9.93816C12.5364 9.95086 12.5458 9.96999 12.5458 9.99538V10.262C12.5458 10.2789 12.5399 10.2959 12.5281 10.3128C12.5163 10.3296 12.501 10.3382 12.4824 10.3382H12.3757H12.3756ZM13.1497 11.4304H13.1344V9.8759C13.1344 9.83868 13.1412 9.8039 13.1547 9.77172C13.1683 9.73955 13.1872 9.71155 13.2119 9.6879C13.2366 9.66424 13.2648 9.64511 13.297 9.63068C13.3292 9.61624 13.3639 9.60911 13.4012 9.60911H13.6577C13.7067 9.60911 13.7513 9.62094 13.7911 9.64459C13.8309 9.66824 13.8626 9.69955 13.8864 9.73851L14.0641 9.91121C14.0878 9.93486 14.1069 9.96251 14.1214 9.99382C14.1358 10.0251 14.1429 10.0594 14.1429 10.0966V11.6434H13.7975L13.7137 11.5622V11.6434H13.3683L13.1499 11.43L13.1497 11.4304ZM13.4443 10.5211V9.99538C13.4443 9.97503 13.4519 9.95729 13.4674 9.94199C13.4829 9.92668 13.501 9.91921 13.5215 9.91921H13.5396C13.5603 9.91921 13.5782 9.92686 13.5937 9.94199C13.6092 9.95729 13.6168 9.97503 13.6168 9.99538V10.5211H13.4441H13.4443ZM13.8735 9.87607C13.8735 9.81677 13.8523 9.76599 13.81 9.72372C13.7678 9.68146 13.717 9.66024 13.6577 9.66024H13.4012C13.3419 9.66024 13.2911 9.68146 13.2488 9.72372C13.2065 9.76599 13.1853 9.81677 13.1853 9.87607V11.3798H13.4445V10.7778H13.6172V11.3798H13.8737V9.87607H13.8735ZM14.2234 11.4305H14.2081V9.60946H14.7313C14.7803 9.60946 14.8248 9.62129 14.8647 9.64494C14.9045 9.66859 14.9362 9.6999 14.96 9.73885L15.1377 9.91155C15.1614 9.93521 15.1805 9.96286 15.1949 9.99416C15.2094 10.0255 15.2165 10.0597 15.2165 10.0969V10.7827C15.2165 10.8317 15.2055 10.8763 15.1835 10.9161C15.1614 10.9559 15.1292 10.9867 15.0869 11.0088C15.109 11.1104 15.1327 11.2175 15.1581 11.33C15.1835 11.4425 15.2071 11.5472 15.2292 11.6438H14.8711L14.7847 11.5599V11.6438H14.4417L14.2233 11.4304L14.2234 11.4305ZM14.9473 9.87607C14.9473 9.81677 14.9261 9.76599 14.8838 9.72372C14.8415 9.68146 14.7908 9.66024 14.7315 9.66024H14.2591V11.3798H14.5156V10.7778H14.5487L14.6807 11.3798H14.9473L14.8101 10.7625C14.8508 10.7472 14.8838 10.721 14.9092 10.6837C14.9346 10.6465 14.9473 10.6058 14.9473 10.5618V9.87607ZM14.6881 10.4425C14.6881 10.4629 14.6805 10.4806 14.6654 10.4959C14.6502 10.5112 14.6323 10.5187 14.612 10.5187H14.5154V9.91677H14.612C14.6341 9.91677 14.6521 9.92477 14.6666 9.94095C14.681 9.95712 14.6881 9.97521 14.6881 9.99556V10.4425ZM15.301 11.4305H15.2857V9.60946H15.8089C15.8579 9.60946 15.9024 9.62129 15.9423 9.64494C15.9821 9.66859 16.0137 9.6999 16.0376 9.73885L16.2153 9.91155C16.239 9.93521 16.2581 9.96286 16.2725 9.99416C16.287 10.0255 16.2941 10.0597 16.2941 10.0969V10.7827C16.2941 10.8317 16.2831 10.8763 16.261 10.9161C16.239 10.9559 16.2068 10.9867 16.1645 11.0088C16.1866 11.1104 16.2103 11.2175 16.2357 11.33C16.261 11.4425 16.2847 11.5472 16.3068 11.6438H15.9487L15.8623 11.5599V11.6438H15.5193L15.3009 11.4304L15.301 11.4305ZM16.0249 9.87607C16.0249 9.81677 16.0037 9.76599 15.9614 9.72372C15.9191 9.68146 15.8683 9.66024 15.809 9.66024H15.3367V11.3798H15.5932V10.7778H15.6263L15.7583 11.3798H16.0249L15.8877 10.7625C15.9283 10.7472 15.9614 10.721 15.9868 10.6837C16.0122 10.6465 16.0249 10.6058 16.0249 10.5618V9.87607ZM15.7657 10.4425C15.7657 10.4629 15.7581 10.4806 15.743 10.4959C15.7276 10.5112 15.7099 10.5187 15.6896 10.5187H15.593V9.91677H15.6896C15.7116 9.91677 15.7297 9.92477 15.7442 9.94095C15.7586 9.95712 15.7657 9.97521 15.7657 9.99556V10.4425ZM16.7164 9.60946V9.62476L16.9348 9.83816V11.6441H16.5894L16.371 11.4307H16.3557V9.60963H16.7164V9.60946ZM16.4064 9.66024V11.3798H16.6656V9.66024H16.4064ZM17.1237 11.3951C17.0847 11.373 17.0531 11.3413 17.0284 11.2998C17.0038 11.2582 16.9915 11.213 16.9915 11.1639V9.87625C16.9915 9.83903 16.9983 9.80425 17.0118 9.77207C17.0254 9.7399 17.0444 9.7119 17.0691 9.68824C17.0936 9.66459 17.1219 9.64546 17.1541 9.63103C17.1863 9.61659 17.2211 9.60946 17.2583 9.60946H17.5148C17.5639 9.60946 17.6084 9.62129 17.6482 9.64494C17.688 9.66859 17.7197 9.6999 17.7435 9.73885L17.9213 9.91155C17.9449 9.93521 17.964 9.96286 17.9785 9.99416C17.9929 10.0255 18 10.0597 18 10.0969V11.3846C18 11.4201 17.9933 11.4537 17.9797 11.485C17.9661 11.5163 17.9475 11.5438 17.9239 11.5676C17.9002 11.5912 17.8726 11.6099 17.8413 11.6234C17.81 11.637 17.7766 11.6438 17.7409 11.6438H17.4844C17.4132 11.6438 17.3531 11.6192 17.304 11.57L17.1237 11.3947V11.3951ZM17.4741 11.0446C17.4741 11.0667 17.4668 11.0848 17.4522 11.0992C17.4376 11.1137 17.4192 11.1208 17.3967 11.1208H17.3786C17.3562 11.1208 17.3378 11.1137 17.3232 11.0992C17.3086 11.0848 17.3012 11.0667 17.3012 11.0446V9.99556C17.3012 9.97347 17.3086 9.95486 17.3232 9.93973C17.3378 9.92442 17.3562 9.91695 17.3786 9.91695H17.3967C17.4192 9.91695 17.4376 9.9246 17.4522 9.93973C17.4668 9.95503 17.4741 9.97364 17.4741 9.99556V11.0446ZM17.7306 9.87625C17.7306 9.81694 17.7094 9.76616 17.6672 9.7239C17.6249 9.68164 17.5741 9.66042 17.5148 9.66042H17.2583C17.199 9.66042 17.1482 9.68164 17.1059 9.7239C17.0637 9.76616 17.0425 9.81694 17.0425 9.87625V11.1639C17.0425 11.2232 17.0637 11.274 17.1059 11.3163C17.1482 11.3585 17.199 11.3798 17.2583 11.3798H17.5148C17.5741 11.3798 17.6249 11.3585 17.6672 11.3163C17.7094 11.274 17.7306 11.2232 17.7306 11.1639V9.87625Z" fill="#E6E6E6"/>
<mask id="mask0_1173_3753" style="mask-type:luminance" maskUnits="userSpaceOnUse" x="2" y="10" width="16" height="2">
<path d="M17.73 10.6938H2.07886V11.3812H17.73V10.6938Z" fill="white"/>
</mask>
<g mask="url(#mask0_1173_3753)">
<path d="M2.64359 9.76219C2.60724 9.72584 2.56185 9.70758 2.50776 9.70758H2.07593V11.3763H2.28167V10.7744H2.35541C2.39263 10.7744 2.43159 10.774 2.47228 10.7732C2.51298 10.7723 2.54968 10.7664 2.58272 10.7554C2.61577 10.7445 2.64324 10.7259 2.66533 10.6996C2.68742 10.6733 2.69838 10.6356 2.69838 10.5866V9.89819C2.69838 9.84393 2.68011 9.79871 2.64377 9.76236L2.64359 9.76219ZM2.48985 10.4645C2.48985 10.4916 2.48011 10.5158 2.46063 10.5368C2.44115 10.558 2.41698 10.5686 2.38828 10.5686H2.28167V9.91593H2.38828C2.41541 9.91593 2.43907 9.92602 2.45941 9.94637C2.47976 9.96672 2.48985 9.99037 2.48985 10.0175V10.4645Z" fill="#E6E6E6"/>
<path d="M3.70999 9.76225C3.67364 9.7259 3.62825 9.70764 3.57416 9.70764H3.31764C3.26337 9.70764 3.21816 9.7259 3.18181 9.76225C3.14546 9.7986 3.1272 9.84399 3.1272 9.89808V11.3764H3.33555V10.7744H3.55903V11.3764H3.76478V9.89808C3.76478 9.84382 3.74652 9.7986 3.71017 9.76225H3.70999ZM3.55886 10.5687H3.33538V10.0176C3.33538 9.99043 3.34564 9.96678 3.36616 9.94643C3.38668 9.92608 3.41068 9.91599 3.43799 9.91599H3.45607C3.48338 9.91599 3.50738 9.92608 3.5279 9.94643C3.54842 9.96678 3.55868 9.99043 3.55868 10.0176V10.5687H3.55886Z" fill="#E6E6E6"/>
<path d="M6.12302 9.70764H5.91466V10.4798H5.67344V9.70764H5.46509V11.3764H5.67344V10.6856H5.91466V11.3764H6.12302V9.70764Z" fill="#E6E6E6"/>
<path d="M7.12943 9.76225C7.09308 9.7259 7.04769 9.70764 6.9936 9.70764H6.73707C6.68281 9.70764 6.63759 9.7259 6.60124 9.76225C6.56489 9.7986 6.54663 9.84399 6.54663 9.89808V11.3764H6.75498V10.7744H6.97847V11.3764H7.18421V9.89808C7.18421 9.84382 7.16595 9.7986 7.1296 9.76225H7.12943ZM6.97829 10.5687H6.75481V10.0176C6.75481 9.99043 6.76507 9.96678 6.78559 9.94643C6.80611 9.92608 6.83012 9.91599 6.85742 9.91599H6.87551C6.90281 9.91599 6.92681 9.92608 6.94734 9.94643C6.96786 9.96678 6.97812 9.99043 6.97812 10.0176V10.5687H6.97829Z" fill="#E6E6E6"/>
<path d="M8.20872 10.4049C8.23464 10.3701 8.24768 10.3358 8.24768 10.3021V9.89826C8.24768 9.86609 8.24124 9.83809 8.22855 9.81444C8.21585 9.79078 8.19898 9.77078 8.17777 9.75478C8.15655 9.73861 8.13255 9.72678 8.10542 9.7193C8.07828 9.71165 8.05046 9.70782 8.02159 9.70782H7.60767V11.3766H8.05463C8.07672 11.3766 8.09863 11.3724 8.12072 11.3639C8.14281 11.3553 8.16298 11.344 8.18177 11.3296C8.20037 11.3152 8.21568 11.2983 8.22751 11.2788C8.23933 11.2593 8.24524 11.2378 8.24524 11.2141L8.24785 10.6833C8.24785 10.6494 8.23481 10.6151 8.2089 10.5805C8.18298 10.5458 8.1482 10.5165 8.10455 10.4929C8.1482 10.4692 8.18298 10.44 8.2089 10.4052L8.20872 10.4049ZM8.0395 11.0665C8.0395 11.0953 8.02941 11.1199 8.00907 11.1402C7.98872 11.1606 7.9642 11.1706 7.93533 11.1706H7.81602V10.5965H7.93533C7.9642 10.5965 7.98872 10.6063 8.00907 10.6258C8.02941 10.6452 8.0395 10.6694 8.0395 10.6981V11.0665ZM8.0395 10.2842C8.0395 10.3063 8.0315 10.3287 8.01533 10.3515C7.99933 10.3743 7.97759 10.3858 7.95063 10.3858H7.81863V9.91583H7.9228C7.95324 9.91583 7.98037 9.92435 8.00402 9.94122C8.02767 9.95809 8.0395 9.98348 8.0395 10.0174V10.284V10.2842Z" fill="#E6E6E6"/>
<path d="M12.7385 10.4049C12.7644 10.3701 12.7775 10.3358 12.7775 10.3021V9.89826C12.7775 9.86609 12.771 9.83809 12.7583 9.81444C12.7456 9.79078 12.7288 9.77078 12.7076 9.75478C12.6863 9.73861 12.6623 9.72678 12.6352 9.7193C12.6081 9.71165 12.5802 9.70782 12.5514 9.70782H12.1375V11.3766H12.5844C12.6065 11.3766 12.6284 11.3724 12.6505 11.3639C12.6726 11.3553 12.6928 11.344 12.7116 11.3296C12.7302 11.3152 12.7455 11.2983 12.7573 11.2788C12.7691 11.2593 12.775 11.2378 12.775 11.2141L12.7776 10.6833C12.7776 10.6494 12.7646 10.6151 12.7387 10.5805C12.7128 10.5458 12.678 10.5165 12.6343 10.4929C12.678 10.4692 12.7128 10.44 12.7387 10.4052L12.7385 10.4049ZM12.5693 11.0665C12.5693 11.0953 12.5592 11.1199 12.5389 11.1402C12.5185 11.1606 12.494 11.1706 12.4651 11.1706H12.3458V10.5965H12.4651C12.494 10.5965 12.5185 10.6063 12.5389 10.6258C12.5592 10.6452 12.5693 10.6694 12.5693 10.6981V11.0665ZM12.5693 10.2842C12.5693 10.3063 12.5613 10.3287 12.5451 10.3515C12.5291 10.3743 12.5074 10.3858 12.4804 10.3858H12.3484V9.91583H12.4526C12.483 9.91583 12.5102 9.92435 12.5338 9.94122C12.5575 9.95809 12.5693 9.98348 12.5693 10.0174V10.284V10.2842Z" fill="#E6E6E6"/>
<path d="M8.87964 11.1706V9.70764H8.67407V11.3764H9.15652V11.1706H8.87964Z" fill="#E6E6E6"/>
<path d="M10.1568 9.76225C10.1204 9.7259 10.075 9.70764 10.0209 9.70764H9.76441C9.71015 9.70764 9.66493 9.7259 9.62858 9.76225C9.59224 9.7986 9.57397 9.84399 9.57397 9.89808V11.3764H9.78233V10.7744H10.0058V11.3764H10.2116V9.89808C10.2116 9.84382 10.1933 9.7986 10.1569 9.76225H10.1568ZM10.0056 10.5687H9.78215V10.0176C9.78215 9.99043 9.79241 9.96678 9.81294 9.94643C9.83346 9.92608 9.85746 9.91599 9.88476 9.91599H9.90285C9.93016 9.91599 9.95416 9.92608 9.97468 9.94643C9.9952 9.96678 10.0055 9.99043 10.0055 10.0176V10.5687H10.0056Z" fill="#E6E6E6"/>
<path d="M11.247 10.6931C11.2724 10.6591 11.2851 10.6228 11.2851 10.5838V9.89808C11.2851 9.84382 11.2668 9.7986 11.2305 9.76225C11.1942 9.7259 11.1488 9.70764 11.0947 9.70764H10.6477V11.3764H10.8534V10.7744H10.9347L11.0667 11.3764H11.2775L11.1455 10.7668C11.1877 10.7515 11.2216 10.727 11.247 10.6931ZM11.0769 10.4645C11.0769 10.4917 11.0668 10.5153 11.0465 10.5357C11.0261 10.556 11.0025 10.5661 10.9754 10.5661H10.8534V9.91339H10.9754C11.0042 9.91339 11.0282 9.92399 11.0477 9.94521C11.0672 9.96643 11.0769 9.99043 11.0769 10.0176V10.4645Z" fill="#E6E6E6"/>
<path d="M14.8867 10.6931C14.9121 10.6591 14.9248 10.6228 14.9248 10.5838V9.89808C14.9248 9.84382 14.9065 9.7986 14.8701 9.76225C14.8338 9.7259 14.7884 9.70764 14.7343 9.70764H14.2874V11.3764H14.4931V10.7744H14.5743L14.7063 11.3764H14.9171L14.7851 10.7668C14.8274 10.7515 14.8613 10.727 14.8867 10.6931ZM14.7166 10.4645C14.7166 10.4917 14.7065 10.5153 14.6861 10.5357C14.6658 10.556 14.6421 10.5661 14.615 10.5661H14.4931V9.91339H14.615C14.6439 9.91339 14.6679 9.92399 14.6874 9.94521C14.7068 9.96643 14.7166 9.99043 14.7166 10.0176V10.4645Z" fill="#E6E6E6"/>
<path d="M15.957 10.6931C15.9824 10.6591 15.9951 10.6228 15.9951 10.5838V9.89808C15.9951 9.84382 15.9768 9.7986 15.9405 9.76225C15.9041 9.7259 15.8587 9.70764 15.8046 9.70764H15.3577V11.3764H15.5634V10.7744H15.6446L15.7766 11.3764H15.9874L15.8554 10.7668C15.8977 10.7515 15.9316 10.727 15.957 10.6931ZM15.7869 10.4645C15.7869 10.4917 15.7768 10.5153 15.7565 10.5357C15.7361 10.556 15.7125 10.5661 15.6853 10.5661H15.5634V9.91339H15.6853C15.7142 9.91339 15.7382 9.92399 15.7577 9.94521C15.7772 9.96643 15.7869 9.99043 15.7869 10.0176V10.4645Z" fill="#E6E6E6"/>
<path d="M13.7935 9.76225C13.7571 9.7259 13.7117 9.70764 13.6577 9.70764H13.4011C13.3469 9.70764 13.3017 9.7259 13.2653 9.76225C13.229 9.7986 13.2107 9.84399 13.2107 9.89808V11.3764H13.419V10.7744H13.6425V11.3764H13.8483V9.89808C13.8483 9.84382 13.83 9.7986 13.7937 9.76225H13.7935ZM13.6424 10.5687H13.4189V10.0176C13.4189 9.99043 13.4291 9.96678 13.4497 9.94643C13.4702 9.92608 13.4942 9.91599 13.5215 9.91599H13.5396C13.5669 9.91599 13.5909 9.92608 13.6114 9.94643C13.6319 9.96678 13.6422 9.99043 13.6422 10.0176V10.5687H13.6424Z" fill="#E6E6E6"/>
<path d="M16.4321 9.70764V11.3764H16.6403V9.70764H16.4321Z" fill="#E6E6E6"/>
<path d="M17.6509 9.76225C17.6146 9.7259 17.5692 9.70764 17.5151 9.70764H17.2586C17.2043 9.70764 17.1591 9.7259 17.1227 9.76225C17.0864 9.7986 17.0681 9.84399 17.0681 9.89808V11.1858C17.0681 11.24 17.0864 11.2852 17.1227 11.3216C17.1591 11.3579 17.2045 11.3762 17.2586 11.3762H17.5151C17.5693 11.3762 17.6146 11.3579 17.6509 11.3216C17.6873 11.2852 17.7055 11.2398 17.7055 11.1858V9.89808C17.7055 9.84382 17.6873 9.7986 17.6509 9.76225ZM17.4998 11.0665C17.4998 11.0953 17.4899 11.1193 17.4702 11.1388C17.4506 11.1583 17.426 11.168 17.397 11.168H17.3789C17.3499 11.168 17.3253 11.1583 17.3057 11.1388C17.286 11.1193 17.2761 11.0952 17.2761 11.0665V10.0174C17.2761 9.98852 17.286 9.964 17.3057 9.94365C17.3253 9.9233 17.3499 9.91321 17.3789 9.91321H17.397C17.426 9.91321 17.4506 9.9233 17.4702 9.94365C17.4899 9.964 17.4998 9.98852 17.4998 10.0174V11.0665Z" fill="#E6E6E6"/>
</g>
</g>
<path opacity="0.9" fill-rule="evenodd" clip-rule="evenodd" d="M16.138 8.67544L16.074 8.61353C16.081 8.62779 16.0848 8.64413 16.0848 8.66118V8.93684C16.0848 8.96745 16.077 8.9911 16.0615 9.00727C16.0476 9.0224 16.0297 9.03284 16.0088 9.03858C15.9909 9.04362 15.9719 9.04588 15.9518 9.04588H15.9474C15.937 9.04588 15.9272 9.04553 15.9175 9.04553V9.28641H15.7803L15.8648 9.36885H16.0024V9.12797H16.0043C16.0222 9.12797 16.0403 9.12762 16.0598 9.12675C16.0791 9.12606 16.097 9.12258 16.1133 9.11667C16.1297 9.11041 16.1432 9.10049 16.1537 9.08606C16.1641 9.0718 16.1695 9.05162 16.1695 9.02484V8.74953C16.1695 8.73475 16.1667 8.72083 16.161 8.70848C16.1552 8.69579 16.1474 8.68483 16.1377 8.67527L16.138 8.67544Z" fill="#E6E6E6"/>
<path opacity="0.9" fill-rule="evenodd" clip-rule="evenodd" d="M15.9324 8.89455C15.9346 8.89177 15.9352 8.88986 15.9352 8.88829V8.70933C15.9352 8.70777 15.9352 8.70655 15.9329 8.70429C15.9306 8.70203 15.9294 8.70203 15.9278 8.70203H15.9185V8.89594H15.9278C15.9306 8.89629 15.9313 8.8956 15.9325 8.89438L15.9324 8.89455Z" fill="#E6E6E6"/>
<path opacity="0.9" fill-rule="evenodd" clip-rule="evenodd" d="M16.7641 9.05768V9.17855C16.7641 9.20795 16.7533 9.23334 16.7319 9.25456C16.7105 9.27577 16.6846 9.28656 16.6556 9.28656H16.5514C16.5336 9.28656 16.5176 9.28273 16.5027 9.27577L16.5684 9.33943C16.5883 9.35908 16.6126 9.36882 16.6416 9.36882H16.7455C16.759 9.36882 16.7723 9.36604 16.7846 9.36065C16.797 9.35525 16.8083 9.34795 16.8175 9.33821C16.8272 9.32864 16.8345 9.31769 16.8399 9.30534C16.8453 9.29299 16.8481 9.27977 16.8481 9.26638V9.12847L16.7637 9.0462V9.05733H16.7641V9.05768Z" fill="#E6E6E6"/>
<path opacity="0.9" fill-rule="evenodd" clip-rule="evenodd" d="M16.7526 8.61249C16.7602 8.62762 16.7637 8.64379 16.7637 8.66205V8.80536H16.6148V8.78206C16.6148 8.77162 16.6155 8.75997 16.6171 8.74727C16.6183 8.73719 16.6183 8.72797 16.6171 8.71945C16.6164 8.71319 16.6143 8.70814 16.6113 8.70466C16.611 8.70432 16.6075 8.70275 16.5993 8.70275C16.5978 8.70275 16.5966 8.70275 16.5943 8.70501C16.592 8.70727 16.592 8.70849 16.592 8.71006V9.12972C16.592 9.1325 16.5924 9.13389 16.5927 9.13476C16.5962 9.13702 16.6009 9.13824 16.6066 9.13824C16.6094 9.13824 16.6105 9.13789 16.6105 9.13789L16.6108 9.13754C16.614 9.13215 16.6159 9.12519 16.6166 9.11737C16.6173 9.10763 16.6173 9.09754 16.6166 9.08763C16.6153 9.07528 16.615 9.06554 16.615 9.05824V9.03493H16.6769V8.85493L16.7113 8.88867H16.8486V8.7504C16.8486 8.72136 16.8385 8.69666 16.818 8.67614L16.7522 8.61266L16.7526 8.61249Z" fill="#E6E6E6"/>
<path opacity="0.9" fill-rule="evenodd" clip-rule="evenodd" d="M13.2515 9.13666C13.2515 9.13666 13.255 9.13823 13.261 9.13823C13.263 9.13823 13.2642 9.13788 13.2649 9.13788C13.2671 9.13406 13.2687 9.12936 13.2694 9.12397C13.2706 9.11666 13.271 9.10849 13.2701 9.10032C13.2694 9.09023 13.2689 9.08136 13.2689 9.07353C13.2689 9.07162 13.2689 9.06918 13.2685 9.06727L13.2464 9.04553V9.05718C13.2464 9.06727 13.2461 9.07892 13.2449 9.09145C13.2442 9.10153 13.2442 9.11127 13.2452 9.12014C13.2464 9.1271 13.2483 9.13249 13.2513 9.13684L13.2515 9.13666Z" fill="#E6E6E6"/>
<path opacity="0.9" fill-rule="evenodd" clip-rule="evenodd" d="M13.4306 8.99807L13.4214 8.98989L13.4195 8.98868L13.4125 8.98172L13.4144 8.98363L13.3854 8.95459C13.3923 8.96468 13.3981 8.97511 13.4036 8.98589C13.4137 9.00676 13.4188 9.02972 13.4188 9.05407V9.1779C13.4188 9.20729 13.408 9.23286 13.3866 9.25407C13.3654 9.27529 13.3393 9.28625 13.3102 9.28625H13.2064C13.1887 9.28625 13.1723 9.28242 13.1577 9.27494L13.2247 9.33999C13.2436 9.35895 13.2676 9.36869 13.2967 9.36869H13.4005C13.4141 9.36869 13.4273 9.3659 13.4396 9.36051C13.452 9.35512 13.4633 9.34782 13.4725 9.33808C13.4817 9.32834 13.4895 9.31755 13.4949 9.30521C13.5003 9.29286 13.5031 9.27964 13.5031 9.26607V9.14225C13.5031 9.11164 13.4962 9.08503 13.4819 9.06137C13.4676 9.03807 13.4506 9.01685 13.4308 8.9979L13.4306 8.99807Z" fill="#E6E6E6"/>
<path opacity="0.9" fill-rule="evenodd" clip-rule="evenodd" d="M13.4069 8.61249C13.4148 8.62762 13.4182 8.64379 13.4182 8.66205V8.80536H13.269V8.78206C13.269 8.77284 13.2694 8.76153 13.2706 8.74919C13.2713 8.7391 13.2713 8.72901 13.2702 8.72014C13.2695 8.71353 13.2675 8.70814 13.2648 8.70466C13.2645 8.70432 13.2621 8.7031 13.2548 8.7031C13.2532 8.7031 13.2509 8.70345 13.2485 8.70588C13.2473 8.7071 13.2466 8.70779 13.2466 8.71058V8.78884C13.2466 8.79858 13.2497 8.8078 13.2555 8.81667C13.2605 8.82449 13.2734 8.83997 13.3059 8.87041C13.3172 8.88084 13.3273 8.89058 13.3361 8.89945C13.333 8.89215 13.3311 8.88467 13.3311 8.87702V8.85458L13.3655 8.88832H13.5031V8.7504C13.5031 8.72136 13.493 8.69666 13.4725 8.67614L13.4069 8.61266V8.61249Z" fill="#E6E6E6"/>
<path opacity="0.9" fill-rule="evenodd" clip-rule="evenodd" d="M16.3402 8.57558V9.26377V9.28708H16.3169H16.2135H16.2021L16.2865 9.36986H16.4244V8.64689L16.3402 8.56445V8.57558Z" fill="#E6E6E6"/>
<path opacity="0.9" fill-rule="evenodd" clip-rule="evenodd" d="M13.7578 9.06084H13.8599V8.9224L13.7748 8.83997V8.8511V8.95492V8.97823H13.7515H13.6731V9.13823H13.7578V9.06084Z" fill="#E6E6E6"/>
<path opacity="0.9" fill-rule="evenodd" clip-rule="evenodd" d="M13.796 9.16102V9.26363V9.28694H13.7729H13.5477H13.5364L13.6211 9.3699H13.8807V9.23233L13.796 9.14972V9.16102Z" fill="#E6E6E6"/>
<path opacity="0.9" fill-rule="evenodd" clip-rule="evenodd" d="M13.7959 8.57558V8.67906V8.7022H13.7726H13.6731V8.82742H13.7514H13.7574V8.78446H13.8808V8.64672L13.7959 8.56445V8.57558Z" fill="#E6E6E6"/>
<path opacity="0.9" fill-rule="evenodd" clip-rule="evenodd" d="M15.2401 8.57558V8.67854V8.70185H15.2168H15.1616V9.26377V9.28708H15.1383H15.0343H15.0232L15.1077 9.36986H15.2463V8.78428H15.3246V8.64689L15.2401 8.56445V8.57558Z" fill="#E6E6E6"/>
<path opacity="0.9" fill-rule="evenodd" clip-rule="evenodd" d="M14.9451 8.70117L15.0119 8.76691V8.70117H14.9567H14.9451Z" fill="#E6E6E6"/>
<path opacity="0.9" fill-rule="evenodd" clip-rule="evenodd" d="M14.2331 8.99807L14.2239 8.98989L14.2219 8.98868L14.215 8.98172L14.2169 8.98363L14.1879 8.95459C14.1948 8.96468 14.2006 8.97511 14.2061 8.98589C14.2162 9.00676 14.2213 9.02972 14.2213 9.05407V9.1779C14.2213 9.20729 14.2105 9.23286 14.1891 9.25407C14.1677 9.27529 14.1418 9.28625 14.1127 9.28625H14.0089C13.9912 9.28625 13.9748 9.28242 13.9602 9.27494L14.0272 9.33999C14.0461 9.35895 14.0701 9.36869 14.0992 9.36869H14.203C14.2166 9.36869 14.2298 9.3659 14.2421 9.36051C14.2545 9.35512 14.2658 9.34782 14.275 9.33808C14.2842 9.32834 14.292 9.31755 14.2974 9.30521C14.3028 9.29286 14.3056 9.27964 14.3056 9.26607V9.14225C14.3056 9.11164 14.2986 9.08503 14.2844 9.06137C14.2696 9.03807 14.2526 9.01685 14.2333 8.9979L14.2331 8.99807Z" fill="#E6E6E6"/>
<path opacity="0.9" fill-rule="evenodd" clip-rule="evenodd" d="M14.0529 9.13666C14.0529 9.13666 14.0565 9.13823 14.0628 9.13823C14.0647 9.13823 14.0659 9.13788 14.0668 9.13788C14.0692 9.13406 14.0708 9.12936 14.0715 9.12397C14.0727 9.11666 14.0731 9.10849 14.0724 9.10032C14.0715 9.09023 14.0711 9.08136 14.0711 9.07353C14.0711 9.07162 14.0711 9.06918 14.0708 9.06727L14.0478 9.04553V9.05718C14.0478 9.06727 14.0475 9.07892 14.0463 9.09145C14.0454 9.10153 14.0454 9.11127 14.0466 9.12014C14.0478 9.1271 14.0497 9.13249 14.0529 9.13684V9.13666Z" fill="#E6E6E6"/>
<path opacity="0.9" fill-rule="evenodd" clip-rule="evenodd" d="M14.2086 8.61249C14.2162 8.62762 14.2197 8.64379 14.2197 8.66205V8.80536H14.071V8.78206C14.071 8.77284 14.0714 8.76153 14.0726 8.74919C14.0733 8.7391 14.0733 8.72901 14.0722 8.72014C14.0715 8.71353 14.0695 8.70814 14.0668 8.70466C14.0665 8.70432 14.0641 8.7031 14.0568 8.7031C14.0552 8.7031 14.0529 8.70345 14.0505 8.70588C14.0493 8.7071 14.0486 8.70779 14.0486 8.71058V8.78884C14.0486 8.79858 14.0517 8.8078 14.0575 8.81667C14.0625 8.82449 14.0752 8.83997 14.1077 8.87041C14.1188 8.88084 14.1289 8.89058 14.1378 8.89945C14.1347 8.89215 14.1328 8.88467 14.1328 8.87702V8.85458L14.1672 8.88832H14.3042V8.7504C14.3042 8.72136 14.2942 8.69666 14.2738 8.67614L14.2086 8.61266V8.61249Z" fill="#E6E6E6"/>
<path opacity="0.9" fill-rule="evenodd" clip-rule="evenodd" d="M15.717 8.67544L15.6532 8.61353C15.6602 8.62779 15.664 8.64413 15.664 8.66118V9.17684C15.664 9.20658 15.6532 9.23302 15.6318 9.25423C15.6104 9.27545 15.5842 9.28641 15.5544 9.28641H15.4518C15.4348 9.28641 15.4193 9.28293 15.405 9.27597L15.4701 9.33945C15.4897 9.35928 15.5137 9.36885 15.5421 9.36885H15.6447C15.6589 9.36885 15.6722 9.36606 15.6849 9.36067C15.6972 9.35528 15.7085 9.34798 15.7177 9.33824C15.7269 9.3285 15.7348 9.31771 15.7402 9.30537C15.7456 9.29302 15.7483 9.27945 15.7483 9.26502V8.7497C15.7483 8.73492 15.7456 8.72101 15.7398 8.70866C15.7341 8.69596 15.7266 8.68501 15.717 8.67544Z" fill="#E6E6E6"/>
<path opacity="0.9" fill-rule="evenodd" clip-rule="evenodd" d="M15.4994 9.13718H15.5069C15.5104 9.13718 15.5119 9.13596 15.5128 9.13527C15.5135 9.13457 15.5147 9.13336 15.5147 9.12988V8.70935C15.5147 8.70622 15.514 8.70465 15.5125 8.70308C15.5112 8.70187 15.5102 8.70117 15.5071 8.70117H15.4996C15.4965 8.70117 15.4952 8.70187 15.4942 8.70308C15.4926 8.70465 15.4919 8.70622 15.4919 8.70935V9.12988C15.4919 9.13301 15.4926 9.13422 15.4939 9.13527C15.4951 9.13596 15.4961 9.13718 15.4998 9.13718H15.4994Z" fill="#E6E6E6"/>
<path opacity="0.9" fill-rule="evenodd" clip-rule="evenodd" d="M17.2422 8.67544L17.1784 8.61353C17.1853 8.62779 17.1891 8.64413 17.1891 8.66118V9.17684C17.1891 9.20658 17.1784 9.23302 17.157 9.25423C17.1357 9.27545 17.1093 9.28641 17.0796 9.28641H16.977C16.9599 9.28641 16.9444 9.28293 16.9302 9.27597L16.9952 9.33945C17.0149 9.35928 17.0389 9.36885 17.0672 9.36885H17.1698C17.1841 9.36885 17.1973 9.36606 17.21 9.36067C17.2224 9.35528 17.2337 9.34798 17.2429 9.33824C17.2521 9.3285 17.2599 9.31771 17.2653 9.30537C17.2707 9.29302 17.2735 9.27945 17.2735 9.26502V8.7497C17.2735 8.73492 17.2707 8.72101 17.265 8.70866C17.2592 8.69596 17.2517 8.68501 17.2422 8.67544Z" fill="#E6E6E6"/>
<path opacity="0.9" fill-rule="evenodd" clip-rule="evenodd" d="M17.0246 9.13718H17.032C17.0355 9.13718 17.0371 9.13596 17.038 9.13527C17.0387 9.13457 17.0399 9.13336 17.0399 9.12988V8.70935C17.0399 8.70622 17.0392 8.70465 17.0376 8.70308C17.0364 8.70187 17.0354 8.70117 17.0322 8.70117H17.0247C17.0216 8.70117 17.0204 8.70187 17.0194 8.70308C17.0178 8.70465 17.0171 8.70622 17.0171 8.70935V9.12988C17.0171 9.13301 17.0178 9.13422 17.019 9.13527C17.0202 9.13596 17.0213 9.13718 17.0249 9.13718H17.0246Z" fill="#E6E6E6"/>
<path opacity="0.9" fill-rule="evenodd" clip-rule="evenodd" d="M17.4489 9.13666C17.4489 9.13666 17.4525 9.13823 17.4588 9.13823C17.4607 9.13823 17.4619 9.13788 17.4628 9.13788C17.4652 9.13406 17.4668 9.12936 17.4675 9.12397C17.4687 9.11666 17.469 9.10849 17.4684 9.10032C17.4675 9.09023 17.4671 9.08136 17.4671 9.07353C17.4671 9.07162 17.4671 9.06918 17.4668 9.06727L17.4438 9.04553V9.05718C17.4438 9.06727 17.4435 9.07892 17.4423 9.09145C17.4414 9.10153 17.4414 9.11127 17.4426 9.12014C17.4438 9.1271 17.4457 9.13249 17.4489 9.13684V9.13666Z" fill="#E6E6E6"/>
<path opacity="0.9" fill-rule="evenodd" clip-rule="evenodd" d="M17.6698 8.67597L17.6046 8.61249C17.6122 8.62762 17.6157 8.64379 17.6157 8.66205V8.80536H17.467V8.78206C17.467 8.77284 17.4674 8.76153 17.4686 8.74919C17.4693 8.7391 17.4693 8.72901 17.4682 8.72014C17.4675 8.71353 17.4654 8.70814 17.4628 8.70466C17.4625 8.70432 17.4601 8.7031 17.4528 8.7031C17.4512 8.7031 17.4489 8.70345 17.4465 8.70588C17.4453 8.7071 17.4446 8.70779 17.4446 8.71058V8.78884C17.4446 8.79858 17.4477 8.8078 17.4535 8.81667C17.4585 8.82449 17.4712 8.83997 17.5037 8.87041C17.5148 8.88084 17.5249 8.89058 17.5338 8.89945C17.5307 8.89215 17.5288 8.88467 17.5288 8.87702V8.85458L17.5632 8.88832H17.7002V8.7504C17.7002 8.72136 17.6902 8.69666 17.6698 8.67614V8.67597Z" fill="#E6E6E6"/>
<path opacity="0.9" fill-rule="evenodd" clip-rule="evenodd" d="M17.6281 8.99807L17.6189 8.98989L17.617 8.98868L17.61 8.98172L17.6119 8.98363L17.5829 8.95459C17.5898 8.96468 17.5956 8.97511 17.6011 8.98589C17.6112 9.00676 17.6163 9.02972 17.6163 9.05407V9.1779C17.6163 9.20729 17.6055 9.23286 17.5841 9.25407C17.5627 9.27529 17.5368 9.28625 17.5077 9.28625H17.4039C17.3862 9.28625 17.3698 9.28242 17.3552 9.27494L17.4222 9.33999C17.4411 9.35895 17.4651 9.36869 17.4942 9.36869H17.598C17.6116 9.36869 17.6248 9.3659 17.6371 9.36051C17.6495 9.35512 17.6608 9.34782 17.67 9.33808C17.6792 9.32834 17.6871 9.31755 17.6924 9.30521C17.6978 9.29286 17.7006 9.27964 17.7006 9.26607V9.14225C17.7006 9.11164 17.6937 9.08503 17.6794 9.06137C17.6651 9.03807 17.6481 9.01685 17.6283 8.9979L17.6281 8.99807Z" fill="#E6E6E6"/>
<path opacity="0.9" fill-rule="evenodd" clip-rule="evenodd" d="M14.6564 9.13821C14.6577 9.13821 14.659 9.13821 14.6603 9.13786H14.6625C14.6674 9.13786 14.6719 9.13665 14.6761 9.13404C14.6761 9.13369 14.6768 9.13212 14.6768 9.12934V8.59055L14.6497 8.56342V9.12551C14.6497 9.13369 14.6512 9.13717 14.6516 9.13751C14.6516 9.13751 14.6528 9.13821 14.6564 9.13821Z" fill="#E6E6E6"/>
<path opacity="0.9" fill-rule="evenodd" clip-rule="evenodd" d="M14.8264 8.57564V9.17774C14.8264 9.20748 14.8156 9.23339 14.7946 9.25478C14.7737 9.27565 14.7476 9.28643 14.7176 9.28643H14.6099C14.5922 9.28643 14.5762 9.28261 14.561 9.27565L14.627 9.33948C14.6468 9.35913 14.6711 9.36887 14.7002 9.36887H14.8078C14.8369 9.36887 14.8612 9.35913 14.881 9.33948C14.9009 9.31983 14.9104 9.29548 14.9104 9.26643V8.64677L14.8259 8.56433V8.57546H14.8263L14.8264 8.57564Z" fill="#E6E6E6"/>
<path opacity="0.9" fill-rule="evenodd" clip-rule="evenodd" d="M11.6632 9.06084H11.7649V8.9224L11.6802 8.83997V8.8511V8.95492V8.97823H11.6569H11.5781V9.13823H11.6632V9.06084Z" fill="#E6E6E6"/>
<path opacity="0.9" fill-rule="evenodd" clip-rule="evenodd" d="M11.7019 9.16102V9.26363V9.28694H11.6786H11.4527H11.4414L11.5259 9.3699H11.7868V9.23233L11.7019 9.14972V9.16102Z" fill="#E6E6E6"/>
<path opacity="0.9" fill-rule="evenodd" clip-rule="evenodd" d="M11.7018 8.57558V8.67906V8.7022H11.6783H11.5781V8.82742H11.6571H11.6632V8.78446H11.7868V8.64672L11.7018 8.56445V8.57558Z" fill="#E6E6E6"/>
<path opacity="0.9" fill-rule="evenodd" clip-rule="evenodd" d="M13.0447 8.67544L12.9808 8.61353C12.9878 8.62779 12.9916 8.64413 12.9916 8.66118V9.28641H12.8428V9.04553H12.82V9.28641H12.6819L12.7662 9.36885H12.9047V9.33632L12.9382 9.36885H13.0763V8.7497C13.0763 8.73492 13.0735 8.72101 13.0678 8.70866C13.0615 8.69596 13.0539 8.68501 13.0447 8.67544Z" fill="#E6E6E6"/>
<path opacity="0.9" fill-rule="evenodd" clip-rule="evenodd" d="M12.8426 8.70917C12.8426 8.70795 12.8426 8.70638 12.8403 8.70447C12.8381 8.70221 12.8365 8.70221 12.835 8.70221H12.8275C12.8256 8.70221 12.8243 8.70256 12.8221 8.70447C12.8198 8.70673 12.8198 8.70795 12.8198 8.70917V8.89734H12.8428V8.70917H12.8426Z" fill="#E6E6E6"/>
<path opacity="0.9" fill-rule="evenodd" clip-rule="evenodd" d="M12.4 8.95335C12.4012 8.96378 12.4026 8.97387 12.4045 8.98396C12.4061 8.97422 12.4075 8.96413 12.409 8.95422C12.4142 8.91195 12.4174 8.869 12.4184 8.82604C12.4196 8.78273 12.4191 8.73891 12.4181 8.69595C12.4168 8.65682 12.4161 8.62012 12.4161 8.58603L12.3939 8.5636V8.5756C12.3939 8.61351 12.3932 8.65456 12.392 8.69786C12.3908 8.74012 12.3904 8.78343 12.3916 8.82673C12.392 8.86934 12.3951 8.91195 12.4 8.95335Z" fill="#E6E6E6"/>
<path opacity="0.9" fill-rule="evenodd" clip-rule="evenodd" d="M12.5646 8.57507V8.81594C12.5646 8.89334 12.5576 8.9716 12.544 9.04795C12.5301 9.12464 12.5077 9.20012 12.4764 9.27247L12.4701 9.28639H12.3459L12.4303 9.36882H12.5573C12.5898 9.293 12.6129 9.2163 12.6273 9.13838C12.6416 9.06099 12.6486 8.98273 12.6486 8.90412V8.6462L12.5642 8.56342V8.57507H12.5646Z" fill="#E6E6E6"/>
<path opacity="0.9" fill-rule="evenodd" clip-rule="evenodd" d="M11.9893 8.60101L11.9548 8.56866L11.9893 8.66467V8.60101Z" fill="#E6E6E6"/>
<path opacity="0.9" fill-rule="evenodd" clip-rule="evenodd" d="M12.1382 8.57558V9.2869H11.989V9.2636C11.989 9.24777 11.9894 9.22986 11.9906 9.21055C11.9918 9.19195 11.9925 9.17299 11.9934 9.15368C11.9941 9.13473 11.9941 9.11612 11.9937 9.09838C11.9934 9.08133 11.9918 9.06586 11.9894 9.05229C11.9871 9.03716 11.9824 9.02064 11.9765 9.00238C11.9702 8.98411 11.9636 8.96516 11.9563 8.9462V9.28725H11.8191L11.9036 9.36969H12.0412V9.32603L12.0862 9.36969H12.2238V8.64689L12.1393 8.56445V8.57576H12.1381L12.1382 8.57558Z" fill="#E6E6E6"/>
<path opacity="0.9" fill-rule="evenodd" clip-rule="evenodd" d="M15.525 8.43927H15.5158H15.5083L15.525 8.45492V8.43927Z" fill="#E6E6E6"/>
<path opacity="0.9" fill-rule="evenodd" clip-rule="evenodd" d="M15.6231 8.52273L15.6439 8.48221V8.40638L15.5921 8.35577V8.36308V8.42569V8.42882L15.5906 8.43195L15.5739 8.46482L15.57 8.47212H15.5619H15.5386H15.5312L15.5836 8.52273H15.6231Z" fill="#E6E6E6"/>
<g opacity="0.9">
<path fill-rule="evenodd" clip-rule="evenodd" d="M16.0609 8.66179H16.0612C16.0612 8.63813 16.0527 8.61761 16.0356 8.60039C16.0186 8.58335 15.9986 8.57483 15.9746 8.57483H15.792V8.92023V9.26354H15.895V9.02319C15.9113 9.02319 15.929 9.02319 15.9485 9.02353C15.968 9.02388 15.9863 9.02162 16.0033 9.01693C16.0203 9.01223 16.0344 9.00371 16.0456 8.99223C16.0569 8.98023 16.0623 8.96249 16.0623 8.93779V8.9204H16.0609V8.66196V8.66179ZM15.8951 8.67883H15.9276C15.9358 8.67883 15.9428 8.68196 15.9489 8.68822C15.9551 8.69448 15.9581 8.70144 15.9581 8.70961V8.88892H15.9577C15.9577 8.8971 15.955 8.9044 15.9492 8.91066C15.9435 8.91727 15.9362 8.9204 15.9276 8.9204H15.8951V8.67901V8.67883Z" fill="#E6E6E6"/>
<path fill-rule="evenodd" clip-rule="evenodd" d="M16.2134 8.92005V9.26337H16.3167V8.92005V8.57483H16.2134V8.92005Z" fill="#E6E6E6"/>
<path fill-rule="evenodd" clip-rule="evenodd" d="M13.5469 8.92005V9.26337H13.7733V9.16075H13.6502V8.95449H13.7519V8.92005V8.85084H13.6502V8.67866H13.7733V8.57483H13.5469V8.92005Z" fill="#E6E6E6"/>
<path fill-rule="evenodd" clip-rule="evenodd" d="M14.9563 8.67796H15.0346V8.92005V9.26337H15.1387V8.92005V8.67796H15.217V8.57483H14.9563V8.67796Z" fill="#E6E6E6"/>
<path fill-rule="evenodd" clip-rule="evenodd" d="M14.1116 8.57587H14.0078C13.9841 8.57587 13.9639 8.58439 13.9472 8.60143C13.9305 8.61848 13.9224 8.63848 13.9224 8.66248V8.80544C13.9224 8.82631 13.9267 8.84561 13.9352 8.86335C13.9438 8.88109 13.9542 8.89744 13.9674 8.91205C13.9697 8.91483 13.9721 8.91744 13.9747 8.92022H13.9738C13.9851 8.93222 13.9963 8.94387 14.0079 8.95466C14.0227 8.96788 14.0361 8.98092 14.049 8.99361C14.0617 9.00631 14.0726 9.01953 14.0811 9.03222C14.0897 9.04492 14.0938 9.05883 14.0938 9.07396C14.0938 9.08092 14.0942 9.0891 14.0951 9.09866C14.0958 9.1084 14.0954 9.11797 14.0938 9.12718C14.0923 9.1364 14.0897 9.14423 14.0853 9.15118C14.081 9.15814 14.0733 9.16127 14.0625 9.16127C14.049 9.16127 14.0392 9.15744 14.0338 9.15014C14.0285 9.14284 14.025 9.13397 14.0238 9.12301C14.0222 9.11257 14.0222 9.10144 14.0234 9.08944C14.0246 9.07744 14.025 9.06701 14.025 9.05744H13.9224V9.17849C13.9224 9.20214 13.9305 9.22214 13.9471 9.23884C13.9638 9.25553 13.9838 9.26353 14.0074 9.26353H14.1111C14.1344 9.26353 14.154 9.25501 14.1711 9.23797C14.1881 9.22092 14.1966 9.20127 14.1966 9.17797V9.05431C14.1966 9.03344 14.1925 9.01414 14.1839 8.9964C14.1754 8.97866 14.165 8.96231 14.1518 8.9477C14.1452 8.94005 14.1366 8.93066 14.1258 8.92022H14.1269C14.1165 8.90979 14.1048 8.89866 14.0916 8.88613C14.0641 8.86022 14.0462 8.84126 14.0377 8.82822C14.0291 8.81552 14.0248 8.80196 14.0248 8.7877V8.70961C14.0248 8.70074 14.0279 8.69343 14.0345 8.68804C14.0411 8.6823 14.0481 8.67952 14.0563 8.67952C14.0698 8.67952 14.0796 8.683 14.085 8.6903C14.0904 8.69726 14.0938 8.70648 14.0951 8.71743C14.0963 8.72839 14.0966 8.73952 14.0954 8.75152C14.0942 8.76352 14.0938 8.77361 14.0938 8.78248H14.1966V8.66265C14.1966 8.639 14.1885 8.61865 14.1718 8.60161C14.1551 8.58456 14.1349 8.57604 14.1112 8.57604L14.1116 8.57587Z" fill="#E6E6E6"/>
<path fill-rule="evenodd" clip-rule="evenodd" d="M15.6409 8.66161C15.6409 8.63796 15.6323 8.61744 15.6153 8.60039C15.5982 8.58335 15.5781 8.57483 15.5541 8.57483H15.4513C15.4276 8.57483 15.4071 8.58335 15.3901 8.60039C15.373 8.61744 15.3645 8.63761 15.3645 8.66161V8.92005H15.3655V9.17676C15.3652 9.20041 15.3737 9.22076 15.3908 9.2378C15.4078 9.25484 15.428 9.26337 15.4518 9.26337H15.5542C15.5779 9.26337 15.5984 9.25484 15.6153 9.2378C15.6323 9.22076 15.6409 9.20076 15.6409 9.17676V8.92005V8.66161ZM15.5384 9.12928C15.5384 9.13815 15.5353 9.14545 15.5295 9.15084C15.5238 9.15658 15.5163 9.15936 15.5075 9.15936H15.5002C15.4913 9.15936 15.484 9.15658 15.4781 9.15084C15.4723 9.1451 15.4692 9.13762 15.4692 9.12928V8.92023H15.4683V8.70944H15.4687C15.4687 8.70057 15.4718 8.69309 15.4775 8.68701C15.4833 8.68074 15.4908 8.67779 15.4996 8.67779H15.5069C15.5158 8.67779 15.5233 8.68092 15.529 8.68701C15.5348 8.69327 15.5379 8.70057 15.5379 8.70944V8.92023H15.5381V9.12928H15.5384Z" fill="#E6E6E6"/>
<path d="M14.8029 8.57483H14.7007V8.92023H14.8029V8.57483Z" fill="#E6E6E6"/>
<path fill-rule="evenodd" clip-rule="evenodd" d="M11.4529 8.92005V9.26337H11.6783V9.16075H11.5553V8.95449H11.6571V8.92005V8.85084H11.5553V8.67866H11.6783V8.57483H11.4529V8.92005Z" fill="#E6E6E6"/>
<path fill-rule="evenodd" clip-rule="evenodd" d="M12.969 8.66161C12.969 8.63796 12.9605 8.61744 12.9434 8.60039C12.9264 8.58335 12.9062 8.57483 12.8822 8.57483H12.7794C12.7558 8.57483 12.7352 8.58335 12.7182 8.60039C12.7011 8.61744 12.6926 8.63761 12.6926 8.66161V8.92005H12.6937V9.26337H12.7973V9.02266H12.8665V9.26337H12.969V8.92005H12.9686V8.66161H12.969ZM12.7968 8.92005V8.70927C12.7968 8.70109 12.7999 8.69414 12.8062 8.68788C12.8125 8.68161 12.8198 8.67866 12.8279 8.67866H12.8352C12.8434 8.67866 12.8507 8.68179 12.857 8.68788C12.8632 8.69414 12.8664 8.70109 12.8664 8.70927V8.92005H12.797H12.7968Z" fill="#E6E6E6"/>
<path fill-rule="evenodd" clip-rule="evenodd" d="M17.0802 8.57483H16.9774C16.9538 8.57483 16.9332 8.58335 16.9162 8.60039C16.8991 8.61744 16.8906 8.63761 16.8906 8.66161V8.92005H16.8917V9.17676C16.8913 9.20041 16.8998 9.22076 16.9169 9.2378C16.9339 9.25484 16.9541 9.26337 16.9779 9.26337H17.0804C17.104 9.26337 17.1245 9.25484 17.1414 9.2378C17.1585 9.22076 17.167 9.20076 17.167 9.17676V8.92005V8.66161C17.167 8.63796 17.1585 8.61744 17.1414 8.60039C17.1244 8.58335 17.1042 8.57483 17.0802 8.57483ZM17.0645 9.12928C17.0645 9.13815 17.0614 9.14545 17.0557 9.15084C17.0499 9.15658 17.0425 9.15936 17.0336 9.15936H17.0263C17.0174 9.15936 17.0101 9.15658 17.0042 9.15084C16.9985 9.1451 16.9953 9.13762 16.9953 9.12928V8.92023H16.9945V8.70944H16.9948C16.9948 8.70057 16.9979 8.69309 17.0037 8.68701C17.0094 8.68074 17.0169 8.67779 17.0258 8.67779H17.0331C17.0419 8.67779 17.0494 8.68092 17.0552 8.68701C17.0609 8.69327 17.064 8.70057 17.064 8.70944V8.92023H17.0642V9.12928H17.0645Z" fill="#E6E6E6"/>
<path fill-rule="evenodd" clip-rule="evenodd" d="M12.4409 8.695C12.4421 8.73848 12.4425 8.78213 12.4413 8.8263C12.4406 8.85778 12.4385 8.88909 12.4355 8.92005H12.4364C12.4352 8.93239 12.4336 8.94474 12.4322 8.95726C12.4268 9.00022 12.4175 9.0397 12.4044 9.0757C12.3912 9.03848 12.3823 8.99866 12.3769 8.95605C12.3754 8.94405 12.3741 8.93205 12.3731 8.92005H12.3721C12.3693 8.88978 12.3674 8.8583 12.367 8.827C12.3658 8.78317 12.3663 8.73969 12.3674 8.69656C12.3686 8.65343 12.3693 8.61273 12.3693 8.57465H12.2656V8.81604C12.2656 8.851 12.2672 8.88544 12.2698 8.92005H12.2708C12.2743 8.96144 12.2794 9.00283 12.287 9.04387C12.3006 9.11901 12.3227 9.1924 12.3528 9.26336H12.4554C12.486 9.19223 12.5081 9.11901 12.5216 9.04387C12.5289 9.00283 12.5343 8.96144 12.5378 8.92005H12.5373C12.5404 8.88561 12.542 8.85065 12.542 8.81622V8.57482H12.439C12.439 8.61169 12.4397 8.65152 12.4409 8.695Z" fill="#E6E6E6"/>
<path fill-rule="evenodd" clip-rule="evenodd" d="M12.0127 8.80022L11.9332 8.57587H11.8306V8.92022H11.8296V9.26353H11.9329V8.92022H11.9334V8.82457C11.9334 8.82457 11.9331 8.82387 11.9331 8.82352H11.9334V8.82457C11.9388 8.84057 11.9456 8.85796 11.9536 8.87692C11.9593 8.89118 11.9656 8.90561 11.9713 8.92022H11.9705C11.9727 8.92561 11.9752 8.931 11.9771 8.93605C11.9849 8.95622 11.9919 8.97553 11.9983 8.99483C12.0049 9.01414 12.0091 9.03188 12.0119 9.04822C12.0146 9.06336 12.016 9.07953 12.0166 9.09814C12.0169 9.11623 12.0166 9.13518 12.0162 9.15449C12.0155 9.17379 12.0146 9.19275 12.0134 9.21171C12.0122 9.23066 12.0119 9.24805 12.0119 9.26353H12.1145V8.92022H12.1155V8.57587H12.0129V8.80022H12.0127Z" fill="#E6E6E6"/>
<path fill-rule="evenodd" clip-rule="evenodd" d="M15.5384 8.45793H15.5615L15.5782 8.42524V8.36298H15.5156V8.42524H15.5384V8.45793Z" fill="#E6E6E6"/>
<path fill-rule="evenodd" clip-rule="evenodd" d="M16.6405 9.08441C16.6417 9.09607 16.6417 9.1072 16.6405 9.1185C16.6393 9.12963 16.6367 9.13937 16.632 9.14789C16.6273 9.15642 16.6193 9.16059 16.6076 9.16059C16.5975 9.16059 16.5887 9.15833 16.5814 9.15363C16.5741 9.14894 16.5701 9.14094 16.5701 9.12929V8.92024H16.5687V8.70945H16.569C16.569 8.70128 16.5721 8.69432 16.5782 8.68806C16.5845 8.6818 16.5915 8.67884 16.5995 8.67884C16.6137 8.67884 16.6238 8.68232 16.6292 8.68962C16.6349 8.69658 16.6384 8.70545 16.64 8.71606C16.6412 8.72649 16.6412 8.7378 16.64 8.7498C16.6384 8.7618 16.6381 8.77223 16.6381 8.78197H16.7405V8.6618C16.7405 8.63814 16.7323 8.61762 16.7158 8.60058C16.6991 8.58353 16.6791 8.57501 16.6555 8.57501H16.5515C16.528 8.57501 16.5075 8.58353 16.4904 8.60058C16.4734 8.61762 16.4648 8.6378 16.4648 8.6618V8.92024H16.4659V9.17798C16.4652 9.20198 16.4737 9.22198 16.4908 9.23868C16.5078 9.25538 16.528 9.26338 16.552 9.26338H16.6558C16.6791 9.26338 16.6988 9.25485 16.7158 9.23781C16.7328 9.22077 16.7414 9.20111 16.7414 9.17781V9.05676H16.6388C16.6388 9.06372 16.6391 9.07259 16.6403 9.08424L16.6405 9.08441Z" fill="#E6E6E6"/>
<path fill-rule="evenodd" clip-rule="evenodd" d="M13.3496 8.94753C13.343 8.93987 13.3345 8.93048 13.3237 8.92005H13.3247C13.3143 8.90961 13.3027 8.89848 13.2894 8.88596C13.262 8.86005 13.2441 8.84109 13.2355 8.82805C13.227 8.81535 13.2227 8.80178 13.2227 8.78752V8.70943C13.2227 8.70057 13.2258 8.69326 13.2324 8.68787C13.239 8.68213 13.246 8.67935 13.2541 8.67935C13.2677 8.67935 13.2774 8.68283 13.2828 8.69013C13.2882 8.69709 13.2917 8.7063 13.2929 8.71726C13.2941 8.72804 13.2945 8.73935 13.2933 8.75135C13.2921 8.76335 13.2917 8.77344 13.2917 8.78231H13.3945V8.66248C13.3945 8.63882 13.3863 8.61848 13.3696 8.60143C13.3529 8.58439 13.3327 8.57587 13.3091 8.57587H13.2053C13.1816 8.57587 13.1614 8.58439 13.1447 8.60143C13.128 8.61848 13.1199 8.63848 13.1199 8.66248V8.80544C13.1199 8.82631 13.1242 8.84561 13.1327 8.86335C13.1413 8.88109 13.1517 8.89744 13.1649 8.91205C13.1672 8.91483 13.1696 8.91744 13.1722 8.92022H13.1714C13.1821 8.93222 13.1938 8.94387 13.2054 8.95466C13.2202 8.96788 13.2336 8.98092 13.2465 8.99361C13.2592 9.00631 13.2701 9.01953 13.2787 9.03222C13.2872 9.04492 13.2914 9.05883 13.2914 9.07396C13.2914 9.08092 13.2917 9.0891 13.2926 9.09866C13.2933 9.1084 13.2929 9.11797 13.2914 9.12718C13.2898 9.1364 13.2872 9.14423 13.2828 9.15118C13.2787 9.15814 13.2708 9.16127 13.26 9.16127C13.2465 9.16127 13.2367 9.15744 13.2314 9.15014C13.226 9.14284 13.2225 9.13397 13.2213 9.12301C13.2197 9.11257 13.2197 9.10144 13.2209 9.08944C13.2221 9.07744 13.2225 9.06701 13.2225 9.05744H13.1199V9.17849C13.1199 9.20214 13.128 9.22214 13.1446 9.23884C13.1613 9.25553 13.1813 9.26353 13.2049 9.26353H13.3086C13.3319 9.26353 13.3515 9.25501 13.3686 9.23797C13.3856 9.22092 13.3941 9.20127 13.3941 9.17797V9.05431C13.3941 9.03344 13.39 9.01414 13.3814 8.9964C13.3729 8.97866 13.3625 8.96231 13.3493 8.9477L13.3496 8.94753Z" fill="#E6E6E6"/>
<path fill-rule="evenodd" clip-rule="evenodd" d="M17.58 8.99622C17.5715 8.97848 17.5611 8.96214 17.5479 8.94753C17.5412 8.93987 17.5327 8.93048 17.5219 8.92005H17.523C17.5126 8.90961 17.5009 8.89848 17.4877 8.88596C17.4602 8.86005 17.4423 8.84109 17.4338 8.82805C17.4252 8.81535 17.4209 8.80178 17.4209 8.78752V8.70943C17.4209 8.70057 17.424 8.69326 17.4306 8.68787C17.4372 8.68213 17.4442 8.67935 17.4524 8.67935C17.4659 8.67935 17.4757 8.68283 17.4811 8.69013C17.4865 8.69709 17.4899 8.7063 17.4912 8.71726C17.4924 8.72804 17.4927 8.73935 17.4915 8.75135C17.4903 8.76335 17.4899 8.77344 17.4899 8.78231H17.5927V8.66248C17.5927 8.63882 17.5846 8.61848 17.5679 8.60143C17.5512 8.58439 17.531 8.57587 17.5073 8.57587H17.4035C17.3799 8.57587 17.3597 8.58439 17.343 8.60143C17.3263 8.61848 17.3181 8.63848 17.3181 8.66248V8.80544C17.3181 8.82631 17.3225 8.84561 17.331 8.86335C17.3395 8.88109 17.3499 8.89744 17.3632 8.91205C17.3654 8.91483 17.3679 8.91744 17.3705 8.92022H17.3696C17.3812 8.93222 17.3924 8.94387 17.404 8.95466C17.4188 8.96788 17.4322 8.98092 17.4451 8.99361C17.4578 9.00631 17.4687 9.01953 17.4772 9.03222C17.4858 9.04492 17.4899 9.05883 17.4899 9.07396C17.4899 9.08092 17.4903 9.0891 17.4912 9.09866C17.4919 9.1084 17.4915 9.11797 17.4899 9.12718C17.4884 9.1364 17.4858 9.14423 17.4814 9.15118C17.4772 9.15814 17.4694 9.16127 17.4586 9.16127C17.4451 9.16127 17.4353 9.15744 17.4299 9.15014C17.4246 9.14284 17.4211 9.13397 17.4199 9.12301C17.4183 9.11257 17.4183 9.10144 17.4195 9.08944C17.4207 9.07744 17.4211 9.06701 17.4211 9.05744H17.3181V9.17849C17.3181 9.20214 17.3263 9.22214 17.3428 9.23884C17.3595 9.25553 17.3795 9.26353 17.4032 9.26353H17.5068C17.5301 9.26353 17.5498 9.25501 17.5668 9.23797C17.5839 9.22092 17.5924 9.20127 17.5924 9.17797V9.05431C17.5924 9.03344 17.5882 9.01414 17.5797 8.9964L17.58 8.99622Z" fill="#E6E6E6"/>
<path fill-rule="evenodd" clip-rule="evenodd" d="M14.7005 9.12962C14.7005 9.14128 14.6967 9.14928 14.6888 9.15397C14.681 9.15867 14.6725 9.16093 14.6629 9.16093C14.6386 9.16371 14.626 9.15171 14.626 9.12545V8.92023H14.6257V8.57483H14.5234V8.92023V9.17797C14.5238 9.20197 14.5323 9.22197 14.549 9.23867C14.566 9.25537 14.5862 9.26337 14.6102 9.26337H14.7179C14.7415 9.26337 14.7617 9.25519 14.7782 9.23867C14.7949 9.22197 14.8031 9.20197 14.8031 9.17832V8.92058H14.7005V9.12962Z" fill="#E6E6E6"/>
</g>
</svg>
