<svg width="20" height="20" viewBox="0 0 20 20" fill="none" xmlns="http://www.w3.org/2000/svg">
<path d="M6.50012 9.25286C6.5119 9.05326 6.47571 8.85768 6.43436 8.66526C6.37031 8.36571 6.26032 8.08139 6.11212 7.812C6.00414 7.61584 5.87231 7.43864 5.71206 7.28298C5.69741 7.26862 5.68133 7.24507 5.65778 7.25915C5.63078 7.27552 5.64428 7.30108 5.65347 7.32319C5.78989 7.65347 5.90304 7.99178 5.99236 8.33786C6.06014 8.60064 6.12045 8.86429 6.15865 9.13339C6.16927 9.20863 6.17473 9.28503 6.19139 9.35884C6.22011 9.48693 6.22643 9.61789 6.23705 9.74713C6.25055 9.91054 6.28099 10.0734 6.27554 10.2388C6.27439 10.2779 6.29191 10.3178 6.30167 10.3571C6.30512 10.3706 6.30856 10.3873 6.32695 10.387C6.34504 10.387 6.34762 10.3703 6.35251 10.3571C6.42689 10.1501 6.46681 9.93467 6.49582 9.71812C6.51133 9.60238 6.4918 9.48406 6.50529 9.37492C6.503 9.32897 6.49725 9.29077 6.49955 9.25286H6.50012Z" fill="#E6E6E6"/>
<path d="M6.0705 2.14706C6.24282 2.20364 6.40537 2.27688 6.51652 2.42938C6.55701 2.48509 6.59119 2.54569 6.62967 2.60313C6.64087 2.61979 6.6469 2.64793 6.67333 2.64478C6.70118 2.64162 6.70434 2.61146 6.71554 2.59164C6.72129 2.58159 6.72387 2.56924 6.7256 2.55747C6.77643 2.23839 6.54725 1.99543 6.2589 2.00318C6.19744 1.99169 6.13139 2.01294 6.06763 2.04109C6.04322 2.052 6.01048 2.0632 6.01392 2.09996C6.01708 2.13127 6.04408 2.13845 6.07021 2.14706H6.0705Z" fill="#E6E6E6"/>
<path d="M3.4486 17.535C3.26968 17.5836 3.09277 17.6399 2.90293 17.6275C2.79063 17.6203 2.69356 17.5836 2.61286 17.506C2.53704 17.4334 2.53905 17.3892 2.61286 17.3136C2.75474 17.168 2.89144 17.0178 2.99311 16.8397C3.14618 16.5721 3.24929 16.2889 3.28863 15.9805C3.32683 15.6815 3.32511 15.3848 3.2737 15.0899C3.22717 14.8231 3.1278 14.5723 3.00431 14.3311C2.88053 14.089 2.79638 13.8311 2.77225 13.562C2.75445 13.3641 2.75215 13.1625 2.78949 12.962C2.82653 12.7639 2.87708 12.5714 2.95491 12.3865C3.00546 12.2664 3.06347 12.1495 3.11804 12.0309C3.11201 12.0272 3.10626 12.0238 3.10023 12.02C3.02527 12.0958 2.95663 12.1768 2.89489 12.2641C2.71596 12.5177 2.60597 12.8003 2.53819 13.101C2.49884 13.2754 2.50947 13.4526 2.50717 13.6289C2.50401 13.8638 2.556 14.0893 2.63986 14.3055C2.76565 14.6295 2.91068 14.9451 2.94945 15.2981C2.98363 15.6108 2.97473 15.9193 2.90034 16.2226C2.81505 16.5706 2.65594 16.8828 2.40981 17.1491C2.33658 17.2283 2.28201 17.326 2.31504 17.4429C2.33974 17.5299 2.38942 17.6037 2.46208 17.658C2.61257 17.77 2.77541 17.8116 2.9664 17.7766C3.14934 17.743 3.31161 17.6703 3.46842 17.5781C3.48508 17.5684 3.51437 17.5569 3.49857 17.5305C3.48508 17.5075 3.46555 17.5299 3.4486 17.5345V17.535Z" fill="#E6E6E6"/>
<path d="M2.51274 3.44117C2.52883 3.45151 2.54807 3.46243 2.56616 3.44979C2.58799 3.43428 2.57133 3.41418 2.56501 3.39809C2.5317 3.31653 2.49724 3.23525 2.46162 3.15455C2.35996 2.92508 2.38092 2.70796 2.53256 2.50836C2.61326 2.4021 2.69827 2.29842 2.8008 2.21083C2.8166 2.19733 2.839 2.18182 2.82952 2.15798C2.81861 2.1307 2.79132 2.14448 2.77208 2.14649C2.62102 2.162 2.49752 2.23868 2.38552 2.3326C2.23359 2.45982 2.15346 2.62669 2.13767 2.82399C2.13537 2.87051 2.15203 2.91359 2.16122 2.95782C2.20544 3.17207 2.33239 3.32601 2.51246 3.44146L2.51274 3.44117Z" fill="#E6E6E6"/>
<path d="M4.66792 4.47251C4.74288 4.47855 4.81439 4.44782 4.88361 4.40761C4.92669 4.38233 4.93818 4.35275 4.90687 4.30824C4.76356 4.10318 4.56109 3.9929 4.32271 3.94005C4.28796 3.9323 4.26642 3.95068 4.26413 3.98543C4.24891 4.2126 4.37987 4.46878 4.66792 4.47251Z" fill="#E6E6E6"/>
<path d="M3.89075 5.80218C3.99241 5.91448 4.1116 6.00667 4.2371 6.08995C4.47289 6.24647 4.73166 6.33924 5.01627 6.33723C5.20409 6.33608 5.38991 6.30535 5.57171 6.25452C5.85488 6.17525 6.09699 6.02935 6.29573 5.8131C6.49418 5.59741 6.61222 5.33893 6.69493 5.06064C6.76529 4.82457 6.73427 4.62238 6.54329 4.44805C6.4422 4.35586 6.41233 4.22921 6.43157 4.08762C6.4465 3.97935 6.47867 3.87251 6.47321 3.8122C6.46661 3.63241 6.44765 3.50547 6.41692 3.38026C6.31727 2.97301 6.07573 2.67174 5.72535 2.45204C5.70669 2.44026 5.68342 2.41126 5.66447 2.43308C5.64638 2.45376 5.67653 2.47386 5.6906 2.49196C5.69348 2.49569 5.69721 2.49885 5.70037 2.50258C5.92582 2.74641 6.1033 3.01437 6.16275 3.35096C6.19952 3.55947 6.19693 3.76539 6.14323 3.96671C6.07545 4.22031 6.1102 4.44719 6.27275 4.65397C6.28108 4.6646 6.29802 4.67407 6.29113 4.68958C6.28252 4.70854 6.26184 4.70165 6.24604 4.70193C6.17683 4.70366 6.10704 4.70078 6.03811 4.70624C5.97522 4.71141 5.95856 4.74415 5.989 4.79958C6.0496 4.91101 6.13346 4.99487 6.26442 5.01957C6.2986 5.02589 6.33565 5.03307 6.31842 5.08218C6.21129 5.39092 6.03955 5.65198 5.75723 5.82832C5.5562 5.95411 5.33506 6.0193 5.10185 6.06066C4.87439 6.10115 4.65756 6.08047 4.4413 6.00781C4.25864 5.94635 4.09092 5.85732 3.93009 5.75278C3.90769 5.73814 3.87581 5.70741 3.85542 5.73325C3.83446 5.75939 3.87323 5.78208 3.89132 5.80189L3.89075 5.80218Z" fill="#E6E6E6"/>
<path d="M5.80177 14.0152C5.81526 14.0249 5.83221 14.0359 5.84657 14.0195C5.86122 14.0031 5.84657 13.9879 5.8368 13.975C5.72509 13.8317 5.61279 13.6881 5.48183 13.562C5.30434 13.3911 5.12427 13.2234 4.9554 13.0436C4.59928 12.6645 4.27733 12.2598 4.00018 11.8196C3.74257 11.4097 3.53205 10.9772 3.37094 10.5209C3.27875 10.2601 3.20379 9.99386 3.14664 9.72333C3.11935 9.5938 3.09408 9.46284 3.07685 9.33044C3.06594 9.24572 3.06077 9.16013 3.04784 9.07599C3.01568 8.86576 3.00419 8.65409 2.9973 8.44243C2.98696 8.12709 3.01826 7.81347 3.04727 7.49957C3.06393 7.31921 3.08949 7.14028 3.11849 6.9628C3.15209 6.7563 3.20953 6.55383 3.2552 6.34934C3.2618 6.31919 3.29943 6.27439 3.26123 6.26031C3.22102 6.24538 3.21499 6.30454 3.20207 6.33269C2.94847 6.88324 2.80832 7.46596 2.74485 8.06534C2.72245 8.27758 2.68626 8.4924 2.70981 8.68052C2.70464 8.95508 2.73595 9.19833 2.76151 9.44273C2.7819 9.64004 2.81751 9.8339 2.86203 10.0257C2.93153 10.325 3.02314 10.6182 3.14089 10.9028C3.31149 11.3153 3.52574 11.703 3.78048 12.0691C3.964 12.3328 4.17164 12.5763 4.39307 12.8081C4.60129 13.0264 4.82501 13.2277 5.06195 13.4147C5.29429 13.5982 5.54099 13.7639 5.75208 13.9738C5.7673 13.9891 5.78453 14.002 5.80205 14.0146L5.80177 14.0152Z" fill="#E6E6E6"/>
<path d="M15.2882 11.3279C15.281 11.3061 15.2836 11.2745 15.2497 11.2773C15.2187 11.2799 15.2101 11.3081 15.2037 11.3345C15.1882 11.3994 15.171 11.4637 15.1578 11.5292C15.1236 11.6995 15.0917 11.8704 15.0581 12.0407C15.0366 12.1501 15.0202 12.2613 14.9895 12.3681C14.9427 12.5304 14.8847 12.6889 14.8749 12.8601C14.8623 13.0824 14.8913 13.2975 14.9748 13.5043C14.9838 13.5264 14.9955 13.543 15.0217 13.539C15.0446 13.5356 15.0535 13.5155 15.0533 13.4965C15.0533 13.4356 15.0748 13.3793 15.0854 13.3207C15.1184 13.1378 15.1515 12.9549 15.2172 12.7805C15.3152 12.5203 15.4051 12.2598 15.3743 11.9953C15.3861 11.7541 15.3585 11.5378 15.2882 11.3276V11.3279Z" fill="#E6E6E6"/>
<path d="M6.88243 17.707C6.75291 17.7395 6.62395 17.774 6.48926 17.7794C6.31005 17.7866 6.13314 17.772 6.01309 17.6192C5.86576 17.4313 5.82526 17.3073 5.96254 17.141C6.04181 17.0451 6.11131 16.9425 6.17593 16.8363C6.37869 16.5025 6.4772 16.1378 6.49759 15.751C6.50649 15.5809 6.47662 15.4144 6.44532 15.2478C6.38731 14.9373 6.26123 14.6573 6.08374 14.3985C6.06536 14.3718 6.03922 14.3276 6.01108 14.342C5.97862 14.3589 6.01022 14.4026 6.01969 14.4304C6.12854 14.7555 6.19804 15.0872 6.19029 15.3865C6.19287 15.6447 6.17708 15.8561 6.12107 16.0623C6.03348 16.3836 5.88701 16.6766 5.68655 16.9431C5.54841 17.1269 5.51107 17.3257 5.6159 17.5393C5.72072 17.7527 5.87294 17.9222 6.11389 17.9658C6.40626 18.0187 6.67019 17.9242 6.90914 17.7556C6.92379 17.7452 6.94533 17.7309 6.93384 17.7096C6.92178 17.6878 6.89966 17.7027 6.88214 17.7073L6.88243 17.707Z" fill="#E6E6E6"/>
<path d="M17.8161 5.35821C17.594 5.51186 17.3973 5.69078 17.2431 5.91451C17.0251 6.231 16.9177 6.5877 16.8746 6.96392C16.8468 7.20861 16.8008 7.44727 16.7273 7.68191C16.5995 8.08887 16.3901 8.45102 16.117 8.77498C15.9039 9.02771 15.6606 9.25115 15.3895 9.44243C15.3703 9.45592 15.3479 9.46626 15.3447 9.50475C15.3792 9.49872 15.4085 9.49785 15.4346 9.48866C15.7123 9.39102 15.9639 9.24426 16.1894 9.05758C16.4734 8.82237 16.7066 8.54293 16.8812 8.21581C17.0332 7.9312 17.1259 7.62706 17.1799 7.31114C17.2221 7.06444 17.2112 6.81228 17.2635 6.56529C17.316 6.31572 17.397 6.07936 17.5248 5.85879C17.6185 5.69739 17.7322 5.54948 17.8425 5.39957C17.8528 5.38578 17.8746 5.37056 17.8537 5.35074C17.8407 5.33839 17.8275 5.35074 17.8158 5.35907L17.8161 5.35821Z" fill="#E6E6E6"/>
<path d="M12.9564 17.5598C13.1296 17.4337 13.2833 17.2881 13.4154 17.1192C13.7448 16.6979 13.8634 16.2269 13.7276 15.7065C13.6331 15.3437 13.4444 15.029 13.1779 14.7639C13.0116 14.5985 12.8476 14.4319 12.7097 14.2409C12.5423 14.0091 12.4202 13.7564 12.3628 13.4775C12.3229 13.2834 12.3177 13.0867 12.3507 12.8868C12.3887 12.6585 12.4576 12.4425 12.5552 12.2348C12.6388 12.0571 12.75 11.8954 12.8617 11.7343C12.8726 11.7188 12.8979 11.6966 12.8783 11.6785C12.8579 11.6593 12.8398 11.6869 12.8255 11.7001C12.6991 11.8141 12.5817 11.937 12.4829 12.0755C12.2884 12.3483 12.146 12.6435 12.0937 12.9793C12.0489 13.2667 12.0607 13.5491 12.1457 13.8271C12.1592 13.8713 12.1488 13.8946 12.1127 13.9149C12.0254 13.9643 11.9401 14.0178 11.851 14.0634C11.3372 14.3265 10.801 14.5267 10.2347 14.645C9.97851 14.6984 9.72233 14.749 9.45983 14.7564C9.42422 14.7573 9.38889 14.7679 9.35328 14.7711C9.1218 14.7929 8.88946 14.7932 8.65884 14.7719C8.55401 14.7622 8.44718 14.7694 8.34522 14.7475C8.20134 14.7168 8.05286 14.7148 7.91098 14.672C7.89002 14.6657 7.85613 14.664 7.85211 14.695C7.84837 14.7243 7.88025 14.72 7.90007 14.7246C7.99944 14.7475 8.0991 14.7702 8.19847 14.7935C8.34235 14.8274 8.48853 14.8475 8.63443 14.8702C8.77889 14.8926 8.92507 14.8906 9.06953 14.9078C9.37626 14.9443 9.68155 14.9109 9.98597 14.8854C10.1965 14.8676 10.4061 14.832 10.6138 14.7869C10.7924 14.7481 10.9716 14.7105 11.1465 14.6585C11.5196 14.5479 11.8838 14.4127 12.2301 14.2334C12.2864 14.2042 12.3082 14.2222 12.3352 14.2702C12.4696 14.5092 12.6411 14.72 12.835 14.9132C12.9315 15.0094 13.0251 15.1082 13.1066 15.2182C13.2833 15.4569 13.4091 15.72 13.445 16.0138C13.4906 16.3886 13.3758 16.7252 13.1529 17.0276C13.0475 17.1709 12.9226 17.2958 12.8002 17.4236C12.6606 17.5695 12.6942 17.7438 12.8088 17.8432C12.9317 17.9492 13.0848 17.99 13.2322 18C13.3476 17.9989 13.4435 17.9707 13.5389 17.94C13.5544 17.9351 13.5751 17.9311 13.5702 17.9087C13.5659 17.8895 13.5461 17.8863 13.5294 17.8866C13.4961 17.8872 13.4628 17.8906 13.4295 17.8932C13.2534 17.9067 13.0931 17.8656 12.955 17.7522C12.8832 17.693 12.8829 17.6129 12.9564 17.5592V17.5598Z" fill="#E6E6E6"/>
<path d="M14.5439 9.41487C14.2317 9.00504 13.873 8.64461 13.4396 8.36115C12.9028 8.0102 12.3129 7.83242 11.6736 7.81261C11.5705 7.80945 11.4686 7.82869 11.3666 7.8307C11.1524 7.83501 10.945 7.87952 10.7394 7.92949C10.5177 7.98349 10.3017 8.05959 10.0912 8.14977C9.63167 8.34708 9.21265 8.61044 8.82292 8.92233C8.58886 9.10958 8.37461 9.31751 8.17529 9.54066C8.0093 9.72619 7.86024 9.92206 7.75857 10.1533C7.65001 10.3997 7.47109 10.5772 7.20687 10.6599C7.15115 10.6774 7.09285 10.6734 7.03886 10.6943C7.02077 10.7012 7.00038 10.7087 7.00411 10.7328C7.00727 10.7535 7.02823 10.7538 7.04403 10.7561C7.06298 10.759 7.08223 10.7604 7.10118 10.7604C7.40159 10.7592 7.64513 10.638 7.84129 10.4132C7.91739 10.3259 7.96535 10.221 8.03112 10.1274C8.20545 9.87898 8.422 9.67134 8.65089 9.47346C8.91195 9.24772 9.18709 9.04295 9.48031 8.86202C9.88584 8.61158 10.3132 8.41026 10.7753 8.28361C11.02 8.2164 11.2681 8.16758 11.52 8.15236C11.7845 8.13656 12.0484 8.15035 12.3115 8.20089C12.5898 8.25431 12.8575 8.33616 13.1131 8.45535C13.6122 8.68769 14.0456 9.01423 14.4373 9.39879C14.4876 9.44819 14.5347 9.50218 14.6016 9.54325C14.6056 9.52745 14.6091 9.52171 14.6076 9.51884C14.5872 9.4838 14.5689 9.44704 14.5444 9.41516L14.5439 9.41487Z" fill="#E6E6E6"/>
</svg>
