<svg width="20" height="20" viewBox="0 0 20 20" fill="none" xmlns="http://www.w3.org/2000/svg">
<path d="M10 2C5.58176 2 2 5.58176 2 10C2 14.4182 5.58176 18 10 18C14.4182 18 18 14.4182 18 10C18 5.58176 14.4182 2 10 2ZM10 16.8552C6.21386 16.8552 3.14475 13.7861 3.14475 10C3.14475 6.21386 6.21386 3.14475 10 3.14475C13.7861 3.14475 16.8552 6.21386 16.8552 10C16.8552 13.7861 13.7861 16.8552 10 16.8552Z" fill="#E6E6E6"/>
<path d="M14.5886 10.361C13.9914 13.9442 11.5032 14.7405 9.51248 14.3424C7.52177 13.9442 5.53106 10.8588 6.62614 8.07183C7.72084 5.28483 10.1597 5.23516 10.1597 5.23516C10.1597 5.23516 7.87062 4.78735 6.32772 7.72336C4.78483 10.6598 6.77554 13.6955 8.21871 14.4417C9.66188 15.1883 12.0011 15.2877 13.4442 13.5461C14.8874 11.8041 14.589 10.361 14.589 10.361H14.5886Z" fill="#E6E6E6"/>
<path d="M11.9485 12.2991L11.9508 12.3018C11.95 12.301 11.9492 12.2999 11.9485 12.2991Z" fill="#E6E6E6"/>
<path d="M11.9758 9.34073C11.528 8.24602 10.657 8.17133 10.657 8.17133C10.657 8.17133 11.6027 8.56947 11.702 9.41542C11.8014 10.2614 11.5526 10.4108 11.5029 10.8089C11.4533 11.2067 11.3539 11.6041 11.9485 12.2991C11.9318 12.2775 11.8264 12.1141 11.8264 11.3811C11.8264 10.5848 12.4236 10.4354 11.9758 9.34073Z" fill="#E6E6E6"/>
<path d="M11.8761 6.50396C9.48724 5.16013 7.34713 7.20052 7.34713 7.20052C8.6409 7.34991 9.0891 7.94713 9.0891 7.94713C8.89003 8.04647 8.04407 8.49467 7.89467 9.63904C7.74527 10.7838 7.09839 11.7291 7.09839 11.7291C7.79495 12.1769 9.13877 12.2766 9.13877 12.2766C9.03943 12.6251 9.0891 13.0232 9.0891 13.0232C9.73598 11.9782 11.3782 12.0776 11.3782 12.0776C10.7313 11.5801 11.1792 11.0325 11.1792 10.5347C11.1792 10.0368 10.6817 9.68871 10.6817 9.68871C11.2789 10.9825 10.5823 11.331 9.83571 11.6298C9.0891 11.9282 7.9944 11.3313 7.9944 11.3313C8.24314 10.8835 8.49189 9.83849 8.49189 9.83849C8.49189 9.83849 9.78566 10.0872 9.78566 9.341C9.78566 8.59477 8.59123 9.14193 8.59123 9.14193C8.69058 8.34565 9.78566 8.04723 9.78566 8.04723C9.53691 7.35067 8.74063 7.05188 8.74063 7.05188C8.74063 7.03102 8.98141 6.84712 9.41254 6.75346L9.885 7.69876V6.69962C10.0143 6.69734 10.1535 6.70455 10.3017 6.72502L10.4822 7.69876L10.6775 6.80048C10.814 6.83688 10.9566 6.88428 11.1048 6.94457L11.0294 7.84778L11.4412 7.09927C11.5803 7.17094 11.7237 7.25398 11.8712 7.34991L11.5769 8.19587L12.2636 7.63013C12.4115 7.74654 12.5438 7.87129 12.6614 8.00287L12.1245 8.69336L12.9405 8.36688C13.0455 8.52728 13.1342 8.69412 13.2085 8.86475L12.4729 9.29057H13.3636C13.411 9.44983 13.4482 9.60984 13.4766 9.76986L12.7217 9.93746L13.5354 10.2222C13.5513 10.4103 13.557 10.5946 13.5551 10.7717L12.8707 10.7337L13.5346 11.2206C13.477 11.9513 13.3185 12.4753 13.3185 12.4753C14.2642 10.634 14.2642 7.84702 11.8753 6.5032L11.8761 6.50396Z" fill="#E6E6E6"/>
</svg>
