<svg width="20" height="20" viewBox="0 0 20 20" fill="none" xmlns="http://www.w3.org/2000/svg">
<path d="M11.0451 2.67106L17.2181 15.2565C17.8389 16.5213 16.9182 17.9977 15.5092 17.9977C14.7512 17.9977 14.0653 17.5489 13.7631 16.8538L11.6799 12.0665C11.0358 10.5831 8.92702 10.6041 8.30856 12.0967L6.35554 16.8235C6.06026 17.535 5.3674 18 4.59549 18H4.49086C3.08654 18 2.16583 16.5306 2.77731 15.2658L8.88517 2.67804C9.32228 1.77593 10.6057 1.7736 11.0475 2.67339L11.0451 2.67106Z" fill="#E6E6E6"/>
<path d="M10.0012 16.3701C12.3126 16.3701 14.1863 16.0578 14.1863 15.6726C14.1863 15.2874 12.3126 14.9751 10.0012 14.9751C7.68988 14.9751 5.81616 15.2874 5.81616 15.6726C5.81616 16.0578 7.68988 16.3701 10.0012 16.3701Z" fill="#E6E6E6"/>
</svg>
