<svg width="20" height="20" viewBox="0 0 20 20" fill="none" xmlns="http://www.w3.org/2000/svg">
<path d="M11.9192 9.58316C11.915 9.47998 11.9068 9.3762 11.8932 9.27391C11.8688 9.08965 11.8001 9.04779 11.6217 9.10822C11.4982 9.15009 11.3596 9.16247 11.4422 9.37355C11.5059 9.53717 11.4495 9.72614 11.4251 9.90745C11.5312 9.87885 11.5141 9.72496 11.6279 9.72084C11.5283 10.0495 11.5563 10.3898 11.4893 10.7182C11.6854 10.5849 11.6698 10.36 11.7656 10.1566C11.6807 10.1914 11.6942 10.2692 11.609 10.2919C11.6895 10.1787 11.6541 10.0386 11.7815 9.95698C11.8552 9.90981 11.8602 9.83699 11.7343 9.81576C11.8066 9.73911 11.9242 9.70433 11.9192 9.58316Z" fill="#E6E6E6"/>
<path d="M12.7239 9.96434C12.8592 9.8308 13.0237 9.71906 13.0732 9.50709C13.0688 9.49737 13.0661 9.47201 13.0532 9.46494C13.0154 9.4443 12.9874 9.47172 12.9662 9.49825C12.8607 9.62974 12.7578 9.76358 12.6513 9.89447C12.628 9.92337 12.6472 9.93722 12.6599 9.9555C12.6776 9.98144 12.7076 9.98056 12.7242 9.96434H12.7239Z" fill="#E6E6E6"/>
<path d="M13.2717 9.42191C13.4657 9.24945 13.6423 9.05753 13.8702 8.92545C14.1302 8.77481 14.4032 8.68106 14.7101 8.7126C14.7401 8.71555 14.7994 8.80016 14.8233 8.6843C14.8395 8.60647 14.8513 8.55635 14.7735 8.51508C14.6847 8.4682 14.5904 8.44668 14.4778 8.44226C14.2387 8.45523 14.0114 8.53159 13.8192 8.7014C13.6886 8.81696 13.5541 8.92752 13.4256 9.04544C13.3377 9.12592 13.2549 9.2126 13.1747 9.30074C13.1216 9.35912 13.1169 9.46525 13.1502 9.49856C13.2089 9.55723 13.2354 9.45375 13.2714 9.42191H13.2717Z" fill="#E6E6E6"/>
<path d="M12.5566 10.1504C12.5863 10.1186 12.6173 10.0858 12.637 10.0478C12.6506 10.0213 12.6309 9.99149 12.6055 9.97203C12.5846 9.95582 12.5666 9.96673 12.5583 9.98471C12.5059 10.0994 12.3932 10.1566 12.3119 10.2436C12.1014 10.4691 11.9121 10.7138 11.6745 10.9148C11.5863 10.9894 11.5182 11.0902 11.4499 11.1855C11.3526 11.3205 11.3838 11.4626 11.5374 11.5578C11.4891 11.4632 11.5471 11.3989 11.5875 11.3296C11.847 10.8842 12.2078 10.5224 12.5569 10.1507L12.5566 10.1504Z" fill="#E6E6E6"/>
<path d="M13.2124 10.5646C13.5838 10.5661 13.8589 10.3535 14.1189 10.1188C14.1858 10.0584 14.2041 9.98498 14.1416 9.91246C14.0667 9.8252 14.0376 9.6604 13.8795 9.69666C13.6121 9.75827 13.465 9.99736 13.2631 10.1557C13.241 10.1731 13.2828 10.2441 13.2198 10.2718C12.9385 10.3954 12.8297 10.6309 12.8064 10.9204C12.7994 11.008 12.8418 11.0702 12.9087 11.1191C12.9441 11.1451 12.986 11.1648 13.0146 11.1966C13.1077 11.3013 13.1797 11.3102 13.228 11.1383C13.243 11.1831 13.251 11.207 13.259 11.2308C13.2737 11.0855 13.4689 11.0784 13.4712 10.9349C13.5361 10.9408 13.4863 11.0156 13.506 11.0174C13.6856 10.8505 13.8958 10.7429 14.0128 10.5092C13.9677 10.5404 13.9435 10.5566 13.9199 10.574C13.6717 10.7592 13.4179 10.9352 13.129 11.0531C13.0785 11.0737 13.0213 11.0973 12.9754 11.0581C12.922 11.0124 13.0028 10.9867 13.0042 10.9464C13.0051 10.9219 13.0031 10.8942 13.014 10.8741C13.0576 10.7936 13.0968 10.7076 13.1573 10.6406C13.1773 10.6185 13.1281 10.5643 13.2121 10.5646H13.2124ZM13.9137 9.92838C13.9526 9.90332 13.9777 9.91511 13.986 9.96081C13.9936 10.0047 14.0007 10.0504 13.9659 10.0855C13.7825 10.2698 13.5765 10.416 13.3091 10.4523C13.4754 10.2314 13.6888 10.0731 13.9137 9.92838Z" fill="#E6E6E6"/>
<path d="M17.8771 9.78336C17.8034 9.68843 17.7285 9.67015 17.6236 9.7182C17.5003 9.77481 17.4125 9.87445 17.3093 9.95641C17.1498 10.0829 17.0566 10.2739 16.8833 10.3824C16.7315 10.4773 16.6908 10.6286 16.6474 10.7863C16.5962 10.9729 16.6687 11.0841 16.8217 11.1884C16.975 11.2931 16.9647 11.3081 17.0575 11.1592C17.1097 11.179 17.0272 11.2203 17.0938 11.2527C17.1071 11.1194 17.1958 11.0758 17.3155 11.0646C17.337 11.0625 17.3697 11.0269 17.3839 10.9818C17.4007 10.9284 17.4835 10.8429 17.4994 10.8506C17.602 10.9001 17.6389 10.7981 17.6542 10.7639C17.6964 10.6704 17.773 10.6144 17.822 10.5201C17.7043 10.6032 17.5891 10.6899 17.4688 10.7689C17.2966 10.8818 17.1227 10.9921 16.9269 11.0616C16.8848 11.0767 16.8376 11.0908 16.801 11.0584C16.7565 11.0189 16.8134 10.9909 16.8226 10.957C16.845 10.8768 16.8102 10.7668 16.9358 10.7382C16.9496 10.735 16.9629 10.7129 16.9496 10.6902C16.9016 10.6076 17.0378 10.6321 17.0216 10.5675C17.34 10.5758 17.5849 10.4084 17.8226 10.2282C18.0496 10.0561 18.049 10.0056 17.8765 9.78365L17.8771 9.78336ZM17.7975 10.0723C17.6127 10.2704 17.3963 10.4142 17.123 10.4605C17.2872 10.2359 17.5056 10.0773 17.7341 9.93017C17.7895 9.8945 17.801 9.93843 17.8125 9.97498C17.8231 10.0086 17.8226 10.0454 17.7975 10.0723Z" fill="#E6E6E6"/>
<path d="M15.9779 10.4844C16.0401 10.5215 16.0401 10.4384 16.0516 10.4122C16.1471 10.1899 16.3497 10.1156 16.5495 10.0289C16.712 9.95844 16.9001 9.94665 17.0684 9.80927C16.8417 9.8134 16.6498 9.87413 16.4225 9.86293C16.61 9.62118 16.7718 9.39182 17.0345 9.26358C17.079 9.24176 17.1114 9.22201 17.1082 9.16954C17.1047 9.10998 17.0596 9.09023 17.0127 9.07166C16.8314 8.99973 16.5994 9.06871 16.5301 9.2509C16.4384 9.49206 16.2447 9.65685 16.1188 9.87059C16.0587 9.97289 15.8296 9.9835 15.7571 9.90125C15.6353 9.76299 15.5481 9.74589 15.3845 9.83315C15.151 9.95727 14.9611 10.1324 14.7963 10.3379C14.7742 10.3653 14.7497 10.4505 14.6899 10.3791C14.6498 10.3311 14.6595 10.2757 14.7203 10.2435C14.8399 10.1798 14.8453 10.0566 14.8444 9.95255C14.8429 9.79306 14.6958 9.83404 14.5982 9.81281C14.4865 9.78863 14.521 9.87059 14.5157 9.92602C14.5045 10.0392 14.4773 10.148 14.4151 10.2456C14.4083 10.2562 14.4072 10.2706 14.4033 10.2833C14.4481 10.2951 14.4685 10.2152 14.5213 10.2624C14.4013 10.5112 14.3252 10.7786 14.1616 11.0065C14.1725 11.015 14.1834 11.0236 14.194 11.0321C14.2232 10.9856 14.2527 10.939 14.2819 10.8924C14.2456 11.038 14.1006 11.1053 14.0496 11.2706C14.1757 11.2078 14.3164 11.2606 14.3845 11.133C14.4393 11.0298 14.4779 10.9172 14.5398 10.819C14.7341 10.5124 14.9723 10.2423 15.2568 10.0165C15.3001 9.98203 15.3564 9.94341 15.4269 9.9437C15.4036 10.1359 15.2954 10.2886 15.2412 10.4664C15.4225 10.3317 15.6118 10.2099 15.7388 10.0015C15.7503 10.0466 15.7488 10.0855 15.7674 10.1079C15.8756 10.2379 15.811 10.3411 15.7353 10.4581C15.6318 10.6185 15.5404 10.7898 15.5495 10.9909C15.561 11.2471 15.7627 11.4051 15.9579 11.2992C16.0982 11.2232 16.212 11.1073 16.2426 10.9325C16.1365 11.0254 15.9912 11.015 15.88 11.0893C15.8234 11.1271 15.7474 11.1303 15.686 11.0826C15.6536 11.0572 15.6359 11.0174 15.6545 10.9779C15.6837 10.9163 15.6916 10.8523 15.704 10.7895C15.7365 10.625 15.9016 10.5218 15.9894 10.3662C16.0389 10.4337 15.9107 10.4458 15.977 10.4853L15.9779 10.4844Z" fill="#E6E6E6"/>
<path d="M3.87465 10.9629C3.8602 11.1203 4.01881 11.2574 4.16297 11.1984C4.35194 11.1212 4.45778 10.9452 4.59103 10.8031C4.49522 10.857 4.41267 10.9257 4.32423 10.9856C4.24699 11.0378 4.1786 11.0062 4.17801 10.9195C4.17712 10.801 4.18891 10.6769 4.22606 10.5655C4.2635 10.4534 4.25259 10.3532 4.15413 10.3031C4.03208 10.2409 3.86993 10.2886 3.82482 10.4007C3.70336 10.7011 3.45101 10.8656 3.18509 11.0151C3.15767 11.0304 3.11522 11.0507 3.09045 11.0168C3.06569 10.9832 3.10166 10.9517 3.11994 10.9263C3.25054 10.745 3.31215 10.5071 3.54181 10.4057C3.55478 10.4001 3.56923 10.3901 3.57542 10.378C3.70808 10.1141 3.9737 10.1781 4.19599 10.1162C4.17358 10.0661 4.15118 10.0068 4.12111 9.95168C4.06981 9.85705 3.99552 9.81872 3.8888 9.86707C3.64263 9.97851 3.43774 10.146 3.23963 10.3234C3.27972 10.3741 3.30508 10.3022 3.35785 10.3447C3.18745 10.4089 3.04093 10.4912 2.93715 10.6849C2.98255 10.6545 2.99258 10.6474 3.0029 10.6406C3.05301 10.607 3.08161 10.4941 3.14794 10.5478C3.19541 10.5861 3.08367 10.6109 3.06215 10.6616C3.03503 10.7264 3.06923 10.824 2.96487 10.8514C2.87642 10.8747 2.88998 10.9484 2.91033 11.0047C2.94806 11.1088 3.01793 11.1911 3.12495 11.2341C3.20661 11.2671 3.29977 11.2541 3.33751 11.1887C3.37288 11.1277 3.43243 11.0837 3.45395 11.0212C3.47459 10.9614 3.55566 10.977 3.5595 10.9322C3.57542 10.7441 3.75997 10.6781 3.83396 10.5304C3.79859 10.6073 3.826 10.6875 3.80095 10.7583C3.83043 10.776 3.90413 10.6436 3.8832 10.791C3.87524 10.8464 3.88025 10.9051 3.87494 10.9629H3.87465Z" fill="#E6E6E6"/>
<path d="M8.69737 9.63829C8.81293 9.62502 8.94206 9.66069 9.02136 9.52302C9.03374 9.5012 9.08268 9.49265 9.11511 9.49147C9.29966 9.48558 9.46328 9.41011 9.62837 9.34083C9.67083 9.32284 9.73863 9.28924 9.69942 9.23823C9.64783 9.17072 9.57472 9.11029 9.49807 9.07373C9.43675 9.04454 9.42319 9.13328 9.38781 9.16807C9.33504 9.22025 9.27637 9.26182 9.21151 9.29808C9.03345 9.39772 8.85774 9.5015 8.68115 9.6038C8.68646 9.61559 8.69177 9.62709 8.69737 9.63888V9.63829Z" fill="#E6E6E6"/>
<path d="M3.28375 9.54277C3.10303 9.7229 2.91995 9.90096 2.74189 10.084C2.63959 10.1893 2.54319 10.301 2.4857 10.4399C2.45887 10.5044 2.43293 10.5675 2.51577 10.6454C2.52668 10.4299 2.63074 10.283 2.76665 10.158C2.92555 10.0118 3.09802 9.88033 3.25191 9.72938C3.41523 9.5696 3.60273 9.42691 3.70385 9.21406C3.74778 9.12149 3.77372 9.01624 3.67054 8.93576C3.53551 8.82992 3.38546 8.80693 3.28375 8.89006C3.13723 9.00975 3.00781 9.14271 2.88369 9.291C2.7127 9.49501 2.55026 9.70698 2.39342 9.92013C2.31176 10.031 2.29938 10.1916 2.18381 10.2922C2.1676 10.306 2.15551 10.3388 2.18087 10.3538C2.19236 10.3606 2.21949 10.3411 2.28081 10.3181C2.17025 10.4136 2.11571 10.5062 2.10569 10.6067C2.09449 10.7191 1.98423 10.7854 2.00192 10.913C2.02344 11.069 2.08977 11.1863 2.20003 11.2928C2.32267 11.4113 2.43676 11.3974 2.52874 11.2391C2.43588 11.2308 2.33446 11.3494 2.25752 11.2533C2.17674 11.1518 2.20091 11.0195 2.24219 10.9001C2.26459 10.8355 2.28788 10.7698 2.32296 10.7117C2.35657 10.6563 2.38193 10.6005 2.4002 10.5386C2.48511 10.2488 2.62072 9.98086 2.80468 9.74501C2.91465 9.60438 3.02933 9.46081 3.1726 9.34731C3.19943 9.32609 3.24012 9.30103 3.24247 9.27479C3.26016 9.08405 3.43705 9.09024 3.55055 9.02007C3.56647 9.01005 3.60597 9.01565 3.61983 9.02921C3.64607 9.05486 3.61511 9.08346 3.60362 9.10616C3.52136 9.26948 3.41258 9.41423 3.28316 9.54336L3.28375 9.54277Z" fill="#E6E6E6"/>
<path d="M8.20409 10.5643C8.57054 10.5708 8.84029 10.3579 9.10149 10.1345C9.19317 10.0561 9.19789 9.97056 9.12065 9.88094C9.04253 9.79043 9.00066 9.64037 8.82643 9.70611C8.68876 9.758 8.59471 9.86531 8.48416 9.95405C8.32614 10.0811 8.23387 10.2736 8.06111 10.3795C7.90574 10.4747 7.86889 10.6244 7.82261 10.7792C7.76571 10.9703 7.83469 11.0979 8.00126 11.1869C8.00539 11.1893 8.00893 11.1931 8.01217 11.1967C8.10091 11.2999 8.1752 11.3137 8.22325 11.1353C8.23563 11.1884 8.24183 11.2149 8.2548 11.2713C8.28782 11.1097 8.45497 11.0761 8.46883 10.9225C8.54666 10.9997 8.4423 11.0304 8.44996 11.0838C8.58469 11.0614 8.55196 10.8697 8.72266 10.8506C8.85591 10.8355 8.87891 10.6224 9.01216 10.5502C9.00391 10.541 8.99565 10.5319 8.9871 10.5227C8.94878 10.5507 8.91045 10.5785 8.87242 10.6065C8.64689 10.7721 8.41517 10.9275 8.1578 11.0404C8.10002 11.0658 8.03339 11.1023 7.97591 11.0622C7.90397 11.0121 8.02013 10.9797 8.00244 10.9278C7.99802 10.9151 8.00067 10.8966 8.00686 10.8848C8.05167 10.801 8.09 10.7111 8.14984 10.6395C8.16753 10.6183 8.11801 10.5628 8.2035 10.5646L8.20409 10.5643ZM8.91694 9.9228C8.95379 9.89833 8.96617 9.92162 8.97796 9.95375C8.99624 10.0045 8.99506 10.0546 8.95703 10.0911C8.77307 10.2698 8.57024 10.4169 8.30374 10.4564C8.46352 10.225 8.68994 10.0734 8.91694 9.9225V9.9228Z" fill="#E6E6E6"/>
<path d="M6.38423 10.5867C6.42521 10.5398 6.49419 10.523 6.52456 10.4472C6.5959 10.268 6.75952 10.1757 6.94053 10.13C7.25303 10.051 7.55993 9.93545 7.89188 9.967C7.90073 9.96788 7.91105 9.95078 7.92932 9.93427C7.80875 9.87561 7.69082 9.85939 7.56848 9.86499C7.42608 9.87177 7.28399 9.88416 7.14189 9.88445C7.09472 9.88445 7.02544 9.88357 7.01836 9.81163C7.01483 9.77449 6.96294 9.72231 7.02868 9.69784C7.09324 9.67366 7.15515 9.6259 7.22797 9.64389C7.24448 9.64801 7.24979 9.72702 7.28222 9.67189C7.29991 9.64182 7.36034 9.60821 7.33292 9.57254C7.27956 9.50238 7.33587 9.48911 7.36771 9.44401C7.42844 9.35792 7.53163 9.34524 7.60091 9.26063C7.90397 8.89094 8.4075 8.87031 8.77837 9.01447C8.85355 9.04366 8.86122 9.0979 8.82938 9.16954C8.78781 9.2627 8.70968 9.31694 8.63008 9.37915C8.78191 9.34495 8.92578 9.29424 9.08144 9.29483C9.16634 9.29513 9.19199 9.22054 9.18226 9.14448C9.16457 9.00621 9.07584 8.9278 8.94936 8.88593C8.64748 8.78599 8.3394 8.80427 8.03015 8.83611C7.98239 8.84112 7.9361 8.8709 7.88746 8.78481C7.80609 8.64065 7.60651 8.64271 7.48003 8.75504C7.43021 8.79926 7.39218 8.86058 7.31258 8.86382C6.97591 8.87738 6.65545 8.97113 6.33617 9.0693C6.01631 9.16777 5.79373 9.36795 5.69379 9.694C5.67462 9.75621 5.64514 9.83345 5.71472 9.86558C5.78223 9.89683 5.87509 9.92101 5.93848 9.82225C5.87686 9.8022 5.80493 9.85644 5.7784 9.79837C5.7557 9.74884 5.82114 9.70845 5.84797 9.66423C5.86301 9.63917 5.88246 9.61617 5.90339 9.59554C6.25893 9.23941 6.70911 9.10851 7.19201 9.05604C7.22768 9.0522 7.25451 9.05515 7.26866 9.10144C7.2834 9.14979 7.28192 9.18723 7.24448 9.21995C7.0844 9.36146 6.98269 9.55014 6.84678 9.71081C6.72739 9.85202 6.59295 9.97761 6.3801 9.9325C6.3232 9.92042 6.2722 9.93545 6.24744 9.99707C6.21471 10.0781 6.15398 10.1698 6.23004 10.2432C6.32291 10.3329 6.27485 10.4001 6.22356 10.4708C6.1021 10.6383 5.99567 10.8134 5.92639 11.0094C5.88747 11.1188 5.87332 11.2288 5.92786 11.3376C5.98447 11.4505 6.06377 11.4679 6.16872 11.4051C6.27633 11.3408 6.34207 11.2335 6.42845 11.1456C6.37273 11.1748 6.31524 11.2008 6.26188 11.2341C6.21118 11.2659 6.15398 11.2795 6.11035 11.2456C6.0567 11.204 6.09148 11.1377 6.11684 11.0985C6.22149 10.9372 6.25097 10.74 6.38482 10.587L6.38423 10.5867Z" fill="#E6E6E6"/>
<path d="M9.44684 10.7314C9.45303 10.7297 9.45539 10.7076 9.45627 10.6949C9.45745 10.6796 9.5173 10.5687 9.52732 10.5687C9.88492 10.5722 10.1467 10.37 10.4061 10.1613C10.5196 10.0699 10.5241 9.97731 10.4386 9.85969C10.2938 9.66069 10.2192 9.63976 10.0197 9.78127C9.94418 9.83463 9.88551 9.91246 9.80886 9.96346C9.65232 10.0672 9.57803 10.2512 9.42119 10.3514C9.32803 10.411 9.24932 10.4826 9.21541 10.5873C9.10958 10.9139 9.06418 11.0227 9.33245 11.1943C9.48575 11.2925 9.47337 11.3119 9.5568 11.1613C9.60751 11.1742 9.53322 11.2276 9.58245 11.2409C9.65556 11.2126 9.62756 11.089 9.65527 11.0935C9.80326 11.1185 9.87667 11.026 9.92531 10.9248C9.96747 10.8373 10.0559 10.8806 10.1057 10.8234C10.1856 10.7311 10.2319 10.6132 10.3501 10.5519C10.3413 10.5425 10.3324 10.5333 10.3239 10.5239C10.2865 10.5495 10.2481 10.574 10.2116 10.6011C10.0143 10.7477 9.81034 10.883 9.5907 10.9938C9.52083 11.0289 9.45126 11.0699 9.37137 11.0737C9.31624 11.0764 9.24843 11.0796 9.30916 10.9859C9.36105 10.9057 9.31181 10.7701 9.44654 10.7317L9.44684 10.7314ZM10.234 9.93162C10.2859 9.89742 10.3 9.9269 10.3151 9.96906C10.3342 10.023 10.3162 10.0696 10.2797 10.1032C10.0951 10.273 9.89583 10.4192 9.63345 10.4579C9.79206 10.2335 10.0102 10.0793 10.2343 9.93162H10.234Z" fill="#E6E6E6"/>
</svg>
