<svg width="20" height="20" viewBox="0 0 20 20" fill="none" xmlns="http://www.w3.org/2000/svg">
<g opacity="0.75">
<path d="M13.4329 9.27419C13.556 9.26759 13.6523 9.22797 13.7219 9.15547C13.7914 9.08297 13.8231 8.98808 13.8168 8.87093C13.8105 8.75379 13.7689 8.66277 13.6919 8.59817C13.615 8.53357 13.5149 8.50457 13.3919 8.51117L13.1316 8.5251L13.1726 9.28812L13.4329 9.27419Z" fill="#E6E6E6"/>
<path d="M8.59012 8.94745C8.55351 8.88945 8.50499 8.84538 8.44455 8.81508C8.38411 8.78479 8.31764 8.77159 8.245 8.77561C8.17236 8.77948 8.10762 8.79972 8.05077 8.83633C7.99392 8.87294 7.95042 8.92189 7.92027 8.98348C7.89012 9.04507 7.87706 9.11398 7.88108 9.19006C7.88524 9.26629 7.90549 9.33333 7.94209 9.39133C7.9787 9.44933 8.02722 9.4934 8.08766 9.52369C8.1481 9.55399 8.21457 9.56719 8.28721 9.56317C8.35985 9.5593 8.4246 9.53906 8.48145 9.50245C8.5383 9.46584 8.58179 9.41689 8.61194 9.3553C8.64209 9.29371 8.65515 9.2248 8.65113 9.14872C8.64697 9.07249 8.62673 9.00544 8.59012 8.94745Z" fill="#E6E6E6"/>
<path d="M11.3608 9.13887L11.7512 9.11791L11.5307 8.65723L11.3608 9.13887Z" fill="#E6E6E6"/>
<path d="M17.7687 7.42578L2 8.27364L2.23127 12.5743L18 11.7264L17.7687 7.42578ZM15.7511 8.1499L15.8048 9.14864L16.422 9.11548L16.4345 9.34761L15.5325 9.39614L15.4663 8.1654L15.7511 8.15004V8.1499ZM15.2167 8.17861L15.229 8.40715L14.582 8.4419L14.5963 8.7092L15.1677 8.67848L15.1796 8.89999L14.6083 8.93072L14.6236 9.21554L15.2935 9.1795L15.3058 9.40805L14.3529 9.4593L14.2867 8.22857L15.2168 8.17861H15.2167ZM9.65373 8.47779C9.7627 8.4719 9.85831 8.48496 9.94057 8.51698C10.0228 8.54899 10.0874 8.59723 10.1344 8.66169C10.1813 8.72614 10.2073 8.8041 10.2122 8.89554C10.2171 8.98699 10.1994 9.06695 10.1589 9.13558C10.1186 9.2042 10.0589 9.25818 9.9799 9.2978L10.2772 9.67852L9.97129 9.69503L9.71546 9.36498L9.7014 9.3657L9.45347 9.37905L9.47184 9.72187L9.18702 9.73723L9.12084 8.5065L9.65359 8.47779H9.65373ZM7.50163 8.59349L7.51412 8.82563L7.12034 8.84688L7.17403 9.84562L6.88921 9.86098L6.83552 8.86238L6.44173 8.88363L6.42924 8.65149L7.50178 8.59378L7.50163 8.59349ZM3.46646 8.81041L3.75128 8.79505L3.77741 9.28028L4.33658 9.25028L4.31045 8.76505L4.59527 8.74969L4.66145 9.98042L4.37663 9.99578L4.3495 9.49117L3.79033 9.52118L3.81746 10.0258L3.53264 10.0411L3.46646 8.81041ZM3.93418 11.0387L4.62556 11.0016L4.64049 11.2789L3.94911 11.3161L3.97839 11.8602L3.6327 11.8787L3.55245 10.3851L4.68126 10.3244L4.69619 10.6017L3.91307 10.6438L3.93432 11.0386L3.93418 11.0387ZM5.17195 8.71868L5.23813 9.94941L4.95331 9.96478L4.88713 8.73404L5.17195 8.71868ZM4.99609 11.8055L4.91584 10.3119L6.04465 10.2512L6.05958 10.5285L5.27431 10.5707L5.29168 10.895L5.98507 10.8577L5.99957 11.1266L5.30618 11.1639L5.3247 11.5096L6.13767 11.466L6.1526 11.7433L4.99609 11.8055ZM6.21936 9.86672C6.1427 9.90491 6.04809 9.92702 5.93554 9.93319C5.83821 9.93836 5.74346 9.93032 5.65115 9.90879C5.55884 9.88725 5.48405 9.85696 5.42677 9.81777L5.5119 9.59812C5.56674 9.63401 5.63105 9.66172 5.70498 9.68125C5.77892 9.70077 5.85228 9.70867 5.92492 9.70465C6.00574 9.70034 6.06489 9.68512 6.10236 9.65899C6.13968 9.63287 6.15734 9.59985 6.15519 9.56008C6.15361 9.5308 6.14083 9.50711 6.117 9.48902C6.09317 9.47093 6.06302 9.45701 6.02656 9.4471C5.99009 9.43734 5.94114 9.427 5.87941 9.41623C5.78437 9.39901 5.70642 9.38092 5.64555 9.36183C5.58454 9.34273 5.53142 9.30971 5.48591 9.26291C5.4404 9.21597 5.41557 9.15151 5.41112 9.06939C5.40724 8.9979 5.42318 8.93215 5.45864 8.872C5.49424 8.81185 5.55008 8.76275 5.62617 8.72456C5.70226 8.68638 5.79658 8.66427 5.90913 8.65824C5.98765 8.65408 6.06489 8.65924 6.14098 8.67403C6.21692 8.68882 6.2841 8.71222 6.34225 8.74438L6.26602 8.96531C6.14887 8.90703 6.03345 8.8809 5.91975 8.88693C5.84007 8.89124 5.78179 8.90732 5.74518 8.93517C5.70843 8.96302 5.6912 8.99805 5.6935 9.04025C5.6958 9.08246 5.71948 9.11261 5.76442 9.13084C5.8095 9.14893 5.87769 9.16558 5.96899 9.18065C6.06388 9.19788 6.14198 9.21597 6.20285 9.23506C6.26386 9.25416 6.31698 9.2866 6.36234 9.33225C6.40771 9.37805 6.43254 9.44193 6.437 9.5239C6.44073 9.59425 6.42465 9.65942 6.38847 9.71958C6.3523 9.77973 6.29588 9.82897 6.21922 9.86716L6.21936 9.86672ZM7.78703 11.6553L7.73664 10.7592L7.33683 11.5211L7.18106 11.5294L6.70502 10.8339L6.75211 11.7109L6.42781 11.7283L6.34756 10.2347L6.63353 10.2193L7.24251 11.1174L7.7431 10.1596L8.02692 10.1444L8.11147 11.6378L7.78717 11.6552L7.78703 11.6553ZM8.46549 11.6189L8.38524 10.1253L8.73093 10.1068L8.81118 11.6003L8.46549 11.6189ZM8.86904 9.46404C8.81563 9.56396 8.7394 9.64406 8.64035 9.70465C8.54129 9.76523 8.42788 9.79896 8.30011 9.80586C8.17234 9.81275 8.05563 9.79136 7.95011 9.74183C7.8446 9.6923 7.76018 9.62066 7.69702 9.52706C7.63385 9.43346 7.59897 9.32637 7.59251 9.20563C7.58605 9.0849 7.60916 8.97465 7.66199 8.87473C7.71482 8.77495 7.79105 8.6947 7.89068 8.63412C7.99031 8.57354 8.10401 8.5398 8.23178 8.53291C8.35954 8.52602 8.47597 8.54741 8.58077 8.59708C8.68571 8.64676 8.77013 8.71825 8.83387 8.81185C8.89761 8.90545 8.93278 9.01255 8.93938 9.13328C8.94584 9.25401 8.92244 9.36427 8.86904 9.46418V9.46404ZM10.2514 11.5228L9.45792 10.656L9.50673 11.5629L9.16534 11.5813L9.08509 10.0877L9.37107 10.0723L10.1624 10.9393L10.1136 10.0324L10.4549 10.014L10.5352 11.5076L10.2514 11.5228ZM10.4792 9.66761L10.413 8.43687L10.6978 8.42151L10.764 9.65225L10.4792 9.66761ZM10.8894 11.4885L10.8091 9.99492L11.1548 9.9764L11.235 11.47L10.8894 11.4885ZM11.1861 9.62956L10.8942 9.64521L11.3766 8.3849L11.658 8.36983L12.2744 9.57099L11.9755 9.58707L11.8523 9.32924L11.281 9.35996L11.1861 9.62956ZM12.6313 11.1905C12.5874 11.2634 12.5189 11.3231 12.4259 11.3695C12.3328 11.4159 12.218 11.4427 12.0815 11.45C11.9633 11.4564 11.8483 11.4466 11.7365 11.4205C11.6245 11.3943 11.5338 11.3576 11.4642 11.3099L11.5675 11.0433C11.6341 11.0868 11.7122 11.1204 11.802 11.1441C11.8917 11.1678 11.9805 11.1773 12.0688 11.1725C12.167 11.1672 12.2388 11.1489 12.2842 11.1171C12.3295 11.0854 12.3509 11.0453 12.3483 10.9971C12.3465 10.9615 12.331 10.9328 12.302 10.9108C12.273 10.8889 12.2364 10.8719 12.1923 10.86C12.1481 10.8481 12.0886 10.8356 12.0137 10.8225C11.8984 10.8017 11.8038 10.7796 11.7299 10.7565C11.656 10.7334 11.5914 10.6933 11.5362 10.6363C11.4811 10.5794 11.4508 10.5011 11.4455 10.4016C11.4409 10.3149 11.4601 10.235 11.5032 10.162C11.5464 10.0891 11.614 10.0295 11.7065 9.98315C11.7988 9.93678 11.9134 9.90994 12.0499 9.90261C12.1452 9.89745 12.239 9.90391 12.3313 9.92171C12.4236 9.93965 12.505 9.96793 12.5755 10.007L12.4829 10.2752C12.3407 10.2044 12.2006 10.1726 12.0627 10.18C11.9659 10.1851 11.8953 10.2047 11.8508 10.2384C11.8063 10.2721 11.7853 10.3146 11.788 10.3659C11.7908 10.4171 11.8195 10.4537 11.8742 10.4757C11.9289 10.4978 12.0116 10.5179 12.1224 10.5361C12.2377 10.5571 12.3323 10.5791 12.4062 10.6022C12.4803 10.6253 12.5447 10.6646 12.5999 10.7202C12.6548 10.7757 12.6851 10.8533 12.6904 10.9529C12.695 11.0382 12.6754 11.1174 12.6316 11.1903L12.6313 11.1905ZM13.3933 8.27652C13.527 8.26934 13.6464 8.28843 13.7516 8.33394C13.8569 8.37945 13.9406 8.44692 14.0023 8.5365C14.0642 8.62608 14.0983 8.73232 14.1049 8.85549C14.1115 8.97852 14.0889 9.08791 14.037 9.18352C13.9852 9.27914 13.9093 9.35522 13.8095 9.41178C13.7097 9.46835 13.593 9.50007 13.4594 9.50725L12.9002 9.53726L12.834 8.30652L13.3932 8.27652H13.3933ZM14.3098 11.3046L14.2594 10.4085L13.8596 11.1704L13.7038 11.1787L13.2278 10.4832L13.2749 11.3602L12.9506 11.3775L12.8703 9.88395L13.1563 9.86859L13.7653 10.7667L14.2659 9.80887L14.5497 9.79365L14.6342 11.2871L14.3099 11.3045L14.3098 11.3046ZM16.4033 10.8401C16.3384 10.9612 16.246 11.0586 16.1258 11.1321C16.0057 11.2056 15.868 11.2465 15.713 11.2548C15.5579 11.2631 15.4164 11.2373 15.2883 11.177C15.1602 11.1168 15.0579 11.03 14.9811 10.9164C14.9044 10.8029 14.8621 10.6728 14.8542 10.5262C14.8463 10.3798 14.8744 10.2459 14.9384 10.1247C15.0026 10.0035 15.0951 9.9062 15.2159 9.8327C15.3368 9.7592 15.4748 9.71814 15.6298 9.70981C15.7849 9.70149 15.9261 9.72747 16.0535 9.78762C16.1808 9.84792 16.2832 9.93463 16.3607 10.0482C16.4381 10.1617 16.4809 10.2918 16.4886 10.4382C16.4965 10.5848 16.4681 10.7186 16.4032 10.8398L16.4033 10.8401Z" fill="#E6E6E6"/>
<path d="M16.0646 10.2132C16.0201 10.1428 15.9613 10.0893 15.888 10.0525C15.8147 10.0158 15.734 9.99986 15.6459 10.0046C15.5577 10.0093 15.479 10.0339 15.4101 10.0782C15.3412 10.1226 15.2884 10.1822 15.2518 10.2568C15.2152 10.3316 15.1992 10.4152 15.2043 10.5076C15.2093 10.6001 15.234 10.6815 15.2783 10.7518C15.3229 10.8222 15.3817 10.8757 15.4549 10.9125C15.5283 10.9492 15.609 10.9652 15.6971 10.9604C15.7853 10.9557 15.8639 10.9311 15.9328 10.8868C16.0017 10.8424 16.0546 10.7828 16.0912 10.7082C16.1278 10.6335 16.1436 10.5498 16.1387 10.4574C16.1337 10.3649 16.109 10.2835 16.0646 10.2132Z" fill="#E6E6E6"/>
<path d="M9.67346 9.13972C9.75902 9.13513 9.82305 9.11288 9.86554 9.07297C9.90804 9.03306 9.92756 8.97908 9.92383 8.91118C9.9201 8.84198 9.89497 8.79015 9.84846 8.7557C9.80195 8.72125 9.73591 8.70617 9.65035 8.71077L9.41821 8.72326L9.44133 9.15221L9.67346 9.13972Z" fill="#E6E6E6"/>
</g>
</svg>
