<svg width="20" height="20" viewBox="0 0 20 20" fill="none" xmlns="http://www.w3.org/2000/svg">
<mask id="mask0_1173_13966" style="mask-type:luminance" maskUnits="userSpaceOnUse" x="2" y="11" width="16" height="2">
<path d="M18.0001 11.6704H2.00024V12.6235H18.0001V11.6704Z" fill="white"/>
</mask>
<g mask="url(#mask0_1173_13966)">
<mask id="mask1_1173_13966" style="mask-type:luminance" maskUnits="userSpaceOnUse" x="2" y="11" width="16" height="2">
<path d="M18.0001 11.6704H2.00024V12.6235H18.0001V11.6704Z" fill="white"/>
</mask>
<g mask="url(#mask1_1173_13966)">
<g opacity="0.8">
<mask id="mask2_1173_13966" style="mask-type:luminance" maskUnits="userSpaceOnUse" x="0" y="10" width="7" height="3">
<path d="M6.06997 10.8444H0.920166V12.6868H6.06997V10.8444Z" fill="white"/>
</mask>
<g mask="url(#mask2_1173_13966)">
<path d="M2.21962 12.6233C2.20095 12.6233 2.18584 12.6082 2.18584 12.5895V12.2699L2.01269 12.1284C2.00487 12.122 2.00024 12.1124 2.00024 12.1021V11.7965C2.00024 11.7778 2.01536 11.7627 2.03402 11.7627C2.05269 11.7627 2.0678 11.7778 2.0678 11.7965V12.0861L2.24095 12.2276C2.24877 12.234 2.2534 12.2436 2.2534 12.2539V12.5895C2.2534 12.6082 2.23829 12.6233 2.21962 12.6233Z" fill="#E6E6E6"/>
<path d="M2.40628 12.6233C2.38761 12.6233 2.3725 12.6082 2.3725 12.5896V11.8152C2.3725 11.7727 2.33801 11.738 2.29534 11.738C2.25268 11.738 2.21819 11.7727 2.21819 11.8152V11.9222C2.21819 11.9409 2.20308 11.956 2.18441 11.956C2.16575 11.956 2.15063 11.9409 2.15063 11.9222V11.8152C2.15063 11.7354 2.21552 11.6703 2.29552 11.6703C2.37552 11.6703 2.44041 11.7354 2.44041 11.8152V12.5896C2.44041 12.6082 2.4253 12.6233 2.40663 12.6233" fill="#E6E6E6"/>
<path d="M4.20022 12.6233C4.18156 12.6233 4.16644 12.6082 4.16644 12.5896V11.8152C4.16644 11.7727 4.13196 11.738 4.08929 11.738C4.04662 11.738 4.01213 11.7727 4.01213 11.8152V11.9222C4.01213 11.9409 3.99702 11.956 3.97836 11.956C3.95969 11.956 3.94458 11.9409 3.94458 11.9222V11.8152C3.94458 11.7354 4.00947 11.6703 4.08947 11.6703C4.16947 11.6703 4.23435 11.7354 4.23435 11.8152V12.5896C4.23435 12.6082 4.21924 12.6233 4.20058 12.6233" fill="#E6E6E6"/>
<path d="M2.66017 11.9802C2.6303 11.9802 2.57555 12.0895 2.57555 12.268C2.57555 12.4465 2.6303 12.5556 2.66017 12.5556C2.69003 12.5556 2.74479 12.4463 2.74479 12.268C2.74479 12.0897 2.69003 11.9802 2.66017 11.9802ZM2.66017 12.6233C2.56008 12.6233 2.50781 12.4445 2.50781 12.268C2.50781 12.0914 2.56008 11.9126 2.66017 11.9126C2.76025 11.9126 2.81252 12.0914 2.81252 12.268C2.81252 12.4445 2.76025 12.6233 2.66017 12.6233Z" fill="#E6E6E6"/>
<path d="M3.04953 11.8109C3.02571 11.8109 2.9818 11.8881 2.9818 12.0139C2.9818 12.1398 3.02553 12.2171 3.04953 12.2171C3.07353 12.2171 3.11726 12.14 3.11726 12.0139C3.11726 11.8879 3.07353 11.8109 3.04953 11.8109ZM3.04953 12.2847C2.96064 12.2847 2.91406 12.1485 2.91406 12.0139C2.91406 11.8793 2.96064 11.7432 3.04953 11.7432C3.13842 11.7432 3.18499 11.8793 3.18499 12.0139C3.18499 12.1485 3.13842 12.2847 3.04953 12.2847Z" fill="#E6E6E6"/>
<path d="M3.3711 11.9802C3.34124 11.9802 3.28648 12.0895 3.28648 12.268C3.28648 12.4465 3.34124 12.5556 3.3711 12.5556C3.40097 12.5556 3.45573 12.4463 3.45573 12.268C3.45573 12.0897 3.40097 11.9802 3.3711 11.9802ZM3.3711 12.6233C3.27102 12.6233 3.21875 12.4445 3.21875 12.268C3.21875 12.0914 3.27102 11.9126 3.3711 11.9126C3.47119 11.9126 3.52346 12.0914 3.52346 12.268C3.52346 12.4445 3.47119 12.6233 3.3711 12.6233Z" fill="#E6E6E6"/>
<path d="M3.76022 11.8109C3.7364 11.8109 3.69249 11.8881 3.69249 12.0139C3.69249 12.1398 3.73622 12.2171 3.76022 12.2171C3.78422 12.2171 3.82795 12.14 3.82795 12.0139C3.82795 11.8879 3.78422 11.8109 3.76022 11.8109ZM3.76022 12.2847C3.67133 12.2847 3.62476 12.1485 3.62476 12.0139C3.62476 11.8793 3.67133 11.7432 3.76022 11.7432C3.84911 11.7432 3.89569 11.8793 3.89569 12.0139C3.89569 12.1485 3.84911 12.2847 3.76022 12.2847Z" fill="#E6E6E6"/>
<path d="M4.95597 12.6233H4.44256C4.36487 12.6233 4.30176 12.5602 4.30176 12.4825C4.30176 12.4048 4.36487 12.3417 4.44256 12.3417H4.85446C4.8918 12.3417 4.9222 12.3113 4.9222 12.274C4.9222 12.2366 4.8918 12.2062 4.85446 12.2062H4.33571C4.31705 12.2062 4.30194 12.1911 4.30194 12.1724C4.30194 12.1538 4.31705 12.1387 4.33571 12.1387H4.85446C4.92913 12.1387 4.98993 12.1995 4.98993 12.2741C4.98993 12.3488 4.92913 12.4096 4.85446 12.4096H4.44256C4.4022 12.4096 4.36949 12.4423 4.36949 12.4827C4.36949 12.523 4.4022 12.5557 4.44256 12.5557H4.95597C4.97464 12.5557 4.98975 12.5708 4.98975 12.5895C4.98975 12.6082 4.97464 12.6233 4.95597 12.6233Z" fill="#E6E6E6"/>
</g>
</g>
<g opacity="0.8">
<mask id="mask3_1173_13966" style="mask-type:luminance" maskUnits="userSpaceOnUse" x="4" y="10" width="5" height="3">
<path d="M8.43311 10.8445H4.03564V12.687H8.43311V10.8445Z" fill="white"/>
</mask>
<g mask="url(#mask3_1173_13966)">
<path d="M5.86158 12.5217C5.86158 12.5779 5.81607 12.6234 5.75989 12.6234C5.70371 12.6234 5.6582 12.5779 5.6582 12.5217C5.6582 12.4656 5.70371 12.42 5.75989 12.42C5.81607 12.42 5.86158 12.4656 5.86158 12.5217Z" fill="#E6E6E6"/>
<path d="M6.62347 12.6234C6.60481 12.6234 6.58952 12.6083 6.58952 12.5894V12.2694L6.41601 12.1276C6.40819 12.1212 6.40356 12.1116 6.40356 12.1013V11.7951C6.40356 11.7765 6.41868 11.7614 6.43734 11.7614C6.45601 11.7614 6.4713 11.7765 6.4713 11.7951V12.0853L6.64481 12.2271C6.65263 12.2335 6.65725 12.2431 6.65725 12.2534V12.5896C6.65725 12.6083 6.64214 12.6236 6.6233 12.6236" fill="#E6E6E6"/>
<path d="M5.14968 12.6235C5.14523 12.6235 5.14097 12.6226 5.1367 12.6208C5.12408 12.6157 5.11572 12.6032 5.11572 12.5895V11.7421C5.11572 11.7234 5.13083 11.7081 5.14968 11.7081C5.16852 11.7081 5.18363 11.7232 5.18363 11.7421V12.5078L5.26612 12.4251C5.27928 12.4119 5.30079 12.4119 5.31394 12.4251C5.3271 12.4384 5.3271 12.4598 5.31394 12.4731L5.1735 12.6135C5.1671 12.6199 5.15839 12.6235 5.1495 12.6235" fill="#E6E6E6"/>
<path d="M5.59044 11.7381C5.47827 11.7381 5.38707 11.8293 5.38707 11.9415C5.38707 12.0537 5.47827 12.1449 5.59044 12.1449C5.70262 12.1449 5.79382 12.0537 5.79382 11.9415C5.79382 11.8293 5.70262 11.7381 5.59044 11.7381ZM5.59044 12.2126C5.44093 12.2126 5.31934 12.091 5.31934 11.9415C5.31934 11.792 5.44093 11.6704 5.59044 11.6704C5.73995 11.6704 5.86155 11.792 5.86155 11.9415C5.86155 12.091 5.73995 12.2126 5.59044 12.2126Z" fill="#E6E6E6"/>
<path d="M5.82753 12.3861H5.35305C5.33438 12.3861 5.31909 12.371 5.31909 12.3521C5.31909 12.3333 5.3342 12.3184 5.35305 12.3184H5.82753C5.8462 12.3184 5.86149 12.3335 5.86149 12.3521C5.86149 12.3708 5.84637 12.3861 5.82753 12.3861Z" fill="#E6E6E6"/>
<path d="M6.30219 12.0811C6.28352 12.0811 6.26823 12.0962 6.26823 12.115V12.2105C6.26823 12.2386 6.24548 12.2613 6.21739 12.2613C6.1893 12.2613 6.16655 12.2386 6.16655 12.2105V11.81C6.16655 11.7913 6.15143 11.776 6.13259 11.776C6.11375 11.776 6.09881 11.7911 6.09881 11.81V12.5163C6.09881 12.5379 6.08104 12.5557 6.05935 12.5557C6.03766 12.5557 6.01988 12.5381 6.01988 12.5163V12.3893C6.01988 12.3707 6.00477 12.3555 5.98593 12.3555C5.96708 12.3555 5.95215 12.3707 5.95215 12.3893V12.5163C5.95215 12.5753 6.00033 12.6235 6.05935 12.6235C6.11837 12.6235 6.16655 12.5753 6.16655 12.5163V12.3172C6.18201 12.3244 6.19908 12.3291 6.21739 12.3291C6.28281 12.3291 6.33614 12.2759 6.33614 12.2105V12.115C6.33614 12.0964 6.32103 12.0811 6.30219 12.0811Z" fill="#E6E6E6"/>
<path d="M7.31901 12.4539H7.21732C6.9743 12.4539 6.77661 12.2562 6.77661 12.0131C6.77661 11.9945 6.79172 11.9794 6.81039 11.9794C6.82906 11.9794 6.84434 11.9945 6.84434 12.0131C6.84434 12.2188 7.01163 12.3861 7.21714 12.3861H7.31883C7.33749 12.3861 7.35278 12.4012 7.35278 12.4199C7.35278 12.4386 7.33767 12.4539 7.31883 12.4539" fill="#E6E6E6"/>
<path d="M7.048 12.6234H6.94632C6.81547 12.6234 6.70898 12.5169 6.70898 12.3861C6.70898 12.3674 6.7241 12.3523 6.74276 12.3523C6.76143 12.3523 6.77672 12.3674 6.77672 12.3861C6.77672 12.4796 6.8528 12.5557 6.94614 12.5557H7.04783C7.06649 12.5557 7.08178 12.5708 7.08178 12.5894C7.08178 12.6081 7.06667 12.6234 7.04783 12.6234" fill="#E6E6E6"/>
</g>
</g>
<g opacity="0.8">
<mask id="mask4_1173_13966" style="mask-type:luminance" maskUnits="userSpaceOnUse" x="6" y="10" width="4" height="3">
<path d="M9.37863 10.8445H6.39893V12.687H9.37863V10.8445Z" fill="white"/>
</mask>
<g mask="url(#mask4_1173_13966)">
<path d="M7.76908 11.9747C7.73903 11.9747 7.68374 12.0849 7.68374 12.2648C7.68374 12.4447 7.73903 12.555 7.76908 12.555C7.79912 12.555 7.85441 12.4447 7.85441 12.2648C7.85441 12.0849 7.79912 11.9747 7.76908 11.9747ZM7.76908 12.6234C7.66828 12.6234 7.61548 12.4431 7.61548 12.265C7.61548 12.0869 7.66828 11.9066 7.76908 11.9066C7.86988 11.9066 7.92268 12.0869 7.92268 12.265C7.92268 12.4431 7.86988 12.6234 7.76908 12.6234Z" fill="#E6E6E6"/>
<path d="M8.16192 11.8041C8.13792 11.8041 8.09366 11.8817 8.09366 12.0088C8.09366 12.136 8.13792 12.2136 8.16192 12.2136C8.18592 12.2136 8.23019 12.136 8.23019 12.0088C8.23019 11.8817 8.18592 11.8041 8.16192 11.8041ZM8.16192 12.2821C8.07232 12.2821 8.02539 12.1447 8.02539 12.009C8.02539 11.8734 8.07232 11.736 8.16192 11.736C8.25152 11.736 8.29845 11.8734 8.29845 12.009C8.29845 12.1447 8.25152 12.2821 8.16192 12.2821Z" fill="#E6E6E6"/>
<path d="M7.51314 12.6236C7.49429 12.6236 7.479 12.6083 7.479 12.5895V11.7047C7.479 11.6858 7.49429 11.6705 7.51314 11.6705C7.53198 11.6705 7.54727 11.6858 7.54727 11.7047V12.5895C7.54727 12.6083 7.53198 12.6236 7.51314 12.6236Z" fill="#E6E6E6"/>
</g>
</g>
<g opacity="0.8">
<mask id="mask5_1173_13966" style="mask-type:luminance" maskUnits="userSpaceOnUse" x="7" y="10" width="7" height="3">
<path d="M13.7915 10.8445H7.31055V12.687H13.7915V10.8445Z" fill="white"/>
</mask>
<g mask="url(#mask5_1173_13966)">
<path d="M10.7147 12.6234C10.6966 12.6234 10.682 12.6087 10.682 12.5907V11.8417C10.682 11.8007 10.6486 11.7671 10.6074 11.7671C10.5661 11.7671 10.5327 11.8005 10.5327 11.8417V11.9454C10.5327 11.9635 10.518 11.9781 10.5 11.9781C10.482 11.9781 10.4673 11.9633 10.4673 11.9454V11.8417C10.4673 11.7644 10.53 11.7017 10.6074 11.7017C10.6847 11.7017 10.7475 11.7644 10.7475 11.8417V12.5907C10.7475 12.6088 10.7329 12.6234 10.7147 12.6234Z" fill="#E6E6E6"/>
<path d="M8.6852 12.0997C8.5588 12.0997 8.45605 12.2025 8.45605 12.3289C8.45605 12.4553 8.5588 12.558 8.6852 12.558C8.8116 12.558 8.91435 12.4553 8.91435 12.3289C8.91435 12.2025 8.8116 12.0997 8.6852 12.0997ZM8.6852 12.6235C8.52271 12.6235 8.39062 12.4914 8.39062 12.3289C8.39062 12.1664 8.52271 12.0343 8.6852 12.0343C8.84769 12.0343 8.97977 12.1664 8.97977 12.3289C8.97977 12.4914 8.84769 12.6235 8.6852 12.6235Z" fill="#E6E6E6"/>
<path d="M12.3185 11.7358C12.2102 11.7358 12.1221 11.824 12.1221 11.9323C12.1221 12.0405 12.2101 12.1287 12.3185 12.1287C12.4269 12.1287 12.5149 12.0405 12.5149 11.9323C12.5149 11.824 12.4269 11.7358 12.3185 11.7358ZM12.3185 12.1941C12.1742 12.1941 12.0566 12.0766 12.0566 11.9323C12.0566 11.7879 12.174 11.6704 12.3185 11.6704C12.463 11.6704 12.5804 11.7879 12.5804 11.9323C12.5804 12.0766 12.4629 12.1941 12.3185 12.1941Z" fill="#E6E6E6"/>
<path d="M12.5477 12.3616H12.0894C12.0714 12.3616 12.0566 12.3468 12.0566 12.3289C12.0566 12.3109 12.0714 12.2961 12.0894 12.2961H12.5477C12.5656 12.2961 12.5804 12.3107 12.5804 12.3289C12.5804 12.347 12.5656 12.3616 12.5477 12.3616Z" fill="#E6E6E6"/>
<path d="M12.5805 12.5252C12.5805 12.5794 12.5366 12.6235 12.4822 12.6235C12.4278 12.6235 12.384 12.5796 12.384 12.5252C12.384 12.4708 12.4279 12.4269 12.4822 12.4269C12.5364 12.4269 12.5805 12.4708 12.5805 12.5252Z" fill="#E6E6E6"/>
<path d="M11.0092 11.936C11.0092 11.9902 10.9653 12.0343 10.9109 12.0343C10.8565 12.0343 10.8127 11.9904 10.8127 11.936C10.8127 11.8816 10.8567 11.8376 10.9109 11.8376C10.9651 11.8376 11.0092 11.8816 11.0092 11.936Z" fill="#E6E6E6"/>
<path d="M9.76543 12.4597H9.66712C9.43245 12.4597 9.2417 12.2688 9.2417 12.0343C9.2417 12.0162 9.25645 12.0016 9.27441 12.0016C9.29237 12.0016 9.30712 12.0163 9.30712 12.0343C9.30712 12.2329 9.46872 12.3943 9.66712 12.3943H9.76543C9.78338 12.3943 9.79814 12.4089 9.79814 12.427C9.79814 12.4451 9.78338 12.4597 9.76543 12.4597Z" fill="#E6E6E6"/>
<path d="M9.50349 12.6234H9.40518C9.27878 12.6234 9.17603 12.5207 9.17603 12.3943C9.17603 12.3761 9.19078 12.3616 9.20874 12.3616C9.22669 12.3616 9.24145 12.3761 9.24145 12.3943C9.24145 12.4846 9.31487 12.558 9.40518 12.558H9.50349C9.52144 12.558 9.5362 12.5726 9.5362 12.5907C9.5362 12.6089 9.52144 12.6234 9.50349 12.6234Z" fill="#E6E6E6"/>
<path d="M9.07788 12.6235C9.05974 12.6235 9.04517 12.6087 9.04517 12.5908V11.7424C9.04517 11.7243 9.05974 11.7097 9.07788 11.7097C9.09601 11.7097 9.11059 11.7245 9.11059 11.7424V12.5908C9.11059 12.6089 9.09601 12.6235 9.07788 12.6235Z" fill="#E6E6E6"/>
<path d="M11.9585 12.6235C11.9404 12.6235 11.9258 12.6087 11.9258 12.5908V11.7424C11.9258 11.7243 11.9404 11.7097 11.9585 11.7097C11.9766 11.7097 11.9912 11.7245 11.9912 11.7424V12.5908C11.9912 12.6089 11.9766 12.6235 11.9585 12.6235Z" fill="#E6E6E6"/>
<path d="M12.6787 12.6235C12.6606 12.6235 12.646 12.6087 12.646 12.5908V11.7424C12.646 11.7243 12.6606 11.7097 12.6787 11.7097C12.6968 11.7097 12.7114 11.7245 12.7114 11.7424V12.5908C12.7114 12.6089 12.6968 12.6235 12.6787 12.6235Z" fill="#E6E6E6"/>
<path d="M9.69994 12.6235C9.68447 12.6235 9.67061 12.6124 9.66776 12.5966C9.66456 12.5788 9.6763 12.5618 9.69407 12.5586C9.97016 12.5081 10.2007 12.3237 10.3106 12.0656L10.3574 11.9561C10.3645 11.9394 10.3837 11.9316 10.4002 11.9387C10.4169 11.9458 10.4246 11.965 10.4174 11.9817L10.3709 12.0914C10.2523 12.3699 10.0038 12.5687 9.70581 12.6231C9.70385 12.6235 9.7019 12.6236 9.69994 12.6236" fill="#E6E6E6"/>
<path d="M11.1401 12.427C11.0858 12.427 11.0417 12.4709 11.0417 12.5253C11.0417 12.5797 11.0857 12.6234 11.1401 12.6234C11.1945 12.6234 11.2384 12.5795 11.2384 12.5253C11.2384 12.4711 11.1945 12.427 11.1401 12.427Z" fill="#E6E6E6"/>
<path d="M11.1727 12.2325V11.854C11.1727 11.8359 11.158 11.8213 11.14 11.8213C11.1221 11.8213 11.1073 11.836 11.1073 11.854V12.2325C10.9603 12.2488 10.8455 12.3738 10.8455 12.5251C10.8455 12.5432 10.8602 12.5578 10.8782 12.5578C10.8961 12.5578 10.9109 12.5432 10.9109 12.5251C10.9109 12.3987 11.0136 12.296 11.14 12.296C11.2664 12.296 11.3692 12.3987 11.3692 12.5251C11.3692 12.5432 11.3839 12.5578 11.4019 12.5578C11.4199 12.5578 11.4346 12.5432 11.4346 12.5251C11.4346 12.3738 11.3199 12.2488 11.1727 12.2325Z" fill="#E6E6E6"/>
<path d="M11.8234 12.6234C11.6092 12.6234 11.4348 12.449 11.4348 12.2348V11.8302C11.4348 11.8121 11.4496 11.7975 11.4675 11.7975C11.4855 11.7975 11.5002 11.8122 11.5002 11.8302V12.2348C11.5002 12.4129 11.6453 12.558 11.8234 12.558C11.8416 12.558 11.8561 12.5726 11.8561 12.5907C11.8561 12.6089 11.8416 12.6234 11.8234 12.6234Z" fill="#E6E6E6"/>
<path d="M11.7622 12.0341C11.6525 12.0341 11.5635 11.9449 11.5635 11.8354V11.8302C11.5635 11.8121 11.5782 11.7975 11.5962 11.7975C11.6141 11.7975 11.6289 11.8122 11.6289 11.8302V11.8354C11.6289 11.909 11.6888 11.9687 11.7622 11.9687C11.7802 11.9687 11.7949 11.9833 11.7949 12.0014C11.7949 12.0195 11.7802 12.0341 11.7622 12.0341Z" fill="#E6E6E6"/>
<path d="M11.7644 12.3036C11.6547 12.3036 11.5657 12.2144 11.5657 12.1049V12.0997C11.5657 12.0816 11.5804 12.067 11.5984 12.067C11.6163 12.067 11.6311 12.0818 11.6311 12.0997V12.1049C11.6311 12.1785 11.691 12.2382 11.7644 12.2382C11.7824 12.2382 11.7971 12.2528 11.7971 12.2709C11.7971 12.2891 11.7824 12.3036 11.7644 12.3036Z" fill="#E6E6E6"/>
</g>
</g>
<g opacity="0.8">
<mask id="mask6_1173_13966" style="mask-type:luminance" maskUnits="userSpaceOnUse" x="11" y="10" width="9" height="3">
<path d="M19.0801 10.8445H11.7573V12.687H19.0801V10.8445Z" fill="white"/>
</mask>
<g mask="url(#mask6_1173_13966)">
<path d="M13.2437 12.6235C13.225 12.6235 13.2099 12.6084 13.2099 12.5897V11.8153C13.2099 11.7728 13.1754 11.7381 13.1327 11.7381C13.0901 11.7381 13.0556 11.7728 13.0556 11.8153V11.9223C13.0556 11.941 13.0405 11.9561 13.0218 11.9561C13.0031 11.9561 12.988 11.941 12.988 11.9223V11.8153C12.988 11.7355 13.0529 11.6704 13.1329 11.6704C13.2129 11.6704 13.2778 11.7353 13.2778 11.8153V12.5897C13.2778 12.6084 13.2627 12.6235 13.244 12.6235" fill="#E6E6E6"/>
<path d="M15.9016 12.6235C15.883 12.6235 15.8679 12.6084 15.8679 12.5897V11.8153C15.8679 11.7728 15.8334 11.7381 15.7907 11.7381C15.748 11.7381 15.7136 11.7728 15.7136 11.8153V11.9223C15.7136 11.941 15.6984 11.9561 15.6798 11.9561C15.6611 11.9561 15.646 11.941 15.646 11.9223V11.8153C15.646 11.7355 15.7109 11.6704 15.7909 11.6704C15.8709 11.6704 15.9358 11.7353 15.9358 11.8153V12.5897C15.9358 12.6084 15.9207 12.6235 15.902 12.6235" fill="#E6E6E6"/>
<path d="M17.9661 12.6235C17.9474 12.6235 17.9323 12.6084 17.9323 12.5897V11.8153C17.9323 11.7728 17.8978 11.7381 17.8552 11.7381C17.8125 11.7381 17.778 11.7728 17.778 11.8153V11.9223C17.778 11.941 17.7629 11.9561 17.7442 11.9561C17.7256 11.9561 17.7104 11.941 17.7104 11.9223V11.8153C17.7104 11.7355 17.7753 11.6704 17.8553 11.6704C17.9353 11.6704 18.0002 11.7353 18.0002 11.8153V12.5897C18.0002 12.6084 17.9851 12.6235 17.9664 12.6235" fill="#E6E6E6"/>
<path d="M12.8714 12.6234C12.8669 12.6234 12.8626 12.6225 12.8584 12.6208C12.8458 12.6156 12.8374 12.6032 12.8374 12.5895V11.7432C12.8374 11.7246 12.8525 11.7095 12.8712 11.7095C12.8898 11.7095 12.905 11.7246 12.905 11.7432V12.5077L12.9874 12.4252C13.0006 12.412 13.0221 12.412 13.0353 12.4252C13.0484 12.4384 13.0484 12.4599 13.0353 12.473L12.8952 12.6133C12.8888 12.6197 12.8801 12.6232 12.8712 12.6232" fill="#E6E6E6"/>
<path d="M15.1051 11.7434C14.9744 11.7434 14.8681 11.8497 14.8681 11.9804C14.8681 12.111 14.9744 12.2173 15.1051 12.2173C15.2357 12.2173 15.342 12.111 15.342 11.9804C15.342 11.8497 15.2357 11.7434 15.1051 11.7434ZM15.1051 12.2849C14.9371 12.2849 14.8005 12.1482 14.8005 11.9804C14.8005 11.8125 14.9371 11.6757 15.1051 11.6757C15.2731 11.6757 15.4096 11.8124 15.4096 11.9804C15.4096 12.1484 15.2731 12.2849 15.1051 12.2849Z" fill="#E6E6E6"/>
<path d="M13.6499 11.9763C13.5379 11.9763 13.4469 12.0675 13.4469 12.1793C13.4469 12.2911 13.5379 12.3825 13.6499 12.3825C13.7619 12.3825 13.8529 12.2913 13.8529 12.1793C13.8529 12.0673 13.7619 11.9763 13.6499 11.9763ZM13.6499 12.4501C13.5006 12.4501 13.3792 12.3287 13.3792 12.1793C13.3792 12.03 13.5006 11.9086 13.6499 11.9086C13.7992 11.9086 13.9207 12.03 13.9207 12.1793C13.9207 12.3287 13.7992 12.4501 13.6499 12.4501Z" fill="#E6E6E6"/>
<path d="M13.8867 12.6235H13.4129C13.3943 12.6235 13.3792 12.6084 13.3792 12.5897C13.3792 12.571 13.3943 12.5559 13.4129 12.5559H13.8867C13.9054 12.5559 13.9205 12.571 13.9205 12.5897C13.9205 12.6084 13.9054 12.6235 13.8867 12.6235Z" fill="#E6E6E6"/>
<path d="M17.2375 11.9763C17.1256 11.9763 17.0345 12.0675 17.0345 12.1793C17.0345 12.2911 17.1256 12.3825 17.2375 12.3825C17.3495 12.3825 17.4406 12.2913 17.4406 12.1793C17.4406 12.0673 17.3495 11.9763 17.2375 11.9763ZM17.2375 12.4501C17.0882 12.4501 16.9668 12.3287 16.9668 12.1793C16.9668 12.03 17.0882 11.9086 17.2375 11.9086C17.3869 11.9086 17.5083 12.03 17.5083 12.1793C17.5083 12.3287 17.3869 12.4501 17.2375 12.4501Z" fill="#E6E6E6"/>
<path d="M17.4746 12.6235H17.0008C16.9822 12.6235 16.967 12.6084 16.967 12.5897C16.967 12.571 16.9822 12.5559 17.0008 12.5559H17.4746C17.4933 12.5559 17.5084 12.571 17.5084 12.5897C17.5084 12.6084 17.4933 12.6235 17.4746 12.6235Z" fill="#E6E6E6"/>
<path d="M14.5635 12.4542H14.462C14.2193 12.4542 14.022 12.2569 14.022 12.0142C14.022 11.9956 14.0371 11.9805 14.0558 11.9805C14.0744 11.9805 14.0895 11.9956 14.0895 12.0142C14.0895 12.2196 14.2566 12.3865 14.4618 12.3865H14.5633C14.582 12.3865 14.5971 12.4016 14.5971 12.4203C14.5971 12.439 14.582 12.4541 14.5633 12.4541" fill="#E6E6E6"/>
<path d="M14.2928 12.6234H14.1913C14.0607 12.6234 13.9543 12.5171 13.9543 12.3864C13.9543 12.3678 13.9695 12.3527 13.9881 12.3527C14.0068 12.3527 14.0219 12.3678 14.0219 12.3864C14.0219 12.4798 14.0978 12.5557 14.1911 12.5557H14.2927C14.3113 12.5557 14.3264 12.5708 14.3264 12.5895C14.3264 12.6081 14.3113 12.6232 14.2927 12.6232" fill="#E6E6E6"/>
<path d="M14.6991 12.6234C14.6804 12.6234 14.6653 12.6083 14.6653 12.5896V11.7125C14.6653 11.6938 14.6804 11.6787 14.6991 11.6787C14.7177 11.6787 14.7328 11.6938 14.7328 11.7125V12.5896C14.7328 12.6083 14.7177 12.6234 14.6991 12.6234Z" fill="#E6E6E6"/>
<path d="M16.8653 12.6234C16.8467 12.6234 16.8315 12.6083 16.8315 12.5896V11.7125C16.8315 11.6938 16.8467 11.6787 16.8653 11.6787C16.884 11.6787 16.8991 11.6938 16.8991 11.7125V12.5896C16.8991 12.6083 16.884 12.6234 16.8653 12.6234Z" fill="#E6E6E6"/>
<path d="M17.6097 12.6234C17.591 12.6234 17.5759 12.6083 17.5759 12.5896V11.7125C17.5759 11.6938 17.591 11.6787 17.6097 11.6787C17.6284 11.6787 17.6435 11.6938 17.6435 11.7125V12.5896C17.6435 12.6083 17.6284 12.6234 17.6097 12.6234Z" fill="#E6E6E6"/>
<path d="M16.0238 12.6234C16.0078 12.6234 15.9936 12.612 15.9905 12.5957C15.9872 12.5772 15.9994 12.5596 16.0178 12.5562C16.3033 12.5041 16.5415 12.3136 16.6553 12.0465L16.7034 11.9333C16.7107 11.9161 16.7306 11.9081 16.7479 11.9155C16.7651 11.9228 16.7731 11.9427 16.7658 11.9598L16.7177 12.0732C16.595 12.3612 16.3379 12.5667 16.03 12.6231C16.0281 12.6234 16.0259 12.6236 16.024 12.6236" fill="#E6E6E6"/>
<path d="M15.6807 12.1296C15.662 12.1296 15.6469 12.1447 15.6469 12.1634V12.4786H15.5454V11.8775C15.5454 11.8589 15.5303 11.8438 15.5116 11.8438C15.4929 11.8438 15.4778 11.8589 15.4778 11.8775V12.4786H15.4193C15.3584 12.4786 15.3086 12.5284 15.3086 12.5893C15.3086 12.608 15.3237 12.6231 15.3424 12.6231C15.361 12.6231 15.3761 12.608 15.3761 12.5893C15.3761 12.5655 15.3955 12.5463 15.4192 12.5463H15.6807C15.6993 12.5463 15.7145 12.5312 15.7145 12.5125V12.1634C15.7145 12.1447 15.6993 12.1296 15.6807 12.1296Z" fill="#E6E6E6"/>
</g>
</g>
</g>
</g>
<path d="M3.02045 7.93326C3.02543 7.93326 3.03041 7.92988 3.03041 7.9217V7.88686C3.03041 7.63424 3.03041 7.58766 3.02703 7.53451C3.02365 7.47797 3.0105 7.45148 2.95557 7.43975C2.94223 7.43637 2.91397 7.43477 2.89068 7.43477C2.87237 7.43477 2.86241 7.4314 2.86241 7.41984C2.86241 7.40828 2.87397 7.40491 2.89726 7.40491C2.98703 7.40491 3.09174 7.40988 3.13654 7.40988C3.17636 7.40988 3.28107 7.40491 3.34596 7.40491C3.36925 7.40491 3.38081 7.40828 3.38081 7.41984C3.38081 7.4314 3.37085 7.43477 3.35094 7.43477C3.33761 7.43477 3.32267 7.43637 3.30276 7.43975C3.25796 7.44811 3.24463 7.47637 3.24125 7.53451C3.23787 7.58766 3.23787 7.63424 3.23787 7.88686V8.1793C3.23787 8.33219 3.23787 8.46356 3.24623 8.53485C3.25121 8.58143 3.26116 8.61787 3.31112 8.62463C3.33441 8.628 3.37103 8.6312 3.39592 8.6312C3.41423 8.6312 3.42258 8.63618 3.42258 8.64454C3.42258 8.65609 3.40925 8.66107 3.38934 8.66107C3.28125 8.66107 3.17654 8.65609 3.13014 8.65609C3.09192 8.65609 2.98721 8.66107 2.9225 8.66107C2.89921 8.66107 2.88766 8.65609 2.88766 8.64454C2.88766 8.63618 2.89423 8.6312 2.91432 8.6312C2.93921 8.6312 2.95912 8.62783 2.97423 8.62463C3.00748 8.61805 3.01583 8.58143 3.02241 8.53325C3.03077 8.46338 3.03077 8.33219 3.03077 8.1793V8.03299C3.03077 8.02641 3.02579 8.02303 3.02081 8.02303H2.38597C2.38099 8.02303 2.37602 8.02463 2.37602 8.03299V8.1793C2.37602 8.33219 2.37602 8.46356 2.38437 8.53485C2.38935 8.58143 2.39931 8.61787 2.44926 8.62463C2.47255 8.628 2.50917 8.6312 2.53406 8.6312C2.55237 8.6312 2.56073 8.63618 2.56073 8.64454C2.56073 8.65609 2.54739 8.66107 2.52748 8.66107C2.41939 8.66107 2.31468 8.65609 2.26828 8.65609C2.23006 8.65609 2.12535 8.66107 2.05887 8.66107C2.03718 8.66107 2.02562 8.65609 2.02562 8.64454C2.02562 8.63618 2.0322 8.6312 2.05229 8.6312C2.07718 8.6312 2.09709 8.62783 2.1122 8.62463C2.14544 8.61805 2.1538 8.58143 2.16038 8.53325C2.16873 8.46338 2.16873 8.33219 2.16873 8.1793V7.88686C2.16873 7.63424 2.16873 7.58766 2.16535 7.53451C2.16198 7.47797 2.14882 7.45148 2.09389 7.43975C2.08055 7.43637 2.05229 7.43477 2.029 7.43477C2.01069 7.43477 2.00073 7.4314 2.00073 7.41984C2.00073 7.40828 2.01229 7.40491 2.03558 7.40491C2.12535 7.40491 2.23006 7.40988 2.27486 7.40988C2.31468 7.40988 2.41939 7.40491 2.48428 7.40491C2.50757 7.40491 2.51913 7.40828 2.51913 7.41984C2.51913 7.4314 2.50917 7.43477 2.48926 7.43477C2.47593 7.43477 2.46099 7.43637 2.44108 7.43975C2.39628 7.44811 2.38295 7.47637 2.37957 7.53451C2.37619 7.58766 2.37619 7.63424 2.37619 7.88686V7.9217C2.37619 7.93006 2.38117 7.93326 2.38615 7.93326H3.02099H3.02045Z" fill="#E6E6E6"/>
<path d="M3.56885 8.03284C3.56885 7.74858 3.75658 7.38147 4.25524 7.38147C4.6691 7.38147 4.9267 7.62236 4.9267 8.00297C4.9267 8.38359 4.66075 8.68439 4.23871 8.68439C3.76173 8.68439 3.56903 8.32706 3.56903 8.03302L3.56885 8.03284ZM4.69399 8.06448C4.69399 7.69222 4.47959 7.46129 4.20706 7.46129C4.01595 7.46129 3.79818 7.5676 3.79818 7.98146C3.79818 8.32706 3.98929 8.60137 4.3084 8.60137C4.42466 8.60137 4.69399 8.54483 4.69399 8.06466V8.06448Z" fill="#E6E6E6"/>
<path d="M5.46494 8.17912C5.46494 8.39192 5.46494 8.50658 5.49978 8.53645C5.52805 8.56134 5.57125 8.57307 5.70085 8.57307C5.78885 8.57307 5.85373 8.57147 5.89533 8.52649C5.91524 8.50481 5.93516 8.45841 5.93853 8.42676C5.94013 8.41183 5.94351 8.40187 5.95684 8.40187C5.9684 8.40187 5.97018 8.41023 5.97018 8.43014C5.97018 8.44845 5.95862 8.57307 5.94529 8.62125C5.93533 8.65787 5.92698 8.66605 5.84058 8.66605C5.72094 8.66605 5.63454 8.66267 5.55969 8.66107C5.48485 8.65769 5.42512 8.65609 5.35703 8.65609C5.33872 8.65609 5.30227 8.65609 5.26227 8.65769C5.22405 8.65769 5.18085 8.66107 5.14761 8.66107C5.12592 8.66107 5.11436 8.65609 5.11436 8.64454C5.11436 8.63618 5.12094 8.6312 5.14103 8.6312C5.16592 8.6312 5.18583 8.62783 5.20094 8.62463C5.23419 8.61805 5.24254 8.58143 5.24912 8.53325C5.25747 8.46338 5.25747 8.33219 5.25747 8.1793V7.88686C5.25747 7.63424 5.25747 7.58766 5.2541 7.53451C5.25072 7.47797 5.23756 7.45148 5.18263 7.43975C5.1693 7.43637 5.14939 7.43477 5.12788 7.43477C5.10956 7.43477 5.09961 7.4314 5.09961 7.41984C5.09961 7.40828 5.11116 7.40491 5.13623 7.40491C5.21427 7.40491 5.31898 7.40988 5.36396 7.40988C5.40378 7.40988 5.5252 7.40491 5.58992 7.40491C5.6132 7.40491 5.62476 7.40828 5.62476 7.41984C5.62476 7.4314 5.6148 7.43477 5.59489 7.43477C5.57658 7.43477 5.55009 7.43637 5.53 7.43975C5.48521 7.44811 5.47187 7.47637 5.46849 7.53451C5.46512 7.58766 5.46512 7.63424 5.46512 7.88686V8.1793L5.46494 8.17912Z" fill="#E6E6E6"/>
<path d="M6.45371 8.17912C6.45371 8.39192 6.45371 8.50658 6.48855 8.53645C6.51682 8.56134 6.56002 8.57307 6.68962 8.57307C6.77762 8.57307 6.8425 8.57147 6.8841 8.52649C6.90401 8.50481 6.92393 8.45841 6.9273 8.42676C6.9289 8.41183 6.93228 8.40187 6.94561 8.40187C6.95717 8.40187 6.95895 8.41023 6.95895 8.43014C6.95895 8.44845 6.94739 8.57307 6.93406 8.62125C6.9241 8.65787 6.91575 8.66605 6.82935 8.66605C6.70971 8.66605 6.62331 8.66267 6.54846 8.66107C6.47362 8.65769 6.41389 8.65609 6.3458 8.65609C6.32749 8.65609 6.29104 8.65609 6.25104 8.65769C6.21282 8.65769 6.16962 8.66107 6.13638 8.66107C6.11469 8.66107 6.10313 8.65609 6.10313 8.64454C6.10313 8.63618 6.10971 8.6312 6.1298 8.6312C6.15469 8.6312 6.1746 8.62783 6.18971 8.62463C6.22295 8.61805 6.23131 8.58143 6.23789 8.53325C6.24624 8.46338 6.24624 8.33219 6.24624 8.1793V7.88686C6.24624 7.63424 6.24624 7.58766 6.24287 7.53451C6.23949 7.47797 6.22633 7.45148 6.1714 7.43975C6.15807 7.43637 6.13816 7.43477 6.11665 7.43477C6.09833 7.43477 6.08838 7.4314 6.08838 7.41984C6.08838 7.40828 6.09993 7.40491 6.125 7.40491C6.20304 7.40491 6.30775 7.40988 6.35273 7.40988C6.39255 7.40988 6.51397 7.40491 6.57868 7.40491C6.60197 7.40491 6.61353 7.40828 6.61353 7.41984C6.61353 7.4314 6.60357 7.43477 6.58366 7.43477C6.56535 7.43477 6.53886 7.43637 6.51877 7.43975C6.47397 7.44811 6.46064 7.47637 6.45726 7.53451C6.45389 7.58766 6.45389 7.63424 6.45389 7.88686V8.1793L6.45371 8.17912Z" fill="#E6E6E6"/>
<path d="M7.04517 8.03284C7.04517 7.74858 7.2329 7.38147 7.73156 7.38147C8.14542 7.38147 8.40302 7.62236 8.40302 8.00297C8.40302 8.38359 8.13707 8.68439 7.71503 8.68439C7.23805 8.68439 7.04534 8.32706 7.04534 8.03302L7.04517 8.03284ZM8.17031 8.06448C8.17031 7.69222 7.95591 7.46129 7.68338 7.46129C7.49227 7.46129 7.2745 7.5676 7.2745 7.98146C7.2745 8.32706 7.46561 8.60137 7.78471 8.60137C7.90098 8.60137 8.17031 8.54483 8.17031 8.06466V8.06448Z" fill="#E6E6E6"/>
<path d="M8.60242 7.56763C8.58251 7.50612 8.5642 7.4663 8.54091 7.44958C8.5226 7.43803 8.48935 7.43465 8.47442 7.43465C8.45789 7.43465 8.44775 7.43305 8.44775 7.41972C8.44775 7.40816 8.46109 7.40479 8.48438 7.40479C8.57077 7.40479 8.66215 7.40976 8.67708 7.40976C8.69202 7.40976 8.76508 7.40479 8.86162 7.40479C8.8849 7.40479 8.89646 7.40976 8.89646 7.41972C8.89646 7.43305 8.88313 7.43465 8.86659 7.43465C8.85326 7.43465 8.83673 7.43465 8.82499 7.44123C8.81006 7.44781 8.80668 7.45954 8.80668 7.47785C8.80668 7.49936 8.82322 7.55589 8.84331 7.63074C8.87157 7.74043 9.02606 8.24389 9.0561 8.33704H9.06108L9.38357 7.47127C9.4001 7.4247 9.41183 7.41136 9.42517 7.41136C9.44348 7.41136 9.45183 7.43625 9.47334 7.48941L9.81894 8.32531H9.82392C9.85378 8.21402 9.98676 7.77527 10.0449 7.58078C10.0564 7.54256 10.0614 7.50772 10.0614 7.48443C10.0614 7.45776 10.0465 7.43465 9.9816 7.43465C9.96507 7.43465 9.95334 7.42967 9.95334 7.41972C9.95334 7.40816 9.96667 7.40479 9.99156 7.40479C10.0796 7.40479 10.1494 7.40976 10.1644 7.40976C10.1759 7.40976 10.2474 7.40479 10.3023 7.40479C10.3206 7.40479 10.3322 7.40816 10.3322 7.41812C10.3322 7.42967 10.3238 7.43465 10.3089 7.43465C10.2924 7.43465 10.2691 7.43625 10.2508 7.44301C10.2109 7.45794 10.1926 7.52443 10.1576 7.61918C10.0812 7.8286 9.90658 8.35713 9.82516 8.60637C9.80685 8.6645 9.79849 8.68442 9.77698 8.68442C9.76045 8.68442 9.75032 8.6645 9.72543 8.60299L9.37983 7.77047H9.37645C9.34481 7.85527 9.12384 8.44353 9.05237 8.59642C9.02073 8.6645 9.01255 8.68442 8.99246 8.68442C8.97593 8.68442 8.96917 8.6661 8.95424 8.6229L8.60189 7.56763H8.60242Z" fill="#E6E6E6"/>
<path d="M10.7396 7.9598H10.7479C10.8045 7.89829 11.0471 7.65065 11.0953 7.59412C11.1419 7.53936 11.1783 7.49776 11.1783 7.4695C11.1783 7.45118 11.1718 7.43963 11.155 7.43625C11.1401 7.43287 11.1335 7.42967 11.1335 7.41972C11.1335 7.40816 11.1419 7.40479 11.1602 7.40479C11.195 7.40479 11.2864 7.40976 11.3314 7.40976C11.383 7.40976 11.4743 7.40479 11.5259 7.40479C11.5424 7.40479 11.5541 7.40816 11.5541 7.41972C11.5541 7.43127 11.5458 7.43465 11.5293 7.43465C11.506 7.43465 11.4644 7.44123 11.4329 7.45296C11.3814 7.47287 11.3248 7.50772 11.2534 7.57758C11.2018 7.62736 10.951 7.87678 10.8944 7.93651C10.9543 8.01456 11.28 8.36531 11.3447 8.42682C11.4178 8.49668 11.4926 8.57135 11.5824 8.60637C11.6322 8.62628 11.6654 8.63126 11.6855 8.63126C11.6971 8.63126 11.7072 8.63464 11.7072 8.64459C11.7072 8.65615 11.6989 8.66113 11.6674 8.66113H11.5229C11.4731 8.66113 11.443 8.66113 11.4082 8.65775C11.3184 8.64939 11.2736 8.61295 11.2022 8.54966C11.1291 8.48477 10.8016 8.10096 10.7668 8.05278L10.7485 8.02789H10.7401V8.17918C10.7401 8.33206 10.7401 8.46344 10.7451 8.53473C10.7485 8.58131 10.7634 8.61775 10.805 8.6245C10.8283 8.62788 10.8649 8.63108 10.8864 8.63108C10.8998 8.63108 10.9081 8.63606 10.9081 8.64442C10.9081 8.65597 10.8948 8.66095 10.8765 8.66095C10.7833 8.66095 10.6788 8.65597 10.6372 8.65597C10.599 8.65597 10.4943 8.66095 10.4278 8.66095C10.4061 8.66095 10.3945 8.65597 10.3945 8.64442C10.3945 8.63606 10.4011 8.63108 10.4212 8.63108C10.4461 8.63108 10.466 8.6277 10.4811 8.6245C10.5143 8.61793 10.5227 8.58131 10.5293 8.53313C10.5376 8.46326 10.5376 8.33206 10.5376 8.17918V7.88674C10.5376 7.63412 10.5376 7.58754 10.5342 7.53438C10.5309 7.47785 10.5177 7.45136 10.4628 7.43963C10.4495 7.43625 10.4212 7.43465 10.3979 7.43465C10.3796 7.43465 10.3696 7.43127 10.3696 7.41972C10.3696 7.40816 10.3812 7.40479 10.4063 7.40479C10.4942 7.40479 10.599 7.40976 10.639 7.40976C10.679 7.40976 10.7835 7.40479 10.84 7.40479C10.8633 7.40479 10.8749 7.40816 10.8749 7.41972C10.8749 7.43127 10.8649 7.43465 10.8516 7.43465C10.835 7.43465 10.8249 7.43625 10.805 7.43963C10.7602 7.44798 10.7469 7.47625 10.7435 7.53438C10.7401 7.58754 10.7401 7.63412 10.7401 7.88674V7.9598H10.7396Z" fill="#E6E6E6"/>
<path d="M11.8894 8.43512C11.8928 8.56472 11.9143 8.60792 11.9476 8.61965C11.9758 8.62961 12.0075 8.63121 12.034 8.63121C12.0523 8.63121 12.0622 8.63458 12.0622 8.64454C12.0622 8.65787 12.0473 8.66107 12.024 8.66107C11.9159 8.66107 11.8494 8.6561 11.818 8.6561C11.803 8.6561 11.725 8.66107 11.6384 8.66107C11.6169 8.66107 11.6018 8.65947 11.6018 8.64454C11.6018 8.63458 11.6118 8.63121 11.6285 8.63121C11.6502 8.63121 11.68 8.62961 11.7033 8.62285C11.7465 8.60952 11.7531 8.56134 11.7549 8.41681L11.7698 7.433C11.7698 7.39975 11.7748 7.37646 11.7915 7.37646C11.8098 7.37646 11.8247 7.39815 11.853 7.42802C11.8729 7.44971 12.1255 7.72046 12.3682 7.96153C12.4813 8.07459 12.7056 8.31388 12.7339 8.34037H12.7422L12.7257 7.59424C12.7241 7.49291 12.7092 7.46126 12.6692 7.44473C12.6443 7.43478 12.6043 7.43478 12.5812 7.43478C12.5613 7.43478 12.5545 7.4298 12.5545 7.41984C12.5545 7.40651 12.5728 7.40491 12.5977 7.40491C12.6841 7.40491 12.7639 7.40989 12.7988 7.40989C12.8171 7.40989 12.8802 7.40491 12.9616 7.40491C12.9833 7.40491 12.9998 7.40651 12.9998 7.41984C12.9998 7.4298 12.9899 7.43478 12.97 7.43478C12.9534 7.43478 12.9401 7.43478 12.9202 7.43975C12.8736 7.45309 12.8603 7.48793 12.8587 7.58108L12.8404 8.62978C12.8404 8.66641 12.8338 8.68134 12.8187 8.68134C12.8004 8.68134 12.7805 8.66303 12.7621 8.64472C12.6574 8.54499 12.4448 8.32739 12.2718 8.15619C12.0907 7.97664 11.9062 7.76899 11.8763 7.73735H11.8713L11.8896 8.4353L11.8894 8.43512Z" fill="#E6E6E6"/>
<path d="M13.3535 7.88674C13.3535 7.63412 13.3535 7.58754 13.3501 7.53438C13.3468 7.47785 13.3302 7.44958 13.2936 7.44123C13.2753 7.43625 13.2538 7.43465 13.2337 7.43465C13.2172 7.43465 13.207 7.43127 13.207 7.41812C13.207 7.40816 13.2204 7.40479 13.2469 7.40479C13.31 7.40479 13.4147 7.40976 13.4628 7.40976C13.5044 7.40976 13.6024 7.40479 13.6655 7.40479C13.6872 7.40479 13.7004 7.40816 13.7004 7.41812C13.7004 7.43145 13.6904 7.43465 13.6737 7.43465C13.657 7.43465 13.6438 7.43625 13.6239 7.43963C13.5791 7.44798 13.5658 7.47625 13.5624 7.53438C13.559 7.58754 13.559 7.63412 13.559 7.88674V8.17918C13.559 8.34042 13.559 8.47162 13.5656 8.54308C13.5706 8.58788 13.5821 8.61793 13.6321 8.62451C13.6554 8.62788 13.692 8.63108 13.7169 8.63108C13.7352 8.63108 13.7436 8.63606 13.7436 8.64442C13.7436 8.65597 13.7302 8.66095 13.7119 8.66095C13.6022 8.66095 13.4975 8.65597 13.4527 8.65597C13.4145 8.65597 13.3098 8.66095 13.2433 8.66095C13.2216 8.66095 13.2101 8.65597 13.2101 8.64442C13.2101 8.63606 13.2166 8.63108 13.2367 8.63108C13.2616 8.63108 13.2815 8.62771 13.2966 8.62451C13.3299 8.61793 13.3398 8.58966 13.3448 8.54148C13.3532 8.47162 13.3532 8.34042 13.3532 8.17918V7.88674H13.3535Z" fill="#E6E6E6"/>
<path d="M15.0802 8.54976C15.0802 8.59456 15.0786 8.59793 15.0585 8.60967C14.9504 8.6662 14.7875 8.68451 14.658 8.68451C14.2508 8.68451 13.8901 8.4918 13.8901 8.03314C13.8901 7.76719 14.0281 7.58106 14.1794 7.48968C14.3388 7.39332 14.4868 7.38159 14.6265 7.38159C14.7411 7.38159 14.8875 7.4015 14.9207 7.40826C14.9555 7.41484 15.0139 7.42479 15.0519 7.42657C15.0718 7.42817 15.0752 7.43492 15.0752 7.44648C15.0752 7.46479 15.0636 7.51137 15.0636 7.71901C15.0636 7.74568 15.0587 7.75385 15.0453 7.75385C15.0338 7.75385 15.0304 7.7455 15.0288 7.73217C15.0238 7.69394 15.0155 7.64079 14.9723 7.59421C14.9225 7.54106 14.7895 7.46461 14.6016 7.46461C14.5102 7.46461 14.3888 7.47119 14.2725 7.56772C14.1794 7.64577 14.1196 7.77039 14.1196 7.97483C14.1196 8.33216 14.3474 8.59971 14.6979 8.59971C14.7411 8.59971 14.7993 8.59971 14.8393 8.5814C14.8642 8.56985 14.8709 8.54816 14.8709 8.51989V8.36363C14.8709 8.2806 14.8709 8.21732 14.8693 8.16754C14.8677 8.11101 14.8528 8.08452 14.7979 8.07278C14.7845 8.06941 14.7563 8.06781 14.733 8.06781C14.718 8.06781 14.7081 8.06443 14.7081 8.05447C14.7081 8.04114 14.7196 8.03794 14.7429 8.03794C14.8293 8.03794 14.934 8.04292 14.9838 8.04292C15.0336 8.04292 15.1234 8.03794 15.1783 8.03794C15.2 8.03794 15.2115 8.04132 15.2115 8.05447C15.2115 8.06443 15.2016 8.06781 15.1899 8.06781C15.1765 8.06781 15.165 8.06941 15.1451 8.07278C15.1003 8.08114 15.0835 8.10941 15.0819 8.16754C15.0803 8.21732 15.0803 8.2838 15.0803 8.367V8.54976H15.0802Z" fill="#E6E6E6"/>
<path d="M16.3798 7.93326C16.3848 7.93326 16.3898 7.92988 16.3898 7.9217V7.88686C16.3898 7.63424 16.3898 7.58766 16.3864 7.53451C16.383 7.47797 16.3699 7.45148 16.3149 7.43975C16.3016 7.43637 16.2733 7.43477 16.2501 7.43477C16.2317 7.43477 16.2218 7.4314 16.2218 7.41984C16.2218 7.40828 16.2333 7.40491 16.2566 7.40491C16.3464 7.40491 16.4511 7.40988 16.4959 7.40988C16.5357 7.40988 16.6404 7.40491 16.7053 7.40491C16.7286 7.40491 16.7402 7.40828 16.7402 7.41984C16.7402 7.4314 16.7302 7.43477 16.7103 7.43477C16.697 7.43477 16.682 7.43637 16.6621 7.43975C16.6173 7.44811 16.604 7.47637 16.6006 7.53451C16.5972 7.58766 16.5972 7.63424 16.5972 7.88686V8.1793C16.5972 8.33219 16.5972 8.46356 16.6056 8.53485C16.6106 8.58143 16.6205 8.61787 16.6705 8.62463C16.6938 8.628 16.7304 8.6312 16.7553 8.6312C16.7736 8.6312 16.782 8.63618 16.782 8.64454C16.782 8.65609 16.7686 8.66107 16.7487 8.66107C16.6406 8.66107 16.5359 8.65609 16.4895 8.65609C16.4513 8.65609 16.3466 8.66107 16.2819 8.66107C16.2586 8.66107 16.247 8.65609 16.247 8.64454C16.247 8.63618 16.2536 8.6312 16.2737 8.6312C16.2986 8.6312 16.3185 8.62783 16.3336 8.62463C16.3669 8.61805 16.3752 8.58143 16.3818 8.53325C16.3901 8.46338 16.3901 8.33219 16.3901 8.1793V8.03299C16.3901 8.02641 16.3852 8.02303 16.3802 8.02303H15.7453C15.7404 8.02303 15.7354 8.02463 15.7354 8.03299V8.1793C15.7354 8.33219 15.7354 8.46356 15.7437 8.53485C15.7487 8.58143 15.7587 8.61787 15.8086 8.62463C15.8319 8.628 15.8685 8.6312 15.8934 8.6312C15.9117 8.6312 15.9201 8.63618 15.9201 8.64454C15.9201 8.65609 15.9068 8.66107 15.8869 8.66107C15.7788 8.66107 15.6741 8.65609 15.6277 8.65609C15.5894 8.65609 15.4847 8.66107 15.4182 8.66107C15.3966 8.66107 15.385 8.65609 15.385 8.64454C15.385 8.63618 15.3916 8.6312 15.4117 8.6312C15.4366 8.6312 15.4565 8.62783 15.4716 8.62463C15.5048 8.61805 15.5132 8.58143 15.5197 8.53325C15.5281 8.46338 15.5281 8.33219 15.5281 8.1793V7.88686C15.5281 7.63424 15.5281 7.58766 15.5247 7.53451C15.5214 7.47797 15.5082 7.45148 15.4533 7.43975C15.4399 7.43637 15.4117 7.43477 15.3884 7.43477C15.3701 7.43477 15.3601 7.4314 15.3601 7.41984C15.3601 7.40828 15.3717 7.40491 15.395 7.40491C15.4847 7.40491 15.5894 7.40988 15.6342 7.40988C15.6741 7.40988 15.7788 7.40491 15.8437 7.40491C15.8669 7.40491 15.8785 7.40828 15.8785 7.41984C15.8785 7.4314 15.8685 7.43477 15.8486 7.43477C15.8353 7.43477 15.8204 7.43637 15.8005 7.43975C15.7557 7.44811 15.7423 7.47637 15.7389 7.53451C15.7356 7.58766 15.7356 7.63424 15.7356 7.88686V7.9217C15.7356 7.93006 15.7405 7.93326 15.7455 7.93326H16.3804H16.3798Z" fill="#E6E6E6"/>
<path d="M17.3469 7.49772L17.0992 7.5043C17.0029 7.50768 16.9629 7.51586 16.938 7.55248C16.9214 7.57737 16.9131 7.59728 16.9097 7.61061C16.9063 7.62395 16.9014 7.63052 16.8914 7.63052C16.8798 7.63052 16.8765 7.62217 16.8765 7.60386C16.8765 7.57719 16.9081 7.42608 16.9113 7.41275C16.9163 7.39106 16.9213 7.3811 16.9312 7.3811C16.9446 7.3811 16.9611 7.39764 17.0027 7.40101C17.0509 7.40599 17.114 7.40937 17.1689 7.40937H17.827C17.8802 7.40937 17.9168 7.40439 17.9417 7.40101C17.9666 7.39604 17.9799 7.39266 17.9865 7.39266C17.9981 7.39266 17.9998 7.40261 17.9998 7.4275C17.9998 7.46235 17.9949 7.57701 17.9949 7.62021C17.9933 7.63675 17.9899 7.64688 17.9799 7.64688C17.9666 7.64688 17.9634 7.63852 17.9616 7.61363L17.96 7.59532C17.9566 7.55212 17.9118 7.50555 17.7639 7.50235L17.5545 7.49737V8.17878C17.5545 8.33167 17.5545 8.46305 17.5629 8.53433C17.5678 8.58091 17.5778 8.61736 17.6277 8.62411C17.651 8.62749 17.6877 8.63069 17.7125 8.63069C17.7309 8.63069 17.7392 8.63567 17.7392 8.64402C17.7392 8.65558 17.7259 8.66056 17.7076 8.66056C17.5979 8.66056 17.4932 8.65558 17.4466 8.65558C17.4084 8.65558 17.3037 8.66056 17.2372 8.66056C17.2157 8.66056 17.2039 8.65558 17.2039 8.64402C17.2039 8.63567 17.2105 8.63069 17.2306 8.63069C17.2555 8.63069 17.2754 8.62731 17.2905 8.62411C17.3237 8.61753 17.3337 8.58091 17.3387 8.53274C17.347 8.46287 17.347 8.33167 17.347 8.17878V7.49772H17.3469Z" fill="#E6E6E6"/>
<path d="M2.07591 9.47721C2.07591 9.34139 2.07591 9.31704 2.07413 9.28913C2.07235 9.25944 2.06542 9.24557 2.03662 9.23953C2.02969 9.23775 2.01493 9.23686 2.00693 9.23686C2.00338 9.23686 2 9.23508 2 9.23171C2 9.22655 2.00427 9.22477 2.01387 9.22477C2.03396 9.22477 2.05742 9.22477 2.07662 9.22566L2.11235 9.22744C2.1184 9.22744 2.29173 9.22744 2.31182 9.22655C2.32835 9.22566 2.34222 9.22388 2.34933 9.22228C2.3536 9.2214 2.35715 9.21802 2.3616 9.21802C2.36426 9.21802 2.36515 9.22157 2.36515 9.22584C2.36515 9.23188 2.36088 9.24237 2.35822 9.26673C2.35733 9.27544 2.35555 9.31384 2.35395 9.32415C2.35306 9.32842 2.35128 9.33375 2.34791 9.33375C2.34275 9.33375 2.34097 9.32948 2.34097 9.32237C2.34097 9.31633 2.34009 9.30139 2.33582 9.29108C2.32977 9.27722 2.32106 9.26673 2.27395 9.26139C2.2592 9.25962 2.16426 9.25873 2.15466 9.25873C2.15111 9.25873 2.14951 9.26139 2.14951 9.26744V9.50779C2.14951 9.51384 2.1504 9.5165 2.15466 9.5165C2.16604 9.5165 2.27306 9.5165 2.29315 9.51473C2.31413 9.51295 2.32622 9.51117 2.33404 9.50246C2.34009 9.49553 2.34364 9.49108 2.34702 9.49108C2.34968 9.49108 2.35128 9.49286 2.35128 9.49801C2.35128 9.50317 2.34702 9.5181 2.34435 9.54673C2.34257 9.56415 2.3408 9.59632 2.3408 9.60255C2.3408 9.60948 2.3408 9.61908 2.33475 9.61908C2.33049 9.61908 2.32871 9.61552 2.32871 9.61126C2.32871 9.60255 2.32871 9.59384 2.32515 9.58246C2.3216 9.57019 2.31377 9.55544 2.27982 9.55206C2.25635 9.54939 2.17013 9.54779 2.1552 9.54779C2.15093 9.54779 2.14915 9.55046 2.14915 9.55384V9.63046C2.14915 9.66015 2.14826 9.76112 2.14915 9.77943C2.15182 9.83952 2.1648 9.8509 2.25013 9.8509C2.27271 9.8509 2.31111 9.8509 2.33369 9.8413C2.35626 9.8317 2.36675 9.81428 2.3728 9.77854C2.37457 9.76894 2.37635 9.76557 2.38062 9.76557C2.38577 9.76557 2.38577 9.7725 2.38577 9.77854C2.38577 9.78548 2.37884 9.84468 2.3744 9.86299C2.36835 9.88557 2.36142 9.88557 2.32729 9.88557C2.26204 9.88557 2.21404 9.88379 2.18009 9.8829C2.14613 9.88112 2.12515 9.88023 2.11218 9.88023C2.1104 9.88023 2.09564 9.88023 2.07733 9.88112C2.05991 9.88112 2.03982 9.8829 2.02684 9.8829C2.01724 9.8829 2.01298 9.88112 2.01298 9.87597C2.01298 9.8733 2.01476 9.87081 2.01991 9.87081C2.02773 9.87081 2.03822 9.86903 2.04604 9.86725C2.06347 9.8637 2.06773 9.84468 2.07129 9.81943C2.07555 9.78281 2.07555 9.71401 2.07555 9.63046V9.47721H2.07591Z" fill="#E6E6E6"/>
<path d="M2.64823 9.66992C2.64823 9.77871 2.65 9.82316 2.66387 9.83631C2.67614 9.84858 2.70565 9.85374 2.76574 9.85374C2.80574 9.85374 2.83969 9.85285 2.858 9.83116C2.8676 9.81978 2.87365 9.80414 2.87631 9.78938C2.8772 9.78423 2.87987 9.77978 2.88414 9.77978C2.88769 9.77978 2.88929 9.78334 2.88929 9.79116C2.88929 9.79898 2.88414 9.84343 2.87791 9.86511C2.87276 9.88254 2.87009 9.8852 2.8292 9.8852C2.77427 9.8852 2.7316 9.88431 2.69587 9.88254C2.66103 9.88165 2.63489 9.88076 2.61232 9.88076C2.60876 9.88076 2.59578 9.88076 2.58103 9.88165C2.56538 9.88254 2.54885 9.88342 2.53658 9.88342C2.52876 9.88342 2.52432 9.88165 2.52432 9.87738C2.52432 9.87471 2.52609 9.87134 2.53036 9.87134C2.53729 9.87134 2.54689 9.86956 2.55383 9.86778C2.56858 9.86422 2.57036 9.85036 2.57392 9.82867C2.57818 9.79827 2.57818 9.73978 2.57818 9.66849V9.53783C2.57818 9.42281 2.57818 9.40201 2.57641 9.37836C2.57463 9.35312 2.57036 9.34085 2.54512 9.33748C2.53907 9.33659 2.52592 9.3357 2.51898 9.3357C2.51632 9.3357 2.51294 9.33214 2.51294 9.32965C2.51294 9.32539 2.5165 9.32361 2.52521 9.32361C2.56005 9.32361 2.60787 9.32539 2.61232 9.32539C2.61587 9.32539 2.67329 9.32361 2.69676 9.32361C2.70458 9.32361 2.70903 9.32539 2.70903 9.32965C2.70903 9.33232 2.70547 9.33481 2.70298 9.33481C2.69783 9.33481 2.68645 9.3357 2.67774 9.33659C2.65516 9.34085 2.65072 9.35223 2.64894 9.37836C2.64805 9.40183 2.64805 9.42281 2.64805 9.53783V9.67027L2.64823 9.66992Z" fill="#E6E6E6"/>
<path d="M3.88399 9.78746C3.88666 9.81359 3.89182 9.85359 3.9231 9.86408C3.94479 9.87102 3.96488 9.87102 3.9727 9.87102C3.97626 9.87102 3.97875 9.87279 3.97875 9.87617C3.97875 9.88044 3.97182 9.88311 3.9631 9.88311C3.94568 9.88311 3.86035 9.88133 3.83244 9.87884C3.81413 9.87706 3.81075 9.87457 3.81075 9.87102C3.81075 9.86835 3.81253 9.86586 3.81591 9.86497C3.82017 9.86408 3.82106 9.85271 3.81946 9.83884L3.78284 9.46426H3.78106L3.59635 9.84222C3.58071 9.87439 3.57626 9.88133 3.56933 9.88133C3.5624 9.88133 3.55795 9.87439 3.5432 9.84737C3.52311 9.81075 3.47262 9.71582 3.45342 9.67582C3.43084 9.62871 3.36898 9.50426 3.35582 9.47369H3.35227L3.32258 9.80808C3.32169 9.81946 3.32169 9.83333 3.32169 9.84559C3.32169 9.85697 3.32862 9.86391 3.34 9.86657C3.35298 9.87013 3.36436 9.87084 3.36969 9.87084C3.37236 9.87084 3.37573 9.87351 3.37573 9.87599C3.37573 9.88115 3.37058 9.88293 3.36187 9.88293C3.33307 9.88293 3.29662 9.88026 3.2904 9.88026C3.28347 9.88026 3.24685 9.88293 3.22587 9.88293C3.21805 9.88293 3.21289 9.88115 3.21289 9.87599C3.21289 9.87333 3.21645 9.87084 3.22071 9.87084C3.22676 9.87084 3.23209 9.86995 3.24329 9.86817C3.26853 9.86391 3.26942 9.83688 3.27298 9.80897L3.3288 9.3256C3.32969 9.31778 3.33307 9.31262 3.33751 9.31262C3.34267 9.31262 3.34889 9.31529 3.35316 9.324L3.5848 9.78391L3.80773 9.32489C3.81128 9.31796 3.81466 9.31262 3.81999 9.31262C3.82533 9.31262 3.82959 9.31867 3.83137 9.33271L3.88364 9.78728L3.88399 9.78746Z" fill="#E6E6E6"/>
<path d="M4.10602 9.53752C4.10602 9.4225 4.10602 9.4017 4.10424 9.37806C4.10246 9.35282 4.09819 9.34055 4.07295 9.33717C4.0669 9.33628 4.05375 9.33539 4.04682 9.33539C4.04415 9.33539 4.04077 9.33184 4.04077 9.32935C4.04077 9.32508 4.04433 9.32331 4.05304 9.32331C4.08788 9.32331 4.13748 9.32508 4.14193 9.32508C4.14708 9.32508 4.30744 9.32597 4.32486 9.32508C4.33961 9.32419 4.35366 9.32153 4.3597 9.32082C4.36326 9.31993 4.36663 9.31726 4.37019 9.31726C4.37286 9.31726 4.37375 9.32082 4.37375 9.32419C4.37375 9.32935 4.36948 9.33806 4.3677 9.35904C4.36681 9.36597 4.36503 9.39904 4.36343 9.40775C4.36255 9.4113 4.35988 9.41557 4.3565 9.41557C4.35223 9.41557 4.35046 9.41202 4.35046 9.40597C4.35046 9.40082 4.34957 9.38855 4.34619 9.37984C4.34103 9.36757 4.33321 9.36242 4.29126 9.35726C4.27828 9.35548 4.18939 9.35459 4.18068 9.35459C4.17713 9.35459 4.17641 9.35726 4.17641 9.36242V9.56366C4.17641 9.56881 4.17641 9.57148 4.18068 9.57148C4.19028 9.57148 4.29126 9.57148 4.30868 9.5697C4.32699 9.56792 4.33837 9.56704 4.34619 9.55921C4.35135 9.55406 4.3549 9.54961 4.35757 9.54961C4.36023 9.54961 4.36183 9.55139 4.36183 9.55566C4.36183 9.55992 4.35757 9.57219 4.35579 9.59655C4.35401 9.6113 4.35223 9.63921 4.35223 9.64437C4.35223 9.65041 4.35046 9.65823 4.3453 9.65823C4.34175 9.65823 4.34015 9.65557 4.34015 9.6513C4.34015 9.64437 4.34015 9.63655 4.33659 9.62695C4.33392 9.61646 4.32699 9.60775 4.29748 9.60437C4.2765 9.6017 4.19473 9.60081 4.18157 9.60081C4.1773 9.60081 4.17641 9.60348 4.17641 9.60597V9.66783C4.17641 9.69308 4.17553 9.7793 4.17641 9.79406C4.17819 9.84365 4.19206 9.85325 4.26779 9.85325C4.28788 9.85325 4.32432 9.85325 4.34441 9.84543C4.3645 9.83672 4.37481 9.82374 4.37926 9.79406C4.38103 9.78534 4.38281 9.78268 4.38708 9.78268C4.39135 9.78268 4.39223 9.78872 4.39223 9.79406C4.39223 9.79939 4.38619 9.84988 4.38175 9.86552C4.37659 9.88472 4.36877 9.88472 4.33908 9.88472C4.28166 9.88472 4.23721 9.88294 4.20575 9.88205C4.17357 9.88028 4.15348 9.88028 4.1421 9.88028C4.14033 9.88028 4.12557 9.88028 4.10904 9.88117C4.09428 9.88205 4.07686 9.88294 4.06459 9.88294C4.05677 9.88294 4.05233 9.88117 4.05233 9.8769C4.05233 9.87423 4.0541 9.87085 4.05837 9.87085C4.0653 9.87085 4.0749 9.86819 4.08184 9.8673C4.09659 9.86463 4.09837 9.84988 4.10193 9.82819C4.10619 9.79779 4.10619 9.7393 4.10619 9.66801V9.53735L4.10602 9.53752Z" fill="#E6E6E6"/>
<path d="M4.74462 9.66812C4.74462 9.73958 4.74462 9.79789 4.74818 9.82829C4.75084 9.84998 4.75422 9.86403 4.77787 9.8674C4.78836 9.86918 4.80578 9.87096 4.81271 9.87096C4.81787 9.87096 4.81876 9.87452 4.81876 9.877C4.81876 9.88056 4.8152 9.88305 4.80649 9.88305C4.76471 9.88305 4.716 9.88038 4.71156 9.88038C4.708 9.88038 4.65502 9.88305 4.63227 9.88305C4.62356 9.88305 4.62 9.88127 4.62 9.877C4.62 9.87434 4.62178 9.87185 4.62605 9.87185C4.63298 9.87185 4.64169 9.87007 4.64862 9.86829C4.66427 9.86474 4.66871 9.84998 4.6712 9.82829C4.67476 9.79789 4.67476 9.73941 4.67476 9.66812V9.35719L4.56418 9.35897C4.51636 9.35985 4.49805 9.36501 4.48667 9.38243C4.47796 9.39541 4.47707 9.40074 4.4744 9.4059C4.47263 9.41194 4.47014 9.41283 4.46658 9.41283C4.4648 9.41283 4.46143 9.41105 4.46143 9.40679C4.46143 9.39897 4.47707 9.33283 4.47796 9.32661C4.47974 9.32234 4.48311 9.31274 4.48578 9.31274C4.49094 9.31274 4.49876 9.31879 4.51974 9.32146C4.54142 9.32412 4.57111 9.32501 4.57982 9.32501H4.86907C4.89431 9.32501 4.91173 9.32323 4.924 9.32146C4.93538 9.31968 4.94231 9.3179 4.94569 9.3179C4.94906 9.3179 4.94924 9.32217 4.94924 9.32661C4.94924 9.34919 4.94658 9.40234 4.94658 9.41105C4.94658 9.4171 4.94302 9.42065 4.93964 9.42065C4.93627 9.42065 4.93449 9.41799 4.9336 9.40768L4.93271 9.39985C4.93004 9.37728 4.91351 9.36074 4.84044 9.35897L4.74462 9.35719V9.66812Z" fill="#E6E6E6"/>
<path d="M5.09967 9.53746C5.09967 9.42244 5.09967 9.40164 5.09789 9.378C5.09611 9.35275 5.09185 9.34049 5.0666 9.33711C5.06056 9.33622 5.0474 9.33533 5.04047 9.33533C5.0378 9.33533 5.03442 9.33178 5.03442 9.32929C5.03442 9.32502 5.03798 9.32324 5.04669 9.32324C5.08153 9.32324 5.13291 9.32502 5.13718 9.32502C5.145 9.32502 5.20953 9.32324 5.233 9.32324C5.28171 9.32324 5.33575 9.32751 5.37575 9.35542C5.39495 9.36929 5.42891 9.40502 5.42891 9.4564C5.42891 9.51133 5.40633 9.56431 5.33486 9.62528C5.39762 9.70368 5.45077 9.7707 5.49504 9.81693C5.53593 9.8587 5.56117 9.86564 5.58037 9.8683C5.59513 9.87097 5.60295 9.87097 5.6074 9.87097C5.61184 9.87097 5.61433 9.87452 5.61433 9.87701C5.61433 9.88128 5.61006 9.88306 5.59602 9.88306H5.5482C5.50464 9.88306 5.48544 9.87879 5.46624 9.8683C5.43317 9.85088 5.40526 9.81515 5.36171 9.7595C5.32953 9.7195 5.29558 9.6715 5.27904 9.65159C5.27549 9.64804 5.27389 9.64733 5.26855 9.64733L5.17096 9.64555C5.1674 9.64555 5.1658 9.64733 5.1658 9.65159V9.66902C5.1658 9.74048 5.1658 9.7979 5.16936 9.82848C5.17202 9.85017 5.17629 9.86421 5.19976 9.86759C5.21024 9.86937 5.22678 9.87115 5.23371 9.87115C5.23887 9.87115 5.23975 9.8747 5.23975 9.87719C5.23975 9.88075 5.2362 9.88324 5.22749 9.88324C5.18571 9.88324 5.13682 9.88057 5.13344 9.88057C5.13256 9.88057 5.08118 9.88324 5.05771 9.88324C5.04989 9.88324 5.04545 9.88146 5.04545 9.87719C5.04545 9.87452 5.04722 9.87115 5.05149 9.87115C5.05842 9.87115 5.06802 9.86937 5.07496 9.86759C5.08971 9.86404 5.09149 9.85017 5.09505 9.82848C5.09931 9.79808 5.09931 9.73959 5.09931 9.66831V9.53764L5.09967 9.53746ZM5.1658 9.60022C5.1658 9.60448 5.16758 9.60715 5.17096 9.60982C5.18233 9.61586 5.22144 9.62119 5.2554 9.62119C5.27371 9.62119 5.29451 9.62031 5.31282 9.60822C5.33895 9.59079 5.35904 9.55168 5.35904 9.49497C5.35904 9.40271 5.30855 9.34955 5.2266 9.34955C5.20402 9.34955 5.17949 9.35222 5.17167 9.35382C5.16811 9.3556 5.16562 9.35809 5.16562 9.36253V9.60039L5.1658 9.60022Z" fill="#E6E6E6"/>
<path d="M5.90538 9.31274C6.07782 9.31274 6.20849 9.41817 6.20849 9.59061C6.20849 9.76305 6.08565 9.89283 5.90111 9.89283C5.69116 9.89283 5.60156 9.73514 5.60156 9.60199C5.60156 9.4827 5.69383 9.31274 5.90556 9.31274H5.90538ZM5.9228 9.86225C5.9916 9.86225 6.13009 9.82563 6.13009 9.61141C6.13009 9.43381 6.02218 9.34048 5.90111 9.34048C5.77312 9.34048 5.68067 9.42065 5.68067 9.58172C5.68067 9.75416 5.78432 9.86225 5.9228 9.86225Z" fill="#E6E6E6"/>
<path d="M6.42971 9.66813C6.42971 9.73959 6.42971 9.7979 6.43326 9.8283C6.43593 9.84999 6.43842 9.86404 6.46118 9.86741C6.47255 9.86919 6.48909 9.87097 6.49602 9.87097C6.50029 9.87097 6.50206 9.87453 6.50206 9.87701C6.50206 9.88057 6.49851 9.88306 6.4898 9.88306C6.44713 9.88306 6.39753 9.88039 6.39398 9.88039C6.38971 9.88039 6.34171 9.88306 6.31824 9.88306C6.31042 9.88306 6.30598 9.88128 6.30598 9.87701C6.30598 9.87435 6.30775 9.87097 6.31202 9.87097C6.31895 9.87097 6.32855 9.86919 6.33549 9.86741C6.35024 9.86386 6.35291 9.84999 6.35558 9.8283C6.35913 9.7979 6.35984 9.73942 6.35984 9.66813V9.53746C6.35984 9.42244 6.35984 9.40164 6.35807 9.378C6.35629 9.35275 6.35024 9.34138 6.33371 9.338C6.325 9.33622 6.3154 9.33533 6.31024 9.33533C6.30669 9.33533 6.3042 9.33178 6.3042 9.32929C6.3042 9.32502 6.30775 9.32324 6.31647 9.32324C6.34171 9.32324 6.38953 9.32502 6.39398 9.32502C6.39753 9.32502 6.44713 9.32324 6.4706 9.32324C6.47931 9.32324 6.48286 9.32502 6.48286 9.32929C6.48286 9.33195 6.47931 9.33533 6.47682 9.33533C6.47166 9.33533 6.46633 9.33533 6.45762 9.33711C6.43664 9.34138 6.43238 9.35186 6.4306 9.378C6.42971 9.40146 6.42971 9.42244 6.42971 9.53746V9.66813Z" fill="#E6E6E6"/>
<path d="M6.67267 9.53746C6.67267 9.42244 6.67267 9.40164 6.67089 9.378C6.66911 9.35275 6.66484 9.34048 6.6396 9.33711C6.63355 9.33622 6.6204 9.33533 6.61347 9.33533C6.6108 9.33533 6.60742 9.33177 6.60742 9.32928C6.60742 9.32502 6.61098 9.32324 6.61969 9.32324C6.65453 9.32324 6.70413 9.32502 6.70858 9.32502C6.71729 9.32502 6.766 9.32324 6.81133 9.32324C6.88795 9.32324 7.02822 9.31631 7.1187 9.40768C7.1571 9.44608 7.19355 9.50777 7.19355 9.59577C7.19355 9.68893 7.15355 9.76039 7.11088 9.80395C7.07782 9.8379 7.00902 9.88928 6.87835 9.88928C6.84529 9.88928 6.8044 9.88661 6.77115 9.88501C6.73809 9.88235 6.71195 9.88075 6.7084 9.88075C6.70662 9.88075 6.69275 9.88164 6.67711 9.88164C6.66147 9.88252 6.64315 9.88341 6.63089 9.88341C6.62307 9.88341 6.61862 9.88164 6.61862 9.87737C6.61862 9.8747 6.6204 9.87132 6.62467 9.87132C6.6316 9.87132 6.6412 9.86955 6.64813 9.86777C6.66289 9.86421 6.66467 9.85035 6.66822 9.82866C6.67249 9.79826 6.67249 9.73977 6.67249 9.66848V9.53782L6.67267 9.53746ZM6.74235 9.61764C6.74235 9.69604 6.74235 9.76484 6.74324 9.7787C6.74413 9.79701 6.74591 9.82404 6.75195 9.83186C6.76155 9.84572 6.78858 9.86155 6.87906 9.86155C6.94964 9.86155 7.0124 9.83808 7.05844 9.79452C7.09844 9.75701 7.11853 9.68661 7.11853 9.61853C7.11853 9.52448 7.07764 9.46439 7.04617 9.43293C6.97382 9.35968 6.88937 9.35026 6.798 9.35026C6.78324 9.35026 6.75889 9.35293 6.75178 9.35542C6.74484 9.35808 6.74218 9.36146 6.74218 9.37017V9.61746L6.74235 9.61764Z" fill="#E6E6E6"/>
<path d="M7.53675 9.78658C7.5812 9.6872 7.68128 9.43476 7.69782 9.38161C7.70137 9.37023 7.70475 9.35992 7.70475 9.3537C7.70475 9.34748 7.70208 9.34072 7.69426 9.33805C7.68555 9.33539 7.67684 9.33539 7.66813 9.33539C7.66386 9.33539 7.65942 9.33272 7.65942 9.32934C7.65942 9.32508 7.66457 9.3233 7.67684 9.3233C7.70724 9.3233 7.74208 9.32508 7.75168 9.32508C7.75595 9.32508 7.78919 9.3233 7.81177 9.3233C7.81959 9.3233 7.82404 9.32508 7.82404 9.32845C7.82404 9.33183 7.82137 9.33539 7.81533 9.33539C7.81017 9.33539 7.79275 9.33539 7.77871 9.3441C7.76822 9.35103 7.75613 9.36152 7.73604 9.41201C7.72733 9.43299 7.68982 9.5217 7.65071 9.61236C7.6036 9.72045 7.56964 9.80045 7.55222 9.83707C7.53124 9.88151 7.52698 9.89289 7.51915 9.89289C7.51044 9.89289 7.50529 9.88329 7.49035 9.84756L7.30227 9.3937C7.28484 9.35192 7.27436 9.3441 7.24911 9.33788C7.23685 9.33521 7.22387 9.33521 7.21942 9.33521C7.21498 9.33521 7.21338 9.33094 7.21338 9.32828C7.21338 9.32401 7.2212 9.32312 7.23347 9.32312C7.27009 9.32312 7.31364 9.3249 7.32324 9.3249C7.33107 9.3249 7.36502 9.32312 7.39471 9.32312C7.40858 9.32312 7.41569 9.3249 7.41569 9.32828C7.41569 9.33165 7.41302 9.33521 7.40787 9.33521C7.39915 9.33521 7.38689 9.3361 7.37995 9.33876C7.37213 9.34232 7.37124 9.34659 7.37124 9.35174C7.37124 9.36134 7.38084 9.38392 7.39222 9.41361L7.53675 9.7864V9.78658Z" fill="#E6E6E6"/>
<path d="M7.98609 9.338C7.99569 9.31365 7.99907 9.3092 8.0044 9.3092C8.01222 9.3092 8.01489 9.31969 8.02271 9.33623C8.03658 9.36751 8.15942 9.67329 8.20653 9.78564C8.23444 9.85178 8.25524 9.86138 8.27178 9.86671C8.28315 9.87026 8.29435 9.87098 8.30218 9.87098C8.30644 9.87098 8.31178 9.87275 8.31178 9.87702C8.31178 9.88129 8.30306 9.88306 8.29435 9.88306C8.28298 9.88306 8.22644 9.88306 8.17329 9.88129C8.15853 9.8804 8.14627 9.8804 8.14627 9.87613C8.14627 9.87258 8.14804 9.87258 8.15142 9.87098C8.15569 9.8692 8.16369 9.86315 8.15835 9.85089L8.08956 9.68111C8.08778 9.67756 8.08689 9.67684 8.08262 9.67684H7.90574C7.90218 9.67684 7.89969 9.67862 7.89791 9.68289L7.85436 9.80129C7.84742 9.8196 7.84298 9.83791 7.84298 9.85089C7.84298 9.86564 7.85596 9.87098 7.86911 9.87098H7.87605C7.88209 9.87098 7.88387 9.87364 7.88387 9.87702C7.88387 9.88129 7.8796 9.88306 7.87249 9.88306C7.85418 9.88306 7.8124 9.8804 7.80369 9.8804C7.79587 9.8804 7.75747 9.88306 7.72618 9.88306C7.71658 9.88306 7.71143 9.88129 7.71143 9.87702C7.71143 9.87346 7.71498 9.87098 7.71836 9.87098C7.72351 9.87098 7.73489 9.87009 7.74094 9.8692C7.77578 9.86493 7.79054 9.8388 7.80547 9.80129L7.98573 9.338H7.98609ZM8.07142 9.64627C8.07498 9.64627 8.07498 9.64449 8.07409 9.64111L7.99836 9.43827C7.99409 9.42689 7.98965 9.42689 7.98538 9.43827L7.91391 9.64111C7.91302 9.64467 7.91391 9.64627 7.91658 9.64627H8.0716H8.07142Z" fill="#E6E6E6"/>
<path d="M8.43612 9.78225C8.4379 9.84323 8.44483 9.86154 8.46581 9.86669C8.47968 9.87025 8.4971 9.87096 8.50421 9.87096C8.50777 9.87096 8.51026 9.87363 8.51026 9.877C8.51026 9.88127 8.5051 9.88305 8.49639 9.88305C8.45283 9.88305 8.42243 9.88038 8.41532 9.88038C8.40821 9.88038 8.37621 9.88305 8.34137 9.88305C8.33355 9.88305 8.3291 9.88216 8.3291 9.877C8.3291 9.87345 8.33177 9.87096 8.33515 9.87096C8.34119 9.87096 8.35523 9.87007 8.36643 9.86669C8.38563 9.86154 8.38812 9.84145 8.38812 9.77443V9.35025C8.38812 9.32057 8.39239 9.31274 8.39861 9.31274C8.40732 9.31274 8.4203 9.3275 8.4283 9.33532C8.44057 9.34759 8.55203 9.46599 8.67043 9.58794C8.74616 9.66634 8.82812 9.75434 8.85159 9.77869L8.84376 9.40768C8.84287 9.35985 8.83861 9.34314 8.81496 9.33888C8.8011 9.33621 8.78367 9.33532 8.77745 9.33532C8.7723 9.33532 8.77141 9.33106 8.77141 9.32839C8.77141 9.32412 8.77745 9.32323 8.78616 9.32323C8.82101 9.32323 8.85763 9.32501 8.86634 9.32501C8.87505 9.32501 8.9003 9.32323 8.93158 9.32323C8.93941 9.32323 8.94545 9.32412 8.94545 9.32839C8.94545 9.33106 8.9419 9.33532 8.93674 9.33532C8.93318 9.33532 8.92714 9.33532 8.91843 9.3371C8.89318 9.34225 8.89141 9.35719 8.89141 9.40163L8.88963 9.83541C8.88963 9.88412 8.88874 9.88856 8.88358 9.88856C8.87576 9.88856 8.86794 9.88252 8.82527 9.84323C8.81745 9.83629 8.70688 9.72732 8.62581 9.64287C8.53692 9.54972 8.4507 9.45905 8.42723 9.43292L8.43595 9.78225H8.43612Z" fill="#E6E6E6"/>
<path d="M9.17312 9.66813C9.17312 9.73959 9.17312 9.7979 9.17667 9.8283C9.17934 9.84999 9.18183 9.86404 9.20458 9.86741C9.21596 9.86919 9.23249 9.87097 9.23943 9.87097C9.24369 9.87097 9.24547 9.87453 9.24547 9.87701C9.24547 9.88057 9.24192 9.88306 9.23321 9.88306C9.19054 9.88306 9.14094 9.88039 9.13738 9.88039C9.13312 9.88039 9.08512 9.88306 9.06165 9.88306C9.05383 9.88306 9.04939 9.88128 9.04939 9.87701C9.04939 9.87435 9.05116 9.87097 9.05543 9.87097C9.06236 9.87097 9.07196 9.86919 9.0789 9.86741C9.09365 9.86386 9.09632 9.84999 9.09898 9.8283C9.10254 9.7979 9.10325 9.73942 9.10325 9.66813V9.53746C9.10325 9.42244 9.10325 9.40164 9.10147 9.378C9.0997 9.35275 9.09365 9.34138 9.07712 9.338C9.06841 9.33622 9.05881 9.33533 9.05365 9.33533C9.0501 9.33533 9.04761 9.33178 9.04761 9.32929C9.04761 9.32502 9.05116 9.32324 9.05987 9.32324C9.08512 9.32324 9.13294 9.32502 9.13738 9.32502C9.14094 9.32502 9.19054 9.32324 9.21401 9.32324C9.22272 9.32324 9.22627 9.32502 9.22627 9.32929C9.22627 9.33195 9.22272 9.33533 9.22023 9.33533C9.21507 9.33533 9.20974 9.33533 9.20103 9.33711C9.18005 9.34138 9.17578 9.35186 9.17401 9.378C9.17312 9.40146 9.17312 9.42244 9.17312 9.53746V9.66813Z" fill="#E6E6E6"/>
<path d="M9.55005 9.338C9.55965 9.31365 9.56303 9.3092 9.56837 9.3092C9.57619 9.3092 9.57885 9.31969 9.58668 9.33623C9.60054 9.36751 9.72339 9.67329 9.7705 9.78564C9.79841 9.85178 9.81921 9.86138 9.83574 9.86671C9.84712 9.87026 9.85832 9.87098 9.86614 9.87098C9.87041 9.87098 9.87574 9.87275 9.87574 9.87702C9.87574 9.88129 9.86703 9.88306 9.85832 9.88306C9.84694 9.88306 9.79041 9.88306 9.73725 9.88129C9.7225 9.8804 9.71023 9.8804 9.71023 9.87613C9.71023 9.87258 9.71201 9.87258 9.71539 9.87098C9.71965 9.8692 9.72765 9.86315 9.72232 9.85089L9.65352 9.68111C9.65174 9.67756 9.65085 9.67684 9.64659 9.67684H9.4697C9.46614 9.67684 9.46365 9.67862 9.46188 9.68289L9.41832 9.80129C9.41139 9.8196 9.40694 9.83791 9.40694 9.85089C9.40694 9.86564 9.41992 9.87098 9.43308 9.87098H9.44001C9.44606 9.87098 9.44783 9.87364 9.44783 9.87702C9.44783 9.88129 9.44357 9.88306 9.43646 9.88306C9.41814 9.88306 9.37637 9.8804 9.36766 9.8804C9.35983 9.8804 9.32143 9.88306 9.29015 9.88306C9.28055 9.88306 9.27539 9.88129 9.27539 9.87702C9.27539 9.87346 9.27895 9.87098 9.28232 9.87098C9.28748 9.87098 9.29886 9.87009 9.3049 9.8692C9.33975 9.86493 9.3545 9.8388 9.36943 9.80129L9.5497 9.338H9.55005ZM9.63539 9.64627C9.63894 9.64627 9.63894 9.64449 9.63805 9.64111L9.56232 9.43827C9.55805 9.42689 9.55361 9.42689 9.54934 9.43827L9.47788 9.64111C9.47699 9.64467 9.47788 9.64627 9.48054 9.64627H9.63556H9.63539Z" fill="#E6E6E6"/>
<path d="M10.2487 9.81359C10.1738 9.74906 10.1555 9.66462 10.1555 9.59404C10.1555 9.54444 10.1738 9.45822 10.2417 9.39191C10.288 9.34747 10.3576 9.31262 10.4752 9.31262C10.5056 9.31262 10.5491 9.31529 10.5866 9.32133C10.6154 9.32649 10.6398 9.33182 10.665 9.33271C10.6728 9.33271 10.6746 9.33627 10.6746 9.34053C10.6746 9.34658 10.6728 9.35529 10.6711 9.38231C10.6702 9.40667 10.6702 9.44755 10.6693 9.45804C10.6684 9.46942 10.665 9.47369 10.6606 9.47369C10.6554 9.47369 10.6545 9.46853 10.6545 9.45804C10.6545 9.42924 10.6423 9.39973 10.6224 9.38409C10.5953 9.36151 10.5397 9.3432 10.4716 9.3432C10.3731 9.3432 10.3262 9.36933 10.2992 9.39458C10.2426 9.44684 10.2304 9.51298 10.2304 9.588C10.2304 9.73004 10.3427 9.85626 10.5064 9.85626C10.5639 9.85626 10.6023 9.85199 10.6327 9.82142C10.6492 9.80488 10.6597 9.77359 10.6624 9.75955C10.6641 9.75173 10.665 9.74906 10.6702 9.74906C10.6737 9.74906 10.6771 9.75422 10.6771 9.75955C10.6771 9.76488 10.6666 9.82924 10.6588 9.85448C10.6545 9.86835 10.6528 9.87102 10.6396 9.87617C10.6083 9.88844 10.5507 9.8927 10.5011 9.8927C10.3861 9.8927 10.3086 9.86568 10.2485 9.81342L10.2487 9.81359Z" fill="#E6E6E6"/>
<path d="M11.0594 9.31274C11.2319 9.31274 11.3625 9.41817 11.3625 9.59061C11.3625 9.76305 11.2397 9.89283 11.0552 9.89283C10.8452 9.89283 10.7556 9.73514 10.7556 9.60199C10.7556 9.4827 10.8479 9.31274 11.0596 9.31274H11.0594ZM11.0769 9.86225C11.1457 9.86225 11.2841 9.82563 11.2841 9.61141C11.2841 9.43381 11.1762 9.34048 11.0552 9.34048C10.9272 9.34048 10.8347 9.42065 10.8347 9.58172C10.8347 9.75416 10.9384 9.86225 11.0769 9.86225Z" fill="#E6E6E6"/>
<path d="M11.5465 9.78225C11.5483 9.84323 11.5552 9.86154 11.5762 9.86669C11.59 9.87025 11.6075 9.87096 11.6146 9.87096C11.6181 9.87096 11.6206 9.87363 11.6206 9.877C11.6206 9.88127 11.6155 9.88305 11.6067 9.88305C11.5632 9.88305 11.5328 9.88038 11.5257 9.88038C11.5186 9.88038 11.4866 9.88305 11.4517 9.88305C11.4439 9.88305 11.4395 9.88216 11.4395 9.877C11.4395 9.87345 11.4421 9.87096 11.4455 9.87096C11.4515 9.87096 11.4656 9.87007 11.4768 9.86669C11.496 9.86154 11.4985 9.84145 11.4985 9.77443V9.35025C11.4985 9.32057 11.5027 9.31274 11.509 9.31274C11.5177 9.31274 11.5307 9.3275 11.5387 9.33532C11.5509 9.34759 11.6624 9.46599 11.7808 9.58794C11.8565 9.66634 11.9385 9.75434 11.9619 9.77869L11.9541 9.40768C11.9532 9.35985 11.949 9.34314 11.9253 9.33888C11.9114 9.33621 11.894 9.33532 11.8878 9.33532C11.8826 9.33532 11.8818 9.33106 11.8818 9.32839C11.8818 9.32412 11.8878 9.32323 11.8965 9.32323C11.9314 9.32323 11.968 9.32501 11.9767 9.32501C11.9854 9.32501 12.0106 9.32323 12.0419 9.32323C12.0498 9.32323 12.0558 9.32412 12.0558 9.32839C12.0558 9.33106 12.0522 9.33532 12.0471 9.33532C12.0435 9.33532 12.0375 9.33532 12.0288 9.3371C12.0035 9.34225 12.0018 9.35719 12.0018 9.40163L12 9.83541C12 9.88412 11.9991 9.88856 11.9939 9.88856C11.9861 9.88856 11.9783 9.88252 11.9356 9.84323C11.9278 9.83629 11.8172 9.72732 11.7362 9.64287C11.6473 9.54972 11.5611 9.45905 11.5376 9.43292L11.5463 9.78225H11.5465Z" fill="#E6E6E6"/>
<path d="M12.3982 9.66812C12.3982 9.73958 12.3982 9.79789 12.4017 9.82829C12.4044 9.84998 12.4078 9.86403 12.4314 9.8674C12.4419 9.86918 12.4593 9.87096 12.4663 9.87096C12.4714 9.87096 12.4723 9.87452 12.4723 9.877C12.4723 9.88056 12.4688 9.88305 12.4601 9.88305C12.4183 9.88305 12.3696 9.88038 12.3651 9.88038C12.3616 9.88038 12.3086 9.88305 12.2858 9.88305C12.2771 9.88305 12.2736 9.88127 12.2736 9.877C12.2736 9.87434 12.2753 9.87185 12.2796 9.87185C12.2865 9.87185 12.2953 9.87007 12.3022 9.86829C12.3178 9.86474 12.3223 9.84998 12.3248 9.82829C12.3283 9.79789 12.3283 9.73941 12.3283 9.66812V9.35719L12.2177 9.35897C12.1699 9.35985 12.1516 9.36501 12.1402 9.38243C12.1315 9.39541 12.1306 9.40074 12.128 9.4059C12.1262 9.41194 12.1237 9.41283 12.1201 9.41283C12.1184 9.41283 12.115 9.41105 12.115 9.40679C12.115 9.39897 12.1306 9.33283 12.1315 9.32661C12.1333 9.32234 12.1367 9.31274 12.1393 9.31274C12.1445 9.31274 12.1523 9.31879 12.1733 9.32146C12.195 9.32412 12.2247 9.32501 12.2334 9.32501H12.5226C12.5479 9.32501 12.5653 9.32323 12.5776 9.32146C12.5889 9.31968 12.5959 9.3179 12.5993 9.3179C12.6026 9.3179 12.6028 9.32217 12.6028 9.32661C12.6028 9.34919 12.6001 9.40234 12.6001 9.41105C12.6001 9.4171 12.5966 9.42065 12.5932 9.42065C12.5898 9.42065 12.5881 9.41799 12.5872 9.40768L12.5863 9.39985C12.5836 9.37728 12.5671 9.36074 12.494 9.35897L12.3982 9.35719V9.66812Z" fill="#E6E6E6"/>
<path d="M12.7535 9.53752C12.7535 9.4225 12.7535 9.4017 12.7517 9.37806C12.7499 9.35282 12.7457 9.34055 12.7204 9.33717C12.7144 9.33628 12.7012 9.33539 12.6943 9.33539C12.6916 9.33539 12.6882 9.33184 12.6882 9.32935C12.6882 9.32508 12.6918 9.32331 12.7005 9.32331C12.7353 9.32331 12.7849 9.32508 12.7894 9.32508C12.7945 9.32508 12.9549 9.32597 12.9723 9.32508C12.9871 9.32419 13.0011 9.32153 13.0072 9.32082C13.0107 9.31993 13.0141 9.31726 13.0177 9.31726C13.0203 9.31726 13.0212 9.32082 13.0212 9.32419C13.0212 9.32935 13.0169 9.33806 13.0152 9.35904C13.0143 9.36597 13.0125 9.39904 13.0109 9.40775C13.01 9.4113 13.0073 9.41557 13.004 9.41557C12.9997 9.41557 12.9979 9.41202 12.9979 9.40597C12.9979 9.40082 12.997 9.38855 12.9937 9.37984C12.9885 9.36757 12.9807 9.36242 12.9387 9.35726C12.9257 9.35548 12.8369 9.35459 12.8281 9.35459C12.8246 9.35459 12.8239 9.35726 12.8239 9.36242V9.56366C12.8239 9.56881 12.8239 9.57148 12.8281 9.57148C12.8377 9.57148 12.9387 9.57148 12.9561 9.5697C12.9745 9.56792 12.9858 9.56704 12.9937 9.55921C12.9988 9.55406 13.0024 9.54961 13.005 9.54961C13.0077 9.54961 13.0093 9.55139 13.0093 9.55566C13.0093 9.55992 13.005 9.57219 13.0033 9.59655C13.0015 9.6113 12.9997 9.63921 12.9997 9.64437C12.9997 9.65041 12.9979 9.65823 12.9928 9.65823C12.9892 9.65823 12.9876 9.65557 12.9876 9.6513C12.9876 9.64437 12.9876 9.63655 12.9841 9.62695C12.9814 9.61646 12.9745 9.60775 12.9449 9.60437C12.924 9.6017 12.8422 9.60081 12.829 9.60081C12.8248 9.60081 12.8239 9.60348 12.8239 9.60597V9.66783C12.8239 9.69308 12.823 9.7793 12.8239 9.79406C12.8257 9.84365 12.8395 9.85325 12.9153 9.85325C12.9353 9.85325 12.9718 9.85325 12.9919 9.84543C13.012 9.83672 13.0223 9.82374 13.0267 9.79406C13.0285 9.78534 13.0303 9.78268 13.0345 9.78268C13.0388 9.78268 13.0397 9.78872 13.0397 9.79406C13.0397 9.79939 13.0337 9.84988 13.0292 9.86552C13.0241 9.88472 13.0162 9.88472 12.9865 9.88472C12.9291 9.88472 12.8847 9.88294 12.8532 9.88205C12.821 9.88028 12.8009 9.88028 12.7896 9.88028C12.7878 9.88028 12.773 9.88028 12.7565 9.88117C12.7417 9.88205 12.7243 9.88294 12.7121 9.88294C12.7042 9.88294 12.6998 9.88117 12.6998 9.8769C12.6998 9.87423 12.7016 9.87085 12.7058 9.87085C12.7128 9.87085 12.7224 9.86819 12.7293 9.8673C12.7441 9.86463 12.7458 9.84988 12.7494 9.82819C12.7537 9.79779 12.7537 9.7393 12.7537 9.66801V9.53735L12.7535 9.53752Z" fill="#E6E6E6"/>
<path d="M13.7985 9.78746C13.8012 9.81359 13.8064 9.85359 13.8377 9.86408C13.8593 9.87102 13.8794 9.87102 13.8873 9.87102C13.8908 9.87102 13.8933 9.87279 13.8933 9.87617C13.8933 9.88044 13.8864 9.88311 13.8777 9.88311C13.8602 9.88311 13.7749 9.88133 13.747 9.87884C13.7287 9.87706 13.7253 9.87457 13.7253 9.87102C13.7253 9.86835 13.7271 9.86586 13.7305 9.86497C13.7347 9.86408 13.7356 9.85271 13.734 9.83884L13.6974 9.46426H13.6956L13.5109 9.84222C13.4953 9.87439 13.4908 9.88133 13.4839 9.88133C13.4769 9.88133 13.4725 9.87439 13.4577 9.84737C13.4377 9.81075 13.3872 9.71582 13.368 9.67582C13.3454 9.62871 13.2835 9.50426 13.2704 9.47369H13.2668L13.2371 9.80808C13.2362 9.81946 13.2362 9.83333 13.2362 9.84559C13.2362 9.85697 13.2432 9.86391 13.2546 9.86657C13.2675 9.87013 13.2789 9.87084 13.2842 9.87084C13.2869 9.87084 13.2903 9.87351 13.2903 9.87599C13.2903 9.88115 13.2851 9.88293 13.2764 9.88293C13.2476 9.88293 13.2112 9.88026 13.205 9.88026C13.198 9.88026 13.1614 9.88293 13.1404 9.88293C13.1326 9.88293 13.1274 9.88115 13.1274 9.87599C13.1274 9.87333 13.131 9.87084 13.1353 9.87084C13.1413 9.87084 13.1466 9.86995 13.1578 9.86817C13.1831 9.86391 13.184 9.83688 13.1875 9.80897L13.2434 9.3256C13.2442 9.31778 13.2476 9.31262 13.2521 9.31262C13.2572 9.31262 13.2634 9.31529 13.2677 9.324L13.4993 9.78391L13.7223 9.32489C13.7258 9.31796 13.7292 9.31262 13.7345 9.31262C13.7399 9.31262 13.7441 9.31867 13.7459 9.33271L13.7982 9.78728L13.7985 9.78746Z" fill="#E6E6E6"/>
<path d="M14.0206 9.53746C14.0206 9.42244 14.0206 9.40164 14.0188 9.378C14.017 9.35275 14.0127 9.34049 13.9875 9.33711C13.9815 9.33622 13.9683 9.33533 13.9614 9.33533C13.9587 9.33533 13.9553 9.33178 13.9553 9.32929C13.9553 9.32502 13.9589 9.32324 13.9676 9.32324C14.0024 9.32324 14.0503 9.32502 14.0565 9.32502C14.073 9.32502 14.1304 9.32324 14.1653 9.32324C14.2638 9.32324 14.2986 9.35364 14.3116 9.36502C14.329 9.38066 14.35 9.41373 14.35 9.45391C14.35 9.56022 14.2698 9.63079 14.1523 9.63079C14.148 9.63079 14.1349 9.63079 14.1306 9.62991C14.1271 9.62991 14.1228 9.62635 14.1228 9.62297C14.1228 9.61693 14.1271 9.61515 14.1429 9.61515C14.2255 9.61515 14.2849 9.56288 14.2849 9.49586C14.2849 9.47151 14.2823 9.42351 14.2414 9.38351C14.2014 9.34351 14.1551 9.34778 14.1377 9.34778C14.1247 9.34778 14.1029 9.35133 14.0951 9.35293C14.0908 9.35382 14.089 9.35898 14.089 9.3668V9.66813C14.089 9.73959 14.089 9.7979 14.0926 9.8283C14.0952 9.84999 14.0995 9.86404 14.123 9.86741C14.1335 9.86919 14.15 9.87097 14.1569 9.87097C14.1612 9.87097 14.163 9.87453 14.163 9.87701C14.163 9.88057 14.1594 9.88306 14.1507 9.88306C14.1089 9.88306 14.0584 9.88039 14.0549 9.88039C14.0522 9.88039 14.0026 9.88306 13.9791 9.88306C13.9713 9.88306 13.9669 9.88128 13.9669 9.87701C13.9669 9.87435 13.9687 9.87097 13.9729 9.87097C13.9799 9.87097 13.9895 9.86919 13.9964 9.86741C14.0111 9.86386 14.0129 9.84999 14.0165 9.8283C14.0207 9.7979 14.0207 9.73942 14.0207 9.66813V9.53746H14.0206Z" fill="#E6E6E6"/>
<path d="M14.7391 9.31274C14.9116 9.31274 15.0422 9.41817 15.0422 9.59061C15.0422 9.76305 14.9194 9.89283 14.7349 9.89283C14.5249 9.89283 14.4353 9.73514 14.4353 9.60199C14.4353 9.4827 14.5276 9.31274 14.7393 9.31274H14.7391ZM14.7565 9.86225C14.8253 9.86225 14.9638 9.82563 14.9638 9.61141C14.9638 9.43381 14.8559 9.34048 14.7349 9.34048C14.6069 9.34048 14.5144 9.42065 14.5144 9.58172C14.5144 9.75416 14.6181 9.86225 14.7565 9.86225Z" fill="#E6E6E6"/>
<path d="M15.1939 9.53746C15.1939 9.42244 15.1939 9.40164 15.1921 9.378C15.1904 9.35275 15.1861 9.34049 15.1608 9.33711C15.1548 9.33622 15.1416 9.33533 15.1347 9.33533C15.132 9.33533 15.1287 9.33178 15.1287 9.32929C15.1287 9.32502 15.1322 9.32324 15.1409 9.32324C15.1758 9.32324 15.2272 9.32502 15.2314 9.32502C15.2392 9.32502 15.3038 9.32324 15.3272 9.32324C15.3759 9.32324 15.43 9.32751 15.47 9.35542C15.4892 9.36929 15.5231 9.40502 15.5231 9.4564C15.5231 9.51133 15.5006 9.56431 15.4291 9.62528C15.4919 9.70368 15.545 9.7707 15.5893 9.81693C15.6302 9.8587 15.6554 9.86564 15.6746 9.8683C15.6894 9.87097 15.6972 9.87097 15.7016 9.87097C15.7061 9.87097 15.7086 9.87452 15.7086 9.87701C15.7086 9.88128 15.7043 9.88306 15.6903 9.88306H15.6424C15.5989 9.88306 15.5797 9.87879 15.5605 9.8683C15.5274 9.85088 15.4995 9.81515 15.4559 9.7595C15.4238 9.7195 15.3898 9.6715 15.3733 9.65159C15.3697 9.64804 15.3681 9.64733 15.3628 9.64733L15.2652 9.64555C15.2616 9.64555 15.26 9.64733 15.26 9.65159V9.66902C15.26 9.74048 15.26 9.7979 15.2636 9.82848C15.2663 9.85017 15.2705 9.86421 15.294 9.86759C15.3045 9.86937 15.321 9.87115 15.3279 9.87115C15.3331 9.87115 15.334 9.8747 15.334 9.87719C15.334 9.88075 15.3304 9.88324 15.3217 9.88324C15.2799 9.88324 15.2311 9.88057 15.2277 9.88057C15.2268 9.88057 15.1754 9.88324 15.152 9.88324C15.1441 9.88324 15.1397 9.88146 15.1397 9.87719C15.1397 9.87452 15.1415 9.87115 15.1457 9.87115C15.1527 9.87115 15.1623 9.86937 15.1692 9.86759C15.184 9.86404 15.1857 9.85017 15.1893 9.82848C15.1936 9.79808 15.1936 9.73959 15.1936 9.66831V9.53764L15.1939 9.53746ZM15.26 9.60022C15.26 9.60448 15.2618 9.60715 15.2652 9.60982C15.2766 9.61586 15.3157 9.62119 15.3496 9.62119C15.3679 9.62119 15.3887 9.62031 15.4071 9.60822C15.4332 9.59079 15.4533 9.55168 15.4533 9.49497C15.4533 9.40271 15.4028 9.34955 15.3208 9.34955C15.2983 9.34955 15.2737 9.35222 15.2659 9.35382C15.2624 9.3556 15.2599 9.35809 15.2599 9.36253V9.60039L15.26 9.60022Z" fill="#E6E6E6"/>
<path d="M15.8914 9.338C15.901 9.31365 15.9043 9.3092 15.9097 9.3092C15.9175 9.3092 15.9202 9.31969 15.928 9.33623C15.9419 9.36751 16.0647 9.67329 16.1118 9.78564C16.1397 9.85178 16.1605 9.86138 16.177 9.86671C16.1884 9.87026 16.1996 9.87098 16.2074 9.87098C16.2117 9.87098 16.217 9.87275 16.217 9.87702C16.217 9.88129 16.2083 9.88306 16.1996 9.88306C16.1882 9.88306 16.1317 9.88306 16.0786 9.88129C16.0638 9.8804 16.0515 9.8804 16.0515 9.87613C16.0515 9.87258 16.0533 9.87258 16.0567 9.87098C16.061 9.8692 16.069 9.86315 16.0636 9.85089L15.9948 9.68111C15.9931 9.67756 15.9922 9.67684 15.9879 9.67684H15.811C15.8075 9.67684 15.805 9.67862 15.8032 9.68289L15.7596 9.80129C15.7527 9.8196 15.7483 9.83791 15.7483 9.85089C15.7483 9.86564 15.7612 9.87098 15.7744 9.87098H15.7813C15.7874 9.87098 15.7891 9.87364 15.7891 9.87702C15.7891 9.88129 15.7849 9.88306 15.7778 9.88306C15.7595 9.88306 15.7177 9.8804 15.709 9.8804C15.7011 9.8804 15.6627 9.88306 15.6315 9.88306C15.6219 9.88306 15.6167 9.88129 15.6167 9.87702C15.6167 9.87346 15.6203 9.87098 15.6236 9.87098C15.6288 9.87098 15.6402 9.87009 15.6462 9.8692C15.6811 9.86493 15.6958 9.8388 15.7106 9.80129L15.8908 9.338H15.8914ZM15.9767 9.64627C15.9803 9.64627 15.9803 9.64449 15.9794 9.64111L15.9036 9.43827C15.8994 9.42689 15.8949 9.42689 15.8907 9.43827L15.8192 9.64111C15.8183 9.64467 15.8192 9.64627 15.8219 9.64627H15.9769H15.9767Z" fill="#E6E6E6"/>
<path d="M16.3416 9.78225C16.3434 9.84323 16.3504 9.86154 16.3713 9.86669C16.3852 9.87025 16.4026 9.87096 16.4097 9.87096C16.4133 9.87096 16.4158 9.87363 16.4158 9.877C16.4158 9.88127 16.4106 9.88305 16.4019 9.88305C16.3584 9.88305 16.328 9.88038 16.3208 9.88038C16.3137 9.88038 16.2817 9.88305 16.2469 9.88305C16.2391 9.88305 16.2346 9.88216 16.2346 9.877C16.2346 9.87345 16.2373 9.87096 16.2407 9.87096C16.2467 9.87096 16.2608 9.87007 16.272 9.86669C16.2912 9.86154 16.2936 9.84145 16.2936 9.77443V9.35025C16.2936 9.32057 16.2979 9.31274 16.3041 9.31274C16.3128 9.31274 16.3258 9.3275 16.3338 9.33532C16.3461 9.34759 16.4575 9.46599 16.5759 9.58794C16.6517 9.66634 16.7336 9.75434 16.7571 9.77869L16.7493 9.40768C16.7484 9.35985 16.7441 9.34314 16.7205 9.33888C16.7066 9.33621 16.6892 9.33532 16.683 9.33532C16.6778 9.33532 16.6769 9.33106 16.6769 9.32839C16.6769 9.32412 16.683 9.32323 16.6917 9.32323C16.7265 9.32323 16.7631 9.32501 16.7719 9.32501C16.7806 9.32501 16.8058 9.32323 16.8371 9.32323C16.8449 9.32323 16.851 9.32412 16.851 9.32839C16.851 9.33106 16.8474 9.33532 16.8423 9.33532C16.8387 9.33532 16.8327 9.33532 16.8239 9.3371C16.7987 9.34225 16.7969 9.35719 16.7969 9.40163L16.7951 9.83541C16.7951 9.88412 16.7943 9.88856 16.7891 9.88856C16.7813 9.88856 16.7735 9.88252 16.7308 9.84323C16.723 9.83629 16.6124 9.72732 16.5313 9.64287C16.4424 9.54972 16.3562 9.45905 16.3328 9.43292L16.3415 9.78225H16.3416Z" fill="#E6E6E6"/>
<path d="M17.0088 9.53752C17.0088 9.4225 17.0088 9.4017 17.0071 9.37806C17.0053 9.35282 17.001 9.34055 16.9758 9.33717C16.9697 9.33628 16.9566 9.33539 16.9496 9.33539C16.947 9.33539 16.9436 9.33184 16.9436 9.32935C16.9436 9.32508 16.9472 9.32331 16.9559 9.32331C16.9907 9.32331 17.0403 9.32508 17.0448 9.32508C17.0499 9.32508 17.2103 9.32597 17.2277 9.32508C17.2424 9.32419 17.2565 9.32153 17.2625 9.32082C17.2661 9.31993 17.2695 9.31726 17.273 9.31726C17.2757 9.31726 17.2766 9.32082 17.2766 9.32419C17.2766 9.32935 17.2723 9.33806 17.2705 9.35904C17.2696 9.36597 17.2679 9.39904 17.2663 9.40775C17.2654 9.4113 17.2627 9.41557 17.2593 9.41557C17.2551 9.41557 17.2533 9.41202 17.2533 9.40597C17.2533 9.40082 17.2524 9.38855 17.249 9.37984C17.2439 9.36757 17.236 9.36242 17.1941 9.35726C17.1811 9.35548 17.0922 9.35459 17.0835 9.35459C17.08 9.35459 17.0792 9.35726 17.0792 9.36242V9.56366C17.0792 9.56881 17.0792 9.57148 17.0835 9.57148C17.0931 9.57148 17.1941 9.57148 17.2115 9.5697C17.2298 9.56792 17.2412 9.56704 17.249 9.55921C17.2542 9.55406 17.2577 9.54961 17.2604 9.54961C17.2631 9.54961 17.2647 9.55139 17.2647 9.55566C17.2647 9.55992 17.2604 9.57219 17.2586 9.59655C17.2568 9.6113 17.2551 9.63921 17.2551 9.64437C17.2551 9.65041 17.2533 9.65823 17.2481 9.65823C17.2446 9.65823 17.243 9.65557 17.243 9.6513C17.243 9.64437 17.243 9.63655 17.2394 9.62695C17.2368 9.61646 17.2298 9.60775 17.2003 9.60437C17.1793 9.6017 17.0976 9.60081 17.0844 9.60081C17.0801 9.60081 17.0792 9.60348 17.0792 9.60597V9.66783C17.0792 9.69308 17.0784 9.7793 17.0792 9.79406C17.081 9.84365 17.0949 9.85325 17.1706 9.85325C17.1907 9.85325 17.2272 9.85325 17.2472 9.84543C17.2673 9.83672 17.2776 9.82374 17.2821 9.79406C17.2839 9.78534 17.2856 9.78268 17.2899 9.78268C17.2942 9.78268 17.2951 9.78872 17.2951 9.79406C17.2951 9.79939 17.289 9.84988 17.2846 9.86552C17.2794 9.88472 17.2716 9.88472 17.2419 9.88472C17.1845 9.88472 17.14 9.88294 17.1086 9.88205C17.0764 9.88028 17.0563 9.88028 17.0449 9.88028C17.0432 9.88028 17.0284 9.88028 17.0119 9.88117C16.9971 9.88205 16.9797 9.88294 16.9674 9.88294C16.9596 9.88294 16.9552 9.88117 16.9552 9.8769C16.9552 9.87423 16.9569 9.87085 16.9612 9.87085C16.9681 9.87085 16.9777 9.86819 16.9847 9.8673C16.9994 9.86463 17.0012 9.84988 17.0048 9.82819C17.009 9.79779 17.009 9.7393 17.009 9.66801V9.53735L17.0088 9.53752Z" fill="#E6E6E6"/>
<path d="M17.6969 9.31274C17.8693 9.31274 18 9.41817 18 9.59061C18 9.76305 17.8772 9.89283 17.6926 9.89283C17.4827 9.89283 17.3931 9.73514 17.3931 9.60199C17.3931 9.4827 17.4853 9.31274 17.6971 9.31274H17.6969ZM17.7143 9.86225C17.7831 9.86225 17.9216 9.82563 17.9216 9.61141C17.9216 9.43381 17.8137 9.34048 17.6926 9.34048C17.5646 9.34048 17.4722 9.42065 17.4722 9.58172C17.4722 9.75416 17.5758 9.86225 17.7143 9.86225Z" fill="#E6E6E6"/>
</svg>
