<svg width="20" height="20" viewBox="0 0 20 20" fill="none" xmlns="http://www.w3.org/2000/svg">
<path d="M10.4768 7.27908L9.97178 8.46921C9.70477 8.44144 9.43615 8.45301 9.43615 8.45301L9.0675 7.5689L10.4768 7.27908ZM10.314 8.80019C10.3164 8.80226 10.3175 8.80477 10.321 8.80652L11.1879 6.70752L10.6706 6.82113L10.5067 7.20658L9.04471 7.51402L8.9177 7.21015L8.85229 7.22387L9.39989 8.5044C9.74457 8.53323 10.0424 8.61304 10.314 8.80019Z" fill="#E6E6E6"/>
<path d="M11.5238 14.4133C11.5804 14.3226 11.6321 14.2291 11.6842 14.133L10.7688 11.994L10.646 11.7048C10.5932 11.7819 10.5369 11.8547 10.4768 11.9237L10.5798 12.1699L11.5238 14.4133Z" fill="#E6E6E6"/>
<path d="M5.49885 7.4408V6.6066L5.46265 6.58623L5.25732 7.1271L5.33673 7.26427L5.49885 7.4408Z" fill="#E6E6E6"/>
<path d="M14.8765 11.6377L15.186 11.8329L14.5459 11.7383L14.2058 11.4759L14.5582 11.5238L14.8765 11.6377ZM15.2142 12.3097L14.4977 12.2152L14.5459 11.7921L15.2803 11.9131L15.2142 12.3097ZM14.7267 12.346L14.4668 12.2967L14.5283 12.2619L14.9251 12.3337L14.7267 12.346ZM14.6079 13.0396L14.9285 13.3821L14.2853 13.3498H14.2726L14.2157 13.2935L13.9741 13.0511L13.5422 12.7782L14.376 12.8648L14.6079 13.0396ZM14.8748 13.8337L14.1583 13.8182H14.1556L14.2692 13.4162L14.2726 13.4032L14.9631 13.456L14.8748 13.8337ZM14.3117 14.4576L14.4914 14.9141L13.7722 14.9201L13.7089 14.8206L13.5158 14.5164L13.2619 14.222V15.1752L13.2637 15.1845H13.2619V15.1752L13.1595 15.0934V15.1871L12.4888 15.204C12.5922 15.0436 12.69 14.8747 12.7825 14.6996L13.1447 15.0805L13.1595 15.0934V14.1031L13.2619 14.222L13.2654 14.0901L14.0173 14.1221L14.3117 14.4576ZM14.3047 15.2947L13.5791 15.3154L13.7459 14.9795L14.496 14.969L14.3047 15.2947ZM13.6533 15.652L13.7644 16.1714L13.2619 16.1979V15.8018V15.6731V15.2426L13.3456 15.2398L13.3987 15.2376L13.5007 15.4051L13.6533 15.652ZM13.5158 16.4701C13.4532 16.4138 13.3684 16.3631 13.2619 16.3213V16.2495L13.7159 16.2341L13.5158 16.4701ZM12.7182 16.52C12.7006 16.5144 12.6777 16.5108 12.6467 16.5084C12.6123 16.5049 12.5718 16.502 12.5251 16.502C12.1849 16.502 11.8994 16.5661 11.8263 16.6511C11.7865 16.6268 11.7654 16.6016 11.7654 16.5744C11.7654 16.4669 12.1012 16.3789 12.5145 16.3789C12.5965 16.3789 12.6749 16.3825 12.749 16.3888C12.7762 16.3902 12.8019 16.3934 12.8248 16.3958C12.964 16.4134 13.0804 16.4412 13.1595 16.4746V16.6733C13.0284 16.732 12.7885 16.7687 12.5145 16.7687H12.4811C12.4547 16.7687 12.4273 16.7687 12.4016 16.7673C12.2571 16.762 12.1259 16.7454 12.0211 16.7215C11.9778 16.7061 11.9521 16.6895 11.9521 16.6723C11.9521 16.6139 12.2377 16.5646 12.5999 16.5601H12.652C12.6633 16.5601 12.6731 16.5601 12.6829 16.559C12.7726 16.5563 12.7815 16.5348 12.7182 16.52ZM13.1595 16.2534V16.2855C13.1272 16.2753 13.0952 16.2653 13.0583 16.2579L13.1595 16.2534ZM12.9728 16.2133L12.9463 16.2147L12.9305 16.1619L12.8194 15.8102L12.5226 15.2672L13.1595 15.2462V15.8373V15.9587V16.2031L12.9728 16.2133ZM13.5678 16.6768C13.5678 16.9166 13.0916 17.1098 12.5064 17.1098C12.3734 17.1098 12.2483 17.1014 12.1311 17.0819C12.1083 17.0788 12.0843 17.075 12.0632 17.0704C11.6982 17.0018 11.4464 16.8509 11.4464 16.6768C11.4464 16.437 11.9194 16.2424 12.5064 16.2424C12.6246 16.2424 12.7421 16.2517 12.8486 16.2664C12.874 16.2689 12.8989 16.2738 12.9225 16.2784C13.0079 16.2917 13.0874 16.3122 13.1595 16.335V16.4162C13.0786 16.3884 12.978 16.366 12.8634 16.3505C12.8398 16.3467 12.8141 16.3441 12.7885 16.342C12.7023 16.3325 12.6105 16.3284 12.5145 16.3284C12.051 16.3284 11.6764 16.4363 11.6764 16.571C11.6764 16.6887 11.9697 16.7862 12.3583 16.8073C12.3858 16.809 12.4104 16.809 12.4378 16.8123C12.4635 16.8123 12.4881 16.8126 12.5145 16.8126C12.7726 16.8126 13.0055 16.7788 13.1595 16.7254C13.1993 16.7116 13.2337 16.6954 13.2619 16.6787V16.5966V16.5766V16.5732V16.5158C13.2787 16.5249 13.3006 16.5418 13.3139 16.571C13.3139 16.571 13.3217 16.5889 13.3386 16.5826C13.3537 16.578 13.3326 16.5137 13.2619 16.4637V16.462V16.3729C13.4486 16.451 13.5678 16.5577 13.5678 16.6768ZM11.8958 17.1024C11.9275 17.1098 11.9602 17.1189 11.9936 17.1274C12.0158 17.1323 12.0376 17.1358 12.0597 17.1397C12.1259 17.1524 12.1979 17.1626 12.2711 17.1696L11.9486 17.1924L11.8958 17.1024ZM12.3102 17.401L11.7046 17.4513L11.9574 17.2603L12.5852 17.2076L12.3102 17.401ZM11.4833 17.7242L10.8865 17.789L10.7634 17.8012L10.7102 17.8079V17.3324L10.647 16.9509L11.2294 16.9202L11.3201 17.1524L11.5308 17.503L11.4833 17.7242ZM10.9818 17.8881L10.6301 17.9338L10.7314 17.855L11.2005 17.8188L10.9818 17.8881ZM11.2076 16.8621L10.6424 16.8928C10.8056 16.8221 10.9643 16.7356 11.12 16.6343L11.2076 16.8621ZM9.49835 15.9347C7.25798 15.9428 6.08854 13.4205 6.22079 10.4756L6.5152 10.4409C6.45089 10.6821 6.52821 10.8678 6.52748 10.8829L8.20647 10.7405C8.15163 10.7595 8.07848 10.7922 8.00465 10.8432L6.52401 10.9817C6.51871 11.0732 6.51767 11.1657 6.51767 11.2592C6.51767 11.9085 6.61893 12.5232 6.79444 13.0811C6.76452 13.1458 6.74692 13.2313 6.76982 13.3395C6.79621 13.4585 6.8827 13.5604 7.0058 13.6416C7.11451 13.8889 7.23792 14.1189 7.37159 14.332L7.56218 13.9266C7.60262 13.9536 7.59288 13.9462 7.62022 13.962L7.43353 14.4228C7.43353 14.4228 7.38568 14.605 7.56465 14.7875C7.63955 14.8659 7.70145 14.8684 7.74363 14.8518L8.03279 14.1558C8.05039 14.1615 8.06967 14.1664 8.09013 14.1713L7.79745 14.8941C8.31306 15.4663 8.93278 15.8068 9.55033 15.8099C9.94252 15.8116 10.3262 15.6639 10.6804 15.4086C10.839 15.2947 10.9899 15.1585 11.1351 15.0052C10.6635 15.5873 10.1004 15.933 9.49835 15.9347ZM9.36291 17.9388L9.46133 17.6008L9.46766 17.1376C9.47898 17.1376 9.48776 17.1383 9.49835 17.1383C9.6668 17.1383 9.83242 17.1217 9.99987 17.0919L10.0565 17.5072L10.2063 17.8395L9.36291 17.9388ZM8.85966 17.561L8.18792 17.644L8.32185 17.3036L8.37283 16.9276C8.53681 16.9909 8.70353 17.0391 8.87262 17.075L8.85966 17.561ZM7.75948 16.8454L7.0139 16.9181L7.24394 16.628L7.37332 16.336C7.51189 16.4517 7.65537 16.5548 7.80458 16.6452L7.75948 16.8454ZM6.85243 15.8868L6.31405 15.908C6.33089 15.8795 6.33966 15.8492 6.33966 15.8194C6.33966 15.7839 6.32634 15.748 6.30628 15.7163L6.34494 15.6699L6.52748 15.3955C6.63758 15.5539 6.74945 15.7023 6.86825 15.8409L6.85243 15.8868ZM5.9922 15.652C6.04005 15.6759 6.06817 15.7008 6.06817 15.7287C6.06817 15.7565 6.04005 15.7814 5.9922 15.8054V15.652ZM5.68128 15.7199C5.20903 15.6436 4.97505 15.7283 4.91453 15.7547C4.90929 15.7456 4.90479 15.7378 4.90479 15.7287C4.90479 15.6436 5.16646 15.5739 5.48718 15.5739C5.59657 15.5739 5.69783 15.5813 5.78543 15.5979C5.82584 15.6027 5.85924 15.6101 5.89267 15.6179V15.7585V15.8387C5.78712 15.8676 5.64435 15.883 5.48718 15.883C5.29796 15.883 5.12883 15.8592 5.0229 15.8223C5.13304 15.7368 5.57018 15.7649 5.65735 15.7599C5.74812 15.7551 5.68128 15.7199 5.68128 15.7199ZM6.25421 15.9097C6.23914 15.9323 6.21728 15.9528 6.19232 15.9714C6.05306 16.0793 5.78188 16.15 5.46958 16.15C5.01586 16.15 4.64908 15.9985 4.64908 15.8116C4.64908 15.6263 5.01586 15.4737 5.46958 15.4737C5.58354 15.4737 5.69082 15.4832 5.79142 15.5C5.82584 15.5071 5.85924 15.5145 5.89267 15.5226V15.5774C5.85396 15.567 5.81248 15.5596 5.76679 15.5524C5.68019 15.5394 5.58423 15.5331 5.483 15.5331C5.12601 15.5331 4.83794 15.6207 4.83794 15.7301C4.83794 15.8387 5.12601 15.9273 5.483 15.9273C5.67331 15.9273 5.8424 15.9023 5.95982 15.8616C6.06362 15.8278 6.12552 15.7811 6.12552 15.7301C6.12552 15.6846 6.07629 15.6432 5.9922 15.6101V15.551C6.13783 15.6003 6.24014 15.6699 6.27532 15.7497C6.28417 15.7698 6.28941 15.7913 6.28941 15.8116C6.28941 15.8458 6.27707 15.8782 6.25421 15.9097ZM4.77604 10.5576L7.81154 9.01012L9.21903 8.80115L10.283 9.04315L10.3797 9.06598L10.4047 9.07166L10.5288 9.09945L10.5277 9.09981L13.0786 9.70088L4.77604 10.5576ZM8.3254 8.35423C8.3254 8.35423 8.35463 8.33448 8.41189 8.31972V8.36124C8.41189 8.3746 8.42139 8.38483 8.43368 8.38483C8.44713 8.38483 8.45761 8.3746 8.45761 8.36124V8.31233C8.47765 8.30816 8.4998 8.30671 8.5255 8.30671C8.65424 8.30671 8.73269 8.35423 8.73269 8.35423V8.80577L8.45761 8.84689V8.77339C8.45761 8.76043 8.44713 8.74982 8.43368 8.74982C8.42139 8.74982 8.41189 8.76043 8.41189 8.77339V8.85499L8.3254 8.86627V8.35423ZM8.20647 8.19768C8.20647 8.1062 8.29447 8.03059 8.40275 8.03059H8.64614C8.75628 8.03059 8.84343 8.1062 8.84343 8.19768C8.84343 8.23252 8.83043 8.26623 8.80759 8.2934V8.29196C8.80759 8.29196 8.66303 8.2343 8.5255 8.2343C8.38692 8.2343 8.24873 8.29196 8.24873 8.29196V8.30174C8.22234 8.27256 8.20647 8.23705 8.20647 8.19768ZM8.71223 7.88711C8.71223 7.91565 8.70173 7.94341 8.68411 7.96414H8.67184H8.3782H8.36404C8.34831 7.94341 8.33876 7.91565 8.33876 7.88711C8.33876 7.81887 8.3887 7.76583 8.45237 7.76583H8.59585C8.66016 7.76583 8.71223 7.81887 8.71223 7.88711ZM8.85224 8.04544C8.82688 8.01583 8.79423 7.99297 8.75628 7.97926C8.76853 7.95116 8.77486 7.91985 8.77486 7.88711C8.77486 7.87373 8.77379 7.86217 8.77202 7.8502L8.85224 8.04544ZM9.14344 8.746L9.06221 8.7565L8.88249 8.30456C8.90009 8.27192 8.90955 8.23705 8.90955 8.19768C8.90955 8.19171 8.90955 8.18681 8.90881 8.18183L9.14344 8.746ZM10.904 8.86136L11.6771 7.03212L11.8016 7.00578C12.116 7.70846 12.333 8.55712 12.4237 9.47893L11.113 9.16982C11.0504 9.0611 10.9818 8.95808 10.904 8.86136ZM13.3579 6.25985L13.922 6.53098L13.7845 6.72761L13.6224 6.79335L13.1711 7.11546C13.112 6.95549 13.0495 6.79965 12.9816 6.64949L13.3579 6.25985ZM14.2006 7.18164L14.9946 7.52556L14.6103 7.94759L14.3187 8.16428L13.4754 7.81645L13.9027 7.50734L14.2006 7.18164ZM14.8765 7.04271L15.0193 7.45841L14.2181 7.12891L14.1018 6.70047L14.8765 7.04271ZM14.4281 8.8951L14.4428 8.88495L14.5101 8.90639L15.186 9.13216L14.8765 9.33055L14.5575 9.45991L14.5101 9.47893L14.4763 9.46941L13.73 9.24366L14.0894 9.11982L14.4281 8.8951ZM15.2187 8.62956L15.2493 9.06956L14.503 8.82972L14.4995 8.82827L14.4668 8.5494L14.4428 8.32567L15.2187 8.62956ZM14.139 9.88264H13.73C13.7183 9.68854 13.7025 9.49826 13.6825 9.30902L14.4791 9.54504C14.4896 9.68078 14.4943 9.81831 14.4995 9.95763L14.139 9.88264ZM13.4135 7.87732L14.3292 8.2272L14.3363 8.22229C14.3388 8.23603 14.3416 8.24935 14.3434 8.26242L14.0462 8.28279L13.5503 8.45796C13.5094 8.25955 13.4645 8.06687 13.4135 7.87732ZM9.54793 15.3129C8.65493 15.194 8.39853 14.6795 8.51848 14.3725C8.54731 14.3004 8.56311 14.2564 8.57647 14.229C9.25072 14.2136 9.82643 13.8108 10.0635 13.2453C10.1226 13.228 10.2531 13.1771 10.3527 13.0677L10.9723 14.5821C10.9723 14.5821 11.062 14.8543 10.8882 15.0193C10.647 15.2479 10.067 15.3826 9.54793 15.3129ZM8.45481 14.2287C8.47418 14.229 8.49107 14.229 8.51145 14.229C8.40903 14.4446 8.31903 14.8121 8.74219 15.0844C9.07169 15.2961 9.46597 15.4096 9.82119 15.4096C10.3905 15.4086 10.8514 15.168 10.8514 15.168C10.8514 15.168 10.2292 15.6207 9.42869 15.4325C8.01059 15.0861 8.38093 14.3521 8.45481 14.2287ZM6.84018 13.2239C6.82886 13.2239 6.81905 13.228 6.81381 13.2344C6.81381 13.2129 6.8155 13.194 6.81836 13.1764C6.82362 13.1834 6.82886 13.1879 6.83487 13.1879C6.84646 13.1879 6.8542 13.1721 6.8542 13.1514C6.8542 13.1348 6.84719 13.1208 6.8384 13.1173C6.87111 13.0428 6.93019 13.0128 6.93019 13.0128C6.93019 13.0128 6.93197 13.0216 6.93545 13.0378C6.92313 13.0381 6.91151 13.0536 6.91151 13.073C6.91151 13.093 6.92313 13.1096 6.93723 13.1096C6.94424 13.1096 6.94888 13.1053 6.95412 13.099C6.9882 13.1964 7.06417 13.3557 7.22811 13.4637C7.5682 13.6923 8.02646 13.7521 8.02646 13.7521C7.94093 13.7696 7.85021 13.7795 7.75597 13.7795C7.74896 13.7633 7.7233 13.7521 7.69097 13.7521H7.68988V13.75C7.68988 13.7285 7.67406 13.7116 7.6536 13.7116C7.63609 13.7116 7.62372 13.7243 7.62022 13.7391H7.5998C7.56997 13.7391 7.54463 13.7433 7.52426 13.75C7.52772 13.7437 7.53127 13.7356 7.53127 13.7271C7.53127 13.7078 7.51893 13.692 7.50488 13.692C7.4943 13.692 7.48797 13.6983 7.48378 13.7085C7.47319 13.7043 7.46167 13.7015 7.44827 13.7015C7.42998 13.7015 7.41484 13.7053 7.4008 13.7138C7.39127 13.7032 7.37332 13.6958 7.35399 13.6947C7.35754 13.6853 7.361 13.6751 7.361 13.6625C7.361 13.6322 7.34804 13.6072 7.33397 13.6072C7.31992 13.6072 7.30543 13.6322 7.30543 13.6625C7.30543 13.6649 7.30723 13.667 7.30723 13.6684C7.296 13.6625 7.28086 13.6582 7.26431 13.6582C7.25204 13.6582 7.24147 13.66 7.23335 13.6632C7.23515 13.6554 7.23792 13.6452 7.23792 13.6346C7.23792 13.5998 7.21755 13.571 7.19118 13.571C7.17605 13.571 7.16371 13.5795 7.1549 13.5939C7.14788 13.5844 7.13734 13.5795 7.12678 13.5795C7.11866 13.5795 7.11451 13.5815 7.10749 13.5865C7.10106 13.5808 7.09404 13.5763 7.08426 13.5763C7.07476 13.5763 7.06666 13.5808 7.05889 13.5868C7.05785 13.5668 7.0438 13.5509 7.028 13.5495C7.028 13.5415 7.02973 13.5361 7.02973 13.5305C7.02973 13.5031 7.02092 13.483 7.01035 13.4679C7.02342 13.4612 7.0325 13.4465 7.0325 13.4254C7.0325 13.4 7.01845 13.3793 7.00332 13.3793C6.9865 13.3793 6.97171 13.4 6.97171 13.4254C6.97171 13.4335 6.97416 13.443 6.97875 13.4504C6.96361 13.4504 6.95023 13.4598 6.94246 13.4767C6.93723 13.4732 6.93197 13.4708 6.92742 13.4708C6.91508 13.4708 6.90731 13.4778 6.90103 13.4866C6.9003 13.4852 6.89852 13.483 6.89748 13.4813C6.90627 13.4708 6.91151 13.4528 6.91151 13.4335C6.91151 13.4205 6.90982 13.4099 6.90458 13.4C6.92313 13.3966 6.93723 13.3793 6.93723 13.3568C6.93723 13.3325 6.92032 13.3114 6.9003 13.3114C6.87921 13.3114 6.86128 13.3325 6.86128 13.3568C6.86128 13.3627 6.86233 13.3688 6.86479 13.3737C6.8542 13.3757 6.84719 13.3828 6.84195 13.3895C6.83487 13.3737 6.82886 13.3564 6.82613 13.3388C6.82362 13.328 6.81905 13.315 6.81836 13.3047C6.82613 13.3096 6.83241 13.3114 6.84018 13.3114C6.86233 13.3114 6.87992 13.2921 6.87992 13.2682C6.87992 13.2443 6.86233 13.2239 6.84018 13.2239ZM8.24873 11.0855C8.21533 11.1308 8.15445 11.2308 8.20197 11.3134C8.25117 11.4354 8.46819 11.555 9.28237 11.8632C9.6668 12.0094 10.5693 12.3182 10.3832 12.9126C10.3498 13.0202 10.1964 13.1278 10.098 13.1556C10.1004 13.1486 10.1022 13.1426 10.105 13.1363L10.0958 13.1472C10.1004 13.1296 10.111 13.0846 10.1226 13.0396C10.1331 13.0396 10.1461 13.0378 10.1566 13.0273C10.1764 13.0132 10.1834 12.9924 10.1736 12.9791C10.1647 12.9699 10.1507 12.9678 10.1356 12.9745C10.1426 12.9449 10.1461 12.9221 10.1461 12.9179C10.1461 12.9137 10.1454 12.9066 10.1426 12.8982C10.1595 12.9101 10.1764 12.9151 10.1859 12.9073C10.1929 12.9024 10.194 12.8918 10.1912 12.8792C10.1922 12.8813 10.1929 12.8824 10.194 12.8844C10.2045 12.8989 10.2292 12.8996 10.2467 12.8862C10.2654 12.8718 10.2696 12.8489 10.2573 12.8335C10.2467 12.818 10.2228 12.8176 10.2045 12.832C10.1922 12.8419 10.1869 12.856 10.1876 12.8683C10.1834 12.8584 10.1781 12.8461 10.1683 12.8341C10.1461 12.8057 10.1181 12.7909 10.1033 12.7987C10.0846 12.7659 10.0547 12.7276 10.0139 12.6847C10.0139 12.6847 10.0167 12.6847 10.0185 12.6826C10.0423 12.6643 10.0466 12.6235 10.0227 12.595C9.99987 12.5662 9.96112 12.5591 9.93717 12.5792C9.92779 12.5844 9.92421 12.594 9.92137 12.6035C9.90029 12.5876 9.8785 12.5711 9.85635 12.5545C9.86691 12.5531 9.87918 12.5482 9.88977 12.5391C9.92137 12.5155 9.9267 12.4723 9.90659 12.4424C9.88273 12.4152 9.83944 12.4118 9.80883 12.4353C9.78491 12.4526 9.77512 12.4814 9.78145 12.506C9.75153 12.4885 9.71955 12.4688 9.68439 12.449C9.68786 12.4403 9.68786 12.4297 9.68617 12.4192C9.69596 12.4177 9.70368 12.4139 9.71069 12.4089C9.72237 12.3984 9.72865 12.3844 9.73007 12.3671C9.74274 12.3741 9.75575 12.3745 9.76558 12.3671C9.77967 12.3573 9.77967 12.334 9.76631 12.3182C9.7533 12.3014 9.73289 12.2975 9.71955 12.3084C9.71955 12.3091 9.71882 12.3112 9.71704 12.3119C9.71427 12.3077 9.71247 12.3041 9.70901 12.2992C9.67916 12.2619 9.63164 12.2507 9.60341 12.2728C9.57958 12.2919 9.57603 12.3302 9.59294 12.3639C9.59185 12.3639 9.59185 12.365 9.58939 12.3657C9.58126 12.3724 9.57853 12.3815 9.57603 12.3921C9.5215 12.3639 9.4596 12.3372 9.39276 12.3084C9.39631 12.2813 9.38228 12.2472 9.35378 12.2211C9.31508 12.1839 9.26055 12.1733 9.23485 12.2018C9.22613 12.2106 9.22258 12.2236 9.22258 12.2387C9.20389 12.231 9.18569 12.2236 9.16701 12.2173C9.17686 12.2032 9.17864 12.1864 9.17231 12.1705C9.17509 12.1687 9.17864 12.167 9.18041 12.1656C9.20853 12.1455 9.20924 12.1023 9.18569 12.0724C9.16104 12.0414 9.1202 12.0323 9.09493 12.0533C9.06745 12.0749 9.06468 12.116 9.0886 12.1469C9.0791 12.1557 9.07446 12.1705 9.07446 12.1839C9.06044 12.1782 9.04816 12.1733 9.03585 12.1698C9.03931 12.141 9.02351 12.1041 8.98909 12.0773C8.97218 12.0654 8.95393 12.0559 8.93525 12.0523C8.93633 12.0523 8.93702 12.0523 8.93871 12.052C8.95285 12.0407 8.95393 12.02 8.94157 12.0024C8.94157 12.0024 8.94157 12.0017 8.9398 12.0017C8.94157 12.0017 8.94335 12.0017 8.94403 11.9996C8.96441 11.9851 8.96441 11.9514 8.94512 11.9264C8.92397 11.9004 8.89199 11.8937 8.87191 11.9089C8.85153 11.9244 8.8508 11.9588 8.86913 11.9841C8.87548 11.9897 8.88249 11.9957 8.88773 11.9989C8.87963 12.0101 8.88072 12.0274 8.8913 12.0414C8.8955 12.0463 8.90009 12.0488 8.90533 12.0523C8.89199 12.0548 8.88072 12.0594 8.87262 12.0699C8.86558 12.0798 8.86212 12.0921 8.86381 12.1054C8.84869 12.1002 8.83573 12.0938 8.81878 12.0886C8.82583 12.0569 8.79949 12.0164 8.75553 11.9873C8.72983 11.9718 8.70353 11.9623 8.68063 11.9613C8.68839 11.9577 8.69818 11.9521 8.70244 11.9437C8.71755 11.9194 8.70699 11.886 8.68063 11.8687C8.65246 11.8501 8.61695 11.8554 8.6029 11.8796C8.58706 11.9039 8.59767 11.9373 8.62399 11.9549C8.63209 11.9599 8.6391 11.9626 8.64896 11.964C8.63733 11.9676 8.62863 11.9732 8.62323 11.9817C8.61977 11.9876 8.618 11.9957 8.618 12.0045C8.58531 11.989 8.55364 11.9739 8.52268 11.9599C8.52203 11.9388 8.51145 11.912 8.49107 11.8881C8.47241 11.8632 8.44882 11.8448 8.42667 11.8389C8.45237 11.8184 8.44955 11.777 8.42489 11.7435C8.4063 11.7206 8.37924 11.7087 8.35701 11.7109C8.35532 11.7073 8.35532 11.7062 8.35177 11.7038C8.34223 11.69 8.32784 11.683 8.31306 11.6859C8.31202 11.6718 8.3078 11.6567 8.29615 11.644C8.27332 11.6148 8.23885 11.6054 8.22056 11.6201C8.19841 11.6367 8.20123 11.6725 8.22303 11.6999C8.24067 11.7239 8.26806 11.7348 8.28745 11.7298C8.29018 11.7351 8.292 11.7422 8.29615 11.7471C8.30079 11.7527 8.30851 11.7576 8.31306 11.7604C8.31306 11.778 8.32008 11.7981 8.33417 11.8153C8.34831 11.8329 8.36404 11.8441 8.38271 11.8484C8.37569 11.8571 8.37283 11.8705 8.37569 11.8867C8.33139 11.8632 8.29018 11.8389 8.25117 11.8163C8.2477 11.7953 8.23539 11.7721 8.21956 11.7481C8.18432 11.707 8.14111 11.6844 8.1193 11.7013C8.11366 11.7062 8.10946 11.7143 8.10946 11.7242C8.05844 11.6866 8.01237 11.6496 7.97722 11.6148C7.987 11.5899 7.97722 11.5501 7.94908 11.5157C7.92091 11.4794 7.88294 11.4608 7.85555 11.4664C7.84497 11.4474 7.83795 11.4302 7.83019 11.4115C7.84497 11.4056 7.8601 11.3936 7.8678 11.3756C7.88472 11.3398 7.87484 11.3011 7.84779 11.287C7.83618 11.2818 7.82317 11.2807 7.80981 11.2842C7.81154 11.2557 7.81576 11.2273 7.82317 11.2016C7.82317 11.2223 7.83019 11.2399 7.84497 11.2466C7.86958 11.2592 7.904 11.2403 7.92164 11.2051C7.93856 11.1699 7.93223 11.1323 7.90864 11.12C7.88472 11.1098 7.85902 11.1218 7.84151 11.1478C7.85902 11.1024 7.88294 11.062 7.91392 11.0257C7.91809 11.0412 7.92688 11.0535 7.94093 11.0606C7.96949 11.0746 8.00642 11.057 8.02225 11.0222C8.03871 10.9881 8.03279 10.9511 8.00465 10.9357C8.08481 10.8714 8.17449 10.827 8.24873 10.8045V11.0855ZM8.24873 10.3089C8.18792 10.2984 8.15099 10.2903 8.12183 10.2805L8.24873 10.2671V10.3089ZM8.41189 10.3361C8.3782 10.3307 8.34926 10.3262 8.3254 10.3216V10.258L8.41189 10.2495V10.3361ZM8.73269 10.3835C8.7186 10.3814 8.70522 10.3793 8.68839 10.3765C8.59862 10.3635 8.52203 10.3529 8.45761 10.3431V10.2456L8.73269 10.2171V10.3835ZM10.0115 12.1529C9.881 12.0689 9.71247 11.9792 9.50359 11.8881C9.45261 11.778 9.37593 11.6774 9.27642 11.5934C9.345 11.677 9.39453 11.7597 9.4304 11.8571C9.37693 11.8342 9.32216 11.8128 9.26306 11.7903C9.25705 11.7875 9.25072 11.7854 9.24546 11.784C9.20389 11.6989 9.14066 11.6232 9.06044 11.5564C9.1202 11.6268 9.16173 11.683 9.19093 11.7632C8.27092 11.4102 8.22234 11.3046 8.26209 11.1945C8.26209 11.1935 8.26459 11.1931 8.26459 11.1931C8.28566 11.19 8.30425 11.1875 8.3254 11.184V11.1147V10.7313L8.41189 10.7229V10.8006C8.41189 10.8147 8.42139 10.8249 8.43368 10.8249C8.44713 10.8249 8.45761 10.8147 8.45761 10.8006V10.719L8.58531 10.7092C8.64436 10.7215 8.69818 10.7405 8.73269 10.7553V11.1129V11.1832C8.75271 11.1861 8.77202 11.1875 8.79177 11.19C9.35549 11.2786 9.82119 11.6545 10.0115 12.1529ZM9.68963 12.6368C9.69245 12.6024 9.69487 12.5686 9.69596 12.5338C9.72656 12.5531 9.7593 12.5707 9.78564 12.588C9.84825 12.6295 9.9091 12.6696 9.95764 12.7072C9.88977 12.6822 9.79727 12.6572 9.68963 12.6368ZM9.68262 12.7062C9.91369 12.7364 10.053 12.7758 10.053 12.818C10.053 12.8658 9.89501 12.9073 9.63579 12.9386C9.65625 12.863 9.67203 12.7828 9.68262 12.7062ZM9.45718 12.9569L9.47898 12.8774L9.48075 12.7378C9.48885 12.7241 9.50112 12.7065 9.51872 12.6875C9.55319 12.6917 9.5873 12.6946 9.61933 12.6981C9.60945 12.7779 9.5954 12.863 9.57676 12.9456C9.5391 12.9492 9.49935 12.9527 9.45718 12.9569ZM9.2289 12.6822C9.22713 12.6766 9.22713 12.6703 9.22613 12.666C9.25596 12.6678 9.28237 12.6696 9.3098 12.6703C9.3133 12.6801 9.31785 12.6896 9.32318 12.6959C9.37764 12.7708 9.36992 12.8908 9.29116 12.9699C9.25531 12.9721 9.21903 12.9745 9.1821 12.9756C9.22613 12.8989 9.24894 12.8025 9.2289 12.6822ZM8.71223 12.9059C8.80477 12.8092 8.82164 12.7276 8.81809 12.6492C8.83573 12.6498 8.85571 12.6498 8.8737 12.6509C8.90251 12.722 8.92892 12.7951 8.85857 12.8489C8.82237 12.8767 8.78722 12.9292 8.75974 12.9893C8.7239 12.9917 8.68662 12.9917 8.64896 12.9924C8.66551 12.9629 8.68411 12.9347 8.71223 12.9059ZM7.66596 12.6777C7.70145 12.6741 7.73729 12.6731 7.77357 12.6703C7.77462 12.7758 7.78935 12.8774 7.81576 12.971C7.77184 12.9678 7.72959 12.9664 7.68815 12.9629C7.67479 12.8711 7.66596 12.7758 7.66596 12.6777ZM7.44116 12.7013C7.4943 12.6942 7.55164 12.6875 7.61498 12.6826C7.61498 12.7779 7.62372 12.8711 7.64132 12.9594C7.57869 12.9527 7.51893 12.9463 7.4634 12.9407C7.45104 12.8633 7.44476 12.7828 7.44116 12.7013ZM7.24562 12.9098C7.10749 12.8824 7.02343 12.8525 7.02343 12.818C7.02343 12.7881 7.09582 12.7603 7.22105 12.735C7.22456 12.7937 7.23335 12.8528 7.24562 12.9098ZM7.28537 12.7227C7.31111 12.7177 7.34099 12.7135 7.3709 12.71C7.37332 12.7853 7.38424 12.862 7.39829 12.9337C7.36804 12.9292 7.33748 12.9242 7.30896 12.9193C7.29778 12.856 7.28967 12.7891 7.28537 12.7227ZM7.99477 12.7392C8.05494 12.862 7.99655 12.9059 7.91987 12.9373C7.89772 12.9463 7.8777 12.9558 7.8601 12.9699C7.84319 12.8743 7.83196 12.7726 7.83196 12.6667C7.88116 12.6643 7.935 12.6611 7.98878 12.6583C7.98177 12.6822 7.98177 12.7072 7.99477 12.7392ZM8.86212 12.5553C8.84343 12.5545 8.8251 12.5531 8.80759 12.5531C8.79246 12.4512 8.78471 12.3495 8.92011 12.2236C8.95393 12.2352 8.988 12.2486 9.02351 12.2609C9.02948 12.263 9.03407 12.264 9.03931 12.2665C9.0137 12.2978 8.8913 12.4557 8.86212 12.5553ZM9.29571 12.5841C9.27287 12.581 9.25072 12.5792 9.22613 12.576C9.2384 12.473 9.28592 12.4058 9.25596 12.3457C9.27879 12.3545 9.30274 12.3636 9.32666 12.3724C9.31963 12.3998 9.29402 12.4965 9.29571 12.5841ZM9.45261 12.4227C9.47369 12.5099 9.4596 12.5686 9.44382 12.5992C9.42514 12.5964 9.40585 12.594 9.38574 12.5922C9.36783 12.5581 9.36291 12.4993 9.38752 12.3984L9.37693 12.3921C9.4023 12.4023 9.428 12.4125 9.45261 12.4227ZM9.63342 12.5029C9.63164 12.5433 9.63055 12.5841 9.62632 12.6263C9.59818 12.6214 9.56793 12.6165 9.53805 12.6127C9.53455 12.5511 9.51062 12.4701 9.50181 12.4431C9.54864 12.4631 9.59294 12.4836 9.63342 12.5029ZM7.08248 13.2379C7.0058 13.0606 6.96188 12.8683 6.96188 12.666C6.96188 12.1138 7.27663 11.6342 7.74363 11.3749C7.76829 11.561 7.94379 11.7731 8.4063 12.0045C8.3887 12.0225 8.33876 12.0791 8.32185 12.1255C8.30148 12.1839 8.24517 12.1839 8.19491 12.2155C8.14289 12.2476 8.05143 12.3386 8.06621 12.4322C8.07677 12.4892 8.06195 12.5293 8.04333 12.5637C7.97085 12.5672 7.90127 12.5722 7.83438 12.5792C7.84319 12.3984 7.87843 12.231 7.93392 12.0886C7.84674 12.2236 7.78935 12.3949 7.77708 12.5841C7.73908 12.5866 7.70398 12.5911 7.66769 12.595C7.67683 12.334 7.7366 12.0952 7.83019 11.9004C7.70504 12.0871 7.62477 12.3337 7.61498 12.602C7.55413 12.6094 7.4943 12.6179 7.44116 12.627C7.44758 12.3516 7.51715 12.0956 7.63076 11.8867C7.47319 12.0903 7.37505 12.352 7.3709 12.6408C7.34099 12.6463 7.31111 12.6537 7.28364 12.6597V12.6498C7.28364 12.3555 7.36804 12.0836 7.51189 11.8638C7.32862 12.0762 7.21755 12.3495 7.21755 12.6498C7.21755 12.6597 7.21828 12.6678 7.21828 12.6766C7.06488 12.7184 6.97766 12.7677 6.97766 12.8229C6.97766 12.8824 7.08426 12.9365 7.26431 12.9805C7.31251 13.1507 7.39829 13.3062 7.51189 13.4359C7.42712 13.3062 7.36382 13.1566 7.32412 12.9946C7.35399 13.0009 7.38568 13.0068 7.41766 13.0132C7.46167 13.1721 7.53475 13.3174 7.63076 13.4398C7.56218 13.315 7.51189 13.175 7.47927 13.0237C7.53549 13.0329 7.59811 13.0428 7.66347 13.0494C7.70145 13.1894 7.75775 13.3174 7.83019 13.4254C7.77639 13.3146 7.73491 13.1894 7.70504 13.0536C7.73729 13.0572 7.76829 13.0606 7.80171 13.0642C7.79468 13.1004 7.79745 13.1458 7.81154 13.2063C7.85555 13.3906 7.90058 13.4099 7.81758 13.4936C7.75775 13.5509 7.79816 13.6322 7.82737 13.673C7.63431 13.6206 7.41134 13.5386 7.26076 13.4169C7.18477 13.3557 7.12678 13.2949 7.08248 13.2379ZM8.20197 10.6353C8.19668 10.617 8.178 10.603 8.15163 10.603C8.14111 10.603 8.13161 10.6065 8.12183 10.6114C8.11574 10.597 8.0979 10.5857 8.07677 10.5857C8.04861 10.5857 8.02573 10.603 8.02573 10.6247C8.02573 10.6304 8.02646 10.6353 8.02928 10.6388C7.91286 10.6388 7.80458 10.6269 7.72859 10.5935C7.59811 10.5344 7.68815 10.5393 7.71978 10.508C7.75142 10.4756 7.57523 10.4715 7.57523 10.4074C7.57523 10.3691 7.60439 10.3444 7.62654 10.3307L7.98532 10.2938C8.05671 10.3107 8.18086 10.3437 8.2171 10.3635C8.26459 10.3898 8.75726 10.4261 8.87894 10.4531C9.00134 10.4795 9.15578 10.5393 9.15578 10.7873C9.15578 10.9846 8.90608 11.0282 8.80759 11.0366V10.9634C8.81179 10.9578 8.81531 10.9511 8.81531 10.9441C8.81531 10.9399 8.8146 10.9357 8.81283 10.9332C8.83924 10.93 8.85857 10.9167 8.85857 10.8994C8.85857 10.896 8.85857 10.8931 8.85571 10.8899C8.86212 10.8917 8.86913 10.8938 8.87894 10.8938C8.90009 10.8938 8.91765 10.8833 8.91765 10.8696C8.91765 10.8584 8.90881 10.8499 8.8955 10.847C8.90082 10.8435 8.90533 10.84 8.90533 10.8326C8.90533 10.8228 8.8955 10.8158 8.88249 10.8158C8.86913 10.8158 8.85857 10.8228 8.85857 10.8326C8.85857 10.8375 8.86212 10.8432 8.86558 10.846C8.8508 10.8495 8.83924 10.8577 8.83924 10.8696C8.83924 10.8703 8.83988 10.8724 8.83988 10.8731C8.8322 10.8678 8.81878 10.8653 8.80759 10.8653V10.8312C8.83573 10.7979 8.83924 10.7693 8.82583 10.7443C8.84521 10.7398 8.85857 10.7278 8.85857 10.7127C8.85857 10.6937 8.83573 10.6786 8.8065 10.6786C8.78722 10.6786 8.77308 10.6845 8.76329 10.6937C8.75093 10.6881 8.73686 10.6828 8.7239 10.6779C8.73506 10.6723 8.74219 10.6673 8.74219 10.6614C8.74219 10.6554 8.73793 10.6508 8.72914 10.6462C8.73506 10.6424 8.7397 10.6364 8.7397 10.6304C8.7397 10.617 8.7221 10.6065 8.701 10.6065C8.67776 10.6065 8.66196 10.617 8.66196 10.6304C8.66196 10.6311 8.66196 10.6318 8.66303 10.6329C8.65601 10.6329 8.64896 10.6318 8.64436 10.6318C8.61276 10.6318 8.58531 10.6364 8.56875 10.6427C8.56074 10.6424 8.55364 10.641 8.54731 10.6399C8.54838 10.6388 8.55086 10.6361 8.55086 10.6339C8.55086 10.6206 8.52623 10.61 8.49915 10.61C8.4717 10.61 8.44955 10.6195 8.44713 10.6304C8.44181 10.6304 8.43726 10.6294 8.43131 10.629C8.43726 10.6233 8.44181 10.6159 8.44181 10.6079C8.44181 10.5875 8.42139 10.571 8.39571 10.571C8.37283 10.571 8.35463 10.5875 8.35463 10.6079C8.35463 10.615 8.35701 10.6213 8.3616 10.6283H8.32367C8.32185 10.6136 8.30851 10.6015 8.29018 10.6015C8.29615 10.596 8.30079 10.5892 8.30079 10.5801C8.30079 10.5646 8.2867 10.5516 8.26806 10.5516C8.25117 10.5516 8.23539 10.5646 8.23539 10.5801C8.23539 10.596 8.24944 10.6079 8.26564 10.6079C8.25827 10.6136 8.25399 10.6213 8.25399 10.6304V10.6318C8.23539 10.6329 8.21956 10.6343 8.20197 10.6353ZM7.23053 11.1967C7.23053 11.184 7.23053 11.1727 7.23335 11.1614L7.77812 11.1218C7.75775 11.1734 7.74437 11.2308 7.7409 11.2961C7.54987 11.3971 7.38138 11.5325 7.24744 11.6943C7.23792 11.5803 7.22456 11.3433 7.23053 11.1967ZM7.05261 11.4724C7.0501 11.3841 7.0501 11.2842 7.05434 11.1742L7.14788 11.1682C7.14684 11.2354 7.14442 11.4471 7.15845 11.6517C7.16193 11.6985 7.16726 11.7453 7.1725 11.7903C7.14442 11.8308 7.11692 11.8705 7.09404 11.912C7.08073 11.8399 7.05889 11.6908 7.05261 11.4724ZM7.54285 13.8249C7.5464 13.8252 7.54987 13.8252 7.55413 13.8252C7.56465 13.8277 7.57452 13.8288 7.58502 13.8288C7.60513 13.8319 7.62728 13.8337 7.64765 13.8337C7.74437 13.8861 7.84779 13.9293 7.95511 13.9642C7.98177 13.972 8.0082 13.9797 8.03348 13.9871C8.07431 13.9747 8.12074 13.9501 8.1675 13.9044C8.21184 13.8601 8.25117 13.7975 8.28388 13.7043C8.39152 13.3786 8.37283 13.4169 8.50621 13.3339C8.59057 13.2815 8.58812 13.195 8.61098 13.0962C8.64896 13.0955 8.68484 13.0948 8.7221 13.0948C8.70699 13.1436 8.69889 13.1911 8.69889 13.2313C8.69889 13.3529 8.57053 13.3593 8.49562 13.4032C8.41717 13.45 8.44358 13.5186 8.41717 13.6083C8.39152 13.6983 8.31484 13.8193 8.28388 13.8766C8.2786 13.8889 8.26806 13.9016 8.25827 13.9153C8.23006 13.9522 8.19138 13.9937 8.1685 14.018C8.2248 14.0275 8.2821 14.0359 8.33876 14.0405C8.36868 14.0116 8.41189 13.9698 8.45237 13.9255C8.515 13.8611 8.57756 13.7915 8.59767 13.7486C8.64192 13.654 8.64192 13.5893 8.83396 13.4996C9.1459 13.3716 8.99324 13.1806 9.0886 13.0905C9.09315 13.0863 9.09841 13.0824 9.10196 13.0779C9.12375 13.0765 9.1459 13.0754 9.16519 13.073C9.13363 13.1247 9.1459 13.175 9.12484 13.2274C9.09564 13.2995 9.07733 13.4205 9.0137 13.4595C8.94861 13.4985 8.90881 13.5844 8.83988 13.6118C8.77031 13.6371 8.72033 13.6836 8.68839 13.7732C8.67361 13.8193 8.59931 13.8731 8.54309 13.9244C8.49385 13.9698 8.46014 14.0145 8.50266 14.0479C8.51739 14.0479 8.53073 14.0479 8.54383 14.0472C9.17864 14.0285 9.74097 13.6625 9.92421 13.0814C9.93553 13.0494 9.94252 13.0167 9.95062 12.9832C9.77081 13.5136 9.25773 13.8562 8.65246 13.9167C8.67184 13.8897 8.69363 13.8632 8.71223 13.8393C8.77561 13.7486 8.91765 13.649 8.99501 13.5674C9.07386 13.4852 9.11601 13.3863 9.1635 13.322C9.20853 13.2594 9.18283 13.1458 9.27287 13.0642C9.31153 13.0599 9.34777 13.0572 9.38474 13.0529C9.36715 13.1103 9.345 13.1507 9.29116 13.2516C9.36992 13.1764 9.41743 13.1233 9.45015 13.0452C9.48599 13.0396 9.52219 13.0347 9.55565 13.03C9.51626 13.1879 9.46242 13.3353 9.39984 13.4359C9.48776 13.335 9.56089 13.1855 9.61122 13.0202C9.88205 12.977 10.0617 12.9157 10.0958 12.8465V12.8489C9.99987 13.5882 9.339 14.1615 8.53499 14.1615C8.15871 14.1615 7.81328 14.0352 7.54285 13.8249ZM11.873 16.2805C11.7812 16.3069 11.701 16.3406 11.6321 16.3789L11.7433 16.2805H11.873ZM11.7179 16.2302L11.9462 15.9749L11.9469 16.2302H11.7179ZM12.23 16.2088C12.1681 16.2162 12.1083 16.2246 12.051 16.2362L12.0474 15.933L12.23 16.2088ZM13.2619 14.0166V13.5604C13.2292 13.6596 13.1958 13.757 13.1595 13.8527V14.0109L13.0987 14.0074C13.1208 13.9558 13.1395 13.9044 13.1595 13.8527V10.7349L12.6246 10.0075L12.5479 9.90311L12.4642 10.0336L12.2244 10.4018L12.4723 10.3814C12.4723 10.4099 12.4741 10.4387 12.4741 10.4672V10.4792L12.1568 10.507L12.0105 10.732V10.7911L12.4694 10.7517C12.4424 11.6704 12.2827 12.5409 12.0281 13.2984L12.0474 15.8039C12.0334 15.8223 11.9626 15.9013 11.9444 15.9225L11.9275 13.5808C11.8754 13.7134 11.8209 13.8428 11.7636 13.9677L10.8682 11.8825C11.1164 11.5902 11.2966 11.2364 11.3793 10.846L11.9064 10.8006V10.732L12.0474 10.5154L10.4328 10.6512C10.4134 10.833 10.3719 11.0067 10.3139 11.1668C10.29 11.23 10.2643 11.2892 10.2362 11.3468L10.3139 11.5332L10.4434 11.8416C10.5031 11.7721 10.557 11.6964 10.6065 11.6169C10.6241 11.591 10.6406 11.5645 10.6575 11.5368C10.7729 11.3409 10.8611 11.1249 10.9202 10.8938L11.0005 10.8879C10.9367 11.1548 10.8331 11.4041 10.6955 11.6257L10.8267 11.9313L11.7274 14.043C11.7292 14.0405 11.7309 14.0373 11.7327 14.0352L11.7292 14.0433L11.7274 14.043C11.6507 14.2069 11.567 14.3609 11.4798 14.5072L11.4734 14.4935L10.5189 12.2187L10.386 11.9089C10.386 11.9085 10.3871 11.9085 10.3871 11.9085L10.3139 11.7334L10.1894 11.4368C10.1894 11.4368 10.0625 11.4161 9.95062 11.4977C9.86935 11.555 9.82119 11.6296 9.79973 11.6665C9.7533 11.6092 9.69949 11.5564 9.64287 11.5083C9.86158 11.319 10.0227 11.0243 10.0783 10.6811C10.0846 10.6483 10.0888 10.615 10.0934 10.5815C10.098 10.5242 10.1004 10.4672 10.1004 10.4095C10.1004 10.2942 10.0888 10.1848 10.0688 10.0789L10.321 10.0526C10.3199 10.0593 10.3163 10.0659 10.3139 10.0744C10.2882 10.1461 10.2548 10.2878 10.3139 10.4229C10.3322 10.4686 10.3631 10.514 10.4089 10.5552L11.4287 10.4697L12.1153 10.4113L12.4564 9.88548L12.4941 9.82927L12.5965 9.81729L12.659 9.90206L13.2619 10.7331V13.5604C13.2717 13.5316 13.283 13.5021 13.2911 13.4718L13.6825 13.7704L14.0613 13.8671C14.0427 13.9318 14.0226 13.9955 14.0022 14.0584L13.2619 14.0166ZM13.9537 12.2584L14.3961 12.3372C14.376 12.4919 14.3486 12.6442 14.3212 12.7937L13.4982 12.7177C13.5404 12.5327 13.5784 12.3421 13.6093 12.1491L13.9537 12.2584ZM5.89371 14.6961L5.42488 14.7056L5.74914 14.471L5.8944 14.3198L5.89371 14.6961ZM5.12696 11.7372L5.34652 11.6999L5.35597 11.7685L5.12696 11.7372ZM13.9431 5.42204L14.732 5.8339V6.29394L13.9431 5.90214V5.42204ZM13.6452 5.43154V2.10571L14.3142 2.53934V5.55502L13.9431 5.35983L13.6452 5.43154ZM8.77839 3.83623L9.46766 4.18025V6.43145L8.77839 6.59674V3.83623ZM7.84319 6.20638V6.13319H7.84151V5.02569L7.84319 5.02678V4.94655L8.20197 5.11786V6.38013L7.84319 6.20638ZM7.84319 3.60414L8.41717 3.87884L8.20197 3.95616V5.012L7.84319 4.83756V4.76364L7.84151 4.76299V3.68954H7.84319V3.60414ZM8.33876 2.62937L8.57647 2.75403V3.82147L8.53499 3.83552L8.33876 3.73989V2.62937ZM8.63386 3.8011V2.78393L8.86844 2.90563V3.79298L8.77839 3.74797L8.63386 3.8011ZM9.28414 4.00082L8.92644 3.82219V2.93604L9.28414 3.12248V4.00082ZM10.2334 3.83552C10.2643 3.82778 10.29 3.84504 10.29 3.876V3.99378L10.0747 3.8865V3.88304L10.2334 3.83552ZM10.6804 5.09851C10.9114 5.02214 10.9016 4.7855 10.9016 4.7855C10.9016 4.7855 10.9069 3.52393 10.9069 3.41035C10.9069 3.29654 10.8442 3.2475 10.8442 3.2475C10.8442 3.2475 11.1158 3.40189 11.3043 3.50602C11.4956 3.6094 11.4805 3.86158 11.4805 3.86158V5.08513C11.4805 5.29756 11.2111 5.3876 11.2111 5.3876L10.7149 5.53252L10.1409 5.27685C10.1409 5.27685 10.4468 5.1741 10.6804 5.09851ZM10.557 5.52051C10.6804 5.57788 10.6663 5.69639 10.6663 5.69639V6.14553L10.0747 6.28584V5.31653C10.2168 5.37532 10.469 5.48118 10.557 5.52051ZM10.0747 3.94913L10.29 4.05674V4.52701C10.29 4.55689 10.2643 4.58856 10.2334 4.59872L10.0747 4.64548V3.94913ZM12.2553 4.05819L13.0055 5.57397V5.58491L12.2553 5.76354V4.05819ZM13.0055 3.97412L12.3014 2.63377L13.0055 3.05934V3.97412ZM14.5832 10.0389L15.3365 10.2421L15.3295 10.6582L14.5909 10.4841L14.578 10.0371L14.5832 10.0389ZM14.5604 10.9058L14.5083 10.8949C14.5048 11.082 14.4966 11.2666 14.4851 11.4488L13.7124 11.3166C13.7282 11.1263 13.7388 10.9346 13.7423 10.7391L14.5083 10.8949C14.5101 10.8762 14.5101 10.8584 14.5101 10.84L13.7908 10.6762L14.1889 10.6448L14.5101 10.5562L14.5488 10.5453L14.5909 10.5572L15.192 10.7071L14.4791 10.846L14.5231 10.9227L14.5902 10.898L15.3914 10.7127L15.3985 10.1929L14.585 9.9759L14.5797 9.9741C14.5769 9.82539 14.5699 9.67731 14.5628 9.53168L14.8899 9.3857L15.3235 9.1135L15.2669 8.58L14.4298 8.25647L14.4263 8.2578C14.419 8.2272 14.4147 8.19872 14.4102 8.16885L14.6729 7.97821L15.1129 7.48866L14.9152 6.98638L14.0595 6.61363L13.9284 6.66816L14.0057 6.5528L14.8097 6.38537V5.81459L14.3891 5.59441V2.49748V2.49395L13.6452 2L13.0055 2.23056V2.97088L12.2553 2.50014L11.6448 2.71926V5.91095L10.7219 6.13113V5.5874L11.2206 5.4449C11.5238 5.35486 11.5371 5.18362 11.5371 5.08513V3.84256C11.5371 3.56614 11.3704 3.47715 11.3704 3.47715L10.9772 3.2475C10.66 3.05934 10.4521 3.15025 10.4521 3.15025L9.46766 3.50107V4.09225L9.34249 4.02962V3.07268L7.84319 2.29402V2.37191L8.2786 2.59932V3.71213L7.84319 3.50107V2.37191H7.84151V2.29402L7.22989 2.54868V3.71703L7.79745 3.51621V3.62453L7.22989 3.82361V5.02678L7.79745 4.85197V4.95962L7.22989 5.13335V6.36358L7.79745 6.21866V6.32523L7.22989 6.47157V7.65854L7.84151 7.52949V6.39489H7.84319V6.31464L8.20197 6.48704V6.73391L7.98605 6.78525V7.31213L13.9431 5.96965L14.6939 6.32807L13.9431 6.48668L13.3889 6.21866L11.6075 6.61678C11.6578 6.70999 11.7073 6.80669 11.7549 6.90518C11.759 6.91849 11.7654 6.93123 11.7731 6.94351L11.7109 6.95409H11.708C11.7063 6.94812 11.6806 6.89217 11.6648 6.86334L10.7278 9.07908L10.6575 9.06254L10.7957 8.73684L11.3071 7.53153L11.4365 7.22596L11.5037 7.06805L11.536 6.99209L11.6306 6.77573C11.598 6.7149 11.5688 6.66148 11.5501 6.62985L11.2807 6.68571L11.1164 7.07855L11.0866 7.15381L11.0338 7.27977L11.0205 7.31213L10.5323 8.49487L10.3842 8.85329L10.3596 8.91378L10.3298 8.98587L10.2959 8.97879L10.2538 8.96858L10.2959 8.86627C10.0396 8.68124 9.73289 8.56659 9.40407 8.53635C9.37416 8.53319 9.34668 8.53144 9.31785 8.52967L9.09493 7.99757L8.77561 7.24143L8.54028 7.29382L8.72628 7.74086C8.69818 7.70493 8.66196 7.68491 8.61977 7.68491H8.6134L8.60816 7.66909L8.45836 7.31213L7.98605 7.41657V7.60608L8.18086 8.06687C8.15516 8.10451 8.13934 8.14919 8.13934 8.19768C8.13934 8.27933 8.18328 8.35208 8.24873 8.39391V8.87785L7.80103 8.94403C7.79468 8.94501 7.78767 8.9482 7.78065 8.94998L7.64587 9.01931L7.22989 9.08751V9.23137L7.11866 9.28867V9.10646L6.64987 9.18174V9.52678L6.53982 9.58375V9.20043L6.14061 9.2651V9.78701L6.02842 9.84332V9.28412L5.57828 9.35831V10.0744L5.49874 10.1145V9.00169V8.79137V8.15549L5.25996 8.07036L4.95572 8.07808L4.83335 8.55712L5.06788 8.77375L5.46607 8.98587C5.44144 9.14972 5.41964 9.31679 5.39991 9.48632L5.12601 9.45181L4.68459 9.53517L4.63851 9.99874L5.05459 10.2218L5.229 10.2527L4.74613 10.4985C4.71626 10.514 4.70283 10.5474 4.71162 10.5777C4.71974 10.6079 4.75068 10.6283 4.78128 10.6247L5.32787 10.5678C5.32506 10.6283 5.32437 10.6895 5.32324 10.7497L5.48227 10.5572L6.0003 11.2075L5.99507 14.4256C6.03302 14.5164 6.07343 14.605 6.11746 14.6908L5.99327 14.6939L5.99507 14.4256C5.97287 14.3785 5.95279 14.3303 5.9335 14.2825C5.92012 14.2494 5.90671 14.2188 5.8944 14.1868V14.1119L5.8997 11.2364L5.47837 10.6972L5.0662 11.1967L5.06265 11.7885L5.36298 11.8342C5.37816 11.9939 5.39463 12.1508 5.41614 12.3048L5.46893 12.7325L5.5554 13.0754C5.57473 13.1672 5.59657 13.2558 5.62116 13.3449L5.16043 13.3255L5.5554 13.0754C5.49874 12.8275 5.45302 12.5711 5.41614 12.3048L5.06087 12.536L5.05983 13.3926L5.64162 13.4225C5.65667 13.4781 5.67331 13.5319 5.68829 13.5865L5.33664 13.9522L5.15519 14.3233L5.34652 14.7688L5.89371 14.7657L5.89267 15.2795L5.99327 15.0629V15.0622V14.7657L6.15366 14.7643L6.17927 14.7639L6.16415 14.7858L5.99327 15.0622V15.5127C5.95982 15.5022 5.92822 15.4924 5.89267 15.4843V15.2795L5.80724 15.4653C5.70307 15.446 5.58878 15.435 5.46958 15.435C5.31904 15.435 5.17876 15.4512 5.05459 15.4829L5.05983 13.3926L4.99371 13.3895L4.96213 13.3796L4.95501 15.5096C4.74089 15.5803 4.60156 15.6932 4.60156 15.8194C4.60156 16.0329 4.98952 16.2052 5.46958 16.2052C5.82939 16.2052 6.13852 16.1081 6.27004 15.9702L6.82717 15.9492L6.70966 16.2498L6.70367 16.7627L6.94246 16.9842L7.74437 16.9152L7.7409 16.9336L7.77708 17.553L8.0936 17.7094L8.86913 17.6285L8.97573 17.9388L9.34145 18L10.2396 17.9109L10.2513 17.9388L10.2566 17.9531L10.2696 17.9819L10.5932 17.9786L11.1503 17.9012L11.5255 17.7904L11.5804 17.5385L12.3513 17.4563L12.7315 17.171C13.245 17.1253 13.6312 16.9255 13.6312 16.688C13.6312 16.6304 13.6093 16.5744 13.5678 16.5235L13.8411 16.2052L13.7061 15.6327L13.5492 15.3781L14.3532 15.3474L14.5874 14.9426L14.369 14.4207L14.0817 14.0647C14.1011 14.0046 14.1204 13.9435 14.139 13.8836L14.9187 13.91L15.0404 13.4134L14.732 13.0572L14.4025 12.8021C14.4298 12.6544 14.4534 12.5036 14.4763 12.3516L14.7348 12.3984L15.2652 12.3492L15.357 11.8857L14.942 11.6113L14.5674 11.465C14.578 11.2786 14.5874 11.0904 14.5902 10.898L14.5604 10.9058Z" fill="#E6E6E6"/>
<path d="M12.0474 10.5154L12.1568 10.5069L12.2243 10.4018L12.1153 10.4113L12.0474 10.5154Z" fill="#E6E6E6"/>
<path d="M5.06085 12.536L5.06263 11.7885L5.02812 11.7836L4.96735 11.7681L4.96558 12.6129L4.98495 12.5866L5.06085 12.536Z" fill="#E6E6E6"/>
<path d="M5.32333 10.7496L5.24243 10.8499H5.32164C5.32164 10.8157 5.32164 10.7823 5.32333 10.7496Z" fill="#E6E6E6"/>
<path d="M4.73975 12.9041L4.85193 13.3497L4.96203 13.3796L4.96549 12.6129L4.73975 12.9041Z" fill="#E6E6E6"/>
<path d="M5.24228 10.8499H5.21418L4.64648 11.2065L4.65603 11.6908L4.96728 11.7682L4.968 11.1791L5.24228 10.8499Z" fill="#E6E6E6"/>
<path d="M11.9276 13.5808C11.961 13.4884 11.9965 13.3941 12.0282 13.2984L12.0106 10.7911L11.9065 10.8007L11.9276 13.5808Z" fill="#E6E6E6"/>
<path d="M7.11869 2.59454L6.6499 2.78831V3.91956L7.11869 3.75535V2.59454Z" fill="#E6E6E6"/>
<path d="M7.11869 7.78935L6.6499 7.88855V9.07446L7.11869 8.99847V7.78935Z" fill="#E6E6E6"/>
<path d="M7.11869 6.49901L6.6499 6.61965V7.78064L7.11869 7.68279V6.49901Z" fill="#E6E6E6"/>
<path d="M7.11869 3.86272L6.6499 4.0273V5.203L7.11869 5.05915V3.86272Z" fill="#E6E6E6"/>
<path d="M7.11869 5.16707L6.6499 5.31055V6.5116L7.11869 6.3924V5.16707Z" fill="#E6E6E6"/>
<path d="M6.53983 6.64738L6.14062 6.75047V7.88855L6.53983 7.80348V6.64738Z" fill="#E6E6E6"/>
<path d="M6.53983 5.34436L6.14062 5.4674V6.64246L6.53983 6.53979V5.34436Z" fill="#E6E6E6"/>
<path d="M6.53983 7.91142L6.14062 7.99511V9.1582L6.53983 9.09245V7.91142Z" fill="#E6E6E6"/>
<path d="M6.53983 4.06703L6.14062 4.20838V5.35986L6.53983 5.23745V4.06703Z" fill="#E6E6E6"/>
<path d="M6.53983 2.83366L6.14062 3.00038V4.09998L6.53983 3.95965V2.83366Z" fill="#E6E6E6"/>
<path d="M6.02851 6.77829L5.57837 6.89439V8.0061L6.02851 7.91112V6.77829Z" fill="#E6E6E6"/>
<path d="M6.02851 4.24569L5.57837 4.40502V5.53223L6.02851 5.39328V4.24569Z" fill="#E6E6E6"/>
<path d="M6.02851 8.01906L5.57837 8.11365V9.25L6.02851 9.17654V8.01906Z" fill="#E6E6E6"/>
<path d="M6.02851 3.04621L5.57837 3.23316V4.2981L6.02851 4.13771V3.04621Z" fill="#E6E6E6"/>
<path d="M6.02851 5.50114L5.57837 5.63903V6.78625L6.02851 6.67125V5.50114Z" fill="#E6E6E6"/>
<path d="M7.8416 7.63702L7.22998 7.76643V8.97986L7.8416 8.87997V7.63702Z" fill="#E6E6E6"/>
<path d="M8.50857 9.87454L8.4576 9.7856V9.73879C8.4576 9.72616 8.4471 9.71635 8.43367 9.71635C8.42843 9.71635 8.42488 9.71771 8.41962 9.72126L8.32539 9.55599V9.09803L8.41188 9.08503V9.54502C8.41188 9.55732 8.42136 9.56859 8.43367 9.56859C8.4471 9.56859 8.4576 9.55732 8.4576 9.54502V9.07832L8.73268 9.03718V9.36639L8.50857 9.87454ZM8.24872 9.10931V9.42689L8.07776 9.13432L8.24872 9.10931ZM7.96484 9.08012L8.51736 10.03L9.00415 8.92462L7.96484 9.08012Z" fill="#E6E6E6"/>
<path d="M7.84144 10.0924V10.0087L8.05136 10.071L7.84144 10.0924ZM7.11861 9.79734L7.22982 9.82934V10.1571L7.11861 10.1691V9.79734ZM6.53977 9.84268L6.64982 9.78571V10.2183L6.53977 10.2306V9.84268ZM6.02837 10.1033L6.14054 10.047V10.2725L6.02837 10.2855V10.1033ZM5.21069 10.4424L8.41537 10.1026L6.79892 9.6306L5.21069 10.4424Z" fill="#E6E6E6"/>
<path d="M9.23587 8.97253L9.2623 9.03376C9.2623 9.03376 9.39694 9.0277 9.53097 9.03864L9.70647 9.07839C9.70893 9.0921 9.72931 9.20888 9.82185 9.27777L9.66672 9.35587C9.50283 9.21343 9.30375 9.12697 9.08779 9.12342L9.09485 9.10828L9.18562 9.06818C9.18562 9.06818 9.16696 9.00943 9.15573 8.97468L9.21263 8.96551L9.23587 8.97253ZM10.2625 9.13327L9.21549 8.89514L9.10435 8.91025L8.64185 9.96045L10.2625 9.13327Z" fill="#E6E6E6"/>
<path d="M7.11868 9.54644L7.22991 9.48983V9.59289L7.11868 9.56084V9.54644ZM8.2583 9.8939L7.84151 9.77152V9.17888L8.2583 9.8939ZM7.87247 9.0931L7.839 9.09801L6.91089 9.57347L8.40905 10.011L7.87247 9.0931Z" fill="#E6E6E6"/>
<path d="M11.2435 9.42867L12.1498 9.63542L11.345 9.72128C11.3184 9.62033 11.2842 9.52325 11.2435 9.42867ZM10.719 9.31011L10.8098 9.33055C10.8882 9.45992 10.9519 9.60279 10.9958 9.75746L10.9273 9.76454C10.8787 9.59887 10.8074 9.44587 10.719 9.31011ZM9.83596 9.52574L10.1735 9.35341C10.2263 9.44549 10.2742 9.54505 10.3139 9.65018C10.335 9.70686 10.3526 9.76454 10.3674 9.82539L10.0079 9.8623C9.96397 9.73882 9.90658 9.62563 9.83596 9.52574ZM10.3905 9.16208L8.58813 10.0842L12.5796 9.66043L10.3905 9.16208Z" fill="#E6E6E6"/>
<path d="M7.78762 10.3345C7.76478 10.3345 7.74609 10.3493 7.74609 10.3658C7.74609 10.3834 7.76478 10.3975 7.78762 10.3975C7.80977 10.3975 7.82801 10.3834 7.82801 10.3658C7.82801 10.3493 7.80977 10.3345 7.78762 10.3345Z" fill="#E6E6E6"/>
<path d="M10.09 12.5845C10.1103 12.5711 10.1129 12.5461 10.1006 12.5327C10.09 12.5173 10.0654 12.5162 10.0478 12.531C10.0302 12.5443 10.0239 12.569 10.0362 12.5841C10.0478 12.5985 10.0725 12.5992 10.09 12.5845Z" fill="#E6E6E6"/>
<path d="M10.0723 12.6907C10.0747 12.6956 10.0783 12.6981 10.0846 12.7027C10.0783 12.7177 10.0828 12.7364 10.0945 12.7504C10.112 12.7758 10.1461 12.7803 10.1665 12.7628C10.1912 12.7448 10.194 12.7121 10.1753 12.6874C10.1655 12.6787 10.1566 12.6724 10.1461 12.6696C10.1461 12.6583 10.1437 12.6488 10.1366 12.6393C10.1226 12.6214 10.0958 12.6175 10.0783 12.6312C10.06 12.646 10.0571 12.6724 10.0723 12.6907Z" fill="#E6E6E6"/>
<path d="M7.90859 11.2571C7.87763 11.2712 7.86707 11.3109 7.88112 11.3464C7.89767 11.3813 7.93564 11.4003 7.96481 11.3862C7.99472 11.3721 8.00637 11.3324 7.98948 11.2965C7.97435 11.2613 7.93742 11.2437 7.90859 11.2571Z" fill="#E6E6E6"/>
<path d="M8.01426 11.3897C7.99775 11.4021 7.99666 11.4302 8.01248 11.4502C8.02939 11.4702 8.05574 11.477 8.07334 11.4628C8.09025 11.4502 8.09093 11.4224 8.07442 11.4021C8.05856 11.3813 8.0329 11.3756 8.01426 11.3897Z" fill="#E6E6E6"/>
<path d="M8.04061 11.5333C8.02059 11.5484 8.02583 11.5864 8.05049 11.617C8.07512 11.6497 8.10957 11.6631 8.12989 11.6483C8.14931 11.6332 8.14476 11.5952 8.12011 11.5625C8.09549 11.5312 8.05925 11.5185 8.04061 11.5333Z" fill="#E6E6E6"/>
<path d="M8.57297 11.8154C8.58702 11.8058 8.58702 11.7837 8.57406 11.7668C8.5607 11.7506 8.54023 11.7468 8.52621 11.7556C8.5132 11.7668 8.5132 11.7876 8.52545 11.8044C8.54023 11.8203 8.55961 11.8252 8.57297 11.8154Z" fill="#E6E6E6"/>
<path d="M8.77377 11.8234C8.78542 11.8128 8.78542 11.7946 8.77559 11.7801C8.76328 11.7661 8.74494 11.7626 8.73267 11.7721C8.72211 11.7805 8.72211 11.8006 8.73161 11.815C8.74217 11.8283 8.76077 11.8308 8.77377 11.8234Z" fill="#E6E6E6"/>
<path d="M9.2859 12.0773C9.29569 12.0699 9.29462 12.0523 9.28413 12.039C9.27285 12.0246 9.25594 12.02 9.24547 12.026C9.23592 12.0341 9.23839 12.052 9.24893 12.0665C9.25951 12.0809 9.2764 12.0854 9.2859 12.0773Z" fill="#E6E6E6"/>
<path d="M9.66445 12.2066C9.6722 12.2017 9.67327 12.1907 9.66619 12.1826C9.65984 12.1741 9.64921 12.173 9.64291 12.178C9.63583 12.184 9.63342 12.1957 9.64044 12.2031C9.64643 12.2106 9.65705 12.2137 9.66445 12.2066Z" fill="#E6E6E6"/>
<path d="M9.51069 12.264C9.53566 12.2387 9.5276 12.1934 9.49595 12.1635C9.46426 12.1325 9.4175 12.129 9.39462 12.1529C9.37176 12.1793 9.37702 12.2236 9.4094 12.2538C9.44211 12.2838 9.48785 12.289 9.51069 12.264Z" fill="#E6E6E6"/>
<path d="M8.47237 10.5544C8.48641 10.5544 8.49911 10.5453 8.49911 10.5347C8.49911 10.5228 8.48641 10.514 8.47237 10.514C8.45832 10.514 8.44531 10.5228 8.44531 10.5347C8.44531 10.5453 8.45832 10.5544 8.47237 10.5544Z" fill="#E6E6E6"/>
<path d="M7.91999 10.5729C7.90945 10.5729 7.90063 10.5811 7.90063 10.5885C7.90063 10.5977 7.90945 10.6044 7.91999 10.6044C7.93061 10.6044 7.94048 10.5977 7.94048 10.5885C7.94048 10.5811 7.93061 10.5729 7.91999 10.5729Z" fill="#E6E6E6"/>
<path d="M8.71754 10.5404C8.72986 10.5404 8.74155 10.5323 8.74155 10.5213C8.74155 10.5107 8.72986 10.5033 8.71754 10.5033C8.70514 10.5033 8.69458 10.5107 8.69458 10.5213C8.69458 10.5323 8.70514 10.5404 8.71754 10.5404Z" fill="#E6E6E6"/>
<path d="M9.02175 10.8046C9.03926 10.8046 9.05335 10.7943 9.05335 10.7803C9.05335 10.7679 9.03926 10.7564 9.02175 10.7564C9.0041 10.7564 8.98901 10.7679 8.98901 10.7803C8.98901 10.7943 9.0041 10.8046 9.02175 10.8046Z" fill="#E6E6E6"/>
<path d="M8.90523 10.7479C8.90241 10.7468 8.90072 10.7461 8.89895 10.7461C8.88485 10.7461 8.87427 10.7552 8.87427 10.7679C8.87427 10.7799 8.88485 10.7876 8.89895 10.7876C8.90942 10.7876 8.91932 10.7802 8.92105 10.7714C8.92988 10.7693 8.93621 10.7644 8.93621 10.7563C8.93621 10.7489 8.9288 10.7419 8.91932 10.7419C8.91299 10.7419 8.90869 10.744 8.90523 10.7479Z" fill="#E6E6E6"/>
<path d="M8.8825 10.6616C8.89655 10.6616 8.90955 10.6529 8.90955 10.6424C8.90955 10.6304 8.89655 10.622 8.8825 10.622C8.86668 10.622 8.85571 10.6304 8.85571 10.6424C8.85571 10.6529 8.86668 10.6616 8.8825 10.6616Z" fill="#E6E6E6"/>
<path d="M8.59921 10.5875C8.60207 10.596 8.60984 10.6016 8.6214 10.6016C8.63376 10.6016 8.64424 10.5942 8.64424 10.583C8.64424 10.5777 8.64078 10.571 8.63376 10.5678V10.5647C8.63376 10.5517 8.6204 10.5411 8.60458 10.5411C8.58802 10.5411 8.57397 10.5517 8.57397 10.5647C8.57397 10.5763 8.5852 10.5851 8.59921 10.5875Z" fill="#E6E6E6"/>
<path d="M8.29206 10.5044C8.30438 10.5044 8.3157 10.4948 8.3157 10.4825C8.3157 10.4719 8.30438 10.4624 8.29206 10.4624C8.27861 10.4624 8.26562 10.4719 8.26562 10.4825C8.26562 10.4948 8.27861 10.5044 8.29206 10.5044Z" fill="#E6E6E6"/>
<path d="M6.92323 13.2168C6.93554 13.2168 6.94433 13.201 6.94433 13.1805C6.94433 13.1594 6.93554 13.1436 6.92323 13.1436C6.91162 13.1436 6.90112 13.1594 6.90112 13.1805C6.90112 13.201 6.91162 13.2168 6.92323 13.2168Z" fill="#E6E6E6"/>
<path d="M7.08083 13.5464C7.09879 13.5464 7.11179 13.5305 7.11179 13.5102C7.11179 13.4901 7.09879 13.4743 7.08083 13.4743C7.06496 13.4743 7.052 13.4901 7.052 13.5102C7.052 13.5305 7.06496 13.5464 7.08083 13.5464Z" fill="#E6E6E6"/>
<path d="M7.16468 13.5464C7.17347 13.5464 7.18119 13.5341 7.18119 13.52C7.18119 13.5041 7.17347 13.4922 7.16468 13.4922C7.15481 13.4922 7.14673 13.5041 7.14673 13.52C7.14673 13.5341 7.15481 13.5464 7.16468 13.5464Z" fill="#E6E6E6"/>
<path d="M8.43366 10.8556C8.42134 10.8556 8.41187 10.8661 8.41187 10.8799V10.9203C8.41187 10.9337 8.42134 10.9435 8.43366 10.9435C8.44709 10.9435 8.45758 10.9337 8.45758 10.9203V10.8799C8.45758 10.8661 8.44709 10.8556 8.43366 10.8556Z" fill="#E6E6E6"/>
<path d="M8.43366 10.9683C8.42134 10.9683 8.41187 10.9782 8.41187 10.9912V11.0112C8.41187 11.0243 8.42134 11.0348 8.43366 11.0348C8.44709 11.0348 8.45758 11.0243 8.45758 11.0112V10.9912C8.45758 10.9782 8.44709 10.9683 8.43366 10.9683Z" fill="#E6E6E6"/>
<path d="M8.43366 11.062C8.42134 11.062 8.41187 11.0736 8.41187 11.0866V11.1073C8.41187 11.12 8.42134 11.1299 8.43366 11.1299C8.44709 11.1299 8.45758 11.12 8.45758 11.1073V11.0866C8.45758 11.0736 8.44709 11.062 8.43366 11.062Z" fill="#E6E6E6"/>
<path d="M8.43366 8.63098C8.44709 8.63098 8.45758 8.6204 8.45758 8.60814V8.465C8.45758 8.45271 8.44709 8.44143 8.43366 8.44143C8.42134 8.44143 8.41187 8.45271 8.41187 8.465V8.60814C8.41187 8.6204 8.42134 8.63098 8.43366 8.63098Z" fill="#E6E6E6"/>
</svg>
