<svg width="20" height="20" viewBox="0 0 20 20" fill="none" xmlns="http://www.w3.org/2000/svg">
<path d="M3.0892 3.65112H3.4792V5.61112C3.4792 5.81912 3.4096 5.99232 3.2704 6.13072C3.1312 6.26912 2.954 6.33832 2.74 6.33832C2.5552 6.33832 2.3928 6.28432 2.2536 6.17632C2.114 6.06832 2.0296 5.93032 2 5.76152H2.402C2.4636 5.91152 2.5708 5.98672 2.7236 5.98672C2.8308 5.98672 2.9184 5.94872 2.9868 5.87232C3.0552 5.79592 3.0892 5.69712 3.0892 5.57592V3.65112Z" fill="#E6E6E6"/>
<path d="M5.31989 3.65112H5.70989V5.48072C5.70989 5.71792 5.62829 5.91552 5.46469 6.07352C5.27989 6.24992 5.05989 6.33832 4.80549 6.33832C4.55109 6.33832 4.34189 6.25592 4.17029 6.09152C3.99869 5.92672 3.91309 5.72352 3.91309 5.48112V3.65112H4.30309V5.42952C4.30309 5.60072 4.34869 5.73632 4.43989 5.83672C4.53109 5.93672 4.65549 5.98672 4.81389 5.98672C5.02549 5.98672 5.17709 5.90112 5.26789 5.72992C5.30269 5.66672 5.32029 5.56672 5.32029 5.42952V3.65112H5.31989Z" fill="#E6E6E6"/>
<path d="M8.29129 3.65112V6.28672H7.88529L6.55089 4.25152V6.28672H6.16089V3.65112H6.58689L7.89729 5.65872V3.65112H8.29129Z" fill="#E6E6E6"/>
<path d="M9.54046 3.65112H9.93046V5.61112C9.93046 5.81912 9.86086 5.99232 9.72166 6.13072C9.58246 6.26912 9.40526 6.33832 9.19126 6.33832C9.00646 6.33832 8.84406 6.28432 8.70486 6.17632C8.56566 6.06832 8.48126 5.92992 8.45166 5.76152H8.85366C8.91526 5.91152 9.02246 5.98672 9.17526 5.98672C9.28246 5.98672 9.37006 5.94872 9.43846 5.87232C9.50686 5.79592 9.54086 5.69712 9.54086 5.57592V3.65112H9.54046Z" fill="#E6E6E6"/>
<path d="M10.7723 3.65112V6.28672H10.3823V3.65112H10.7723Z" fill="#E6E6E6"/>
<path d="M12.6256 3.65112V6.28672H12.2356V3.65112H12.6256Z" fill="#E6E6E6"/>
<path d="M13.7136 4.00712V6.28712H13.3196V4.00712H12.8052V3.65112H14.224V4.00672H13.7136V4.00712Z" fill="#E6E6E6"/>
<path d="M15.5708 3.59998C15.9592 3.59998 16.2888 3.73318 16.5596 3.99918C16.8304 4.26518 16.9656 4.58918 16.9656 4.97118C16.9656 5.35318 16.8296 5.66998 16.5576 5.93718C16.2856 6.20478 15.9568 6.33838 15.5708 6.33838C15.1848 6.33838 14.856 6.20478 14.584 5.93718C14.312 5.66998 14.176 5.34758 14.176 4.97118C14.176 4.59478 14.3112 4.26518 14.582 3.99918C14.8528 3.73318 15.1824 3.59998 15.5708 3.59998ZM15.5708 5.98678C15.8548 5.98678 16.0928 5.88918 16.2844 5.69438C16.476 5.49958 16.5716 5.25718 16.5716 4.96718C16.5716 4.67718 16.4752 4.44238 16.282 4.24598C16.0892 4.04958 15.852 3.95158 15.5704 3.95158C15.2888 3.95158 15.052 4.04958 14.8588 4.24598C14.666 4.44238 14.5692 4.68278 14.5692 4.96718C14.5692 5.25158 14.6656 5.49598 14.8588 5.69238C15.0516 5.88878 15.2888 5.98678 15.5704 5.98678H15.5708Z" fill="#E6E6E6"/>
<path d="M4.5124 14.499V15.1126H2V10.515H4.5124V11.1354H2.6772V12.4862H4.5128V13.0998H2.6772V14.499H4.5128H4.5124Z" fill="#E6E6E6"/>
<path d="M8.63798 15.1126H7.83518L6.67678 13.3618L5.51118 15.1126H4.71558L6.25798 12.8106L4.71558 10.5154H5.52518L6.67678 12.2594L7.84238 10.5154H8.65198L7.09558 12.8106L8.63798 15.1126Z" fill="#E6E6E6"/>
<path d="M10.2767 13.2998H9.60673V15.1126H8.92993V10.515H10.5491C10.9491 10.515 11.2771 10.6438 11.5331 10.901C11.7891 11.1582 11.9171 11.487 11.9171 11.8866C11.9171 12.2862 11.7959 12.5874 11.5543 12.8446C11.3959 13.0146 11.2215 13.133 11.0307 13.1994C10.8399 13.2662 10.5887 13.2994 10.2771 13.2994L10.2767 13.2998ZM9.60673 11.1354V12.6862H10.3047C10.5931 12.6862 10.8199 12.615 10.9851 12.4726C11.1503 12.3302 11.2327 12.135 11.2327 11.8866C11.2327 11.3858 10.9211 11.1354 10.2975 11.1354H9.60673Z" fill="#E6E6E6"/>
<path d="M14.544 10.4254C15.2184 10.4254 15.7908 10.6574 16.2608 11.1214C16.7308 11.5854 16.9656 12.151 16.9656 12.817C16.9656 13.483 16.7292 14.0358 16.2572 14.5022C15.7848 14.9686 15.2136 15.2018 14.5436 15.2018C13.8736 15.2018 13.3024 14.9686 12.83 14.5022C12.3576 14.0358 12.1216 13.4742 12.1216 12.817C12.1216 12.1598 12.3564 11.5854 12.8264 11.1214C13.2964 10.6574 13.8688 10.4254 14.5432 10.4254H14.544ZM14.544 14.5886C15.0372 14.5886 15.45 14.4186 15.7828 14.0786C16.1152 13.7386 16.282 13.3158 16.282 12.8102C16.282 12.3046 16.1144 11.8946 15.7796 11.5522C15.4448 11.2098 15.0328 11.0386 14.5444 11.0386C14.056 11.0386 13.644 11.2098 13.3092 11.5522C12.9744 11.8946 12.8068 12.3138 12.8068 12.8102C12.8068 13.3066 12.9744 13.7326 13.3092 14.075C13.6444 14.4174 14.056 14.5886 14.5444 14.5886H14.544Z" fill="#E6E6E6"/>
<path d="M2.5388 8.00035C2.4084 8.21395 2.264 8.40395 2.12 8.56635C2.096 8.51195 2.0376 8.40715 2 8.35275C2.3296 8.00035 2.6592 7.41355 2.858 6.82715L3.1328 6.91875C3.1192 6.94235 3.0952 6.95275 3.054 6.94915C2.9648 7.18635 2.8584 7.42395 2.738 7.65075L2.8308 7.67435C2.824 7.69475 2.8068 7.71155 2.762 7.71515V9.96275H2.5388V7.99995V8.00035ZM5.3056 7.85475V8.06835H5.024V9.08195H4.8008V8.88515H4.0764C3.9836 9.29195 3.7468 9.68875 3.1736 9.95995C3.1428 9.90915 3.0708 9.82755 3.0192 9.78355C3.5376 9.55995 3.7536 9.22755 3.8432 8.88515H3.1328V8.67155H3.8844C3.9048 8.52595 3.9084 8.38355 3.9084 8.24795V8.06835H2.93V7.85475H3.9084V7.25795H3.184V7.04115H5.024V7.85475H5.3056ZM4.8012 8.67195V8.06835H4.1352V8.24795C4.1352 8.38355 4.1316 8.52595 4.1148 8.67155H4.8012V8.67195ZM4.1352 7.25835V7.85515H4.8012V7.25835H4.1352Z" fill="#E6E6E6"/>
<path d="M6.56871 7.56996V9.70916C6.56871 9.93636 6.46591 9.94636 6.09511 9.94636C6.08471 9.89556 6.05751 9.81076 6.02631 9.75996C6.09511 9.75996 6.15671 9.76316 6.20831 9.76316C6.34911 9.76316 6.36631 9.76316 6.36631 9.70876V8.98676H5.90271C5.87511 9.32596 5.80311 9.68516 5.64871 9.95956C5.61431 9.92556 5.52511 9.87156 5.48071 9.85116C5.70391 9.45116 5.72431 8.89836 5.72431 8.49156V7.56956H6.56871V7.56996ZM8.66271 8.54636H8.24031C8.37751 8.69876 8.54231 8.82076 8.73471 8.89196C8.68991 8.92916 8.63191 9.00036 8.60431 9.05476C8.52551 9.02076 8.44991 8.98036 8.38111 8.92916C8.37071 8.94276 8.34671 8.94956 8.31591 8.94956C8.24391 9.03756 8.12711 9.16316 8.03111 9.25116C8.03111 9.25116 7.89711 9.16636 7.89391 9.16636C7.98671 9.07156 8.11351 8.91556 8.17871 8.81036L8.37111 8.92556V8.92236C8.23031 8.82396 8.10671 8.69516 8.00391 8.54596H7.32071C7.24871 8.65116 7.16951 8.74956 7.07711 8.83396C7.18351 8.93236 7.28991 9.07476 7.33111 9.17636L7.16991 9.26436C7.13231 9.17276 7.04271 9.04396 6.95031 8.94236C6.87471 8.99996 6.79591 9.05076 6.70991 9.09476C6.67911 9.05076 6.62071 8.98276 6.57951 8.94916C6.78191 8.85076 6.94671 8.71516 7.08071 8.54556H6.66191V8.37276H7.20071C7.25231 8.28476 7.30031 8.18956 7.33791 8.08796H6.76471V7.91836H7.03231C7.00471 7.81996 6.93951 7.68116 6.86751 7.57916L7.03911 7.52476C7.11471 7.62996 7.19031 7.77556 7.21431 7.87396L7.09431 7.91796H7.39631C7.43751 7.78556 7.46831 7.63996 7.49231 7.48756L7.56431 7.49756V7.27396H6.62391V7.51796H6.39391V7.27396H5.56311V7.08076H6.39391V6.79956L6.69271 6.81996C6.68911 6.84356 6.66871 6.86076 6.62391 6.86756V7.08116H7.56431V6.79996L7.85951 6.82036C7.85591 6.84396 7.83911 6.86116 7.79431 6.86796V7.08156H8.64551V7.27476H7.79431V7.51556H7.68111V7.51876L7.75311 7.52556C7.74631 7.54916 7.72551 7.56276 7.68431 7.56636C7.66351 7.68836 7.63631 7.80716 7.60551 7.91876H8.03471C8.00711 7.90876 7.98311 7.89516 7.96591 7.89156C8.03471 7.78316 8.12031 7.62036 8.16511 7.51196L8.39511 7.59996C8.38471 7.61676 8.36431 7.62716 8.32991 7.62716C8.28511 7.71196 8.21311 7.82396 8.14791 7.91876H8.56311V8.08836H7.96231C8.00351 8.18996 8.05151 8.28516 8.10991 8.37316H8.66271V8.54596V8.54636ZM5.92351 8.49196C5.92351 8.58676 5.91991 8.69196 5.91671 8.80036H6.36631V8.36316H5.92351V8.49196ZM6.36631 7.75956H5.92351V8.17636H6.36631V7.75956ZM6.66151 9.62396C6.86071 9.54956 7.14191 9.42396 7.43031 9.30196L7.46791 9.46116L6.80871 9.76956C6.80871 9.79316 6.79511 9.81356 6.77431 9.82396L6.66111 9.62396H6.66151ZM7.72551 9.39676L7.84911 9.27476C8.10671 9.38996 8.43951 9.56956 8.61471 9.69196L8.48431 9.83076C8.31631 9.70876 7.98991 9.52236 7.72551 9.40036V9.75276C7.72551 9.92236 7.66711 9.95636 7.30671 9.94956C7.29631 9.90196 7.27231 9.83436 7.24511 9.78676C7.35831 9.78996 7.45111 9.78996 7.48551 9.78996C7.51631 9.78996 7.52311 9.77996 7.52311 9.74916V8.66436L7.78751 8.68116C7.78391 8.70156 7.76711 8.71836 7.72591 8.72516V9.39636L7.72551 9.39676ZM7.55031 8.08836C7.51271 8.18996 7.47151 8.28516 7.42311 8.37316H7.89671C7.85191 8.28156 7.81071 8.18676 7.77671 8.08836H7.55031Z" fill="#E6E6E6"/>
<path d="M9.78833 7.76319C9.99433 7.84119 10.2447 7.97679 10.3683 8.08519L10.2379 8.27159C10.1143 8.16319 9.86713 8.01719 9.66113 7.92919L9.78833 7.76319ZM9.72313 9.78359C9.86713 9.51919 10.0699 9.06839 10.2139 8.68519L10.3991 8.80719C10.2651 9.16319 10.0867 9.58359 9.95633 9.83799C9.96993 9.85839 9.97713 9.87519 9.97713 9.89239C9.97713 9.90239 9.97353 9.91599 9.96673 9.92639L9.72313 9.78399V9.78359ZM10.3547 7.37679C10.2415 7.26159 10.0047 7.10239 9.80553 7.00399L9.93953 6.84119C10.1351 6.93279 10.3755 7.08199 10.4923 7.19359L10.3551 7.37679H10.3547ZM11.4839 8.08879H10.7631V9.95319H10.5503V6.94959H11.4839V8.08879ZM11.2847 7.13279H10.7631V7.42759H11.2847V7.13279ZM10.7631 7.90559H11.2847V7.60039H10.7631V7.90559ZM12.3043 9.36319V9.54639H10.9691V9.36319H11.5183V9.03759H11.1235V8.85799H11.5183V8.56319H11.0343V8.38359H12.2323V8.56319H11.7139V8.85799H12.1291V9.03759H11.7139V9.36319H12.3043ZM12.7163 6.94959V9.67519C12.7163 9.94959 12.5687 9.95319 12.1051 9.95319C12.0947 9.89879 12.0675 9.80079 12.0363 9.73959C12.1291 9.74279 12.2147 9.74279 12.2835 9.74279H12.4347C12.4827 9.74279 12.4999 9.72599 12.4999 9.67479V8.08839H11.7483V6.94919H12.7163V6.94959ZM12.4999 7.13279H11.9507V7.42759H12.4999V7.13279ZM11.9507 7.90559H12.4999V7.60039H11.9507V7.90559Z" fill="#E6E6E6"/>
<path d="M13.8796 9.33271H16.9656V9.56991H13.8796V9.33271ZM14.1748 7.29871H16.6704V7.53591H14.1748V7.29871Z" fill="#E6E6E6"/>
<path d="M18 16.4H2V16.2044H17.802V3.59998H18V16.4Z" fill="#E6E6E6"/>
</svg>
