<svg width="20" height="20" viewBox="0 0 20 20" fill="none" xmlns="http://www.w3.org/2000/svg">
<path d="M7.7671 10.1194C7.78048 10.1194 7.81477 10.1219 7.86495 10.1219C8.2463 10.1219 9.55259 10.0265 9.70396 8.73447C9.81268 7.80869 9.06921 6.98243 8.33662 6.24649C8.95715 5.49968 9.23062 4.85992 9.15033 4.34392C9.09681 4.00021 8.89024 3.71503 8.53565 3.49676C8.16434 3.26845 7.70772 3.18064 7.24943 3.25172C5.57768 3.50846 4.31738 4.97616 4.31738 6.66548C4.31738 8.56889 5.86453 10.1177 7.7671 10.1194ZM8.15849 6.06753C8.15263 6.06167 8.14678 6.05582 8.14092 6.04997C7.85073 5.76061 7.57308 5.48379 7.35815 5.21702L8.39599 5.75893C8.32407 5.85929 8.24546 5.96132 8.15849 6.06669V6.06753ZM7.79888 3.49425C8.01632 3.52519 8.22288 3.59711 8.40436 3.70918C8.69706 3.88982 8.86014 4.10976 8.90279 4.38156C8.90781 4.41501 8.91031 4.4493 8.91199 4.48442L6.98015 3.90654C7.11395 3.6774 7.41418 3.52435 7.79804 3.49425H7.79888ZM6.94168 3.98181L8.91199 4.5714C8.89861 4.88919 8.74306 5.26385 8.44533 5.69036L7.2394 5.06063C7.22016 5.03387 7.20093 5.00794 7.18337 4.98202C6.92077 4.58645 6.83798 4.2419 6.94084 3.98181H6.94168Z" fill="#E6E6E6"/>
<path d="M11.5805 6.66803C10.9809 7.23754 10.0751 8.09893 10.1303 8.88337C10.1939 9.79577 11.1607 10.091 11.6624 10.1194L11.6666 10.0442L11.6691 10.1194C13.5734 10.1194 15.123 8.56976 15.123 6.66552C15.123 4.92519 13.8192 3.45164 12.0906 3.23754C11.6992 3.18904 11.3212 3.28689 11.026 3.51269C10.7709 3.70754 10.643 3.95258 10.6564 4.22103C10.6873 4.86665 11.2602 5.48969 12.0153 6.2273C11.9317 6.33351 11.7544 6.50244 11.5796 6.66803H11.5805ZM11.6683 9.86769C11.5888 9.86184 11.0578 9.8125 10.7024 9.50725L13.4479 8.76713C13.3718 9.31657 13.0281 9.76566 11.6683 9.86769ZM13.4672 8.36989C13.4688 8.47443 13.4672 8.57813 13.458 8.67848L10.6321 9.44035C10.4966 9.29985 10.398 9.11335 10.3812 8.86581C10.3729 8.74371 10.3946 8.61659 10.4398 8.48697L13.2154 7.58293C13.3718 7.84386 13.4646 8.10227 13.468 8.36989H13.4672ZM13.1686 7.50934L10.4782 8.38578C10.6079 8.08471 10.8496 7.77445 11.113 7.4876L12.5539 6.76253C12.7998 7.01927 13.0114 7.26514 13.1686 7.5085V7.50934ZM12.1968 6.40292C12.2997 6.50411 12.3992 6.6028 12.4937 6.69981L11.2836 7.30863C11.4458 7.14221 11.6097 6.98666 11.7544 6.8495C11.9643 6.64963 12.1082 6.51164 12.1977 6.40292H12.1968Z" fill="#E6E6E6"/>
<path d="M5.18963 11.4174L4.15262 14.0082L3.24859 12.7287L4.12252 11.4174H3.41752L2.66904 12.6024V11.4174H2V14.0442H2.66904V12.9101L3.38992 14.0442H4.85846L4.99645 13.662H5.90968L6.03596 14.0442H6.76437L5.72068 11.4174H5.18879H5.18963ZM5.1821 13.1301L5.45808 12.2319L5.72988 13.1301H5.18294H5.1821Z" fill="#E6E6E6"/>
<path d="M8.06826 12.5355L7.74545 12.39C7.59575 12.3214 7.52132 12.2353 7.52132 12.1299C7.52132 12.0747 7.5439 12.0279 7.5899 11.9877C7.6359 11.9484 7.69026 11.9283 7.75298 11.9283C7.88929 11.9283 7.96958 12.012 7.993 12.1801H8.65869C8.65116 12.0513 8.63527 11.9526 8.61102 11.8824C8.5876 11.8129 8.54411 11.7402 8.48139 11.6641C8.3158 11.465 8.07997 11.3647 7.77221 11.3647C7.51463 11.3647 7.2972 11.4391 7.11823 11.5888C6.93926 11.7385 6.85062 11.9225 6.85062 12.1399C6.85062 12.3574 6.93843 12.5414 7.11572 12.6835C7.20019 12.7521 7.30556 12.8131 7.43184 12.8683L7.73625 12.9946C7.92358 13.0707 8.01641 13.1652 8.01641 13.2781C8.01641 13.3492 7.99132 13.4086 7.94114 13.4571C7.89097 13.5056 7.82908 13.5299 7.75465 13.5299C7.67018 13.5299 7.60328 13.4981 7.55394 13.4337C7.5046 13.3693 7.48035 13.2831 7.48035 13.1761H6.80713V13.2631C6.80713 13.5181 6.89243 13.7197 7.06304 13.8694C7.23364 14.0191 7.46613 14.0935 7.75967 14.0935C8.05321 14.0935 8.27399 14.0224 8.43539 13.8811C8.5968 13.7398 8.67792 13.5424 8.67792 13.2907C8.67792 13.1176 8.63109 12.9729 8.53826 12.8575C8.44459 12.7421 8.28821 12.6342 8.06743 12.5347L8.06826 12.5355Z" fill="#E6E6E6"/>
<path d="M10.5335 12.4017H9.67549V11.4174H9.00562V14.0442H9.67549V12.9963H10.5335V14.0442H11.2034V11.4174H10.5335V12.4017Z" fill="#E6E6E6"/>
<path d="M13.822 12.0713L13.7986 14.0442H14.4166V11.4174H13.5502L13.0308 13.146L12.5107 11.4174H11.6484V14.0442H12.2623L12.243 12.0713L12.8101 14.0442H13.255L13.822 12.0713Z" fill="#E6E6E6"/>
<path d="M15.5345 11.4174H14.8655V14.0442H15.5345V11.4174Z" fill="#E6E6E6"/>
<path d="M18.0001 14.0442L17.2876 13.1502C17.4875 13.1159 17.6464 13.0247 17.7643 12.8767C17.8822 12.7287 17.9416 12.5455 17.9416 12.3272C17.9416 12.0253 17.8337 11.7853 17.6188 11.6064C17.5318 11.5328 17.4314 11.4826 17.3177 11.4567C17.2031 11.4307 17.035 11.4174 16.8117 11.4174H15.9805V14.0442H16.6219V13.1936L17.2324 14.0442H18.0001ZM16.8577 12.737H16.6211V12.0128H16.8653C17.1513 12.0128 17.2943 12.1316 17.2943 12.3691C17.2943 12.6066 17.1488 12.737 16.8569 12.737H16.8577Z" fill="#E6E6E6"/>
<path d="M2.7694 15.2902C2.65483 15.2902 2.55698 15.3312 2.47586 15.414C2.39474 15.496 2.35376 15.5955 2.35376 15.7117C2.35376 15.828 2.39474 15.9275 2.47586 16.0094C2.55698 16.0914 2.65483 16.1332 2.7694 16.1332C2.88397 16.1332 2.97847 16.0922 3.05959 16.0094C3.14071 15.9266 3.18169 15.828 3.18169 15.7117C3.18169 15.5955 3.14071 15.496 3.05959 15.414C2.97847 15.332 2.88146 15.2902 2.7694 15.2902Z" fill="#E6E6E6"/>
<path d="M5.17617 14.7274L4.41431 16.7354H4.72457L4.94703 16.1424H5.66959L5.89204 16.7354H6.20231L5.44044 14.7274H5.17534H5.17617ZM5.0524 15.8748L5.31165 15.1104L5.56756 15.8748H5.0524Z" fill="#E6E6E6"/>
<path d="M8.03713 16.0822C8.03713 16.1868 8.02375 16.2629 7.99782 16.3114C7.92925 16.4418 7.81635 16.5071 7.65745 16.5071C7.5387 16.5071 7.44587 16.4686 7.37729 16.3925C7.30872 16.3164 7.27527 16.2127 7.27527 16.0822V14.7274H6.9834V16.1215C6.9834 16.3063 7.04779 16.4611 7.17575 16.5865C7.30454 16.7119 7.4626 16.7747 7.6516 16.7747C7.8406 16.7747 8.00702 16.7078 8.14501 16.5731C8.26711 16.4527 8.329 16.3022 8.329 16.1215V14.7274H8.03713V16.0822Z" fill="#E6E6E6"/>
<path d="M10.0644 14.7274H9.35352V16.7354H9.97656C10.3337 16.7354 10.6004 16.6384 10.7777 16.4435C10.9467 16.2587 11.0303 16.0253 11.0303 15.7418C11.0303 15.445 10.9333 15.1957 10.7384 14.995C10.5661 14.8161 10.3412 14.7274 10.0644 14.7274ZM10.4951 16.2988C10.3562 16.4109 10.153 16.4677 9.88373 16.4677H9.64622V14.9984H10.0075C10.2199 14.9984 10.393 15.0653 10.5252 15.1999C10.6673 15.3463 10.7393 15.5269 10.7393 15.7418C10.7393 15.981 10.6581 16.1667 10.4951 16.2988Z" fill="#E6E6E6"/>
<path d="M12.2665 14.7274H11.9746V16.7354H12.2665V14.7274Z" fill="#E6E6E6"/>
<path d="M14.2544 14.688C13.9633 14.688 13.7166 14.7892 13.5134 14.9925C13.311 15.1948 13.209 15.4424 13.209 15.7334C13.209 16.0244 13.311 16.2661 13.5142 16.4694C13.7183 16.6734 13.9642 16.7746 14.2535 16.7746C14.5429 16.7746 14.7887 16.6726 14.9928 16.4694C15.1969 16.2661 15.298 16.0203 15.298 15.7334C15.298 15.4466 15.1969 15.1957 14.9936 14.9925C14.7913 14.7901 14.5437 14.688 14.2527 14.688H14.2544ZM14.7887 16.2837C14.6449 16.4326 14.4668 16.5062 14.2544 16.5062C14.0419 16.5062 13.8663 16.4317 13.7216 16.282C13.577 16.1323 13.505 15.9483 13.505 15.7292C13.505 15.5101 13.577 15.3295 13.7216 15.1798C13.8663 15.0301 14.0436 14.9557 14.2544 14.9557C14.4651 14.9557 14.6424 15.0301 14.7871 15.1798C14.9318 15.3295 15.0037 15.5126 15.0037 15.7292C15.0037 15.9458 14.9318 16.1348 14.7887 16.2829V16.2837Z" fill="#E6E6E6"/>
<path d="M17.0465 15.2902C16.9319 15.2902 16.8341 15.3312 16.753 15.414C16.6718 15.496 16.6309 15.5955 16.6309 15.7117C16.6309 15.828 16.6718 15.9275 16.753 16.0094C16.8341 16.0914 16.9319 16.1332 17.0465 16.1332C17.1611 16.1332 17.2556 16.0922 17.3367 16.0094C17.4178 15.9266 17.4588 15.828 17.4588 15.7117C17.4588 15.5955 17.4178 15.496 17.3367 15.414C17.2556 15.332 17.1586 15.2902 17.0465 15.2902Z" fill="#E6E6E6"/>
</svg>
