<svg width="20" height="20" viewBox="0 0 20 20" fill="none" xmlns="http://www.w3.org/2000/svg">
<path d="M11.4844 7.96593C11.2913 8.00501 11.096 8.02748 10.901 8.05219C10.8347 8.06056 10.8157 8.08415 10.827 8.14807C10.8571 8.31771 10.889 8.48711 10.9198 8.65664C10.9629 8.89345 11.0164 9.12813 11.0448 9.36769C11.0622 9.51399 11.0671 9.66117 11.0879 9.80735C11.1204 10.0374 11.1441 10.2687 11.174 10.4992C11.1956 10.6658 11.2098 10.8334 11.2406 10.9989C11.2515 11.0571 11.278 11.0668 11.3277 11.0454C11.3853 11.0207 11.4439 10.9985 11.501 10.9729C11.6174 10.9209 11.7442 10.8954 11.857 10.8342C11.8858 10.8186 11.9119 10.8049 11.9079 10.7653C11.895 10.6375 11.8992 10.5079 11.8726 10.3815C11.8231 10.1473 11.8137 9.90797 11.7752 9.67241C11.7708 9.64532 11.7681 9.61473 11.8001 9.60238C11.9069 9.5613 12.0098 9.50625 12.1285 9.50488C12.1934 9.50413 12.2197 9.52673 12.2267 9.59151C12.2647 9.94429 12.3024 10.2972 12.34 10.65C12.3472 10.717 12.3791 10.741 12.4422 10.7144C12.6026 10.647 12.7728 10.6089 12.9338 10.5441C13.0373 10.5024 13.0568 10.4854 13.0309 10.3778C12.9929 10.2198 12.9752 10.0594 12.951 9.8996C12.9243 9.72321 12.8936 9.54732 12.8657 9.37106C12.8342 9.17232 12.8087 8.97284 12.7857 8.77286C12.7544 8.50072 12.72 8.22896 12.7125 7.9547C12.7125 7.92149 12.7122 7.88816 12.7125 7.85496C12.7129 7.82175 12.7155 7.78842 12.7142 7.75534C12.7111 7.6747 12.681 7.65098 12.6014 7.66783C12.5649 7.67557 12.5293 7.6883 12.4933 7.69904C12.3429 7.74348 12.1924 7.7873 12.0423 7.83286C11.9971 7.84659 11.9752 7.87693 11.981 7.92749C11.9939 8.04083 12.0001 8.15518 12.0156 8.26816C12.0403 8.44891 12.0724 8.62867 12.0977 8.80943C12.1194 8.96523 12.1172 8.96572 11.9803 9.03351C11.9144 9.06609 11.8454 9.09106 11.7715 9.09593C11.6901 9.10129 11.6658 9.08307 11.6646 9.00367C11.6593 8.68622 11.5738 8.37501 11.5933 8.05531C11.5983 7.9718 11.5661 7.94933 11.484 7.96593H11.4844Z" fill="#E6E6E6"/>
<path d="M14.8455 7.76559C14.9287 7.7415 15.0349 7.76808 15.0683 7.82576C15.0975 7.87607 15.1247 7.92787 15.1416 7.98392C15.1629 8.05458 15.1669 8.05782 15.2356 8.02562C15.3906 7.95284 15.5447 7.87806 15.6991 7.80416C15.7347 7.78718 15.7484 7.75997 15.7515 7.72002C15.7597 7.61629 15.7173 7.52766 15.6665 7.44464C15.5873 7.31531 15.4843 7.20459 15.3227 7.18861C15.1776 7.17425 15.0303 7.17138 14.8853 7.20296C14.6849 7.24653 14.5119 7.3429 14.3476 7.46187C14.1646 7.59444 14.0064 7.74636 13.8943 7.94485C13.759 8.18428 13.7416 8.57513 14.1224 8.76263C14.3108 8.85538 14.5053 8.92879 14.7016 9.00007C14.8197 9.04288 14.9383 9.08483 15.0432 9.15548C15.1358 9.21802 15.1802 9.30716 15.1662 9.41751C15.155 9.50602 15.0593 9.58166 14.9541 9.60538C14.7377 9.65419 14.5354 9.62386 14.3435 9.51288C14.2616 9.46557 14.2395 9.4793 14.2241 9.57043C14.2009 9.70962 14.1806 9.84943 14.1459 9.9865C14.1252 10.0683 14.1338 10.0945 14.2043 10.1374C14.3925 10.2523 14.6013 10.2977 14.8183 10.3132C14.8648 10.3108 14.9109 10.3137 14.9561 10.3012C15.2153 10.23 15.4619 10.1272 15.6576 9.94243C15.8294 9.78015 15.9362 9.57717 15.9426 9.331C15.946 9.20217 15.8867 9.09444 15.8483 8.97897C15.7707 8.74653 15.6015 8.59885 15.3904 8.49174C15.2762 8.43395 15.1493 8.41023 15.0276 8.37328C14.9369 8.34569 14.8503 8.31049 14.7713 8.25856C14.6947 8.20825 14.6406 8.14171 14.6379 8.04571C14.6347 7.93761 14.7409 7.7958 14.8455 7.76559Z" fill="#E6E6E6"/>
<path d="M7.2425 10.4847C7.26639 10.5147 7.27934 10.5504 7.284 10.5878C7.29934 10.7078 7.33329 10.8233 7.36549 10.9394C7.43717 11.1976 7.48344 11.4622 7.5599 11.7192C7.58178 11.7927 7.59675 11.8073 7.67195 11.7905C7.80223 11.7613 7.93415 11.7375 8.06091 11.6936C8.09675 11.6811 8.11486 11.6584 8.11662 11.6199C8.12832 11.3544 8.14793 11.0895 8.17132 10.8248C8.18579 10.6614 8.19522 10.4976 8.20716 10.334C8.20867 10.3134 8.20742 10.2883 8.23483 10.2851C8.25923 10.2822 8.27935 10.2947 8.28978 10.3184C8.29393 10.3279 8.29846 10.3377 8.30047 10.3476C8.33455 10.5187 8.37153 10.6892 8.4012 10.861C8.44044 11.0884 8.50357 11.3101 8.55538 11.5346C8.56079 11.5578 8.56808 11.586 8.60505 11.5753C8.67724 11.5543 8.75143 11.5413 8.82148 11.5118C8.96396 11.4519 9.10757 11.3947 9.25143 11.3381C9.33041 11.307 9.34738 11.274 9.31582 11.1934C9.284 11.1121 9.25445 11.0309 9.23861 10.9442C9.19333 10.6951 9.12404 10.4513 9.06632 10.205C9.00948 9.96241 8.97628 9.71449 8.90724 9.47493C8.85971 9.30978 8.84386 9.13926 8.80375 8.97335C8.79192 8.92479 8.82852 8.87236 8.80073 8.83304C8.74351 8.7519 8.76049 8.66364 8.75797 8.57626C8.75747 8.55778 8.75445 8.53906 8.74917 8.52133C8.72477 8.43807 8.69924 8.42459 8.61624 8.45692C8.40196 8.54043 8.1844 8.61458 7.96609 8.68649C7.9178 8.70234 7.89806 8.73243 7.8919 8.78186C7.85077 9.11167 7.82575 9.44298 7.79356 9.77366C7.78111 9.90162 7.76174 10.0291 7.75545 10.1576C7.75382 10.1921 7.73898 10.2156 7.69836 10.2186C7.65711 10.2216 7.64441 10.201 7.63674 10.1656C7.61435 10.063 7.58694 9.96154 7.59411 9.85455C7.59675 9.81573 7.59285 9.77503 7.58417 9.73696C7.52683 9.48592 7.48935 9.23126 7.44081 8.9786C7.4139 8.83816 7.39403 8.82106 7.25407 8.85614C7.24803 8.85763 7.24199 8.85951 7.23596 8.86138C6.99803 8.93416 6.76035 9.00806 6.52192 9.07896C6.4735 9.09332 6.45489 9.11629 6.45816 9.16735C6.47388 9.41589 6.47828 9.66481 6.47866 9.91397C6.47929 10.3377 6.47703 10.7612 6.4598 11.1847C6.4598 11.2719 6.45967 11.3592 6.4598 11.4464C6.4598 11.4719 6.45766 11.4966 6.44081 11.5172C6.41943 11.5433 6.39415 11.5453 6.3851 11.5111C6.36523 11.4363 6.32096 11.4444 6.26475 11.4654C6.11988 11.5196 5.97451 11.5725 5.82826 11.6231C5.72803 11.6578 5.71193 11.6448 5.70187 11.5412C5.69093 11.4276 5.68615 11.3135 5.66452 11.2009C5.65006 11.1255 5.63698 11.0495 5.63095 10.9731C5.62428 10.888 5.63887 10.8742 5.72325 10.855C5.86397 10.8228 6.00456 10.7908 6.14528 10.7585C6.21923 10.7415 6.23117 10.723 6.21722 10.6505C6.20187 10.571 6.18729 10.4913 6.17207 10.4118C6.15421 10.3188 6.12491 10.3001 6.03248 10.3242C5.89088 10.361 5.74966 10.3997 5.60768 10.4355C5.53751 10.4533 5.52556 10.4401 5.51525 10.3686C5.48809 10.1816 5.4857 9.99175 5.44357 9.80649C5.42307 9.71624 5.44319 9.69239 5.53751 9.67979C5.7142 9.65607 5.88497 9.60613 6.05638 9.55957C6.10077 9.54746 6.12466 9.51576 6.1141 9.47007C6.08756 9.35522 6.08756 9.23962 6.09297 9.12303C6.09549 9.06848 6.07121 9.04988 6.01802 9.0676C5.76601 9.15137 5.50431 9.2018 5.25381 9.29155C5.0946 9.3486 4.92609 9.37694 4.76751 9.43736C4.6698 9.47456 4.66691 9.48417 4.68036 9.58491C4.71532 9.84819 4.75557 10.1111 4.78034 10.3754C4.80386 10.6253 4.83882 10.8737 4.86912 11.1226C4.89289 11.3182 4.92974 11.5123 4.95376 11.708C4.97652 11.8933 4.99852 12.0786 5.03248 12.2623C5.0521 12.3687 5.05323 12.3687 5.15723 12.3426C5.2977 12.3074 5.42986 12.2491 5.56568 12.2008C5.82524 12.1083 6.08542 12.0174 6.34536 11.9257C6.41113 11.9024 6.43691 11.9187 6.44332 11.9891C6.44571 12.016 6.44295 12.0465 6.4818 12.049C6.52129 12.0515 6.56015 12.0544 6.59851 12.0359C6.75193 11.962 6.91616 11.9204 7.08191 11.8852C7.17446 11.8656 7.18327 11.8634 7.18628 11.7696C7.19861 11.377 7.17597 10.985 7.15962 10.5929C7.15824 10.5599 7.15183 10.5265 7.16629 10.4946C7.1849 10.4536 7.21408 10.4494 7.24225 10.4847H7.2425Z" fill="#E6E6E6"/>
<path d="M10.4688 6.98967C10.3253 7.21374 10.1831 7.43882 10.0387 7.66239C9.96664 7.77399 9.89093 7.88322 9.80957 8.00444C9.85094 7.98796 9.87044 7.96274 9.89219 7.9414C10.0395 7.79696 10.1862 7.65203 10.3326 7.50685C10.6731 7.16943 11.0117 6.83013 11.3326 6.4741C11.3531 6.45138 11.3912 6.42529 11.3789 6.39845C11.3647 6.36775 11.3185 6.37823 11.2867 6.37998C11.1193 6.38909 10.9519 6.38947 10.7845 6.38772C10.6785 6.3866 10.6544 6.35077 10.6995 6.25614C10.7644 6.11995 10.8301 5.98401 10.8985 5.84944C10.9842 5.68091 11.0588 5.50465 11.1309 5.32863C11.1403 5.30554 11.1502 5.28269 11.1607 5.2601C11.166 5.24836 11.1728 5.23588 11.1588 5.22727C11.1467 5.21978 11.1343 5.22564 11.1252 5.23563C11.1154 5.24649 11.1065 5.25798 11.0978 5.26959C11.026 5.36596 10.9445 5.45459 10.8696 5.54859C10.7446 5.70525 10.5982 5.84494 10.4664 5.99674C10.3039 6.18374 10.1472 6.37561 9.98852 6.56598C9.97607 6.58096 9.95192 6.59607 9.96412 6.61841C9.97406 6.63651 9.99858 6.62777 10.0164 6.62777C10.1944 6.6284 10.3723 6.62752 10.5503 6.6284C10.6555 6.6289 10.6783 6.67384 10.6282 6.76684C10.5843 6.84835 10.5178 6.91289 10.4685 6.98992L10.4688 6.98967Z" fill="#E6E6E6"/>
<path d="M2.73432 11.3983C2.76362 11.3903 2.78953 11.402 2.80587 11.4255C2.81983 11.4456 2.83178 11.4691 2.83731 11.4927C2.90673 11.7853 2.95741 12.0821 3.04732 12.37C3.07826 12.4689 3.098 12.571 3.12718 12.6703C3.13887 12.7103 3.15849 12.748 3.21709 12.7308C3.34536 12.6928 3.47439 12.6566 3.60391 12.6233C3.65334 12.6105 3.66818 12.5841 3.67119 12.5356C3.69031 12.233 3.71219 11.9306 3.73357 11.6281C3.74162 11.5141 3.74954 11.4003 3.7601 11.2866C3.76224 11.2636 3.76765 11.2321 3.80135 11.2335C3.82675 11.2346 3.82902 11.2603 3.83518 11.2802C3.90573 11.5088 3.94031 11.7456 3.99514 11.9778C4.03274 12.137 4.05399 12.2998 4.11662 12.4535C4.14076 12.5128 4.16918 12.5237 4.2254 12.5013C4.33405 12.4581 4.44144 12.4122 4.55186 12.3732C4.64806 12.3393 4.7469 12.3099 4.83543 12.2564C4.86071 12.2412 4.88221 12.2257 4.87065 12.1928C4.81456 12.0353 4.80198 11.8679 4.75772 11.708C4.61247 11.1832 4.50319 10.6507 4.40309 10.1161C4.36222 9.89791 4.32512 9.67895 4.28551 9.46049C4.27167 9.38409 4.2547 9.3746 4.17912 9.39495C4.16705 9.3982 4.15485 9.40157 4.14303 9.40581C3.9466 9.47684 3.75143 9.55162 3.55324 9.61728C3.48105 9.64125 3.44924 9.67882 3.43943 9.75198C3.39793 10.0629 3.37655 10.3756 3.35002 10.688C3.33857 10.8224 3.3265 10.9569 3.31443 11.0913C3.31116 11.1279 3.29745 11.1557 3.25432 11.1572C3.21269 11.1587 3.20213 11.1324 3.19634 11.0983C3.14579 10.7953 3.09561 10.4922 3.04342 10.1895C3.02293 10.071 3.01098 9.95034 2.96596 9.83724C2.93754 9.76583 2.91214 9.75385 2.8402 9.78318C2.69081 9.8441 2.53638 9.89017 2.38145 9.93273C2.28122 9.96032 2.18917 10.0161 2.08115 10.0177C2.00607 10.0189 1.99174 10.0403 2.00607 10.1156C2.00959 10.134 2.01311 10.1527 2.01286 10.1712C2.00733 10.4642 2.04216 10.7564 2.03424 11.0495C2.03424 11.1368 2.03575 11.224 2.03399 11.3111C2.02544 11.7223 2.01575 12.1335 2.00683 12.5447C2.00406 12.6693 2.00192 12.7939 2.00003 12.9185C1.99953 12.9501 2.00393 12.9793 2.04782 12.9724C2.09737 12.9647 2.14792 12.9607 2.19596 12.9476C2.34511 12.9071 2.49262 12.8602 2.64239 12.8218C2.71131 12.804 2.73809 12.7668 2.74086 12.699C2.75607 12.3353 2.73973 11.9726 2.70791 11.6104C2.70338 11.5588 2.70527 11.5066 2.70602 11.4548C2.7064 11.4326 2.70527 11.406 2.73394 11.3982L2.73432 11.3983Z" fill="#E6E6E6"/>
<path d="M9.43519 11.3504C9.44625 11.4399 9.46197 11.4522 9.54635 11.419C9.73889 11.3433 9.93041 11.2649 10.1218 11.1864C10.1607 11.1704 10.1789 11.1386 10.1724 11.0959C10.1597 11.0139 10.1471 10.9319 10.1335 10.85C10.1033 10.668 10.1182 10.4808 10.0643 10.3012C10.0462 10.2408 10.0733 10.2087 10.1356 10.1916C10.2062 10.1722 10.2781 10.1559 10.3425 10.1199C10.7098 9.91459 10.8833 9.59351 10.9074 9.27144C10.9083 9.0058 10.8706 8.84514 10.7874 8.68023C10.6443 8.39636 10.4283 8.22534 10.0935 8.2196C9.78378 8.21423 9.51341 8.33207 9.24894 8.46814C9.09339 8.54816 9.09741 8.54978 9.13426 8.69771C9.13677 8.7077 9.13551 8.71843 9.13715 8.72867C9.1623 8.8907 9.16054 9.05511 9.19085 9.21714C9.26844 9.63184 9.29761 10.0529 9.34276 10.4717C9.37445 10.7646 9.39922 11.0582 9.43519 11.3507V11.3504ZM9.9289 8.77523C9.97644 8.76587 10.0308 8.7605 10.0705 8.7801C10.1034 8.79633 10.1229 8.84451 10.1423 8.88159C10.2077 9.0063 10.2467 9.13837 10.2469 9.23886C10.2454 9.42986 10.2064 9.56705 10.1111 9.68539C10.0916 9.70961 10.0704 9.73957 10.0349 9.73021C9.9953 9.71972 10.0056 9.6809 10.0017 9.65119C9.97493 9.44371 9.95405 9.23549 9.91708 9.02939C9.90539 8.96423 9.9001 8.89794 9.89231 8.83203C9.88904 8.80382 9.8996 8.7811 9.92878 8.77536L9.9289 8.77523Z" fill="#E6E6E6"/>
<path d="M13.5078 7.54064C13.3313 7.60518 13.1558 7.67234 12.98 7.7385C12.925 7.75923 12.9049 7.79543 12.9152 7.8556C12.9463 8.03748 12.9824 8.21924 13 8.40262C13.0383 8.80333 13.0978 9.20143 13.145 9.60102C13.1749 9.85455 13.1736 10.1105 13.2144 10.3385C13.2061 10.432 13.2253 10.4994 13.2241 10.5679C13.2232 10.6192 13.2422 10.6358 13.2925 10.619C13.4888 10.5542 13.6851 10.4891 13.8823 10.4273C13.9365 10.4103 13.9494 10.3776 13.9412 10.3283C13.9273 10.2444 13.9097 10.1609 13.9 10.0765C13.861 9.73459 13.8257 9.3923 13.7864 9.0505C13.7676 8.88585 13.7692 8.71882 13.7339 8.55604C13.7092 8.44256 13.6839 8.32921 13.6764 8.21299C13.667 8.06806 13.656 7.92338 13.6262 7.7807C13.6153 7.72802 13.61 7.67409 13.6125 7.61966C13.6164 7.5359 13.5865 7.51181 13.5076 7.54064H13.5078Z" fill="#E6E6E6"/>
<path d="M16.6013 13.1701C16.6103 13.2229 16.6379 13.236 16.6858 13.2168C16.7012 13.2106 16.7176 13.2063 16.7331 13.2002C17.0487 13.0778 17.3687 12.9667 17.68 12.8335C17.7722 12.7939 17.8718 12.7739 17.9597 12.7236C17.9931 12.7045 18.0076 12.6835 17.996 12.6432C17.9668 12.5415 17.9463 12.4371 17.9057 12.3389C17.8773 12.2702 17.8604 12.263 17.791 12.2908C17.6552 12.3452 17.5204 12.4022 17.3841 12.4553C17.266 12.5015 17.2563 12.4997 17.231 12.3789C17.1914 12.1901 17.161 11.9993 17.1268 11.8093C17.119 11.7663 17.133 11.7429 17.1797 11.7279C17.3329 11.6785 17.4856 11.6274 17.6423 11.5901C17.7026 11.5758 17.72 11.5431 17.7078 11.4858C17.6917 11.4106 17.6796 11.3347 17.6643 11.2596C17.6414 11.1482 17.6284 11.1411 17.5163 11.1691C17.3823 11.2025 17.2486 11.2367 17.1142 11.2678C17.0375 11.2855 17.0194 11.273 17.003 11.202C16.9951 11.1677 16.9906 11.1326 16.9841 11.0979C16.9553 10.9449 16.926 10.7918 16.9111 10.6366C16.9038 10.5597 16.9193 10.5421 16.9945 10.5242C17.035 10.5144 17.0759 10.5058 17.1165 10.4962C17.2466 10.4656 17.378 10.4394 17.5018 10.3866C17.5374 10.3715 17.5684 10.3503 17.5603 10.3088C17.5406 10.2082 17.54 10.1077 17.5417 10.0057C17.5427 9.93882 17.5082 9.9141 17.44 9.91635C17.4204 9.91498 17.395 9.92322 17.369 9.93258C17.1372 10.0172 16.9031 10.0949 16.667 10.1669C16.5091 10.2151 16.3496 10.2584 16.1946 10.3156C16.1404 10.3355 16.1186 10.3669 16.1252 10.4292C16.1361 10.5329 16.1716 10.6325 16.181 10.7344C16.2123 11.0702 16.2903 11.3979 16.3443 11.7296C16.3941 12.0346 16.4534 12.3382 16.5081 12.6426C16.5396 12.8184 16.571 12.9941 16.6011 13.17L16.6013 13.1701Z" fill="#E6E6E6"/>
<path d="M13.8809 13.8375C13.8907 13.8855 13.9131 13.9025 13.96 13.8784C14.3018 13.7023 14.6657 13.5868 15.0383 13.4966C15.1147 13.4781 15.1959 13.4595 15.253 13.5452C15.2722 13.5742 15.301 13.5581 15.3259 13.5445C15.5451 13.4248 15.7779 13.3371 16.0169 13.2671C16.1545 13.2268 16.2844 13.1622 16.4322 13.1514C16.5167 13.1451 16.5216 13.1206 16.4827 13.0508C16.4351 12.9654 16.3879 12.8798 16.3414 12.7937C16.3047 12.7258 16.2843 12.7167 16.2111 12.7447C16.1208 12.7791 16.0271 12.801 15.9328 12.8198C15.8503 12.8363 15.8257 12.8192 15.8127 12.7377C15.8 12.6579 15.7944 12.5768 15.7786 12.4978C15.7056 12.1308 15.6817 11.757 15.6207 11.3884C15.5722 11.0954 15.5376 10.8005 15.509 10.5049C15.4982 10.3931 15.481 10.3831 15.3731 10.4238C15.1817 10.4959 14.9929 10.5755 14.8001 10.6439C14.7356 10.6667 14.7278 10.6992 14.7393 10.7556C14.7591 10.8532 14.7784 10.9511 14.7925 11.0497C14.8484 11.4402 14.9019 11.831 14.9759 12.2188C15.0426 12.5674 15.1079 12.9163 15.1731 13.2651C15.1785 13.2941 15.1948 13.3303 15.1512 13.3445C15.112 13.3574 15.094 13.3259 15.0792 13.2987C15.0544 13.253 15.0322 13.2061 15.0107 13.1588C14.9885 13.1102 14.9556 13.0886 14.8986 13.0878C14.7852 13.0865 14.6775 13.1056 14.576 13.1545C14.527 13.1782 14.4962 13.1657 14.4759 13.1188C14.4661 13.096 14.4544 13.073 14.4503 13.0489C14.4167 12.8567 14.3814 12.6647 14.3535 12.4717C14.3293 12.3054 14.3235 12.136 14.2928 11.9711C14.2437 11.7068 14.2525 11.4373 14.2086 11.2216C14.2071 11.0451 14.1689 10.9231 14.1471 10.7985C14.1365 10.7382 14.1128 10.7262 14.0555 10.7473C13.8555 10.8209 13.6558 10.8959 13.4547 10.9666C13.3923 10.9885 13.3665 11.0235 13.3782 11.0878C13.3963 11.1878 13.4137 11.288 13.4303 11.3882C13.4967 11.7875 13.5636 12.1867 13.6287 12.5861C13.6705 12.8423 13.7233 13.0962 13.7784 13.3497C13.8136 13.512 13.8475 13.6746 13.8809 13.8372V13.8375Z" fill="#E6E6E6"/>
<path d="M12.3045 14.1944C12.319 14.2748 12.3439 14.2883 12.4209 14.2569C12.6085 14.1804 12.7983 14.1091 12.9863 14.0335C13.2011 13.947 13.421 13.8731 13.6353 13.7846C13.6769 13.7674 13.7056 13.7473 13.6915 13.6972C13.6645 13.6013 13.6377 13.5055 13.6106 13.4097C13.5846 13.3176 13.566 13.3068 13.4776 13.3417C13.338 13.3965 13.2082 13.4735 13.0611 13.5124C12.988 13.5318 12.9661 13.531 12.9511 13.456C12.9136 13.2688 12.8787 13.0811 12.8425 12.8936C12.8261 12.8083 12.8331 12.7975 12.9176 12.7687C13.0582 12.7205 13.2009 12.6801 13.3464 12.6497C13.4021 12.6381 13.4249 12.6081 13.4124 12.5516C13.3942 12.4685 13.379 12.3846 13.3599 12.3017C13.3371 12.2031 13.3066 12.1876 13.2071 12.2159C13.0703 12.2547 12.9328 12.2912 12.7962 12.3308C12.7422 12.3465 12.7119 12.3305 12.7017 12.2755C12.6934 12.2307 12.6845 12.1858 12.6751 12.1411C12.6442 11.9935 12.6616 11.8389 12.604 11.6942C12.5801 11.6341 12.6075 11.6 12.6712 11.585C12.8341 11.5469 12.9926 11.4923 13.1575 11.4622C13.2476 11.4458 13.2693 11.4147 13.2566 11.3236C13.2446 11.2375 13.2226 11.1522 13.2432 11.0778C13.2452 10.9718 13.2026 10.9345 13.1233 10.9597C12.9184 11.0249 12.7131 11.0892 12.5088 11.1561C12.3044 11.2231 12.1008 11.2927 11.8971 11.3619C11.8507 11.3778 11.8071 11.393 11.8203 11.4609C11.9097 11.9213 11.9904 12.3831 12.0654 12.846C12.1383 13.2966 12.2243 13.7451 12.3049 14.1944H12.3045Z" fill="#E6E6E6"/>
<path d="M10.0229 12.8344C10.1005 13.1719 10.1714 13.5112 10.2111 13.856C10.2363 14.0742 10.2871 14.2892 10.2948 14.5099C10.2971 14.5801 10.3114 14.65 10.3209 14.7199C10.3272 14.7659 10.3521 14.7845 10.3999 14.7727C10.4384 14.7632 10.4779 14.7576 10.5168 14.7503C10.7847 14.7014 11.0339 14.6034 11.2715 14.4725C11.5378 14.3256 11.7819 14.155 11.9433 13.8895C12.0464 13.7197 12.0886 13.5397 12.0212 13.3483C11.9398 13.117 11.7789 12.9605 11.5436 12.8816C11.4595 12.8534 11.4499 12.8266 11.5007 12.7575C11.5167 12.7356 11.5319 12.7128 11.5509 12.6938C11.709 12.5355 11.7686 12.3393 11.7782 12.0952C11.792 11.871 11.6294 11.6079 11.3812 11.5149C11.1797 11.4394 10.9762 11.4537 10.7768 11.5062C10.4795 11.5842 10.2001 11.7148 9.91196 11.8199C9.83952 11.8463 9.82619 11.8829 9.84116 11.9638C9.89536 12.2554 9.9566 12.5453 10.023 12.8345L10.0229 12.8344ZM11.319 13.1592C11.3354 13.1807 11.3542 13.2002 11.3725 13.22C11.4468 13.3009 11.4527 13.3941 11.3946 13.4863C11.3711 13.5235 11.3262 13.5502 11.3303 13.603C11.3306 13.6065 11.3222 13.6136 11.3175 13.614C11.2109 13.6207 11.1456 13.7067 11.0568 13.748C11.0225 13.764 10.9908 13.7834 10.934 13.7811C10.9169 13.7793 10.8983 13.7826 10.8925 13.7264C10.8783 13.5904 10.8754 13.4494 10.8077 13.3224C10.7785 13.2677 10.7965 13.2024 10.8217 13.1561C10.8495 13.105 10.919 13.1003 10.9772 13.0969C11.0795 13.091 11.1768 13.1261 11.2773 13.1357C11.295 13.1375 11.3078 13.1446 11.3189 13.1592H11.319ZM10.7519 12.1424C10.7787 12.1384 10.8059 12.1382 10.8331 12.1362C10.911 12.1311 10.9875 12.1427 11.0626 12.1607C11.1358 12.1783 11.1608 12.2276 11.1373 12.2971C11.1119 12.3721 11.068 12.4343 10.9977 12.4742C10.9362 12.5093 10.8735 12.5425 10.8107 12.5751C10.7572 12.6029 10.7284 12.5898 10.7167 12.5318C10.6977 12.4385 10.6625 12.3488 10.6592 12.2523C10.6569 12.186 10.6837 12.1525 10.752 12.1423L10.7519 12.1424Z" fill="#E6E6E6"/>
</svg>
