<svg width="20" height="20" viewBox="0 0 20 20" fill="none" xmlns="http://www.w3.org/2000/svg">
<path d="M6.04568 10.2795C6.04568 10.5646 6.04568 10.8497 6.04568 11.1347C6.04568 11.2372 6.044 11.2338 5.94151 11.2305C5.7931 11.2254 5.64413 11.2271 5.49516 11.2299C5.34171 11.2322 5.18826 11.2176 5.03537 11.24C4.98496 11.2473 4.96984 11.221 4.96984 11.1756C4.96984 11.0507 4.9676 10.9253 4.9676 10.8004C4.9676 10.4459 4.96648 10.0914 4.96872 9.73685C4.96872 9.65845 4.94464 9.5974 4.88303 9.54924C4.82535 9.50387 4.76375 9.47251 4.69094 9.50947C4.61645 9.547 4.56997 9.6002 4.57053 9.69429C4.57109 10.1854 4.56605 10.6766 4.56661 11.1683C4.56661 11.235 4.54309 11.2439 4.48541 11.2406C4.16954 11.2226 3.85424 11.2226 3.53837 11.2406C3.49805 11.2428 3.48013 11.2361 3.48013 11.189C3.48237 10.7001 3.48181 10.2112 3.48237 9.72229C3.48237 9.6198 3.42693 9.53972 3.3306 9.50387C3.27908 9.48483 3.15307 9.53468 3.10602 9.5918C3.0825 9.62092 3.07914 9.65509 3.07914 9.68981C3.07914 10.181 3.0797 10.6727 3.08138 11.1638C3.08138 11.249 3.08306 11.249 2.99569 11.2344C2.97721 11.2316 2.95873 11.2299 2.94025 11.2299C2.66807 11.2299 2.39589 11.2299 2.12427 11.231C2.0005 11.231 2.0005 11.2327 2.0005 11.1039C2.0005 10.5892 1.99882 10.0751 2.00162 9.56044C2.00274 9.38627 2.02626 9.21265 2.10691 9.05472C2.27828 8.71758 2.5639 8.535 2.92905 8.46556C3.2886 8.39667 3.6151 8.479 3.91472 8.68229C3.94104 8.70021 3.95841 8.72374 3.97409 8.7495C3.99705 8.78702 4.02281 8.78646 4.05361 8.76126C4.07321 8.74502 4.09338 8.72934 4.11354 8.71365C4.37732 8.5014 4.67862 8.43307 5.01296 8.46052C5.2717 8.4818 5.49516 8.57588 5.68781 8.74222C5.91071 8.93431 6.04008 9.17737 6.044 9.47531C6.04792 9.74413 6.04456 10.013 6.04456 10.2818C6.04512 10.2818 6.04568 10.2818 6.04624 10.2818L6.04568 10.2795Z" fill="#E6E6E6"/>
<path d="M12.018 10.3888C12.018 10.6066 12.0175 10.8245 12.018 11.0423C12.018 11.086 12.0242 11.1297 12.0287 11.1739C12.0337 11.2238 12.0091 11.2406 11.9626 11.2372C11.6865 11.2182 11.4098 11.2305 11.1331 11.2322C11.0603 11.2322 10.9881 11.2725 10.9159 11.296C10.4919 11.4344 10.1072 11.3403 9.74537 11.1022C9.54711 10.9718 9.3931 10.7987 9.27661 10.5976C9.19708 10.461 9.14332 10.3081 9.12372 10.1485C9.09628 9.91944 9.09628 9.69094 9.17132 9.46861C9.24357 9.25523 9.36062 9.06986 9.51463 8.90408C9.69328 8.71087 9.9117 8.57926 10.1587 8.50757C10.3586 8.44933 10.5686 8.44653 10.7798 8.47341C10.9808 8.49917 11.1584 8.5731 11.3314 8.67055C11.533 8.78423 11.682 8.95169 11.8052 9.14154C11.9615 9.38292 12.0292 9.65006 12.0191 9.93792C12.0135 10.0886 12.018 10.2392 12.0186 10.3899L12.018 10.3888ZM10.5619 10.3115C10.7865 10.3103 10.9797 10.1255 10.9747 9.9088C10.9691 9.67134 10.8033 9.50053 10.5625 9.49885C10.3289 9.49717 10.1632 9.66126 10.1553 9.91216C10.1486 10.1261 10.3435 10.3126 10.5619 10.3115Z" fill="#E6E6E6"/>
<path d="M16.5751 8.4914C17.3368 8.4858 17.9875 9.11696 17.9999 9.85734C18.015 10.7568 17.2763 11.3235 16.5925 11.3179C15.7591 11.3106 15.161 10.6784 15.1515 9.9139C15.1409 9.11304 15.8095 8.48412 16.5751 8.4914ZM16.9358 9.91894C16.938 9.72797 16.7611 9.55828 16.5538 9.55491C16.383 9.55211 16.2273 9.71453 16.2167 9.90662C16.2072 10.0724 16.392 10.2622 16.5583 10.2561C16.7532 10.2494 16.9229 10.1161 16.9358 9.91894Z" fill="#E6E6E6"/>
<path d="M12.3393 10.3193C12.3393 10.0505 12.3264 9.78114 12.3427 9.51288C12.3656 9.12869 12.5633 8.84307 12.8949 8.64985C13.1049 8.5272 13.3323 8.48352 13.5759 8.48464C13.8038 8.48576 14.0267 8.50256 14.2362 8.59441C14.5677 8.74058 14.7727 8.99316 14.8623 9.34486C14.9205 9.57448 14.8959 9.80578 14.8976 10.0365C14.9004 10.414 14.8931 10.792 14.8937 11.1695C14.8937 11.2322 14.8707 11.2417 14.8158 11.2389C14.4977 11.221 14.1796 11.2204 13.8615 11.2395C13.8178 11.2423 13.8066 11.2277 13.8072 11.1846C13.8094 10.6862 13.81 10.1877 13.81 9.68985C13.81 9.58792 13.7187 9.49272 13.6224 9.49216C13.5171 9.4916 13.414 9.5896 13.4129 9.69601C13.4112 9.83042 13.4129 9.96483 13.4135 10.0992C13.4146 10.4633 13.4152 10.8267 13.418 11.1908C13.418 11.2333 13.4028 11.2423 13.3648 11.2395C13.0467 11.2188 12.7291 11.2216 12.411 11.2395C12.3455 11.2434 12.3382 11.2104 12.3382 11.16C12.3388 10.8794 12.3382 10.5988 12.3382 10.3188C12.3382 10.3188 12.3393 10.3188 12.3399 10.3188L12.3393 10.3193Z" fill="#E6E6E6"/>
<path d="M7.77296 9.35214C7.77296 8.74729 7.77296 8.14245 7.77296 7.53816C7.77296 7.44352 7.77688 7.43848 7.86929 7.43848C8.17843 7.43736 8.48758 7.43904 8.79672 7.43568C8.85496 7.43512 8.84712 7.46816 8.84712 7.50232C8.84712 8.0422 8.84768 8.58208 8.84824 9.12196C8.84824 9.79177 8.84824 10.461 8.84824 11.1308C8.84824 11.244 8.84824 11.2384 8.7368 11.2322C8.61863 11.2249 8.4999 11.2277 8.38117 11.2305C8.19299 11.2344 8.00482 11.2165 7.81721 11.2412C7.78192 11.2456 7.76904 11.2333 7.76904 11.1952C7.77016 10.5814 7.7696 9.96762 7.7696 9.35326H7.77352L7.77296 9.35214Z" fill="#E6E6E6"/>
<path d="M7.45196 9.86904C7.45196 10.2908 7.45196 10.7125 7.45196 11.1342C7.45196 11.2451 7.45196 11.2411 7.34387 11.2316C7.26323 11.2249 7.18146 11.2271 7.10026 11.2294C6.87512 11.235 6.64942 11.2165 6.42485 11.2395C6.36884 11.2451 6.36492 11.2087 6.36716 11.1683C6.3862 10.7797 6.37276 10.3904 6.375 10.0012C6.37724 9.57278 6.375 9.14379 6.375 8.71536C6.375 8.66439 6.36996 8.61343 6.37164 8.56303C6.37276 8.52998 6.38676 8.51038 6.42877 8.51206C6.74687 8.52438 7.06553 8.51766 7.38364 8.51486C7.43908 8.51486 7.4542 8.5283 7.4542 8.58375C7.45196 9.01218 7.45308 9.44117 7.45252 9.8696L7.45196 9.86904Z" fill="#E6E6E6"/>
<path d="M15.3099 12.3024C15.3065 12.2016 15.3132 12.1115 15.3009 12.0213C15.2953 11.9815 15.2768 11.9603 15.2404 11.9463C15.1346 11.907 15.0024 11.9334 14.9548 12.0051C14.9251 12.0499 14.9218 12.1008 14.9212 12.1518C14.9201 12.2604 14.9212 12.3696 14.9207 12.4783C14.9207 12.5136 14.9335 12.5533 14.8708 12.5539C14.8137 12.5539 14.8081 12.5287 14.8086 12.4817C14.8109 12.3568 14.8086 12.2313 14.8064 12.1064C14.8047 11.9827 14.756 11.9289 14.6513 11.9311C14.4698 11.9345 14.4166 11.9765 14.4177 12.1131C14.4189 12.2403 14.4166 12.368 14.42 12.4951C14.4211 12.5477 14.3987 12.5561 14.3528 12.5539C14.3035 12.5517 14.2912 12.5337 14.2962 12.4845C14.3153 12.2952 14.304 12.1053 14.3007 11.9154C14.3007 11.8846 14.2805 11.8477 14.3209 11.8292C14.355 11.8141 14.3763 11.8354 14.3931 11.865C14.4021 11.8813 14.4161 11.8807 14.4334 11.869C14.5572 11.7866 14.7017 11.771 14.8226 11.8382C14.8932 11.8774 14.9207 11.8538 14.9772 11.8393C15.0691 11.8158 15.1637 11.785 15.264 11.8152C15.3642 11.846 15.4213 11.9065 15.4241 12.0151C15.4269 12.1355 15.423 12.256 15.4236 12.3764C15.4236 12.4111 15.4247 12.4458 15.4303 12.48C15.4381 12.5242 15.4331 12.5511 15.3782 12.5522C15.3295 12.5533 15.2998 12.5505 15.3082 12.4861C15.3166 12.4223 15.3099 12.3568 15.3099 12.3024Z" fill="#E6E6E6"/>
<path d="M11.3346 11.8857C11.3346 11.7861 11.3363 11.6992 11.334 11.6124C11.3329 11.5632 11.3447 11.5318 11.4018 11.5324C11.4606 11.5329 11.4522 11.5744 11.4522 11.6108C11.4505 11.8701 11.4483 12.1288 11.4472 12.3881C11.4472 12.4223 11.4539 12.457 11.4567 12.4911C11.4589 12.5186 11.4528 12.5444 11.422 12.5505C11.3962 12.5556 11.3699 12.5522 11.3609 12.5197C11.3492 12.476 11.329 12.4811 11.2954 12.5023C11.1711 12.5819 11.0378 12.5662 10.9084 12.5231C10.844 12.5012 10.7975 12.448 10.7762 12.3791C10.7337 12.2402 10.7286 12.1014 10.7863 11.9653C10.8188 11.8891 10.8731 11.8409 10.961 11.8247C11.0899 11.8006 11.2131 11.7928 11.3346 11.8857ZM10.8798 12.173C10.8726 12.4155 10.9224 12.4654 11.1498 12.4525C11.152 12.4525 11.1543 12.4525 11.1565 12.4525C11.208 12.4486 11.2478 12.4273 11.2791 12.3842C11.3503 12.2851 11.3564 12.0986 11.2887 11.9972C11.2741 11.9759 11.2579 11.9569 11.2338 11.9451C11.0467 11.8533 10.8776 11.9563 10.8793 12.1613C10.8793 12.168 10.8793 12.1753 10.8793 12.173H10.8798Z" fill="#E6E6E6"/>
<path d="M16.215 12.1837C16.215 12.2369 16.2167 12.2901 16.215 12.3433C16.2133 12.391 16.2189 12.429 16.2755 12.4442C16.3113 12.4542 16.3096 12.4901 16.304 12.5203C16.2967 12.5584 16.2659 12.5545 16.2379 12.5517C16.1987 12.5478 16.169 12.5254 16.1394 12.503C16.1164 12.4856 16.0979 12.4794 16.071 12.4968C15.9613 12.569 15.8403 12.5713 15.7177 12.5444C15.6757 12.5354 15.6437 12.5074 15.6191 12.4716C15.5396 12.3568 15.5597 12.1305 15.7843 12.0986C15.8621 12.0874 15.9417 12.0874 16.0201 12.0796C16.0464 12.0773 16.0867 12.1036 16.0951 12.0566C16.103 12.014 16.0923 11.9743 16.0492 11.9496C15.9775 11.9082 15.9014 11.9144 15.8257 11.9295C15.7921 11.9362 15.7597 11.9513 15.7277 11.9642C15.6829 11.9821 15.6695 11.9508 15.6577 11.92C15.646 11.8903 15.6482 11.8651 15.6857 11.8561C15.8067 11.827 15.9243 11.7816 16.0542 11.8152C16.1573 11.8416 16.2116 11.8959 16.215 12.0028C16.2172 12.0628 16.215 12.1233 16.215 12.1837ZM15.8605 12.4604C16.024 12.4386 16.0828 12.4318 16.1002 12.256C16.1058 12.1983 16.0856 12.1669 16.0218 12.1753C15.9529 12.1843 15.8834 12.191 15.8145 12.1989C15.7809 12.2028 15.7524 12.219 15.7283 12.2403C15.6706 12.2913 15.6807 12.4162 15.744 12.4369C15.7832 12.4498 15.8252 12.4537 15.8605 12.4604Z" fill="#E6E6E6"/>
<path d="M13.7585 12.1899C13.7585 12.2431 13.7596 12.2963 13.7585 12.3495C13.7573 12.3927 13.7551 12.4313 13.8111 12.4464C13.8447 12.4554 13.838 12.4929 13.8369 12.5187C13.8357 12.5495 13.8066 12.54 13.7876 12.5416C13.745 12.545 13.7036 12.5444 13.6784 12.4996C13.6593 12.466 13.6369 12.4839 13.6145 12.4979C13.4964 12.573 13.3692 12.5736 13.241 12.5355C13.1643 12.5131 13.1251 12.4565 13.1211 12.3753C13.1167 12.2812 13.1234 12.1938 13.218 12.1406C13.3261 12.079 13.4465 12.0908 13.563 12.0807C13.591 12.0785 13.6352 12.1082 13.6403 12.0538C13.6442 12.0074 13.638 11.9586 13.5809 11.9424C13.4824 11.9149 13.3849 11.9093 13.2891 11.9553C13.2382 11.9794 13.2046 11.9597 13.1967 11.906C13.1934 11.883 13.1967 11.864 13.2231 11.8578C13.3485 11.8276 13.4706 11.78 13.605 11.8169C13.7002 11.8433 13.7534 11.8965 13.7596 11.9956C13.7613 12.0281 13.7607 12.0606 13.7607 12.093C13.7607 12.1255 13.7607 12.158 13.7607 12.1905L13.7585 12.1899ZM13.5356 12.1731C13.4818 12.1815 13.4079 12.1882 13.3362 12.2045C13.2656 12.2207 13.2292 12.2773 13.2359 12.3417C13.2466 12.4391 13.2522 12.4447 13.3547 12.4537C13.3687 12.4548 13.3827 12.4593 13.3961 12.4582C13.554 12.4442 13.6201 12.4335 13.6431 12.27C13.6543 12.1882 13.6397 12.1726 13.5356 12.1726V12.1731Z" fill="#E6E6E6"/>
<path d="M12.2503 12.1854C12.2508 12.2364 12.2508 12.2868 12.2413 12.3377C12.2351 12.3719 12.234 12.4066 12.2738 12.4279C12.3136 12.4492 12.3477 12.4861 12.3141 12.5276C12.2816 12.5679 12.2234 12.5533 12.1959 12.5214C12.1539 12.4716 12.1287 12.4833 12.0839 12.5158C11.9865 12.5875 11.7608 12.5735 11.6678 12.4945C11.5922 12.4307 11.6068 12.3411 11.618 12.2616C11.6286 12.1876 11.6852 12.1294 11.758 12.1115C11.8543 12.0879 11.954 12.0728 12.0548 12.0807C12.0845 12.0829 12.1248 12.1031 12.1271 12.0482C12.1287 12.0056 12.1394 11.9563 12.0778 11.9418C11.977 11.9183 11.8756 11.9043 11.7793 11.9575C11.7412 11.9787 11.7149 11.9709 11.6891 11.9384C11.6594 11.9009 11.6678 11.8701 11.7109 11.8589C11.8308 11.8275 11.9484 11.7805 12.0789 11.8146C12.1607 11.8359 12.229 11.8987 12.2391 11.9843C12.2441 12.0258 12.2475 12.0672 12.2497 12.1087C12.2514 12.1339 12.2497 12.1596 12.2497 12.1848L12.2503 12.1854ZM12.0324 12.1697C11.9618 12.1994 11.8672 12.1759 11.7888 12.2252C11.7429 12.2543 11.7137 12.2946 11.7205 12.3523C11.7249 12.3926 11.7378 12.4273 11.781 12.4458C11.8756 12.4861 12.052 12.4436 12.1086 12.3601C12.1411 12.312 12.1483 12.2554 12.131 12.2005C12.1175 12.1585 12.0761 12.1781 12.033 12.1697H12.0324Z" fill="#E6E6E6"/>
<path d="M10.0282 12.229C9.95871 12.229 9.88871 12.2302 9.81926 12.229C9.78622 12.2279 9.77558 12.2419 9.77166 12.2733C9.76214 12.3522 9.82878 12.4413 9.91783 12.4564C10.0158 12.4732 10.1133 12.471 10.1995 12.4133C10.2376 12.3881 10.2595 12.4038 10.2796 12.434C10.3037 12.4699 10.2813 12.4889 10.2522 12.5046C10.1245 12.5735 9.98896 12.5791 9.85343 12.5404C9.75822 12.513 9.69549 12.4402 9.67197 12.345C9.64733 12.2458 9.64229 12.14 9.66469 12.042C9.70109 11.8801 9.7963 11.8146 9.98504 11.8028C10.0651 11.7978 10.143 11.809 10.2079 11.8628C10.3065 11.944 10.3059 12.0599 10.3138 12.1714C10.3166 12.2145 10.2852 12.2296 10.2438 12.229C10.1715 12.2279 10.0998 12.229 10.0276 12.229H10.0282ZM9.96767 12.1299C9.96767 12.1299 9.96767 12.126 9.96767 12.1238C10.0231 12.1238 10.0786 12.1249 10.134 12.1238C10.1906 12.1226 10.2135 12.1008 10.1906 12.0403C10.1553 11.9473 10.0881 11.9065 9.97048 11.916C9.86295 11.9244 9.78398 11.9865 9.7683 12.0739C9.7627 12.1064 9.77614 12.1215 9.80806 12.1232C9.86127 12.1254 9.91447 12.1277 9.96767 12.1305V12.1299Z" fill="#E6E6E6"/>
<path d="M17.2627 12.1445C17.256 12.0375 17.2801 11.9149 17.4156 11.8493C17.5607 11.7793 17.8362 11.7816 17.932 11.9737C18.0087 12.1282 17.965 12.4055 17.8368 12.5018C17.699 12.6048 17.4302 12.5712 17.3238 12.4374C17.2611 12.3584 17.2678 12.2643 17.2627 12.1439V12.1445ZM17.3753 12.1971C17.3747 12.2638 17.3697 12.3287 17.4246 12.3842C17.5164 12.4771 17.6251 12.462 17.7292 12.4295C17.8245 12.3999 17.8457 12.3125 17.8463 12.2218C17.8463 12.187 17.8469 12.1523 17.8435 12.1181C17.8345 12.0308 17.7959 11.9563 17.708 11.9361C17.6122 11.9143 17.5142 11.9042 17.4313 11.991C17.3719 12.0537 17.3764 12.1237 17.3747 12.1971H17.3753Z" fill="#E6E6E6"/>
<path d="M16.4456 12.1781C16.4456 12.088 16.4456 11.9978 16.4456 11.9071C16.4456 11.8751 16.4439 11.8399 16.4825 11.8247C16.5167 11.8113 16.5329 11.8365 16.5492 11.86C16.5733 11.8947 16.5985 11.874 16.6209 11.8589C16.7357 11.7827 16.8594 11.7979 16.9793 11.8354C17.0588 11.8606 17.084 11.9384 17.0885 12.0151C17.0975 12.177 17.0779 12.3389 17.0963 12.5013C17.1014 12.5472 17.0616 12.5489 17.0291 12.5517C16.9922 12.555 16.9726 12.5421 16.9731 12.5013C16.9731 12.3646 16.9726 12.228 16.9714 12.0913C16.9703 11.9726 16.9227 11.9356 16.8057 11.9289C16.6461 11.9199 16.5727 11.9513 16.5744 12.1708C16.5749 12.275 16.5761 12.3792 16.5755 12.4833C16.5755 12.5119 16.5929 12.5528 16.5352 12.5511C16.4881 12.55 16.4512 12.5393 16.4512 12.4828C16.4512 12.3809 16.4512 12.2789 16.4512 12.177C16.4495 12.177 16.4484 12.177 16.4467 12.177L16.4456 12.1781Z" fill="#E6E6E6"/>
<path d="M9.34874 12.1698C9.34874 12.2207 9.34874 12.2717 9.34874 12.3226C9.34874 12.4257 9.3773 12.4515 9.48315 12.4431C9.50891 12.4408 9.53859 12.4251 9.54867 12.4688C9.55931 12.5147 9.56155 12.5478 9.49771 12.5427C9.46298 12.5399 9.42826 12.5461 9.39354 12.545C9.28881 12.5427 9.23281 12.4823 9.23337 12.3798C9.23393 12.2476 9.23113 12.116 9.23225 11.9838C9.23225 11.9368 9.21825 11.9205 9.17008 11.9317C9.1404 11.9385 9.0984 11.9502 9.09168 11.9026C9.08552 11.855 9.11296 11.8141 9.16224 11.8192C9.25073 11.8281 9.24961 11.7788 9.24457 11.7178C9.24065 11.6724 9.24345 11.6276 9.29721 11.6097C9.33025 11.5985 9.35266 11.6052 9.3521 11.6456C9.35154 11.6848 9.35098 11.7245 9.34818 11.7637C9.34426 11.813 9.3689 11.8304 9.41482 11.8281C9.44282 11.8264 9.47082 11.8281 9.49827 11.8264C9.54419 11.8236 9.55147 11.855 9.55427 11.8886C9.55763 11.9323 9.52795 11.9329 9.49491 11.9351C9.4473 11.9385 9.38234 11.9116 9.35658 11.9452C9.33305 11.9765 9.34986 12.0381 9.3493 12.0863C9.3493 12.1143 9.3493 12.1417 9.3493 12.1698H9.34874Z" fill="#E6E6E6"/>
<path d="M12.7965 11.9955C12.7965 11.8589 12.7993 11.7222 12.7948 11.5861C12.7931 11.5352 12.8166 11.5296 12.8564 11.5279C12.9006 11.5257 12.9113 11.5441 12.9113 11.585C12.9096 11.837 12.9113 12.0896 12.909 12.3416C12.9085 12.4016 12.9197 12.4424 12.9902 12.4408C13.0362 12.4402 13.0322 12.4738 13.0322 12.5046C13.0322 12.5399 13.0137 12.5544 12.9796 12.5533C12.8698 12.5494 12.7864 12.5186 12.7948 12.3775C12.8026 12.2509 12.7965 12.1232 12.7965 11.9955Z" fill="#E6E6E6"/>
</svg>
