<svg width="20" height="20" viewBox="0 0 20 20" fill="none" xmlns="http://www.w3.org/2000/svg">
<path d="M8.98226 13.6777C8.96508 13.6458 8.94462 13.6229 8.92008 13.6073C8.89554 13.5918 8.86608 13.5844 8.83254 13.5844C8.78754 13.5844 8.74991 13.6016 8.71882 13.6351C8.68773 13.6695 8.67219 13.7112 8.67219 13.7611C8.67219 13.811 8.68773 13.8527 8.71882 13.8863C8.74991 13.9198 8.78918 13.937 8.83499 13.937C8.86854 13.937 8.89799 13.9288 8.92417 13.9125C8.94953 13.8961 8.96917 13.8724 8.98307 13.8429H9.04443C9.02725 13.8904 9.00107 13.9264 8.96508 13.9526C8.92908 13.9787 8.88654 13.991 8.83745 13.991C8.77445 13.991 8.72127 13.9689 8.67791 13.9239C8.63455 13.8797 8.61328 13.8258 8.61328 13.7628C8.61328 13.6998 8.63537 13.6441 8.67873 13.5991C8.72291 13.555 8.77609 13.532 8.83908 13.532C8.88654 13.532 8.92744 13.5451 8.96344 13.5705C8.99944 13.5959 9.02644 13.6319 9.04443 13.6777H8.98307H8.98226Z" fill="#E6E6E6"/>
<path d="M9.18023 13.9788H9.12378V13.5443H9.17614V13.5942C9.19005 13.5754 9.20477 13.5607 9.22114 13.5517C9.2375 13.5427 9.25632 13.5378 9.27759 13.5378V13.5983C9.24323 13.6016 9.21786 13.6122 9.20314 13.6294C9.18759 13.6474 9.18023 13.676 9.18023 13.7161V13.9779V13.9788Z" fill="#E6E6E6"/>
<path d="M9.75286 13.7791H9.36098C9.36425 13.8266 9.38143 13.8642 9.41252 13.8937C9.44361 13.9231 9.48206 13.937 9.52788 13.937C9.5606 13.937 9.59006 13.9288 9.61624 13.9117C9.64242 13.8945 9.66205 13.8716 9.67678 13.8413H9.73977C9.72014 13.8896 9.6915 13.9264 9.65551 13.9517C9.61951 13.9771 9.57778 13.9902 9.52951 13.9902C9.46652 13.9902 9.41334 13.9681 9.36916 13.9223C9.3258 13.8773 9.30371 13.8233 9.30371 13.7603C9.30371 13.6973 9.32498 13.64 9.36752 13.5967C9.41007 13.5533 9.46488 13.532 9.53115 13.532C9.59742 13.532 9.64978 13.5541 9.69069 13.5991C9.73159 13.6441 9.75205 13.7022 9.75205 13.7742V13.7783L9.75286 13.7791ZM9.6915 13.7308C9.68087 13.6826 9.66123 13.6458 9.63342 13.622C9.6056 13.5983 9.56878 13.5852 9.52297 13.5852C9.48125 13.5852 9.44525 13.5983 9.41579 13.6245C9.38634 13.6507 9.36834 13.6859 9.3618 13.7308H9.69069H9.6915Z" fill="#E6E6E6"/>
<path d="M10.1833 13.91C10.1661 13.9353 10.1424 13.955 10.1129 13.9689C10.0835 13.9828 10.0516 13.9902 10.0172 13.9902C9.95339 13.9902 9.90022 13.9681 9.85849 13.9247C9.81595 13.8813 9.79468 13.8273 9.79468 13.7635C9.79468 13.6997 9.81595 13.6441 9.85931 13.6007C9.90267 13.5574 9.95667 13.5353 10.0221 13.5353C10.0557 13.5353 10.0859 13.5418 10.1137 13.5557C10.1416 13.5696 10.1645 13.5885 10.1833 13.6146V13.5451H10.2381V13.9795H10.1833V13.9108V13.91ZM10.1833 13.7586C10.1833 13.7128 10.1669 13.6727 10.1342 13.6384C10.1015 13.604 10.063 13.5868 10.0205 13.5868C9.97385 13.5868 9.93458 13.604 9.90185 13.6384C9.86913 13.6727 9.85276 13.7153 9.85276 13.766C9.85276 13.8167 9.86913 13.8552 9.90185 13.8887C9.93458 13.9223 9.97385 13.9386 10.0197 13.9386C10.0655 13.9386 10.1023 13.9214 10.135 13.8863C10.1677 13.8511 10.1841 13.8085 10.1841 13.7594L10.1833 13.7586Z" fill="#E6E6E6"/>
<path d="M10.3641 13.9787V13.6008H10.2815V13.5451H10.3641V13.4044H10.4198V13.5451H10.5024V13.6008H10.4198V13.9787H10.3641Z" fill="#E6E6E6"/>
<path d="M10.603 13.4936H10.5474V13.4036H10.603V13.4936ZM10.5474 13.9787V13.5443H10.603V13.9787H10.5474Z" fill="#E6E6E6"/>
<path d="M10.8624 13.9787H10.8117L10.6423 13.5443H10.7012L10.8403 13.8945L10.9802 13.5443H11.0408L10.8632 13.9787H10.8624Z" fill="#E6E6E6"/>
<path d="M11.5046 13.7791H11.1127C11.116 13.8266 11.1331 13.8642 11.1642 13.8937C11.1953 13.9231 11.2338 13.937 11.2796 13.937C11.3123 13.937 11.3418 13.9288 11.3679 13.9117C11.3941 13.8945 11.4138 13.8716 11.4285 13.8413H11.4915C11.4718 13.8896 11.4432 13.9264 11.4072 13.9517C11.3712 13.9771 11.3287 13.9902 11.2812 13.9902C11.2182 13.9902 11.165 13.9681 11.1209 13.9223C11.0775 13.8773 11.0554 13.8233 11.0554 13.7603C11.0554 13.6973 11.0767 13.64 11.1192 13.5967C11.1618 13.5533 11.2166 13.532 11.2829 13.532C11.3491 13.532 11.4015 13.5541 11.4424 13.5991C11.4833 13.6441 11.5038 13.7022 11.5038 13.7742V13.7783L11.5046 13.7791ZM11.4432 13.7308C11.4326 13.6826 11.4129 13.6458 11.3851 13.622C11.3573 13.5975 11.3205 13.5852 11.2747 13.5852C11.233 13.5852 11.197 13.5983 11.1675 13.6245C11.1381 13.6507 11.1201 13.6859 11.1135 13.7308H11.4424H11.4432Z" fill="#E6E6E6"/>
<path d="M11.7689 13.8421H11.8262V13.8437C11.8262 13.8707 11.8343 13.8928 11.8499 13.9108C11.8654 13.9288 11.8842 13.9378 11.9071 13.9378C11.9301 13.9378 11.9472 13.9313 11.962 13.9174C11.9767 13.9035 11.9841 13.8863 11.9841 13.8658C11.9841 13.8454 11.9783 13.8282 11.9669 13.8159C11.9554 13.8036 11.935 13.7914 11.9047 13.7807C11.8564 13.7636 11.8253 13.7464 11.8106 13.7284C11.7959 13.7104 11.7885 13.6867 11.7885 13.6564C11.7885 13.622 11.8008 13.5934 11.8253 13.5697C11.8499 13.5459 11.8802 13.5345 11.9145 13.5345C11.9513 13.5345 11.9808 13.5451 12.0029 13.5664C12.025 13.5877 12.0364 13.6171 12.038 13.6547H11.9783C11.9767 13.6343 11.9701 13.6179 11.9587 13.6073C11.9472 13.5958 11.9309 13.5901 11.9104 13.5901C11.8924 13.5901 11.8769 13.5967 11.8654 13.6081C11.8532 13.6204 11.8474 13.6351 11.8474 13.6539C11.8474 13.667 11.8499 13.6777 11.8548 13.6867C11.8597 13.6957 11.8679 13.7038 11.8793 13.7104C11.89 13.7169 11.9055 13.7235 11.9251 13.7292C11.9448 13.7349 11.9587 13.7398 11.9652 13.7423C11.9922 13.7537 12.0127 13.7693 12.025 13.7881C12.038 13.8077 12.0438 13.8315 12.0438 13.8617C12.0438 13.8994 12.0307 13.9296 12.0045 13.9542C11.9783 13.9787 11.9456 13.991 11.9055 13.991C11.8654 13.991 11.8319 13.9779 11.8073 13.9509C11.7828 13.9239 11.7697 13.8879 11.7681 13.8429L11.7689 13.8421Z" fill="#E6E6E6"/>
<path d="M12.1493 13.9787V13.6008H12.0667V13.5451H12.1493V13.4044H12.2049V13.5451H12.2875V13.6008H12.2049V13.9787H12.1493Z" fill="#E6E6E6"/>
<path d="M12.3302 13.5443H12.385V13.775C12.385 13.8339 12.3948 13.8765 12.4136 13.901C12.4324 13.9256 12.4643 13.9378 12.5085 13.9378C12.5331 13.9378 12.5551 13.9329 12.5748 13.9223C12.5936 13.9125 12.6091 13.8977 12.6206 13.8781C12.6271 13.8667 12.6321 13.8536 12.6345 13.838C12.6378 13.8225 12.6386 13.7955 12.6386 13.7578V13.5443H12.6942V13.9787H12.6386V13.9321C12.6214 13.9526 12.6026 13.9673 12.5821 13.9763C12.5617 13.9853 12.5363 13.9902 12.5069 13.9902C12.4439 13.9902 12.3989 13.973 12.3711 13.9395C12.3433 13.9059 12.3293 13.8495 12.3293 13.7709V13.5443H12.3302Z" fill="#E6E6E6"/>
<path d="M13.1482 13.613V13.4036H13.2047V13.9779H13.1482V13.9124C13.1286 13.937 13.1048 13.9558 13.0754 13.9689C13.0468 13.9828 13.0157 13.9893 12.9838 13.9893C12.9216 13.9893 12.8684 13.9673 12.8259 13.9231C12.7833 13.8789 12.7612 13.8249 12.7612 13.7603C12.7612 13.6956 12.7825 13.6433 12.825 13.5991C12.8676 13.5557 12.9208 13.5336 12.9838 13.5336C13.0181 13.5336 13.0492 13.5402 13.077 13.5533C13.1048 13.5664 13.1286 13.586 13.1482 13.6114V13.613ZM13.1498 13.766C13.1498 13.7169 13.1335 13.6744 13.1008 13.6392C13.068 13.604 13.0296 13.5868 12.9854 13.5868C12.9412 13.5868 12.9003 13.6032 12.8676 13.6367C12.8349 13.6703 12.8185 13.7112 12.8185 13.7586C12.8185 13.8094 12.8349 13.8519 12.8676 13.8863C12.9003 13.9206 12.9396 13.9378 12.9862 13.9378C13.0288 13.9378 13.0672 13.9206 13.0999 13.8863C13.1327 13.8519 13.149 13.8118 13.149 13.7652L13.1498 13.766Z" fill="#E6E6E6"/>
<path d="M13.3486 13.4936H13.293V13.4036H13.3486V13.4936ZM13.293 13.9787V13.5443H13.3486V13.9787H13.293Z" fill="#E6E6E6"/>
<path d="M13.4148 13.7619C13.4148 13.6981 13.4369 13.6441 13.4802 13.5983C13.5236 13.5533 13.576 13.5304 13.6357 13.5304C13.6987 13.5304 13.7519 13.5525 13.7969 13.5975C13.8419 13.6425 13.8631 13.6948 13.8631 13.7562C13.8631 13.8208 13.8419 13.8765 13.7977 13.9223C13.7543 13.9681 13.702 13.991 13.6398 13.991C13.5776 13.991 13.5236 13.9689 13.4802 13.9239C13.4369 13.8789 13.4148 13.8249 13.4148 13.7619ZM13.4729 13.7619C13.4729 13.8118 13.4884 13.8536 13.5203 13.8879C13.5522 13.9215 13.5915 13.9386 13.639 13.9386C13.6864 13.9386 13.7249 13.9215 13.756 13.8879C13.7879 13.8544 13.8034 13.8118 13.8034 13.7611C13.8034 13.7104 13.787 13.6678 13.7551 13.6343C13.7232 13.6008 13.6823 13.5844 13.6332 13.5844C13.5891 13.5844 13.5514 13.6016 13.5195 13.6351C13.4876 13.6687 13.4721 13.7112 13.4721 13.7611L13.4729 13.7619Z" fill="#E6E6E6"/>
<path d="M5.84235 9.68054H5.33838V6.96844H6.03624L6.76029 9.02113L7.47942 6.96844H8.17483V9.68054H7.6725V7.64504L6.96891 9.68054H6.54185L5.84235 7.64504V9.68054Z" fill="#E6E6E6"/>
<path d="M9.96327 9.73287C9.58611 9.74024 9.22286 9.59216 8.95861 9.32381C8.40883 8.77894 8.40473 7.89127 8.95043 7.34148C8.95288 7.33821 8.95615 7.33576 8.95861 7.3333C9.5133 6.78188 10.4083 6.78188 10.963 7.3333C11.5104 7.88636 11.5054 8.77812 10.9524 9.32545C10.6889 9.58561 10.3339 9.73206 9.96327 9.73287ZM9.96327 7.38321C9.71865 7.37994 9.48385 7.47975 9.31695 7.65892C8.95943 8.03035 8.95943 8.61776 9.31695 8.9892C9.65893 9.3459 10.2251 9.35817 10.5826 9.01619C10.5916 9.00719 10.6006 8.99819 10.6096 8.9892C10.9671 8.61695 10.9671 8.02953 10.6096 7.65728C10.4427 7.47893 10.2079 7.37994 9.96327 7.38321Z" fill="#E6E6E6"/>
<path d="M12.2589 9.68054H11.7542V6.96844H12.3268L13.4534 8.94014V6.96844H13.9574V9.68054H13.3994L12.2589 7.71212V9.68054Z" fill="#E6E6E6"/>
<path d="M5.80962 12.7222H5.33838L6.29804 10.4109H6.63429L7.6046 12.7222H7.13008L6.88464 12.1266H6.06651L5.80962 12.7222ZM6.46821 11.0172L6.21869 11.7281H6.71447L6.46821 11.0172Z" fill="#E6E6E6"/>
<path d="M8.23942 12.7222H7.80908V10.4109H8.51595C8.81865 10.4109 9.04037 10.4952 9.1819 10.6638C9.29235 10.793 9.35207 10.9583 9.35125 11.1284C9.35453 11.2945 9.30299 11.4573 9.20563 11.5923C9.09191 11.7371 8.9291 11.8361 8.74829 11.8697L9.37253 12.7222H8.85547L8.23942 11.8386V12.7222ZM8.23942 10.8094V11.5162H8.51267C8.6223 11.5228 8.73111 11.4892 8.81784 11.4205C8.8931 11.3543 8.93319 11.2577 8.92828 11.1579C8.93237 11.0605 8.89065 10.9665 8.8162 10.9035C8.7303 10.8372 8.62394 10.8037 8.51595 10.8094H8.23942Z" fill="#E6E6E6"/>
<path d="M10.7723 12.3687C10.9752 12.3687 11.1683 12.273 11.3507 12.0816H11.8449C11.759 12.2877 11.6117 12.4612 11.4219 12.579C10.8566 12.9341 10.1104 12.7631 9.75619 12.1978C9.63592 12.0063 9.57211 11.7846 9.57129 11.558C9.5762 10.9002 10.1096 10.3684 10.7674 10.366C11.0946 10.3627 11.4088 10.496 11.6338 10.7333C11.7295 10.8315 11.8064 10.946 11.8588 11.0728H11.3736C11.2902 10.9697 11.1838 10.8879 11.0636 10.8323C10.9654 10.7889 10.8607 10.766 10.7535 10.7644C10.5514 10.7644 10.3583 10.8511 10.225 11.0033C9.92636 11.3199 9.92881 11.8157 10.2299 12.1299C10.3681 12.2837 10.5653 12.3704 10.7723 12.3687Z" fill="#E6E6E6"/>
<path d="M12.5953 12.7222H12.1658V10.4109H12.5953V11.3534H13.42V10.4109H13.8495V12.7222H13.42V11.7519H12.5953V12.7222Z" fill="#E6E6E6"/>
<path d="M8.24596 3.66133L9.033 3.40771L8.07415 3.15082L7.28711 3.40526L8.24596 3.66133Z" fill="#E6E6E6"/>
<path opacity="0.75" d="M3.30603 2.88835C3.30603 2.67237 3.48111 2.49729 3.69709 2.49647C3.73145 2.49647 3.76581 2.50138 3.79936 2.51038L7.30013 3.44713L8.25898 3.70403L13.1563 5.01303L12.9109 4.48207L9.04602 3.45041L8.08717 3.19351L3.91553 2.07677C3.4672 1.9565 3.00577 2.22321 2.88551 2.67155C2.86669 2.74191 2.85687 2.81472 2.85687 2.88753L2.85278 4.88213L3.30194 4.73732L3.30603 2.88835Z" fill="#E6E6E6"/>
<path d="M3.28151 8.13082L2.83645 6.46838L2.83154 8.53334L3.27742 10.195L3.28151 8.13082Z" fill="#E6E6E6"/>
<path opacity="0.75" d="M3.64149 15.1799C3.43778 15.1627 3.2807 14.9925 3.2807 14.788L3.29051 10.2375L3.2946 8.17258L3.30033 5.30341L2.9019 5.43594C2.88472 5.44085 2.86754 5.44821 2.85118 5.4564V6.51424L2.84545 8.5751L2.83154 14.7872C2.83236 15.2257 3.16861 15.5906 3.60549 15.6274L4.75905 15.7206L4.63633 15.26L3.64149 15.1799Z" fill="#E6E6E6"/>
<path d="M11.9691 15.8097L10.7263 16.1599L12.2709 16.2842L13.5145 15.934L11.9691 15.8097Z" fill="#E6E6E6"/>
<path opacity="0.75" d="M14.6576 15.6626L14.6338 15.7485C14.5839 15.9301 14.4129 16.0512 14.2248 16.0373L13.5285 15.9809L11.9831 15.8565L5.20654 15.31L5.33008 15.7706L10.7404 16.2067L12.285 16.331L14.188 16.4807H14.2559C14.6355 16.4807 14.9676 16.2263 15.0674 15.8598L15.1615 15.5145L14.6576 15.6626Z" fill="#E6E6E6"/>
<path d="M15.9224 10.9094L16.2169 11.5386L16.4353 10.7343L16.1408 10.106L15.9224 10.9094Z" fill="#E6E6E6"/>
<path opacity="0.75" d="M17.4981 5.96942C17.3868 5.7747 17.2027 5.63317 16.9859 5.5759L13.5874 4.66614L13.8328 5.1971L16.8697 6.00869C17.0792 6.06432 17.2035 6.27867 17.1479 6.48811C17.1479 6.48811 17.1479 6.48975 17.1479 6.49056L16.1547 10.1476L15.9362 10.9518L14.8228 15.0523L15.3259 14.9107L16.2308 11.581L16.4492 10.7767L17.5815 6.60919C17.6404 6.39321 17.611 6.16331 17.4989 5.96942H17.4981Z" fill="#E6E6E6"/>
<path d="M8.24508 3.66147L7.28705 3.4054L3.28885 4.69477L2.8397 4.83958L2.72352 4.87721C2.27437 5.02202 2.01748 5.49408 2.13938 5.94978L2.83152 8.53343L2.83643 6.46847L2.65971 5.81397C2.61308 5.63561 2.71371 5.45154 2.88879 5.39345L3.28721 5.265L8.24508 3.66147Z" fill="#E6E6E6"/>
<path d="M17.8033 13.6565L16.4354 10.7342L16.217 11.5384L17.3149 13.8848C17.3967 14.0582 17.3223 14.2644 17.1488 14.3462C17.1316 14.3544 17.1128 14.361 17.0948 14.3667L15.3121 14.8682L14.809 15.0081L11.9692 15.8074L13.5139 15.9318L14.6445 15.6135L15.1477 15.472L17.2445 14.8846C17.715 14.7528 17.9898 14.2636 17.8581 13.7932C17.845 13.7465 17.8279 13.7015 17.8074 13.6574H17.8033V13.6565Z" fill="#E6E6E6"/>
<path d="M11.6754 2.55536C11.7097 2.54391 11.7457 2.53818 11.7817 2.53818C11.9167 2.53818 12.0394 2.61509 12.0975 2.73617L12.8944 4.43951L13.1398 4.97048L15.9215 10.9068L16.1399 10.1034L13.823 5.15538L13.5775 4.62359L12.5851 2.51037C12.3953 2.10621 11.9347 1.90659 11.5101 2.0424L8.07397 3.15096L9.03282 3.40785L11.6754 2.55536Z" fill="#E6E6E6"/>
<path d="M6.17596 17.451C5.99025 17.5025 5.79717 17.3937 5.74645 17.2072V17.2056L5.34965 15.7239L5.22612 15.2633L3.31415 8.13007L3.31006 10.195L4.65588 15.2175L4.7786 15.6781L5.22612 17.3455C5.33002 17.7316 5.68018 18 6.08024 18C6.16287 18 6.2455 17.9885 6.32568 17.9664L12.3078 16.2811L10.7632 16.1567L6.17596 17.451Z" fill="#E6E6E6"/>
</svg>
