<svg width="20" height="20" viewBox="0 0 20 20" fill="none" xmlns="http://www.w3.org/2000/svg">
<path d="M4.27875 8.44404C4.07399 8.3178 3.83767 8.25152 3.59662 8.2527C3.27351 8.2527 2.98038 8.38013 2.71724 8.63539V8.35962H2V11.4949H2.78233V9.99845C2.78233 9.68007 2.80798 9.45559 2.85926 9.32579C2.9074 9.21138 2.98867 9.11394 3.09321 9.04608C3.19539 8.97467 3.3173 8.9364 3.44197 8.93601C3.87318 8.93601 4.08859 9.27135 4.08859 9.94164V11.4945H4.87092V9.80159C4.87092 9.42955 4.82792 9.14747 4.74152 8.95495C4.64249 8.74191 4.48153 8.56398 4.27914 8.44404H4.27875Z" fill="#E6E6E6"/>
<path d="M7.83287 8.44401C7.63561 8.32053 7.40797 8.25425 7.1756 8.25267C6.86787 8.2503 6.5708 8.36471 6.34434 8.57262V7.31213H5.56201V11.4948H6.34434V9.89821C6.34434 9.25712 6.55975 8.93637 6.99096 8.93637C7.42217 8.93637 7.64389 9.25475 7.64389 9.8919V11.4948H8.42623V9.72659C8.42623 9.37547 8.38007 9.10602 8.28775 8.91783C8.18557 8.71939 8.02776 8.55487 7.83366 8.44441L7.83287 8.44401Z" fill="#E6E6E6"/>
<path d="M10.6823 8.25262C10.2243 8.24434 9.78239 8.42187 9.4573 8.74499C9.11881 9.07323 8.94995 9.46735 8.94995 9.92697C8.94995 10.3866 9.1192 10.7807 9.4573 11.1089C10.1347 11.7642 11.209 11.7654 11.8879 11.1121C12.5432 10.4742 12.5574 9.42553 11.9195 8.77023C11.91 8.76077 11.9006 8.7513 11.8911 8.74183C11.5715 8.42069 11.1348 8.24395 10.6823 8.25262ZM11.3372 10.6339C11.1675 10.819 10.9269 10.9223 10.676 10.918C10.4223 10.9227 10.1781 10.8198 10.0049 10.6339C9.63878 10.2367 9.64154 9.62358 10.0112 9.22985C10.1809 9.04166 10.4227 8.93475 10.676 8.93633C10.9269 8.93554 11.166 9.04364 11.3309 9.23301C11.512 9.42316 11.6114 9.67724 11.607 9.93999C11.613 10.198 11.5159 10.4477 11.3372 10.6339Z" fill="#E6E6E6"/>
<path d="M13.9725 8.33431C13.8735 8.38875 13.7658 8.49133 13.6494 8.64164V8.35956H12.9385V11.4948H13.7208V9.73288C13.7208 9.25236 13.9512 9.00341 14.4124 8.98684V8.25935C14.3935 8.25501 14.3737 8.25304 14.3544 8.25304C14.2226 8.24791 14.0913 8.27592 13.9729 8.3347L13.9725 8.33431Z" fill="#E6E6E6"/>
<path d="M17.5022 8.74183C17.1826 8.42069 16.7463 8.24395 16.2934 8.25262C15.8353 8.24434 15.3935 8.42187 15.0684 8.74499C14.7299 9.07323 14.5606 9.46735 14.561 9.92697C14.561 10.3866 14.7303 10.7807 15.0684 11.1089C15.7458 11.7642 16.8201 11.7654 17.499 11.1121C18.1543 10.4742 18.1685 9.42553 17.5306 8.77023C17.5211 8.76077 17.5116 8.7513 17.5022 8.74183ZM16.9479 10.6336C16.7782 10.8186 16.5376 10.9219 16.2867 10.9176C16.033 10.9223 15.7888 10.8194 15.6156 10.6336C15.2495 10.2363 15.2522 9.62319 15.6219 9.22946C15.7915 9.04127 16.0334 8.93435 16.2863 8.93593C16.5372 8.93514 16.7763 9.04324 16.9412 9.23261C17.1223 9.42277 17.2217 9.67684 17.2173 9.93959C17.2233 10.1976 17.1262 10.4473 16.9475 10.6339L16.9479 10.6336Z" fill="#E6E6E6"/>
<path d="M10.7019 12.6878C10.8874 12.6878 11.0377 12.5375 11.0377 12.3521C11.0377 12.1667 10.8874 12.0164 10.7019 12.0164C10.5165 12.0164 10.3662 12.1667 10.3662 12.3521C10.3662 12.5375 10.5165 12.6878 10.7019 12.6878Z" fill="#E6E6E6"/>
<path d="M16.3033 12.6878C16.4887 12.6878 16.639 12.5375 16.639 12.3521C16.639 12.1667 16.4887 12.0164 16.3033 12.0164C16.1178 12.0164 15.9675 12.1667 15.9675 12.3521C15.9675 12.5375 16.1178 12.6878 16.3033 12.6878Z" fill="#E6E6E6"/>
</svg>
