<svg width="20" height="20" viewBox="0 0 20 20" fill="none" xmlns="http://www.w3.org/2000/svg">
<path d="M17.7545 7.39191L17.7948 6.87107H17.5492H17.5257L17.5462 6.61027H17.5698H17.8153L17.8344 6.36316H17.5888H16.3578H16.0886L16.0095 7.39191H16.2551L16.2346 7.65271H15.9897L15.9365 8.34386H16.2049H17.4359H17.6815L17.7347 7.65271H17.9803L18.0001 7.39191H17.7545Z" fill="#E6E6E6"/>
<path d="M16.7804 12.868H17.0267V13.1288H16.7804V12.868ZM17.4251 11.6697H15.6801L15.6482 12.0863H15.8938L15.874 12.3471H15.6284L15.5881 12.8687H15.3418L15.322 13.1295H15.5684L15.5281 13.6511H17.2731L17.3734 12.3479H17.619L17.6388 12.0871H17.3932L17.4251 11.6704V11.6697Z" fill="#E6E6E6"/>
<path d="M4.44302 7.39194L4.48332 6.87034H4.23773H4.21415L4.23468 6.60954H4.25825H4.50309L4.5221 6.36243H4.27726H3.04626H2.7771L2.69802 7.39194H2.94361L2.92308 7.65198H2.67749L2.62427 8.34313H2.89343H4.12443H4.37003L4.42325 7.65198H4.66808L4.68861 7.39194H4.44302Z" fill="#E6E6E6"/>
<path d="M3.45911 12.8664H3.70546V13.1272H3.45911V12.8664ZM4.10388 11.6681H2.35888L2.32695 12.0848H2.57254L2.55277 12.3456H2.30718L2.26688 12.8672H2.01977L2 13.128H2.24635L2.20605 13.6496H3.95105L4.05142 12.3463H4.29701L4.31678 12.0855H4.07119L4.10312 11.6689L4.10388 11.6681Z" fill="#E6E6E6"/>
<path d="M11.9143 12.8665H11.6466V12.6057H11.9143V12.8665ZM14.8462 6.60955H15.0918L15.1115 6.34875H11.3151L11.0741 9.47683H10.8346L10.8148 9.73762H11.0543L10.8331 12.6049H10.5654L10.5457 12.8657H10.8133L10.7532 13.6473H14.2995L14.3193 13.3865H14.5884L14.6569 12.4969H12.1317L12.1834 11.8225H11.8945L11.9143 11.5617H12.2032L12.2891 10.447H14.5839L14.6386 9.73686H14.3991L14.4189 9.47607H14.6584L14.6721 9.29662H12.3773L12.4039 8.95447H12.1629L12.1827 8.69367H12.4237L12.5157 7.49764H15.0218L15.0705 6.86883H14.8013L14.8211 6.60803H14.8447L14.8462 6.60955Z" fill="#E6E6E6"/>
<path d="M7.17419 9.46539H6.90503L6.94457 8.95596H7.19016L7.21069 8.69516H6.9651L7.02516 7.91276H6.756L6.77577 7.65196H7.04493L7.05634 7.49913H7.48061C7.86839 7.49913 8.17557 7.55008 8.40367 7.65196H8.13451C8.1558 7.66109 8.17709 7.67097 8.19686 7.68162C8.29646 7.73408 8.3725 7.81088 8.4242 7.91276H8.69337C8.76256 8.0481 8.78841 8.22755 8.77092 8.45033C8.76408 8.53701 8.75115 8.61836 8.73214 8.6944H8.97774C8.95416 8.7902 8.91995 8.87688 8.87737 8.9552H8.63178C8.57931 9.05024 8.51316 9.13312 8.43257 9.20307C8.23183 9.37719 7.86383 9.46463 7.3293 9.46463H7.17419V9.46539ZM8.68652 11.3024H8.44169V11.0416H8.68652V11.3024ZM9.67954 9.45475C9.94338 9.14072 10.0924 8.76435 10.1259 8.32563C10.1373 8.17888 10.1395 8.04126 10.1335 7.91352H9.8643C9.8605 7.82152 9.85137 7.73484 9.83845 7.65272H10.1076C10.0605 7.35391 9.9563 7.11744 9.79435 6.9456C9.52443 6.65971 9.20736 6.48939 8.84315 6.43313C8.47895 6.37762 7.9467 6.34949 7.24642 6.34949H5.85499L5.75462 7.65272H5.48546L5.46493 7.91352H5.73409L5.67402 8.69592H5.91962L5.89909 8.95672H5.65349L5.49306 11.0424H5.2239L5.20337 11.3032H5.47253L5.29157 13.6496H6.58188L6.76284 11.3032H6.49368L6.51345 11.0424H6.78261L6.81531 10.6166H7.2297C7.49354 10.6166 7.67982 10.6705 7.78855 10.7785C7.84862 10.8386 7.90412 10.9268 7.95507 11.0424H7.71024C7.74293 11.1176 7.77334 11.2043 7.80224 11.3032H8.04707C8.05315 11.3244 8.05924 11.3465 8.06532 11.3693L8.45842 12.8672L8.52685 13.128L8.66371 13.6496H10.1015L9.95326 13.128H9.6841L9.60958 12.8672H9.87875L9.28948 10.7945C9.22029 10.5717 9.13817 10.3885 9.0416 10.2455C8.94504 10.1026 8.82034 10.028 8.66751 10.0204C9.0781 9.9581 9.41494 9.76953 9.67878 9.45551" fill="#E6E6E6"/>
</svg>
