<svg width="20" height="20" viewBox="0 0 20 20" fill="none" xmlns="http://www.w3.org/2000/svg">
<path d="M12.0848 10.4151L10.3789 6.81575C10.3789 6.81575 8.75953 4.0774 9.74804 2L8.72216 3.22519C6.88218 5.41104 7.20826 7.82038 8.3719 9.2119L9.53846 10.6408C12.9246 14.6359 11.9383 16.3044 11.4986 16.7579C13.2932 15.0792 12.3779 10.9471 12.0848 10.4151Z" fill="#E6E6E6"/>
<path d="M9.87341 13.0655C9.87341 13.0655 9.06737 11.7048 9.55979 10.6723L9.05271 11.2783C8.13822 12.3643 8.30016 13.5616 8.87832 14.2526L9.45794 14.9627C11.1323 16.9411 10.6501 17.7706 10.4318 18C11.3206 17.1639 10.8663 15.1151 10.7198 14.8491L9.87341 13.0655Z" fill="#E6E6E6"/>
</svg>
