<svg width="20" height="20" viewBox="0 0 20 20" fill="none" xmlns="http://www.w3.org/2000/svg">
<path d="M13.9555 10C13.9555 9.74208 13.8891 9.49951 13.7727 9.28815C14.0167 8.84814 14.0312 8.29453 13.7618 7.82796C13.4941 7.36427 13.0117 7.10026 12.512 7.08842C12.2576 6.65865 11.7923 6.36809 11.2596 6.36025C10.9987 5.938 10.5316 5.65591 9.99978 5.65591C9.46793 5.65591 9.00088 5.938 8.73975 6.36025C8.20726 6.36825 7.74229 6.65833 7.48789 7.08778C7.3706 7.0905 7.25284 7.10714 7.13668 7.13818C6.75475 7.24059 6.43555 7.48555 6.23778 7.82796C5.9685 8.29453 5.9829 8.84814 6.2269 9.28815C6.11042 9.49951 6.04402 9.74208 6.04402 10C6.04402 10.2579 6.11042 10.5005 6.2269 10.7119C5.9829 11.1519 5.96834 11.7055 6.23778 12.172C6.50547 12.6357 6.98772 12.8996 7.48741 12.9114C7.74181 13.3412 8.2071 13.6318 8.73991 13.6398C9.00088 14.062 9.46809 14.3441 9.99994 14.3441C10.5318 14.3441 10.9988 14.062 11.26 13.6398C11.7923 13.6318 12.2574 13.3417 12.5118 12.9124C12.6291 12.9097 12.7469 12.893 12.863 12.8618C13.245 12.7594 13.5642 12.5145 13.7619 12.172C14.0312 11.7055 14.0168 11.1519 13.7728 10.7119C13.8893 10.5005 13.9557 10.2579 13.9557 10H13.9555ZM13.8584 10C13.8584 10.2208 13.8061 10.4296 13.7138 10.6149C13.5912 10.4293 13.4254 10.2683 13.22 10.1498C13.1046 10.0832 12.9827 10.0334 12.8573 10.0002C12.9827 9.96688 13.1045 9.9168 13.22 9.85024C13.4254 9.73168 13.5914 9.57071 13.7138 9.38511C13.8063 9.57055 13.8584 9.7792 13.8584 10ZM12.4553 12.8153C12.2233 12.8116 11.9947 12.7492 11.7881 12.6298C11.5955 12.5186 11.4401 12.3676 11.3256 12.1933C11.7763 12.1664 12.2072 11.9344 12.4718 11.5367C12.5669 11.7242 12.6208 11.9359 12.6208 12.16C12.6208 12.397 12.5608 12.6202 12.4553 12.8154V12.8153ZM11.2044 13.5425C10.7318 13.5313 10.3174 13.2821 10.0763 12.9103C10.5609 12.8855 10.9844 12.6265 11.2363 12.2445C11.33 12.4309 11.3832 12.6412 11.3832 12.8637C11.3832 13.1103 11.318 13.3418 11.2046 13.5425H11.2044ZM8.61639 12.8637C8.61639 12.6412 8.66951 12.4311 8.76327 12.2445C9.01512 12.6263 9.43865 12.8855 9.92329 12.9103C9.68217 13.2821 9.26776 13.5313 8.79511 13.5425C8.68167 13.3418 8.61655 13.1103 8.61655 12.8637H8.61639ZM7.3786 12.1599C7.3786 11.9357 7.43252 11.724 7.52757 11.5365C7.79221 11.9344 8.2231 12.1663 8.67383 12.1932C8.55927 12.3674 8.40374 12.5185 8.21126 12.6297C8.0047 12.7489 7.77605 12.8113 7.54405 12.8151C7.4386 12.6199 7.3786 12.3967 7.3786 12.1597V12.1599ZM7.54405 7.18474C7.77621 7.18842 8.0047 7.25083 8.21126 7.37019C8.4039 7.48139 8.55943 7.63259 8.67399 7.807C8.2231 7.83388 7.79237 8.06572 7.52773 8.46365C7.43253 8.27613 7.3786 8.06444 7.3786 7.84012C7.3786 7.60315 7.4386 7.37995 7.54405 7.18474ZM8.79495 6.45753C9.2676 6.46873 9.68201 6.71786 9.92313 7.0897C9.43848 7.1145 9.01496 7.37355 8.76311 7.75548C8.66935 7.56907 8.61623 7.35883 8.61623 7.13626C8.61623 6.8897 8.68135 6.65817 8.79479 6.45753H8.79495ZM11.383 7.13626C11.383 7.35883 11.3299 7.56891 11.2361 7.75548C10.9843 7.37371 10.5607 7.1145 10.0761 7.0897C10.3172 6.71786 10.7316 6.46873 11.2043 6.45753C11.3177 6.65817 11.3828 6.8897 11.3828 7.13626H11.383ZM12.6208 7.84012C12.6208 8.06444 12.5669 8.27613 12.4717 8.46365C12.2069 8.06572 11.7763 7.83372 11.3254 7.80684C11.44 7.63243 11.5955 7.48139 11.7881 7.37003C11.9947 7.25083 12.2232 7.18826 12.4553 7.18442C12.5608 7.37963 12.6208 7.60283 12.6208 7.83996V7.84012ZM11.2398 12.0439C11.0553 11.6685 11.0435 11.2162 11.2398 10.8195C11.3313 11.0042 11.3832 11.212 11.3832 11.4319C11.3832 11.6517 11.3315 11.8592 11.24 12.0439H11.2398ZM8.61639 11.4319C8.61639 11.2122 8.66807 11.0043 8.75975 10.8195C8.95592 11.2162 8.94424 11.6685 8.75975 12.0439C8.66823 11.8592 8.61655 11.6516 8.61655 11.4319H8.61639ZM8.94968 8.18492C8.94888 8.18188 8.94776 8.17884 8.94696 8.17564C9.1308 8.36173 9.36328 8.49949 9.62377 8.56797C9.36376 8.63629 9.13144 8.77374 8.94776 8.9595C9.01704 8.70862 9.0188 8.44285 8.94968 8.18476V8.18492ZM11.0518 8.95966C10.8681 8.7739 10.6359 8.63645 10.3758 8.56813C10.6363 8.49965 10.8688 8.36189 11.0526 8.1758C11.0518 8.17884 11.0507 8.18188 11.0499 8.18508C10.9808 8.44317 10.9825 8.70894 11.0518 8.95982V8.95966ZM9.99978 9.89648C9.80361 9.49983 9.81529 9.0475 9.99978 8.67229C10.1843 9.0475 10.1959 9.49983 9.99978 9.89648ZM8.95352 9.61455C9.13624 9.79728 9.36648 9.93248 9.62377 10C9.36648 10.0677 9.13624 10.2027 8.95352 10.3854C8.9868 10.2624 9.00472 10.1333 9.00472 10C9.00472 9.86672 8.98664 9.73744 8.95352 9.61455ZM8.84983 9.33599C9.26712 9.36383 9.66505 9.57983 9.91049 9.94832C9.46873 9.92 9.08264 9.68367 8.84983 9.33599ZM9.99978 10.1035C10.1959 10.5002 10.1843 10.9525 9.99978 11.3277C9.81529 10.9525 9.80361 10.5002 9.99978 10.1035ZM11.046 9.61455C11.0128 9.7376 10.9948 9.86672 10.9948 10C10.9948 10.1333 11.0129 10.2626 11.046 10.3854C10.8633 10.2027 10.6331 10.0675 10.3758 10C10.6331 9.93232 10.8633 9.79728 11.046 9.61455ZM10.0894 9.94832C10.3348 9.57999 10.7324 9.36399 11.1497 9.33615C10.9169 9.68351 10.5311 9.91984 10.0894 9.94832ZM10.8566 9.28607C10.5991 9.35503 10.3703 9.48911 10.1879 9.67375C10.2601 9.40879 10.2553 9.1331 10.1819 8.87662C10.3723 9.07054 10.6155 9.21215 10.888 9.27839C10.8776 9.28095 10.8672 9.28319 10.8568 9.28591L10.8566 9.28607ZM9.81161 9.67375C9.62921 9.48895 9.4004 9.35503 9.14296 9.28607C9.13256 9.28335 9.12216 9.28111 9.11176 9.27855C9.38424 9.21231 9.62745 9.07054 9.81785 8.87678C9.74441 9.13326 9.73945 9.40895 9.81177 9.67391L9.81161 9.67375ZM8.90775 10C8.90775 10.2216 8.85511 10.4309 8.76215 10.6167C8.66919 10.4309 8.61655 10.2214 8.61655 10C8.61655 9.77856 8.66919 9.56911 8.76215 9.38335C8.85511 9.56911 8.90775 9.77856 8.90775 10ZM9.91017 10.0517C9.66473 10.42 9.26712 10.636 8.84983 10.6639C9.08264 10.3165 9.46841 10.0802 9.91017 10.0517ZM11.1497 10.6639C10.7324 10.636 10.3348 10.42 10.0895 10.0517C10.5311 10.0802 10.9171 10.3165 11.1497 10.6639ZM11.092 10C11.092 9.7784 11.1446 9.56911 11.2376 9.38335C11.3305 9.56911 11.3832 9.77856 11.3832 10C11.3832 10.2214 11.3305 10.4309 11.2376 10.6167C11.1446 10.4309 11.092 10.2214 11.092 10ZM10.0961 8.62045C10.5297 8.65037 10.9089 8.88078 11.1412 9.21967C10.7076 9.18974 10.3284 8.95934 10.0961 8.62045ZM8.85831 9.21967C9.0908 8.88078 9.47001 8.65037 9.90345 8.62045C9.67097 8.95934 9.29176 9.18974 8.85831 9.21967ZM9.14296 10.7141C9.4004 10.6451 9.62921 10.5111 9.81161 10.3264C9.73945 10.5914 9.74425 10.8671 9.81769 11.1235C9.62745 10.9298 9.3844 10.7882 9.11224 10.7218C9.12248 10.7192 9.13272 10.7168 9.14296 10.7141ZM10.1879 10.3264C10.3703 10.5112 10.5991 10.6451 10.8566 10.7141C10.8668 10.7168 10.8771 10.7192 10.8873 10.7218C10.615 10.788 10.3721 10.9298 10.1819 11.1235C10.2553 10.8671 10.2603 10.5914 10.1879 10.3264ZM8.57191 10.3901C8.38934 10.2051 8.16054 10.071 7.90293 10.0021C7.90037 10.0014 7.89781 10.001 7.89525 10.0002C7.89781 9.99952 7.90037 9.99888 7.90293 9.99824C8.16054 9.92928 8.3895 9.79504 8.57191 9.61023C8.53799 9.73456 8.51943 9.86528 8.51943 10.0002C8.51943 10.135 8.53799 10.2658 8.57191 10.3901ZM9.90361 11.3797C9.47001 11.3498 9.0908 11.1194 8.85847 10.7805C9.29208 10.8104 9.67129 11.0408 9.90361 11.3797ZM11.1414 10.7805C10.9089 11.1194 10.5297 11.3498 10.0963 11.3797C10.3287 11.0408 10.708 10.8104 11.1414 10.7805ZM11.4278 9.61023C11.6104 9.7952 11.8392 9.92928 12.0968 9.99824C12.0993 9.99888 12.1019 9.99952 12.1045 10.0002C12.1019 10.0008 12.0993 10.0013 12.0968 10.0021C11.8392 10.071 11.6102 10.2053 11.4278 10.3901C11.4617 10.2658 11.4803 10.135 11.4803 10.0002C11.4803 9.86528 11.4617 9.73456 11.4278 9.61023ZM11.3297 9.33615C11.5355 9.34927 11.7414 9.40831 11.9317 9.51823C12.1219 9.62799 12.276 9.77664 12.3901 9.94832C11.9728 9.92048 11.5752 9.70448 11.3297 9.33631V9.33615ZM11.24 9.18062C11.0438 8.78398 11.0555 8.33165 11.24 7.95628C11.3315 8.14092 11.3832 8.34861 11.3832 8.56829C11.3832 8.78798 11.3315 8.99582 11.2398 9.18062H11.24ZM10.0897 8.51661C10.2039 8.34493 10.358 8.19628 10.5483 8.08636C10.7385 7.97644 10.9443 7.91708 11.15 7.90412C10.9174 8.25165 10.5313 8.48829 10.0897 8.51661ZM9.99994 8.45709C9.90697 8.27133 9.85433 8.06188 9.85433 7.84044C9.85433 7.61899 9.90697 7.40955 9.99994 7.22379C10.0929 7.40955 10.1455 7.61899 10.1455 7.84044C10.1455 8.06188 10.0929 8.27133 9.99994 8.45709ZM8.84999 7.90444C9.0556 7.91756 9.26136 7.9766 9.45161 8.08636C9.64185 8.19628 9.79609 8.34493 9.91017 8.51661C9.46857 8.48813 9.08264 8.25181 8.84999 7.90428V7.90444ZM8.75991 7.95644C8.9444 8.33181 8.95624 8.78414 8.75991 9.18078C8.66839 8.99614 8.61655 8.7883 8.61655 8.56845C8.61655 8.34861 8.66823 8.14108 8.75975 7.95644H8.75991ZM7.60997 9.94832C7.72405 9.7768 7.87813 9.62815 8.06838 9.51823C8.25878 9.40831 8.46471 9.34895 8.67047 9.33599C8.42503 9.70448 8.02726 9.92048 7.60997 9.94832ZM8.67063 10.6645C8.46471 10.6515 8.25878 10.5923 8.06838 10.4824C7.87813 10.3725 7.72405 10.2238 7.60981 10.0523C8.02726 10.0802 8.42518 10.2962 8.67063 10.6645ZM8.94808 11.0407C9.13176 11.2264 9.36392 11.3639 9.62409 11.4322C9.3636 11.5007 9.13112 11.6384 8.94728 11.8245C8.94808 11.8215 8.9492 11.8184 8.95 11.8152C9.01912 11.5572 9.01736 11.2914 8.94808 11.0405V11.0407ZM9.91033 11.484C9.79609 11.6557 9.64201 11.8044 9.45177 11.9143C9.26152 12.024 9.05576 12.0832 8.85015 12.0962C9.08296 11.7487 9.46873 11.5124 9.91033 11.4839V11.484ZM10.0001 11.5436C10.0931 11.7293 10.1457 11.9388 10.1457 12.1602C10.1457 12.3816 10.0931 12.5911 10.0001 12.7769C9.90713 12.5911 9.85449 12.3816 9.85449 12.1602C9.85449 11.9388 9.90713 11.7293 10.0001 11.5436ZM10.3761 11.4322C10.6361 11.3639 10.8684 11.2264 11.0521 11.0407C10.9828 11.2915 10.9811 11.5573 11.0502 11.8154C11.051 11.8184 11.0521 11.8215 11.0529 11.8247C10.8691 11.6386 10.6366 11.5008 10.3761 11.4323V11.4322ZM11.15 12.0962C10.9444 12.0831 10.7387 12.024 10.5484 11.9143C10.3582 11.8044 10.2039 11.6557 10.0899 11.484C10.5315 11.5125 10.9174 11.7488 11.15 12.0964V12.0962ZM12.3902 10.0523C12.2761 10.2238 12.1221 10.3725 11.9318 10.4824C11.7414 10.5923 11.5356 10.6514 11.3299 10.6645C11.5753 10.2962 11.9729 10.0803 12.3902 10.0525V10.0523ZM11.9803 9.43423C11.8569 9.36303 11.7261 9.31087 11.5915 9.27791C11.9573 9.18782 12.2701 8.96158 12.4725 8.65613C12.6782 9.05902 12.6669 9.52175 12.4766 9.90336C12.3539 9.716 12.1872 9.55375 11.9803 9.43439V9.43423ZM11.334 9.21999C11.5665 8.8811 11.9457 8.65069 12.3792 8.62077C12.1467 8.95966 11.7675 9.19006 11.334 9.21999ZM11.4292 8.9539C11.4625 8.83086 11.4804 8.70174 11.4804 8.56845C11.4804 8.32957 11.4232 8.10396 11.3224 7.90396C11.7446 7.92972 12.1478 8.14812 12.3944 8.52221C12.0185 8.54253 11.6795 8.70382 11.4292 8.9539ZM10.4999 8.0022C10.382 8.07036 10.2774 8.1526 10.186 8.24509C10.2227 8.11628 10.2428 7.9806 10.2428 7.84028C10.2428 7.60635 10.1881 7.38523 10.0911 7.18842C10.535 7.21739 10.9222 7.45643 11.1542 7.807C10.9307 7.81964 10.7067 7.88284 10.4999 8.0022ZM9.75737 7.84028C9.75737 7.9806 9.77737 8.11644 9.81417 8.24509C9.72297 8.15244 9.61817 8.0702 9.50025 8.0022C9.29352 7.88284 9.06952 7.81964 8.84599 7.807C9.078 7.45643 9.46537 7.21739 9.90905 7.18842C9.81209 7.38523 9.75737 7.60651 9.75737 7.84028ZM8.51959 8.56829C8.51959 8.70158 8.53767 8.83086 8.57079 8.95374C8.3207 8.70366 7.98166 8.54253 7.60581 8.52205C7.85237 8.14812 8.25542 7.92988 8.67767 7.90396C8.57687 8.1038 8.51959 8.32941 8.51959 8.56829ZM8.66599 9.21983C8.23238 9.1899 7.85317 8.9595 7.62085 8.62061C8.05446 8.65053 8.43367 8.88094 8.66599 9.21983ZM8.40854 9.27759C8.27398 9.31071 8.1431 9.36271 8.01974 9.43391C7.81301 9.55327 7.64613 9.71568 7.52341 9.90288C7.33316 9.52127 7.3218 9.05854 7.52757 8.65565C7.73013 8.96126 8.04278 9.1875 8.40854 9.27743V9.27759ZM8.01974 10.5663C8.1431 10.6375 8.27366 10.6896 8.40822 10.7227C8.04262 10.8128 7.72997 11.0391 7.52757 11.3445C7.3218 10.9416 7.33316 10.4789 7.52341 10.0973C7.64613 10.2846 7.81285 10.4469 8.01974 10.5663ZM8.66599 10.7805C8.43351 11.1194 8.0543 11.3498 7.62085 11.3797C7.85333 11.0408 8.23254 10.8104 8.66599 10.7805ZM8.57079 11.0466C8.53751 11.1696 8.51959 11.2987 8.51959 11.432C8.51959 11.6708 8.57671 11.8964 8.67767 12.0964C8.25542 12.0704 7.85253 11.8522 7.60581 11.4783C7.98166 11.4578 8.3207 11.2967 8.57079 11.0466ZM9.50009 11.9983C9.61801 11.9301 9.72265 11.8479 9.81401 11.7554C9.77737 11.8842 9.75721 12.0199 9.75721 12.1602C9.75721 12.3941 9.81193 12.6153 9.90889 12.8121C9.46521 12.7831 9.078 12.5442 8.84599 12.1938C9.06952 12.1812 9.29336 12.1176 9.50009 11.9983ZM10.2427 12.1602C10.2427 12.0199 10.2227 11.884 10.1859 11.7554C10.2771 11.848 10.3819 11.9303 10.4998 11.9983C10.7065 12.1176 10.9304 12.1812 11.1539 12.1938C10.9217 12.5442 10.5347 12.7831 10.091 12.8121C10.1879 12.6153 10.2427 12.394 10.2427 12.1602ZM11.4804 11.4322C11.4804 11.2989 11.4624 11.1696 11.4292 11.0467C11.6793 11.2968 12.0184 11.4579 12.3942 11.4784C12.1477 11.8524 11.7446 12.0706 11.3224 12.0965C11.4232 11.8967 11.4804 11.6711 11.4804 11.4322ZM11.334 10.7807C11.7677 10.8106 12.1469 11.041 12.3792 11.3799C11.9456 11.3499 11.5664 11.1195 11.334 10.7807ZM11.5918 10.7229C11.7264 10.6898 11.8571 10.6376 11.9803 10.5664C12.187 10.447 12.3539 10.2846 12.4766 10.0974C12.6669 10.4791 12.6782 10.9418 12.4725 11.3447C12.2701 11.0392 11.9574 10.813 11.5918 10.7229ZM12.5629 8.61997C13.0288 8.64925 13.4328 8.9099 13.661 9.28831C13.5443 9.48031 13.3795 9.64639 13.1718 9.7664C12.9792 9.8776 12.7706 9.9368 12.5622 9.9488C12.7656 9.54255 12.7792 9.05006 12.5629 8.61997ZM7.43797 9.9488C7.22964 9.9368 7.021 9.8776 6.82835 9.7664C6.62051 9.64639 6.45571 9.48031 6.33922 9.28831C6.56739 8.9099 6.9714 8.64925 7.43733 8.61997C7.221 9.05006 7.2346 9.54239 7.43797 9.9488ZM7.43733 11.3805C6.9714 11.3512 6.56739 11.0906 6.33922 10.7122C6.45587 10.5202 6.62067 10.3541 6.82835 10.2341C7.02116 10.1227 7.2298 10.0634 7.43813 10.0514C7.2346 10.4578 7.221 10.9503 7.43733 11.3805ZM12.5622 10.0517C12.7706 10.0637 12.9792 10.1229 13.1718 10.2341C13.3797 10.3541 13.5445 10.5202 13.661 10.7122C13.4328 11.0906 13.0288 11.3512 12.5629 11.3805C12.7792 10.9504 12.7656 10.4581 12.5622 10.0517ZM12.8382 7.23211C13.1952 7.32779 13.4934 7.55659 13.6783 7.8766C13.9199 8.29517 13.917 8.78862 13.7146 9.19118C13.4629 8.80702 13.0379 8.54621 12.5515 8.52157C12.6579 8.31741 12.7184 8.08572 12.7184 7.84012C12.7184 7.59451 12.6635 7.38427 12.5662 7.18714C12.6573 7.19306 12.7483 7.20795 12.8384 7.23195L12.8382 7.23211ZM12.3997 7.09066C12.1744 7.1025 11.9485 7.16586 11.7401 7.28619C11.6243 7.35307 11.52 7.43419 11.4281 7.52667C11.4622 7.40219 11.4808 7.27147 11.4808 7.13642C11.4808 6.89242 11.4211 6.66233 11.3161 6.45929C11.7704 6.48473 12.1664 6.73034 12.3998 7.09066H12.3997ZM9.99978 5.75304C10.4763 5.75304 10.8972 5.99512 11.146 6.36281C10.6668 6.39209 10.2487 6.65033 9.99978 7.02938C9.75065 6.65049 9.33256 6.39225 8.85351 6.36281C9.10248 5.99512 9.52345 5.75304 9.99978 5.75304ZM8.68407 6.45913C8.57911 6.66217 8.51943 6.89242 8.51943 7.13626C8.51943 7.27131 8.53799 7.40203 8.57207 7.52651C8.48023 7.43403 8.3759 7.35291 8.26006 7.28603C8.05542 7.16778 7.83045 7.10202 7.60101 7.0897C7.83445 6.7297 8.2303 6.48457 8.68407 6.45913ZM6.32178 7.87644C6.50659 7.55643 6.80483 7.32763 7.1618 7.23195C7.25188 7.20779 7.34292 7.1929 7.43397 7.18714C7.33668 7.38427 7.2818 7.60587 7.2818 7.84012C7.2818 8.07436 7.34228 8.31741 7.44869 8.52157C6.96228 8.54621 6.53731 8.80702 6.28562 9.19118C6.08322 8.78862 6.08034 8.29501 6.32194 7.8766L6.32178 7.87644ZM6.14114 10C6.14114 9.7792 6.19346 9.57039 6.28578 9.38511C6.40834 9.57071 6.57411 9.73168 6.77955 9.85024C6.89491 9.9168 7.01684 9.96688 7.14212 10.0002C7.01668 10.0334 6.89491 10.0832 6.77955 10.1498C6.57411 10.2683 6.40818 10.4293 6.28578 10.6149C6.1933 10.4294 6.14114 10.2208 6.14114 10ZM7.1618 12.7681C6.80483 12.6724 6.50659 12.4436 6.32178 12.1236C6.08018 11.705 6.08306 11.2115 6.28546 10.809C6.53715 11.1931 6.96212 11.454 7.44853 11.4786C7.34212 11.6828 7.28164 11.9144 7.28164 12.16C7.28164 12.4056 7.33652 12.6159 7.43381 12.813C7.34276 12.8071 7.25172 12.7924 7.16164 12.7682L7.1618 12.7681ZM7.60053 12.9098C7.82581 12.8978 8.05158 12.8343 8.2599 12.714C8.37574 12.6471 8.48007 12.566 8.57191 12.4735C8.53783 12.598 8.51927 12.7287 8.51927 12.8637C8.51927 13.1077 8.57895 13.3378 8.68391 13.5409C8.22982 13.5154 7.83381 13.27 7.60037 12.9097L7.60053 12.9098ZM9.99978 14.2471C9.52329 14.2471 9.10232 14.005 8.85351 13.6374C9.33272 13.6081 9.75081 13.3498 9.99978 12.9708C10.2489 13.3497 10.667 13.6079 11.146 13.6374C10.8971 14.005 10.4761 14.2471 9.99978 14.2471ZM11.3155 13.541C11.4204 13.338 11.4801 13.1077 11.4801 12.8639C11.4801 12.7289 11.4616 12.5981 11.4275 12.4737C11.5193 12.5661 11.6236 12.6473 11.7395 12.7141C11.9441 12.8324 12.1689 12.8985 12.3984 12.9108C12.1649 13.2706 11.7691 13.5158 11.3155 13.541ZM13.6778 12.1237C13.493 12.4437 13.1947 12.6725 12.8378 12.7682C12.7477 12.7924 12.6566 12.8073 12.5656 12.813C12.6629 12.6159 12.7178 12.3943 12.7178 12.16C12.7178 11.9258 12.6573 11.6828 12.5509 11.4786C13.0373 11.454 13.4622 11.1931 13.7139 10.809C13.9163 11.2115 13.9192 11.7052 13.6776 12.1236L13.6778 12.1237Z" fill="#E6E6E6"/>
<path d="M11.8656 6.77273L8.13626 6.77225L6.27271 9.99999L8.13114 13.2277H11.8634L13.7269 9.99999L11.8658 6.77273H11.8656ZM13.5236 9.89055L11.848 8.92013L11.8327 6.97801L13.5234 9.89055H13.5236ZM10.5779 10.9344H9.42173L8.88972 10.0182L9.42173 9.10205H10.5779L11.1099 10.0182L10.5779 10.9344ZM11.18 10.139L11.6418 10.9344H10.7182L11.18 10.139ZM9.99982 11.93L9.49229 11.0557H10.5075L9.99998 11.93H9.99982ZM9.28141 10.9344H8.35787L8.81964 10.139L9.28141 10.9344ZM8.81964 9.89743L8.35787 9.10205H9.28141L8.81964 9.89743ZM9.99982 8.10651L10.5073 8.98077H9.49213L9.99966 8.10651H9.99982ZM10.7182 9.10205H11.6418L11.18 9.89743L10.7182 9.10205ZM10.6478 8.98077L10.1089 8.05259L11.7112 8.98077H10.6478ZM9.35197 8.98077H8.29499L9.91454 8.01195L9.35197 8.98077ZM8.74955 10.0182L8.26475 10.8533V9.18318L8.74955 10.0182ZM9.35197 11.0557L9.85726 11.9261L8.35339 11.0557H9.35197ZM10.6478 11.0557H11.6706L10.1097 11.9824L10.6478 11.0557ZM11.2502 10.0182L11.729 9.19374L11.7421 10.8653L11.2502 10.0182ZM11.7263 8.84957L10.0944 7.90443L11.7112 6.93721L11.7263 8.84957ZM11.5475 6.89369L9.97422 7.83483L8.34923 6.89369H11.5475ZM8.26458 6.98425L9.8555 7.90587L8.26458 8.85757V6.98425ZM8.1817 6.93625L8.19194 6.94217H8.17818L8.18154 6.93625H8.1817ZM8.14314 12.9972L6.47591 10.1096L8.14314 11.0752V12.9972ZM8.14314 10.9341L6.56055 10.0182L8.14314 9.07149V10.9341ZM8.14314 8.93005L6.44343 9.94687L8.14314 7.00281V8.93005ZM8.26443 11.1455L9.91198 12.0997L8.26443 13.078V11.1455ZM8.45419 13.1065L10.0323 12.1695L11.6503 13.1065H8.45419ZM10.1534 12.0975L11.7442 11.153L11.7589 13.0266L10.1534 12.0975ZM11.8191 13.0615L11.813 13.058H11.8211L11.8191 13.0615ZM11.849 9.06077L13.4592 9.99359L11.8639 10.9408L11.849 9.06077ZM11.8648 11.0813L13.5346 10.0898L11.8795 12.9564L11.8648 11.0811V11.0813Z" fill="#E6E6E6"/>
<path d="M6.69481 9.0075C6.97482 8.94686 7.35787 8.8011 7.83404 8.57342C8.33197 8.33533 8.71486 8.09069 8.97198 7.8462C9.24351 7.58812 9.37551 7.36331 9.37551 7.15883C9.37551 7.06699 9.33407 6.98474 9.25551 6.92106C9.18078 6.86058 9.08526 6.82986 8.9715 6.82986C8.63981 6.82986 8.21292 7.01802 7.66635 7.40491C7.13994 7.77756 6.66809 8.28973 6.26329 8.9275C5.68471 9.06831 5.2335 9.13967 4.92166 9.13967C4.48869 9.13967 4.15748 9.05695 3.93716 8.89406C3.72131 8.73438 3.61651 8.5571 3.61651 8.35197C3.61651 8.0222 3.84308 7.68028 4.28997 7.33563C4.74309 6.98618 5.35975 6.80906 6.1228 6.80906C6.28681 6.80906 6.46153 6.82042 6.64185 6.84266L6.71402 6.85162L6.75626 6.66202L6.66649 6.65306C6.46025 6.63242 6.25897 6.62186 6.06824 6.62186C5.26839 6.62186 4.62117 6.78906 4.14452 7.11883C3.65875 7.45499 3.41235 7.85996 3.41235 8.32237C3.41235 8.60958 3.54675 8.85406 3.81172 9.04878C4.069 9.23791 4.43461 9.33375 4.89798 9.33375C5.25175 9.33375 5.65463 9.27855 6.09816 9.16975C5.69591 9.75872 5.35719 10.1947 5.08998 10.4675C4.8007 10.7627 4.47365 10.989 4.11796 11.14C3.76228 11.2911 3.39347 11.3677 3.02162 11.3677C2.75426 11.3677 2.54913 11.3224 2.41185 11.233C2.28369 11.1495 2.22128 11.0442 2.22128 10.9111C2.22128 10.8864 2.22432 10.8637 2.23072 10.8424C2.24304 10.8659 2.26145 10.8904 2.28881 10.9138C2.33873 10.9567 2.39809 10.9784 2.46545 10.9784C2.54129 10.9784 2.60705 10.9519 2.66097 10.8995C2.71473 10.8472 2.74321 10.7808 2.74321 10.7074C2.74321 10.6258 2.70945 10.5567 2.64545 10.5075C2.58705 10.4626 2.51601 10.4399 2.43473 10.4399C2.31393 10.4399 2.20976 10.4869 2.12496 10.5797C2.04208 10.6704 2 10.7818 2 10.9107C2 11.1119 2.0984 11.2743 2.29217 11.3936C2.47345 11.5053 2.71889 11.562 3.02162 11.562C3.64211 11.562 4.25973 11.3916 4.85718 11.0552C5.44887 10.7223 6.06712 10.0336 6.69513 9.00798L6.69481 9.0075ZM8.31565 7.23339C8.56685 7.10331 8.78862 7.03738 8.97486 7.03738C9.03822 7.03738 9.08558 7.05115 9.11582 7.07835C9.1443 7.10411 9.15758 7.13403 9.15758 7.17259C9.15758 7.32459 9.0187 7.5982 8.35741 8.03884C7.86908 8.36413 7.35883 8.60862 6.83786 8.76702C6.99546 8.51325 7.20458 8.24109 7.46155 7.95548C7.77436 7.6078 8.06172 7.36475 8.31565 7.23323V7.23339Z" fill="#E6E6E6"/>
<path d="M15.4887 10.8219L15.3631 10.6751L15.3023 10.7288C14.7034 11.2564 14.4273 11.3673 14.3009 11.3673C14.2897 11.3673 14.2826 11.3662 14.2785 11.3652C14.2785 11.3644 14.2785 11.3636 14.2785 11.3628C14.2786 11.3606 14.2858 11.3048 14.4754 11.1443L14.6834 10.9673C14.8454 10.83 14.9481 10.7169 14.9977 10.6217C15.0479 10.5255 15.0732 10.4243 15.0732 10.3211C15.0732 10.1318 14.9655 10.0231 14.7778 10.0231C14.6252 10.0231 14.4066 10.1241 14.1098 10.3319C14.0404 10.3806 13.9718 10.4307 13.9038 10.482C13.9836 10.3905 14.063 10.3011 14.1417 10.2139L14.5055 9.81001C14.5159 9.79945 14.5769 9.75257 14.9247 9.59241C15.5499 9.30664 16.067 8.9988 16.4622 8.67751C16.8833 8.33526 17.0793 8.08022 17.0793 7.87509C17.0793 7.69845 16.9742 7.59717 16.7908 7.59717C16.7296 7.59717 16.6505 7.61285 16.5494 7.64533C16.45 7.67717 16.3152 7.74629 16.1371 7.85653C15.9636 7.9639 15.7849 8.0967 15.6057 8.25126C15.4284 8.40438 15.2444 8.57815 15.0591 8.76759L14.1198 9.72569C14.1023 9.73849 14.0222 9.79481 13.7553 9.97914C13.5105 10.1484 13.2962 10.3094 13.1191 10.4575L12.7911 10.7284C12.1556 11.2819 11.8863 11.3979 11.7723 11.3979C11.7643 11.3979 11.7515 11.3961 11.7333 11.3808C11.7203 11.3699 11.7192 11.362 11.7192 11.355C11.7192 11.3387 11.7285 11.3174 11.7463 11.2934C11.7643 11.2689 11.822 11.2012 11.9938 11.0182L13.1449 9.79049H13.6909L13.7498 9.59641H13.3327L13.8894 8.98136L13.3785 8.9932L12.801 9.59625H12.438L12.3607 9.79033H12.553L12.3357 9.96138L11.4571 10.6807L11.4563 10.6799L11.4013 10.7265L11.3328 10.7825L11.3338 10.7835L11.1781 10.9152C10.9995 11.0673 10.8373 11.1803 10.696 11.2508C10.5267 11.3355 10.4438 11.3532 10.4043 11.3532C10.396 11.3532 10.3898 11.3508 10.3826 11.3448C10.38 11.3427 10.3789 11.3412 10.3786 11.3409C10.3786 11.3395 10.381 11.3208 10.4179 11.2796C10.4435 11.251 10.5165 11.1808 10.7189 11.0084C10.8922 10.8609 11.0091 10.7403 11.0763 10.6396C11.1475 10.5332 11.1837 10.4262 11.1837 10.3215C11.1837 10.2388 11.1533 10.0467 10.8717 10.0467C10.7006 10.0467 10.4424 10.1811 10.088 10.4556C10.1088 10.3963 10.1192 10.3391 10.1192 10.2838C10.1192 10.2103 10.0931 10.1478 10.0437 10.1025C9.99567 10.0585 9.93791 10.0363 9.87199 10.0363C9.65439 10.0363 9.29006 10.2558 8.72413 10.7281C8.3302 11.0729 7.94395 11.3212 7.57227 11.4694L8.93325 10.0396H8.3782L8.3542 10.0687C8.27436 10.1657 8.24396 10.1969 8.23292 10.2067L7.90587 10.5001C7.48874 10.8752 7.1953 11.1176 7.03386 11.2206C6.84457 11.3414 6.73977 11.3667 6.68505 11.3667C6.67593 11.3667 6.67001 11.3657 6.66665 11.3651C6.66649 11.3633 6.66633 11.3611 6.66633 11.358C6.66633 11.3561 6.67001 11.3083 6.81657 11.1758C7.14186 10.89 7.33482 10.7068 7.4065 10.6159C7.48586 10.5155 7.52618 10.407 7.52618 10.2934C7.52618 10.2255 7.50314 10.1655 7.4577 10.1153C7.41082 10.0635 7.34666 10.0361 7.27226 10.0361C7.17066 10.0361 7.04089 10.0827 6.87561 10.1782C6.72089 10.2678 6.58537 10.3619 6.47352 10.4574L6.08616 10.783L6.22328 10.9201L6.53176 10.6644C6.70905 10.5174 6.86521 10.406 6.99561 10.3332C7.14474 10.2502 7.2129 10.2332 7.24026 10.2307C7.23194 10.2454 7.21658 10.2675 7.18858 10.299C7.13674 10.3575 6.99481 10.4847 6.76697 10.6774C6.5172 10.8884 6.39064 11.099 6.39064 11.3028C6.39064 11.4164 6.44344 11.4774 6.4876 11.5084C6.54329 11.5476 6.60073 11.5675 6.65817 11.5675C6.73353 11.5675 6.81801 11.547 6.91657 11.5048C6.99977 11.4691 7.11722 11.3969 7.27418 11.2851L6.83481 11.7451C6.30904 11.9115 5.88855 12.1053 5.58455 12.3214C5.25238 12.5577 5.09766 12.7459 5.09766 12.9138C5.09766 12.981 5.12534 13.137 5.3823 13.137C5.60919 13.137 5.86695 13.0256 6.17032 12.7968C6.4588 12.579 6.71225 12.3569 6.92297 12.1368L7.2713 11.7752C7.75739 11.6614 8.2894 11.3579 8.85245 10.8734C9.4939 10.3361 9.75935 10.2233 9.86895 10.2233C9.87359 10.2233 9.87759 10.2235 9.88063 10.2238C9.86927 10.2467 9.82879 10.3099 9.68623 10.4526L8.60733 11.5265H9.17166L9.19486 11.5043C9.58911 11.1268 9.93951 10.816 10.2363 10.5804C10.5904 10.2993 10.7869 10.2403 10.8891 10.2403C10.9303 10.2403 10.944 10.2478 10.9451 10.2475C10.9451 10.2481 10.9456 10.2494 10.9456 10.2508C10.9445 10.2572 10.9293 10.3183 10.7075 10.5065L10.5506 10.6399C10.4118 10.7579 10.3258 10.8368 10.2875 10.8814C10.248 10.9275 10.212 10.984 10.1806 11.0494C10.147 11.1192 10.1301 11.1896 10.1301 11.2584C10.1301 11.338 10.1555 11.4062 10.2056 11.4611C10.257 11.5172 10.3221 11.547 10.3942 11.547C10.6485 11.547 11.0189 11.3267 11.5266 10.8737L11.7515 10.6913C11.5629 10.9113 11.4709 11.1022 11.4709 11.2726C11.4709 11.358 11.4987 11.4336 11.5533 11.4971C11.6103 11.5633 11.6837 11.5982 11.7658 11.5982C11.8986 11.5982 12.1628 11.523 12.9188 10.8736C13.1572 10.6761 13.3644 10.5091 13.5393 10.3734L12.4618 11.5267H13.0097L13.0321 11.5075C13.1449 11.4108 13.3036 11.2646 13.5037 11.0729C13.7009 10.8841 13.9026 10.7155 14.1034 10.5718C14.303 10.4291 14.4591 10.3324 14.5676 10.2849C14.7079 10.2233 14.7615 10.2166 14.7782 10.2166C14.7948 10.2166 14.8094 10.2217 14.8239 10.2327C14.8342 10.2406 14.835 10.2455 14.835 10.2523C14.835 10.2609 14.831 10.2859 14.7938 10.3303C14.7686 10.3606 14.6935 10.4347 14.4793 10.6167C14.2967 10.7718 14.1806 10.8835 14.1244 10.9579C14.0615 11.0409 14.0297 11.1332 14.0297 11.2324C14.0297 11.3227 14.0529 11.399 14.0988 11.4595C14.149 11.5259 14.2201 11.5609 14.3041 11.5609C14.4057 11.5609 14.5383 11.5129 14.709 11.4144C14.8695 11.3219 15.0215 11.2152 15.1607 11.0974L15.4886 10.8214L15.4887 10.8219ZM16.8651 7.86485C16.8651 7.88405 16.8601 7.90613 16.8494 7.93301C16.8256 7.99862 16.7694 8.08326 16.6822 8.18518C16.5656 8.32358 16.4144 8.46487 16.2329 8.60503C16.0497 8.74663 15.8192 8.89783 15.5484 9.05432C15.3703 9.15544 15.1916 9.24872 15.0177 9.33096C14.9687 9.35352 14.9252 9.37352 14.8865 9.39128C14.9852 9.28456 15.1291 9.13224 15.3379 8.91479C15.7854 8.44902 16.116 8.14198 16.3201 8.00246C16.5152 7.86901 16.676 7.80149 16.798 7.80149C16.8553 7.80149 16.8651 7.81733 16.8651 7.86485ZM5.29846 12.9208C5.29846 12.8728 5.3447 12.7302 5.77271 12.4413C6.02375 12.2718 6.29 12.1405 6.56729 12.0494L6.46504 12.1616C6.15496 12.4952 5.92583 12.7128 5.78407 12.8082C5.65047 12.8979 5.51526 12.9434 5.38214 12.9434C5.31494 12.9434 5.29942 12.928 5.29942 12.928C5.29942 12.928 5.29846 12.9259 5.29846 12.9206V12.9208Z" fill="#E6E6E6"/>
<path d="M17.9999 9.00727L17.3814 9.02423L15.5127 11.0654C15.4869 11.0555 15.4592 11.0499 15.4301 11.0499C15.3519 11.0499 15.2808 11.0804 15.2191 11.1408C15.1567 11.2016 15.125 11.2702 15.125 11.3448C15.125 11.4067 15.1472 11.4616 15.1893 11.5036C15.2314 11.5457 15.2864 11.568 15.3482 11.568C15.4218 11.568 15.4912 11.5411 15.5548 11.4878C15.6215 11.432 15.6567 11.3588 15.6567 11.2764C15.6567 11.2454 15.6509 11.216 15.6397 11.1889L17.9999 9.00711V9.00727Z" fill="#E6E6E6"/>
</svg>
