<svg width="20" height="20" viewBox="0 0 20 20" fill="none" xmlns="http://www.w3.org/2000/svg">
<path d="M14.103 8.78052C14.1286 8.77268 14.1283 8.74899 14.1347 8.7309C14.1995 8.54761 14.2634 8.36401 14.3277 8.18057C14.4199 7.91741 14.512 7.65425 14.605 7.39126C14.6344 7.30802 14.6198 7.31634 14.7119 7.31602C14.8271 7.31554 14.9424 7.3157 15.0575 7.3157C15.0728 7.3157 15.0882 7.31618 15.1036 7.3165C15.1225 7.31698 15.1306 7.32867 15.1321 7.34563C15.1333 7.36084 15.1337 7.37637 15.1337 7.39158C15.1333 7.99329 15.133 8.59484 15.1327 9.19655C15.1327 9.20679 15.1327 9.21704 15.1322 9.22728C15.1298 9.27018 15.1241 9.27738 15.0834 9.2777C14.9938 9.2785 14.9041 9.27834 14.8146 9.2777C14.7807 9.27738 14.7759 9.27162 14.7746 9.2364C14.7738 9.21335 14.7743 9.1903 14.7743 9.16725C14.7743 8.74738 14.7743 8.32752 14.774 7.90765C14.774 7.88748 14.7775 7.86667 14.7679 7.8449C14.7474 7.85594 14.7447 7.87659 14.7383 7.895C14.6672 8.10053 14.5961 8.30607 14.5251 8.51144C14.4465 8.73874 14.3679 8.96588 14.2891 9.19318C14.2824 9.21255 14.2744 9.23144 14.2682 9.25081C14.2616 9.27114 14.2475 9.27802 14.2275 9.27802C14.1481 9.2777 14.0687 9.27722 13.9893 9.2785C13.9607 9.27898 13.9487 9.26458 13.9403 9.24009C13.9118 9.15525 13.8819 9.07089 13.8528 8.98621C13.7289 8.62573 13.605 8.26525 13.4809 7.90477C13.4768 7.8926 13.4723 7.8806 13.467 7.86907C13.4652 7.86523 13.4604 7.86059 13.4568 7.86043C13.4473 7.85995 13.4449 7.86811 13.4446 7.87563C13.4438 7.89868 13.4435 7.92173 13.4435 7.94462C13.4435 8.35681 13.4435 8.76899 13.4435 9.18118C13.4435 9.20423 13.4433 9.22728 13.4415 9.25017C13.4403 9.26746 13.43 9.27786 13.4116 9.27786C13.3117 9.27786 13.2118 9.27802 13.1121 9.27786C13.0937 9.27786 13.0841 9.2673 13.0833 9.24937C13.0823 9.22888 13.0822 9.20839 13.0822 9.1879C13.082 8.59644 13.0819 8.00513 13.0819 7.41367C13.0819 7.39574 13.0815 7.37781 13.0822 7.35988C13.0838 7.32034 13.0865 7.3165 13.128 7.31634C13.2663 7.31554 13.4046 7.31666 13.5427 7.31522C13.5744 7.3149 13.5877 7.33011 13.597 7.357C13.6594 7.5358 13.7223 7.71428 13.7852 7.89276C13.8779 8.15576 13.9703 8.41892 14.0634 8.68176C14.0753 8.71521 14.083 8.75059 14.1031 8.78068L14.103 8.78052Z" fill="#E6E6E6"/>
<path d="M2.00764 7.32066C2.02252 7.3189 2.03501 7.31634 2.0475 7.31634C2.1397 7.31602 2.23174 7.3157 2.32394 7.31634C2.36748 7.31666 2.3702 7.31858 2.38093 7.36148C2.41406 7.4929 2.44607 7.62464 2.47889 7.75606C2.54996 8.04147 2.62119 8.32672 2.69243 8.61196C2.69659 8.62845 2.69467 8.6491 2.72252 8.65518C2.83249 8.2113 2.94246 7.76742 3.05243 7.32322C3.11085 7.30914 3.16736 7.31666 3.22306 7.3165C3.33479 7.31602 3.31318 7.30498 3.33768 7.4047C3.43596 7.8044 3.53248 8.20474 3.62949 8.60476C3.63365 8.62173 3.63413 8.6403 3.65366 8.6563C3.66854 8.6403 3.66982 8.61965 3.67415 8.6022C3.73273 8.3717 3.79036 8.14103 3.84814 7.91037C3.89168 7.73669 3.93506 7.56301 3.9786 7.38949C3.98293 7.37221 3.98757 7.35492 3.99301 7.33779C3.99733 7.32434 4.00774 7.31666 4.02182 7.31682C4.13163 7.31746 4.2416 7.3117 4.35141 7.32034C4.35349 7.32034 4.35525 7.3229 4.35765 7.32466C4.3607 7.34804 4.35157 7.36949 4.34533 7.39141C4.16893 7.99521 3.99269 8.599 3.81597 9.20279C3.79084 9.28859 3.8014 9.27786 3.71176 9.27866C3.65798 9.27914 3.60419 9.2793 3.55057 9.27834C3.51247 9.2777 3.50735 9.27418 3.49791 9.23705C3.47102 9.13044 3.44524 9.02351 3.41883 8.91674C3.34952 8.63629 3.28005 8.35569 3.21042 8.07524C3.2061 8.05795 3.20113 8.04083 3.19521 8.02418C3.19393 8.0205 3.18737 8.01682 3.18321 8.01682C3.17984 8.01682 3.17472 8.02162 3.17328 8.0253C3.16896 8.03731 3.16576 8.04979 3.16272 8.06212C3.1243 8.21595 3.08588 8.36978 3.04746 8.5236C2.99048 8.75187 2.93429 8.98029 2.87603 9.20807C2.8565 9.28427 2.86658 9.2777 2.78447 9.27818C2.72812 9.2785 2.67178 9.27866 2.61559 9.27786C2.57573 9.27738 2.57301 9.27562 2.56165 9.23753C2.53011 9.1322 2.49954 9.02655 2.4688 8.92106C2.32154 8.41796 2.17443 7.91485 2.02765 7.41158C2.01932 7.38261 2.00652 7.35412 2.00764 7.32066Z" fill="#E6E6E6"/>
<path d="M5.31274 8.28942C5.31274 8.00273 5.31274 7.71604 5.31274 7.42936C5.31274 7.41143 5.31242 7.3935 5.31274 7.37557C5.31402 7.31715 5.31466 7.31602 5.37388 7.31602C5.57093 7.31586 5.76814 7.31554 5.96519 7.31667C6.06844 7.31715 6.16912 7.33491 6.26452 7.37541C6.46237 7.45929 6.57442 7.61216 6.61284 7.82025C6.63861 7.96031 6.61604 8.09542 6.55489 8.22379C6.50015 8.33856 6.41579 8.42532 6.30198 8.48215C6.26997 8.49816 6.23635 8.51064 6.2037 8.52537C6.17696 8.53753 6.13342 8.53193 6.12622 8.56283C6.1195 8.59132 6.15375 8.61485 6.17136 8.63918C6.30534 8.82342 6.44012 9.00703 6.57474 9.19079C6.58835 9.20936 6.60196 9.22792 6.61476 9.24713C6.62693 9.26554 6.62196 9.27771 6.6018 9.27771C6.47886 9.27819 6.35609 9.27771 6.23315 9.27819C6.21346 9.27819 6.19889 9.27082 6.18785 9.25514C6.1776 9.24041 6.16704 9.22584 6.1568 9.21128C6.01753 9.01199 5.87843 8.8127 5.73901 8.61341C5.72588 8.59468 5.7118 8.57627 5.69739 8.5585C5.69515 8.55578 5.68778 8.55482 5.68426 8.55642C5.68058 8.55802 5.67674 8.56347 5.67642 8.56747C5.6753 8.5878 5.67498 8.60829 5.67482 8.62878C5.67482 8.81302 5.67482 8.99742 5.67482 9.18166C5.67482 9.20215 5.67514 9.22264 5.67402 9.24313C5.67258 9.2721 5.66714 9.27787 5.63576 9.27819C5.541 9.27883 5.4464 9.27867 5.35163 9.27787C5.32282 9.27755 5.31514 9.26954 5.31354 9.24185C5.31226 9.22136 5.31274 9.20087 5.31274 9.18038C5.31274 8.88345 5.31274 8.58652 5.31274 8.28958H5.31226L5.31274 8.28942ZM5.67514 7.94799C5.67514 8.03475 5.6745 8.12167 5.67546 8.20843C5.67578 8.2494 5.6801 8.25389 5.71884 8.25421C5.79791 8.25485 5.87715 8.25533 5.95623 8.25293C6.01577 8.25117 6.07244 8.23484 6.12366 8.20442C6.22307 8.1452 6.26468 8.05508 6.26308 7.94111C6.26148 7.83146 6.21266 7.75094 6.11822 7.69732C6.0686 7.66914 6.01465 7.65314 5.95767 7.65186C5.87859 7.6501 5.79935 7.6501 5.72028 7.65074C5.68074 7.65106 5.67578 7.65602 5.6753 7.69508C5.6745 7.77927 5.67498 7.86363 5.67498 7.94783L5.67514 7.94799Z" fill="#E6E6E6"/>
<path d="M10.8239 9.27468C10.8095 9.27612 10.7998 9.27804 10.7901 9.27804C10.6776 9.2782 10.5649 9.27708 10.4523 9.27884C10.4176 9.27948 10.3952 9.26763 10.3763 9.23898C10.3384 9.18135 10.2975 9.12549 10.258 9.06882C10.1527 8.91787 10.0474 8.76677 9.94186 8.61566C9.93018 8.59885 9.91865 8.58188 9.90585 8.56604C9.90153 8.56059 9.89288 8.55387 9.88776 8.55483C9.87623 8.55707 9.87495 8.56892 9.87495 8.57932C9.87463 8.60237 9.87447 8.62542 9.87447 8.64831C9.87447 8.83512 9.87479 9.02176 9.87431 9.20857C9.87415 9.2774 9.87335 9.27804 9.80724 9.27836C9.72289 9.27884 9.63837 9.27868 9.55401 9.27788C9.52456 9.27756 9.51815 9.27051 9.51639 9.24186C9.51527 9.22153 9.51559 9.20088 9.51559 9.18055C9.51559 8.59213 9.51543 8.0037 9.51559 7.41528C9.51559 7.30371 9.50615 7.31619 9.6134 7.31571C9.78996 7.31507 9.96652 7.31571 10.1431 7.31571C10.241 7.31571 10.3363 7.33092 10.4294 7.36149C10.6947 7.44889 10.8203 7.70357 10.8223 7.90398C10.8234 8.01843 10.8034 8.1276 10.7517 8.23053C10.6958 8.34162 10.6129 8.42549 10.5023 8.48232C10.4589 8.50457 10.4141 8.52362 10.3673 8.53642C10.3142 8.55099 10.3094 8.55595 10.3468 8.60686C10.4515 8.749 10.5554 8.89162 10.6598 9.03409C10.7036 9.09395 10.7477 9.15366 10.791 9.21369C10.8029 9.23002 10.8184 9.24426 10.8237 9.27484L10.8239 9.27468ZM9.87511 7.9528H9.87447C9.87447 8.00402 9.87447 8.05525 9.87447 8.10647C9.87447 8.14233 9.87399 8.17818 9.87527 8.21404C9.87655 8.24749 9.88296 8.25406 9.91705 8.25438C9.99645 8.25502 10.0758 8.25566 10.1552 8.25358C10.2122 8.25214 10.2665 8.23677 10.3166 8.20908C10.3979 8.16394 10.4467 8.09591 10.4594 8.0029C10.4643 7.96705 10.464 7.93167 10.4589 7.89582C10.4487 7.82346 10.4136 7.76584 10.3556 7.72262C10.3353 7.70741 10.3128 7.6946 10.2895 7.68404C10.2522 7.66691 10.2124 7.65459 10.1712 7.65363C10.0842 7.65155 9.99709 7.65171 9.91017 7.65203C9.886 7.65203 9.878 7.66083 9.87623 7.6842C9.87479 7.70197 9.87495 7.72006 9.87495 7.73798C9.87495 7.8097 9.87495 7.88141 9.87495 7.95312L9.87511 7.9528Z" fill="#E6E6E6"/>
<path d="M10.9912 9.27497C10.988 9.23976 11.0032 9.21783 11.0128 9.19478C11.2634 8.59034 11.5144 7.98607 11.7661 7.38196C11.797 7.30769 11.785 7.31633 11.8656 7.31569C11.922 7.31521 11.9783 7.31777 12.0343 7.31489C12.0691 7.31313 12.0844 7.32898 12.0965 7.35827C12.1299 7.44119 12.1656 7.5233 12.2002 7.6059C12.4208 8.13158 12.6412 8.65725 12.8616 9.18277C12.8685 9.19926 12.8755 9.21575 12.8819 9.23239C12.8976 9.27305 12.8952 9.27753 12.8541 9.27785C12.7518 9.27849 12.6493 9.27673 12.5471 9.27881C12.513 9.27945 12.4965 9.26633 12.4843 9.23623C12.4345 9.11298 12.3835 8.9902 12.3319 8.86775C12.2844 8.75522 12.3106 8.77251 12.1907 8.77171C12.0193 8.77059 11.848 8.77139 11.6766 8.77139C11.6638 8.77139 11.6508 8.77267 11.6382 8.77139C11.6049 8.7677 11.5873 8.78323 11.5746 8.81332C11.5223 8.93818 11.468 9.0624 11.4145 9.18693C11.4105 9.19638 11.4067 9.20582 11.4025 9.21511C11.3699 9.28762 11.3795 9.27769 11.3079 9.27833C11.2133 9.27897 11.1186 9.27849 11.024 9.27833C11.0139 9.27833 11.0038 9.27641 10.991 9.27513L10.9912 9.27497ZM11.7376 8.43123C11.7461 8.43267 11.756 8.43571 11.7659 8.43587C11.8783 8.4362 11.9908 8.4362 12.1032 8.4362C12.1083 8.4362 12.1134 8.43571 12.1184 8.43507C12.1349 8.43331 12.1418 8.42499 12.1382 8.4101C12.1354 8.39762 12.132 8.38529 12.1278 8.37329C12.0721 8.21161 12.0163 8.04978 11.9602 7.88827C11.9553 7.87402 11.9511 7.85882 11.938 7.84905C11.9103 7.89195 11.8251 8.12213 11.7425 8.37809C11.7373 8.39458 11.7265 8.4109 11.7376 8.43123Z" fill="#E6E6E6"/>
<path d="M15.4958 8.29646C15.4958 8.00737 15.4958 7.71828 15.4958 7.42903C15.4958 7.40854 15.4955 7.38805 15.496 7.36756C15.4973 7.31826 15.4986 7.31602 15.549 7.31586C15.6974 7.31538 15.8458 7.31586 15.9941 7.31586C16.1477 7.31586 16.3012 7.31586 16.4547 7.31586C16.4752 7.31586 16.4957 7.31554 16.5161 7.3165C16.5416 7.31778 16.5499 7.32434 16.5501 7.34771C16.5509 7.43719 16.5509 7.52683 16.5501 7.61631C16.5499 7.64144 16.5424 7.64817 16.5182 7.64945C16.4977 7.65057 16.4772 7.65025 16.4568 7.65025C16.2853 7.65025 16.1139 7.65025 15.9424 7.65025C15.922 7.65025 15.9016 7.65105 15.8811 7.65233C15.8699 7.65313 15.8622 7.65985 15.8608 7.67138C15.8592 7.68402 15.8582 7.69683 15.8581 7.70947C15.8579 7.83225 15.8581 7.95502 15.8581 8.07796C15.8581 8.08052 15.8581 8.08308 15.8581 8.08564C15.86 8.13254 15.8626 8.13526 15.9128 8.13655C15.9282 8.13703 15.9436 8.13655 15.9589 8.13655C16.115 8.13655 16.2711 8.13655 16.4271 8.13655C16.4476 8.13655 16.4681 8.13655 16.4884 8.13799C16.5121 8.13975 16.52 8.14743 16.5201 8.17208C16.5208 8.259 16.5205 8.34608 16.5205 8.433C16.5205 8.43556 16.5201 8.43812 16.52 8.44068C16.5189 8.45893 16.5081 8.46853 16.491 8.46966C16.4681 8.4711 16.4451 8.47142 16.422 8.47142C16.2659 8.47142 16.1099 8.47142 15.9538 8.47158C15.9308 8.47158 15.9079 8.47254 15.8848 8.47414C15.8702 8.4751 15.8619 8.48486 15.8602 8.49879C15.8586 8.51143 15.8584 8.52424 15.8584 8.53705C15.8584 8.64958 15.8582 8.76227 15.8584 8.8748C15.8584 8.89 15.8595 8.90537 15.8614 8.92058C15.8629 8.93146 15.8704 8.93947 15.8816 8.94027C15.9045 8.94203 15.9276 8.94299 15.9504 8.94299C16.1244 8.94331 16.2984 8.94347 16.4724 8.94347C16.5555 8.94347 16.5506 8.94155 16.5507 9.0243C16.5507 9.09602 16.551 9.16757 16.5502 9.23928C16.5499 9.27017 16.5437 9.27594 16.5152 9.27754C16.4998 9.2785 16.4844 9.27818 16.4691 9.27818C16.1723 9.27818 15.8754 9.27802 15.5786 9.27786C15.5684 9.27786 15.5581 9.27802 15.5479 9.27786C15.4984 9.27642 15.4962 9.27546 15.496 9.22503C15.4954 9.04591 15.4957 8.86679 15.4957 8.68767C15.4957 8.55721 15.4957 8.42676 15.4957 8.29614H15.4954L15.4958 8.29646Z" fill="#E6E6E6"/>
<path d="M17.764 7.83306C17.7179 7.83306 17.6718 7.83354 17.6257 7.8329C17.585 7.83226 17.5824 7.82954 17.5727 7.79304C17.5674 7.77335 17.5634 7.75318 17.556 7.73413C17.5311 7.6693 17.4848 7.62993 17.4156 7.61712C17.3878 7.612 17.3603 7.6088 17.3318 7.61296C17.2388 7.6264 17.1807 7.67795 17.161 7.76519C17.1406 7.85547 17.172 7.93518 17.2487 7.98465C17.3049 8.02098 17.3671 8.04467 17.4293 8.06868C17.4842 8.08981 17.5395 8.1095 17.5941 8.13143C17.6513 8.15432 17.7063 8.18185 17.7568 8.21739C17.9114 8.3264 17.9937 8.47479 17.9982 8.66527C18.0031 8.874 17.9234 9.04368 17.7635 9.17606C17.6574 9.26378 17.5351 9.30876 17.3971 9.31404C17.238 9.32013 17.0923 9.28443 16.9654 9.18518C16.8271 9.07714 16.7496 8.93483 16.7294 8.76099C16.7256 8.72802 16.7333 8.71825 16.7658 8.71793C16.8656 8.71713 16.9655 8.71713 17.0653 8.71761C17.0958 8.71777 17.0985 8.7213 17.1054 8.75219C17.1082 8.76468 17.1093 8.77748 17.1126 8.78981C17.1437 8.90282 17.2287 8.97165 17.3459 8.97837C17.3843 8.98061 17.4229 8.98061 17.4602 8.96973C17.6558 8.91258 17.6815 8.69681 17.5893 8.58107C17.5618 8.5465 17.5287 8.51897 17.4912 8.49608C17.4496 8.47062 17.4046 8.45222 17.3591 8.43493C17.278 8.40387 17.1949 8.3765 17.1166 8.33904C16.9577 8.26317 16.853 8.13943 16.8119 7.96608C16.7358 7.64545 16.9577 7.32643 17.2854 7.28193C17.3628 7.27136 17.439 7.27457 17.5141 7.29153C17.735 7.34148 17.9183 7.53388 17.9482 7.79208C17.9519 7.82393 17.9447 7.83194 17.9096 7.83242C17.861 7.83322 17.8123 7.83258 17.7636 7.83258L17.764 7.83306Z" fill="#E6E6E6"/>
<path d="M6.90506 8.2907C6.90506 7.99377 6.90506 7.69684 6.90506 7.40006C6.90506 7.30946 6.90074 7.3157 6.98734 7.3157C7.28684 7.3157 7.58633 7.31586 7.88583 7.31602C7.90119 7.31602 7.91656 7.31602 7.93193 7.31698C7.94633 7.31795 7.9553 7.32595 7.95722 7.34068C7.95818 7.3482 7.95914 7.35588 7.95914 7.36357C7.95914 7.44296 7.95994 7.5222 7.95898 7.60159C7.95834 7.64673 7.95466 7.65009 7.91032 7.65025C7.74144 7.65073 7.5724 7.65025 7.40353 7.65057C7.36767 7.65057 7.33182 7.65106 7.29612 7.65154C7.27771 7.65186 7.26859 7.66226 7.26795 7.68035C7.26731 7.69572 7.26667 7.71108 7.26667 7.72645C7.26651 7.83914 7.26635 7.95167 7.26635 8.06436C7.26635 8.07973 7.26667 8.09509 7.26779 8.1103C7.26891 8.12439 7.27659 8.13463 7.29132 8.13559C7.31421 8.13719 7.33726 8.13767 7.36031 8.13783C7.5215 8.13799 7.68285 8.13815 7.84405 8.13783C7.93529 8.13783 7.93033 8.142 7.93033 8.22139C7.93033 8.29054 7.93065 8.35953 7.92969 8.42868C7.92921 8.46182 7.92168 8.46886 7.88903 8.47078C7.86854 8.4719 7.84805 8.47142 7.82756 8.47158C7.66381 8.47158 7.49989 8.47126 7.33614 8.4719C7.26795 8.47222 7.26699 8.47302 7.26667 8.54009C7.26587 8.65279 7.26619 8.76532 7.26635 8.87801C7.26635 8.89081 7.26699 8.90362 7.26827 8.91626C7.27003 8.93451 7.28107 8.943 7.299 8.94332C7.31949 8.94364 7.33998 8.94412 7.36047 8.94412C7.53703 8.94412 7.71375 8.94396 7.89031 8.94428C7.95802 8.94428 7.9585 8.94508 7.95898 9.01199C7.95962 9.0837 7.95978 9.15525 7.95882 9.22696C7.95818 9.27354 7.95322 9.27755 7.90423 9.27819C7.85557 9.27883 7.80691 9.27835 7.75841 9.27835C7.50501 9.27835 7.25162 9.27883 6.99823 9.27867C6.89914 9.27867 6.90555 9.28843 6.90539 9.18935C6.90523 8.88985 6.90539 8.59036 6.90539 8.29102L6.90506 8.2907Z" fill="#E6E6E6"/>
<path d="M8.26034 8.29982C8.26034 8.00048 8.26034 7.70115 8.26034 7.40182C8.26034 7.30881 8.2541 7.3157 8.34854 7.3157C8.62482 7.3157 8.90127 7.31586 9.17755 7.31618C9.19548 7.31618 9.21341 7.31666 9.23118 7.31762C9.24574 7.31842 9.25391 7.32706 9.25583 7.34147C9.25615 7.34403 9.25663 7.34659 9.25663 7.34915C9.25663 7.43863 9.25711 7.52827 9.25631 7.61775C9.25615 7.64192 9.24782 7.64881 9.22349 7.65009C9.203 7.65105 9.18251 7.65073 9.16202 7.65073C9.01108 7.65073 8.86013 7.65073 8.70918 7.65073C8.68869 7.65073 8.6682 7.65121 8.64787 7.65233C8.63315 7.65313 8.62546 7.66241 8.6237 7.67666C8.62306 7.68178 8.62258 7.6869 8.62258 7.69187C8.62258 7.82489 8.62226 7.95791 8.62306 8.09093C8.62322 8.13014 8.62866 8.13591 8.66772 8.13607C8.82123 8.13703 8.97474 8.13655 9.12825 8.13687C9.1513 8.13687 9.17435 8.13719 9.19724 8.13863C9.21453 8.13959 9.22653 8.14871 9.22669 8.16712C9.22701 8.25916 9.22701 8.3512 9.22621 8.44324C9.22621 8.46165 9.21261 8.4695 9.19564 8.4703C9.17515 8.47126 9.15466 8.47174 9.13433 8.47174C9.00643 8.47174 8.87854 8.47174 8.75048 8.47174C8.73511 8.47174 8.71975 8.47174 8.70438 8.47174C8.61874 8.47158 8.62258 8.4735 8.62258 8.55081C8.62258 8.63261 8.62258 8.71457 8.62258 8.79636C8.62258 8.92938 8.62258 9.0624 8.62258 9.19542C8.62258 9.21575 8.62162 9.23624 8.62018 9.25657C8.61938 9.26809 8.61106 9.27434 8.60017 9.2761C8.59265 9.27738 8.58496 9.27802 8.57728 9.27802C8.48524 9.27802 8.39304 9.27834 8.301 9.27738C8.26722 9.27706 8.26258 9.27114 8.26114 9.23592C8.26034 9.21543 8.26082 9.19494 8.26082 9.17445C8.26082 8.8828 8.26082 8.59115 8.26082 8.2995H8.26034V8.29982Z" fill="#E6E6E6"/>
<path d="M4.58795 8.28605C4.58795 7.9944 4.58795 7.70275 4.58795 7.4111C4.58795 7.38805 4.58827 7.365 4.58939 7.34211C4.59003 7.32754 4.59884 7.31938 4.61325 7.31746C4.61837 7.31681 4.62349 7.31633 4.62845 7.31633C4.72305 7.31633 4.81782 7.31553 4.91242 7.31633C4.94283 7.31649 4.94828 7.3229 4.94972 7.35251C4.95068 7.373 4.95036 7.39349 4.95036 7.41382C4.95036 8.0048 4.95036 8.59563 4.95004 9.18662C4.95004 9.2873 4.95756 9.2777 4.85976 9.27818C4.78308 9.2785 4.70625 9.27866 4.62957 9.27786C4.595 9.27754 4.58987 9.27161 4.58843 9.23784C4.58763 9.21735 4.58795 9.19686 4.58795 9.17653C4.58795 8.87976 4.58795 8.58298 4.58795 8.28637V8.28605Z" fill="#E6E6E6"/>
<path d="M3.31439 12.0111C3.31439 11.8089 3.31439 11.6068 3.31439 11.4048C3.31439 11.3843 3.31391 11.3638 3.31471 11.3433C3.31631 11.3065 3.32223 11.3001 3.36161 11.2997C3.45269 11.2989 3.44773 11.2935 3.44789 11.3798C3.44789 11.39 3.44757 11.4003 3.44789 11.4105C3.44853 11.4228 3.44357 11.4395 3.45509 11.4457C3.4735 11.4558 3.48102 11.4352 3.49079 11.4254C3.64302 11.2745 3.82742 11.2464 4.02367 11.3018C4.2212 11.3575 4.34861 11.4947 4.39632 11.6938C4.44738 11.9071 4.4032 12.1004 4.24137 12.2578C4.14965 12.3468 4.03872 12.3942 3.91098 12.4014C3.85463 12.4046 3.79829 12.4046 3.74274 12.393C3.64782 12.3732 3.56442 12.3313 3.49655 12.2607C3.48775 12.2515 3.47878 12.2424 3.46886 12.2344C3.4615 12.2286 3.45221 12.232 3.45109 12.2399C3.44837 12.2573 3.44789 12.2754 3.44773 12.2932C3.44741 12.4057 3.44773 12.5184 3.44757 12.6309C3.44757 12.6514 3.44789 12.6719 3.44677 12.6922C3.44549 12.7156 3.43829 12.7218 3.41267 12.7234C3.39987 12.7242 3.38706 12.7242 3.37426 12.7241C3.31631 12.7234 3.31423 12.7223 3.31423 12.6634C3.31375 12.4459 3.31407 12.2285 3.31407 12.0109L3.31439 12.0111ZM3.86088 12.2795C3.96428 12.28 4.05472 12.2431 4.13524 12.1713C4.34269 11.9863 4.31868 11.6117 4.06049 11.4576C3.93515 11.3828 3.75795 11.3729 3.61581 11.4893C3.36641 11.6935 3.41091 12.0473 3.6411 12.2104C3.70545 12.256 3.77684 12.2807 3.86088 12.2795Z" fill="#E6E6E6"/>
<path d="M16.8994 11.6593C16.8994 11.4496 16.8991 11.2399 16.8994 11.0302C16.8994 10.9521 16.9027 10.9498 16.9826 10.953C16.9903 10.9533 16.998 10.9535 17.0055 10.9546C17.0197 10.9567 17.0286 10.9652 17.0294 10.9797C17.0305 11.0001 17.0311 11.0206 17.0313 11.0411C17.0314 11.1561 17.0313 11.2712 17.0313 11.3863C17.0313 11.4043 17.0316 11.4222 17.0324 11.44C17.0327 11.4476 17.0358 11.4553 17.0444 11.4568C17.0487 11.4576 17.055 11.4558 17.0582 11.4529C17.0735 11.4395 17.0879 11.4249 17.1031 11.4111C17.167 11.3537 17.2395 11.3133 17.3236 11.2928C17.604 11.225 17.8792 11.3762 17.9693 11.6501C18.0389 11.8617 17.9976 12.1358 17.7705 12.3015C17.6924 12.3584 17.6047 12.3906 17.5083 12.4004C17.3412 12.4175 17.1941 12.3759 17.0734 12.2549C17.0679 12.2494 17.0618 12.2448 17.0556 12.2403C17.0471 12.2341 17.0335 12.2398 17.033 12.2504C17.0318 12.281 17.0311 12.3117 17.0302 12.3423C17.0297 12.3597 17.0221 12.3724 17.0036 12.3733C16.8903 12.3796 16.8986 12.3788 16.8986 12.2805C16.8986 12.0734 16.8986 11.8662 16.8986 11.6591H16.8991L16.8994 11.6593ZM17.4294 12.2797C17.5421 12.28 17.6309 12.2458 17.7066 12.1784C17.8196 12.0777 17.867 11.9487 17.8576 11.8001C17.8484 11.6553 17.7798 11.5421 17.6578 11.4632C17.5179 11.3726 17.3343 11.3822 17.2048 11.4837C16.9876 11.6536 16.9516 12.0225 17.2309 12.2152C17.2936 12.2584 17.3633 12.2813 17.4294 12.2795V12.2797Z" fill="#E6E6E6"/>
<path d="M14.5797 12.0875C14.5979 12.0652 14.6013 12.0449 14.6072 12.0255C14.6722 11.8128 14.7374 11.6002 14.8025 11.3876C14.8062 11.3755 14.8096 11.363 14.8139 11.351C14.8198 11.3343 14.8201 11.3129 14.8382 11.305C14.8622 11.2946 14.8886 11.2967 14.9133 11.3037C14.9213 11.306 14.9295 11.3167 14.9328 11.3254C14.9413 11.3466 14.9472 11.3691 14.9539 11.391C15.0199 11.606 15.0857 11.8211 15.1518 12.0361C15.1569 12.0526 15.1569 12.0722 15.1798 12.0827C15.1942 12.0623 15.1992 12.038 15.2067 12.0146C15.2743 11.8054 15.342 11.5964 15.4097 11.3871C15.4145 11.3726 15.4186 11.3578 15.4239 11.3434C15.4386 11.3026 15.4409 11.301 15.4843 11.2999C15.4971 11.2996 15.5099 11.2996 15.5227 11.2999C15.5721 11.301 15.5779 11.3077 15.5625 11.3534C15.5099 11.511 15.4566 11.6684 15.4036 11.8257C15.3506 11.9832 15.2978 12.1408 15.2448 12.2983C15.2416 12.308 15.237 12.3173 15.2344 12.3271C15.2214 12.3767 15.2038 12.3772 15.1536 12.3738C15.1401 12.3729 15.1292 12.3663 15.1246 12.3527C15.1188 12.3357 15.1129 12.3189 15.1076 12.3018C15.038 12.0772 14.9685 11.8525 14.899 11.6279C14.8939 11.6111 14.8918 11.5927 14.8738 11.5807C14.8569 11.5992 14.8536 11.6216 14.8472 11.6428C14.7809 11.8605 14.7148 12.078 14.6485 12.2957C14.644 12.3104 14.638 12.3247 14.6351 12.3397C14.6298 12.3669 14.6136 12.3745 14.5842 12.3746C14.5451 12.3749 14.5341 12.3674 14.5226 12.3324C14.4782 12.1963 14.4316 12.0609 14.3857 11.9253C14.3244 11.7436 14.2628 11.5621 14.2014 11.3804C14.1949 11.361 14.1885 11.3415 14.1837 11.3218C14.1808 11.31 14.1891 11.3026 14.2002 11.3009C14.2978 11.2857 14.3122 11.2946 14.3426 11.3881C14.4099 11.5948 14.4769 11.8014 14.5448 12.0077C14.5534 12.034 14.5574 12.0628 14.5794 12.0875H14.5797Z" fill="#E6E6E6"/>
<path d="M12.2861 11.8789C12.1531 11.8789 12.0201 11.8789 11.8872 11.8789C11.8667 11.8789 11.8464 11.8797 11.8261 11.8814C11.815 11.8824 11.8078 11.8909 11.8069 11.9019C11.8061 11.912 11.8069 11.9224 11.8083 11.9325C11.833 12.0959 11.9511 12.2267 12.1086 12.265C12.2802 12.3067 12.4452 12.2497 12.5451 12.1142C12.5466 12.1121 12.5486 12.1102 12.5494 12.1078C12.5746 12.038 12.6308 12.034 12.6922 12.0388C12.7321 12.0418 12.7396 12.0508 12.7225 12.0846C12.6449 12.2377 12.5307 12.3479 12.3598 12.3909C12.0246 12.4753 11.6905 12.2333 11.6676 11.8889C11.6628 11.8172 11.6671 11.7463 11.6838 11.6757C11.7273 11.49 11.8996 11.3028 12.1395 11.2771C12.1984 11.2709 12.2564 11.2695 12.3153 11.2771C12.4091 11.2893 12.4933 11.3234 12.5659 11.3834C12.7095 11.5022 12.7723 11.6588 12.7755 11.842C12.7759 11.871 12.7691 11.8771 12.7391 11.8785C12.7186 11.8795 12.6982 11.8792 12.6778 11.8792C12.5474 11.8792 12.4169 11.8792 12.2866 11.8792V11.8787L12.2861 11.8789ZM12.2117 11.7634V11.7625C12.3114 11.7625 12.4111 11.7625 12.5109 11.7625C12.5339 11.7625 12.557 11.763 12.5799 11.762C12.6199 11.7604 12.6266 11.7521 12.6167 11.7161C12.5997 11.654 12.5739 11.5959 12.5346 11.5443C12.4982 11.4966 12.4534 11.4588 12.3983 11.4355C12.2933 11.391 12.184 11.3831 12.0761 11.4191C11.9268 11.4689 11.8448 11.5805 11.8125 11.7313C11.8085 11.7497 11.8166 11.7604 11.836 11.762C11.8538 11.7634 11.8717 11.7636 11.8896 11.7636C11.997 11.7636 12.1044 11.7636 12.2117 11.7636V11.7634Z" fill="#E6E6E6"/>
<path d="M16.1865 12.406C15.8802 12.4153 15.618 12.1467 15.6269 11.8281C15.6313 11.673 15.6791 11.5373 15.7908 11.4268C15.8757 11.343 15.9775 11.2949 16.0956 11.2783C16.1779 11.2668 16.2595 11.2674 16.3394 11.2893C16.547 11.3463 16.6664 11.4891 16.7205 11.6919C16.7345 11.7439 16.7406 11.7976 16.738 11.8517C16.7374 11.8661 16.7305 11.8763 16.7153 11.8771C16.6924 11.8784 16.6693 11.879 16.6463 11.879C16.3902 11.8794 16.1342 11.8794 15.8781 11.8795C15.8576 11.8795 15.8371 11.879 15.8166 11.8798C15.772 11.8814 15.7646 11.891 15.7721 11.937C15.7992 12.1031 15.92 12.231 16.0844 12.2674C16.2571 12.3056 16.4212 12.2466 16.5142 12.1025C16.547 12.0516 16.5832 12.0327 16.6391 12.0402C16.6492 12.0417 16.6596 12.0413 16.6696 12.0426C16.6879 12.045 16.6962 12.0585 16.6879 12.0756C16.6043 12.2506 16.4739 12.3665 16.2781 12.3993C16.2605 12.4022 16.2424 12.4028 16.2246 12.4041C16.2118 12.405 16.199 12.4054 16.1862 12.406H16.1865ZM16.1782 11.7625C16.2983 11.7625 16.4183 11.7631 16.5384 11.7622C16.5864 11.7619 16.5904 11.7543 16.5771 11.7068C16.5667 11.6698 16.5521 11.6344 16.5341 11.6005C16.4744 11.4894 16.3809 11.4248 16.2573 11.4043C16.2248 11.3988 16.1912 11.3995 16.1579 11.3991C15.9897 11.3979 15.827 11.5149 15.7828 11.7025C15.7804 11.7124 15.778 11.7223 15.7764 11.7324C15.7742 11.7471 15.7801 11.7579 15.7953 11.7595C15.8155 11.7615 15.836 11.7622 15.8565 11.7622C15.9637 11.7625 16.0711 11.7622 16.1784 11.7622L16.1782 11.7625Z" fill="#E6E6E6"/>
<path d="M7.57719 11.8416C7.57719 11.99 7.57719 12.1383 7.57719 12.2867C7.57719 12.3072 7.57671 12.3277 7.57527 12.348C7.57431 12.3628 7.56423 12.3712 7.55062 12.3728C7.53285 12.3749 7.51492 12.3756 7.497 12.3752C7.45074 12.3741 7.44625 12.3692 7.44481 12.3211C7.44417 12.2955 7.44417 12.2701 7.44305 12.2445C7.44289 12.2406 7.43841 12.2352 7.43473 12.2339C7.43089 12.2326 7.42496 12.2344 7.42096 12.2365C7.41664 12.2389 7.41328 12.2432 7.40976 12.2469C7.29819 12.364 7.15924 12.4085 7.00061 12.4031C6.8311 12.3972 6.69632 12.3255 6.59179 12.1934C6.39794 11.9487 6.43268 11.4856 6.81477 11.3209C6.93626 11.2685 7.06336 11.265 7.19062 11.2976C7.26089 11.3157 7.32332 11.3509 7.37694 11.4004C7.39199 11.4143 7.40592 11.4294 7.42096 11.4431C7.424 11.4459 7.43073 11.4472 7.43457 11.4457C7.43825 11.4444 7.44273 11.439 7.44289 11.4351C7.44401 11.402 7.44385 11.3687 7.44513 11.3354C7.44625 11.3068 7.4525 11.3002 7.48307 11.2997C7.58247 11.298 7.57703 11.2941 7.57687 11.3887C7.57687 11.5397 7.57687 11.6906 7.57687 11.8416H7.57719ZM7.44481 11.8781C7.44593 11.7068 7.39375 11.593 7.2913 11.5014C7.12819 11.3556 6.91978 11.3836 6.79156 11.4843C6.66014 11.5874 6.60732 11.7255 6.61932 11.8891C6.62925 12.0249 6.69375 12.1318 6.80452 12.2096C6.94411 12.3075 7.12931 12.3047 7.26249 12.2019C7.38094 12.1105 7.44161 11.9887 7.44465 11.8782L7.44481 11.8781Z" fill="#E6E6E6"/>
<path d="M2.95624 11.4431C2.97065 11.4183 2.96168 11.3897 2.96472 11.3626C2.96601 11.35 2.96569 11.337 2.96777 11.3245C2.97017 11.3108 2.97929 11.3024 2.9937 11.3008C2.99626 11.3005 2.99882 11.3 3.00138 11.3C3.10223 11.2984 3.09598 11.2912 3.09598 11.387C3.09598 11.6783 3.09598 11.9698 3.09598 12.2611C3.09598 12.2765 3.09614 12.2918 3.09598 12.3071C3.09486 12.3733 3.09214 12.376 3.02699 12.3752C2.97129 12.3746 2.96857 12.3706 2.96408 12.3143C2.962 12.2882 2.97641 12.2586 2.95096 12.2361C2.92423 12.2425 2.91222 12.267 2.89317 12.2829C2.81218 12.3503 2.71965 12.3898 2.61497 12.3997C2.55366 12.4055 2.49203 12.4057 2.43153 12.3935C2.19574 12.346 2.02078 12.1467 2.00253 11.9059C1.99725 11.8369 1.99981 11.7684 2.01422 11.7001C2.05696 11.4988 2.24808 11.2847 2.53381 11.2784C2.64138 11.276 2.74206 11.2948 2.83411 11.3524C2.86676 11.3729 2.89589 11.3975 2.92279 11.4251C2.93127 11.4337 2.93863 11.4455 2.9564 11.443L2.95624 11.4431ZM2.13811 11.8454C2.14003 12.0252 2.21863 12.1606 2.37982 12.2403C2.51076 12.305 2.6433 12.2971 2.76576 12.2145C3.01179 12.0484 3.03884 11.6837 2.79905 11.49C2.6329 11.3557 2.42368 11.3876 2.29867 11.495C2.19158 11.587 2.13795 11.7039 2.13811 11.8456V11.8454Z" fill="#E6E6E6"/>
<path d="M9.91538 12.4058C9.60692 12.4079 9.37434 12.2102 9.33192 11.9362C9.30086 11.735 9.35513 11.5605 9.50224 11.4185C9.65382 11.2722 9.83551 11.2285 10.0342 11.2911C10.2554 11.3611 10.3918 11.5152 10.4259 11.7479C10.4539 11.9396 10.3985 12.1076 10.2621 12.2467C10.1584 12.3524 10.0324 12.4066 9.91538 12.4058ZM10.2904 11.8397C10.2909 11.7878 10.2874 11.7367 10.2707 11.6876C10.2202 11.5376 10.1193 11.4384 9.96404 11.4057C9.80653 11.3726 9.67175 11.4179 9.56498 11.5431C9.43356 11.697 9.43501 11.9632 9.55202 12.115C9.73866 12.3572 10.102 12.326 10.2419 12.0538C10.2767 11.9865 10.2917 11.9146 10.2904 11.8395V11.8397Z" fill="#E6E6E6"/>
<path d="M10.7331 11.4011C10.7576 11.4015 10.7653 11.3903 10.7742 11.3818C10.9111 11.2538 11.1658 11.2539 11.3076 11.3359C11.4022 11.3906 11.4584 11.4724 11.48 11.5778C11.4893 11.6226 11.4954 11.669 11.4959 11.7146C11.4978 11.9166 11.4973 12.1187 11.4975 12.3207C11.4975 12.3309 11.497 12.3412 11.4954 12.3512C11.4936 12.3621 11.4861 12.3688 11.4755 12.3716C11.4706 12.3728 11.4654 12.3738 11.4605 12.374C11.3553 12.3769 11.3656 12.3759 11.3654 12.2863C11.3651 12.1124 11.3654 11.9384 11.3654 11.7646C11.3654 11.7134 11.3622 11.6626 11.3491 11.6125C11.3174 11.4917 11.2485 11.4302 11.1258 11.4127C11.0587 11.4033 10.9931 11.4057 10.9292 11.4292C10.8303 11.4657 10.7698 11.537 10.7453 11.6388C10.7339 11.6861 10.7307 11.7346 10.7307 11.7835C10.7307 11.9547 10.7304 12.1262 10.7302 12.2975C10.7302 12.3745 10.7342 12.3761 10.6475 12.3743C10.6095 12.3735 10.6025 12.3661 10.6004 12.33C10.5996 12.3171 10.5999 12.3043 10.5999 12.2915C10.5999 11.9898 10.5996 11.6879 10.5996 11.3862C10.5996 11.2962 10.6009 11.2952 10.6885 11.2992C10.691 11.2992 10.6936 11.2992 10.6961 11.2996C10.7221 11.3015 10.7283 11.3068 10.7299 11.3309C10.7315 11.3537 10.7321 11.3766 10.7333 11.4009L10.7331 11.4011Z" fill="#E6E6E6"/>
<path d="M8.79797 11.6244C8.7722 11.6336 8.74387 11.6263 8.71665 11.6293C8.67952 11.6335 8.65615 11.6191 8.63614 11.5864C8.58652 11.5056 8.51736 11.4444 8.425 11.4179C8.23484 11.3633 8.06772 11.4163 7.95679 11.5853C7.85675 11.7379 7.86235 11.9602 7.96608 12.1075C8.14184 12.3569 8.5004 12.3192 8.63502 12.095C8.6403 12.0862 8.64542 12.0774 8.65054 12.0686C8.65871 12.0545 8.66991 12.0452 8.6872 12.0454C8.72274 12.0455 8.75827 12.0454 8.78949 12.0454C8.80869 12.0646 8.79685 12.0791 8.79125 12.0913C8.69953 12.2874 8.54698 12.3941 8.32928 12.4047C8.057 12.418 7.82265 12.2418 7.7599 11.9767C7.69251 11.6922 7.8433 11.3996 8.11078 11.305C8.36145 11.2163 8.65022 11.2961 8.78629 11.5715C8.79397 11.5871 8.80549 11.6023 8.79829 11.6244H8.79797Z" fill="#E6E6E6"/>
<path d="M5.75696 12.4071C5.47859 12.4119 5.25977 12.1175 5.26025 11.8573C5.26057 11.6522 5.33773 11.4901 5.50212 11.3697C5.72302 11.2079 6.12448 11.2248 6.29672 11.5637C6.3036 11.5773 6.31001 11.5914 6.31497 11.6058C6.31881 11.6168 6.31449 11.6266 6.30184 11.6274C6.27895 11.6288 6.25574 11.6271 6.23285 11.6293C6.19572 11.633 6.17186 11.6191 6.1517 11.5866C6.10159 11.5059 6.03308 11.4449 5.94056 11.418C5.66572 11.3378 5.4858 11.5024 5.42593 11.6817C5.38991 11.7896 5.39039 11.8982 5.42881 12.0055C5.50853 12.2286 5.74591 12.3362 5.96537 12.2494C6.04957 12.2161 6.1136 12.1595 6.15762 12.081C6.17154 12.0562 6.18867 12.0426 6.21797 12.0444C6.24598 12.0462 6.27415 12.045 6.30216 12.0471C6.31401 12.0479 6.31881 12.0578 6.31529 12.0692C6.31145 12.0814 6.30696 12.0934 6.3012 12.1047C6.20148 12.3053 6.03836 12.4041 5.75712 12.4074L5.75696 12.4071Z" fill="#E6E6E6"/>
<path d="M13.3971 11.5627C13.3895 11.5405 13.3834 11.5184 13.3741 11.4976C13.3443 11.4303 13.2723 11.3945 13.1962 11.4078C13.1201 11.4212 13.068 11.479 13.0626 11.5544C13.0576 11.6228 13.085 11.6735 13.1433 11.7082C13.1786 11.7294 13.2171 11.7431 13.2561 11.7559C13.2926 11.7678 13.3299 11.7779 13.365 11.7931C13.498 11.8504 13.5695 11.9549 13.5495 12.1279C13.5326 12.2754 13.4159 12.385 13.2696 12.4001C13.2441 12.4026 13.2185 12.4031 13.1929 12.4028C13.0264 12.401 12.9328 12.2898 12.8976 12.1865C12.8851 12.1499 12.8788 12.1121 12.8743 12.074C12.8721 12.0559 12.8817 12.045 12.9001 12.0431C12.9128 12.0417 12.9257 12.0413 12.9384 12.0413C13.004 12.0418 13.0067 12.0401 13.0179 12.1055C13.0269 12.158 13.0536 12.2011 13.0944 12.235C13.1609 12.2901 13.2596 12.2928 13.3302 12.2422C13.3992 12.1928 13.4236 12.1059 13.3927 12.0231C13.3786 11.9853 13.353 11.9581 13.3201 11.9363C13.2814 11.9106 13.238 11.895 13.1954 11.8776C13.1529 11.8601 13.11 11.8432 13.0688 11.8228C12.9997 11.7887 12.9469 11.7399 12.9286 11.6604C12.9088 11.5741 12.915 11.4915 12.9641 11.4169C13.0192 11.3333 13.0964 11.2829 13.1985 11.2759C13.2552 11.272 13.3115 11.2744 13.3645 11.297C13.469 11.3417 13.5212 11.4239 13.5305 11.5352C13.5321 11.5541 13.523 11.5654 13.5052 11.5661C13.4697 11.5675 13.4338 11.5712 13.3973 11.5626L13.3971 11.5627Z" fill="#E6E6E6"/>
<path d="M7.81512 9.94023C7.98768 9.82082 8.16215 9.81105 8.33871 9.97929C8.3568 9.97353 8.36529 9.9564 8.37825 9.94471C8.48822 9.84547 8.61436 9.83074 8.75042 9.8754C8.809 9.89461 8.84998 9.93671 8.8764 9.99225C8.90201 10.046 8.91449 10.1032 8.91865 10.1624C8.9273 10.2825 8.92298 10.4028 8.92394 10.5231C8.92426 10.5563 8.92442 10.5896 8.92282 10.6228C8.92138 10.6513 8.91257 10.6588 8.88536 10.6598C8.87511 10.6601 8.86471 10.6604 8.85479 10.6588C8.8407 10.6567 8.8319 10.6477 8.83109 10.6333C8.83013 10.6129 8.82981 10.5925 8.82965 10.572C8.82949 10.4569 8.82949 10.3417 8.82949 10.2266C8.82949 10.1778 8.82565 10.1296 8.81125 10.0825C8.789 10.0099 8.74193 9.96584 8.6659 9.95224C8.62476 9.94487 8.58474 9.94471 8.54425 9.95432C8.45316 9.97577 8.39138 10.04 8.37825 10.1334C8.37153 10.1815 8.36897 10.2303 8.36817 10.2788C8.36673 10.3759 8.36769 10.4733 8.36769 10.5704C8.36769 10.5909 8.36753 10.6114 8.36625 10.6317C8.36513 10.6497 8.35488 10.6594 8.33647 10.6593C8.32383 10.6593 8.31086 10.6593 8.29838 10.6574C8.28781 10.6556 8.27949 10.6489 8.27885 10.637C8.27773 10.6167 8.27693 10.5962 8.27693 10.5757C8.27677 10.4529 8.27677 10.33 8.27693 10.2072C8.27693 10.1635 8.27324 10.1203 8.25836 10.0789C8.23387 10.011 8.18777 9.96792 8.11589 9.95368C8.08564 9.94759 8.05555 9.94327 8.02449 9.94679C7.9006 9.96088 7.82456 10.0368 7.81288 10.161C7.80952 10.1965 7.81 10.2325 7.80984 10.2684C7.80952 10.3707 7.80984 10.4731 7.80968 10.5754C7.80968 10.5933 7.80936 10.6113 7.80904 10.6292C7.80856 10.6469 7.79991 10.6578 7.7815 10.6593C7.77126 10.6601 7.76101 10.6602 7.75077 10.6598C7.72676 10.6586 7.71731 10.6511 7.71507 10.629C7.71331 10.6113 7.71315 10.5933 7.71315 10.5754C7.71315 10.3681 7.71315 10.1608 7.71315 9.95368C7.71315 9.94087 7.71299 9.92806 7.71363 9.91526C7.71603 9.87268 7.72084 9.86852 7.76502 9.86884C7.79559 9.869 7.81256 9.86836 7.81032 9.9119C7.81 9.91926 7.81304 9.92678 7.81576 9.94071L7.81512 9.94023Z" fill="#E6E6E6"/>
<path d="M10.6743 9.97273C10.6931 9.95496 10.6871 9.93879 10.6889 9.92438C10.691 9.90726 10.6823 9.88453 10.6999 9.87476C10.7227 9.86228 10.7496 9.8658 10.7744 9.87236C10.7797 9.8738 10.7856 9.88293 10.7865 9.88933C10.7889 9.90438 10.7889 9.9199 10.7889 9.93511C10.7889 10.2368 10.7889 10.5384 10.7889 10.8402C10.7889 10.8504 10.7891 10.8606 10.7886 10.8709C10.7869 10.9071 10.7795 10.9138 10.7416 10.9143C10.6966 10.9149 10.6892 10.9087 10.6889 10.8611C10.6881 10.7768 10.6886 10.6924 10.6884 10.6081C10.6884 10.598 10.6873 10.5877 10.6862 10.5776C10.6849 10.5669 10.6729 10.5628 10.6636 10.57C10.6556 10.5762 10.6481 10.5831 10.6402 10.5898C10.5411 10.6735 10.4256 10.6953 10.302 10.6718C10.1245 10.6378 9.99674 10.4904 9.98281 10.307C9.97225 10.1693 10.0132 10.0497 10.1168 9.95464C10.2569 9.8261 10.5016 9.81169 10.6425 9.94599C10.6516 9.95464 10.6617 9.96232 10.6742 9.97289L10.6743 9.97273ZM10.6908 10.2684C10.6934 10.1589 10.6505 10.0749 10.5714 10.0089C10.4651 9.92022 10.3198 9.91878 10.2103 10.0038C10.0651 10.1163 10.0612 10.3042 10.1141 10.4128C10.2036 10.5965 10.4565 10.6679 10.6157 10.476C10.6668 10.4145 10.6921 10.3436 10.691 10.2682L10.6908 10.2684Z" fill="#E6E6E6"/>
<path d="M6.1254 9.97641C6.14349 9.95383 6.13788 9.93543 6.13804 9.9183C6.13868 9.84403 6.13836 9.76991 6.13836 9.69564C6.13836 9.67771 6.13868 9.65978 6.139 9.64185C6.13916 9.62345 6.14893 9.6132 6.1667 9.61208C6.22768 9.60808 6.23665 9.61208 6.23665 9.67051C6.23665 9.97753 6.23697 10.2847 6.23713 10.5917C6.23713 10.6045 6.23713 10.6173 6.23569 10.63C6.23393 10.6469 6.22528 10.6583 6.20671 10.6593C6.20159 10.6596 6.19647 10.6599 6.19135 10.6601C6.14365 10.6612 6.14092 10.6585 6.13772 10.6093C6.13676 10.5944 6.13532 10.5797 6.13404 10.5647C6.10347 10.5618 6.09194 10.586 6.07449 10.5988C5.97605 10.6716 5.86592 10.697 5.74763 10.6698C5.57555 10.6305 5.47086 10.5178 5.43773 10.3468C5.4094 10.2005 5.44541 10.0684 5.5549 9.95976C5.6964 9.81937 5.949 9.81569 6.08714 9.94311C6.09834 9.95335 6.11003 9.96312 6.12492 9.97592L6.1254 9.97641ZM5.53265 10.2618C5.53201 10.3777 5.57827 10.4709 5.67319 10.537C5.75131 10.5914 5.83791 10.6047 5.92899 10.5735C6.05128 10.5315 6.1374 10.4054 6.14012 10.2724C6.14301 10.125 6.0452 10.0007 5.93363 9.95912C5.90498 9.94839 5.87488 9.94263 5.84367 9.94167C5.6764 9.93703 5.52497 10.0838 5.53265 10.2618Z" fill="#E6E6E6"/>
<path d="M15.0967 9.97256C15.121 9.97176 15.1276 9.95976 15.1369 9.95143C15.2632 9.83938 15.408 9.82242 15.5585 9.88436C15.708 9.94583 15.7893 10.0646 15.8024 10.2271C15.814 10.3683 15.7709 10.488 15.6643 10.5845C15.5226 10.7129 15.2704 10.7086 15.1437 10.585C15.1346 10.5762 15.1253 10.5674 15.1151 10.56C15.108 10.5551 15.0992 10.5575 15.0975 10.5661C15.0949 10.5784 15.0944 10.5914 15.0944 10.604C15.0941 10.6807 15.0944 10.7574 15.0943 10.8341C15.0943 10.852 15.0936 10.8698 15.0927 10.8877C15.0919 10.9027 15.0824 10.9111 15.0682 10.9119C15.053 10.9128 15.0376 10.9122 15.0226 10.9107C15.0114 10.9096 15.0045 10.9018 15.0032 10.8906C15.0016 10.8754 15.0006 10.86 15.0006 10.8448C15.0003 10.5432 15.0002 10.2416 15 9.94023C15 9.92742 15 9.91462 15.001 9.90197C15.003 9.87428 15.0096 9.86868 15.0402 9.8682C15.0504 9.86804 15.0607 9.86868 15.0708 9.86932C15.0863 9.87044 15.0927 9.8802 15.0935 9.89445C15.0948 9.91974 15.0957 9.94503 15.097 9.97256H15.0967ZM15.7029 10.2735C15.7029 10.1582 15.6595 10.064 15.5652 9.99609C15.4546 9.91654 15.3134 9.92406 15.2108 10.0126C15.037 10.1626 15.0685 10.4126 15.2307 10.5328C15.3027 10.5863 15.3832 10.6026 15.4705 10.5796C15.6096 10.5431 15.7021 10.4211 15.7029 10.2733V10.2735Z" fill="#E6E6E6"/>
<path d="M12.1976 10.2945C12.1029 10.2945 12.0083 10.2945 11.9135 10.2945C11.8956 10.2945 11.8777 10.295 11.8599 10.2964C11.8444 10.2977 11.8384 10.3081 11.84 10.3226C11.8412 10.3327 11.8432 10.3428 11.8456 10.3527C11.8761 10.4765 11.9527 10.5548 12.0777 10.5805C12.1988 10.6053 12.2998 10.568 12.3784 10.4722C12.3881 10.4603 12.3969 10.4477 12.4048 10.4345C12.4139 10.4195 12.4277 10.4142 12.4435 10.4144C12.4661 10.4144 12.4952 10.4038 12.5091 10.4229C12.5247 10.444 12.5011 10.4656 12.4898 10.484C12.3933 10.6406 12.2501 10.7019 12.0709 10.6748C11.9121 10.6508 11.7775 10.5162 11.7456 10.3558C11.7157 10.2053 11.7469 10.0709 11.8575 9.96009C11.9252 9.89222 12.0083 9.85588 12.1042 9.85028C12.1554 9.84724 12.2066 9.84563 12.2567 9.85956C12.4161 9.9039 12.504 10.0142 12.5415 10.1704C12.5439 10.1803 12.5444 10.1907 12.5458 10.2008C12.561 10.3042 12.5584 10.2938 12.4666 10.2942C12.3769 10.2945 12.2874 10.2942 12.1978 10.2942V10.2945H12.1976ZM12.1352 10.2079V10.2085C12.2116 10.2085 12.2881 10.2085 12.3644 10.2085C12.3822 10.2085 12.4001 10.2085 12.4179 10.2068C12.4331 10.2053 12.4403 10.1943 12.4366 10.18C12.4093 10.0723 12.352 9.99066 12.2412 9.9548C12.1888 9.93784 12.1355 9.9364 12.0824 9.94376C11.9657 9.96009 11.8671 10.0585 11.8472 10.1749C11.8432 10.1986 11.8496 10.2076 11.8754 10.2079C11.962 10.2085 12.0486 10.2082 12.1352 10.2082V10.2079Z" fill="#E6E6E6"/>
<path d="M6.81592 10.2945C6.72132 10.2945 6.62671 10.2945 6.53211 10.2945C6.51418 10.2945 6.49625 10.2949 6.47865 10.297C6.46712 10.2985 6.46152 10.3081 6.46296 10.3191C6.47881 10.4381 6.53995 10.5239 6.65265 10.5676C6.78422 10.6185 6.92669 10.5783 7.00672 10.4625C7.03666 10.4195 7.06899 10.408 7.11525 10.4136C7.13414 10.4158 7.14263 10.4281 7.13414 10.4451C7.06515 10.5834 6.95806 10.6695 6.80007 10.6786C6.60222 10.69 6.44007 10.5812 6.3802 10.3996C6.3189 10.2135 6.38068 9.99097 6.57341 9.89333C6.78695 9.78512 7.10629 9.85283 7.16616 10.1842C7.18889 10.3095 7.18713 10.2932 7.07668 10.2941C6.98976 10.2949 6.90284 10.2941 6.81592 10.2941V10.2945ZM6.76261 10.2075V10.2083C6.83689 10.2083 6.911 10.2083 6.98527 10.2083C7.0032 10.2083 7.02113 10.208 7.0389 10.2066C7.05411 10.2053 7.06131 10.1957 7.05923 10.1807C7.0421 10.0595 6.93581 9.95688 6.81112 9.94279C6.78086 9.93943 6.74965 9.93927 6.71924 9.94199C6.59486 9.95351 6.48809 10.0552 6.47 10.1775C6.46712 10.197 6.474 10.2071 6.49401 10.2072C6.58349 10.2079 6.67313 10.2075 6.76261 10.2075Z" fill="#E6E6E6"/>
<path d="M4.89429 10.4212C4.89141 10.4333 4.89093 10.444 4.88661 10.4525C4.82162 10.5786 4.69916 10.6975 4.47778 10.6783C4.32219 10.6647 4.17141 10.5403 4.13107 10.3825C4.08961 10.2199 4.11938 10.0723 4.24456 9.95256C4.30971 9.89029 4.3891 9.85699 4.47906 9.85075C4.53013 9.84723 4.58167 9.84531 4.63177 9.85876C4.79152 9.90149 4.88741 10.0092 4.91798 10.1671C4.94631 10.3137 4.95256 10.2929 4.81826 10.2937C4.64426 10.2948 4.4701 10.2937 4.2961 10.2942C4.27113 10.2942 4.24488 10.2885 4.22151 10.3026C4.22439 10.4565 4.3406 10.5773 4.49699 10.5871C4.60728 10.594 4.70092 10.5557 4.76223 10.4635C4.79825 10.4092 4.83827 10.4049 4.89429 10.4211V10.4212ZM4.22743 10.1994C4.238 10.2084 4.25096 10.2085 4.26361 10.2085C4.432 10.2085 4.60056 10.2085 4.76895 10.2085C4.77664 10.2085 4.78432 10.2082 4.79184 10.2074C4.81105 10.2055 4.81906 10.1951 4.81553 10.1771C4.79232 10.0595 4.70332 9.96824 4.58807 9.94519C4.54773 9.93719 4.5066 9.93719 4.4661 9.94231C4.33612 9.9588 4.23447 10.0691 4.22759 10.1994H4.22743Z" fill="#E6E6E6"/>
<path d="M3.03648 10.2945C2.94172 10.2945 2.84711 10.2945 2.75235 10.2945C2.73955 10.2945 2.72674 10.2942 2.71393 10.295C2.68912 10.2966 2.6824 10.3044 2.68672 10.3291C2.70817 10.4539 2.77668 10.5399 2.9001 10.5744C3.02511 10.6097 3.13252 10.5772 3.21848 10.4787C3.23017 10.4653 3.24009 10.4501 3.24954 10.435C3.25706 10.4233 3.26698 10.4158 3.28027 10.415C3.3054 10.4136 3.33822 10.4027 3.35342 10.4224C3.37087 10.4449 3.3443 10.4691 3.33149 10.4896C3.23593 10.6441 3.08114 10.7068 2.90202 10.6713C2.73538 10.6382 2.60781 10.4952 2.58588 10.3262C2.56779 10.1864 2.59932 10.0616 2.70193 9.96025C2.77012 9.89286 2.85272 9.85588 2.9486 9.85012C2.99982 9.84708 3.05105 9.84564 3.10115 9.85925C3.2545 9.90086 3.34254 10.0052 3.38352 10.1543C3.38816 10.1715 3.39088 10.1893 3.39312 10.2071C3.40529 10.3017 3.4016 10.2937 3.32029 10.2938C3.22552 10.2942 3.13092 10.2938 3.03616 10.2938V10.2942L3.03648 10.2945ZM2.97933 10.2079V10.2084C3.05089 10.2084 3.12228 10.2084 3.19383 10.2084C3.21432 10.2084 3.23465 10.2084 3.25514 10.2072C3.27803 10.2058 3.28523 10.1946 3.27995 10.1709C3.2537 10.0528 3.16342 9.96377 3.0472 9.94472C3.01727 9.93976 2.98606 9.93976 2.95564 9.94136C2.82999 9.94776 2.72242 10.0401 2.69473 10.1634C2.68752 10.1956 2.69489 10.2074 2.72674 10.2077C2.81094 10.2085 2.8953 10.208 2.97949 10.208L2.97933 10.2079Z" fill="#E6E6E6"/>
<path d="M13.7365 9.97448C13.7511 9.94391 13.7457 9.92054 13.7476 9.89781C13.7492 9.8802 13.7561 9.86884 13.7753 9.86852C13.842 9.86708 13.8452 9.86371 13.8451 9.93335C13.8447 10.1534 13.8447 10.3734 13.8446 10.5935C13.8446 10.596 13.8446 10.5986 13.8446 10.6012C13.8462 10.6606 13.833 10.6622 13.774 10.6588C13.7596 10.658 13.7508 10.6493 13.7484 10.6351C13.7444 10.6111 13.7517 10.5852 13.7402 10.5626C13.716 10.5626 13.7071 10.5805 13.6936 10.5911C13.5672 10.69 13.4269 10.707 13.2816 10.6477C13.1367 10.5885 13.0578 10.4725 13.0404 10.3182C13.0266 10.1962 13.0559 10.0848 13.1375 9.98937C13.2848 9.81697 13.5608 9.80865 13.7026 9.94631C13.7114 9.9548 13.7215 9.96216 13.7365 9.97448ZM13.1396 10.2695C13.1403 10.2849 13.1403 10.3002 13.1417 10.3154C13.1611 10.5075 13.3637 10.6375 13.5411 10.5716C13.6373 10.5359 13.7479 10.423 13.7476 10.258C13.7473 10.1147 13.6456 9.99865 13.5432 9.95944C13.4894 9.93895 13.4343 9.93767 13.3773 9.94999C13.2656 9.974 13.1348 10.0952 13.1396 10.2693V10.2695Z" fill="#E6E6E6"/>
<path d="M17.9982 10.2711C17.9982 10.3732 17.9982 10.4755 17.9982 10.5777C17.9982 10.5956 17.9982 10.6133 17.9972 10.6313C17.9964 10.6497 17.986 10.6586 17.9679 10.6593C17.9602 10.6596 17.9526 10.6599 17.9449 10.6598C17.9141 10.6593 17.9081 10.654 17.9057 10.6258C17.905 10.6181 17.9057 10.6105 17.905 10.6028C17.9036 10.5882 17.9113 10.5687 17.8967 10.5607C17.8792 10.5511 17.8708 10.5714 17.8604 10.581C17.8122 10.6252 17.7561 10.6542 17.6924 10.6684C17.3974 10.7339 17.213 10.512 17.1965 10.3268C17.1834 10.18 17.2169 10.0515 17.3302 9.95321C17.4578 9.84276 17.6034 9.82403 17.76 9.8831C17.8062 9.90055 17.8435 9.93176 17.8781 9.9665C17.8837 9.9721 17.892 9.97434 17.8988 9.96922C17.9021 9.96666 17.9037 9.96057 17.9041 9.95577C17.905 9.938 17.9045 9.92008 17.9057 9.90215C17.9076 9.87317 17.9124 9.86917 17.9444 9.86869C17.9546 9.86869 17.9649 9.86885 17.975 9.86981C17.9862 9.87077 17.9945 9.87702 17.9955 9.88822C17.9972 9.90855 17.9979 9.92904 17.998 9.94937C17.9982 10.0566 17.998 10.164 17.998 10.2713L17.9982 10.2711ZM17.6023 10.5889C17.6294 10.5906 17.6591 10.5842 17.6886 10.5743C17.8139 10.5324 17.9057 10.399 17.9052 10.2594C17.9049 10.1285 17.8149 9.99995 17.6934 9.95769C17.6414 9.9396 17.5889 9.93784 17.5348 9.95001C17.3913 9.9825 17.2692 10.1349 17.2983 10.3215C17.3225 10.4773 17.449 10.5881 17.6025 10.5887L17.6023 10.5889Z" fill="#E6E6E6"/>
<path d="M9.85582 10.2658C9.85582 10.3731 9.85582 10.4805 9.85582 10.5877C9.85582 10.6031 9.85582 10.6185 9.85438 10.6337C9.85326 10.6476 9.84622 10.658 9.83101 10.6588C9.8158 10.6596 9.80044 10.6591 9.78523 10.6585C9.77338 10.658 9.76618 10.6497 9.76522 10.6391C9.76298 10.6162 9.76298 10.5932 9.76154 10.5703C9.7609 10.5592 9.74777 10.5536 9.73929 10.5608C9.7276 10.5706 9.71704 10.5821 9.70503 10.5914C9.58146 10.6881 9.4438 10.706 9.30085 10.6492C9.15935 10.593 9.07755 10.4839 9.05594 10.3318C9.04762 10.273 9.0497 10.2141 9.06346 10.1567C9.10428 9.98651 9.25859 9.86085 9.43355 9.85205C9.54624 9.84629 9.64581 9.87558 9.7268 9.95722C9.73032 9.9609 9.73401 9.96442 9.73801 9.96762C9.74681 9.97467 9.76058 9.97034 9.76122 9.9601C9.76234 9.94489 9.76202 9.92952 9.76314 9.91416C9.76426 9.89943 9.75866 9.88038 9.77515 9.87286C9.79643 9.8631 9.82029 9.86582 9.84254 9.87174C9.8475 9.87302 9.85278 9.88342 9.85342 9.88999C9.85534 9.91032 9.85582 9.93081 9.85582 9.95113C9.85598 10.0558 9.85582 10.1607 9.85582 10.2654V10.2658ZM9.76234 10.2695C9.7617 10.1682 9.72424 10.0862 9.65429 10.0216C9.53888 9.91496 9.37592 9.91512 9.25923 10.0203C9.15727 10.1122 9.12205 10.2697 9.17696 10.3997C9.25315 10.5799 9.47101 10.6463 9.6226 10.5349C9.71528 10.4667 9.75898 10.3724 9.76234 10.2695Z" fill="#E6E6E6"/>
<path d="M16.5912 9.97929C16.608 9.9484 16.6011 9.92487 16.603 9.90246C16.6058 9.87316 16.6099 9.869 16.6416 9.8682C16.6519 9.86804 16.6621 9.86852 16.6722 9.86916C16.6874 9.87012 16.6951 9.88037 16.6962 9.89381C16.6981 9.91414 16.6984 9.93463 16.6984 9.95512C16.6984 10.1624 16.6981 10.3697 16.698 10.577C16.698 10.5898 16.6981 10.6026 16.6975 10.6154C16.6951 10.6537 16.6887 10.6596 16.6514 10.6598C16.6094 10.6599 16.6058 10.6561 16.6032 10.6114C16.6022 10.594 16.6069 10.5756 16.5966 10.5591C16.5776 10.5549 16.5699 10.5711 16.559 10.5805C16.4289 10.6919 16.2808 10.7102 16.1289 10.6439C15.9776 10.578 15.9011 10.4523 15.8941 10.2861C15.8883 10.1528 15.9301 10.038 16.0325 9.95112C16.1614 9.84195 16.3072 9.82338 16.4635 9.88405C16.5118 9.90278 16.5499 9.93735 16.5912 9.97929ZM16.6032 10.2516C16.6051 10.222 16.5973 10.1871 16.5854 10.1531C16.5428 10.0316 16.4233 9.94247 16.3026 9.94151C16.1748 9.94055 16.0577 10.0264 16.0128 10.1531C15.9909 10.2151 15.9872 10.2791 16.001 10.3419C16.0273 10.4608 16.0998 10.5419 16.2177 10.5768C16.3317 10.6106 16.4292 10.5781 16.5104 10.4939C16.5734 10.4283 16.6038 10.3492 16.6032 10.2514V10.2516Z" fill="#E6E6E6"/>
<path d="M11.5069 10.5885C11.4902 10.6007 11.4803 10.6081 11.4702 10.6153C11.3466 10.7046 11.2168 10.6964 11.0859 10.6366C11.0321 10.6119 11.0022 10.5628 10.9826 10.5083C10.9617 10.4501 10.9521 10.3891 10.9513 10.3278C10.9493 10.1898 10.95 10.0517 10.9505 9.91368C10.9505 9.87142 10.9559 9.86774 11.0009 9.86806C11.006 9.86806 11.0111 9.86854 11.0162 9.86838C11.0343 9.86822 11.0454 9.87654 11.0463 9.89511C11.0475 9.91544 11.0478 9.93593 11.0478 9.95642C11.0478 10.0664 11.0473 10.1764 11.0481 10.2862C11.0486 10.3398 11.0503 10.3931 11.0652 10.4458C11.0872 10.5226 11.136 10.5679 11.2138 10.5829C11.2704 10.594 11.3261 10.5906 11.3791 10.5673C11.4438 10.5388 11.4857 10.4899 11.503 10.4206C11.5131 10.3806 11.5155 10.34 11.5155 10.299C11.5155 10.1813 11.5155 10.0638 11.5155 9.94617C11.5155 9.92825 11.516 9.91048 11.5171 9.89255C11.5181 9.87782 11.5269 9.86998 11.5418 9.86902C11.5469 9.8687 11.552 9.86854 11.5571 9.86854C11.6047 9.86774 11.6101 9.87158 11.6103 9.91992C11.6109 10.1117 11.6107 10.3035 11.6107 10.4952C11.6107 10.5336 11.6114 10.5719 11.6103 10.6103C11.609 10.6564 11.6031 10.6611 11.5547 10.6599C11.5522 10.6599 11.5496 10.6599 11.547 10.6598C11.5237 10.6583 11.5209 10.6558 11.5157 10.6265C11.5147 10.6215 11.5152 10.6162 11.5142 10.6113C11.5133 10.6063 11.511 10.6017 11.5065 10.5889L11.5069 10.5885Z" fill="#E6E6E6"/>
<path d="M4.72266 11.6631C4.72266 11.8678 4.72266 12.0727 4.72266 12.2774C4.72266 12.2979 4.72298 12.3184 4.72186 12.3389C4.72057 12.3634 4.71289 12.3711 4.69032 12.3736C4.68776 12.374 4.6852 12.3743 4.68264 12.3744C4.57939 12.3762 4.58755 12.378 4.58755 12.2862C4.58755 11.8689 4.58771 11.4518 4.58803 11.0345C4.58803 11.0191 4.58771 11.0037 4.58868 10.9884C4.59012 10.964 4.59764 10.9565 4.62037 10.954C4.62293 10.9536 4.62549 10.9533 4.62805 10.9533C4.73034 10.9524 4.7225 10.9464 4.7225 11.041C4.72266 11.2483 4.7225 11.4558 4.7225 11.6631H4.72266Z" fill="#E6E6E6"/>
<path d="M2.24746 10.679C2.09123 10.6827 2.01056 10.5602 2.00319 10.4536C2.00127 10.4259 2.0096 10.4165 2.03729 10.4153C2.05009 10.4149 2.0629 10.4157 2.07555 10.4166C2.08675 10.4176 2.09411 10.4245 2.09732 10.435C2.1034 10.4546 2.10692 10.475 2.11492 10.4938C2.14806 10.5717 2.22841 10.6063 2.30461 10.5767C2.39905 10.5399 2.4213 10.4176 2.34591 10.3499C2.31869 10.3254 2.28492 10.3126 2.2521 10.2983C2.21689 10.2831 2.18087 10.2698 2.1463 10.2535C2.04929 10.2074 2.02112 10.136 2.03745 10.0241C2.04945 9.94153 2.12917 9.86533 2.21417 9.85349C2.24666 9.84885 2.28108 9.84901 2.31357 9.85349C2.40689 9.86629 2.47765 9.94585 2.48005 10.0368C2.48037 10.0513 2.47444 10.0616 2.4586 10.0622C2.44067 10.0629 2.42274 10.063 2.40481 10.0627C2.39073 10.0624 2.38096 10.0553 2.37664 10.0414C2.3736 10.0316 2.37136 10.0214 2.36672 10.0124C2.33662 9.95337 2.27195 9.92936 2.21049 9.95433C2.14566 9.98059 2.12581 10.0437 2.14406 10.1072C2.15222 10.1355 2.17303 10.1562 2.19896 10.1688C2.22873 10.1834 2.25995 10.1949 2.29132 10.206C2.3299 10.2196 2.36928 10.2309 2.40385 10.2541C2.45828 10.2906 2.48869 10.3412 2.49509 10.4067C2.51062 10.5663 2.40817 10.6791 2.24746 10.6791V10.679Z" fill="#E6E6E6"/>
<path d="M14.3479 10.0633C14.3382 10.0401 14.3321 10.0203 14.3222 10.0027C14.2924 9.95049 14.2255 9.93064 14.1678 9.95545C14.1149 9.97834 14.0852 10.039 14.1001 10.095C14.1093 10.1291 14.1302 10.1549 14.1611 10.1704C14.1883 10.1842 14.2175 10.1943 14.2461 10.2052C14.2724 10.2152 14.2996 10.2228 14.3254 10.2338C14.4155 10.2726 14.4574 10.3439 14.4581 10.4397C14.4587 10.5314 14.4198 10.6029 14.3383 10.6479C14.1728 10.7395 13.9812 10.6391 13.9618 10.4514C13.9594 10.4281 13.9674 10.4177 13.9902 10.4163C14.0028 10.4155 14.0158 10.4157 14.0284 10.4163C14.0454 10.4171 14.0566 10.4248 14.0609 10.4425C14.0656 10.4624 14.0699 10.4827 14.0784 10.501C14.1017 10.5508 14.1414 10.5812 14.1967 10.5874C14.257 10.5943 14.3191 10.5581 14.3402 10.5056C14.3649 10.4446 14.3434 10.3744 14.2881 10.3363C14.2605 10.3174 14.2293 10.3055 14.1984 10.2932C14.1629 10.279 14.127 10.2647 14.0936 10.2463C14.0135 10.2021 13.9782 10.123 13.995 10.0326C14.0139 9.9308 14.1001 9.85541 14.2039 9.85076C14.2242 9.8498 14.245 9.84964 14.2652 9.85236C14.3327 9.86149 14.3863 9.8935 14.4172 9.95545C14.4328 9.9865 14.4577 10.0243 14.4345 10.0547C14.4163 10.0785 14.3771 10.059 14.3479 10.0635V10.0633Z" fill="#E6E6E6"/>
<path d="M4.95361 11.832C4.95361 11.6837 4.95361 11.5355 4.95361 11.3873C4.95361 11.3668 4.95361 11.3463 4.95505 11.326C4.95601 11.3119 4.96418 11.3028 4.9789 11.3009C4.98403 11.3002 4.98899 11.2996 4.99411 11.2996C5.0932 11.2985 5.08791 11.2941 5.08791 11.3887C5.08775 11.6877 5.08759 11.9868 5.08743 12.2858C5.08743 12.3063 5.08679 12.3266 5.08583 12.3471C5.08503 12.362 5.07511 12.3698 5.06166 12.3724C5.05174 12.3743 5.04133 12.3745 5.03109 12.3748C4.95665 12.3769 4.95425 12.3751 4.95409 12.2997C4.95377 12.1438 4.95409 11.9879 4.95409 11.832H4.95361Z" fill="#E6E6E6"/>
<path d="M9.1524 11.8387C9.1524 11.9946 9.15288 12.1505 9.15224 12.3064C9.15192 12.3722 9.14776 12.3754 9.08277 12.3746C9.07252 12.3746 9.06228 12.3741 9.05219 12.3732C9.03475 12.3716 9.02386 12.3621 9.02258 12.3444C9.0213 12.3266 9.02082 12.3087 9.02066 12.2907C9.02034 11.9892 9.02002 11.6874 9.02002 11.3859C9.02002 11.2969 9.0229 11.2946 9.10966 11.2994C9.14296 11.3013 9.14984 11.3074 9.1516 11.3402C9.15272 11.3606 9.15224 11.3811 9.15224 11.4015C9.15224 11.5472 9.15224 11.6929 9.15224 11.8387H9.1524Z" fill="#E6E6E6"/>
<path d="M12.7447 10.3148C12.7447 10.2228 12.7447 10.1307 12.7447 10.0387C12.7447 10.0259 12.7449 10.0131 12.7439 10.0004C12.7422 9.97803 12.734 9.97003 12.7095 9.96875C12.6815 9.96731 12.6532 9.96827 12.6251 9.96683C12.6016 9.96555 12.5949 9.9577 12.5938 9.93273C12.5931 9.91993 12.5938 9.90712 12.5943 9.89447C12.5949 9.87975 12.6024 9.87046 12.6176 9.86982C12.6407 9.86886 12.6636 9.86886 12.6866 9.86838C12.7439 9.8671 12.7441 9.8671 12.7449 9.80628C12.7454 9.7653 12.7449 9.72448 12.745 9.6835C12.745 9.66813 12.745 9.65277 12.7462 9.63756C12.7471 9.62283 12.7567 9.61419 12.7707 9.61307C12.7859 9.61179 12.8012 9.61275 12.8164 9.61387C12.8278 9.61467 12.8355 9.62251 12.8369 9.6334C12.8392 9.65101 12.84 9.66893 12.8401 9.68686C12.8408 9.73536 12.84 9.78403 12.8414 9.83253C12.8422 9.86102 12.8494 9.86694 12.8797 9.86806C12.9027 9.86902 12.9258 9.86806 12.9487 9.8687C12.9868 9.86998 12.9906 9.87431 12.9908 9.9148C12.9908 9.92249 12.9904 9.93017 12.9901 9.93785C12.9893 9.95594 12.98 9.96635 12.9618 9.96683C12.9362 9.96763 12.9106 9.96731 12.8851 9.96827C12.8485 9.96987 12.8427 9.97595 12.8409 10.0148C12.84 10.0353 12.8404 10.0558 12.8404 10.0762C12.8404 10.2397 12.8404 10.4035 12.8404 10.5671C12.8404 10.59 12.8398 10.613 12.8377 10.6359C12.8364 10.65 12.8267 10.658 12.8121 10.6591C12.8096 10.6593 12.807 10.6595 12.8044 10.6596C12.7527 10.6625 12.746 10.6574 12.7457 10.6065C12.745 10.5093 12.7455 10.4121 12.7455 10.315L12.7447 10.3148Z" fill="#E6E6E6"/>
<path d="M16.9641 9.93321C16.9794 9.93497 16.9861 9.92233 16.9962 9.91529C17.015 9.90216 17.0327 9.88679 17.0532 9.87719C17.1233 9.84389 17.1451 9.85942 17.139 9.93545C17.1376 9.9529 17.1304 9.96427 17.1131 9.96827C17.1081 9.96939 17.103 9.97035 17.098 9.97147C17.0137 9.9894 16.9727 10.0443 16.9661 10.1277C16.9639 10.1557 16.9628 10.1839 16.9626 10.2119C16.962 10.3217 16.9618 10.4317 16.9617 10.5415C16.9617 10.5594 16.9615 10.5772 16.9617 10.5951C16.9621 10.6625 16.9492 10.6623 16.8888 10.6587C16.8743 10.6577 16.8662 10.6481 16.8651 10.6338C16.864 10.6212 16.8638 10.6084 16.8638 10.5956C16.8637 10.3758 16.8635 10.1562 16.8635 9.93641C16.8635 9.92105 16.8635 9.90568 16.8658 9.89063C16.8667 9.88407 16.8715 9.87399 16.8765 9.87255C16.8987 9.8663 16.922 9.86454 16.9437 9.87383C16.9487 9.87591 16.9511 9.88583 16.9532 9.89272C16.9573 9.90616 16.949 9.92329 16.9644 9.93353L16.9641 9.93321Z" fill="#E6E6E6"/>
<path d="M3.62221 9.93368C3.63982 9.9332 3.64686 9.91703 3.65935 9.90902C3.67856 9.89654 3.69681 9.88053 3.71794 9.87333C3.80069 9.84532 3.79829 9.8626 3.79717 9.92887C3.79685 9.94936 3.78885 9.96313 3.76836 9.96825C3.7634 9.96953 3.75843 9.97049 3.75331 9.97161C3.672 9.98858 3.63198 10.0425 3.62125 10.1213C3.61741 10.149 3.61709 10.1775 3.61693 10.2055C3.61645 10.3284 3.61693 10.4512 3.61661 10.5741C3.61661 10.5946 3.61629 10.6151 3.61485 10.6354C3.61389 10.6502 3.60429 10.6577 3.58988 10.6593C3.58476 10.6598 3.57963 10.6599 3.57451 10.6599C3.52841 10.661 3.52073 10.6553 3.52041 10.6081C3.51945 10.4288 3.51945 10.2497 3.51929 10.0704C3.51929 10.0192 3.51929 9.96793 3.51977 9.91671C3.51977 9.9015 3.51753 9.88245 3.53193 9.87445C3.55242 9.86308 3.57643 9.86548 3.59836 9.87317C3.60381 9.87509 3.60749 9.88485 3.60957 9.8919C3.61373 9.90582 3.60749 9.92279 3.62205 9.93384L3.62221 9.93368Z" fill="#E6E6E6"/>
<path d="M3.8925 10.2569C3.8925 10.1549 3.8925 10.0528 3.8925 9.95081C3.8925 9.93048 3.89314 9.90999 3.89522 9.88983C3.89586 9.88326 3.90162 9.87334 3.90674 9.87206C3.92915 9.86662 3.95236 9.8655 3.97445 9.87302C3.97958 9.87478 3.98374 9.88518 3.98454 9.89207C3.98646 9.90711 3.98662 9.92248 3.98662 9.93785C3.98662 10.1547 3.98662 10.3715 3.98662 10.5884C3.98662 10.6036 3.98662 10.619 3.98518 10.6342C3.9839 10.6481 3.97637 10.658 3.96133 10.6588C3.89874 10.6623 3.89218 10.6614 3.89234 10.6013C3.8925 10.4866 3.89234 10.3718 3.89234 10.257L3.8925 10.2569Z" fill="#E6E6E6"/>
<path d="M5.08785 11.0691C5.08785 11.0793 5.08785 11.0896 5.08785 11.0996C5.08801 11.175 5.08769 11.1701 5.01566 11.1701C4.95451 11.1701 4.95419 11.1698 4.95371 11.1052C4.95339 11.0644 4.95387 11.0236 4.95467 10.9828C4.95499 10.9649 4.96524 10.9543 4.98317 10.9538C5.00862 10.9532 5.03423 10.9529 5.05968 10.9543C5.07729 10.9553 5.08673 10.9671 5.08705 10.9849C5.08753 11.0129 5.08705 11.0411 5.08705 11.0691C5.08737 11.0691 5.08753 11.0691 5.08785 11.0691Z" fill="#E6E6E6"/>
<path d="M9.15241 11.0601C9.15241 11.0729 9.15337 11.0857 9.15225 11.0984C9.15033 11.1205 9.16185 11.1507 9.13992 11.1624C9.10823 11.1794 9.07061 11.1717 9.03572 11.1658C9.03059 11.165 9.02419 11.1547 9.02355 11.1483C9.01731 11.0924 9.01875 11.0363 9.02259 10.9804C9.02355 10.9666 9.03187 10.9565 9.04644 10.9551C9.06421 10.9533 9.08198 10.9524 9.0999 10.9527C9.14713 10.9537 9.15065 10.9573 9.15225 11.0066C9.15289 11.0244 9.15225 11.0423 9.15225 11.0603H9.15241V11.0601Z" fill="#E6E6E6"/>
<path d="M3.98677 9.67611C3.98677 9.69708 3.98677 9.70204 3.98677 9.70717C3.98709 9.77568 3.98533 9.77264 3.91874 9.77136C3.90433 9.77104 3.89457 9.76367 3.89393 9.74895C3.89265 9.72125 3.89201 9.69356 3.89217 9.66587C3.89233 9.64874 3.88721 9.62793 3.90497 9.61753C3.9253 9.60568 3.94899 9.60888 3.97092 9.61529C3.97653 9.61689 3.98293 9.62569 3.98373 9.63193C3.98629 9.65178 3.98645 9.67195 3.98661 9.67627L3.98677 9.67611Z" fill="#E6E6E6"/>
</svg>
