<svg width="50" height="50" viewBox="0 0 50 50" fill="none" xmlns="http://www.w3.org/2000/svg">
<mask id="mask0_1430_9017" style="mask-type:alpha" maskUnits="userSpaceOnUse" x="6" y="6" width="38" height="38">
<rect x="6.25" y="6.25" width="37.5" height="37.5" fill="#D9D9D9"/>
</mask>
<g mask="url(#mask0_1430_9017)">
<path d="M9.375 40.625V12.5C9.375 11.6406 9.68099 10.9049 10.293 10.293C10.9049 9.68099 11.6406 9.375 12.5 9.375H37.5C38.3594 9.375 39.0951 9.68099 39.707 10.293C40.319 10.9049 40.625 11.6406 40.625 12.5V31.25C40.625 32.1094 40.319 32.8451 39.707 33.457C39.0951 34.069 38.3594 34.375 37.5 34.375H15.625L9.375 40.625ZM14.2969 31.25H37.5V12.5H12.5V33.0078L14.2969 31.25Z" fill="black"/>
</g>
</svg>
