<svg width="50" height="50" viewBox="0 0 50 50" fill="none" xmlns="http://www.w3.org/2000/svg">
<mask id="mask0_1430_2994" style="mask-type:alpha" maskUnits="userSpaceOnUse" x="0" y="0" width="50" height="50">
<rect width="50" height="50" fill="#D9D9D9"/>
</mask>
<g mask="url(#mask0_1430_2994)">
<mask id="mask1_1430_2994" style="mask-type:alpha" maskUnits="userSpaceOnUse" x="6" y="6" width="38" height="38">
<rect x="6.25" y="6.25" width="37.5" height="37.5" fill="#D9D9D9"/>
</mask>
<g mask="url(#mask1_1430_2994)">
<path d="M15.6248 39.0632C14.4529 39.0632 13.294 38.7768 12.1482 38.2038C11.0024 37.6309 10.0779 36.8757 9.37476 35.9382C10.0518 35.9382 10.7419 35.6713 11.4451 35.1374C12.1482 34.6036 12.4998 33.8288 12.4998 32.8132C12.4998 31.5111 12.9555 30.4044 13.8669 29.4929C14.7784 28.5814 15.8852 28.1257 17.1873 28.1257C18.4893 28.1257 19.5961 28.5814 20.5076 29.4929C21.419 30.4044 21.8748 31.5111 21.8748 32.8132C21.8748 34.532 21.2628 36.0033 20.0388 37.2273C18.8149 38.4512 17.3435 39.0632 15.6248 39.0632ZM15.6248 35.9382C16.4841 35.9382 17.2198 35.6322 17.8318 35.0203C18.4438 34.4083 18.7498 33.6726 18.7498 32.8132C18.7498 32.3705 18.6 31.9994 18.3005 31.6999C18.0011 31.4005 17.63 31.2507 17.1873 31.2507C16.7445 31.2507 16.3735 31.4005 16.074 31.6999C15.7745 31.9994 15.6248 32.3705 15.6248 32.8132C15.6248 33.4122 15.5531 33.9591 15.4099 34.4538C15.2667 34.9486 15.0779 35.4174 14.8435 35.8601C14.9737 35.9122 15.1039 35.9382 15.2341 35.9382H15.6248ZM24.6091 29.6882L20.3123 25.3913L34.2966 11.407C34.5831 11.1205 34.9412 10.9708 35.3709 10.9578C35.8005 10.9447 36.1716 11.0945 36.4841 11.407L38.5935 13.5163C38.906 13.8288 39.0623 14.1934 39.0623 14.6101C39.0623 15.0268 38.906 15.3913 38.5935 15.7038L24.6091 29.6882Z" fill="black"/>
</g>
</g>
</svg>
