<svg width="50" height="50" viewBox="0 0 50 50" fill="none" xmlns="http://www.w3.org/2000/svg">
<mask id="mask0_1430_2916" style="mask-type:alpha" maskUnits="userSpaceOnUse" x="6" y="6" width="38" height="38">
<rect x="6.25" y="6.25" width="37.5" height="37.5" fill="#D9D9D9"/>
</mask>
<g mask="url(#mask0_1430_2916)">
<path d="M36.875 39.0625L27.0313 29.2187C26.25 29.8437 25.3516 30.3385 24.3359 30.7031C23.3203 31.0677 22.2396 31.25 21.0938 31.25C18.2552 31.25 15.8529 30.2669 13.8867 28.3008C11.9206 26.3346 10.9375 23.9323 10.9375 21.0938C10.9375 18.2552 11.9206 15.8529 13.8867 13.8867C15.8529 11.9206 18.2552 10.9375 21.0938 10.9375C23.9323 10.9375 26.3346 11.9206 28.3008 13.8867C30.2669 15.8529 31.25 18.2552 31.25 21.0938C31.25 22.2396 31.0677 23.3203 30.7031 24.3359C30.3385 25.3516 29.8437 26.25 29.2187 27.0313L39.0625 36.875L36.875 39.0625ZM21.0938 28.125C23.0469 28.125 24.707 27.4414 26.0742 26.0742C27.4414 24.707 28.125 23.0469 28.125 21.0938C28.125 19.1406 27.4414 17.4805 26.0742 16.1133C24.707 14.7461 23.0469 14.0625 21.0938 14.0625C19.1406 14.0625 17.4805 14.7461 16.1133 16.1133C14.7461 17.4805 14.0625 19.1406 14.0625 21.0938C14.0625 23.0469 14.7461 24.707 16.1133 26.0742C17.4805 27.4414 19.1406 28.125 21.0938 28.125Z" fill="black"/>
</g>
</svg>
