<svg width="50" height="50" viewBox="0 0 50 50" fill="none" xmlns="http://www.w3.org/2000/svg">
<mask id="mask0_1430_2803" style="mask-type:alpha" maskUnits="userSpaceOnUse" x="6" y="6" width="38" height="38">
<rect x="6.25" y="6.25" width="37.5" height="37.5" fill="#D9D9D9"/>
</mask>
<g mask="url(#mask0_1430_2803)">
<path d="M14.0625 39.0625C13.6198 39.0625 13.2487 38.9128 12.9492 38.6133C12.6497 38.3138 12.5 37.9427 12.5 37.5V35.9375H10.9375V29.6875C10.9375 29.2448 11.0872 28.8737 11.3867 28.5742C11.6862 28.2747 12.0573 28.125 12.5 28.125H14.0625V17.1875C14.0625 15.4688 14.6745 13.9974 15.8984 12.7734C17.1224 11.5495 18.5938 10.9375 20.3125 10.9375C22.0312 10.9375 23.5026 11.5495 24.7266 12.7734C25.9505 13.9974 26.5625 15.4688 26.5625 17.1875V32.8125C26.5625 33.6719 26.8685 34.4076 27.4805 35.0195C28.0924 35.6315 28.8281 35.9375 29.6875 35.9375C30.5469 35.9375 31.2826 35.6315 31.8945 35.0195C32.5065 34.4076 32.8125 33.6719 32.8125 32.8125V21.875H31.25C30.8073 21.875 30.4362 21.7253 30.1367 21.4258C29.8372 21.1263 29.6875 20.7552 29.6875 20.3125V14.0625H31.25V12.5C31.25 12.0573 31.3997 11.6862 31.6992 11.3867C31.9987 11.0872 32.3698 10.9375 32.8125 10.9375H35.9375C36.3802 10.9375 36.7513 11.0872 37.0508 11.3867C37.3503 11.6862 37.5 12.0573 37.5 12.5V14.0625H39.0625V20.3125C39.0625 20.7552 38.9128 21.1263 38.6133 21.4258C38.3138 21.7253 37.9427 21.875 37.5 21.875H35.9375V32.8125C35.9375 34.5312 35.3255 36.0026 34.1016 37.2266C32.8776 38.4505 31.4062 39.0625 29.6875 39.0625C27.9688 39.0625 26.4974 38.4505 25.2734 37.2266C24.0495 36.0026 23.4375 34.5312 23.4375 32.8125V17.1875C23.4375 16.3281 23.1315 15.5924 22.5195 14.9805C21.9076 14.3685 21.1719 14.0625 20.3125 14.0625C19.4531 14.0625 18.7174 14.3685 18.1055 14.9805C17.4935 15.5924 17.1875 16.3281 17.1875 17.1875V28.125H18.75C19.1927 28.125 19.5638 28.2747 19.8633 28.5742C20.1628 28.8737 20.3125 29.2448 20.3125 29.6875V35.9375H18.75V37.5C18.75 37.9427 18.6003 38.3138 18.3008 38.6133C18.0013 38.9128 17.6302 39.0625 17.1875 39.0625H14.0625Z" fill="black"/>
</g>
</svg>
