<svg width="50" height="50" viewBox="0 0 50 50" fill="none" xmlns="http://www.w3.org/2000/svg">
<mask id="mask0_1430_6174" style="mask-type:alpha" maskUnits="userSpaceOnUse" x="6" y="6" width="41" height="41">
<rect x="6.25" y="6.25" width="40" height="40" fill="#D9D9D9"/>
</mask>
<g mask="url(#mask0_1430_6174)">
<path d="M14.5833 41.25V37.9167H22.9166V34.5833C20.611 34.5833 18.6458 33.7708 17.0208 32.1458C15.3958 30.5208 14.5833 28.5556 14.5833 26.25C14.5833 24.5556 15.0485 23.0139 15.9791 21.625C16.9096 20.2361 18.1666 19.2222 19.7499 18.5833C19.9721 17.6389 20.4652 16.875 21.2291 16.2917C21.993 15.7083 22.861 15.4167 23.8333 15.4167L22.9166 12.8333L24.4999 12.25L23.9166 10.75L27.0833 9.58334L27.5833 11.1667L29.1666 10.5833L33.7499 23.0833L32.1666 23.6667L32.7499 25.25L29.5833 26.4167L29.0833 24.8333L27.4999 25.4167L26.4999 22.6667C26.0833 23.0556 25.6041 23.3472 25.0624 23.5417C24.5208 23.7361 23.9721 23.8056 23.4166 23.75C22.8055 23.6945 22.236 23.507 21.7083 23.1875C21.1805 22.8681 20.7221 22.4722 20.3333 22C19.5833 22.4445 18.993 23.0417 18.5624 23.7917C18.1319 24.5417 17.9166 25.3611 17.9166 26.25C17.9166 27.6389 18.4027 28.8195 19.3749 29.7917C20.3471 30.7639 21.5277 31.25 22.9166 31.25H36.2499V34.5833H27.9166V37.9167H37.9166V41.25H14.5833ZM28.9999 22.1667L30.4999 21.5833L27.6666 13.75L26.0833 14.3333L28.9999 22.1667ZM23.7499 21.25C24.2221 21.25 24.618 21.0903 24.9374 20.7708C25.2569 20.4514 25.4166 20.0556 25.4166 19.5833C25.4166 19.1111 25.2569 18.7153 24.9374 18.3958C24.618 18.0764 24.2221 17.9167 23.7499 17.9167C23.2777 17.9167 22.8819 18.0764 22.5624 18.3958C22.243 18.7153 22.0833 19.1111 22.0833 19.5833C22.0833 20.0556 22.243 20.4514 22.5624 20.7708C22.8819 21.0903 23.2777 21.25 23.7499 21.25Z" fill="black"/>
</g>
</svg>
