<svg width="81" height="80" viewBox="0 0 81 80" fill="none" xmlns="http://www.w3.org/2000/svg">
<mask id="mask0_1430_3186" style="mask-type:alpha" maskUnits="userSpaceOnUse" x="10" y="10" width="61" height="60">
<rect x="10.5" y="10" width="60" height="60" fill="#D9D9D9"/>
</mask>
<g mask="url(#mask0_1430_3186)">
<path d="M28 65C26.625 65 25.4479 64.5104 24.4688 63.5313C23.4896 62.5521 23 61.375 23 60C23 58.625 23.4896 57.4479 24.4688 56.4687C25.4479 55.4896 26.625 55 28 55C29.375 55 30.5521 55.4896 31.5312 56.4687C32.5104 57.4479 33 58.625 33 60C33 61.375 32.5104 62.5521 31.5312 63.5313C30.5521 64.5104 29.375 65 28 65ZM53 65C51.625 65 50.4479 64.5104 49.4688 63.5313C48.4896 62.5521 48 61.375 48 60C48 58.625 48.4896 57.4479 49.4688 56.4687C50.4479 55.4896 51.625 55 53 55C54.375 55 55.5521 55.4896 56.5313 56.4687C57.5104 57.4479 58 58.625 58 60C58 61.375 57.5104 62.5521 56.5313 63.5313C55.5521 64.5104 54.375 65 53 65ZM25.875 25L31.875 37.5H49.375L56.25 25H25.875ZM23.5 20H60.375C61.3333 20 62.0625 20.4271 62.5625 21.2813C63.0625 22.1354 63.0833 23 62.625 23.875L53.75 39.875C53.2917 40.7083 52.6771 41.3542 51.9062 41.8125C51.1354 42.2708 50.2917 42.5 49.375 42.5H30.75L28 47.5H58V52.5H28C26.125 52.5 24.7083 51.6771 23.75 50.0312C22.7917 48.3854 22.75 46.75 23.625 45.125L27 39L18 20H13V15H21.125L23.5 20Z" fill="#E6E6E6"/>
</g>
</svg>
