<svg width="81" height="80" viewBox="0 0 81 80" fill="none" xmlns="http://www.w3.org/2000/svg">
<mask id="mask0_1430_3555" style="mask-type:alpha" maskUnits="userSpaceOnUse" x="10" y="10" width="61" height="60">
<rect x="10.5" y="10" width="60" height="60" fill="#D9D9D9"/>
</mask>
<g mask="url(#mask0_1430_3555)">
<path d="M23 65C21.625 65 20.4479 64.5104 19.4687 63.5313C18.4896 62.5521 18 61.375 18 60V31.8125C17.25 31.3542 16.6458 30.7604 16.1875 30.0313C15.7292 29.3021 15.5 28.4583 15.5 27.5V20C15.5 18.625 15.9896 17.4479 16.9688 16.4688C17.9479 15.4896 19.125 15 20.5 15H60.5C61.875 15 63.0521 15.4896 64.0313 16.4688C65.0104 17.4479 65.5 18.625 65.5 20V27.5C65.5 28.4583 65.2708 29.3021 64.8125 30.0313C64.3542 30.7604 63.75 31.3542 63 31.8125V60C63 61.375 62.5104 62.5521 61.5313 63.5313C60.5521 64.5104 59.375 65 58 65H23ZM23 32.5V60H58V32.5H23ZM20.5 27.5H60.5V20H20.5V27.5ZM33 45H48V40H33V45Z" fill="#E6E6E6"/>
</g>
</svg>
