<svg width="51" height="50" viewBox="0 0 51 50" fill="none" xmlns="http://www.w3.org/2000/svg">
<mask id="mask0_1430_7541" style="mask-type:alpha" maskUnits="userSpaceOnUse" x="6" y="6" width="39" height="38">
<rect x="6.875" y="6.25" width="37.5" height="37.5" fill="#D9D9D9"/>
</mask>
<g mask="url(#mask0_1430_7541)">
<path d="M31.0937 37.3828L24.4531 30.7422L26.6406 28.5547L31.0937 33.0078L39.9219 24.1797L42.1094 26.3672L31.0937 37.3828ZM39.6875 21.875H36.5625V14.0625H33.4375V18.75H17.8125V14.0625H14.6875V35.9375H24.0625V39.0625H14.6875C13.8281 39.0625 13.0924 38.7565 12.4805 38.1445C11.8685 37.5326 11.5625 36.7969 11.5625 35.9375V14.0625C11.5625 13.2031 11.8685 12.4674 12.4805 11.8555C13.0924 11.2435 13.8281 10.9375 14.6875 10.9375H21.2109C21.4974 10.026 22.0573 9.27734 22.8906 8.69141C23.724 8.10547 24.6354 7.8125 25.625 7.8125C26.6667 7.8125 27.5977 8.10547 28.418 8.69141C29.2383 9.27734 29.7917 10.026 30.0781 10.9375H36.5625C37.4219 10.9375 38.1576 11.2435 38.7695 11.8555C39.3815 12.4674 39.6875 13.2031 39.6875 14.0625V21.875ZM25.625 14.0625C26.0677 14.0625 26.4388 13.9128 26.7383 13.6133C27.0378 13.3138 27.1875 12.9427 27.1875 12.5C27.1875 12.0573 27.0378 11.6862 26.7383 11.3867C26.4388 11.0872 26.0677 10.9375 25.625 10.9375C25.1823 10.9375 24.8112 11.0872 24.5117 11.3867C24.2122 11.6862 24.0625 12.0573 24.0625 12.5C24.0625 12.9427 24.2122 13.3138 24.5117 13.6133C24.8112 13.9128 25.1823 14.0625 25.625 14.0625Z" fill="#E6E6E6"/>
</g>
</svg>
