<svg width="51" height="50" viewBox="0 0 51 50" fill="none" xmlns="http://www.w3.org/2000/svg">
<mask id="mask0_1430_2845" style="mask-type:alpha" maskUnits="userSpaceOnUse" x="7" y="6" width="38" height="38">
<rect x="7.125" y="6.25" width="37.5" height="37.5" fill="#D9D9D9"/>
</mask>
<g mask="url(#mask0_1430_2845)">
<path d="M39.9764 23.5156V35.9375C39.9764 36.7969 39.6704 37.5326 39.0584 38.1445C38.4465 38.7565 37.7108 39.0625 36.8514 39.0625H14.9764C14.117 39.0625 13.3814 38.7565 12.7694 38.1445C12.1574 37.5326 11.8514 36.7969 11.8514 35.9375V23.5156C11.2525 22.9688 10.7902 22.2656 10.4647 21.4063C10.1392 20.5469 10.1327 19.6094 10.4452 18.5938L12.0858 13.2812C12.2941 12.6042 12.6652 12.0443 13.1991 11.6016C13.7329 11.1589 14.3514 10.9375 15.0545 10.9375H36.7733C37.4764 10.9375 38.0884 11.1523 38.6092 11.582C39.1301 12.0117 39.5077 12.5781 39.742 13.2812L41.3827 18.5938C41.6952 19.6094 41.6887 20.5339 41.3631 21.3672C41.0376 22.2005 40.5754 22.9167 39.9764 23.5156ZM29.3514 21.875C30.0545 21.875 30.5884 21.6341 30.953 21.1523C31.3176 20.6706 31.4608 20.1302 31.3827 19.5312L30.5233 14.0625H27.4764V19.8438C27.4764 20.3906 27.6587 20.8659 28.0233 21.2695C28.3879 21.6732 28.8306 21.875 29.3514 21.875ZM22.3202 21.875C22.9191 21.875 23.4074 21.6732 23.785 21.2695C24.1626 20.8659 24.3514 20.3906 24.3514 19.8438V14.0625H21.3045L20.4452 19.5312C20.341 20.1563 20.4777 20.7031 20.8553 21.1719C21.2329 21.6406 21.7212 21.875 22.3202 21.875ZM15.367 21.875C15.8358 21.875 16.2459 21.7057 16.5975 21.3672C16.9491 21.0286 17.1639 20.599 17.242 20.0781L18.1014 14.0625H15.0545L13.492 19.2969C13.3358 19.8177 13.4204 20.3776 13.7459 20.9766C14.0715 21.5755 14.6118 21.875 15.367 21.875ZM36.4608 21.875C37.216 21.875 37.7629 21.5755 38.1014 20.9766C38.44 20.3776 38.5181 19.8177 38.3358 19.2969L36.6952 14.0625H33.7264L34.5858 20.0781C34.6639 20.599 34.8788 21.0286 35.2303 21.3672C35.5819 21.7057 35.992 21.875 36.4608 21.875ZM14.9764 35.9375H36.8514V24.9219C36.7212 24.974 36.6366 25 36.5975 25H36.4608C35.7577 25 35.1392 24.8828 34.6053 24.6484C34.0715 24.4141 33.5441 24.0365 33.0233 23.5156C32.5545 23.9844 32.0207 24.349 31.4217 24.6094C30.8228 24.8698 30.1848 25 29.5077 25C28.8045 25 28.147 24.8698 27.535 24.6094C26.923 24.349 26.3827 23.9844 25.9139 23.5156C25.4712 23.9844 24.9569 24.349 24.3709 24.6094C23.785 24.8698 23.1535 25 22.4764 25C21.7212 25 21.0376 24.8698 20.4256 24.6094C19.8137 24.349 19.2733 23.9844 18.8045 23.5156C18.2577 24.0625 17.7173 24.4466 17.1834 24.668C16.6496 24.8893 16.0441 25 15.367 25H15.1913C15.1262 25 15.0545 24.974 14.9764 24.9219V35.9375Z" fill="#E6E6E6"/>
</g>
</svg>
