<svg width="51" height="50" viewBox="0 0 51 50" fill="none" xmlns="http://www.w3.org/2000/svg">
<mask id="mask0_1430_2852" style="mask-type:alpha" maskUnits="userSpaceOnUse" x="6" y="6" width="38" height="38">
<rect x="6.375" y="6.25" width="37.5" height="37.5" fill="#D9D9D9"/>
</mask>
<g mask="url(#mask0_1430_2852)">
<path d="M11.0625 23.4374V20.3124H13.5234C14.2786 18.5155 15.3789 16.9725 16.8242 15.6835C18.2695 14.3944 19.9297 13.4895 21.8047 12.9686L20.9063 12.0311L23.0938 9.84363L25.0469 11.7577C25.3594 12.0702 25.5612 12.4413 25.6523 12.871C25.7435 13.3007 25.724 13.7238 25.5938 14.1405C25.4635 14.5832 25.2292 14.9478 24.8906 15.2343C24.5521 15.5207 24.1615 15.69 23.7188 15.7421C21.9219 16.0285 20.3398 16.7642 18.9727 17.9491C17.6055 19.134 16.6615 20.5988 16.1406 22.3436L15.8281 23.4374H11.0625ZM29.8125 24.9999C29.8125 23.854 30.0273 22.7603 30.457 21.7186C30.8867 20.677 31.5833 19.8697 32.5469 19.2968C31.9479 18.5155 31.2513 17.8449 30.457 17.285C29.6628 16.7251 28.7839 16.302 27.8203 16.0155L28.7188 13.0077C30.3333 13.4764 31.7656 14.2447 33.0156 15.3124C34.2656 16.3801 35.2812 17.6561 36.0625 19.1405C37.1562 19.6613 37.9505 20.4621 38.4453 21.5428C38.9401 22.6236 39.1875 23.7759 39.1875 24.9999C39.1875 26.2238 38.9401 27.3827 38.4453 28.4764C37.9505 29.5702 37.1562 30.3645 36.0625 30.8593C35.2812 32.3436 34.2526 33.6197 32.9766 34.6874C31.7005 35.7551 30.2682 36.5233 28.6797 36.9921L27.7812 33.9843C28.7187 33.6978 29.5977 33.2746 30.418 32.7147C31.2383 32.1548 31.9479 31.4843 32.5469 30.703C31.5833 30.1301 30.8867 29.3228 30.457 28.2811C30.0273 27.2395 29.8125 26.1457 29.8125 24.9999ZM34.5 28.1249C34.8906 28.1249 35.2487 27.8059 35.5742 27.1678C35.8997 26.5298 36.0625 25.8072 36.0625 24.9999C36.0625 24.1926 35.8997 23.4699 35.5742 22.8319C35.2487 22.1939 34.8906 21.8749 34.5 21.8749C34.1094 21.8749 33.7513 22.1939 33.4258 22.8319C33.1003 23.4699 32.9375 24.1926 32.9375 24.9999C32.9375 25.8072 33.1003 26.5298 33.4258 27.1678C33.7513 27.8059 34.1094 28.1249 34.5 28.1249ZM22.8984 40.3514L20.7109 38.1249L21.8047 37.0311C19.9297 36.5103 18.263 35.6053 16.8047 34.3163C15.3464 33.0272 14.2526 31.4843 13.5234 29.6874H11.0625V26.5624H15.8281L16.1406 27.6561C16.6615 29.4009 17.6055 30.8658 18.9727 32.0507C20.3398 33.2356 21.9219 33.9712 23.7188 34.2577C24.1615 34.3098 24.5521 34.4856 24.8906 34.785C25.2292 35.0845 25.4635 35.4426 25.5938 35.8593C25.724 36.2759 25.7435 36.6926 25.6523 37.1093C25.5612 37.5259 25.3594 37.8905 25.0469 38.203L22.8984 40.3514Z" fill="#E6E6E6"/>
</g>
</svg>
