<svg width="51" height="50" viewBox="0 0 51 50" fill="none" xmlns="http://www.w3.org/2000/svg">
<mask id="mask0_1430_3584" style="mask-type:alpha" maskUnits="userSpaceOnUse" x="6" y="6" width="39" height="38">
<rect x="6.625" y="6.25" width="37.5" height="37.5" fill="#D9D9D9"/>
</mask>
<g mask="url(#mask0_1430_3584)">
<path d="M17.3262 29.6875C18.1335 29.6875 18.8561 29.4531 19.4941 28.9844C20.1322 28.5156 20.5814 27.9036 20.8418 27.1484L21.4277 25.3516C21.8444 24.1016 21.7402 22.9492 21.1152 21.8945C20.4902 20.8398 19.5918 20.3125 18.4199 20.3125H12.9121L13.6543 26.4453C13.7845 27.3568 14.1947 28.125 14.8848 28.75C15.5749 29.375 16.3887 29.6875 17.3262 29.6875ZM33.4199 29.6875C34.3574 29.6875 35.1712 29.375 35.8613 28.75C36.5514 28.125 36.9616 27.3568 37.0918 26.4453L37.834 20.3125H32.3652C31.1934 20.3125 30.2949 20.8464 29.6699 21.9141C29.0449 22.9818 28.9408 24.1406 29.3574 25.3906L29.9043 27.1484C30.1647 27.9036 30.6139 28.5156 31.252 28.9844C31.89 29.4531 32.6126 29.6875 33.4199 29.6875ZM17.3262 32.8125C15.6074 32.8125 14.1035 32.2461 12.8145 31.1133C11.5254 29.9805 10.7767 28.5547 10.5684 26.8359L9.74805 20.3125H8.18555V17.1875H18.4199C19.5658 17.1875 20.6139 17.4674 21.5645 18.0273C22.515 18.5872 23.2637 19.349 23.8105 20.3125H26.9746C27.5215 19.349 28.2702 18.5872 29.2207 18.0273C30.1712 17.4674 31.2194 17.1875 32.3652 17.1875H42.5605V20.3125H40.998L40.1777 26.8359C39.9694 28.5547 39.2207 29.9805 37.9316 31.1133C36.6426 32.2461 35.1387 32.8125 33.4199 32.8125C31.9355 32.8125 30.6009 32.3893 29.416 31.543C28.2311 30.6966 27.4043 29.5703 26.9355 28.1641L26.3496 26.4063C26.2975 26.224 26.2454 26.0352 26.1934 25.8398C26.1413 25.6445 26.0892 25.3646 26.0371 25H24.709C24.6569 25.3125 24.6048 25.5664 24.5527 25.7617C24.5007 25.957 24.4486 26.1458 24.3965 26.3281L23.8105 28.125C23.3418 29.5313 22.515 30.6641 21.3301 31.5234C20.1452 32.3828 18.8105 32.8125 17.3262 32.8125Z" fill="#E6E6E6"/>
</g>
</svg>
