<svg width="50" height="50" viewBox="0 0 50 50" fill="none" xmlns="http://www.w3.org/2000/svg">
<mask id="mask0_1430_1128" style="mask-type:alpha" maskUnits="userSpaceOnUse" x="6" y="6" width="38" height="38">
<rect x="6.25" y="6.25" width="37.5" height="37.5" fill="#D9D9D9"/>
</mask>
<g mask="url(#mask0_1430_1128)">
<path d="M20.3125 28.5156C19.7656 28.5156 19.3034 28.3268 18.9258 27.9492C18.5482 27.5716 18.3594 27.1094 18.3594 26.5625C18.3594 26.0156 18.5482 25.5534 18.9258 25.1758C19.3034 24.7982 19.7656 24.6094 20.3125 24.6094C20.8594 24.6094 21.3216 24.7982 21.6992 25.1758C22.0768 25.5534 22.2656 26.0156 22.2656 26.5625C22.2656 27.1094 22.0768 27.5716 21.6992 27.9492C21.3216 28.3268 20.8594 28.5156 20.3125 28.5156ZM29.6875 28.5156C29.1406 28.5156 28.6784 28.3268 28.3008 27.9492C27.9232 27.5716 27.7344 27.1094 27.7344 26.5625C27.7344 26.0156 27.9232 25.5534 28.3008 25.1758C28.6784 24.7982 29.1406 24.6094 29.6875 24.6094C30.2344 24.6094 30.6966 24.7982 31.0742 25.1758C31.4518 25.5534 31.6406 26.0156 31.6406 26.5625C31.6406 27.1094 31.4518 27.5716 31.0742 27.9492C30.6966 28.3268 30.2344 28.5156 29.6875 28.5156ZM25 37.5C28.4896 37.5 31.4453 36.2891 33.8672 33.8672C36.2891 31.4453 37.5 28.4896 37.5 25C37.5 24.375 37.4609 23.7695 37.3828 23.1836C37.3047 22.5977 37.1615 22.0312 36.9531 21.4844C36.4062 21.6146 35.8594 21.7122 35.3125 21.7773C34.7656 21.8424 34.1927 21.875 33.5937 21.875C31.224 21.875 28.9844 21.3672 26.875 20.3516C24.7656 19.3359 22.9687 17.9167 21.4844 16.0937C20.651 18.125 19.4596 19.8893 17.9102 21.3867C16.3607 22.8841 14.5573 24.0104 12.5 24.7656V25C12.5 28.4896 13.7109 31.4453 16.1328 33.8672C18.5547 36.2891 21.5104 37.5 25 37.5ZM25 40.625C22.8385 40.625 20.8073 40.2148 18.9062 39.3945C17.0052 38.5742 15.3516 37.4609 13.9453 36.0547C12.5391 34.6484 11.4258 32.9948 10.6055 31.0937C9.78516 29.1927 9.375 27.1615 9.375 25C9.375 22.8385 9.78516 20.8073 10.6055 18.9062C11.4258 17.0052 12.5391 15.3516 13.9453 13.9453C15.3516 12.5391 17.0052 11.4258 18.9062 10.6055C20.8073 9.78516 22.8385 9.375 25 9.375C27.1615 9.375 29.1927 9.78516 31.0937 10.6055C32.9948 11.4258 34.6484 12.5391 36.0547 13.9453C37.4609 15.3516 38.5742 17.0052 39.3945 18.9062C40.2148 20.8073 40.625 22.8385 40.625 25C40.625 27.1615 40.2148 29.1927 39.3945 31.0937C38.5742 32.9948 37.4609 34.6484 36.0547 36.0547C34.6484 37.4609 32.9948 38.5742 31.0937 39.3945C29.1927 40.2148 27.1615 40.625 25 40.625ZM22.8906 12.6953C23.9844 14.5182 25.4687 15.9831 27.3437 17.0898C29.2187 18.1966 31.3021 18.75 33.5937 18.75C33.9583 18.75 34.3099 18.7305 34.6484 18.6914C34.987 18.6523 35.3385 18.6068 35.7031 18.5547C34.6094 16.7318 33.125 15.2669 31.25 14.1602C29.375 13.0534 27.2917 12.5 25 12.5C24.6354 12.5 24.2839 12.5195 23.9453 12.5586C23.6068 12.5977 23.2552 12.6432 22.8906 12.6953ZM13.1641 21.0547C14.4922 20.2995 15.651 19.3229 16.6406 18.125C17.6302 16.9271 18.3724 15.5859 18.8672 14.1016C17.5391 14.8568 16.3802 15.8333 15.3906 17.0312C14.401 18.2292 13.6589 19.5703 13.1641 21.0547Z" fill="#E6E6E6"/>
</g>
</svg>
