<svg width="50" height="50" viewBox="0 0 50 50" fill="none" xmlns="http://www.w3.org/2000/svg">
<mask id="mask0_1430_2838" style="mask-type:alpha" maskUnits="userSpaceOnUse" x="6" y="6" width="38" height="38">
<rect x="6.25" y="6.25" width="37.5" height="37.5" fill="#D9D9D9"/>
</mask>
<g mask="url(#mask0_1430_2838)">
<path d="M25 15.625C24.7917 15.625 24.6094 15.5469 24.4531 15.3906C24.2969 15.2344 24.2188 15.0521 24.2188 14.8438C24.2188 14.6354 24.2969 14.4531 24.4531 14.2969C24.6094 14.1406 24.7917 14.0625 25 14.0625C25.2083 14.0625 25.3906 14.1406 25.5469 14.2969C25.7031 14.4531 25.7812 14.6354 25.7812 14.8438C25.7812 15.0521 25.7031 15.2344 25.5469 15.3906C25.3906 15.5469 25.2083 15.625 25 15.625ZM28.125 15.625C27.9167 15.625 27.7344 15.5469 27.5781 15.3906C27.4219 15.2344 27.3438 15.0521 27.3438 14.8438C27.3438 14.6354 27.4219 14.4531 27.5781 14.2969C27.7344 14.1406 27.9167 14.0625 28.125 14.0625C28.3333 14.0625 28.5156 14.1406 28.6719 14.2969C28.8281 14.4531 28.9062 14.6354 28.9062 14.8438C28.9062 15.0521 28.8281 15.2344 28.6719 15.3906C28.5156 15.5469 28.3333 15.625 28.125 15.625ZM21.875 15.625C21.6667 15.625 21.4844 15.5469 21.3281 15.3906C21.1719 15.2344 21.0938 15.0521 21.0938 14.8438C21.0938 14.6354 21.1719 14.4531 21.3281 14.2969C21.4844 14.1406 21.6667 14.0625 21.875 14.0625C22.0833 14.0625 22.2656 14.1406 22.4219 14.2969C22.5781 14.4531 22.6562 14.6354 22.6562 14.8438C22.6562 15.0521 22.5781 15.2344 22.4219 15.3906C22.2656 15.5469 22.0833 15.625 21.875 15.625ZM32.8125 17.1875C32.6042 17.1875 32.4219 17.1094 32.2656 16.9531C32.1094 16.7969 32.0312 16.6146 32.0312 16.4062C32.0312 16.1979 32.1094 16.0156 32.2656 15.8594C32.4219 15.7031 32.6042 15.625 32.8125 15.625C33.0208 15.625 33.2031 15.7031 33.3594 15.8594C33.5156 16.0156 33.5938 16.1979 33.5938 16.4062C33.5938 16.6146 33.5156 16.7969 33.3594 16.9531C33.2031 17.1094 33.0208 17.1875 32.8125 17.1875ZM20.3125 17.1875C20.1042 17.1875 19.9219 17.1094 19.7656 16.9531C19.6094 16.7969 19.5312 16.6146 19.5312 16.4062C19.5312 16.1979 19.6094 16.0156 19.7656 15.8594C19.9219 15.7031 20.1042 15.625 20.3125 15.625C20.5208 15.625 20.7031 15.7031 20.8594 15.8594C21.0156 16.0156 21.0938 16.1979 21.0938 16.4062C21.0938 16.6146 21.0156 16.7969 20.8594 16.9531C20.7031 17.1094 20.5208 17.1875 20.3125 17.1875ZM17.1875 17.1875C16.9792 17.1875 16.7969 17.1094 16.6406 16.9531C16.4844 16.7969 16.4062 16.6146 16.4062 16.4062C16.4062 16.1979 16.4844 16.0156 16.6406 15.8594C16.7969 15.7031 16.9792 15.625 17.1875 15.625C17.3958 15.625 17.5781 15.7031 17.7344 15.8594C17.8906 16.0156 17.9688 16.1979 17.9688 16.4062C17.9688 16.6146 17.8906 16.7969 17.7344 16.9531C17.5781 17.1094 17.3958 17.1875 17.1875 17.1875ZM23.4375 17.1875C23.2292 17.1875 23.0469 17.1094 22.8906 16.9531C22.7344 16.7969 22.6562 16.6146 22.6562 16.4062C22.6562 16.1979 22.7344 16.0156 22.8906 15.8594C23.0469 15.7031 23.2292 15.625 23.4375 15.625C23.6458 15.625 23.8281 15.7031 23.9844 15.8594C24.1406 16.0156 24.2188 16.1979 24.2188 16.4062C24.2188 16.6146 24.1406 16.7969 23.9844 16.9531C23.8281 17.1094 23.6458 17.1875 23.4375 17.1875ZM26.5625 17.1875C26.3542 17.1875 26.1719 17.1094 26.0156 16.9531C25.8594 16.7969 25.7812 16.6146 25.7812 16.4062C25.7812 16.1979 25.8594 16.0156 26.0156 15.8594C26.1719 15.7031 26.3542 15.625 26.5625 15.625C26.7708 15.625 26.9531 15.7031 27.1094 15.8594C27.2656 16.0156 27.3438 16.1979 27.3438 16.4062C27.3438 16.6146 27.2656 16.7969 27.1094 16.9531C26.9531 17.1094 26.7708 17.1875 26.5625 17.1875ZM29.6875 17.1875C29.4792 17.1875 29.2969 17.1094 29.1406 16.9531C28.9844 16.7969 28.9062 16.6146 28.9062 16.4062C28.9062 16.1979 28.9844 16.0156 29.1406 15.8594C29.2969 15.7031 29.4792 15.625 29.6875 15.625C29.8958 15.625 30.0781 15.7031 30.2344 15.8594C30.3906 16.0156 30.4688 16.1979 30.4688 16.4062C30.4688 16.6146 30.3906 16.7969 30.2344 16.9531C30.0781 17.1094 29.8958 17.1875 29.6875 17.1875ZM25 18.75C24.7917 18.75 24.6094 18.6719 24.4531 18.5156C24.2969 18.3594 24.2188 18.1771 24.2188 17.9688C24.2188 17.7604 24.2969 17.5781 24.4531 17.4219C24.6094 17.2656 24.7917 17.1875 25 17.1875C25.2083 17.1875 25.3906 17.2656 25.5469 17.4219C25.7031 17.5781 25.7812 17.7604 25.7812 17.9688C25.7812 18.1771 25.7031 18.3594 25.5469 18.5156C25.3906 18.6719 25.2083 18.75 25 18.75ZM28.125 18.75C27.9167 18.75 27.7344 18.6719 27.5781 18.5156C27.4219 18.3594 27.3438 18.1771 27.3438 17.9688C27.3438 17.7604 27.4219 17.5781 27.5781 17.4219C27.7344 17.2656 27.9167 17.1875 28.125 17.1875C28.3333 17.1875 28.5156 17.2656 28.6719 17.4219C28.8281 17.5781 28.9062 17.7604 28.9062 17.9688C28.9062 18.1771 28.8281 18.3594 28.6719 18.5156C28.5156 18.6719 28.3333 18.75 28.125 18.75ZM31.25 18.75C31.0417 18.75 30.8594 18.6719 30.7031 18.5156C30.5469 18.3594 30.4688 18.1771 30.4688 17.9688C30.4688 17.7604 30.5469 17.5781 30.7031 17.4219C30.8594 17.2656 31.0417 17.1875 31.25 17.1875C31.4583 17.1875 31.6406 17.2656 31.7969 17.4219C31.9531 17.5781 32.0312 17.7604 32.0312 17.9688C32.0312 18.1771 31.9531 18.3594 31.7969 18.5156C31.6406 18.6719 31.4583 18.75 31.25 18.75ZM21.875 18.75C21.6667 18.75 21.4844 18.6719 21.3281 18.5156C21.1719 18.3594 21.0938 18.1771 21.0938 17.9688C21.0938 17.7604 21.1719 17.5781 21.3281 17.4219C21.4844 17.2656 21.6667 17.1875 21.875 17.1875C22.0833 17.1875 22.2656 17.2656 22.4219 17.4219C22.5781 17.5781 22.6562 17.7604 22.6562 17.9688C22.6562 18.1771 22.5781 18.3594 22.4219 18.5156C22.2656 18.6719 22.0833 18.75 21.875 18.75ZM18.75 18.75C18.5417 18.75 18.3594 18.6719 18.2031 18.5156C18.0469 18.3594 17.9688 18.1771 17.9688 17.9688C17.9688 17.7604 18.0469 17.5781 18.2031 17.4219C18.3594 17.2656 18.5417 17.1875 18.75 17.1875C18.9583 17.1875 19.1406 17.2656 19.2969 17.4219C19.4531 17.5781 19.5312 17.7604 19.5312 17.9688C19.5312 18.1771 19.4531 18.3594 19.2969 18.5156C19.1406 18.6719 18.9583 18.75 18.75 18.75ZM20.3125 20.3125C20.1042 20.3125 19.9219 20.2344 19.7656 20.0781C19.6094 19.9219 19.5312 19.7396 19.5312 19.5312C19.5312 19.3229 19.6094 19.1406 19.7656 18.9844C19.9219 18.8281 20.1042 18.75 20.3125 18.75C20.5208 18.75 20.7031 18.8281 20.8594 18.9844C21.0156 19.1406 21.0938 19.3229 21.0938 19.5312C21.0938 19.7396 21.0156 19.9219 20.8594 20.0781C20.7031 20.2344 20.5208 20.3125 20.3125 20.3125ZM17.1875 20.3125C16.9792 20.3125 16.7969 20.2344 16.6406 20.0781C16.4844 19.9219 16.4062 19.7396 16.4062 19.5312C16.4062 19.3229 16.4844 19.1406 16.6406 18.9844C16.7969 18.8281 16.9792 18.75 17.1875 18.75C17.3958 18.75 17.5781 18.8281 17.7344 18.9844C17.8906 19.1406 17.9688 19.3229 17.9688 19.5312C17.9688 19.7396 17.8906 19.9219 17.7344 20.0781C17.5781 20.2344 17.3958 20.3125 17.1875 20.3125ZM23.4375 20.3125C23.2292 20.3125 23.0469 20.2344 22.8906 20.0781C22.7344 19.9219 22.6562 19.7396 22.6562 19.5312C22.6562 19.3229 22.7344 19.1406 22.8906 18.9844C23.0469 18.8281 23.2292 18.75 23.4375 18.75C23.6458 18.75 23.8281 18.8281 23.9844 18.9844C24.1406 19.1406 24.2188 19.3229 24.2188 19.5312C24.2188 19.7396 24.1406 19.9219 23.9844 20.0781C23.8281 20.2344 23.6458 20.3125 23.4375 20.3125ZM26.5625 20.3125C26.3542 20.3125 26.1719 20.2344 26.0156 20.0781C25.8594 19.9219 25.7812 19.7396 25.7812 19.5312C25.7812 19.3229 25.8594 19.1406 26.0156 18.9844C26.1719 18.8281 26.3542 18.75 26.5625 18.75C26.7708 18.75 26.9531 18.8281 27.1094 18.9844C27.2656 19.1406 27.3438 19.3229 27.3438 19.5312C27.3438 19.7396 27.2656 19.9219 27.1094 20.0781C26.9531 20.2344 26.7708 20.3125 26.5625 20.3125ZM29.6875 20.3125C29.4792 20.3125 29.2969 20.2344 29.1406 20.0781C28.9844 19.9219 28.9062 19.7396 28.9062 19.5312C28.9062 19.3229 28.9844 19.1406 29.1406 18.9844C29.2969 18.8281 29.4792 18.75 29.6875 18.75C29.8958 18.75 30.0781 18.8281 30.2344 18.9844C30.3906 19.1406 30.4688 19.3229 30.4688 19.5312C30.4688 19.7396 30.3906 19.9219 30.2344 20.0781C30.0781 20.2344 29.8958 20.3125 29.6875 20.3125ZM32.8125 20.3125C32.6042 20.3125 32.4219 20.2344 32.2656 20.0781C32.1094 19.9219 32.0312 19.7396 32.0312 19.5312C32.0312 19.3229 32.1094 19.1406 32.2656 18.9844C32.4219 18.8281 32.6042 18.75 32.8125 18.75C33.0208 18.75 33.2031 18.8281 33.3594 18.9844C33.5156 19.1406 33.5938 19.3229 33.5938 19.5312C33.5938 19.7396 33.5156 19.9219 33.3594 20.0781C33.2031 20.2344 33.0208 20.3125 32.8125 20.3125ZM14.0625 20.3125C13.8542 20.3125 13.6719 20.2344 13.5156 20.0781C13.3594 19.9219 13.2812 19.7396 13.2812 19.5312C13.2812 19.3229 13.3594 19.1406 13.5156 18.9844C13.6719 18.8281 13.8542 18.75 14.0625 18.75C14.2708 18.75 14.4531 18.8281 14.6094 18.9844C14.7656 19.1406 14.8438 19.3229 14.8438 19.5312C14.8438 19.7396 14.7656 19.9219 14.6094 20.0781C14.4531 20.2344 14.2708 20.3125 14.0625 20.3125ZM15.625 18.75C15.4167 18.75 15.2344 18.6719 15.0781 18.5156C14.9219 18.3594 14.8438 18.1771 14.8438 17.9688C14.8438 17.7604 14.9219 17.5781 15.0781 17.4219C15.2344 17.2656 15.4167 17.1875 15.625 17.1875C15.8333 17.1875 16.0156 17.2656 16.1719 17.4219C16.3281 17.5781 16.4062 17.7604 16.4062 17.9688C16.4062 18.1771 16.3281 18.3594 16.1719 18.5156C16.0156 18.6719 15.8333 18.75 15.625 18.75ZM18.75 15.625C18.5417 15.625 18.3594 15.5469 18.2031 15.3906C18.0469 15.2344 17.9688 15.0521 17.9688 14.8438C17.9688 14.6354 18.0469 14.4531 18.2031 14.2969C18.3594 14.1406 18.5417 14.0625 18.75 14.0625C18.9583 14.0625 19.1406 14.1406 19.2969 14.2969C19.4531 14.4531 19.5312 14.6354 19.5312 14.8438C19.5312 15.0521 19.4531 15.2344 19.2969 15.3906C19.1406 15.5469 18.9583 15.625 18.75 15.625ZM20.3125 14.0625C20.1042 14.0625 19.9219 13.9844 19.7656 13.8281C19.6094 13.6719 19.5312 13.4896 19.5312 13.2812C19.5312 13.0729 19.6094 12.8906 19.7656 12.7344C19.9219 12.5781 20.1042 12.5 20.3125 12.5C20.5208 12.5 20.7031 12.5781 20.8594 12.7344C21.0156 12.8906 21.0938 13.0729 21.0938 13.2812C21.0938 13.4896 21.0156 13.6719 20.8594 13.8281C20.7031 13.9844 20.5208 14.0625 20.3125 14.0625ZM23.4375 14.0625C23.2292 14.0625 23.0469 13.9844 22.8906 13.8281C22.7344 13.6719 22.6562 13.4896 22.6562 13.2812C22.6562 13.0729 22.7344 12.8906 22.8906 12.7344C23.0469 12.5781 23.2292 12.5 23.4375 12.5C23.6458 12.5 23.8281 12.5781 23.9844 12.7344C24.1406 12.8906 24.2188 13.0729 24.2188 13.2812C24.2188 13.4896 24.1406 13.6719 23.9844 13.8281C23.8281 13.9844 23.6458 14.0625 23.4375 14.0625ZM26.5625 14.0625C26.3542 14.0625 26.1719 13.9844 26.0156 13.8281C25.8594 13.6719 25.7812 13.4896 25.7812 13.2812C25.7812 13.0729 25.8594 12.8906 26.0156 12.7344C26.1719 12.5781 26.3542 12.5 26.5625 12.5C26.7708 12.5 26.9531 12.5781 27.1094 12.7344C27.2656 12.8906 27.3438 13.0729 27.3438 13.2812C27.3438 13.4896 27.2656 13.6719 27.1094 13.8281C26.9531 13.9844 26.7708 14.0625 26.5625 14.0625ZM29.6875 14.0625C29.4792 14.0625 29.2969 13.9844 29.1406 13.8281C28.9844 13.6719 28.9062 13.4896 28.9062 13.2812C28.9062 13.0729 28.9844 12.8906 29.1406 12.7344C29.2969 12.5781 29.4792 12.5 29.6875 12.5C29.8958 12.5 30.0781 12.5781 30.2344 12.7344C30.3906 12.8906 30.4688 13.0729 30.4688 13.2812C30.4688 13.4896 30.3906 13.6719 30.2344 13.8281C30.0781 13.9844 29.8958 14.0625 29.6875 14.0625ZM31.25 15.625C31.0417 15.625 30.8594 15.5469 30.7031 15.3906C30.5469 15.2344 30.4688 15.0521 30.4688 14.8438C30.4688 14.6354 30.5469 14.4531 30.7031 14.2969C30.8594 14.1406 31.0417 14.0625 31.25 14.0625C31.4583 14.0625 31.6406 14.1406 31.7969 14.2969C31.9531 14.4531 32.0312 14.6354 32.0312 14.8438C32.0312 15.0521 31.9531 15.2344 31.7969 15.3906C31.6406 15.5469 31.4583 15.625 31.25 15.625ZM34.375 18.75C34.1667 18.75 33.9844 18.6719 33.8281 18.5156C33.6719 18.3594 33.5938 18.1771 33.5938 17.9688C33.5938 17.7604 33.6719 17.5781 33.8281 17.4219C33.9844 17.2656 34.1667 17.1875 34.375 17.1875C34.5833 17.1875 34.7656 17.2656 34.9219 17.4219C35.0781 17.5781 35.1562 17.7604 35.1562 17.9688C35.1562 18.1771 35.0781 18.3594 34.9219 18.5156C34.7656 18.6719 34.5833 18.75 34.375 18.75ZM35.9375 20.3125C35.7292 20.3125 35.5469 20.2344 35.3906 20.0781C35.2344 19.9219 35.1562 19.7396 35.1562 19.5312C35.1562 19.3229 35.2344 19.1406 35.3906 18.9844C35.5469 18.8281 35.7292 18.75 35.9375 18.75C36.1458 18.75 36.3281 18.8281 36.4844 18.9844C36.6406 19.1406 36.7188 19.3229 36.7188 19.5312C36.7188 19.7396 36.6406 19.9219 36.4844 20.0781C36.3281 20.2344 36.1458 20.3125 35.9375 20.3125ZM20.3125 28.5156C19.7656 28.5156 19.3034 28.3268 18.9258 27.9492C18.5482 27.5716 18.3594 27.1094 18.3594 26.5625C18.3594 26.0156 18.5482 25.5534 18.9258 25.1758C19.3034 24.7982 19.7656 24.6094 20.3125 24.6094C20.8594 24.6094 21.3216 24.7982 21.6992 25.1758C22.0768 25.5534 22.2656 26.0156 22.2656 26.5625C22.2656 27.1094 22.0768 27.5716 21.6992 27.9492C21.3216 28.3268 20.8594 28.5156 20.3125 28.5156ZM29.6875 28.5156C29.1406 28.5156 28.6784 28.3268 28.3008 27.9492C27.9232 27.5716 27.7344 27.1094 27.7344 26.5625C27.7344 26.0156 27.9232 25.5534 28.3008 25.1758C28.6784 24.7982 29.1406 24.6094 29.6875 24.6094C30.2344 24.6094 30.6966 24.7982 31.0742 25.1758C31.4518 25.5534 31.6406 26.0156 31.6406 26.5625C31.6406 27.1094 31.4518 27.5716 31.0742 27.9492C30.6966 28.3268 30.2344 28.5156 29.6875 28.5156ZM25 40.625C22.8646 40.625 20.8464 40.2148 18.9453 39.3945C17.0443 38.5742 15.3841 37.4544 13.9648 36.0352C12.5456 34.6159 11.4258 32.9557 10.6055 31.0547C9.78516 29.1536 9.375 27.1354 9.375 25C9.375 22.8385 9.78516 20.8073 10.6055 18.9062C11.4258 17.0052 12.5456 15.3516 13.9648 13.9453C15.3841 12.5391 17.0443 11.4258 18.9453 10.6055C20.8464 9.78516 22.8646 9.375 25 9.375C27.1615 9.375 29.1927 9.78516 31.0938 10.6055C32.9948 11.4258 34.6484 12.5391 36.0547 13.9453C37.4609 15.3516 38.5742 17.0052 39.3945 18.9062C40.2148 20.8073 40.625 22.8385 40.625 25C40.625 27.1354 40.2148 29.1536 39.3945 31.0547C38.5742 32.9557 37.4609 34.6159 36.0547 36.0352C34.6484 37.4544 32.9948 38.5742 31.0938 39.3945C29.1927 40.2148 27.1615 40.625 25 40.625ZM25 37.5C28.4896 37.5 31.4453 36.2826 33.8672 33.8477C36.2891 31.4128 37.5 28.4635 37.5 25C37.5 21.5104 36.2891 18.5547 33.8672 16.1328C31.4453 13.7109 28.4896 12.5 25 12.5C21.5365 12.5 18.5872 13.7109 16.1523 16.1328C13.7174 18.5547 12.5 21.5104 12.5 25C12.5 28.4635 13.7174 31.4128 16.1523 33.8477C18.5872 36.2826 21.5365 37.5 25 37.5Z" fill="#E6E6E6"/>
</g>
</svg>
