<svg width="70" height="70" viewBox="0 0 70 70" fill="none" xmlns="http://www.w3.org/2000/svg">
<path fill-rule="evenodd" clip-rule="evenodd" d="M4.375 63.625C4.375 64.7296 5.27043 65.625 6.375 65.625H63.625C64.7296 65.625 65.625 64.7296 65.625 63.625V6.375C65.625 5.27043 64.7296 4.375 63.625 4.375H6.375C5.27043 4.375 4.375 5.27043 4.375 6.375V63.625Z" fill="#2A2A2A"/>
<path fill-rule="evenodd" clip-rule="evenodd" d="M56.3095 38.0102C56.0769 37.4118 55.7445 36.8468 55.2791 36.3148C54.847 35.8827 54.3484 35.4838 53.7831 35.1181C53.2181 34.7525 52.6198 34.4533 51.9882 34.1873C51.2901 33.8881 50.592 33.6222 49.8607 33.3563C49.1293 33.0903 48.398 32.7911 47.6335 32.4254C46.8024 32.0265 46.1376 31.528 45.7055 30.8963C45.2732 30.2647 45.0406 29.5001 45.0406 28.5362C45.0406 27.6386 45.373 26.874 46.0711 26.2424C46.736 25.6109 47.567 25.3117 48.5641 25.3117C49.495 25.3117 50.2928 25.4778 50.9244 25.8435C51.5561 26.2092 52.1211 26.6745 52.5532 27.2729C52.9855 27.8713 53.351 28.5693 53.6502 29.334C53.9163 30.0985 54.1822 30.8963 54.4147 31.7275H55.678L55.545 24.4473H54.3151L53.6834 25.5111C53.0186 25.0789 52.2874 24.7133 51.4894 24.4141C50.6918 24.1149 49.761 23.9487 48.7637 23.9487C47.8661 23.9487 47.035 24.1149 46.204 24.4141C45.373 24.7133 44.6749 25.1454 44.0765 25.6774C43.4449 26.2424 42.9463 26.874 42.6139 27.6054C42.2814 28.3035 42.1153 29.1012 42.1153 29.9322C42.1153 31.3617 42.4477 32.5585 43.1458 33.456C43.8438 34.3534 44.8078 35.0849 46.0377 35.6499C46.6694 35.9491 47.4341 36.2483 48.2983 36.5808C49.1626 36.9132 49.9271 37.2123 50.592 37.4782C51.5893 37.8771 52.3206 38.4423 52.8193 39.2069C53.3178 39.9714 53.5505 40.8024 53.5505 41.6668C53.5505 42.2651 53.4841 42.797 53.3178 43.2624C53.1516 43.7277 52.919 44.1268 52.5866 44.4592C52.2542 44.7915 51.8219 45.0575 51.2901 45.2568C50.7583 45.4231 50.1266 45.5228 49.4285 45.5228C48.4977 45.5228 47.6667 45.3567 46.9354 44.991C46.204 44.6252 45.5724 44.1268 45.0406 43.5282C44.4754 42.8967 44.0101 42.1986 43.6776 41.4341C43.3452 40.6695 43.046 39.8385 42.7802 38.9077H41.5169L41.7496 46.4204H42.9795L43.6444 45.2901C44.3425 45.7223 45.1735 46.088 46.1708 46.3871C47.1681 46.6863 48.132 46.8526 49.1293 46.8526C51.2569 46.8526 53.0519 46.2209 54.4814 44.9576C55.9108 43.7277 56.642 42.0988 56.642 40.1709C56.642 39.3398 56.5423 38.6085 56.3095 38.0102ZM40.537 25.8766C40.8694 25.7771 41.1684 25.7105 41.4344 25.7105H41.4677V24.6135H33.4895V25.7105C34.5533 25.7771 35.3511 25.9432 35.8166 26.176C36.3152 26.4418 36.5477 26.7078 36.5477 27.0735C36.5477 27.3061 36.5147 27.6054 36.4481 27.9709C36.3978 28.2225 36.2904 28.6643 36.1403 29.2821C36.0921 29.4808 36.0394 29.6977 35.9827 29.9323C35.7229 30.9976 35.3819 32.2253 34.9913 33.6314C34.8822 34.0242 34.7692 34.431 34.653 34.8521C34.3456 35.9475 33.9937 37.1651 33.6102 38.492C33.3303 39.4604 33.0335 40.4871 32.725 41.567L27.1736 24.8795H25.6443L20.1595 41.2346C19.4585 38.781 18.8601 36.6925 18.3644 34.9624C18.0139 33.7389 17.7147 32.6946 17.4668 31.8271C16.8684 29.7328 16.4363 28.2037 16.2037 27.3061C16.2037 27.2276 16.183 27.1284 16.1579 27.0084C16.1512 26.9762 16.1442 26.9424 16.1371 26.9072C16.1039 26.741 16.1039 26.6081 16.1039 26.5083V26.5083C16.1039 26.2425 16.3699 26.0429 16.9349 25.9432C17.4668 25.8436 18.1317 25.7437 18.9295 25.7105V24.6135H9.9873V25.7105C10.0158 25.7141 10.0451 25.7176 10.075 25.7213C10.3245 25.7516 10.6213 25.7878 10.9182 25.8766C11.2506 25.9765 11.5498 26.1094 11.8156 26.2757C12.1148 26.4751 12.3808 26.7078 12.5471 26.9406C12.7132 27.2065 12.8461 27.4724 12.946 27.8048C13.3116 29.1345 14.043 31.7274 15.14 35.6166C15.7116 37.626 16.2742 39.6084 16.8278 41.559C17.3366 43.3516 17.8377 45.1174 18.3312 46.8526H19.694L25.445 29.9323L31.0296 46.8526H32.459C33.5894 43.2624 34.653 39.8716 35.6171 36.6804C36.1474 34.9433 36.6475 33.3168 37.1119 31.8064C37.4917 30.5711 37.8477 29.4135 38.1767 28.3366C38.343 27.8048 38.5091 27.4059 38.7419 27.1067C38.9412 26.8075 39.2405 26.5415 39.6061 26.3089C39.8721 26.1426 40.2045 25.9765 40.537 25.8766Z" fill="white"/>
</svg>
