<svg width="56" height="25" viewBox="0 0 56 25" fill="none" xmlns="http://www.w3.org/2000/svg">
<path fill-rule="evenodd" clip-rule="evenodd" d="M13.5918 2.38575C13.5194 2.38575 13.4378 2.40407 13.3473 2.43154C13.2567 2.45902 13.1661 2.50482 13.0936 2.55061C12.994 2.61473 12.9124 2.688 12.8581 2.77043C12.7947 2.85286 12.7494 2.96277 12.7041 3.10932C12.6148 3.40467 12.5183 3.72206 12.4153 4.06068C12.2884 4.47813 12.1516 4.92784 12.0066 5.40826C11.7439 6.28753 11.454 7.22176 11.146 8.21095H10.7565L9.23468 3.54896L7.66755 8.21095H7.29615C7.16254 7.73592 7.02687 7.25259 6.88915 6.76196L6.88863 6.76012L6.88851 6.75967L6.88838 6.75922L6.88807 6.75812C6.7367 6.21886 6.58286 5.67077 6.42653 5.11516C6.1276 4.04355 5.92831 3.32914 5.82867 2.96277C5.80149 2.87118 5.76526 2.79791 5.71997 2.72463C5.67468 2.66052 5.60221 2.59641 5.52068 2.54145C5.44821 2.49566 5.36669 2.45902 5.2761 2.43154C5.19534 2.40705 5.11459 2.39711 5.04666 2.38875L5.02246 2.38575V2.0835H7.45921V2.38575C7.2418 2.39491 7.06063 2.42238 6.91569 2.44986C6.7617 2.47734 6.68923 2.53229 6.68923 2.60557V2.60557C6.68923 2.63304 6.68923 2.66968 6.69829 2.71548L6.70388 2.74295C6.71073 2.77616 6.71641 2.80364 6.71641 2.82538C6.77982 3.07268 6.89758 3.494 7.06063 4.07103C7.12815 4.30995 7.20964 4.59756 7.30511 4.9345L7.30523 4.93493C7.44031 5.41164 7.60335 5.98707 7.79437 6.66306L9.28903 2.15677H9.70572L11.2185 6.75465C11.3027 6.45656 11.3837 6.17321 11.4601 5.90596L11.4601 5.90584L11.4602 5.90565C11.5645 5.54072 11.6602 5.20583 11.7439 4.90451C11.7757 4.78809 11.8065 4.67563 11.8364 4.56704L11.8365 4.56664L11.8365 4.56659C11.9427 4.17983 12.0355 3.84207 12.1062 3.54896L12.1497 3.36757L12.1497 3.36756C12.1903 3.19853 12.2194 3.07756 12.2331 3.00857C12.2512 2.90782 12.2602 2.82538 12.2602 2.76127C12.2602 2.66052 12.1968 2.58725 12.0609 2.51397C11.9341 2.44986 11.7167 2.40407 11.4268 2.38575V2.0835H13.6009V2.38575H13.5918ZM16.9618 8.21095H14.2136V7.90457C14.2874 7.89529 14.4073 7.88601 14.5456 7.87672C14.684 7.86744 14.7946 7.84887 14.8592 7.82102C14.9514 7.78388 15.0252 7.72818 15.0621 7.66319C15.1082 7.5982 15.1266 7.50536 15.1266 7.39395V2.95619C15.1266 2.85407 15.1082 2.77051 15.0805 2.70553C15.0528 2.64054 14.9791 2.58483 14.8592 2.53841C14.7762 2.50128 14.6655 2.47342 14.5364 2.44557C14.4073 2.41772 14.2966 2.39915 14.2136 2.38987V2.0835H16.9618V2.38987C16.8695 2.38987 16.7681 2.39915 16.6482 2.41772C16.5283 2.43629 16.4177 2.46414 16.3255 2.49199C16.2148 2.52913 16.141 2.58483 16.1041 2.65911C16.0672 2.73338 16.0488 2.82622 16.0488 2.91906V7.35682C16.0488 7.44966 16.0672 7.53321 16.1134 7.60749C16.1502 7.68176 16.224 7.73746 16.3255 7.78388L16.343 7.78896L16.3431 7.78896L16.3431 7.78897L16.3431 7.78898L16.3431 7.78898C16.4066 7.80734 16.4944 7.83275 16.6206 7.85815C16.7589 7.88601 16.8695 7.90457 16.971 7.90457V8.21095H16.9618ZM22.3565 8.21095L22.4857 6.38476H22.1534C22.098 6.55162 21.9872 6.7741 21.8303 7.04293C21.6826 7.31176 21.5441 7.5157 21.4241 7.64548C21.3871 7.69183 21.3225 7.72891 21.2394 7.75672C21.1564 7.7938 21.064 7.81234 20.9625 7.83088C20.8609 7.84942 20.7502 7.85869 20.6394 7.86796L20.6394 7.86796C20.5194 7.87723 20.4086 7.87723 20.307 7.87723C20.0763 7.87723 19.8916 7.86796 19.7624 7.84942C19.6331 7.83088 19.5316 7.80307 19.467 7.74745C19.4024 7.69183 19.3562 7.6084 19.3377 7.50643C19.3193 7.39519 19.31 7.24687 19.31 7.06147V2.9456C19.31 2.8529 19.3285 2.7602 19.3654 2.67677C19.4024 2.59334 19.467 2.53772 19.5685 2.50064C19.6156 2.48487 19.6895 2.4691 19.7901 2.44762L19.8455 2.43576C19.9747 2.40795 20.0763 2.38941 20.1593 2.38941V2.0835H17.5837V2.38941C17.6576 2.38941 17.7591 2.40795 17.8791 2.44502L17.893 2.4493C18.0063 2.48428 18.094 2.51135 18.1561 2.54699C18.2484 2.59334 18.313 2.65823 18.35 2.73239C18.3777 2.80655 18.3961 2.88998 18.3961 2.99195V7.37665C18.3961 7.48789 18.3777 7.58059 18.3407 7.65475C18.3038 7.72891 18.2392 7.78453 18.1561 7.82161C18.1007 7.84015 18.0084 7.85869 17.8791 7.87723C17.7499 7.8865 17.6484 7.89577 17.5837 7.90504V8.21095H22.3565ZM28.0004 6.38476L27.8712 8.21095H23.0984V7.90504C23.1631 7.89577 23.2646 7.8865 23.3939 7.87723C23.5231 7.85869 23.6154 7.84015 23.6708 7.82161C23.7539 7.78453 23.8185 7.72891 23.8554 7.65475C23.8924 7.58059 23.9108 7.48789 23.9108 7.37665V2.99195C23.9108 2.88998 23.8924 2.80655 23.8647 2.73239C23.8277 2.65823 23.7631 2.59334 23.6708 2.54699C23.6087 2.51136 23.521 2.48428 23.4077 2.44931L23.4077 2.4493L23.3939 2.44502C23.2738 2.40795 23.1723 2.38941 23.0984 2.38941V2.0835H25.674V2.38941C25.591 2.38941 25.4894 2.40795 25.3602 2.43576L25.3048 2.44762C25.2042 2.4691 25.1304 2.48487 25.0832 2.50064C24.9817 2.53772 24.9171 2.59334 24.8801 2.67677C24.8432 2.7602 24.8247 2.8529 24.8247 2.9456V7.06147C24.8247 7.24687 24.834 7.39519 24.8524 7.50643C24.8709 7.6084 24.9171 7.69183 24.9817 7.74745C25.0463 7.80307 25.1479 7.83088 25.2771 7.84942C25.4063 7.86796 25.591 7.87723 25.8218 7.87723C25.9233 7.87723 26.0341 7.87723 26.1541 7.86796L26.1541 7.86796C26.2649 7.85869 26.3757 7.84942 26.4772 7.83088C26.5787 7.81234 26.6711 7.7938 26.7541 7.75672C26.8372 7.72891 26.9018 7.69183 26.9388 7.64548C27.0588 7.5157 27.1973 7.31176 27.345 7.04293C27.5019 6.7741 27.6127 6.55162 27.6681 6.38476H28.0004ZM28.3068 8.21095H31.0549H31.0641V7.90457C30.9627 7.90457 30.852 7.88601 30.7137 7.85815C30.5875 7.83274 30.4996 7.80732 30.4362 7.78896L30.4186 7.78388C30.3172 7.73746 30.2526 7.68176 30.2065 7.60749C30.1604 7.53321 30.1419 7.44966 30.1419 7.35682V2.91906C30.1419 2.82622 30.1604 2.73338 30.1973 2.65911C30.2342 2.58483 30.3079 2.52913 30.4186 2.49199C30.5108 2.46414 30.6215 2.43629 30.7414 2.41772C30.8612 2.39915 30.9627 2.38987 31.0549 2.38987V2.0835H28.3068V2.38987C28.3898 2.39915 28.5004 2.41772 28.6295 2.44557C28.7586 2.47342 28.8693 2.50128 28.9523 2.53841C29.0722 2.58483 29.146 2.64054 29.1736 2.70553C29.2013 2.77051 29.2197 2.85407 29.2197 2.95619V7.39395C29.2197 7.50536 29.2013 7.5982 29.1552 7.66319C29.1183 7.72818 29.0445 7.78388 28.9523 7.82102C28.8878 7.84887 28.7863 7.86744 28.6388 7.87672C28.5004 7.88601 28.3806 7.89529 28.3068 7.90457V8.21095ZM35.4109 5.74167L34.5112 3.39129L33.6204 5.74167H35.4109ZM37.8043 8.21095H35.33V7.90915C35.5459 7.89086 35.7258 7.86342 35.8698 7.82684C36.0138 7.78111 36.0858 7.73538 36.0858 7.67137C36.0858 7.64393 36.0858 7.61649 36.0768 7.57991C36.0678 7.54333 36.0588 7.50675 36.0498 7.47931L35.5639 6.11664H33.4764C33.3954 6.31784 33.3325 6.4916 33.2875 6.63793C33.2425 6.78426 33.1975 6.92144 33.1525 7.04948C33.1165 7.16837 33.0895 7.26897 33.0805 7.35127C33.0625 7.42444 33.0625 7.48846 33.0625 7.53418C33.0625 7.64393 33.1525 7.73538 33.3235 7.7994C33.5034 7.86342 33.7014 7.9 33.9173 7.90915V8.21095H31.6769V7.90915L31.7039 7.90579L31.7039 7.90579L31.7039 7.90578C31.771 7.89751 31.8519 7.88752 31.9468 7.86342C32.0548 7.83598 32.1448 7.7994 32.2167 7.75367C32.3247 7.68051 32.4147 7.5982 32.4777 7.51589C32.5407 7.43358 32.6036 7.31469 32.6576 7.16837L32.673 7.12896C32.9661 6.37989 33.2937 5.54234 33.6474 4.60764C33.9265 3.87706 34.184 3.20148 34.4156 2.59373L34.416 2.59285L34.6101 2.0835H34.943L36.9225 7.2964C36.9675 7.40615 37.0125 7.4976 37.0665 7.56162C37.1205 7.62564 37.1925 7.6988 37.2915 7.76282C37.3544 7.7994 37.4354 7.83598 37.5434 7.86342C37.6424 7.89086 37.7323 7.90915 37.8043 7.90915V8.21095ZM43.3489 8.21095H46.0764V7.90504C46.0017 7.90504 45.8896 7.89577 45.7588 7.86796C45.628 7.84015 45.5346 7.81234 45.4786 7.78453C45.3852 7.72891 45.3198 7.66402 45.2824 7.59913C45.2451 7.53424 45.2264 7.45081 45.2264 7.34884V2.92706C45.2264 2.83436 45.2451 2.75093 45.2824 2.6675C45.3105 2.58407 45.3758 2.52845 45.4786 2.49137L45.5078 2.48292C45.5689 2.46508 45.6467 2.44238 45.7588 2.42649L45.8149 2.41779C45.9122 2.40256 45.9962 2.38941 46.067 2.38941V2.0835H44.0495L44.044 2.11122L44.044 2.11125C44.0334 2.16531 44.0152 2.25803 43.9841 2.38941C43.9467 2.54699 43.9 2.69531 43.844 2.83436L42.3308 6.6814L40.5654 2.0835H38.4638V2.38941C38.5852 2.39868 38.716 2.41722 38.8467 2.45429C38.9775 2.49137 39.0803 2.55626 39.1737 2.63042C39.2577 2.69531 39.3138 2.79728 39.3605 2.90852C39.4072 3.01976 39.4259 3.16808 39.4259 3.35348V6.496C39.4259 6.88534 39.4072 7.16344 39.3698 7.3303C39.3325 7.49716 39.2671 7.61767 39.1643 7.7011C39.0803 7.75672 38.9682 7.81234 38.8281 7.84015C38.6879 7.86796 38.5478 7.89577 38.4171 7.90504V8.21095H40.911V7.90504C40.8456 7.90504 40.7149 7.87723 40.5187 7.82161C40.3226 7.76599 40.1918 7.71037 40.1264 7.64548C40.033 7.56205 39.9676 7.43227 39.9209 7.24687C39.8742 7.06147 39.8555 6.79264 39.8555 6.44038V2.77874H39.9116L41.9198 8.10898H42.1346L44.2456 2.88998H44.311V7.34884C44.311 7.46008 44.283 7.54351 44.2456 7.61767C44.2083 7.68256 44.1429 7.74745 44.0495 7.80307C43.9934 7.83088 43.8907 7.85869 43.7319 7.87723C43.5731 7.89577 43.4517 7.90504 43.3489 7.90504V8.21095ZM50.591 5.56149C50.7233 5.71068 50.8177 5.86919 50.8839 6.03703C50.95 6.20487 50.9783 6.41001 50.9783 6.64312C50.9783 7.18393 50.7705 7.64083 50.3643 7.98583C49.958 8.34016 49.4478 8.51732 48.8432 8.51732C48.5598 8.51732 48.2858 8.4707 48.0023 8.38678C47.7189 8.30286 47.4827 8.20029 47.2843 8.07907L47.0954 8.3961H46.7458L46.6891 6.27947H47.0481C47.1237 6.54055 47.2087 6.77366 47.3032 6.98812C47.3977 7.20258 47.53 7.39839 47.6906 7.57556C47.8417 7.7434 48.0212 7.88326 48.2291 7.98583C48.4369 8.0884 48.6731 8.13502 48.9377 8.13502C49.1361 8.13502 49.3156 8.10705 49.4667 8.06042C49.6179 8.00448 49.7407 7.92988 49.8352 7.83664C49.9297 7.7434 49.9958 7.6315 50.043 7.50096C50.0903 7.37042 50.1092 7.22123 50.1092 7.05339C50.1092 6.81096 50.043 6.57785 49.9013 6.36339C49.7596 6.14893 49.5518 5.99041 49.2683 5.87852C49.0794 5.80392 48.8621 5.72001 48.6164 5.62676C48.3708 5.53352 48.1535 5.4496 47.974 5.36568C47.6244 5.20716 47.3505 5.00203 47.1521 4.75027C46.9537 4.49851 46.8592 4.16283 46.8592 3.76188C46.8592 3.52878 46.9064 3.30499 47.0009 3.10918C47.0954 2.90404 47.2371 2.72688 47.4166 2.56836C47.5867 2.41917 47.7851 2.29796 48.0212 2.21404C48.2574 2.13012 48.4936 2.0835 48.7487 2.0835C49.0321 2.0835 49.2967 2.13012 49.5234 2.21404C49.7502 2.29796 49.958 2.40053 50.147 2.52174L50.3265 2.22336H50.676L50.7138 4.2654H50.3548C50.2887 4.03229 50.2131 3.80851 50.1375 3.59405C50.0525 3.37959 49.9486 3.18377 49.8257 3.01593C49.7029 2.8481 49.5423 2.71755 49.3628 2.61499C49.1833 2.51242 48.9566 2.4658 48.692 2.4658C48.4086 2.4658 48.1724 2.54972 47.9835 2.72688C47.7851 2.90404 47.6906 3.1185 47.6906 3.37026C47.6906 3.64067 47.7567 3.85513 47.8795 4.03229C48.0023 4.20946 48.1913 4.34932 48.4275 4.46121C48.6448 4.56378 48.8526 4.6477 49.0605 4.7223C49.2683 4.79689 49.4667 4.87149 49.6651 4.95541C49.8446 5.03 50.0147 5.11392 50.1753 5.20716C50.3265 5.31906 50.4682 5.43095 50.591 5.56149ZM14.4257 14.3055C14.3598 14.1374 14.2655 13.9787 14.1335 13.8293C14.011 13.7079 13.8696 13.5958 13.7093 13.4931C13.549 13.3904 13.3794 13.3063 13.2003 13.2316C13.0023 13.1476 12.8043 13.0729 12.5969 12.9982C12.3895 12.9235 12.1822 12.8394 11.9653 12.7367C11.7297 12.6247 11.5411 12.4846 11.4186 12.3072C11.296 12.1298 11.23 11.915 11.23 11.6442C11.23 11.3921 11.3243 11.1773 11.5223 10.9999C11.7108 10.8225 11.9465 10.7384 12.2293 10.7384C12.4932 10.7384 12.7195 10.7851 12.8986 10.8878C13.0777 10.9905 13.238 11.1213 13.3605 11.2893C13.4831 11.4574 13.5868 11.6535 13.6716 11.8683C13.747 12.0831 13.8224 12.3072 13.8884 12.5406H14.2466L14.2089 10.4956H13.8601L13.681 10.7944C13.4925 10.673 13.2851 10.5703 13.0588 10.4863C12.8326 10.4022 12.5687 10.3556 12.2858 10.3556C12.0313 10.3556 11.7957 10.4022 11.56 10.4863C11.3243 10.5703 11.1263 10.6917 10.9567 10.8411C10.7776 10.9999 10.6361 11.1773 10.5419 11.3827C10.4476 11.5788 10.4005 11.8029 10.4005 12.0364C10.4005 12.4379 10.4947 12.7741 10.6927 13.0262C10.8907 13.2783 11.1641 13.4838 11.5128 13.6425C11.692 13.7265 11.9088 13.8106 12.1539 13.904C12.399 13.9973 12.6158 14.0814 12.8043 14.1561C13.0871 14.2681 13.2945 14.4269 13.4359 14.6417C13.5773 14.8564 13.6433 15.0899 13.6433 15.3327C13.6433 15.5007 13.6245 15.6502 13.5773 15.7809C13.5302 15.9116 13.4642 16.0237 13.3699 16.117C13.2757 16.2104 13.1531 16.2851 13.0023 16.3412C12.8515 16.3878 12.6723 16.4159 12.4744 16.4159C12.2104 16.4159 11.9748 16.3692 11.7674 16.2665C11.56 16.1637 11.3809 16.0237 11.23 15.8556C11.0698 15.6782 10.9378 15.4821 10.8435 15.2673C10.7493 15.0525 10.6644 14.8191 10.589 14.5576H10.2308L10.2968 16.668H10.6456L10.8341 16.3505C11.0321 16.4719 11.2677 16.5746 11.5506 16.6586C11.8334 16.7427 12.1067 16.7894 12.3895 16.7894C12.9929 16.7894 13.5019 16.612 13.9073 16.2571C14.3126 15.9116 14.52 15.4541 14.52 14.9125C14.52 14.679 14.4917 14.4736 14.4257 14.3055ZM19.4596 15.5917C19.6154 15.3318 19.7346 15.0347 19.808 14.7005C19.8813 14.3663 19.918 13.9949 19.918 13.5864C19.918 13.1686 19.8813 12.7787 19.7988 12.4259C19.7163 12.0731 19.5971 11.776 19.4413 11.5253C19.2854 11.284 19.0838 11.089 18.8546 10.9497C18.6162 10.8105 18.3504 10.7455 18.0387 10.7455C17.6995 10.7455 17.4062 10.829 17.1678 10.9869C16.9295 11.1447 16.737 11.3582 16.5811 11.6182C16.4345 11.8689 16.3336 12.1659 16.2603 12.5094C16.187 12.853 16.1595 13.2057 16.1595 13.5864C16.1595 14.0042 16.1961 14.3755 16.2695 14.7098C16.3428 15.044 16.462 15.3411 16.6178 15.601C16.7737 15.8517 16.9662 16.0559 17.1953 16.1952C17.4245 16.3345 17.7087 16.4087 18.0295 16.4087C18.3321 16.4087 18.6071 16.3345 18.8546 16.1952C19.1113 16.0467 19.3038 15.8517 19.4596 15.5917ZM20.1013 11.2375C20.3671 11.5161 20.578 11.8596 20.7247 12.2588C20.8713 12.658 20.9538 13.1036 20.9538 13.5864C20.9538 14.0692 20.8805 14.5148 20.7247 14.914C20.5688 15.3132 20.358 15.6474 20.083 15.926C19.8171 16.2045 19.5146 16.418 19.1571 16.5666C18.8087 16.7151 18.4329 16.7894 18.0387 16.7894C17.617 16.7894 17.232 16.7058 16.8745 16.548C16.517 16.3902 16.2145 16.1673 15.9578 15.8795C15.7011 15.601 15.4994 15.2575 15.3528 14.8583C15.2061 14.4591 15.1328 14.032 15.1328 13.5771C15.1328 13.0758 15.2061 12.6301 15.3619 12.2402C15.5178 11.8503 15.7286 11.5161 15.9945 11.2283C16.2603 10.9497 16.572 10.7269 16.9295 10.5784C17.287 10.4298 17.6537 10.3556 18.0387 10.3556C18.4421 10.3556 18.8179 10.4298 19.1754 10.5877C19.5329 10.7455 19.8355 10.959 20.1013 11.2375ZM27.052 11.0239C27.2015 10.9899 27.3108 10.9651 27.3877 10.9651H27.3787V10.6711H24.9581V10.9743C25.0481 10.9743 25.1831 11.0018 25.363 11.057C25.543 11.1029 25.669 11.158 25.75 11.2131C25.8309 11.2774 25.8939 11.3969 25.9389 11.5898C25.9839 11.7827 26.0019 12.0583 26.0019 12.4074V15.292L22.6545 10.6619H20.9538V10.9651C21.0528 10.9743 21.1968 11.011 21.3678 11.0753C21.5387 11.1396 21.6737 11.2223 21.7727 11.3142C21.8447 11.3877 21.9077 11.4887 21.9527 11.6173C21.9976 11.7459 22.0156 11.8837 22.0156 12.0124V14.9888C22.0156 15.393 21.9976 15.6686 21.9616 15.834C21.9257 15.9993 21.8627 16.1188 21.7637 16.2014C21.7187 16.2474 21.6107 16.2933 21.4307 16.3392C21.2598 16.3852 21.1248 16.4127 21.0528 16.4219V16.7251H23.4914V16.4219C23.4284 16.4219 23.2934 16.3944 23.0954 16.3392C22.8975 16.2841 22.7625 16.229 22.6995 16.1647C22.6095 16.082 22.5465 15.9442 22.5016 15.7605C22.4566 15.5767 22.4386 15.3012 22.4386 14.9521V11.8194L26.0469 16.7894H26.4158V12.3431C26.4158 12.0307 26.4338 11.7735 26.4698 11.5714C26.5058 11.3693 26.5778 11.2315 26.6768 11.158C26.7488 11.1121 26.8658 11.0753 27.0277 11.0294L27.052 11.0239ZM31.7145 15.5917C31.8704 15.3318 31.9895 15.0347 32.0629 14.7005C32.1362 14.3663 32.1729 13.9949 32.1729 13.5864C32.1729 13.1686 32.1362 12.7787 32.0537 12.4259C31.9712 12.0731 31.852 11.776 31.6962 11.5253C31.5403 11.284 31.3387 11.089 31.1095 10.9497C30.8712 10.8105 30.6053 10.7455 30.2936 10.7455C29.9544 10.7455 29.6611 10.829 29.4228 10.9869C29.1844 11.1447 28.9919 11.3582 28.8361 11.6182C28.6894 11.8689 28.5886 12.1659 28.5152 12.5094C28.4419 12.853 28.4144 13.2057 28.4144 13.5864C28.4144 14.0042 28.451 14.3755 28.5244 14.7098C28.5977 15.044 28.7169 15.3411 28.8727 15.601C29.0286 15.8517 29.2211 16.0559 29.4503 16.1952C29.6794 16.3345 29.9636 16.4087 30.2845 16.4087C30.587 16.4087 30.862 16.3345 31.1095 16.1952C31.3662 16.0467 31.5587 15.8517 31.7145 15.5917ZM32.3562 11.2375C32.622 11.5161 32.8329 11.8596 32.9796 12.2588C33.1262 12.658 33.2087 13.1036 33.2087 13.5864C33.2087 14.0692 33.1354 14.5148 32.9796 14.914C32.8237 15.3132 32.6129 15.6474 32.3379 15.926C32.072 16.2045 31.7695 16.418 31.412 16.5666C31.0636 16.7151 30.6878 16.7894 30.2936 16.7894C29.8719 16.7894 29.4869 16.7058 29.1294 16.548C28.7719 16.3902 28.4694 16.1673 28.2127 15.8795C27.956 15.601 27.7543 15.2575 27.6077 14.8583C27.461 14.4591 27.3877 14.032 27.3877 13.5771C27.3877 13.0758 27.461 12.6301 27.6168 12.2402C27.7727 11.8503 27.9835 11.5161 28.2494 11.2283C28.5152 10.9497 28.8269 10.7269 29.1844 10.5784C29.5419 10.4298 29.9086 10.3556 30.2936 10.3556C30.697 10.3556 31.0728 10.4298 31.4303 10.5877C31.7878 10.7455 32.0904 10.959 32.3562 11.2375ZM38.1406 16.7894H40.868V16.4927C40.7933 16.4927 40.6812 16.4835 40.5505 16.4557C40.4197 16.4278 40.3263 16.4 40.2702 16.3722C40.1768 16.3166 40.1115 16.2517 40.0741 16.1868C40.0367 16.1127 40.0181 16.0292 40.0181 15.9273V11.5055C40.0181 11.4128 40.0367 11.3294 40.0741 11.2459C40.1021 11.1625 40.1675 11.1069 40.2702 11.0698L40.2995 11.0613C40.3606 11.0435 40.4384 11.0208 40.5505 11.0049L40.6065 10.9962C40.7038 10.981 40.7879 10.9678 40.8587 10.9678V10.6619H38.8411L38.8356 10.6898L38.8356 10.6899L38.8356 10.69L38.8356 10.6901C38.825 10.7442 38.8068 10.8368 38.7757 10.9678C38.7384 11.1254 38.6917 11.2737 38.6356 11.4128L37.1225 15.2598L35.3571 10.6619H33.2554V10.9678C33.3769 10.9771 33.5076 10.9956 33.6384 11.0327C33.7692 11.0698 33.8719 11.1347 33.9653 11.2089C34.0494 11.2737 34.1054 11.3757 34.1521 11.487C34.1988 11.5982 34.2175 11.7465 34.2175 11.9319V15.0744C34.2175 15.4638 34.1988 15.7419 34.1615 15.9087C34.1241 16.0756 34.0587 16.1961 33.956 16.2795C33.8719 16.3351 33.7598 16.3908 33.6197 16.4186C33.4796 16.4464 33.3395 16.4742 33.2087 16.4835V16.7894H35.7027V16.4835C35.6373 16.4835 35.5065 16.4557 35.3104 16.4C35.1142 16.3444 34.9835 16.2888 34.9181 16.2239C34.8247 16.1405 34.7593 16.0107 34.7126 15.8253C34.6659 15.6399 34.6472 15.3711 34.6472 15.0188V11.3572H34.7032L36.7115 16.6874H36.9263L39.0373 11.4684H39.1027V15.9273C39.1027 16.0385 39.084 16.1219 39.0373 16.1961C38.9999 16.261 38.9345 16.3259 38.8411 16.3815C38.7851 16.4093 38.6823 16.4371 38.5236 16.4557C38.3648 16.4742 38.2433 16.4835 38.1406 16.4835V16.7894ZM44.912 14.311L44.0135 11.9606L43.1241 14.311H44.912ZM47.2929 16.7802H44.8311V16.4784C45.0468 16.4601 45.2264 16.4327 45.3702 16.3961C45.514 16.3504 45.5858 16.3047 45.5858 16.2407C45.5858 16.2132 45.5858 16.1858 45.5768 16.1492C45.5679 16.1126 45.5589 16.076 45.5499 16.0486L45.0557 14.6951H42.9713C42.8905 14.8963 42.8276 15.07 42.7827 15.2164C42.7377 15.3627 42.6928 15.4999 42.6479 15.6279C42.6119 15.7468 42.585 15.8474 42.576 15.9297C42.558 16.0029 42.558 16.0669 42.558 16.1126C42.558 16.2224 42.6479 16.3138 42.8186 16.3778C42.9983 16.4419 43.1959 16.4784 43.4116 16.4876V16.7894H41.1744V16.4876L41.2014 16.4842C41.2684 16.4759 41.3492 16.466 41.444 16.4419C41.5518 16.4144 41.6416 16.3778 41.7135 16.3321C41.8213 16.2589 41.9112 16.1766 41.974 16.0943C42.0369 16.012 42.0908 15.8931 42.1537 15.7468L42.1691 15.7075L42.1696 15.7062L42.1699 15.7054L42.17 15.7052C42.4624 14.9567 42.7892 14.1198 43.142 13.1861C43.4217 12.453 43.6796 11.7754 43.9115 11.1661L44.1034 10.6619H44.4358L46.4124 15.8748C46.4573 15.9846 46.5023 16.076 46.5562 16.1401C46.6101 16.2041 46.6819 16.2772 46.7808 16.3413C46.8437 16.3778 46.9245 16.4144 47.0323 16.4419C47.1312 16.4693 47.221 16.4876 47.2929 16.4876V16.7802ZM42.7063 19.2404H13.6009V18.934H42.7063V19.2404ZM18.8092 21.5057C18.7844 21.4871 18.7595 21.4685 18.7264 21.4407C18.6767 21.4035 18.5691 21.3293 18.4118 21.3293C18.2296 21.3293 18.0392 21.4314 17.9315 21.5892C17.8239 21.747 17.8156 21.9327 17.8156 22.007C17.8156 22.0534 17.8239 22.1834 17.8735 22.3041C17.9646 22.5362 18.1882 22.6754 18.4118 22.6754C18.5691 22.6754 18.6767 22.6105 18.8009 22.5083V22.8054L18.7786 22.8168C18.7025 22.8558 18.5836 22.9168 18.4035 22.9168C18.3041 22.9168 18.0723 22.8983 17.857 22.694C17.7576 22.6012 17.5837 22.3784 17.5837 21.9977C17.5837 21.7656 17.65 21.5428 17.7825 21.385C17.9398 21.1993 18.1799 21.0786 18.4118 21.0786C18.5608 21.0786 18.6685 21.125 18.8092 21.19V21.5057ZM20.9672 22.2771H20.3577L20.6774 21.6643L20.9672 22.2771ZM21.2669 22.9168H21.5666L20.6974 21.0786L19.7283 22.9078H20.0281L20.2478 22.4933H21.077L21.2669 22.9168ZM22.4679 21.0786V22.6679H23.0984V22.9168H22.1793V21.0786H22.4679ZM24.6303 22.9168H24.3239V21.0786H24.6303V22.9168ZM26.7749 21.0786V21.3371H26.1334V21.7871H26.7653V22.036H26.1239V22.9168H25.8558V21.0786H26.7749ZM28.5997 22.6742C28.3985 22.6742 28.2065 22.5809 28.0785 22.4223C27.9871 22.301 27.9322 22.133 27.9322 21.9744C27.9505 21.7038 28.1151 21.5358 28.1882 21.4798C28.3071 21.3865 28.4534 21.3399 28.5997 21.3399C28.8648 21.3399 29.1025 21.4892 29.2123 21.7411C29.2305 21.7784 29.2671 21.8811 29.2671 22.0117C29.2671 22.217 29.1665 22.4129 29.0111 22.5343C28.8465 22.6649 28.6728 22.6742 28.5997 22.6742ZM28.6088 21.0786C28.362 21.0786 28.1151 21.1812 27.9414 21.3679C27.786 21.5358 27.6945 21.7598 27.6945 21.9651C27.6854 22.2543 27.8042 22.5249 28.0145 22.7022C28.0968 22.7675 28.3162 22.9168 28.6088 22.9168C28.9837 22.9168 29.3128 22.7022 29.4591 22.3476C29.5231 22.1983 29.5323 22.0677 29.5323 22.0024C29.5323 21.7224 29.4043 21.4518 29.194 21.2839C29.1117 21.2186 28.9014 21.0786 28.6088 21.0786ZM31.0177 21.3275V21.902H31.222C31.3427 21.8924 31.4355 21.8828 31.5005 21.7775C31.519 21.7488 31.5469 21.6818 31.5469 21.586C31.5469 21.5573 31.5376 21.4424 31.4633 21.3754C31.4174 21.3359 31.3589 21.329 31.3034 21.3224C31.2915 21.321 31.2798 21.3196 31.2684 21.318H31.0177V21.3275ZM31.6676 22.9168L31.1198 22.1317H31.0084V22.9168H30.7578V21.0786H31.2777C31.3984 21.0882 31.519 21.0977 31.6212 21.1743C31.7511 21.2701 31.8069 21.4424 31.8069 21.5956C31.8069 21.6722 31.7883 21.9211 31.584 22.0552C31.5526 22.0795 31.5212 22.09 31.4617 22.1101L31.4262 22.1222L31.4263 22.1223L31.4263 22.1223L31.4263 22.1224L31.4263 22.1224C31.5099 22.2468 31.5934 22.3712 31.6769 22.486C31.7418 22.5817 31.8068 22.6678 31.8717 22.7539L31.8717 22.7539L31.8717 22.7539L31.8717 22.7539L31.8718 22.7541L31.8719 22.7541C31.909 22.8115 31.9461 22.869 31.9832 22.9168H31.6676ZM34.4342 21.1994H34.1804V22.0452C34.1895 22.0883 34.1895 22.1401 34.1895 22.1833C34.1895 22.235 34.1895 22.2868 34.1986 22.3386L33.6275 21.769C33.4707 21.614 33.31 21.4628 33.1479 21.3104L33.1477 21.3103L33.1476 21.3101C33.0661 21.2335 32.9842 21.1565 32.9024 21.0786V22.8478H33.1562V22.0797C33.1471 22.002 33.1471 21.933 33.1471 21.8639C33.1426 21.8251 33.1403 21.7841 33.138 21.7431C33.1358 21.7021 33.1335 21.6611 33.129 21.6223C33.2468 21.7518 33.3646 21.8726 33.4825 21.9934C33.6003 22.1142 33.7181 22.2264 33.8359 22.3385L33.836 22.3386C34.0354 22.5371 34.2347 22.7269 34.4341 22.9167L34.4342 22.9168V21.1994ZM35.6597 22.9168H35.9661V21.0786H35.6597V22.9168ZM38.124 22.2771H37.5146L37.8343 21.6643L38.124 22.2771ZM38.4237 22.9168H38.7234L37.8543 21.0786L36.8852 22.9078H37.1849L37.4047 22.4933H38.2339L38.4237 22.9168Z" fill="#1F191A"/>
</svg>
