<svg width="20" height="20" viewBox="0 0 20 20" fill="none" xmlns="http://www.w3.org/2000/svg">
<path d="M16.303 1.8139C16.303 1.8139 17.783 1.09247 17.6591 2.84437C17.6184 3.5658 17.2485 6.09102 16.9605 8.82196L15.9738 16.9124C15.9738 16.9124 15.8916 18.0976 15.1514 18.3038C14.4116 18.5095 13.3015 17.5824 13.0958 17.3762C12.9312 17.2215 10.0124 14.9024 8.98461 13.7691C8.69661 13.4596 8.36747 12.8415 9.02575 12.12L13.3423 6.96673C13.8356 6.34864 14.3289 4.90579 12.2733 6.65769L6.51721 11.5529C6.51721 11.5529 5.85932 12.0686 4.62619 11.6048L1.95347 10.5739C1.95347 10.5739 0.966816 9.80101 2.65251 9.02815C6.76407 6.60626 11.8211 4.13294 16.3022 1.8139H16.303Z" fill="#E6E6E6"/>
</svg>
