<svg width="70" height="70" viewBox="0 0 70 70" fill="none" xmlns="http://www.w3.org/2000/svg">
<path fill-rule="evenodd" clip-rule="evenodd" d="M4.375 63.625C4.375 64.7296 5.27043 65.625 6.375 65.625H63.625C64.7296 65.625 65.625 64.7296 65.625 63.625V6.375C65.625 5.27043 64.7296 4.375 63.625 4.375H6.375C5.27043 4.375 4.375 5.27043 4.375 6.375V63.625Z" fill="#409BCF"/>
<path fill-rule="evenodd" clip-rule="evenodd" d="M21.9543 27.3212C22.4903 27.6596 22.5208 27.7734 22.521 28.8367C22.521 28.8445 22.5147 28.8512 22.5069 28.8512C22.499 28.8512 22.4927 28.8575 22.4927 28.8654V37.7199C22.4927 38.4196 22.4927 38.7905 22.4819 39.0387C22.4751 39.1938 22.5075 39.3917 22.6627 39.3917C22.7193 39.3917 22.7193 39.3917 22.7477 39.3634C22.8611 39.2216 23.0028 39.0799 23.1444 39.0799C23.2275 39.0799 23.3398 39.1189 23.4986 39.174C23.6105 39.2129 23.7454 39.2597 23.9094 39.3066C24.2778 39.42 24.7877 39.5333 25.4678 39.5333C27.9613 39.5333 29.7181 37.8049 29.7181 35.3682C29.7181 33.3564 28.3013 31.7696 26.2045 31.7696C25.5405 31.7696 24.9677 31.9368 24.5194 32.1376C24.2233 32.2702 23.8811 32.2925 23.8811 31.968V28.4828C23.8811 27.8725 23.9123 27.2622 23.94 26.7215C23.9478 26.5694 23.9553 26.4227 23.9618 26.2831C23.9647 26.2201 23.9634 26.1463 23.9138 26.1072C23.8485 26.0559 23.7579 26.0948 23.6832 26.1313C23.2283 26.3533 22.7193 26.5214 22.3104 26.6563C22.1902 26.696 22.0787 26.7328 21.9798 26.7673C21.849 26.8129 21.7184 26.892 21.7207 27.0305C21.7219 27.1061 21.7431 27.1803 21.7843 27.2079L21.9543 27.3212ZM24.3345 38.3432C24.025 37.9494 23.8832 37.3882 23.8812 36.7424C23.8811 36.7346 23.8748 36.7282 23.867 36.7282C23.8591 36.7282 23.8528 36.7219 23.8528 36.7141V33.838C23.8528 33.1296 23.8811 32.9314 24.0794 32.7897C24.3345 32.6481 24.7595 32.5063 25.3262 32.5063C27.168 32.5063 28.1313 33.9798 28.1313 35.8781C28.1313 37.4649 27.4512 38.9383 25.7229 38.9383C25.1562 38.9383 24.6461 38.74 24.3345 38.3432ZM13.1714 32.818C13.6815 33.1298 13.6815 33.2431 13.6815 33.9514V41.8001C13.6815 43.1319 13.6532 43.3302 12.9731 43.4152L12.8251 43.4363C12.6609 43.4597 12.477 43.5302 12.4836 43.6959C12.4908 43.8772 12.6986 43.9198 12.8798 43.9104C13.3171 43.8878 13.7963 43.8686 14.3332 43.8686C14.806 43.8686 15.2192 43.8835 15.7458 43.9025C15.8648 43.9068 15.9897 43.9113 16.1223 43.9159C16.3056 43.9222 16.5036 43.868 16.5134 43.6848C16.5217 43.5296 16.3501 43.4622 16.1958 43.4437L15.7216 43.3868C15.0415 43.3018 15.0132 43.1319 15.0132 41.8285V39.9017C15.0132 39.8527 15.0147 39.8081 15.0177 39.7677C15.042 39.4426 15.4339 39.4366 15.7592 39.4585C15.9383 39.4706 16.1314 39.4766 16.2883 39.4766C18.9234 39.4766 20.7934 37.6348 20.7934 35.0849C20.7934 33.2147 19.6035 31.713 17.7333 31.713C16.701 31.713 15.6901 32.2887 15.2922 32.5153C15.2025 32.5664 15.0731 32.6186 15.0171 32.5318C14.992 32.4928 14.9849 32.4359 14.9849 32.3647C14.9849 32.2144 15.0046 32.0641 15.0265 31.8963C15.0368 31.8182 15.0475 31.7362 15.057 31.6487C15.0665 31.5611 15.0576 31.4543 14.9843 31.4054C14.9017 31.3504 14.8002 31.404 14.7175 31.4588C14.2244 31.7858 13.472 32.1826 13.0298 32.3647C12.9738 32.3927 12.9455 32.4553 12.9414 32.5217C12.9333 32.6531 13.0567 32.7415 13.1662 32.8145L13.1714 32.818ZM15.6083 38.485C15.2116 38.2016 15.0416 37.9749 15.0416 37.3799V34.178C15.0416 33.583 15.0983 33.2997 15.2682 33.1014C15.4667 32.8746 16.0333 32.5914 16.8267 32.5914C18.4984 32.5914 19.3201 34.0931 19.3201 35.5664C19.3201 37.4932 18.4418 38.8816 16.9401 38.8816C16.5433 38.8816 15.9766 38.7683 15.6083 38.485Z" fill="#00649C"/>
<path fill-rule="evenodd" clip-rule="evenodd" d="M57.312 33.71C57.5007 33.7045 57.5644 33.4836 57.5503 33.2954C57.5179 32.8616 57.4169 32.4059 57.2783 32.0821C57.2782 32.0819 57.2781 32.0819 57.278 32.0819C57.2779 32.0819 57.2778 32.0819 57.2778 32.0818C57.1077 31.9402 56.4278 31.7419 55.6062 31.7419C54.2178 31.7419 53.1127 32.507 53.1127 33.8387C53.1127 34.8586 53.8494 35.5103 54.9262 36.1054C55.6062 36.5021 56.3429 36.9554 56.3429 37.8054C56.3429 38.5989 55.7478 38.9955 55.0961 38.9955C54.1042 38.9955 53.5181 38.2093 53.1939 37.2607C53.1572 37.153 53.1108 37.0394 52.9978 37.0269C52.802 37.0053 52.709 37.2306 52.7125 37.4276C52.7187 37.775 52.7564 38.1613 52.8111 38.4781C52.8708 38.8233 53.0818 39.1237 53.3993 39.2719C53.8065 39.4621 54.302 39.5622 54.9262 39.5622C56.2862 39.5622 57.5896 38.8538 57.5896 37.4654C57.5896 36.162 56.6828 35.5387 55.7195 34.972C55.6919 34.9564 55.6642 34.9407 55.6363 34.925C55.0045 34.5695 54.3028 34.1746 54.3028 33.4419C54.3028 32.7619 54.7844 32.3085 55.4927 32.3085C56.1656 32.3085 56.6965 32.7339 57.021 33.4335C57.0832 33.5675 57.1643 33.7143 57.312 33.71ZM51.016 38.6839C50.5077 38.6839 50.4785 38.0083 50.4783 36.573C50.4783 36.5653 50.4845 36.5588 50.4923 36.5588C50.5 36.5588 50.5063 36.5525 50.5063 36.5448V28.5118C50.5063 27.7563 50.5302 26.905 50.5561 26.3542C50.5603 26.2647 50.5418 26.157 50.4598 26.1208C50.3985 26.0936 50.3338 26.1196 50.2738 26.1496C49.7508 26.4104 49.1082 26.6344 48.6546 26.7814C48.4735 26.8401 48.2848 26.9516 48.3264 27.1374C48.3364 27.1818 48.3546 27.219 48.3812 27.2367L48.5512 27.35C49.0896 27.6901 49.1179 27.8034 49.1179 28.88V31.6568C49.1179 31.8599 48.908 31.8706 48.7095 31.8279C48.4795 31.7786 48.1677 31.7418 47.7579 31.7418C45.2644 31.7418 43.3093 33.4136 43.3093 35.9921C43.3093 37.9188 44.6693 39.5338 46.7094 39.5338C47.5794 39.5338 48.1992 39.256 49.0093 38.7001C49.0246 38.6896 49.0429 38.6839 49.0614 38.6839C49.0961 38.6839 49.1268 38.704 49.1319 38.7382C49.1462 38.8346 49.1462 39.0246 49.1462 39.2506V39.5622C49.1462 39.7415 49.4295 39.6693 49.6002 39.6143C50.106 39.4514 50.8936 39.2612 51.5217 39.151C51.6935 39.1209 51.8778 39.0496 51.9046 38.8773C51.9457 38.612 51.6766 38.5598 51.4156 38.6225C51.2641 38.6588 51.1234 38.6839 51.016 38.6839ZM48.9199 33.102C49.0326 33.2719 49.1182 33.4419 49.1182 33.8103V37.4651C49.1182 37.7486 49.0892 38.0318 48.9765 38.1455C48.6931 38.4287 48.0697 38.6555 47.5598 38.6555C45.7464 38.6555 44.8112 37.0687 44.8112 35.397C44.8112 33.782 45.6891 32.3368 47.3614 32.3368C48.0976 32.3368 48.6364 32.7052 48.9199 33.102ZM39.7195 32.5506C39.7114 32.6821 39.8348 32.7704 39.9443 32.8435L39.9495 32.8469C40.3705 33.1042 40.4826 33.7087 40.509 33.912C40.5148 33.9575 40.5162 34.003 40.5162 34.0489V37.2102C40.5162 38.5419 40.4879 38.7402 39.8079 38.8252L39.6598 38.8464C39.4957 38.8698 39.3118 38.9403 39.3183 39.1059C39.3255 39.2873 39.5333 39.3298 39.7145 39.3205C40.1519 39.2979 40.6311 39.2786 41.1679 39.2786C41.7711 39.2786 42.2529 39.3029 42.7706 39.329C42.8531 39.3331 42.9413 39.3151 42.9746 39.2395C42.9954 39.1924 43.0079 39.1349 43.0087 39.0791C43.0109 38.9311 42.8493 38.8712 42.7027 38.8503L42.528 38.8255C41.848 38.7122 41.8196 38.5423 41.8196 37.2105V33.8954C41.8196 33.3216 41.8515 32.684 41.8794 32.1261C41.887 31.9749 41.8942 31.8296 41.9005 31.6929C41.9033 31.6316 41.9007 31.5627 41.8511 31.5264C41.771 31.4679 41.6627 31.5168 41.5775 31.5677C41.1472 31.8246 40.3763 32.1814 39.9428 32.3452C39.8535 32.3789 39.7489 32.4131 39.7262 32.5058C39.7227 32.5203 39.7204 32.5353 39.7195 32.5506ZM41.0263 28.9367C41.5362 28.9367 41.9896 28.6534 41.9896 28.0017C41.9896 27.4916 41.6213 27.0667 41.0829 27.0667C40.5445 27.0667 40.0911 27.435 40.0911 28.03C40.0911 28.5401 40.4595 28.9367 41.0263 28.9367ZM30.6558 27.3522C31.1942 27.6922 31.2225 27.8055 31.2225 28.8823V37.2409C31.2225 38.5726 31.1942 38.7711 30.5141 38.8561L30.3669 38.8771C30.2022 38.9006 30.0176 38.9715 30.0246 39.1377C30.0322 39.3184 30.2392 39.3609 30.4199 39.3518C30.877 39.3289 31.3604 39.3093 31.9025 39.3093C32.5057 39.3093 33.0118 39.3336 33.5555 39.3597C33.6422 39.3638 33.7348 39.3444 33.7683 39.2645C33.7869 39.2202 33.7983 39.1675 33.7998 39.1159C33.8043 38.9642 33.6382 38.903 33.4876 38.8842L33.2626 38.8561C32.5825 38.7428 32.5542 38.5726 32.5542 37.2409V36.2209C32.5542 35.6542 32.5542 35.5976 32.8942 35.5976C33.0926 35.5976 33.2909 35.6826 33.4609 35.8525L35.4443 38.1477C35.6711 38.431 35.7561 38.5443 35.7561 38.6576C35.7561 38.7711 35.5859 38.8277 35.3027 38.8561L35.0983 38.8901C35.0082 38.9052 34.9165 38.9148 34.8854 39.0007C34.7992 39.2389 35.1261 39.3584 35.3792 39.3468C35.8329 39.3261 36.35 39.3093 36.9177 39.3093C37.4177 39.3093 37.9377 39.3293 38.4105 39.3525C38.5844 39.3611 38.7845 39.3189 38.7952 39.1451C38.7953 39.1432 38.7954 39.1413 38.7955 39.1394C38.8034 38.9706 38.6158 38.9031 38.4479 38.8844C38.1078 38.8277 37.7395 38.7144 37.4844 38.4877C37.1161 38.1477 36.4644 37.4394 35.7561 36.6175C35.1751 35.9861 34.8868 35.6474 34.6103 35.2801C34.5425 35.1901 34.4617 35.0969 34.4572 34.9843C34.4537 34.8983 34.5059 34.8178 34.651 34.6909C34.7545 34.596 34.8843 34.4669 35.0348 34.3173C35.3785 33.9755 35.83 33.5266 36.3228 33.1324C36.8044 32.7358 37.1161 32.5657 37.4844 32.4807L37.8368 32.4136C37.9964 32.3832 38.1628 32.3043 38.1611 32.1417C38.1594 31.9659 37.9597 31.9247 37.7847 31.9416C36.8463 32.0322 35.8831 32.0558 35.1327 32.0558H35.0322C34.8172 32.0558 34.5537 32.1168 34.5834 32.3297C34.5849 32.3402 34.5868 32.3506 34.5893 32.3608C34.6203 32.4888 34.7735 32.5173 34.9042 32.5336L35.161 32.5657C35.4726 32.594 35.5576 32.6508 35.5576 32.7358C35.5576 32.8208 35.416 33.0191 34.9059 33.5858L34.1409 34.4075C33.6593 34.9175 33.2909 35.1158 32.8942 35.1158C32.5825 35.1158 32.5542 35.0592 32.5542 34.8326V28.5139C32.5542 27.7393 32.5794 26.8641 32.606 26.3152C32.6091 26.2514 32.6083 26.1767 32.5577 26.1376C32.4926 26.0873 32.4031 26.1257 32.3293 26.1621C31.8102 26.4185 31.1786 26.6386 30.7309 26.7836C30.5497 26.8423 30.361 26.9539 30.4027 27.1397C30.4127 27.1841 30.4309 27.2212 30.4575 27.2389L30.6558 27.3522Z" fill="white"/>
</svg>
