<svg width="154" height="25" viewBox="0 0 154 25" fill="none" xmlns="http://www.w3.org/2000/svg">
<path fill-rule="evenodd" clip-rule="evenodd" d="M74.5065 14.5172C74.5065 15.2781 74.672 15.9394 75.036 16.4021C75.4 16.8654 75.9957 17.0968 76.6576 17.0968C78.6763 17.0968 79.4705 15.3773 79.4705 13.5251C79.4705 11.3095 78.3453 9.59031 76.1943 9.59031C75.5324 9.59031 75.036 9.75565 74.7382 9.921C74.5065 10.0863 74.4734 10.3175 74.4734 11.1442V14.5172H74.5065ZM72.9181 5.3242C72.9181 4.0676 72.885 3.93532 72.2562 3.5385L72.0576 3.40623C71.9584 3.34009 71.9584 3.04248 72.0576 2.97667C72.2167 2.91299 72.4302 2.84254 72.674 2.76206L72.6742 2.76199L72.6743 2.76196C73.1914 2.59132 73.8451 2.37557 74.4072 2.0835C74.5065 2.0835 74.5727 2.11656 74.6058 2.21577C74.5973 2.41171 74.5866 2.62077 74.5753 2.83956C74.543 3.47042 74.5065 4.18227 74.5065 4.89431V8.96172C74.5065 9.32547 74.6058 9.425 74.7382 9.425C75.3008 9.09432 76.1612 8.73024 77.2201 8.73024C79.669 8.73024 81.3237 10.5824 81.3237 12.9299C81.3237 15.7741 79.2719 17.791 76.3597 17.791C75.5655 17.791 74.9698 17.6587 74.5396 17.5268C74.3489 17.4722 74.1919 17.4177 74.0616 17.3725C73.8752 17.3079 73.7435 17.2622 73.6461 17.2622C73.4806 17.2622 73.3152 17.4275 73.1828 17.5929C73.1688 17.6068 73.1607 17.6148 73.151 17.6194C73.1378 17.6256 73.1217 17.6256 73.0835 17.6256C72.9842 17.6256 72.9181 17.5929 72.8519 17.4934C72.885 17.1961 72.885 16.7989 72.885 15.6746V5.3242H72.9181ZM29.4338 10.3838C29.4338 9.92081 29.4669 9.85468 29.831 9.85468V9.82161H32.2467C32.4453 9.68934 32.4784 9.12717 32.2137 8.92876H29.831C29.4669 8.92876 29.4338 8.92876 29.4338 8.53194V7.57296C29.3346 7.44069 29.0698 7.44069 28.9705 7.47376C28.772 7.90364 28.3418 8.46581 28.077 8.73035C27.8454 8.92876 27.3159 9.19331 26.6871 9.39172C26.5878 9.52399 26.6209 9.75547 26.7533 9.85468H27.349C27.7792 9.85468 27.8123 9.88775 27.8123 10.483V15.4432C27.8123 16.7329 28.2094 17.758 30.0626 17.758C31.1547 17.758 31.9158 17.2289 32.3129 16.766C32.3791 16.6337 32.2798 16.4022 32.1144 16.4022C32.0847 16.4022 32.0149 16.4489 31.9291 16.5063C31.8238 16.5767 31.6943 16.6634 31.5849 16.6998C31.3863 16.766 31.2209 16.799 30.9892 16.799C29.5993 16.799 29.4338 15.6747 29.4338 14.4181V10.3838ZM7.59237 15.278C7.59237 15.9724 7.79093 16.2367 8.25423 16.5673C8.68444 16.898 9.3463 17.0306 9.80961 17.0306C11.5635 17.0306 12.5894 15.41 12.5894 13.1616C12.5894 11.4418 11.6297 9.68946 9.67723 9.68946C8.75063 9.68946 8.08877 10.0201 7.85712 10.2844C7.65856 10.5162 7.59237 10.8469 7.59237 11.5413V15.278ZM6.00391 11.2764C6.00391 10.4497 6.00391 10.3178 5.40823 9.95369L5.20967 9.82175C5.11039 9.72254 5.11039 9.49106 5.24277 9.42493C5.80535 9.19345 6.79814 8.66435 7.36072 8.26753C7.49309 8.26753 7.55928 8.30027 7.62546 8.43287C7.61188 8.59575 7.59272 8.74185 7.57485 8.87812L7.57485 8.87814L7.57485 8.87814L7.57485 8.87815L7.57485 8.87816C7.54919 9.07387 7.52618 9.24928 7.52618 9.42493C7.52618 9.59027 7.55928 9.68947 7.72474 9.68947C7.75977 9.67197 7.81392 9.64115 7.88474 9.60085L7.88476 9.60083C8.34917 9.33653 9.53023 8.66435 10.7362 8.66435C12.9203 8.66435 14.3103 10.417 14.3103 12.5992C14.3103 15.5753 12.1261 17.7248 9.04846 17.7248C8.65135 17.7248 8.05567 17.692 7.85712 17.6259C7.65856 17.6586 7.55928 17.7912 7.55928 18.2208V20.4694C7.55928 21.9909 7.59237 22.189 8.3866 22.2882L9.21393 22.3877C9.37939 22.4869 9.31321 22.8503 9.18084 22.9168C8.89552 22.9076 8.64091 22.8984 8.40564 22.8899C7.79497 22.8678 7.3145 22.8503 6.76504 22.8503C6.00391 22.8503 5.34204 22.8837 4.74637 22.9168C4.58091 22.8503 4.54781 22.4869 4.71328 22.3877L5.17658 22.3216C5.97081 22.2224 6.00391 21.9909 6.00391 20.4367V11.2764ZM20.3663 9.32557C18.9433 9.32557 17.8843 10.6814 17.8843 13.0292C17.8843 14.9803 18.7778 17.0966 20.6641 17.0966C22.5504 17.0966 23.1461 15.1125 23.1461 13.4591C23.1461 11.6404 22.4181 9.32557 20.3663 9.32557ZM24.9993 13.1284C24.9993 15.807 23.1461 17.758 20.4656 17.758C17.9836 17.758 16.0642 16.0054 16.0642 13.3268C16.0642 10.6152 18.116 8.69726 20.6311 8.69726C23.0468 8.66419 24.9993 10.4829 24.9993 13.1284ZM36.6481 9.85468C36.2841 9.85468 36.251 9.92081 36.251 10.3838V14.4181C36.251 15.6747 36.4165 16.799 37.8064 16.799C38.038 16.799 38.2035 16.766 38.4021 16.6998C38.5115 16.6634 38.641 16.5767 38.7463 16.5063C38.8321 16.4489 38.9018 16.4022 38.9316 16.4022C39.097 16.4022 39.1963 16.6337 39.1301 16.766C38.733 17.2289 37.9719 17.758 36.8798 17.758C35.0266 17.758 34.6295 16.7329 34.6295 15.4432V10.483C34.6295 9.88775 34.5964 9.85468 34.1662 9.85468H33.5705C33.4381 9.75547 33.405 9.52399 33.5043 9.39172C34.1331 9.19331 34.6626 8.92876 34.8942 8.73035C35.159 8.46581 35.5892 7.90364 35.7877 7.47376C35.887 7.44069 36.1517 7.44069 36.251 7.57296V8.53194C36.251 8.92876 36.2841 8.92876 36.6481 8.92876H39.0308C39.2956 9.12717 39.2294 9.68934 39.0639 9.82161H36.6481V9.85468ZM45.9804 11.0451C45.7818 11.1774 45.3185 11.2766 43.73 11.2766H42.2408C42.0754 11.2766 42.0754 11.2104 42.0754 11.1774C42.1085 10.4499 43.2005 9.29248 44.4581 9.29248C45.7156 9.29248 46.1127 10.0531 46.1127 10.6483C46.1127 10.9128 46.0465 11.012 45.9804 11.0451ZM41.8106 12.5331C41.8106 11.971 41.8437 11.9379 42.4063 11.9379H46.4106C47.3041 11.9379 47.6019 11.9048 47.6681 11.7726C47.7343 11.6734 47.7674 11.508 47.7674 11.2104C47.7674 9.92073 46.576 8.66413 44.7228 8.66413C42.1416 8.66413 40.3876 10.8797 40.3876 13.5252C40.3876 14.4842 40.6524 15.5093 41.2811 16.336C41.9099 17.1627 43.002 17.7583 44.3919 17.7583C45.517 17.7583 47.0724 17.2288 47.7674 15.7742C47.7343 15.5754 47.5688 15.4435 47.3703 15.5093C46.7084 16.3691 46.0796 16.5675 45.3847 16.5675C43.0682 16.5675 41.8106 14.7156 41.8106 12.5331ZM50.4478 11.2765C50.4478 10.4498 50.4478 10.3176 49.8522 9.95381L49.6536 9.82153C49.5543 9.72233 49.5543 9.49085 49.6867 9.42471C50.1831 9.25937 51.3083 8.69721 51.8708 8.36653C51.9701 8.39959 52.0363 8.43266 52.0363 8.53187V9.78847C52.0363 9.88767 52.0694 9.95381 52.1025 9.98688L52.1214 9.97127C52.8768 9.34767 53.6647 8.69721 54.4852 8.69721C55.0147 8.69721 55.4449 9.02789 55.4449 9.55699C55.4449 10.2514 54.8492 10.549 54.5183 10.549C54.3197 10.549 54.1874 10.4829 54.055 10.3837C53.7241 10.1522 53.4262 10.053 53.0953 10.053C52.7644 10.053 52.4996 10.2514 52.3342 10.4829C52.1356 10.7805 52.0694 11.4088 52.0694 12.1363V15.0463C52.0694 16.6009 52.1025 16.8651 52.9298 16.9316L53.691 16.9974C53.8564 17.0969 53.7902 17.4603 53.6579 17.5265C53.3634 17.517 53.1043 17.5075 52.8667 17.4988L52.8663 17.4988C52.2762 17.4771 51.8177 17.4603 51.2752 17.4603C50.514 17.4603 49.8522 17.4934 49.2896 17.5265C49.1241 17.4603 49.091 17.0969 49.2565 16.9974L49.6536 16.9316C50.4478 16.799 50.4809 16.6009 50.4809 15.0463V11.2765H50.4478ZM57.4636 20.9986C57.0003 20.9986 56.6032 21.2632 56.6032 21.8584C56.6032 22.3878 56.901 22.7843 57.5298 22.7843C58.0262 22.7843 58.5557 22.5859 58.9197 21.7592C59.9347 19.5406 61.6185 16.0158 62.3685 14.4456L62.4607 14.2527L63.652 11.7726C64.38 10.2514 64.7772 9.62313 65.4721 9.49085L65.8361 9.42472C66.0016 9.29244 65.9685 8.99483 65.803 8.89562L65.56 8.90933C65.0687 8.93725 64.6374 8.96176 64.1815 8.96176C63.673 8.96176 63.1104 8.93474 62.4938 8.90513L62.2952 8.89562C62.1297 8.96176 62.0966 9.32551 62.2621 9.42472L62.924 9.52392C63.3211 9.59006 63.4534 9.72233 63.4534 9.88767C63.4534 10.1192 63.1556 10.9128 62.6923 12.0371L61.9643 13.7236C61.5671 14.6168 61.2362 15.2781 61.17 15.3109C61.0962 15.2865 60.8575 14.6399 60.6856 14.1741L60.6856 14.174L60.6855 14.1738L60.6853 14.1731C60.6262 14.0132 60.5751 13.8746 60.5413 13.7901L59.8463 11.8056C59.7139 11.4419 59.2175 10.053 59.2175 9.78847C59.2175 9.6562 59.383 9.59006 59.6808 9.52392L60.2103 9.42472C60.3758 9.32551 60.3427 8.96176 60.1772 8.89562L59.917 8.90816C59.331 8.93656 58.8109 8.96176 58.2909 8.96176C57.6192 8.96176 57.032 8.93361 56.3994 8.90329L56.2392 8.89562C56.0737 8.96176 56.0406 9.32551 56.173 9.42472L56.7025 9.52392C57.4192 9.68669 57.5907 10.1699 57.9431 11.1629L57.96 11.2104L59.6477 15.8069L59.7013 15.9671C59.926 16.6389 60.0118 16.8954 60.0118 17.295C60.0118 17.5929 59.8794 18.0556 59.8132 18.2209C59.6147 18.7169 59.1844 19.6428 58.5557 20.6018C58.4233 20.8333 58.1917 20.9986 57.8607 20.9986H57.4636ZM87.3466 16.2367C87.1149 16.4354 86.4531 16.7661 86.0229 16.7661C84.9308 16.7661 84.666 15.8399 84.6329 15.4764C84.6329 14.6497 85.2617 14.319 86.5192 13.8892C86.5891 13.8717 86.6578 13.8543 86.7245 13.8373L86.7251 13.8372C87.0375 13.7579 87.3037 13.6904 87.4128 13.6904C87.5455 13.6904 87.6444 13.7238 87.6444 13.9553L87.6113 15.2119C87.6113 15.6745 87.6113 15.9725 87.3466 16.2367ZM87.7385 12.4219C87.7099 12.7202 87.6925 12.9026 87.38 12.9963L84.898 13.8891C83.5078 14.3852 83.1107 14.8812 83.1107 15.7079C83.1107 16.3031 83.3754 16.8319 83.7725 17.196C84.1366 17.5267 84.633 17.692 85.2617 17.692C85.8574 17.692 86.3538 17.4275 86.8171 17.1626C86.9721 17.0793 87.1012 17.0003 87.2109 16.9332C87.4056 16.8141 87.5386 16.7327 87.6444 16.7327C87.7437 16.7327 87.8764 16.898 87.9754 17.0306C88.3394 17.4933 88.8358 17.692 89.3656 17.692C90.4242 17.692 91.1857 16.8319 91.1857 16.7327C91.1857 16.6008 91.1192 16.4685 91.0202 16.4685C90.9742 16.4685 90.9127 16.5158 90.8461 16.567C90.8165 16.5898 90.7859 16.6133 90.7552 16.6338C90.6228 16.7 90.4242 16.7661 90.2257 16.7661C89.3984 16.7661 89.2001 15.8733 89.2329 14.8812L89.3656 11.1445C89.4314 9.52412 88.6703 8.63095 87.1149 8.63095C85.5265 8.63095 83.1107 10.1524 83.1107 11.2764C83.1107 11.4752 83.21 11.5744 83.4088 11.5744C83.7398 11.5744 84.302 11.4418 84.633 11.1775C84.7764 11.0629 84.7955 10.8486 84.8196 10.5781C84.8233 10.5366 84.8271 10.4937 84.8315 10.4497C84.898 9.78834 85.6257 9.49106 86.2218 9.49106C87.5455 9.49106 87.8099 10.5823 87.7768 11.376L87.7437 12.3677L87.7385 12.4219ZM93.2704 11.2765C93.2704 10.4498 93.2704 10.3176 92.6747 9.95381L92.4761 9.82153C92.3769 9.72233 92.3769 9.49085 92.5092 9.42471C93.0056 9.25937 94.1308 8.69721 94.6934 8.36653C94.7926 8.39959 94.8588 8.43266 94.8588 8.53187V9.78847C94.8588 9.88767 94.8916 9.95381 94.925 9.98688L94.9447 9.97063C95.6998 9.34723 96.4872 8.69721 97.2746 8.69721C97.8041 8.69721 98.2343 9.02789 98.2343 9.55699C98.2343 10.2514 97.6386 10.549 97.3077 10.549C97.1092 10.549 96.9768 10.4829 96.8444 10.3837C96.5135 10.1522 96.1826 10.053 95.8844 10.053C95.5535 10.053 95.289 10.2514 95.1236 10.4829C94.925 10.7805 94.8588 11.4088 94.8588 12.1363V15.0463C94.8588 16.6009 94.8916 16.8651 95.7189 16.9316L96.4804 16.9974C96.6459 17.0969 96.5797 17.4603 96.4473 17.5265C96.1528 17.517 95.8938 17.5075 95.6562 17.4988L95.6559 17.4988C95.0657 17.4771 94.6071 17.4603 94.0643 17.4603C93.3035 17.4603 92.6416 17.4934 92.0787 17.5265C91.9132 17.4603 91.8805 17.0969 92.0459 16.9974L92.443 16.9316C93.2369 16.799 93.2704 16.6009 93.2704 15.0463V11.2765ZM100.054 9.95381C100.65 10.3176 100.65 10.4498 100.65 11.2765H100.749V15.0463C100.749 16.6009 100.716 16.832 99.922 16.9316L99.4587 16.9974C99.2932 17.0969 99.3263 17.4603 99.4918 17.5265C100.087 17.4934 100.749 17.4603 101.51 17.4603C102.272 17.4603 102.867 17.4934 103.463 17.5265C103.595 17.4603 103.661 17.0969 103.496 16.9974L103.099 16.9316C102.305 16.799 102.272 16.6009 102.272 15.0463V11.7726C102.272 11.1443 102.338 10.8467 102.603 10.4829C102.9 10.053 103.595 9.72233 104.423 9.72233C105.879 9.72233 106.441 10.6152 106.441 11.8387V15.0794C106.441 16.6336 106.408 16.832 105.614 16.9643L105.217 17.0304C105.051 17.1296 105.085 17.4934 105.25 17.5595C105.813 17.5265 106.474 17.4934 107.236 17.4934C107.94 17.4934 108.503 17.5217 109.107 17.5522L109.254 17.5595C109.387 17.4934 109.453 17.1296 109.287 17.0304L108.824 16.9643C108.03 16.832 107.997 16.6336 107.997 15.0794V11.3757C107.997 9.92074 107.269 8.69721 105.482 8.69721C104.39 8.69721 103.364 9.2263 102.47 9.78847C102.338 9.78847 102.239 9.68926 102.239 9.55699C102.239 9.35858 102.239 9.02789 102.272 8.53187C102.239 8.39959 102.139 8.36653 102.04 8.36653C101.61 8.69721 100.385 9.25937 99.8889 9.42471C99.7565 9.49085 99.7565 9.72233 99.8558 9.82153L100.054 9.95381Z" fill="#9DA5A8"/>
<path fill-rule="evenodd" clip-rule="evenodd" d="M116.865 3.5385C117.494 3.93532 117.527 4.0676 117.527 5.3242V15.0794C117.527 16.6336 117.494 16.8651 116.7 16.9643L116.237 17.0304C116.071 17.1296 116.104 17.4934 116.27 17.5595C116.899 17.5264 117.56 17.4934 118.322 17.4934C119.026 17.4934 119.617 17.5217 120.252 17.5521L120.406 17.5595C120.539 17.4934 120.605 17.1296 120.44 17.0304L119.91 16.9643C119.116 16.832 119.083 16.6336 119.083 15.0794V13.8889C119.083 13.2275 119.083 13.1614 119.48 13.1614C119.711 13.1614 119.943 13.2606 120.142 13.4593L122.458 16.1376C122.723 16.4682 122.822 16.6008 122.822 16.7328C122.822 16.8651 122.624 16.9315 122.293 16.9643L121.896 17.0304C121.73 17.0969 121.763 17.4603 121.929 17.5595C122.557 17.5264 123.319 17.4934 124.179 17.4934C124.874 17.4934 125.602 17.5264 126.231 17.5595C126.396 17.4934 126.429 17.1296 126.264 17.0304L125.966 16.9973C125.569 16.9315 125.139 16.7989 124.841 16.5344C124.411 16.1376 123.65 15.3108 122.822 14.3519C122.061 13.5252 121.73 13.1287 121.366 12.6326C121.267 12.4339 121.267 12.3347 121.532 12.1032C121.653 11.9924 121.804 11.8418 121.98 11.6672L121.98 11.6672C122.381 11.2684 122.909 10.7444 123.484 10.2845C124.047 9.82149 124.411 9.62308 124.841 9.52388L125.536 9.3916C125.668 9.2924 125.668 8.92865 125.503 8.86251C124.311 8.99478 123.054 9.02785 122.094 9.02785H121.598C121.399 9.09399 121.399 9.49081 121.598 9.55695L122.127 9.62308C122.491 9.65615 122.591 9.72229 122.591 9.82149C122.591 9.9207 122.425 10.1522 121.829 10.8135L120.936 11.7725C120.373 12.3678 119.943 12.5992 119.48 12.5992C119.116 12.5992 119.083 12.5331 119.083 12.2686V4.89431C119.083 3.93532 119.116 2.84407 119.149 2.21577C119.116 2.11656 119.05 2.0835 118.95 2.0835C118.189 2.48032 117.163 2.811 116.634 2.97634C116.535 3.04248 116.535 3.34009 116.634 3.40623L116.865 3.5385ZM128.978 5.39049C129.573 5.39049 130.103 5.0598 130.103 4.29923C130.103 3.704 129.673 3.20797 129.044 3.20797C128.415 3.20797 127.885 3.63786 127.885 4.3323C127.885 4.92753 128.316 5.39049 128.978 5.39049ZM127.72 9.95391C128.316 10.3177 128.316 10.4499 128.316 11.2766H128.382V15.0464C128.382 16.6007 128.349 16.8318 127.555 16.9313L127.091 16.9971C126.926 17.0967 126.959 17.4604 127.124 17.5266C127.72 17.4932 128.382 17.4604 129.143 17.4604C129.857 17.4604 130.426 17.4893 131.04 17.5204L131.162 17.5266C131.294 17.4604 131.36 17.0967 131.195 16.9971L130.732 16.9313C129.937 16.7991 129.904 16.6007 129.904 15.0464V11.1774C129.904 10.5078 129.941 9.76378 129.974 9.11275L129.974 9.11264C129.985 8.89566 129.995 8.68902 130.003 8.4989C129.97 8.3997 129.871 8.36663 129.772 8.36663C129.275 8.69731 128.051 9.25948 127.555 9.42482C127.422 9.49095 127.422 9.72243 127.521 9.82164L127.72 9.95391ZM139.501 11.0782C139.501 10.6483 139.402 10.4499 139.27 10.2515C138.939 9.78855 138.31 9.35866 137.45 9.35866C135.497 9.35866 134.471 11.0452 134.471 12.93C134.471 14.8811 135.563 16.7329 137.681 16.7329C138.277 16.7329 139.005 16.4684 139.336 16.1377C139.468 16.0051 139.501 15.6744 139.501 15.3437V11.0782ZM141.09 14.2859C141.09 15.9724 141.122 16.766 141.718 16.766C141.95 16.766 142.314 16.6665 142.645 16.5676C142.811 16.6007 142.811 17.1625 142.612 17.262C141.718 17.3943 140.362 17.725 139.766 17.9565C139.633 17.9565 139.534 17.8903 139.534 17.7911V17.4274C139.534 17.0967 139.534 16.8318 139.501 16.766H139.402C138.442 17.4274 137.714 17.7581 136.688 17.7581C134.306 17.7581 132.717 15.8732 132.717 13.6245C132.717 10.6153 135 8.66426 137.912 8.66426C138.641 8.66426 139.104 8.76346 139.369 8.86267C139.468 8.86267 139.501 8.7304 139.501 8.56505V5.32435C139.501 4.06776 139.468 3.93548 138.839 3.53866L138.641 3.40639C138.542 3.34025 138.542 3.04264 138.641 2.9765C139.17 2.81116 140.196 2.48048 140.957 2.08366C141.056 2.08366 141.122 2.11672 141.189 2.21593C141.156 2.84423 141.122 3.93548 141.122 4.89447V14.2859H141.09ZM149.363 10.8137C149.363 10.2184 149.231 9.52401 149.032 9.06105C148.833 8.89571 148.039 8.66423 147.08 8.66423C145.458 8.66423 144.167 9.55708 144.167 11.1113C144.167 12.3018 145.027 13.0623 146.285 13.7568C147.08 14.2197 147.94 14.7488 147.94 15.7409C147.94 16.6668 147.245 17.1297 146.484 17.1297C145.259 17.1297 144.564 16.1046 144.2 14.9142C144.101 14.7819 143.803 14.8149 143.704 14.9472C143.671 15.6747 143.803 16.7329 143.969 17.1297C144.531 17.5596 145.259 17.7911 146.285 17.7911C147.874 17.7911 149.396 16.9644 149.396 15.344C149.396 13.8229 148.337 13.0954 147.212 12.434C147.18 12.4158 147.147 12.3974 147.114 12.379C146.376 11.964 145.557 11.5032 145.557 10.6483C145.557 9.85469 146.12 9.3256 146.947 9.3256C147.808 9.3256 148.469 9.92083 148.833 10.8798C148.966 11.0121 149.264 10.979 149.363 10.8137Z" fill="#419CC8"/>
</svg>
