<svg width="20" height="20" viewBox="0 0 20 20" fill="none" xmlns="http://www.w3.org/2000/svg">
<rect width="20" height="20" rx="10" fill="white"/>
<path d="M10.1201 8.909V11.2326H13.3492C13.2074 11.9799 12.7819 12.6127 12.1437 13.0381L14.091 14.549C15.2255 13.5018 15.8801 11.9636 15.8801 10.1363C15.8801 9.71088 15.8419 9.30175 15.771 8.90906L10.1201 8.909Z" fill="#4285F4"/>
<path d="M6.75743 11.142L6.31825 11.4782L4.76367 12.689C5.75094 14.6472 7.77443 16 10.1199 16C11.7398 16 13.098 15.4654 14.0908 14.5491L12.1435 13.0381C11.6089 13.3981 10.9271 13.6164 10.1199 13.6164C8.55988 13.6164 7.23446 12.5636 6.75988 11.1454L6.75743 11.142Z" fill="#34A853"/>
<path d="M4.76371 7.31091C4.35464 8.11815 4.12012 9.02908 4.12012 9.99997C4.12012 10.9709 4.35464 11.8818 4.76371 12.689C4.76371 12.6944 6.76011 11.1399 6.76011 11.1399C6.64011 10.7799 6.56918 10.3981 6.56918 9.99991C6.56918 9.60167 6.64011 9.21988 6.76011 8.85988L4.76371 7.31091Z" fill="#FBBC05"/>
<path d="M10.12 6.38909C11.0036 6.38909 11.7891 6.69454 12.4164 7.28364L14.1345 5.56548C13.0927 4.59458 11.74 4 10.12 4C7.77456 4 5.75094 5.34727 4.76367 7.31092L6.76001 8.86001C7.23453 7.44181 8.56 6.38909 10.12 6.38909Z" fill="#EA4335"/>
</svg>
