<svg width="21" height="20" viewBox="0 0 21 20" fill="none" xmlns="http://www.w3.org/2000/svg">
<rect x="0.25" width="20" height="20" rx="10" fill="white"/>
<g clip-path="url(#clip0_1007_920)">
<path d="M4.28867 10.4357C4.28867 9.00487 4.28343 7.574 4.28971 6.14419C4.2939 4.93853 5.12875 4.03455 6.34069 4.02093C8.93951 3.99265 11.5394 3.99474 14.1392 4.01884C15.3564 4.03036 16.1871 4.89977 16.1986 6.12743C16.2153 8.02861 16.2237 9.93085 16.1986 11.832C16.1672 14.148 14.3487 15.957 12.0181 15.9853C9.8372 16.0115 7.65633 15.9947 5.47547 15.9895C4.71395 15.9874 4.29286 15.5517 4.29076 14.7797C4.28657 13.332 4.28971 11.8834 4.28971 10.4357H4.28867ZM12.569 10.8128C12.569 9.97589 12.5795 9.1379 12.5638 8.30201C12.5575 7.99195 12.6413 7.85997 12.9734 7.87882C13.4081 7.90292 13.8449 7.87568 14.2806 7.88616C14.553 7.89349 14.6923 7.76884 14.6431 7.51325C14.5635 7.09845 14.8819 6.61346 14.4262 6.26779C14.4032 6.24998 14.3582 6.25836 14.3236 6.25836C12.6141 6.25836 10.9056 6.25836 9.19614 6.25522C8.95103 6.25522 8.87456 6.37044 8.85047 6.60403C8.72372 7.87044 8.7321 7.88406 9.98385 7.88406C10.1064 7.88406 10.23 7.89977 10.3494 7.88092C10.7663 7.81702 10.8941 7.99719 10.8878 8.40361C10.87 9.78106 10.869 11.1595 10.8847 12.537C10.9004 13.9752 10.6542 13.7133 12.148 13.75C12.4664 13.7584 12.5774 13.64 12.5722 13.3247C12.5575 12.4878 12.5669 11.6508 12.568 10.8139L12.569 10.8128ZM6.48315 9.94447C6.48315 10.8327 6.47687 11.721 6.4842 12.6093C6.49572 13.9574 6.35012 13.6997 7.62282 13.7489C8.0659 13.7667 8.18217 13.6065 8.17798 13.1812C8.15913 11.2653 8.1696 9.34949 8.1696 7.43259C8.1696 6.23113 8.1696 6.24789 6.99118 6.24474C6.59523 6.2437 6.47477 6.38092 6.47896 6.75592C6.49258 7.81807 6.4842 8.88127 6.48315 9.94342V9.94447Z" fill="#0A2FF1"/>
</g>
<defs>
<clipPath id="clip0_1007_920">
<rect width="11.9267" height="12" fill="white" transform="translate(4.28662 4)"/>
</clipPath>
</defs>
</svg>
