<svg width="20" height="20" viewBox="0 0 20 20" fill="none" xmlns="http://www.w3.org/2000/svg">
<rect width="20" height="20" rx="10" fill="white"/>
<g clip-path="url(#clip0_1489_15620)">
<path d="M4.19776 7.9826H6.68482V15.9849H4.19776V7.9826ZM5.44198 4C5.72723 4 6.00608 4.08461 6.24324 4.24311C6.4804 4.40162 6.66522 4.62691 6.77432 4.89047C6.88342 5.15404 6.9119 5.44404 6.85615 5.7238C6.8004 6.00355 6.66292 6.26049 6.46112 6.4621C6.25932 6.6637 6.00226 6.80093 5.72245 6.85642C5.44264 6.9119 5.15267 6.88315 4.8892 6.7738C4.62574 6.66445 4.40063 6.47941 4.24235 6.2421C4.08407 6.00479 3.99973 5.72586 4 5.4406C4.00036 5.05841 4.15245 4.69199 4.42283 4.42186C4.69321 4.15173 5.05978 4 5.44198 4ZM8.24491 7.9826H10.629V9.08125H10.6619C10.9943 8.45228 11.8045 7.78897 13.0144 7.78897C15.5331 7.78347 16 9.44106 16 11.5903V15.9849H13.5129V12.0916C13.5129 11.1646 13.4965 9.97116 12.2206 9.97116C10.9448 9.97116 10.7279 10.9819 10.7279 12.0311V15.9849H8.24491V7.9826Z" fill="#0076B2"/>
</g>
<defs>
<clipPath id="clip0_1489_15620">
<rect width="11.9267" height="12" fill="white" transform="translate(4 4)"/>
</clipPath>
</defs>
</svg>
