<svg width="31" height="18" viewBox="0 0 31 18" fill="none" xmlns="http://www.w3.org/2000/svg">
<path d="M7.89629 7.90209C7.93269 7.82916 7.96867 7.75607 8.00428 7.68282M8.00428 7.68282C8.59143 6.47487 9.07444 5.224 9.55742 3.97004C9.80316 3.33202 10.5368 1.4193 10.245 2.03754C9.82482 2.92778 9.44283 3.84475 9.0889 4.76254C8.71527 5.73141 8.35686 6.70602 8.00428 7.68282ZM8.00428 7.68282C7.16241 10.0152 6.35372 12.36 5.45023 14.6689C5.12232 15.5069 4.94753 14.7883 4.61053 14.2665M9.10106 9.43834C9.10106 10.4886 9.83745 8.77199 10.172 9.21887L10.1803 9.23002C10.3547 9.46312 10.4401 9.57716 10.7561 9.54197C10.9479 9.52063 11.9064 8.87894 11.9487 9.13353C12.1071 10.0856 12.5627 9.33535 13.1535 9.0238C13.424 8.88118 13.452 9.43454 13.476 9.59074C13.5085 9.80258 14.1106 8.2775 14.1514 8.17033C14.6824 6.77588 15.1277 5.35059 15.49 3.90298C15.6719 3.17634 16.0532 0.971915 16.0255 1.72054C15.9871 2.75835 15.5978 3.88412 15.3866 4.89057C14.9131 7.14661 14.4207 9.39709 13.8107 11.6208C13.5528 12.5608 13.2422 13.4919 13.0093 14.4399M13.0093 14.4399C12.9697 14.601 12.9324 14.7627 12.8979 14.9249C12.8922 14.952 12.8132 15.6451 12.7702 15.5589C12.5845 15.1869 12.7559 14.7421 13.0093 14.4399ZM13.0093 14.4399C13.0552 14.3851 13.1038 14.335 13.1535 14.2909C14.4825 13.1101 15.1571 11.5516 15.8369 9.91994C15.9911 9.54977 16.144 9.17852 16.2949 8.80617M16.2949 8.80617C17.0389 6.9712 17.7364 5.10957 18.3194 3.22021C18.4837 2.68785 19.0958 1.21132 18.8001 0.574451C18.6633 0.279717 18.2125 0.93518 18.0821 1.23284C17.3747 2.84812 17.1757 4.71074 16.8043 6.42071C16.632 7.21435 16.4644 8.01026 16.2949 8.80617ZM16.2949 8.80617C15.9054 10.6356 15.5058 12.4649 15.0154 14.2665M22.4631 1.75712C22.7804 1.12133 22.595 1.45647 22.2806 1.92781C21.3769 3.28257 20.4721 4.63445 19.6033 6.01227C19.2051 6.64381 18.7222 7.3011 18.319 7.98118M18.319 7.98118C18.1094 8.33488 17.9213 8.69475 17.7779 9.06037C17.7166 9.21675 18.0779 8.90305 18.2038 8.79214C18.6878 8.36603 19.1952 7.9196 19.7193 7.48671M18.319 7.98118C17.5587 8.25924 16.8005 8.55282 16.0437 8.86529C12.5087 10.325 9.1358 12.0517 5.8944 14.0836C4.34129 15.0573 2.77483 16.0711 1.30651 17.1744L1.30197 17.1778C1.23073 17.2312 0.753145 17.5889 1.16656 17.4792C4.30622 16.6466 7.46185 15.8899 10.5736 14.9493C14.3136 13.8188 18.0322 12.5944 21.6965 11.2367C22.9255 10.7813 24.4894 10.3382 25.5785 9.54197C25.9511 9.26959 24.5224 9.57492 24.4772 9.37128C24.4018 9.03143 27.9048 7.37034 28.2984 7.14616C28.7905 6.86593 29.4037 6.59625 29.8013 6.17687C29.9693 5.99968 29.3072 6.16384 29.0712 6.22564C27.1954 6.71682 25.3556 7.39689 23.5888 8.19471C22.2284 8.80902 23.8577 7.98321 24.2277 7.70701C24.3124 7.64378 25.3659 6.81511 24.7145 6.93889C23.7127 7.12925 22.6962 7.59904 21.7451 7.96306C20.7617 8.33948 21.6312 7.52462 21.8912 7.13397C21.9204 7.0901 22.0015 6.92417 22.0851 6.72165M18.319 7.98118C18.7849 7.81079 19.2517 7.64623 19.7193 7.48671M19.7193 7.48671C20.4723 6.86471 21.2598 6.27067 22.0615 5.805C22.497 5.5521 22.2839 6.24025 22.0851 6.72165M19.7193 7.48671C20.5051 7.21867 21.2934 6.96489 22.0851 6.72165M22.0851 6.72165C24.0496 6.11804 26.0342 5.57936 28.0489 5.04907" stroke="#FF589A" stroke-width="0.75" stroke-linecap="round"/>
</svg>
