<svg width="100" height="30" viewBox="0 0 100 30" fill="none" xmlns="http://www.w3.org/2000/svg">
<g clip-path="url(#clip0_610_14544)">
<path d="M62.2612 23.4369C56.5253 27.6892 48.2114 29.958 41.0533 29.958C31.0164 29.958 21.9807 26.2242 15.1449 20.0143C14.6078 19.526 15.089 18.8605 15.7335 19.2407C23.1107 23.5579 32.2324 26.1551 41.6548 26.1551C48.0094 26.1551 55 24.8327 61.4277 22.0886C62.3987 21.6737 63.2107 22.7282 62.2612 23.4369Z" fill="#E6E6E6"/>
<path d="M64.6458 20.6928C63.9154 19.7507 59.7992 20.2477 57.9517 20.4681C57.3889 20.5372 57.3029 20.0446 57.8099 19.6902C61.0882 17.3696 66.4675 18.0394 67.0948 18.8173C67.7221 19.5995 66.9316 25.0229 63.8509 27.6115C63.3783 28.009 62.9272 27.7973 63.1377 27.2701C63.8294 25.5328 65.3805 21.6392 64.6458 20.6928Z" fill="#E6E6E6"/>
<path d="M58.0805 3.30768V1.05188C58.0805 0.710482 58.3383 0.481445 58.6476 0.481445H68.6887C69.011 0.481445 69.2688 0.714804 69.2688 1.05188V2.98357C69.2645 3.30768 68.9938 3.73118 68.5126 4.40101L63.3094 11.8728C65.2429 11.8253 67.2838 12.1148 69.0368 13.1087C69.4321 13.3335 69.5395 13.6619 69.5696 13.986V16.3931C69.5696 16.7215 69.2086 17.1061 68.8305 16.9073C65.7413 15.2781 61.6381 15.1009 58.2223 16.9246C57.8742 17.1147 57.509 16.7344 57.509 16.406V14.12C57.509 13.7526 57.5133 13.126 57.8785 12.5686L63.9066 3.87379H58.6605C58.3383 3.87379 58.0805 3.64475 58.0805 3.30768Z" fill="#E6E6E6"/>
<path d="M21.4521 17.3827H18.3972C18.1051 17.361 17.873 17.1407 17.8516 16.8598V1.09076C17.8516 0.775294 18.1137 0.524647 18.4402 0.524647H21.2888C21.5853 0.537603 21.8216 0.766648 21.8431 1.05186V3.1132H21.8989C22.6423 1.12101 24.0386 0.191895 25.9206 0.191895C27.8325 0.191895 29.027 1.12101 29.8863 3.1132C30.6253 1.12101 32.3053 0.191895 34.1055 0.191895C35.3859 0.191895 36.7866 0.723434 37.6416 1.91616C38.6084 3.24284 38.4107 5.17021 38.4107 6.85991L38.4064 16.8122C38.4064 17.1277 38.1443 17.3827 37.8178 17.3827H34.7672C34.4622 17.361 34.2173 17.1147 34.2173 16.8122V8.45452C34.2173 7.78902 34.2774 6.12958 34.1313 5.49864C33.9036 4.43989 33.2205 4.14171 32.3354 4.14171C31.5963 4.14171 30.823 4.63867 30.5093 5.43382C30.1957 6.22897 30.2257 7.55998 30.2257 8.45452V16.8122C30.2257 17.1277 29.9636 17.3827 29.6371 17.3827H26.5865C26.2772 17.361 26.0366 17.1147 26.0366 16.8122L26.0323 8.45452C26.0323 6.69569 26.3201 4.10714 24.1504 4.10714C21.9548 4.10714 22.0407 6.63087 22.0407 8.45452V16.8122C22.0407 17.1277 21.7786 17.3827 21.4521 17.3827Z" fill="#E6E6E6"/>
<path d="M77.9136 0.191895C82.4465 0.191895 84.8998 4.10714 84.8998 9.08546C84.8998 13.8952 82.1887 17.7111 77.9136 17.7111C73.4623 17.7111 71.0391 13.7958 71.0391 8.91692C71.0391 4.00774 73.4924 0.191895 77.9136 0.191895ZM77.9394 3.41138C75.688 3.41138 75.5462 6.4969 75.5462 8.41995C75.5462 10.3473 75.5161 14.4613 77.9136 14.4613C80.281 14.4613 80.3927 11.1425 80.3927 9.12002C80.3927 7.78902 80.3369 6.19872 79.9373 4.93685C79.5936 3.83921 78.9104 3.41138 77.9394 3.41138Z" fill="#E6E6E6"/>
<path d="M90.7776 17.3827H87.7357C87.4306 17.361 87.1857 17.1147 87.1857 16.8122L87.1814 1.0389C87.2072 0.749362 87.4607 0.524647 87.77 0.524647H90.6015C90.8679 0.537603 91.087 0.719113 91.1471 0.965436V3.37681H91.203C92.058 1.2204 93.2568 0.191895 95.3664 0.191895C96.737 0.191895 98.0732 0.688863 98.9326 2.05012C99.7317 3.31199 99.7317 5.43383 99.7317 6.9593V16.8857C99.6974 17.1623 99.4438 17.3827 99.1431 17.3827H96.0796C95.8003 17.361 95.5683 17.1536 95.5383 16.8857V8.32056C95.5383 6.5963 95.7359 4.07256 93.6263 4.07256C92.883 4.07256 92.1998 4.57385 91.8604 5.33443C91.4307 6.29812 91.3749 7.25748 91.3749 8.32056V16.8122C91.3706 17.1277 91.1042 17.3827 90.7776 17.3827Z" fill="#E6E6E6"/>
<path d="M50.0761 9.85024V9.18473C47.8676 9.18473 45.5346 9.66009 45.5346 12.2789C45.5346 13.6056 46.2177 14.5044 47.3907 14.5044C48.25 14.5044 49.0191 13.9729 49.5046 13.1086C50.1061 12.0455 50.0761 11.0473 50.0761 9.85024ZM53.1567 17.3393C52.9548 17.5208 52.6626 17.5338 52.4349 17.4128C51.4209 16.5658 51.2404 16.1725 50.6819 15.3644C49.0062 17.0844 47.8203 17.5986 45.6463 17.5986C43.0769 17.5986 41.0747 16.004 41.0747 12.8104C41.0747 10.317 42.4195 8.61862 44.3315 7.7889C45.99 7.05425 48.3059 6.92461 50.0761 6.7215V6.32393C50.0761 5.5936 50.1319 4.72931 49.7065 4.09838C49.3327 3.53227 48.6195 3.29891 47.9922 3.29891C46.8278 3.29891 45.7881 3.89959 45.5346 5.14417C45.483 5.42074 45.2811 5.693 45.0061 5.70596L42.0414 5.38617C41.7922 5.32999 41.5173 5.12688 41.586 4.74228C42.2692 1.12954 45.5131 0.0405273 48.4176 0.0405273C49.9042 0.0405273 51.8462 0.438101 53.0192 1.57032C54.5058 2.96615 54.364 4.8287 54.364 6.85547V11.6436C54.364 13.0827 54.957 13.7136 55.5155 14.4915C55.7132 14.7681 55.7561 15.1008 55.5069 15.3082C54.8839 15.8311 53.7754 16.8035 53.1653 17.348L53.1567 17.3393Z" fill="#E6E6E6"/>
<path d="M10.0275 9.85024V9.18473C7.81902 9.18473 5.48598 9.66009 5.48598 12.2789C5.48598 13.6056 6.16913 14.5044 7.3421 14.5044C8.20142 14.5044 8.97051 13.9729 9.45602 13.1086C10.0575 12.0455 10.0275 11.0473 10.0275 9.85024ZM13.1081 17.3393C12.9062 17.5208 12.614 17.5338 12.3863 17.4128C11.3723 16.5658 11.1918 16.1725 10.6333 15.3644C8.95762 17.0844 7.77176 17.5986 5.59769 17.5986C3.02833 17.5986 1.02612 16.004 1.02612 12.8104C1.02612 10.317 2.37095 8.61862 4.28293 7.7889C5.94142 7.05425 8.25728 6.92461 10.0275 6.7215V6.32393C10.0275 5.5936 10.0833 4.72931 9.65796 4.09838C9.28416 3.53227 8.57093 3.29891 7.94362 3.29891C6.77925 3.29891 5.73948 3.89959 5.48598 5.14417C5.43442 5.42074 5.23248 5.693 4.9575 5.70596L1.99285 5.38617C1.74365 5.32999 1.46867 5.12688 1.53742 4.74228C2.22057 1.12954 5.46449 0.0405273 8.36899 0.0405273C9.8556 0.0405273 11.7977 0.438101 12.9706 1.57032C14.4572 2.96615 14.3155 4.8287 14.3155 6.85547V11.6436C14.3155 13.0827 14.9084 13.7136 15.4669 14.4915C15.6646 14.7681 15.7076 15.1008 15.4584 15.3082C14.8353 15.8311 13.7268 16.8035 13.1167 17.348L13.1081 17.3393Z" fill="#E6E6E6"/>
</g>
<defs>
<clipPath id="clip0_610_14544">
<rect width="98.8235" height="30" fill="white" transform="translate(0.966553)"/>
</clipPath>
</defs>
</svg>
