<svg width="258" height="30" viewBox="0 0 258 30" fill="none" xmlns="http://www.w3.org/2000/svg">
<g clip-path="url(#clip0_610_14553)">
<path d="M19.8588 14.0963C21.1031 13.0303 21.9906 11.6084 22.4018 10.0224C22.8129 8.43633 22.7279 6.76235 22.1582 5.22611C21.5885 3.68987 20.5615 2.36524 19.2156 1.43077C17.8698 0.496309 16.2698 -0.00304974 14.6313 1.40139e-05H0.790039V29.7075H14.6313C16.4521 29.7092 18.2273 29.1381 19.7055 28.0751C21.1838 27.0121 22.2902 25.5111 22.8682 23.7845C23.4461 22.0578 23.4663 20.1932 22.9259 18.4544C22.3855 16.7157 21.3118 15.191 19.8569 14.0963H19.8588ZM18.9419 8.02314C18.9419 8.58946 18.8304 9.15024 18.6136 9.67346C18.3969 10.1967 18.0793 10.6721 17.6788 11.0725C17.2784 11.473 16.803 11.7906 16.2797 12.0074C15.7565 12.2241 15.1957 12.3356 14.6294 12.3356H4.50441V3.71064H14.6294C15.1957 3.71064 15.7565 3.82218 16.2797 4.03891C16.803 4.25563 17.2784 4.57329 17.6788 4.97374C18.0793 5.37419 18.3969 5.8496 18.6136 6.37282C18.8304 6.89603 18.9419 7.45681 18.9419 8.02314ZM14.6294 25.9913H4.50441V16.0538H14.6294C15.2982 16.0278 15.9653 16.1371 16.5908 16.375C17.2163 16.613 17.7873 16.9749 18.2696 17.4388C18.752 17.9028 19.1357 18.4593 19.3978 19.0751C19.6599 19.6909 19.795 20.3533 19.795 21.0225C19.795 21.6918 19.6599 22.3541 19.3978 22.9699C19.1357 23.5857 18.752 24.1423 18.2696 24.6062C17.7873 25.0702 17.2163 25.432 16.5908 25.67C15.9653 25.908 15.2982 26.0173 14.6294 25.9913ZM43.705 3.71251V1.40139e-05H32.005V29.7056H43.705V25.9931H35.7175V16.0556H41.7175V12.3431H35.7175V3.71814L43.705 3.71251ZM65.8244 29.7038V0.011264H62.1119V18.1406L55.9882 0.035639V0.011264H52.2775V29.7056H55.9882V11.6269L62.1025 29.7038H65.8244ZM225.269 0.011264V18.1406L219.145 0.035639V0.011264H215.433V29.7056H219.145V11.6288L225.259 29.7038H228.981V0.011264H225.269ZM154.735 3.71251V1.40139e-05H143.035V29.7094H146.748V16.0481H152.748V12.3356H146.748V3.71064L154.735 3.71251ZM184.009 29.6813L179.134 15.2963C180.794 14.5318 182.143 13.2231 182.957 11.587C183.772 9.95088 184.002 8.08567 183.611 6.30049C183.22 4.51531 182.231 2.91735 180.807 1.77146C179.384 0.625573 177.611 0.000559902 175.784 1.40139e-05H161.856V29.7075H165.569V16.0463H175.476L180.089 29.6831L184.009 29.6813ZM175.786 12.33H165.569V3.70501H175.784C176.928 3.70501 178.024 4.15937 178.833 4.96812C179.642 5.77687 180.096 6.87377 180.096 8.01751C180.096 9.16126 179.642 10.2582 178.833 11.0669C178.024 11.8757 176.929 12.33 175.786 12.33ZM196.555 0.033764L190.06 29.685H193.863L195.323 23.0138H201.938L203.401 29.685H207.203L200.706 0.033764H196.555ZM196.137 19.2994L198.633 7.91251L201.128 19.2994H196.137ZM257.281 29.6831L249.406 13.0931L255.621 0.011264H251.509L244.062 15.6919V0.011264H240.349V29.7056H244.062V24.345L247.353 17.4188L253.176 29.6831H257.281ZM108.659 27.0188C109.466 27.8673 110.436 28.5431 111.512 29.005C112.588 29.4668 113.747 29.7052 114.918 29.7056V25.9931C111.445 25.9931 111.168 23.1956 111.168 21.1181V16.02H114.918V12.2869H111.168V1.40139e-05H103.679C102.04 -0.00266524 100.441 0.49697 99.0951 1.43158C97.7496 2.36619 96.7229 3.69084 96.1534 5.22699C95.5839 6.76315 95.4991 8.43696 95.9103 10.0228C96.3215 11.6087 97.209 13.0304 98.4532 14.0963C96.9994 15.1903 95.9264 16.7137 95.386 18.451C94.8455 20.1883 94.8649 22.0516 95.4415 23.7772C96.018 25.5029 97.1225 27.0036 98.5987 28.0672C100.075 29.1307 101.848 29.7032 103.668 29.7038H103.679C104.85 29.7032 106.008 29.4648 107.084 29.0029C108.16 28.5411 109.131 27.8654 109.938 27.0169L108.659 27.0188ZM107.427 12.33H103.677C102.533 12.33 101.436 11.8757 100.628 11.0669C99.8188 10.2582 99.3644 9.16126 99.3644 8.01751C99.3644 6.87377 99.8188 5.77687 100.628 4.96812C101.436 4.15937 102.533 3.70501 103.677 3.70501H107.427V12.33ZM98.7138 21.0169C98.7153 19.6984 99.2396 18.4343 100.172 17.5018C101.104 16.5693 102.368 16.0445 103.686 16.0425H107.427V21.1144C107.427 23.1919 107.151 25.9894 103.677 25.9894C102.36 25.9864 101.097 25.4614 100.166 24.5293C99.2351 23.5973 98.7115 22.3342 98.71 21.0169" fill="#E6E6E6"/>
</g>
<defs>
<clipPath id="clip0_610_14553">
<rect width="256.875" height="30" fill="white" transform="translate(0.790039)"/>
</clipPath>
</defs>
</svg>
