<svg width="51" height="30" viewBox="0 0 51 30" fill="none" xmlns="http://www.w3.org/2000/svg">
<g clip-path="url(#clip0_610_14555)">
<path d="M14.5912 0.186107L9.50195 0.0739746V3.94188H10.699V2.78889H13.9542C13.9542 2.78889 16.0497 3.01184 16.1625 1.52378C16.1625 1.52378 16.1253 0.184788 14.5912 0.184788V0.186107ZM14.6284 1.86018H10.7746L10.7374 1.04227H14.1427C14.1427 1.04227 15.4525 1.1544 14.6297 1.86018H14.6284Z" fill="#E6E6E6"/>
<path d="M16.6124 0.259766H23.0114V1.22806H20.5033V4.16593H19.232V1.1898H16.5752L16.6124 0.259766Z" fill="#E6E6E6"/>
<path d="M25.2183 0.408936H23.9084V4.3151H25.2183V0.408936Z" fill="#E6E6E6"/>
<path d="M32.74 0.558006V1.37591H28.5863C28.5863 1.37591 27.4636 1.59886 27.3893 2.23207C27.3893 2.23207 27.0522 3.34812 29.0361 3.38506H32.74V4.42723H28.362C28.362 4.42723 26.6037 4.20428 26.1923 2.90223C26.1923 2.90223 25.6681 1.07909 27.8763 0.484131L32.7413 0.558006H32.74Z" fill="#E6E6E6"/>
<path d="M38.4278 0.594971H36.7809L33.1514 4.50113H34.7982L35.5839 3.60803H39.5133L40.4489 4.50113H41.9458L38.4278 0.594971ZM36.4451 2.60412L37.5307 1.45113L38.6162 2.60412H36.4465H36.4451Z" fill="#E6E6E6"/>
<path d="M44.5641 0.670275C44.5641 0.670275 42.7301 0.261323 42.543 1.93539C42.543 1.93539 42.3187 3.38652 44.8999 3.12531H48.7165C48.7165 3.12531 49.3893 3.68334 48.455 3.72027H42.6173V4.57644L48.7921 4.72551C48.7921 4.72551 50.2519 4.61337 50.1019 3.27438C50.1019 3.27438 50.3262 2.1214 47.2952 2.30741H44.1514C44.1514 2.30741 43.89 2.27047 43.8143 2.02905C43.8143 2.02905 43.5529 1.65704 44.3757 1.7507H50.0449V0.802196L44.5628 0.671595L44.5641 0.670275Z" fill="#E6E6E6"/>
<path d="M1.06437 6.06299H4.88099V25.7033H12.5713V29.3298H3.47696C3.47696 29.3298 1.0073 28.6609 0.727295 26.4856L1.06437 6.06299Z" fill="#E6E6E6"/>
<path d="M12.7387 6.28612H16.4439V20.2908C16.4439 20.2908 15.6583 23.2484 19.5877 25.4238C19.5877 25.4238 24.6398 27.6559 27.1095 22.0203C27.1095 22.0203 27.558 20.2908 27.3337 18.7843V6.6212H31.5432V19.9016C31.5432 19.9016 31.4304 26.2061 26.0982 28.7179C26.0982 28.7179 20.092 32.2889 14.5356 26.3182C14.5356 26.3182 12.1787 23.6956 12.403 19.399V6.23071L12.7401 6.28612H12.7387Z" fill="#E6E6E6"/>
<path d="M32.16 6.62109H36.7065L41.0288 14.1537L45.6868 6.84404H50.0647L43.2171 18.0045L50.4018 30H45.9681L41.0288 21.5743L35.6953 29.8325H31.1501L38.7263 17.837L32.16 6.62109Z" fill="#E6E6E6"/>
<path d="M8.67919 1.74794C8.45491 0 6.58376 0 6.58376 0H2.16864C0.484598 0.445891 0.671713 1.74794 0.671713 1.74794C0.784513 3.45895 2.46722 3.90484 2.46722 3.90484H6.92083C8.90346 3.56976 8.67919 1.74794 8.67919 1.74794ZM2.8043 2.90093C2.8043 2.90093 0.970301 1.97089 2.65434 0.891781C2.65434 0.891781 6.4338 0.742711 6.99515 1.15166C6.99515 1.15166 7.78077 1.78356 7.10795 2.52759C7.10795 2.52759 7.33222 3.23469 2.8043 2.89961V2.90093Z" fill="#E6E6E6"/>
</g>
<defs>
<clipPath id="clip0_610_14555">
<rect width="49.7368" height="30" fill="white" transform="translate(0.665039)"/>
</clipPath>
</defs>
</svg>
