<svg width="118" height="30" viewBox="0 0 118 30" fill="none" xmlns="http://www.w3.org/2000/svg">
<g clip-path="url(#clip0_610_14529)">
<path d="M22.1228 29.9999C18.7438 29.9179 15.4156 29.5203 12.207 28.4548C9.4999 27.5549 7.00827 26.2559 4.88708 24.2623C2.82222 22.3209 1.32499 20.0513 0.836247 17.2639C0.14186 13.2991 0.922166 9.70939 3.8462 6.71675C6.62657 3.86843 10.0182 2.16199 13.7803 1.13897C15.2958 0.727218 16.8663 0.499409 18.4255 0.28292C19.6833 0.10888 20.9636 -0.0297863 22.2285 0.00417272C26.5187 0.115955 30.6963 0.80787 34.6246 2.67279C36.9599 3.78212 39.0642 5.20557 40.7741 7.1568C42.5375 9.17029 43.5122 11.4993 43.5855 14.2316C43.67 17.4096 42.7798 20.2466 40.8206 22.7044C39.6121 24.2198 38.1275 25.465 36.4388 26.4569C34.4373 27.6327 32.3161 28.5241 30.0597 28.9996C28.247 29.3816 26.3891 29.557 24.5482 29.7962C23.744 29.9009 22.9313 29.9348 22.1228 30.0013V29.9999ZM1.53768 13.3529C1.35316 15.181 1.68275 16.7672 2.44756 18.2628C3.24759 19.8278 4.35044 21.1324 5.70823 22.2587C7.12236 23.4317 8.66747 24.3769 10.3253 25.1112C13.2817 26.4201 16.41 27.2054 19.6227 27.3568C22.1017 27.4728 24.6243 27.3936 27.0807 27.054C29.1399 26.7696 31.1879 26.1343 33.1372 25.3829C36.5669 24.0599 39.5628 22.062 41.4938 18.7934C42.4347 17.2016 42.908 15.464 42.677 13.5652C39.7741 14.2571 36.9712 15.1032 34.2697 16.2324C34.7176 17.9756 34.1838 18.7779 32.9894 19.167C32.3274 19.3821 31.8499 19.4726 31.5217 20.2579C31.1146 21.2328 30.1132 21.5781 29.2428 21.4833C28.7653 21.9714 28.4568 22.4568 28.016 22.7044C27.1441 23.194 26.0765 23.0808 25.1708 23.6793C24.4567 24.1505 23.537 23.7798 22.7299 23.46C22.5299 23.3807 22.2496 23.4925 22.0087 23.535C21.3805 23.6453 20.7538 23.8604 20.1256 23.8618C19.1903 23.8647 18.6354 23.1812 18.1537 22.4921C17.1593 22.5459 16.2536 22.4455 15.6508 21.5059C15.5536 21.3531 15.3212 21.1989 15.1494 21.1975C13.8296 21.1946 13.0859 20.4489 12.6296 19.3042C11.2309 19.4542 9.99005 18.2105 10.2337 16.8323C10.3168 16.3654 10.152 16.1531 9.76892 16.0031C8.28014 15.4244 6.81108 14.7834 5.29695 14.2854C4.08846 13.8878 2.82222 13.6642 1.53909 13.3529H1.53768ZM1.64472 12.2691C2.15601 12.412 2.67433 12.5733 3.20111 12.702C5.79274 13.3331 8.36042 14.0236 10.6999 15.3721C10.7887 15.423 10.9577 15.4357 11.0366 15.3848C12.1169 14.6759 13.107 14.8641 14.0212 15.6819C14.7057 15.2461 15.5353 15.0792 16.1184 15.4414C17.0889 16.0428 18.0945 16.3399 19.1805 16.5932C20.296 16.8535 20.5411 17.844 20.5101 18.8755C22.5285 18.9788 23.2482 20.5565 22.989 22.1412C22.9707 22.2558 22.9468 22.4242 23.0074 22.4907C23.4679 22.993 24.6567 22.9789 25.2638 22.4808C24.8271 21.6021 23.682 21.1493 23.7257 19.9608C24.1581 20.1461 24.5144 20.3853 24.8285 20.6711C25.2624 21.0659 25.6441 21.5187 26.0835 21.9049C26.5694 22.3337 27.2497 22.2516 27.7554 21.7267C28.1765 21.2894 27.93 20.9413 27.5892 20.5919C27.2666 20.2608 26.9145 19.9325 26.6906 19.5377C26.3906 19.0099 25.637 18.7482 25.7314 17.7789C26.1356 18.0053 26.4779 18.1256 26.7272 18.3491C27.3019 18.8684 27.8286 19.4401 28.3779 19.9863C29.0568 20.6612 29.7794 20.6668 30.4386 20.0273C30.9513 19.5306 31.2076 19.1981 30.2273 18.1751C29.4639 17.3771 28.6611 16.6172 27.9033 15.8149C27.7836 15.6876 27.8033 15.4272 27.7582 15.2277C27.9596 15.2546 28.1639 15.2716 28.3624 15.3126C28.4202 15.3254 28.461 15.4089 28.5132 15.4555C29.3935 16.2465 30.2794 17.0332 31.1541 17.8299C31.8527 18.4666 32.6288 18.5062 33.2372 17.9176C33.7302 17.4393 33.6556 16.8818 32.8724 16.1772C31.6344 15.065 30.3498 14.0052 29.0864 12.9228C27.7878 11.8092 26.4765 10.7084 25.1947 9.57355C23.9905 8.50809 22.8679 8.29584 21.6327 9.03445C21.0059 9.40942 20.389 9.82966 19.8551 10.3235C18.741 11.3522 17.4551 11.7696 15.9804 11.5602C15.1142 11.4371 14.2479 10.8951 14.4564 10.0504C14.5339 9.73486 14.7268 9.41932 14.9437 9.17312C15.4212 8.63119 15.9494 8.13312 16.455 7.61666C16.2353 7.48224 16.1311 7.4596 16.0522 7.49498C14.862 8.01002 13.5648 8.09775 12.3718 7.8473C10.3549 7.42423 8.38155 6.76486 6.42656 6.09558C5.91387 5.92013 5.70119 6.02483 5.36737 6.33046C3.62366 7.93927 2.26446 9.79004 1.64613 12.2662L1.64472 12.2691ZM38.6304 6.15642C38.3613 6.27952 38.1149 6.39697 37.8656 6.50733C34.5781 7.94918 31.2428 8.0836 27.9047 6.74929C26.0131 5.99229 24.1637 5.08388 22.0552 5.51545C21.1566 5.69939 20.1509 5.87909 19.4495 6.40546C17.9889 7.49922 16.6973 8.82221 15.3423 10.0462C15.9846 10.83 17.2649 10.9489 18.1058 10.3546C18.9284 9.77165 19.7129 9.1335 20.5115 8.51658C21.5101 7.74684 22.6566 7.25019 23.8637 7.66619C24.7609 7.97465 25.5934 8.58733 26.337 9.20708C28.6822 11.1583 30.9682 13.1803 33.2936 15.1556C33.4373 15.2773 33.7499 15.314 33.9345 15.249C35.2204 14.7976 36.4782 14.2627 37.774 13.8439C39.3614 13.3303 40.9769 12.9044 42.584 12.4389C42.0558 9.80844 40.5403 7.83032 38.6318 6.15784L38.6304 6.15642ZM6.77728 5.22821C8.14774 5.66968 9.39003 6.1168 10.6605 6.4663C11.6056 6.72665 12.6338 7.14548 13.5409 6.99266C15.3973 6.67996 17.3734 6.62195 18.9875 5.40508C19.1495 5.28339 19.3467 5.19849 19.5382 5.12633C22.1707 4.12454 24.8004 4.24198 27.3202 5.41215C29.7076 6.52007 32.1344 7.03794 34.7218 6.47337C35.7204 6.25547 36.6852 5.88617 37.7853 5.54799C30.8034 0.0239822 16.0381 -1.20137 6.77728 5.22821ZM17.0536 17.8964C16.7325 17.1224 16.479 16.3371 15.5663 16.2465C14.6846 16.1588 14.2043 16.8224 13.6592 17.4167C13.5521 16.6809 13.3 16.1064 12.5929 15.9692C12.0366 15.8602 11.5633 16.0484 11.2859 16.63C11.0352 17.1549 11.1394 17.6233 11.4971 17.9926C11.9986 18.5119 12.4775 18.468 13.4662 17.8864C13.6366 19.5745 14.0606 20.988 16.2917 19.808C16.1705 20.64 16.3705 21.305 17.1156 21.4338C17.6804 21.5314 18.2959 21.3347 18.9424 21.2625C18.9424 21.3687 18.9241 21.5073 18.9453 21.6403C19.0833 22.4709 19.9608 23.1459 20.7228 23.0185C21.52 22.8841 22.2904 21.929 22.1496 21.2498C21.9397 20.2409 21.12 19.6976 20.1537 19.9042C19.9298 19.9523 19.6904 19.9254 19.4579 19.9339C19.4763 19.6735 19.4523 19.4005 19.5227 19.1543C19.7495 18.3689 19.4678 17.728 18.7622 17.4054C18.0988 17.1026 17.5804 17.3346 17.0522 17.8978L17.0536 17.8964Z" fill="#E6E6E6"/>
<path d="M52.4322 13.2454H50.0406C50.0406 11.9747 50.0068 10.7112 50.0504 9.45186C50.0899 8.34536 50.1645 7.2332 50.3194 6.13802C50.5166 4.74711 51.911 4.03821 53.0759 3.96181C54.2407 3.8854 55.4379 3.8005 56.507 4.49383C56.5999 4.55468 56.8154 4.48393 56.9478 4.41884C58.4197 3.68447 61.4001 3.67457 62.3705 4.98341C62.7776 5.53241 63.1931 6.22716 63.2255 6.87521C63.3325 8.98209 63.2663 11.0975 63.2663 13.1888C63.1663 13.2298 63.1255 13.2595 63.0846 13.2609C61.062 13.2935 60.8043 13.4491 60.8705 11.1838C60.9043 10.0306 60.8648 8.87597 60.8789 7.72277C60.8958 6.29083 59.7563 5.81257 58.7141 6.20452C58.145 6.41818 57.9154 6.84691 57.9183 7.44403C57.9267 9.34998 57.9211 11.2573 57.9211 13.2171H55.3886V12.5039C55.3886 10.7621 55.3773 9.01888 55.3942 7.27706C55.4013 6.56109 54.952 6.24697 54.3858 6.07859C53.7238 5.88191 52.9209 6.18754 52.7139 6.6941C52.5702 7.04642 52.4519 7.43695 52.4463 7.81191C52.4195 9.59901 52.4336 11.3861 52.4336 13.2468L52.4322 13.2454Z" fill="#E6E6E6"/>
<path d="M107.308 0.929688C107.308 4.02987 107.452 7.04656 107.262 10.042C107.114 12.3583 105.896 13.1748 103.651 13.3729C102.724 13.4549 101.708 13.2667 100.828 12.9427C99.7336 12.5394 99.1293 11.5263 98.8913 10.4113C98.6251 9.16334 98.7293 7.90969 98.9744 6.63339C99.528 3.74404 103.127 3.19645 104.687 4.76706C104.731 4.81092 104.789 4.83781 104.918 4.92554V3.05637C104.918 1.95412 105.204 1.56642 106.287 1.21975C106.589 1.12354 106.896 1.04713 107.308 0.931102V0.929688ZM101.163 8.73461C101.287 9.26381 101.396 9.79866 101.541 10.3222C101.71 10.9264 102.187 11.2094 102.755 11.2759C103.377 11.3495 103.984 11.2872 104.375 10.6575C105.151 9.40955 105.131 8.1191 104.466 6.87252C103.903 5.81696 102.573 5.87356 101.949 6.54991C101.37 7.17815 101.236 7.90969 101.162 8.73461H101.163Z" fill="#E6E6E6"/>
<path d="M76.6229 14.5402V18.3479C76.9652 18.079 77.2258 17.83 77.5244 17.6461C79.2117 16.6103 82.0837 17.3758 82.5823 19.794C82.8499 21.0957 82.9259 22.3607 82.6809 23.6441C82.2611 25.8316 80.8076 26.5334 78.9962 26.6679C78.2117 26.7259 77.3737 26.6169 76.6187 26.3891C75.2989 25.9901 74.4567 25.0378 74.3989 23.6229C74.2961 21.0943 74.2764 18.5615 74.251 16.0316C74.244 15.2986 75.0891 14.611 75.9807 14.5431C76.1666 14.5289 76.3553 14.5416 76.6215 14.5416L76.6229 14.5402ZM78.5878 24.5737C79.2568 24.6643 79.7174 24.2667 80.0033 23.7092C80.5047 22.7314 80.5583 21.707 80.1695 20.6543C79.8596 19.8124 79.3117 19.3412 78.5286 19.3454C77.8314 19.3497 77.2103 19.8025 76.9483 20.551C76.606 21.5287 76.6145 22.522 76.9441 23.4998C77.1779 24.1931 77.7863 24.5765 78.5878 24.5751V24.5737Z" fill="#E6E6E6"/>
<path d="M72.9637 10.1595C72.5327 12.156 70.8918 13.3644 68.9241 13.2823C68.0903 13.2484 67.2875 13.2045 66.5086 12.8522C65.2465 12.2805 64.524 11.2221 64.324 9.95858C64.0451 8.19695 64.1212 6.42259 65.593 5.06423C66.5677 4.16573 67.7142 3.89264 69.0213 3.91811C70.4115 3.94641 71.4242 4.51098 72.2087 5.6288C72.9749 6.72115 73.1834 7.93235 73.1017 9.28788H66.8635C66.7733 10.1369 67.1705 10.8542 67.8677 11.1754C68.6621 11.5405 69.9565 11.3382 70.4115 10.642C70.7171 10.1737 71.0608 10.1397 71.5101 10.1538C71.9763 10.1694 72.4454 10.1567 72.9637 10.1567V10.1595ZM70.3974 7.59135C70.4284 6.70275 69.8509 5.9698 69.1016 5.92028C67.6663 5.82406 66.9198 6.36741 66.8311 7.59135H70.3974Z" fill="#E6E6E6"/>
<path d="M98.79 22.5997H92.4588C92.4264 23.6 92.9842 24.4165 93.7448 24.6103C94.711 24.8565 95.6223 24.6259 96.2012 23.8731C96.2998 23.7458 96.4716 23.6043 96.6153 23.5972C97.2618 23.5675 97.9097 23.5845 98.5675 23.5845C98.3308 25.0475 97.0308 26.3252 95.7054 26.5615C94.3265 26.8077 93.0124 26.7483 91.7856 26.0069C90.5869 25.2824 90.0602 24.0939 89.8911 22.8077C89.6756 21.1748 89.9672 19.6183 91.2701 18.4199C92.5983 17.1987 94.1828 16.9384 95.8279 17.4181C97.3195 17.8525 98.1956 19.0255 98.5675 20.5197C98.7266 21.1606 98.7154 21.8426 98.79 22.5982V22.5997ZM92.4701 20.8706H96.1265C95.842 19.6579 95.4702 19.2731 94.2744 19.2136C93.3729 19.1684 92.7208 19.8093 92.4715 20.8706H92.4701Z" fill="#E6E6E6"/>
<path d="M108.561 8.57606C108.649 6.9531 109.069 5.42494 110.625 4.51229C113.075 3.07893 117.086 3.7001 117.816 7.31674C118.117 8.80953 118.017 10.366 117.027 11.7074C116.464 12.4714 115.699 12.8676 114.831 13.1464C113.38 13.6105 111.965 13.4619 110.669 12.729C109.113 11.8489 108.648 10.3221 108.561 8.57606ZM111.193 8.56474C111.211 8.56757 111.231 8.5704 111.249 8.57323C111.249 8.80811 111.244 9.04299 111.249 9.27788C111.28 10.3702 112 11.2164 113.072 11.4258C113.811 11.5701 114.779 10.9306 115.124 10.0009C115.492 9.01187 115.427 8.00441 115.038 7.03658C114.647 6.06167 113.79 5.77585 113.223 5.78717C112.407 5.80415 111.641 6.42956 111.397 7.27571C111.278 7.69029 111.256 8.13317 111.19 8.56332L111.193 8.56474Z" fill="#E6E6E6"/>
<path d="M92.3192 6.89084H90.2332C89.8853 5.80132 90.6853 4.27458 92.3291 3.9364C93.5347 3.68879 94.7094 3.82038 95.8799 4.09205C96.7757 4.30005 97.5658 5.20704 97.5827 6.20034C97.6053 7.64643 97.5743 9.10101 97.4419 10.54C97.3222 11.839 96.4785 12.6243 95.263 13.012C94.115 13.377 92.9685 13.5822 91.7755 13.1605C90.5614 12.7318 89.8994 11.9734 89.8586 10.9192C89.774 8.74868 90.4882 8.20817 91.7051 7.78085C92.4065 7.53465 93.1727 7.47522 93.9108 7.33655C94.0474 7.31108 94.2235 7.35778 94.3193 7.28562C94.6305 7.05498 94.9122 6.78472 95.2052 6.53003C94.877 6.32627 94.5714 6.01357 94.2179 5.9414C93.1882 5.73057 92.8122 5.95414 92.3192 6.89084ZM95.2024 8.83217C94.8136 8.90292 94.439 8.92555 94.0981 9.04441C93.5488 9.23543 92.9671 9.41513 92.5065 9.74906C92.2953 9.90188 92.253 10.4226 92.3009 10.7537C92.3305 10.956 92.6601 11.2376 92.8812 11.2645C93.5446 11.3451 94.1883 11.3437 94.7291 10.7452C95.2503 10.1679 95.2066 9.53116 95.2038 8.83217H95.2024Z" fill="#E6E6E6"/>
<path d="M88.9008 7.31258H86.4261C86.2035 6.33342 85.619 5.8014 84.7528 5.78017C83.9457 5.76037 83.2992 6.32352 82.9499 7.22061C82.5203 8.32286 82.5851 9.37842 83.1062 10.4156C83.4231 11.0481 84.0049 11.4145 84.6584 11.4018C85.3345 11.3877 85.9965 11.1316 86.2472 10.3448C86.3275 10.0916 86.4711 9.85809 86.5838 9.61896H88.9698C88.8135 11.5744 87.6388 13.0078 85.488 13.3021C84.3823 13.4535 83.4203 13.2724 82.433 12.8564C81.0865 12.289 80.3935 11.1584 80.1949 9.84394C79.9526 8.23372 80.0287 6.54708 81.209 5.24956C82.3189 4.03128 83.8175 3.63085 85.4246 3.85441C86.0584 3.94214 86.6866 4.22089 87.2697 4.51237C88.3754 5.0642 88.8642 6.02355 88.9008 7.31258Z" fill="#E6E6E6"/>
<path d="M67.4453 26.6691H65.0959V16.7078C65.0959 15.0268 65.6988 14.4665 67.4453 14.5712V26.6691Z" fill="#E6E6E6"/>
<path d="M79.564 3.94215V6.48625C79.1795 6.48625 78.7936 6.48059 78.4062 6.48625C77.4259 6.50181 76.7822 7.14704 76.778 8.13892C76.771 9.82556 76.7766 11.5122 76.7766 13.2328H74.116C74.2526 11.0962 74.2639 8.97375 74.5568 6.89093C74.8371 4.90149 76.3076 4.1459 78.1612 3.94781C78.5992 3.90112 79.0471 3.94073 79.5654 3.94073L79.564 3.94215Z" fill="#E6E6E6"/>
<path d="M86.4854 26.6677H84.0937C84.0937 25.1933 84.0656 23.7204 84.105 22.2474C84.1261 21.4932 84.1951 20.7235 84.3698 19.9919C84.767 18.3336 86.0867 17.4917 87.6586 17.3629C88.2277 17.3163 88.7939 17.2413 89.4052 17.1733V19.767C89.0629 19.767 88.7389 19.7472 88.4206 19.7712C87.029 19.8759 86.5445 20.4575 86.498 21.8611C86.4459 23.436 86.4868 25.0136 86.4868 26.6649L86.4854 26.6677Z" fill="#E6E6E6"/>
<path d="M69.7834 17.6699H72.0906V26.6478H69.7834V17.6699Z" fill="#E6E6E6"/>
<path d="M69.7778 14.5642H72.0934V16.7645H69.7778V14.5642Z" fill="#E6E6E6"/>
</g>
<defs>
<clipPath id="clip0_610_14529">
<rect width="117.368" height="30" fill="white" transform="translate(0.598145)"/>
</clipPath>
</defs>
</svg>
