<svg width="24" height="25" viewBox="0 0 24 25" fill="none" xmlns="http://www.w3.org/2000/svg">
<mask id="mask0_1371_15513" style="mask-type:alpha" maskUnits="userSpaceOnUse" x="0" y="0" width="25" height="25">
<rect x="0.00109863" y="0.0338135" width="24" height="24" fill="#D9D9D9"/>
</mask>
<g mask="url(#mask0_1371_15513)">
<path d="M19.6011 21.0338L13.3011 14.7338C12.8011 15.1338 12.2261 15.4505 11.5761 15.6838C10.9261 15.9171 10.2344 16.0338 9.5011 16.0338C7.68443 16.0338 6.14693 15.4046 4.8886 14.1463C3.63027 12.888 3.0011 11.3505 3.0011 9.53381C3.0011 7.71715 3.63027 6.17965 4.8886 4.92131C6.14693 3.66298 7.68443 3.03381 9.5011 3.03381C11.3178 3.03381 12.8553 3.66298 14.1136 4.92131C15.3719 6.17965 16.0011 7.71715 16.0011 9.53381C16.0011 10.2671 15.8844 10.9588 15.6511 11.6088C15.4178 12.2588 15.1011 12.8338 14.7011 13.3338L21.0011 19.6338L19.6011 21.0338ZM9.5011 14.0338C10.7511 14.0338 11.8136 13.5963 12.6886 12.7213C13.5636 11.8463 14.0011 10.7838 14.0011 9.53381C14.0011 8.28381 13.5636 7.22131 12.6886 6.34631C11.8136 5.47131 10.7511 5.03381 9.5011 5.03381C8.2511 5.03381 7.1886 5.47131 6.3136 6.34631C5.4386 7.22131 5.0011 8.28381 5.0011 9.53381C5.0011 10.7838 5.4386 11.8463 6.3136 12.7213C7.1886 13.5963 8.2511 14.0338 9.5011 14.0338ZM8.5011 12.5338V10.5338H6.5011V8.53381H8.5011V6.53381H10.5011V8.53381H12.5011V10.5338H10.5011V12.5338H8.5011Z" fill="#1C1B1F"/>
</g>
</svg>
