<svg width="25" height="25" viewBox="0 0 25 25" fill="none" xmlns="http://www.w3.org/2000/svg">
<g style="mix-blend-mode:exclusion">
<path d="M8.31755 6.17969C8.89452 6.17969 9.42815 6.22483 9.91573 6.35847C10.4042 6.44786 10.8042 6.62664 11.1591 6.84966C11.5148 7.07358 11.7812 7.386 11.9581 7.7878C12.136 8.1896 12.2254 8.68169 12.2254 9.21713C12.2254 9.84286 12.0918 10.3783 11.7812 10.7801C11.5148 11.1828 11.0706 11.5395 10.5378 11.8076C11.2927 12.0315 11.8697 12.4333 12.2254 12.9697C12.5803 13.5051 12.8024 14.1751 12.8024 14.9345C12.8024 15.5602 12.6687 16.0956 12.4466 16.5426C12.2254 16.9895 11.8697 17.3913 11.4697 17.6595C11.0351 17.9469 10.5548 18.1582 10.0494 18.2843C9.51663 18.4188 8.98391 18.5082 8.45118 18.5082H2.5V6.17969H8.31755ZM7.9618 11.1819C8.45028 11.1819 8.85027 11.0483 9.16088 10.8252C9.47149 10.6022 9.60512 10.1995 9.60512 9.70832C9.60512 9.44015 9.55997 9.17289 9.47149 8.99411C9.383 8.81533 9.24937 8.68079 9.07239 8.54716C8.89452 8.45777 8.71664 8.36838 8.49452 8.32414C8.2724 8.27899 8.05119 8.27899 7.78392 8.27899H5.20878V11.1828H7.9627L7.9618 11.1819ZM8.09543 16.4532C8.36179 16.4532 8.62815 16.408 8.85027 16.3638C9.07239 16.3186 9.29451 16.2302 9.47149 16.0956C9.65242 15.9649 9.80379 15.7975 9.91573 15.6044C10.0042 15.3814 10.0936 15.1132 10.0936 14.8008C10.0936 14.1751 9.91573 13.7281 9.56088 13.4157C9.20512 13.1476 8.71664 13.0139 8.13967 13.0139H5.20878V16.4541L8.09543 16.4532ZM16.666 16.408C17.0208 16.7656 17.5536 16.9444 18.2642 16.9444C18.7527 16.9444 19.1969 16.8107 19.5517 16.5877C19.9075 16.3195 20.1296 16.0514 20.2181 15.7841H22.3942C22.0384 16.855 21.5057 17.6143 20.796 18.1064C20.0845 18.5525 19.2411 18.8206 18.2199 18.8206C17.5665 18.8227 16.9186 18.7014 16.3102 18.4631C15.7628 18.2578 15.2746 17.9203 14.889 17.4807C14.4767 17.0695 14.1718 16.5631 14.0015 16.0062C13.7793 15.4256 13.69 14.8008 13.69 14.0857C13.69 13.4157 13.7793 12.7909 14.0015 12.2094C14.2154 11.6499 14.5317 11.1352 14.9342 10.6916C15.3397 10.2752 15.822 9.94131 16.3545 9.70832C16.9474 9.47 17.5809 9.34859 18.2199 9.35076C18.9748 9.35076 19.6411 9.4853 20.2181 9.79771C20.796 10.1101 21.2393 10.4677 21.5942 11.004C21.9499 11.4952 22.2172 12.0758 22.3942 12.7015C22.4826 13.3263 22.5269 13.9521 22.4826 14.6663H16.0439C16.0439 15.3814 16.3102 16.0514 16.666 16.4089V16.408ZM19.4633 11.7182C19.1527 11.4058 18.6642 11.227 18.0863 11.227C17.6872 11.227 17.3757 11.3173 17.1093 11.451C16.843 11.5846 16.666 11.7634 16.4881 11.9422C16.3244 12.1148 16.2159 12.3323 16.1766 12.567C16.1324 12.7909 16.0881 12.9697 16.0881 13.1476H20.0845C19.996 12.4776 19.7739 12.0315 19.4633 11.7182ZM15.5554 7.02844H20.5287V8.23475H15.5563V7.02844H15.5554Z" fill="#b3b3b3"/>
</g>
</svg>
