<svg width="25" height="25" viewBox="0 0 25 25" fill="none" xmlns="http://www.w3.org/2000/svg">
<g style="mix-blend-mode:exclusion">
<path d="M7.04016 22.0081V9.17776H2.75294V22.0081H7.04016ZM4.8971 7.42494C6.39213 7.42494 7.32271 6.43973 7.32271 5.20853C7.29486 3.94957 6.39219 2.9917 4.92548 2.9917C3.45899 2.9917 2.5 3.94959 2.5 5.20853C2.5 6.43978 3.43035 7.42494 4.86912 7.42494H4.89697H4.8971ZM9.41312 22.0081H13.7003V14.843C13.7003 14.4595 13.7282 14.0765 13.8414 13.8023C14.1513 13.0362 14.8567 12.2427 16.0411 12.2427C17.5924 12.2427 18.2131 13.4193 18.2131 15.144V22.008H22.5V14.6512C22.5 10.7102 20.3849 8.87654 17.5642 8.87654C15.2514 8.87654 14.2359 10.1625 13.6718 11.0383H13.7004V9.17749H9.41321C9.46948 10.3814 9.41321 22.0078 9.41321 22.0078L9.41312 22.0081Z" fill="#b3b3b3"/>
</g>
</svg>
