<svg width="150" height="150" viewBox="0 0 150 150" fill="none" xmlns="http://www.w3.org/2000/svg">
<g clip-path="url(#clip0_976_767)">
<path d="M75.8674 25C76.0224 25.105 76.1999 25.0675 76.3674 25.0725C82.5349 25.2375 88.4124 26.64 93.9949 29.255C100.67 32.38 106.242 36.885 110.725 42.735C114.315 47.42 116.867 52.62 118.405 58.3175C119.135 61.02 119.587 63.77 119.802 66.5625C120.017 69.3325 119.977 72.095 119.685 74.85C119.245 78.995 118.235 83.0025 116.67 86.87C115.135 90.66 113.125 94.175 110.617 97.4025C110.38 97.71 110.422 97.875 110.65 98.145C112.675 100.542 114.685 102.955 116.71 105.355C116.892 105.573 116.895 105.69 116.707 105.91C113.662 109.46 110.227 112.577 106.377 115.232C102.07 118.205 97.4374 120.53 92.4674 122.188C89.4874 123.18 86.4449 123.92 83.3424 124.382C79.3524 124.978 75.3449 125.152 71.3124 124.865C64.2949 124.368 57.6099 122.615 51.2749 119.567C46.0049 117.032 41.2574 113.725 37.0399 109.665C35.3924 108.08 33.9424 106.31 32.3674 104.66C32.1174 104.398 32.3024 104.305 32.4649 104.168C34.1799 102.728 35.8974 101.285 37.6124 99.845C38.2449 99.3125 38.8724 98.77 39.5174 98.2525C39.7524 98.065 39.7499 97.94 39.5674 97.7075C37.2224 94.7375 35.2974 91.515 33.7774 88.05C32.3299 84.75 31.2924 81.3225 30.6749 77.77C30.1849 74.9575 29.9524 72.1175 30.0074 69.2575C30.1024 64.42 30.9174 59.7125 32.5224 55.14C34.1674 50.4575 36.5149 46.165 39.5824 42.265C44.3624 36.1875 50.3174 31.6275 57.4224 28.59C61.1599 26.9925 65.0524 25.93 69.0924 25.425C70.5949 25.2375 72.0974 25.0975 73.6099 25.0675C73.7624 25.065 73.9274 25.1 74.0674 24.9975C74.6674 24.9975 75.2674 24.9975 75.8649 24.9975L75.8674 25ZM118.535 70.0225C118.56 45.99 99.1124 26.5075 75.0199 26.4375C51.0049 26.365 31.4524 45.88 31.4024 69.9675C31.3524 94.0025 50.8599 113.537 74.9449 113.57C98.9949 113.603 118.51 94.1075 118.537 70.0225H118.535ZM75.0999 116.147C78.9874 116.16 82.8074 115.667 86.5674 114.702C93.2149 112.997 99.1749 109.93 104.477 105.577C104.985 105.16 104.967 105.17 104.482 104.545C104.257 104.257 104.127 104.228 103.827 104.48C100.197 107.533 96.1824 109.948 91.7824 111.723C87.2924 113.535 82.6274 114.582 77.7974 114.89C75.1024 115.06 72.4099 114.975 69.7249 114.665C66.9274 114.345 64.1874 113.768 61.5049 112.923C55.9599 111.18 50.9449 108.448 46.4399 104.772C45.9624 104.382 45.9749 104.408 45.4749 104.787C45.1499 105.033 45.2299 105.162 45.4949 105.382C47.3074 106.893 49.2124 108.273 51.2324 109.488C58.5749 113.903 66.5374 116.105 75.0999 116.147ZM91.1374 117.27C91.4424 116.777 91.4949 116.305 91.1224 115.863C90.7349 115.405 90.2349 115.402 89.7149 115.575C89.1074 115.775 88.5049 115.993 87.8999 116.195C87.7049 116.26 87.6249 116.35 87.7049 116.57C88.1499 117.8 88.5874 119.033 89.0149 120.268C89.0849 120.47 89.1774 120.493 89.3624 120.423C90.0674 120.158 90.7849 119.925 91.4824 119.637C92.0949 119.385 92.3349 118.91 92.2549 118.268C92.1849 117.725 91.8349 117.397 91.1399 117.268L91.1374 117.27ZM58.8624 118.098C58.8324 118.093 58.8024 118.087 58.7749 118.082C58.5974 117.118 58.4124 116.155 58.2449 115.188C58.1674 114.747 57.7699 114.777 57.4924 114.677C57.2324 114.582 57.2449 114.895 57.1874 115.043C56.7449 116.153 56.3374 117.277 55.8774 118.38C55.7224 118.752 55.8799 118.827 56.1624 118.952C56.4824 119.095 56.6324 119.018 56.7124 118.695C56.7399 118.585 56.7949 118.483 56.8349 118.378C57.0699 117.78 57.3024 117.18 57.5749 116.482C57.7749 117.557 57.9549 118.507 58.1249 119.46C58.2074 119.915 58.6224 119.885 58.9174 119.982C59.1724 120.067 59.1599 119.76 59.2174 119.613C59.6599 118.503 60.0724 117.378 60.5324 116.275C60.6874 115.9 60.5149 115.832 60.2374 115.71C59.9249 115.573 59.7949 115.64 59.6824 115.955C59.4274 116.675 59.1374 117.382 58.8624 118.095V118.098ZM65.9524 119.025C65.9649 117.825 65.5174 117.232 64.4974 116.97C64.0024 116.842 63.4999 116.737 63.0049 116.607C62.8074 116.555 62.7174 116.61 62.6699 116.805C62.3674 118.077 62.0574 119.348 61.7474 120.618C61.7024 120.805 61.7374 120.905 61.9474 120.95C62.5174 121.072 63.0774 121.248 63.6499 121.348C64.5199 121.5 65.1424 121.173 65.5649 120.397C65.8224 119.927 65.9274 119.415 65.9524 119.025ZM72.1599 120.405C72.1349 120.405 72.1099 120.405 72.0849 120.405C72.0849 121.018 72.0974 121.632 72.0799 122.245C72.0724 122.53 72.1424 122.657 72.4574 122.645C72.9699 122.625 73.4849 122.65 73.9974 122.645C74.9599 122.635 75.5824 122.128 75.7899 121.19C75.8674 120.84 75.8949 120.485 75.8699 120.128C75.7899 118.88 75.1349 118.232 73.8849 118.18C73.4299 118.16 72.9699 118.18 72.5149 118.155C72.2249 118.137 72.1474 118.257 72.1549 118.525C72.1674 119.153 72.1599 119.78 72.1599 120.408V120.405ZM77.9699 119.988C77.9774 120.145 77.9774 120.302 77.9924 120.457C78.1099 121.602 78.9099 122.395 79.9824 122.43C81.1924 122.47 82.0849 121.8 82.2749 120.698C82.3399 120.315 82.3024 119.935 82.2249 119.552C81.9849 118.365 81.0874 117.702 79.8674 117.823C78.6824 117.943 77.9474 118.78 77.9699 119.988ZM67.2224 120.995C67.2474 120.855 67.2999 120.715 67.2949 120.575C67.2799 120.157 67.4899 120.12 67.8324 120.19C68.2774 120.28 68.7349 120.323 69.1824 120.408C69.4799 120.463 69.5949 120.345 69.6224 120.06C69.6474 119.805 69.6499 119.63 69.3074 119.603C68.8124 119.562 68.3249 119.427 67.8274 119.387C67.2499 119.342 67.5874 118.98 67.5699 118.74C67.5449 118.395 67.7724 118.435 67.9949 118.47C68.5574 118.555 69.1249 118.618 69.6849 118.725C70.0524 118.795 69.9874 118.522 70.0374 118.342C70.0999 118.122 70.0624 117.96 69.7799 117.923C68.8749 117.802 67.9724 117.675 67.0724 117.537C66.8799 117.507 66.7849 117.533 66.7549 117.747C66.5674 119.045 66.3699 120.34 66.1774 121.637C66.1524 121.812 66.1774 121.933 66.3999 121.963C67.3449 122.092 68.2899 122.235 69.2324 122.382C69.6599 122.448 69.5249 122.095 69.5924 121.905C69.6699 121.69 69.5624 121.607 69.3399 121.58C68.7449 121.507 68.1549 121.41 67.5624 121.325C67.3699 121.298 67.1774 121.275 67.2199 120.997L67.2224 120.995ZM84.3124 121.715C84.3724 121.715 84.3999 121.715 84.4274 121.715C84.8049 121.72 85.1624 121.62 85.4999 121.465C86.1474 121.167 86.4574 120.628 86.3524 120C86.2399 119.327 85.7899 118.925 85.0574 118.855C84.6324 118.815 84.2024 118.81 83.7774 118.755C83.4549 118.715 83.3299 118.475 83.4699 118.25C83.6724 117.925 84.4849 117.772 84.6924 118.077C84.9424 118.442 85.1999 118.323 85.5024 118.26C85.8274 118.193 85.8449 118.035 85.6974 117.783C85.4799 117.415 85.1724 117.182 84.7474 117.13C84.3174 117.077 83.8949 117.128 83.4874 117.283C82.7974 117.543 82.4574 118.033 82.5299 118.673C82.5949 119.245 83.0899 119.663 83.8024 119.73C84.2149 119.77 84.6299 119.77 85.0399 119.83C85.4224 119.885 85.5474 120.217 85.3349 120.53C85.0274 120.978 84.1724 121.067 83.8749 120.622C83.6224 120.245 83.3849 120.32 83.0549 120.427C82.7799 120.517 82.7724 120.648 82.8899 120.863C83.2024 121.443 83.6649 121.763 84.3124 121.72V121.715ZM54.3474 117.702C54.1974 118.195 54.6149 118.25 54.8974 118.412C55.1099 118.533 55.2374 118.575 55.2624 118.238C55.3699 116.83 55.4999 115.425 55.6324 114.02C55.6499 113.825 55.5724 113.708 55.4049 113.665C55.1499 113.6 54.9299 113.217 54.6449 113.467C53.5474 114.425 52.4749 115.408 51.3949 116.382C51.3374 116.435 51.2549 116.485 51.3224 116.595C51.4924 116.865 52.1474 116.952 52.3874 116.738C53.0049 116.183 52.7274 116.223 53.4924 116.58C53.5949 116.628 53.6924 116.695 53.7974 116.732C54.2674 116.895 54.5849 117.14 54.3474 117.705V117.702ZM92.7124 115.168C92.7999 116.393 92.8799 117.588 92.9699 118.783C92.9774 118.88 92.9124 119.027 93.0774 119.067C93.3299 119.13 93.9249 118.66 93.8549 118.415C93.6624 117.745 93.9974 117.457 94.5699 117.295C94.6924 117.26 94.8124 117.205 94.9174 117.132C95.2299 116.915 95.4899 116.945 95.7099 117.262C95.9749 117.645 96.2749 117.652 96.6824 117.438C97.0374 117.253 96.9974 117.158 96.7424 116.925C95.7749 116.038 94.8174 115.14 93.8724 114.23C93.6424 114.01 93.4699 113.985 93.1699 114.107C92.7749 114.27 92.5949 114.475 92.7099 114.902C92.7349 114.995 92.7124 115.1 92.7124 115.17V115.168ZM48.2649 113.95C48.2649 114.695 48.8724 115.365 49.7999 115.675C50.4799 115.903 51.0074 115.735 51.4599 115.075C51.9749 114.322 52.4299 113.53 52.9474 112.78C53.1949 112.42 52.9274 112.355 52.7224 112.22C52.5049 112.075 52.3349 111.91 52.1249 112.277C51.6899 113.03 51.2124 113.757 50.7324 114.48C50.4624 114.885 50.1024 114.952 49.6999 114.72C49.2199 114.443 49.0899 114.022 49.3799 113.527C49.7599 112.875 50.1724 112.243 50.5724 111.603C50.9149 111.055 50.9124 111.062 50.3624 110.735C50.1874 110.63 50.0774 110.6 49.9524 110.808C49.4699 111.613 48.9649 112.408 48.4824 113.213C48.3424 113.445 48.2424 113.7 48.2699 113.95H48.2649ZM102.43 112.915C102.447 112.598 102.462 112.385 102.47 112.173C102.512 111.247 102.542 110.32 102.597 109.395C102.617 109.047 102.422 108.8 102.192 108.643C101.992 108.505 101.835 108.795 101.672 108.91C101.08 109.333 100.505 109.775 99.9199 110.207C99.6999 110.37 99.4799 110.475 99.7449 110.825C99.9924 111.15 100.147 111.055 100.387 110.863C100.77 110.558 101.172 110.275 101.507 110.027C101.507 111.032 101.532 112.027 101.495 113.02C101.48 113.405 101.56 113.705 101.797 113.997C101.95 114.185 102.052 114.205 102.245 114.058C103.037 113.452 103.832 112.847 104.647 112.27C104.94 112.062 104.805 111.927 104.67 111.728C104.512 111.495 104.387 111.43 104.135 111.632C103.605 112.058 103.05 112.45 102.43 112.91V112.915ZM96.4624 113.335C96.6299 113.342 96.6499 113.495 96.7074 113.595C97.2024 114.443 97.7099 115.287 98.1774 116.15C98.3499 116.467 98.5074 116.427 98.7399 116.257C98.9349 116.113 99.2774 116.082 99.0199 115.68C98.6074 115.033 98.2399 114.355 97.8574 113.688C97.7024 113.418 97.4049 113.12 97.4399 112.872C97.4799 112.577 97.9224 112.485 98.2024 112.335C98.5174 112.165 98.3949 112.003 98.2799 111.793C98.1599 111.575 98.0674 111.465 97.7974 111.628C96.9699 112.13 96.1324 112.62 95.2824 113.082C94.9949 113.24 95.0599 113.38 95.1899 113.582C95.3124 113.775 95.3824 114.015 95.6899 113.79C95.9299 113.615 96.2049 113.485 96.4649 113.332L96.4624 113.335ZM45.0949 111.825C45.1024 112.025 45.1124 112.165 45.1674 112.3C45.5999 113.368 46.9299 113.62 47.6649 112.74C48.2499 112.042 48.7599 111.283 49.3374 110.577C49.5824 110.277 49.5449 110.128 49.2399 109.915C48.9674 109.725 48.8149 109.635 48.5749 109.98C48.0549 110.728 47.4874 111.442 46.9274 112.162C46.7599 112.377 46.5474 112.522 46.2649 112.338C45.9974 112.16 45.9399 111.928 46.0849 111.635C46.1374 111.533 46.2749 111.41 46.1099 111.302C45.9124 111.173 45.7149 110.952 45.4799 110.993C45.2649 111.028 45.2224 111.31 45.1499 111.505C45.1049 111.622 45.1049 111.755 45.0924 111.823L45.0949 111.825ZM77.5149 121.79C77.5149 121.79 77.5074 121.79 77.5049 121.79C77.4524 120.723 77.3674 119.655 77.3574 118.588C77.3524 118.123 77.1324 118.155 76.8074 118.145C76.4274 118.135 76.3599 118.288 76.3824 118.628C76.4549 119.795 76.5174 120.962 76.5449 122.13C76.5549 122.55 76.6899 122.673 77.0974 122.632C77.4099 122.603 77.5799 122.523 77.5199 122.175C77.4999 122.05 77.5174 121.92 77.5174 121.79H77.5149ZM99.0299 110.81C98.8424 110.938 98.5999 111.053 98.4324 111.238C98.2874 111.398 98.5024 111.543 98.5874 111.673C99.1999 112.618 99.8224 113.555 100.442 114.495C100.802 115.04 100.797 115.033 101.327 114.658C101.497 114.537 101.552 114.448 101.422 114.253C100.7 113.175 99.9924 112.09 99.2749 111.007C99.2224 110.927 99.1899 110.823 99.0299 110.812V110.81ZM93.4224 112.777C92.5224 113.075 92.5174 113.075 92.5349 113.747C92.5374 113.872 92.4474 114.085 92.6349 114.107C92.8024 114.125 93.0149 114.04 93.0849 113.848C93.2074 113.52 93.2974 113.18 93.4249 112.777H93.4224Z" fill="#E6E6E6"/>
<path d="M116.955 69.985C116.905 93.1475 98.2974 111.955 74.9924 111.972C51.8874 111.992 33.0224 93.405 33.0049 70.025C32.9849 46.8475 51.6249 28.055 74.9524 28.0375C98.1849 28.02 116.87 46.7325 116.955 69.985ZM74.9599 110.572C97.3299 110.592 115.515 92.4425 115.542 70.04C115.57 47.6525 97.4074 29.4525 74.9849 29.4325C52.6074 29.4125 34.4274 47.5575 34.4024 69.9725C34.3774 92.42 52.5824 110.577 74.9599 110.572Z" fill="#E6E6E6"/>
<path d="M90.7199 117.945C91.0074 117.975 91.1949 118.085 91.2649 118.335C91.3349 118.593 91.2899 118.835 91.0274 118.95C90.6649 119.11 90.2874 119.23 89.9174 119.375C89.7799 119.43 89.6999 119.405 89.6674 119.258C89.6649 119.243 89.6599 119.23 89.6549 119.218C89.2874 118.165 89.2249 118.46 90.1449 118.108C90.3424 118.033 90.5524 117.993 90.7199 117.945Z" fill="#E6E6E6"/>
<path d="M90.5075 116.798C90.5125 116.993 90.4075 117.13 90.245 117.2C89.92 117.34 89.5825 117.45 89.2525 117.583C89.12 117.635 89.0851 117.565 89.0326 117.47C88.6976 116.85 88.735 116.74 89.385 116.513C89.5725 116.448 89.76 116.373 89.9525 116.333C90.2775 116.263 90.5175 116.475 90.5075 116.798Z" fill="#E6E6E6"/>
<path d="M64.995 118.772C65.0025 119.135 64.9025 119.477 64.785 119.81C64.5425 120.49 64.22 120.657 63.505 120.497C63.0317 120.392 62.8492 120.111 62.9575 119.652C63.0975 119.06 63.25 118.47 63.385 117.875C63.44 117.627 63.55 117.532 63.8 117.62C63.9475 117.672 64.1 117.702 64.25 117.75C64.8325 117.932 65.0025 118.165 64.995 118.772Z" fill="#E6E6E6"/>
<path d="M73.0752 120.427C73.0752 120.042 73.0677 119.66 73.0777 119.275C73.0802 119.145 73.0477 118.965 73.2702 118.965C74.3352 118.972 74.8502 119.045 74.9027 120.275C74.9052 120.36 74.9027 120.445 74.9027 120.53C74.8577 121.662 74.3527 122.055 73.2402 121.845C73.0602 121.81 73.0527 121.712 73.0527 121.577C73.0527 121.192 73.0527 120.81 73.0527 120.425C73.0602 120.425 73.0677 120.425 73.0752 120.425V120.427Z" fill="#E6E6E6"/>
<path d="M78.9373 119.973C78.9248 119.18 79.3123 118.69 80.0023 118.628C80.7673 118.558 81.2873 119.16 81.3298 120.168C81.3673 121.06 80.9073 121.61 80.1348 121.598C79.6473 121.59 79.2598 121.305 79.0723 120.815C78.9698 120.545 78.9473 120.26 78.9373 119.975V119.973Z" fill="#E6E6E6"/>
<path d="M54.5125 116.15C53.7791 115.893 53.68 115.515 54.215 115.015C54.3475 114.89 54.4825 114.767 54.685 114.582C54.6225 115.152 54.57 115.635 54.5125 116.147V116.15Z" fill="#E6E6E6"/>
<path d="M93.6373 115.275C93.9898 115.64 94.3273 115.987 94.6848 116.357C94.4098 116.482 94.0973 116.757 93.8573 116.705C93.5123 116.63 93.7473 116.19 93.6573 115.92C93.5923 115.725 93.5823 115.51 93.6373 115.272V115.275Z" fill="#E6E6E6"/>
<path d="M47.4027 74.115C47.3702 73.535 47.4752 73.0225 47.2877 72.6575C47.0852 72.2625 46.9802 71.87 46.8877 71.4575C46.8427 71.2525 46.6727 71.2575 46.5227 71.23C44.9002 70.92 43.2802 70.6025 41.6552 70.31C41.3727 70.26 41.2802 70.16 41.2827 69.875C41.2977 68.0775 41.3027 66.2775 41.2952 64.48C41.2952 64.21 41.3952 64.1125 41.6402 64.0425C43.1852 63.5975 44.7252 63.14 46.2627 62.675C46.3902 62.6375 46.5977 62.6525 46.6227 62.4975C46.6477 62.33 46.4377 62.31 46.3227 62.245C45.0027 61.4825 43.6827 60.72 42.3552 59.9725C42.1452 59.855 42.0727 59.7525 42.1602 59.515C42.7802 57.8025 43.3927 56.085 44.0002 54.3675C44.0702 54.17 44.1652 54.0675 44.3852 54.0375C44.8352 53.975 45.2777 53.855 45.7302 53.8025C46.0277 53.7675 46.1102 53.6425 46.0902 53.36C45.9827 51.81 45.8852 50.2575 45.7877 48.705C45.7427 48.0075 45.7077 47.31 45.6527 46.6125C45.6302 46.3375 45.7152 46.24 46.0002 46.23C47.0827 46.1925 48.1652 46.1225 49.2502 46.0875C49.5627 46.0775 49.8052 46.0075 49.9677 45.73C50.0927 45.5175 50.2852 45.4225 50.5352 45.405C51.8152 45.3225 53.0952 45.22 54.3752 45.15C54.7202 45.13 54.7977 45.0475 54.6577 44.7225C54.3802 44.0825 54.1427 43.4275 53.8627 42.7875C53.7502 42.5325 53.7677 42.3875 54.0252 42.24C55.6877 41.275 57.3427 40.2975 58.9977 39.32C59.1452 39.2325 59.2927 39.2325 59.4502 39.235C60.9052 39.26 62.3602 39.28 63.8152 39.32C64.1402 39.3275 64.2902 39.255 64.2477 38.8975C64.2027 38.515 64.2277 38.125 64.1777 37.745C64.1352 37.43 64.2527 37.3175 64.5452 37.265C66.2827 36.9575 68.0252 36.675 69.7477 36.3075C70.9277 36.055 72.0727 36.3225 73.2352 36.365C73.9177 36.39 74.6002 36.46 75.2827 36.505C75.3777 36.5125 75.5227 36.56 75.5577 36.4525C75.7052 35.9825 76.0752 36.1425 76.3702 36.1675C78.3302 36.3275 80.2977 36.4475 82.2477 36.69C84.1827 36.93 86.1027 37.3025 88.0277 37.6125C88.2277 37.645 88.2977 37.745 88.2652 37.935C88.2652 37.95 88.2627 37.9625 88.2602 37.9775C88.1727 39.0325 88.1727 39.03 89.2277 39.055C90.2402 39.08 91.2527 39.1275 92.2652 39.1425C92.6877 39.1475 92.9752 39.4225 93.3052 39.6025C94.7052 40.3675 96.0902 41.1625 97.4927 41.9225C97.8052 42.0925 97.8102 42.2425 97.6502 42.5175C97.4502 42.8625 97.2827 43.225 97.1127 43.5875C97.0777 43.6625 96.9552 43.765 97.0902 43.84C97.1752 43.8875 97.2877 43.865 97.3652 43.7825C97.4352 43.71 97.5002 43.635 97.5677 43.56C98.4552 42.5525 99.3402 41.545 100.228 40.54C100.328 40.425 100.44 40.3225 100.62 40.1375C100.448 41.22 100.29 42.1975 100.133 43.175C100.04 43.7525 99.9452 44.3275 99.8452 44.9025C99.8002 45.16 99.8352 45.365 100.153 45.2175C101.088 44.7825 101.623 45.235 102.178 45.955C103.073 47.115 104.065 48.2025 105.033 49.3075C105.248 49.555 105.245 49.695 104.993 49.9225C103.593 51.1825 102.21 52.4625 100.823 53.735C100.648 53.895 100.44 54.015 100.638 54.33C100.808 54.6 100.915 54.8 101.31 54.7175C103.108 54.3525 104.915 54.03 106.715 53.67C106.958 53.6225 107.043 53.675 107.115 53.89C107.715 55.625 108.323 57.36 108.938 59.0925C109.003 59.275 108.985 59.4125 108.878 59.5675C108.183 60.56 107.495 61.5575 106.805 62.555C106.705 62.7 106.58 62.7925 106.41 62.86C105.103 63.3825 103.803 63.93 102.493 64.4425C102.123 64.5875 101.815 64.7725 101.573 65.0925C101.305 65.445 100.97 65.75 100.738 66.12C100.405 66.6475 99.9452 66.8225 99.3527 66.86C98.5277 66.9125 97.7077 67.0275 96.8852 67.11C96.7102 67.1275 96.5427 67.1425 96.6652 67.3775C97.6802 69.325 97.2077 71.3375 96.8727 73.3225C96.4227 76 95.4752 78.515 94.1477 80.885C93.9677 81.2075 93.9502 81.565 93.8927 81.9125C93.7652 82.6975 93.6352 83.4825 93.5027 84.3C93.7102 84.2825 93.7777 84.1275 93.8677 84.0225C95.0427 82.6425 96.2227 81.2675 97.3777 79.87C97.6127 79.5875 97.7427 79.5975 97.9977 79.8275C98.6102 80.3825 99.2402 80.92 99.8877 81.435C100.183 81.67 100.23 81.82 99.9552 82.125C99.2377 82.9175 98.5627 83.75 97.8702 84.5675C97.6219 84.8608 97.6402 85.1275 97.9252 85.3675C99.7552 86.9175 101.58 88.47 103.418 90.01C103.665 90.2175 103.713 90.345 103.48 90.6075C102.88 91.275 102.303 91.965 101.735 92.6625C101.553 92.8875 101.44 92.8725 101.235 92.695C99.3677 91.1 97.4877 89.525 95.6277 87.9225C95.3452 87.68 95.2052 87.6775 94.9677 87.975C94.3627 88.7325 93.7277 89.4675 93.0902 90.1975C92.9577 90.3475 92.9002 90.6275 92.5752 90.5425C92.4677 90.515 92.4802 90.69 92.4652 90.7825C92.1227 92.905 91.7802 95.03 91.4377 97.1525C91.0277 99.6975 90.6102 102.243 90.2177 104.79C90.1602 105.17 90.0302 105.283 89.6502 105.217C87.9802 104.93 86.3052 104.662 84.6327 104.39C83.7327 104.243 82.8327 104.098 81.9327 103.955C81.7027 103.918 81.4502 103.858 81.5427 104.26C81.6052 104.543 81.3527 104.5 81.2077 104.52C79.8802 104.7 78.5527 104.87 77.2227 105.043C75.3152 105.288 73.4052 105.523 71.5002 105.785C71.1977 105.828 71.1252 105.73 71.0952 105.47C70.9827 104.522 70.8427 103.577 70.7502 102.628C70.7152 102.265 70.5752 102.118 70.2202 102.062C65.8027 101.36 61.3877 100.65 56.9752 99.9275C56.5502 99.8575 56.2352 99.9125 55.9977 100.295C55.9177 100.425 55.7877 100.64 55.6052 100.415C54.8702 99.505 53.8077 99.4125 52.7702 99.2575C51.5727 99.0775 50.3777 98.8775 49.1802 98.7175C48.9252 98.685 49.0052 98.5425 48.9977 98.4275C48.9302 97.445 48.8502 96.465 48.8177 95.48C48.7952 94.8775 48.6677 94.3625 48.0952 94.05C47.7852 93.88 47.7477 93.6775 48.0327 93.4375C48.5177 93.0275 48.6327 92.52 48.5827 91.8825C48.3852 89.395 48.2402 86.9025 48.0777 84.4125C47.9852 83.0025 47.8902 81.595 47.8102 80.185C47.7977 79.96 47.7402 79.7725 47.6077 79.595C46.7152 78.3925 45.8202 77.19 44.9402 75.9775C44.7577 75.725 44.6277 75.74 44.3977 75.9125C43.1652 76.8375 41.9277 77.755 40.6777 78.6575C40.4302 78.835 40.4252 78.9525 40.6002 79.19C41.9227 80.9625 43.2302 82.7475 44.5527 84.5175C44.7327 84.76 44.7602 84.88 44.4802 85.07C43.8327 85.51 43.2052 85.985 42.5877 86.4675C42.3577 86.6475 42.2377 86.645 42.0552 86.3975C40.1302 83.775 38.1977 81.16 36.2527 78.5525C36.0577 78.2925 36.0877 78.1775 36.3427 77.9925C38.9552 76.0775 41.5552 74.15 44.1602 72.225C44.4352 72.0225 44.7327 71.8425 44.9802 71.6075C45.2777 71.325 45.4277 71.4375 45.6277 71.725C46.0902 72.3925 46.5877 73.0375 47.0727 73.69C47.1527 73.8 47.2427 73.9025 47.4127 74.115H47.4027ZM62.7602 84.8675C62.7502 84.815 62.7552 84.75 62.7277 84.71C61.3627 82.77 61.1577 80.6325 61.6577 78.3775C62.2677 75.63 63.7152 73.38 65.8427 71.5875C68.0577 69.725 70.5702 68.645 73.5502 69.0575C73.7502 69.085 73.8577 69.07 73.8252 68.8375C73.8052 68.6825 73.8652 68.6325 74.0327 68.6C74.5377 68.5 74.7552 68.065 74.5752 67.5875C74.2877 66.8275 73.9977 66.07 73.7127 65.3075C73.6777 65.215 73.5702 65.1025 73.7227 65.02C73.9777 64.8825 74.3927 65.065 74.4977 65.345C74.7077 65.9 74.8327 66.485 75.1302 67.0725C75.1927 66.91 75.2402 66.81 75.2727 66.705C75.4227 66.245 75.5652 65.7825 75.7177 65.3225C75.8127 65.0375 76.1327 64.885 76.4227 65.025C76.7002 65.1575 76.4377 65.34 76.4102 65.4875C76.3552 65.7725 76.1802 66.0275 76.1427 66.44C76.4752 66.0675 76.7377 65.77 77.0052 65.48C77.1352 65.3375 77.0802 65.24 76.9727 65.115C76.1702 64.19 75.1927 63.53 74.0527 63.095C73.7602 62.9825 73.6502 63.065 73.5777 63.3475C73.3877 64.0875 73.2852 64.83 73.4252 65.59C73.5077 66.045 73.4902 66.4275 72.9402 66.5825C72.0502 66.8325 71.7027 67.4275 71.8852 68.3325C71.8927 68.3725 71.8827 68.4175 71.8852 68.46C71.9102 68.71 71.8052 68.8275 71.5452 68.8275C71.1577 68.825 70.7727 68.8925 70.4102 69.01C70.0277 69.1325 69.9827 68.98 69.9927 68.6575C70.0052 68.1725 69.9877 68.17 69.5377 68.4025C68.1152 69.1325 66.7452 69.9625 65.2652 70.6325C65.3752 70.7675 65.4702 70.91 65.5927 71.0275C65.7927 71.2225 65.8102 71.37 65.5702 71.5625C65.2702 71.8025 64.9952 72.0775 64.7327 72.3575C64.5702 72.53 64.4652 72.5075 64.3302 72.34C63.9802 71.9075 63.6227 71.4825 63.2627 71.0575C63.1902 70.9725 63.1152 70.87 63.0202 70.825C62.7302 70.69 61.4877 70.995 61.2677 71.2425C59.5052 73.2075 57.7452 75.175 55.9827 77.14C55.9052 77.2275 55.8602 77.37 55.6902 77.3675C55.5702 75.4975 55.4377 73.6375 55.3352 71.7725C55.2777 70.735 55.2827 70.735 54.3402 71.1525C53.7077 71.435 53.1177 71.83 52.4002 71.9025C51.2802 72.015 50.1627 72.145 49.0427 72.2475C48.7602 72.2725 48.6802 72.3775 48.7002 72.6475C48.7752 73.7425 48.8377 74.84 48.9002 75.935C48.9152 76.1775 49.0352 76.3625 49.1727 76.55C49.9127 77.545 50.6427 78.55 51.3902 79.54C51.5452 79.745 51.5502 79.855 51.3277 80.0125C50.7427 80.42 50.1827 80.865 49.5977 81.27C49.3552 81.4375 49.2777 81.6225 49.2977 81.9125C49.4602 84.375 49.5977 86.8375 49.7727 89.2975C49.8152 89.895 49.7652 90.5075 49.9552 91.1575C50.1177 90.975 50.2402 90.8425 50.3577 90.7025C51.9077 88.875 53.4602 87.05 55.0002 85.2125C55.1952 84.98 55.3077 84.975 55.5277 85.1725C56.1677 85.7425 56.8277 86.2875 57.4852 86.835C57.5527 86.8925 57.6202 87.0475 57.8027 86.875C57.1852 86.34 56.6327 85.755 56.1002 85.1475C53.2702 81.92 51.3652 78.23 50.5152 74.0075C50.4202 73.53 50.5827 73.1725 50.8352 72.8225C50.9852 72.615 51.2152 72.48 51.4702 72.565C51.9152 72.715 52.2802 72.975 52.4027 73.47C52.8977 75.4575 53.6352 77.3475 54.6777 79.1175C54.8027 79.3325 54.9352 79.4225 55.1852 79.3975C55.9927 79.3175 56.8027 79.2525 57.6127 79.18C58.7477 79.08 59.8852 78.9825 61.0177 78.875C61.2652 78.8525 61.3452 78.92 61.3127 79.1775C61.2627 79.56 61.2277 79.945 61.2302 80.33C61.2302 80.62 61.1427 80.72 60.8477 80.74C59.7527 80.815 58.6577 80.9 57.5677 81.02C57.0977 81.0725 56.6102 81.025 56.1202 81.2125C56.2277 81.355 56.3252 81.4575 56.3927 81.5775C56.6577 82.045 57.0152 82.1575 57.5602 82.0825C58.6877 81.93 59.8302 81.885 60.9652 81.78C61.2527 81.7525 61.3577 81.835 61.4102 82.13C61.5252 82.7775 61.7527 83.3975 62.0877 83.965C62.2777 84.2875 62.4002 84.6725 62.7727 84.8575C62.8402 85.0325 62.7952 85.17 62.6627 85.305C62.4552 85.52 62.2777 85.7675 62.0627 85.9725C61.8227 86.2025 61.8402 86.32 62.1402 86.4875C63.7177 87.365 65.3627 88.06 67.1152 88.5C67.8277 88.68 68.0677 88.57 68.3627 87.8675C68.0652 87.83 67.7677 87.8 67.4752 87.7525C66.8227 87.645 66.2077 87.435 65.6352 87.1025C65.5627 87.06 65.4677 87.0275 65.5352 86.915C65.5777 86.845 65.6502 86.8325 65.7227 86.86C65.7902 86.885 65.8527 86.92 65.9152 86.9525C67.0877 87.5525 68.3302 87.6725 69.6202 87.515C69.8927 87.4825 70.0127 87.3775 70.0077 87.0825C69.9902 86.3125 69.9777 85.54 70.0102 84.7725C70.0277 84.355 69.8852 84.255 69.4852 84.24C67.9952 84.19 66.8577 83.08 66.7152 81.605C66.6902 81.34 66.7552 81.2675 67.0202 81.2475C67.7877 81.195 68.5527 81.105 69.3177 81.0325C69.8011 80.9875 70.0286 80.7192 70.0002 80.2275C70.0002 80.185 69.9977 80.1425 69.9952 80.1C69.9902 79.975 69.9227 79.915 69.8002 79.9425C68.7552 80.16 67.5677 79.7525 66.6702 80.64C66.7827 77.5975 69.5227 74.505 72.3727 74.21C72.2452 74.5125 71.8802 74.6575 71.8852 75.0375C71.8952 75.8925 71.8927 76.75 71.8852 77.605C71.8852 77.8225 71.9427 77.91 72.1852 77.875C72.5652 77.8175 72.9502 77.795 73.3352 77.77C74.4077 77.695 74.4527 77.6525 74.5177 76.575C74.5177 76.5475 74.5177 76.5175 74.5202 76.49C74.5827 75.76 74.4827 75.0525 74.1977 74.3325C74.5902 74.405 74.8427 74.615 75.1202 74.7825C75.2177 74.84 75.3302 74.965 75.4077 74.9475C75.7402 74.865 75.8227 75.1125 75.9327 75.31C76.2477 75.8675 76.3877 76.475 76.3902 77.115C76.3902 77.3475 76.4152 77.5275 76.7452 77.49C77.5527 77.3925 78.3627 77.325 79.1702 77.255C79.3602 77.24 79.4502 77.1725 79.4727 76.9775C79.5577 76.2775 79.5477 75.58 79.4402 74.8875C79.2827 73.86 78.9227 72.9075 78.2602 72.085C78.1852 71.9925 78.0502 71.8825 78.2077 71.765C78.3827 71.6375 78.4177 71.845 78.4827 71.9275C78.8227 72.3525 79.0877 72.82 79.3002 73.325C79.5177 73.8425 79.5952 74.4 79.7702 75C81.7602 72.7325 83.7027 70.5225 85.6452 68.3125C85.6177 68.28 85.5902 68.2475 85.5627 68.215C85.4027 68.3625 85.2152 68.395 85.0152 68.4175C83.0327 68.63 81.0477 68.845 79.0677 69.0775C78.7227 69.1175 78.5727 69.0125 78.5327 68.675C78.5027 68.4225 78.4377 68.1725 78.3777 67.9225C78.3552 67.8325 78.3902 67.7 78.2677 67.665C78.1477 67.63 78.1002 67.7525 78.0377 67.8225C77.6302 68.28 77.2252 68.7425 76.8177 69.2025C76.6102 69.4375 76.4402 69.77 76.1777 69.8775C75.8652 70.005 75.6327 69.6 75.3327 69.4925C75.0327 69.3825 74.7652 69.155 74.3402 69.2025C74.7452 69.3925 75.0802 69.5425 75.4077 69.705C75.9177 69.96 76.0977 70.1 76.3027 70.3875C74.1827 69.65 72.1502 69.94 70.1752 70.8125C67.6402 71.935 65.7302 73.7675 64.3202 76.1275C63.4102 77.65 62.8427 79.295 62.6952 81.0725C62.5627 82.6825 62.8627 84.205 63.6827 85.66C63.2677 85.45 63.1152 85.035 62.7502 84.8625L62.7602 84.8675ZM42.5202 67.295C42.5202 67.295 42.5052 67.295 42.4977 67.295C42.4977 67.7925 42.5177 68.29 42.4902 68.7875C42.4727 69.07 42.5952 69.155 42.8377 69.2C44.3927 69.485 45.9427 69.7875 47.5002 70.06C47.8527 70.1225 48.0527 70.2325 48.0202 70.6225C47.9977 70.89 48.0877 70.985 48.3977 70.9425C49.2852 70.8225 50.1802 70.745 51.0727 70.6625C51.3477 70.6375 51.4452 70.56 51.4152 70.24C51.2377 68.36 51.2452 66.485 51.5602 64.615C52.3252 60.05 54.3852 56.1725 57.7977 53.0575C62.1602 49.0775 67.3702 47.3675 73.2302 47.6425C77.8302 47.86 81.9677 49.425 85.6502 52.18C88.7727 54.515 91.1477 57.46 92.7477 61.025C93.3877 62.45 93.8402 63.93 94.1877 65.4475C94.2177 65.5825 94.1877 65.8425 94.4002 65.7825C94.7577 65.68 95.1077 65.7725 95.4602 65.73C96.3227 65.6225 97.1852 65.525 98.0502 65.455C98.3577 65.43 98.4727 65.3475 98.3577 65.0425C98.1902 64.5975 98.3877 64.405 98.8052 64.24C100.665 63.515 102.508 62.75 104.36 62.0075C104.6 61.9125 104.69 61.82 104.59 61.5425C104.17 60.3925 103.773 59.2325 103.375 58.075C103.295 57.845 103.178 57.775 102.93 57.8225C100.858 58.2125 98.7827 58.585 96.7102 58.975C96.4602 59.0225 96.3302 58.975 96.2077 58.74C95.8102 57.9825 95.4077 57.2275 94.9577 56.5C94.7777 56.2075 94.8302 56.07 95.0577 55.865C96.6452 54.41 98.2177 52.935 99.8077 51.4825C100.06 51.2525 100.105 51.105 99.8652 50.8325C99.1102 49.975 98.3652 49.11 97.6552 48.2175C97.3852 47.875 97.1827 47.855 96.8227 48.0725C95.0152 49.165 93.1902 50.225 91.3827 51.3125C91.0827 51.4925 90.9002 51.5175 90.6202 51.2525C90.0427 50.705 89.4627 50.145 88.7952 49.705C88.5152 49.52 88.4977 49.3825 88.6402 49.095C89.5677 47.2325 90.4702 45.355 91.3977 43.4925C91.5427 43.2 91.5152 43.0525 91.2227 42.8925C90.1827 42.325 89.1502 41.7475 88.1302 41.1475C87.8302 40.97 87.6752 41.0175 87.4652 41.2825C86.1877 42.89 84.8877 44.4825 83.6052 46.0875C83.4352 46.3 83.2927 46.36 83.0302 46.255C82.2502 45.94 81.4677 45.6375 80.6727 45.36C80.3752 45.255 80.3327 45.085 80.3577 44.8125C80.5377 42.8525 80.6977 40.8925 80.8952 38.935C80.9302 38.5825 80.8202 38.4875 80.5102 38.44C79.3852 38.2625 78.2602 38.0775 77.1402 37.8675C76.7977 37.8025 76.6402 37.8675 76.5277 38.2275C75.9552 40.05 75.3477 41.86 74.7627 43.6775C74.6802 43.9325 74.5752 44.045 74.2852 44.03C73.5877 43.995 72.8877 44.0025 72.1877 43.995C71.3652 43.985 71.3877 43.98 71.1752 43.1825C70.7227 41.49 70.2427 39.805 69.7777 38.1175C69.7227 37.92 69.6402 37.85 69.4127 37.895C68.2977 38.1125 67.1802 38.335 66.0552 38.495C65.6427 38.555 65.5827 38.7225 65.6002 39.0775C65.6877 40.8425 65.7477 42.61 65.8477 44.375C65.8677 44.7375 65.7452 44.8725 65.4152 44.9575C64.4902 45.1925 63.5752 45.4675 62.7077 45.875C62.4252 46.0075 62.2852 45.94 62.1152 45.7C61.1152 44.275 60.0927 42.8675 59.0952 41.4425C58.9002 41.165 58.7502 41.1075 58.4477 41.295C57.5502 41.8475 56.6352 42.375 55.7152 42.895C55.4652 43.0375 55.4252 43.155 55.5377 43.4275C56.2127 45.045 56.8577 46.675 57.5252 48.295C57.6277 48.545 57.6252 48.7025 57.3777 48.86C56.7027 49.2925 56.1227 49.8475 55.5277 50.38C55.2902 50.5925 55.1477 50.5625 54.9177 50.3975C53.5477 49.4175 52.1677 48.4575 50.7977 47.4775C50.5502 47.3 50.4027 47.2975 50.2002 47.55C49.5702 48.3425 48.9227 49.12 48.2627 49.89C48.0702 50.115 48.0527 50.2525 48.2677 50.4875C49.3402 51.6725 50.3802 52.8825 51.4502 54.0675C51.7377 54.385 51.8802 54.6325 51.5927 55.055C51.1927 55.6425 50.8602 56.2775 50.5352 56.9125C50.3927 57.1875 50.2527 57.2275 49.9677 57.145C48.3977 56.6825 46.8177 56.2475 45.2452 55.7875C44.9602 55.7025 44.8402 55.765 44.7452 56.0425C44.4277 56.9725 44.0977 57.8975 43.7452 58.815C43.6277 59.12 43.6952 59.2625 43.9727 59.4175C45.4052 60.215 46.8227 61.0375 48.2527 61.84C48.5052 61.9825 48.6077 62.12 48.5052 62.4125C48.3027 62.9925 48.2402 63.6075 48.1377 64.21C47.9827 65.11 47.9877 65.095 47.0827 65.1425C45.7027 65.2125 44.3227 65.3175 42.9402 65.3825C42.5977 65.4 42.5102 65.53 42.5252 65.85C42.5502 66.3325 42.5327 66.8175 42.5327 67.3025L42.5202 67.295ZM54.5252 67.345C54.4852 67.8925 54.5927 68.5575 54.6227 69.2275C54.6352 69.4875 54.7227 69.6075 55.0202 69.57C56.3077 69.4125 57.5977 69.265 58.8877 69.135C59.1902 69.105 59.2602 68.98 59.2477 68.6975C59.2027 67.61 59.2827 66.525 59.5727 65.4775C60.7877 61.06 63.5752 58.125 67.9377 56.7C69.9927 56.0275 72.0777 55.555 74.2652 55.7425C78.1352 56.0725 81.2802 57.775 83.7202 60.78C84.8952 62.2275 85.6802 63.8825 86.1227 65.6925C86.1902 65.9725 86.3102 66.0775 86.5927 66.025C86.8177 65.985 87.0452 65.9675 87.2727 65.9425C88.9027 65.7625 90.5327 65.575 92.1627 65.4075C92.5277 65.37 92.6077 65.25 92.5052 64.8925C92.2877 64.14 92.0852 63.3875 91.8027 62.655C90.0927 58.2375 87.2052 54.7925 83.1977 52.2875C80.1577 50.3875 76.8452 49.3175 73.2577 49.1C70.9152 48.96 68.6377 49.175 66.4152 50.0225C59.2677 52.7475 54.5427 59.5475 54.5252 67.34V67.345ZM92.1502 84.065C92.1202 84.0575 92.0902 84.0475 92.0627 84.04C92.0052 84.1 91.9452 84.1575 91.8952 84.22C89.8252 86.785 87.3352 88.845 84.4227 90.3875C84.2027 90.5025 84.1152 90.6525 84.0802 90.88C83.8777 92.2025 83.6577 93.525 83.4602 94.8475C83.4102 95.18 83.3402 95.3375 82.9302 95.24C82.2402 95.075 81.5277 95 80.8252 94.8875C80.3627 94.8125 80.3477 94.825 80.3927 95.295C80.4677 96.0775 80.4652 96.0575 79.6602 96.1575C77.6102 96.41 75.5627 96.6825 73.5127 96.94C73.2502 96.9725 73.1552 97.0725 73.1927 97.3525C73.3577 98.5525 73.5052 99.755 73.6527 100.957C73.6827 101.2 73.8152 101.287 74.0452 101.317C74.5402 101.382 75.0277 101.495 75.5227 101.55C76.3552 101.638 77.1652 101.93 78.0202 101.805C78.9652 101.668 79.9127 101.555 80.8577 101.42C81.1002 101.385 81.2027 101.472 81.2252 101.7C81.2377 101.827 81.2552 101.955 81.2627 102.082C81.2802 102.352 81.3702 102.497 81.6852 102.545C84.0227 102.905 86.3552 103.285 88.6877 103.675C88.9152 103.713 89.0052 103.655 89.0402 103.448C89.1052 103.04 89.1702 102.632 89.2402 102.225C89.2902 101.938 89.1877 101.915 88.9452 102.018C88.6102 102.16 88.2527 102.173 87.8927 102.125C87.4902 102.073 87.6377 101.743 87.5977 101.518C87.5477 101.238 87.7752 101.33 87.9102 101.327C88.6227 101.308 88.9527 100.817 88.6977 100.147C88.2827 99.055 87.8827 97.9575 87.4477 96.8725C87.2952 96.4925 87.3877 96.39 87.7627 96.445C87.8327 96.455 87.9077 96.4575 87.9752 96.445C88.3027 96.3875 88.4502 96.5275 88.5427 96.845C88.7427 97.5275 88.9852 98.2 89.2127 98.875C89.2552 98.9975 89.2652 99.1425 89.4327 99.255C89.6577 98.5975 89.9052 97.99 90.0127 97.345C90.3602 95.265 90.6877 93.1825 91.0327 91.1025C91.1877 90.17 91.5677 89.19 90.3727 88.6125C90.1402 88.5 90.1977 88.3475 90.3477 88.1775C90.7527 87.7175 91.1452 87.245 91.5427 86.7775C91.6452 86.6575 91.7552 86.5375 91.7827 86.38C91.9102 85.61 92.0302 84.8375 92.1527 84.0675L92.1502 84.065ZM64.0652 69.21C64.1977 68.565 64.1852 67.9675 64.2902 67.38C64.9977 63.4575 68.6127 60.7775 72.6577 61.3275C76.1802 61.8075 78.5102 63.8 79.6352 67.18C79.7102 67.405 79.7952 67.51 80.0527 67.48C81.1002 67.355 82.1502 67.2525 83.1977 67.1375C83.6777 67.085 83.6952 67.055 83.5502 66.5725C83.4852 66.355 83.4152 66.1375 83.3452 65.92C82.3952 63.01 80.5402 60.82 77.9277 59.285C75.6127 57.925 73.1002 57.3825 70.4127 57.6875C68.3527 57.92 66.4727 58.6175 64.8427 59.8875C61.9252 62.1575 60.4977 65.1675 60.5402 68.8675C60.5452 69.3642 60.7886 69.5925 61.2702 69.5525C61.4527 69.5375 61.7127 69.5725 61.7902 69.425C61.8852 69.245 61.6352 69.12 61.5227 68.9925C61.3227 68.765 61.2927 68.61 61.5727 68.42C61.8527 68.2275 62.1152 68.0025 62.3602 67.7625C62.5802 67.5475 62.7152 67.5775 62.8977 67.81C63.2752 68.2875 63.6777 68.745 64.0702 69.21H64.0652ZM59.7377 88.645C59.7502 88.8075 59.8627 88.86 59.9477 88.9325C60.9702 89.8025 61.9902 90.6725 63.0202 91.53C63.2177 91.695 63.2377 91.7925 63.0602 91.9925C62.5302 92.5875 62.0102 93.1975 61.5127 93.8225C61.3177 94.07 61.2027 94.0425 60.9877 93.855C60.0627 93.05 59.1202 92.2625 58.1852 91.47C57.6327 91.0025 57.6452 91.015 57.1577 91.545C56.9402 91.78 56.9477 91.9025 57.1977 92.11C58.2327 92.9625 59.2427 93.845 60.2777 94.7C60.5102 94.8925 60.5202 95.005 60.3177 95.23C59.7752 95.835 59.2502 96.4575 58.7402 97.09C58.5652 97.3075 58.4677 97.285 58.2727 97.1175C57.3127 96.285 56.3402 95.47 55.3702 94.65C54.8352 94.195 54.8552 94.2175 54.3727 94.705C54.0802 95 54.1727 95.14 54.4402 95.3625C55.4852 96.225 56.5152 97.1075 57.5477 97.9875C57.6527 98.0775 57.8602 98.1525 57.6702 98.345C57.3877 98.63 57.5802 98.655 57.8377 98.6975C59.5952 98.975 61.3527 99.26 63.1102 99.545C65.4577 99.925 67.8052 100.307 70.1527 100.692C70.3902 100.732 70.5027 100.708 70.4577 100.423C70.3552 99.7475 70.2727 99.0675 70.1852 98.39C70.0277 97.175 69.8777 95.96 69.7127 94.745C69.6727 94.445 69.7427 94.325 70.0777 94.2875C71.2502 94.16 72.4177 93.9925 73.5877 93.8375C73.5927 93.805 73.5952 93.77 73.6002 93.7375C70.6227 93.255 67.6452 92.7725 64.6027 92.28C64.7652 92.0925 64.8802 91.95 65.0052 91.82C65.1827 91.6375 65.2277 91.5275 64.9277 91.4075C63.2227 90.7325 61.6302 89.85 60.1352 88.7875C60.0302 88.7125 59.9352 88.5725 59.7402 88.6475L59.7377 88.645ZM90.2727 73.7125C89.9377 74.225 89.6427 74.7275 89.2952 75.195C89.0752 75.4925 89.0577 75.7175 89.2902 76.02C89.4552 76.2375 89.6077 76.355 89.8852 76.3175C90.2377 76.2725 90.5952 76.245 90.9502 76.2225C91.1502 76.21 91.2477 76.1125 91.3152 75.9275C91.9352 74.2625 92.3127 72.545 92.5002 70.78C92.6152 69.7125 92.4577 68.6025 92.9652 67.59C93.0577 67.4075 92.9327 67.2275 92.9302 67.045C92.9252 66.8025 92.7902 66.7725 92.5902 66.795C91.1177 66.9625 89.6452 67.1275 88.1727 67.285C87.9727 67.3075 87.8702 67.3725 87.8377 67.585C87.5352 69.4975 87.2227 71.41 86.9077 73.32C86.8652 73.58 86.9402 73.7175 87.2127 73.6575C87.6602 73.56 87.8852 73.8075 88.0852 74.15C88.2252 74.39 88.3527 74.6525 88.6052 74.855C88.7402 74.655 88.8977 74.4825 88.9877 74.2775C89.2352 73.72 89.6377 73.5275 90.2752 73.71L90.2727 73.7125ZM56.3827 98.3175C56.2827 98.2275 56.2027 98.15 56.1177 98.0775C54.4202 96.6375 52.7252 95.195 51.0227 93.7625C50.8177 93.59 50.7702 93.4825 50.9652 93.2625C51.5052 92.655 52.0277 92.0325 52.5377 91.4C52.7152 91.18 52.8177 91.18 53.0352 91.365C54.6377 92.74 56.2527 94.1 57.8652 95.465C58.4202 95.935 58.4027 95.9175 58.8877 95.3875C59.1327 95.12 59.0952 94.995 58.8252 94.77C57.1252 93.355 55.4477 91.915 53.7577 90.49C53.5727 90.335 53.5127 90.24 53.7052 90.0275C54.2402 89.435 54.7602 88.8275 55.2527 88.2C55.4677 87.925 55.5927 87.9775 55.8202 88.17C57.4127 89.535 59.0152 90.89 60.6152 92.245C61.1502 92.6975 61.1402 92.6825 61.6277 92.155C61.8452 91.9175 61.8277 91.7925 61.5827 91.585C59.6152 89.935 57.6527 88.275 55.7052 86.6025C55.4302 86.365 55.2927 86.39 55.0677 86.6575C53.2002 88.8875 51.3227 91.1125 49.4327 93.325C49.2077 93.5875 49.2427 93.715 49.4902 93.925C51.4452 95.5675 53.3877 97.225 55.3402 98.8725C55.4477 98.9625 55.5627 99.185 55.7227 99.045C55.9652 98.835 56.1577 98.5675 56.3852 98.3125L56.3827 98.3175ZM83.8152 81.5825C81.8177 81.7625 79.9327 81.9375 78.0452 82.0975C77.8402 82.115 77.7502 82.2325 77.6452 82.37C77.3177 82.8 77.0102 83.25 76.6477 83.6475C76.4277 83.8875 76.4677 84.03 76.6552 84.25C77.5777 85.335 78.4877 86.43 79.3977 87.5275C79.5577 87.72 79.7102 87.765 79.9502 87.66C81.1002 87.1575 82.2177 86.5925 83.2752 85.915C83.4627 85.795 83.5527 85.65 83.5852 85.4375C83.7602 84.2975 83.9152 83.155 84.1327 82.0225C84.2202 81.575 84.0627 81.5275 83.8177 81.58L83.8152 81.5825ZM72.2527 104.688C73.4802 104.53 74.6202 104.385 75.7602 104.235C77.1827 104.048 78.6027 103.843 80.0277 103.675C80.4077 103.63 80.4777 103.47 80.4027 103.15C80.3827 103.068 80.3527 102.982 80.3577 102.897C80.3727 102.558 80.2177 102.518 79.9077 102.558C77.7927 102.835 75.6727 103.09 73.5577 103.355C72.9927 103.425 72.9702 103.435 72.8952 102.857C72.6127 100.7 72.3502 98.5375 72.0677 96.38C72.0302 96.0875 72.2227 96.125 72.3777 96.105C74.4652 95.8375 76.5527 95.58 78.6377 95.31C79.4052 95.21 79.4677 95.085 79.2527 94.3225C79.2027 94.1425 79.1252 94.1025 78.9552 94.125C78.0677 94.2425 77.1752 94.35 76.2877 94.465C74.6102 94.6825 72.9327 94.9075 71.2552 95.12C70.7952 95.1775 70.7477 95.2275 70.8102 95.68C71.0702 97.58 71.3252 99.4775 71.5752 101.378C71.7002 102.335 71.8027 103.298 71.9352 104.255C71.9627 104.462 71.9302 104.802 72.2552 104.685L72.2527 104.688ZM39.0627 78.7525C39.0627 78.58 39.2002 78.53 39.2977 78.4575C41.0602 77.15 42.8302 75.8525 44.5877 74.5375C44.8427 74.3475 44.9552 74.3575 45.1477 74.62C46.3902 76.325 47.6527 78.015 48.9077 79.71C49.3152 80.26 49.3052 80.2475 49.8827 79.8425C50.1302 79.67 50.1977 79.56 49.9927 79.285C48.4402 77.2075 46.8977 75.12 45.3652 73.025C45.1877 72.785 45.0652 72.7625 44.8277 72.9375C42.4852 74.6825 40.1427 76.4275 37.7827 78.15C37.4427 78.3975 37.4752 78.5475 37.6977 78.8425C39.1652 80.805 40.6177 82.7825 42.0727 84.755C42.4802 85.3075 42.4602 85.28 43.0477 84.9C43.3977 84.6725 43.3227 84.5125 43.1202 84.2425C41.8227 82.5075 40.5402 80.76 39.2552 79.0175C39.1877 78.9275 39.1227 78.8325 39.0652 78.75L39.0627 78.7525ZM101.323 91.305C101.43 91.3125 101.455 91.29 101.743 90.9425C102.036 90.5875 102.005 90.26 101.65 89.96C99.8777 88.46 98.1077 86.9525 96.3277 85.4625C96.0627 85.24 95.9827 85.1075 96.2552 84.8075C96.9277 84.0725 97.5552 83.2925 98.2002 82.5325C98.7402 81.895 98.7302 81.905 98.0952 81.3625C97.8577 81.16 97.7352 81.155 97.5227 81.4075C95.7852 83.485 94.0327 85.55 92.2852 87.6175C91.6952 88.315 91.7052 88.305 92.3877 88.8775C92.5952 89.0525 92.7027 89.0275 92.8652 88.8325C93.5302 88.0325 94.2202 87.2525 94.8752 86.445C95.0902 86.18 95.2102 86.13 95.4977 86.3775C97.3427 87.97 99.2102 89.5375 101.07 91.1125C101.155 91.185 101.248 91.2525 101.32 91.3075L101.323 91.305ZM79.7202 77.145C80.2827 77.22 80.7177 77.115 81.1552 77.08C82.3052 76.9875 83.4527 76.8725 84.6027 76.7825C84.8952 76.76 85.0052 76.635 85.0502 76.345C85.2552 74.98 85.4852 73.6175 85.7027 72.255C85.8177 71.54 85.9227 70.8225 86.0352 70.105C86.0027 70.0925 85.9702 70.0775 85.9377 70.065C83.8852 72.4025 81.8302 74.74 79.7202 77.145ZM71.8902 88.02C71.8902 88.3875 71.9002 88.63 71.8877 88.8725C71.8752 89.0975 71.9702 89.165 72.1877 89.165C73.9752 89.165 75.7327 88.94 77.4602 88.4875C77.7377 88.415 77.7477 88.34 77.5702 88.135C76.8127 87.2475 76.0627 86.355 75.3227 85.45C75.1327 85.2175 75.0102 85.26 74.8077 85.4275C74.1652 85.9475 73.4927 86.4425 72.7277 86.7525C72.0602 87.0225 71.6677 87.38 71.8902 88.0225V88.02ZM93.2052 76.21C93.2052 76.425 93.1902 76.585 93.2102 76.7375C93.2252 76.8525 93.1677 77.0225 93.3352 77.065C93.4852 77.1025 93.5552 76.965 93.6302 76.8625C94.3477 75.895 94.7402 74.79 94.9952 73.6275C95.2927 72.2725 95.2902 70.8825 95.4752 69.5125C95.5602 68.88 95.3052 68.3425 94.9252 67.855C94.7277 67.6 94.6027 67.605 94.4702 67.9375C94.0577 68.9725 93.9327 70.0575 93.8402 71.15C93.7852 71.8025 93.8277 72.47 93.7102 73.11C93.5177 74.16 93.3527 75.2125 93.2027 76.21H93.2052ZM73.2477 83.0375C72.7977 83.3175 72.3527 83.59 71.9177 83.875C71.8802 83.9 71.8952 84.01 71.8952 84.08C71.8952 84.905 71.8977 85.73 71.8927 86.555C71.8927 86.7925 71.9527 86.8575 72.1902 86.7525C73.1027 86.3425 73.9352 85.805 74.7277 85.195C74.8977 85.0625 74.9202 84.955 74.7702 84.7825C74.3227 84.2675 73.8902 83.74 73.4477 83.22C73.3952 83.1575 73.3252 83.1075 73.2502 83.0375H73.2477ZM79.4177 80.165C80.9952 80.025 82.6277 79.88 84.2577 79.74C84.4277 79.725 84.5177 79.6625 84.5377 79.4875C84.5527 79.3325 84.5877 79.1775 84.6177 79.025C84.6777 78.73 84.6452 78.6025 84.2602 78.645C82.8452 78.8 81.4252 78.91 80.0052 79.0225C79.2902 79.08 79.2902 79.065 79.0502 79.72C78.9369 80.0317 79.0594 80.1808 79.4177 80.1675V80.165ZM56.8452 73.9525C56.8827 73.965 56.9227 73.9775 56.9602 73.99C57.7627 73.09 58.5727 72.195 59.3652 71.285C59.5527 71.07 59.4677 70.785 59.3752 70.555C59.2927 70.3525 59.0702 70.46 58.9127 70.475C58.2477 70.54 57.5852 70.6325 56.9227 70.6975C56.7252 70.7175 56.6477 70.785 56.6602 70.985C56.7252 71.9725 56.7827 72.9625 56.8427 73.9525H56.8452ZM85.1152 84.555C86.3777 83.5275 87.4177 82.4625 88.3802 81.185C87.4627 81.2675 86.6477 81.3475 85.8302 81.41C85.6052 81.4275 85.5877 81.58 85.5627 81.73C85.4152 82.625 85.2777 83.52 85.1152 84.5575V84.555ZM86.3152 79.555C87.3502 79.4675 88.3827 79.3775 89.4177 79.295C89.6227 79.28 89.7627 79.1975 89.8552 79.0125C89.9577 78.81 90.0752 78.615 90.1902 78.4175C90.3177 78.195 90.3277 78.1 90.0027 78.135C88.9277 78.2475 87.8527 78.3375 86.7752 78.4175C86.0752 78.47 86.0802 78.4575 85.9702 79.1575C85.9252 79.445 85.9377 79.65 86.3152 79.555ZM82.3027 92.9325C81.9677 93.375 81.7727 93.1675 81.5727 92.905C81.3827 92.6575 81.1552 92.435 80.9727 92.1825C80.8327 91.9875 80.7002 91.9625 80.4702 92.0275C79.7202 92.2425 78.9602 92.4275 78.2027 92.6175C78.0227 92.6625 77.8402 92.69 77.6577 92.715C77.4752 92.74 77.2927 92.76 77.0927 92.88C78.0302 93.0675 78.9052 93.25 79.8052 93.025C79.9202 92.9975 80.0952 92.9575 80.1152 93.1425C80.1452 93.4275 80.3402 93.4175 80.5427 93.445C80.9077 93.495 81.2727 93.56 81.6377 93.6175C82.3177 93.725 82.3202 93.7225 82.3027 92.9275V92.9325ZM75.5227 80.4925C76.3552 80.4225 77.1302 80.3675 77.9027 80.285C78.6477 80.205 78.6777 80.15 78.8952 79.4325C78.9802 79.15 78.8952 79.12 78.6452 79.145C77.8652 79.225 77.0852 79.29 76.3027 79.36C76.1752 79.3725 76.0377 79.3575 75.9702 79.5025C75.8277 79.81 75.6902 80.12 75.5227 80.495V80.4925ZM86.9377 73.8125C86.9052 73.825 86.8727 73.835 86.8402 73.8475C86.7377 74.4875 86.6427 75.13 86.5277 75.7675C86.3702 76.655 86.4202 76.71 87.3002 76.5425C87.5802 76.49 88.1552 75.715 88.0327 75.5075C87.6877 74.93 87.3052 74.375 86.9352 73.81L86.9377 73.8125ZM77.4777 82.15C76.7477 82.21 76.1002 82.2625 75.4502 82.315C75.1727 82.3375 75.1377 82.4325 75.3277 82.6425C75.5827 82.9275 75.8227 83.2275 76.0627 83.525C76.1852 83.68 76.2852 83.7125 76.4302 83.545C76.7902 83.1275 77.1502 82.7125 77.4777 82.15ZM47.4377 51.4825C47.4052 51.5 47.3752 51.515 47.3427 51.5325C47.3752 52.0975 47.4127 52.66 47.4427 53.225C47.4527 53.415 47.5577 53.47 47.7252 53.4425C48.0602 53.385 48.3927 53.3225 48.7277 53.265C48.9052 53.235 48.9002 53.145 48.8027 53.035C48.3502 52.5175 47.8952 52.0025 47.4402 51.485L47.4377 51.4825ZM60.6652 83.73C60.6502 83.695 60.6352 83.6575 60.6202 83.6225C59.9527 83.68 59.2827 83.735 58.5477 83.7975C58.8627 84.205 59.2077 84.4475 59.5377 84.7075C59.6527 84.8 59.7377 84.775 59.8277 84.6725C60.1052 84.3575 60.3877 84.0425 60.6677 83.73H60.6652ZM47.2002 49.075C47.6277 48.5575 47.9777 48.1375 48.3202 47.7125C48.4677 47.53 48.3302 47.5025 48.1802 47.505C47.9127 47.51 47.6427 47.5225 47.3752 47.525C47.1577 47.525 47.0727 47.6275 47.0927 47.8425C47.1302 48.205 47.1577 48.57 47.2002 49.075ZM98.4527 44.75C98.1477 44.9375 97.6177 45.5425 97.4977 45.84C98.1211 45.675 98.4394 45.3117 98.4527 44.75ZM70.0002 88.38C69.9677 88.3675 69.9352 88.3575 69.9027 88.345C69.7927 88.465 69.6777 88.5825 69.5702 88.705C69.5127 88.7725 69.3777 88.8625 69.4652 88.9375C69.5452 89.0075 69.7002 88.99 69.8252 89.0075C69.9577 89.025 69.9977 88.9475 69.9977 88.8325C69.9977 88.6825 69.9977 88.53 69.9977 88.38H70.0002Z" fill="#E6E6E6"/>
<path d="M108.428 79.595C108.17 80.6475 107.94 81.595 107.71 82.5425C107.583 83.0675 107.453 83.5925 107.333 84.1175C107.285 84.32 107.24 84.41 106.975 84.3525C105.883 84.1075 105.883 84.1225 106.143 83.0525C106.625 81.0625 107.105 79.075 107.573 77.0825C107.648 76.765 107.77 76.725 108.083 76.76C108.873 76.8475 109.25 77.2375 109.458 78.0225C109.828 79.42 110.338 80.7825 110.79 82.1575C110.833 82.285 110.845 82.4275 111.013 82.58C111.185 81.885 111.35 81.2325 111.51 80.58C111.713 79.7525 111.923 78.9275 112.103 78.095C112.165 77.8125 112.26 77.775 112.535 77.84C113.548 78.085 113.545 78.07 113.303 79.08C112.833 81.0425 112.36 83.005 111.908 84.9725C111.818 85.365 111.708 85.46 111.265 85.3975C110.513 85.29 110.165 84.935 109.96 84.2175C109.56 82.8125 109.06 81.4375 108.6 80.05C108.563 79.9325 108.513 79.82 108.428 79.5975V79.595Z" fill="#E6E6E6"/>
<path d="M111.485 73.665C111.428 75.435 110.115 76.4175 108.595 76.045C108.043 75.91 107.483 75.795 106.935 75.64C106.658 75.56 106.56 75.6325 106.493 75.905C106.315 76.6225 106.1 77.33 105.915 78.0475C105.858 78.275 105.783 78.3275 105.538 78.2675C104.363 77.9775 104.36 77.9875 104.68 76.825C105.215 74.8775 105.753 72.9325 106.278 70.9825C106.353 70.7 106.425 70.58 106.753 70.6825C107.828 71.0125 108.92 71.285 109.99 71.6275C110.993 71.9475 111.503 72.685 111.488 73.67L111.485 73.665ZM108.72 74.7725C109.368 74.7775 109.748 74.4825 109.898 73.9375C110.025 73.465 109.833 73.03 109.343 72.775C108.835 72.51 108.273 72.405 107.725 72.2575C107.548 72.21 107.478 72.2825 107.433 72.4575C107.295 73.0075 107.145 73.555 106.983 74.0975C106.938 74.2525 106.953 74.3425 107.113 74.3875C107.673 74.54 108.228 74.7225 108.72 74.7725Z" fill="#E6E6E6"/>
<path d="M104.405 73.4725C104.098 74.835 103.793 76.18 103.488 77.525C103.27 78.48 103.04 79.435 102.835 80.3925C102.78 80.65 102.675 80.7175 102.43 80.6525C102.155 80.5775 101.875 80.525 101.598 80.465C101.385 80.42 101.288 80.335 101.348 80.0825C101.875 77.8275 102.393 75.5675 102.9 73.3075C102.965 73.0175 103.055 72.93 103.355 73.0375C103.633 73.1375 103.935 73.1725 104.228 73.235C104.37 73.265 104.48 73.31 104.408 73.4725H104.405Z" fill="#E6E6E6"/>
</g>
<defs>
<clipPath id="clip0_976_767">
<rect width="89.9375" height="100" fill="white" transform="translate(30 25)"/>
</clipPath>
</defs>
</svg>
