<svg width="25" height="25" viewBox="0 0 25 25" fill="none" xmlns="http://www.w3.org/2000/svg">
<path d="M12.5 2.74219C11.1868 2.74219 9.88642 3.00085 8.67317 3.50339C7.45991 4.00594 6.35752 4.74253 5.42893 5.67112C3.55357 7.54648 2.5 10.09 2.5 12.7422C2.5 17.1622 5.37 20.9122 9.34 22.2422C9.84 22.3222 10 22.0122 10 21.7422V20.0522C7.23 20.6522 6.64 18.7122 6.64 18.7122C6.18 17.5522 5.53 17.2422 5.53 17.2422C4.62 16.6222 5.6 16.6422 5.6 16.6422C6.6 16.7122 7.13 17.6722 7.13 17.6722C8 19.1922 9.47 18.7422 10.04 18.5022C10.13 17.8522 10.39 17.4122 10.67 17.1622C8.45 16.9122 6.12 16.0522 6.12 12.2422C6.12 11.1322 6.5 10.2422 7.15 9.53219C7.05 9.28219 6.7 8.24219 7.25 6.89219C7.25 6.89219 8.09 6.62219 10 7.91219C10.79 7.69219 11.65 7.58219 12.5 7.58219C13.35 7.58219 14.21 7.69219 15 7.91219C16.91 6.62219 17.75 6.89219 17.75 6.89219C18.3 8.24219 17.95 9.28219 17.85 9.53219C18.5 10.2422 18.88 11.1322 18.88 12.2422C18.88 16.0622 16.54 16.9022 14.31 17.1522C14.67 17.4622 15 18.0722 15 19.0022V21.7422C15 22.0122 15.16 22.3322 15.67 22.2422C19.64 20.9022 22.5 17.1622 22.5 12.7422C22.5 11.429 22.2413 10.1286 21.7388 8.91535C21.2362 7.7021 20.4997 6.59971 19.5711 5.67112C18.6425 4.74253 17.5401 4.00594 16.3268 3.50339C15.1136 3.00085 13.8132 2.74219 12.5 2.74219Z" fill="#000"/>
</svg>
