<svg width="25" height="25" viewBox="0 0 25 25" fill="none" xmlns="http://www.w3.org/2000/svg">
<path d="M13.5876 10.6523C14.2965 7.85398 12.5013 5.5312 9.57813 5.49108C7.69672 5.46433 5.81532 5.48216 3.9354 5.48514C2.79704 5.48662 2.50279 5.78533 2.50279 6.94003C2.50131 10.578 2.50279 14.216 2.50279 17.854C2.50279 18.0278 2.49091 18.2032 2.51617 18.3726C2.59345 18.9002 2.8981 19.2271 3.4331 19.2866C3.96215 19.346 4.33813 19.1246 4.5343 18.6119C4.6621 18.279 4.65913 17.9342 4.65913 17.588C4.65913 14.5192 4.6725 11.4504 4.65021 8.38155C4.64575 7.71429 4.87759 7.43342 5.55376 7.44976C6.93881 7.48246 8.32683 7.44382 9.71039 7.4988C10.9349 7.54785 11.5903 8.33399 11.5725 9.61056C11.5576 10.6924 10.8383 11.3835 9.65541 11.4236C9.01192 11.4459 8.36844 11.4444 7.72496 11.4236C7.18402 11.4073 6.75156 11.5469 6.51527 12.079C6.28493 12.5976 6.53608 12.9944 6.85708 13.354C8.50516 15.1998 10.1562 17.0426 11.8207 18.8749C12.314 19.4188 12.9397 19.4634 13.3944 19.0428C13.8388 18.6312 13.8551 18.0695 13.4227 17.5166C13.2562 17.3026 13.0586 17.1124 12.8773 16.9088C11.8905 15.8076 10.9037 14.7049 9.84117 13.5175C10.2707 13.4194 10.5619 13.3689 10.8443 13.2872C12.216 12.8874 13.2235 12.0953 13.5891 10.6523H13.5876Z" fill="#333334"/>
<path d="M22.0272 5.65776C21.6869 5.5686 21.3763 5.65033 21.192 5.97282C21.0716 6.18533 20.9884 6.42162 20.9082 6.65494C19.6257 10.4207 18.3476 14.188 17.0681 17.9567C16.9893 18.1901 16.9061 18.4249 16.8526 18.6656C16.7709 19.0297 16.9224 19.3017 17.2524 19.4518C17.5897 19.6048 17.8988 19.5068 18.1054 19.217C18.2466 19.0208 18.3357 18.7815 18.416 18.5497C19.7133 14.7631 21.0077 10.9736 22.2992 7.18548C22.3868 6.92987 22.4507 6.66534 22.4983 6.50187C22.5161 6.03969 22.3972 5.75585 22.0257 5.65925L22.0272 5.65776Z" fill="#F08A3A"/>
</svg>
