<svg width="25" height="25" viewBox="0 0 25 25" fill="none" xmlns="http://www.w3.org/2000/svg">
<path d="M11.9169 2.5C9.50927 2.63709 7.2326 3.64079 5.50739 5.32572C3.78217 7.01065 2.72496 9.26297 2.53104 11.6667C2.4903 12.2215 2.4903 12.7785 2.53104 13.3333C2.72556 15.7407 3.78597 17.9959 5.51584 19.6814C7.2457 21.3668 9.52779 22.3682 11.9394 22.5H13.061C15.5185 22.3515 17.8356 21.305 19.5718 19.5596C21.308 17.8141 22.3422 15.4915 22.4777 13.0333C22.5067 12.5616 22.5067 12.0884 22.4777 11.6167C22.2604 9.22121 21.1904 6.98335 19.4624 5.31022C17.7343 3.6371 15.4631 2.63988 13.0619 2.5L11.9169 2.5ZM15.0002 7.925L17.4919 9.375C17.4919 9.375 12.4385 12.075 12.4219 12.075C12.4052 12.075 7.34354 9.39167 7.33354 9.38333L9.82854 7.90833L12.3219 6.44167L15.0002 7.925ZM9.60354 12.1967L11.6669 13.3333V18.2667L9.56104 17.1L7.51104 15.9083V11.1083L9.60354 12.1967ZM17.4877 13.5067V15.9433L15.4169 17.145L13.3335 18.3475V13.3275L15.4077 12.2067L17.491 11.0775L17.4877 13.5067Z" fill="#1AAAD9"/>
</svg>
