<svg width="25" height="25" viewBox="0 0 25 25" fill="none" xmlns="http://www.w3.org/2000/svg">
<path d="M3.33 2.5C3.11001 2.50044 2.89915 2.58803 2.74359 2.74359C2.58803 2.89915 2.50044 3.11001 2.5 3.33V12.5C2.5 18.0233 6.97667 22.5 12.5 22.5C18.0233 22.5 22.5 18.0233 22.5 12.5C22.5 6.97667 18.0233 2.5 12.5 2.5H3.33ZM12.6383 5.485C14.4798 5.50238 16.2389 6.25048 17.5288 7.56477C18.8187 8.87906 19.5338 10.6519 19.5167 12.4933C19.4988 14.3345 18.7506 16.0932 17.4363 17.3827C16.1221 18.6723 14.3495 19.3871 12.5083 19.37C8.6775 19.3325 5.595 16.195 5.63 12.3617C5.6675 8.52833 8.805 5.44833 12.6383 5.485ZM12.6125 7.37667C11.2646 7.36601 9.96756 7.89051 9.00595 8.83509C8.04435 9.77966 7.49675 11.0671 7.48333 12.415C7.47134 13.7645 7.99566 15.0635 8.94105 16.0265C9.88644 16.9896 11.1755 17.5379 12.525 17.5508C13.1927 17.5569 13.855 17.4313 14.4741 17.1813C15.0932 16.9313 15.657 16.5618 16.1332 16.0938C16.6095 15.6258 16.9889 15.0686 17.2497 14.454C17.5105 13.8393 17.6477 13.1793 17.6533 12.5117C17.6656 11.1635 17.1423 9.86556 16.1985 8.90281C15.2546 7.94006 13.9673 7.39118 12.6192 7.37667H12.6125ZM12.5958 9.8875C13.2791 9.8952 13.9314 10.1735 14.4099 10.6613C14.8883 11.1491 15.1539 11.8067 15.1483 12.49C15.1453 12.8283 15.0756 13.1627 14.9432 13.474C14.8107 13.7853 14.6182 14.0675 14.3767 14.3043C14.1351 14.5412 13.8492 14.728 13.5353 14.8543C13.2215 14.9805 12.8858 15.0436 12.5475 15.04L12.5492 15.0392C11.866 15.033 11.2133 14.7557 10.7346 14.2682C10.2559 13.7808 9.99048 13.1232 9.99667 12.44C10.0029 11.7568 10.2802 11.1041 10.7676 10.6254C11.255 10.1468 11.9127 9.88131 12.5958 9.8875Z" fill="#F26F61"/>
</svg>
