<svg width="150" height="150" viewBox="0 0 150 150" fill="none" xmlns="http://www.w3.org/2000/svg">
<path d="M122.68 92.0878C122.598 92.0878 122.513 92.0897 122.426 92.0935C121.263 92.1469 120.548 92.756 120.327 93.9085C120.141 94.8798 120.148 95.8562 120.336 96.8255C120.501 97.6792 120.971 98.2752 121.87 98.4256C122.336 98.5038 122.814 98.501 123.283 98.4167C124.031 98.2822 124.515 97.8362 124.771 97.1263C124.842 96.9282 124.827 96.6967 124.998 96.5374C124.998 95.6927 124.998 94.847 125 94.0022C124.832 93.9615 124.898 93.8083 124.869 93.7089C124.533 92.5643 123.906 92.0888 122.68 92.0869V92.0878ZM122.585 93.194C123.055 93.1879 123.228 93.5089 123.302 93.9001C123.48 94.8526 123.479 95.8084 123.292 96.7609C123.215 97.1488 123.004 97.4253 122.585 97.4234C122.185 97.4215 121.992 97.1362 121.904 96.7848C121.78 96.2905 121.781 95.7836 121.756 95.144C121.785 94.824 121.799 94.3667 121.878 93.9202C121.944 93.5431 122.112 93.1992 122.585 93.1945V93.194Z" fill="#E6E6E6"/>
<path d="M107.711 92.7987C108.829 91.7928 110.019 91.8855 110.677 92.9631C111.094 92.2355 111.743 92.0036 112.526 92.1226C113.249 92.2327 113.694 92.7219 113.713 93.5394C113.751 95.0584 113.728 96.5792 113.729 98.0981C113.729 98.1487 113.745 98.2317 113.722 98.2448C113.289 98.4912 112.819 98.3169 112.367 98.3549C112.042 98.3816 112.162 98.1042 112.161 97.952C112.151 96.7699 112.155 95.5873 112.155 94.4053C112.155 94.2539 112.149 94.1012 112.14 93.9499C112.116 93.613 111.98 93.3459 111.61 93.3211C111.261 93.2972 110.994 93.4509 110.848 93.7906C110.764 93.9855 110.771 94.1855 110.771 94.3874C110.769 95.5695 110.761 96.7521 110.776 97.9332C110.78 98.2382 110.734 98.3718 110.374 98.3718C109.163 98.369 109.162 98.3858 109.162 97.1864C109.162 96.1566 109.159 95.1258 109.164 94.096C109.166 93.7058 109.081 93.3792 108.627 93.3169C108.236 93.2635 107.914 93.5258 107.818 93.9864C107.686 94.6212 107.774 95.2659 107.762 95.9055C107.747 96.6143 107.746 97.3246 107.764 98.0335C107.772 98.3038 107.681 98.3633 107.422 98.369C106.201 98.3966 106.201 98.4046 106.201 97.1934C106.201 95.7073 106.212 94.2207 106.193 92.7354C106.188 92.3798 106.244 92.1929 106.65 92.2571C106.849 92.2889 107.058 92.2828 107.258 92.258C107.612 92.2144 107.814 92.3096 107.71 92.7987H107.711Z" fill="#E6E6E6"/>
<path d="M55.6298 90.2573C55.2897 90.2634 55.1913 90.382 55.195 90.7577C55.2147 92.971 55.2049 95.1838 55.2049 97.3971C55.2049 98.3618 55.2049 98.3468 56.1813 98.3684C56.5458 98.3763 56.826 98.3665 56.7416 97.8624C58.0062 99.0585 59.6915 98.4485 59.8967 96.7C60.0147 95.6908 60.0166 94.6891 59.847 93.6799C59.5804 92.0944 57.9556 91.5739 56.796 92.7185V91.371C56.796 90.2629 56.796 90.2817 55.7006 90.2578C55.6758 90.2573 55.6519 90.2573 55.6294 90.2578L55.6298 90.2573ZM57.5845 93.3149C57.5967 93.3149 57.6089 93.3149 57.6211 93.3149C58.0193 93.3266 58.218 93.5923 58.2915 93.9544C58.3815 94.4019 58.4293 94.8535 58.3993 95.3099C58.426 95.7662 58.3866 96.2188 58.2864 96.6634C58.2053 97.0209 58.0188 97.2805 57.6051 97.2805C57.1914 97.2805 56.9843 97.034 56.915 96.6714C56.7388 95.7545 56.737 94.8315 56.922 93.9146C56.9942 93.5576 57.2102 93.3191 57.5845 93.3144V93.3149Z" fill="#E6E6E6"/>
<path d="M117.649 92.0823C117.47 92.0865 117.284 92.1165 117.096 92.1741C116.762 92.2753 116.561 92.5442 116.249 92.8258C116.359 92.3189 116.158 92.2088 115.784 92.2575C115.584 92.2833 115.375 92.2861 115.176 92.2575C114.807 92.205 114.736 92.3573 114.739 92.7031C114.755 94.832 114.747 96.9601 114.747 99.089C114.747 100.324 114.747 100.308 115.985 100.299C116.324 100.297 116.367 100.17 116.359 99.8855C116.34 99.2507 116.353 98.6158 116.353 98.0227C116.464 97.9337 116.487 98.0011 116.522 98.0278C117.583 98.904 118.957 98.5052 119.313 97.1803C119.651 95.9199 119.642 94.6362 119.305 93.3759C119.079 92.5335 118.426 92.0649 117.649 92.0832V92.0823ZM117.148 93.3196C117.482 93.3215 117.721 93.5066 117.795 93.8472C118.008 94.8128 118.006 95.7799 117.798 96.7445C117.727 97.0753 117.517 97.2726 117.161 97.2791C116.783 97.2862 116.569 97.0852 116.472 96.7375C116.341 96.261 116.349 95.7728 116.353 95.2846C116.347 94.8133 116.347 94.3429 116.469 93.8823C116.562 93.5309 116.786 93.3168 117.148 93.3187L117.148 93.3196Z" fill="#E6E6E6"/>
<path d="M25.0096 94.3423C24.9909 93.4736 25.0059 92.6785 25.2116 91.9055C25.5175 90.7548 26.2999 90.1537 27.4942 90.1349C27.7645 90.1312 28.0368 90.127 28.3052 90.1518C29.5501 90.2657 30.5284 91.6094 30.2707 92.8275C30.244 92.9545 30.1906 93.0018 30.0767 93.0046C29.9577 93.0074 29.8401 93.0074 29.7211 93.0065C29.3833 93.0014 28.9911 93.1007 28.7231 92.9611C28.4477 92.8177 28.6112 92.3787 28.5273 92.0788C28.4064 91.6483 28.1918 91.3601 27.6933 91.347C27.1873 91.3344 26.9301 91.6281 26.8458 92.0549C26.5525 93.5434 26.5478 95.0394 26.828 96.5317C26.9151 96.996 27.1836 97.2893 27.6966 97.2832C28.2153 97.2771 28.4392 96.9477 28.5493 96.5017C28.598 96.3058 28.6355 96.1044 28.6515 95.9034C28.7067 95.2381 28.7021 95.2371 29.3992 95.2371C30.3766 95.2371 30.3892 95.239 30.2735 96.1957C30.1667 97.085 29.8954 97.9176 28.9644 98.2572C27.9754 98.6185 26.9634 98.6264 26.0474 98.0235C25.4257 97.6135 25.2205 96.9383 25.1085 96.2403C25.0064 95.5867 24.9839 94.9284 25.0106 94.3418L25.0096 94.3423Z" fill="#E6E6E6"/>
<path d="M86.2404 92.0845C86.1388 92.084 86.0371 92.0878 85.9368 92.0976C85.1844 92.1721 84.5031 92.3731 84.1803 93.1602C83.8425 93.9839 83.9526 94.1563 84.8161 94.1563C84.8845 94.1563 84.9529 94.1474 85.019 94.1573C85.3268 94.2036 85.4706 94.101 85.4992 93.7642C85.5358 93.3355 85.837 93.1752 86.2498 93.1907C86.611 93.2047 86.8055 93.3926 86.8608 93.7412C86.924 94.1413 86.8125 94.4482 86.3955 94.5728C86.0727 94.6698 85.7429 94.7462 85.4182 94.8361C84.1269 95.1946 83.6893 95.8678 83.8842 97.1928C84.0098 98.0432 84.498 98.4494 85.3666 98.4672C85.9748 98.4798 86.5014 98.3426 86.857 97.8019C87.0205 98.008 86.8926 98.373 87.2829 98.3641C87.7036 98.3552 88.1234 98.3622 88.5999 98.3622C88.3591 97.7682 88.4059 97.1928 88.4027 96.6226C88.4008 95.7779 88.4055 94.9345 88.4017 94.0898C88.3966 92.7133 87.9163 92.1974 86.545 92.0976C86.4438 92.0901 86.3421 92.0854 86.2404 92.0845ZM86.7966 95.4218C86.8598 95.4218 86.8757 95.5141 86.8776 95.5834C86.8804 95.7526 86.8786 95.9212 86.8786 96.1775C86.8725 96.4568 86.932 96.8372 86.634 97.138C86.3309 97.443 85.8319 97.5142 85.5845 97.2814C85.2696 96.9853 85.2954 96.2 85.6332 95.8931C85.9471 95.6078 86.3908 95.6326 86.745 95.4377C86.7652 95.4265 86.782 95.4218 86.797 95.4218H86.7966Z" fill="#E6E6E6"/>
<path d="M43.9265 92.0926C43.7742 92.0945 43.6215 92.102 43.4701 92.1094C42.7345 92.1469 42.0767 92.3967 41.7619 93.158C41.73 93.2362 41.7014 93.3164 41.6808 93.3974C41.5164 94.058 41.5928 94.156 42.2632 94.156C42.4155 94.156 42.5682 94.1499 42.7195 94.1569C42.9285 94.1677 43.0611 94.1419 43.0691 93.8678C43.0817 93.4349 43.3197 93.1927 43.7803 93.1885C44.1973 93.1847 44.4062 93.4073 44.4634 93.7877C44.5299 94.2295 44.3088 94.4895 43.8918 94.6067C43.3581 94.7561 42.8058 94.8484 42.3044 95.1028C41.2943 95.6159 41.1055 97.4942 41.9957 98.1951C42.185 98.3445 42.4019 98.4448 42.6422 98.4575C43.3305 98.4931 44.0099 98.4912 44.4793 97.7387C44.5009 98.3089 44.7871 98.4181 45.2201 98.3694C45.518 98.3356 45.823 98.3623 46.1669 98.3623C45.9439 97.7495 46.0086 97.1564 46.0044 96.5679C45.9983 95.7569 46.0142 94.9459 45.9987 94.1358C45.9898 93.6654 46.0048 93.1683 45.6989 92.7752C45.2322 92.175 44.5866 92.0832 43.9274 92.0921L43.9265 92.0926ZM44.4751 95.405C44.4751 95.8201 44.5018 96.202 44.4681 96.5792C44.4254 97.0556 44.0642 97.3911 43.6116 97.4267C43.271 97.4534 43.0789 97.2693 42.9908 96.9591C42.8386 96.4236 43.0025 95.9443 43.4425 95.7522C43.7592 95.6126 44.1008 95.5273 44.4751 95.4046V95.405Z" fill="#E6E6E6"/>
<path d="M33.3549 92.085C33.2448 92.0855 33.1347 92.0906 33.0246 92.1005C32.0355 92.1885 31.4311 92.6294 31.2334 93.3945C31.06 94.0598 31.1322 94.1559 31.8008 94.1559C31.9699 94.1559 32.1395 94.1479 32.3077 94.1577C32.5157 94.1704 32.6048 94.1015 32.6146 93.8757C32.6352 93.4095 32.8957 93.1813 33.3713 93.1893C33.7644 93.1963 33.9583 93.4189 34.0141 93.7726C34.0862 94.2379 33.8529 94.4955 33.4111 94.6131C32.9238 94.7439 32.4249 94.8549 31.9634 95.0498C30.8909 95.5033 30.6168 97.3666 31.4883 98.1481C31.6944 98.3332 31.9418 98.4443 32.2182 98.4592C32.9023 98.4958 33.5718 98.4761 33.9729 97.8286C34.1809 97.987 34.0253 98.3791 34.4315 98.3655C34.8495 98.3515 35.2683 98.3627 35.7247 98.3627C35.5443 97.8975 35.5433 97.4608 35.5485 97.0218C35.5536 95.9929 35.5611 94.9641 35.5466 93.9352C35.5307 92.9073 35.1662 92.3914 34.3346 92.1984C34.0131 92.1234 33.6852 92.0836 33.3558 92.085H33.3549ZM34.0239 95.3862C34.0239 95.8121 34.0408 96.1794 34.0202 96.5439C33.9925 97.026 33.6688 97.3577 33.2012 97.4191C32.8634 97.4636 32.6596 97.3034 32.5546 96.9942C32.3841 96.491 32.5448 95.9784 32.9585 95.7662C33.1197 95.6842 33.308 95.6561 33.4814 95.5961C33.6369 95.5418 33.7892 95.4771 34.0239 95.3862Z" fill="#E6E6E6"/>
<path d="M52.0018 92.0855C51.6443 92.0841 51.2854 92.1365 50.9279 92.2462C50.3446 92.4242 49.9872 92.8154 49.8288 93.3959C49.6475 94.0575 49.7229 94.1573 50.3882 94.1573C50.5395 94.1573 50.6932 94.1465 50.8436 94.1592C51.0812 94.1798 51.2119 94.1371 51.2091 93.8434C51.2063 93.5088 51.3951 93.2591 51.7427 93.2038C52.1241 93.1434 52.4525 93.2245 52.5814 93.6574C52.706 94.0781 52.5369 94.4454 52.1142 94.5794C51.5853 94.7467 51.0291 94.8291 50.5231 95.0657C49.4479 95.5689 49.2094 97.3976 50.1132 98.1702C50.3123 98.3407 50.5409 98.4452 50.8005 98.4593C51.4817 98.4967 52.1494 98.4813 52.6662 97.6782C52.6029 98.4073 52.9852 98.389 53.3849 98.3665C53.6702 98.3506 53.9574 98.3637 54.3186 98.3637C54.1205 97.8675 54.1406 97.3952 54.1415 96.9248C54.1406 95.8622 54.1504 94.7987 54.12 93.7375C54.0952 92.8946 53.7822 92.4683 53.0714 92.2523C52.7168 92.1445 52.3598 92.0883 52.0023 92.0869L52.0018 92.0855ZM52.6174 95.3909V96.483C52.6174 96.4999 52.6174 96.5168 52.6165 96.5336C52.5748 97.0317 52.2243 97.3962 51.7469 97.4299C51.3993 97.4547 51.225 97.2537 51.1341 96.9469C50.9856 96.4446 51.1393 95.9634 51.5548 95.7695C51.8725 95.6228 52.2154 95.5319 52.6174 95.3914V95.3909Z" fill="#E6E6E6"/>
<path d="M78.137 92.08C77.7941 92.0771 77.4511 92.1231 77.1114 92.2177C76.5403 92.377 76.136 92.7467 75.9715 93.3328C75.7546 94.1054 75.7963 94.1555 76.5914 94.1555C76.7095 94.1555 76.8289 94.1457 76.9461 94.1574C77.1845 94.1813 77.3035 94.1236 77.3293 93.8425C77.371 93.389 77.646 93.1585 78.1225 93.1899C78.4852 93.2147 78.673 93.4087 78.7208 93.7563C78.7841 94.215 78.5971 94.491 78.1408 94.6119C77.6367 94.7454 77.1208 94.8663 76.6443 95.0715C75.5859 95.5288 75.3521 97.4502 76.2475 98.1787C76.4743 98.3638 76.7394 98.4519 77.0398 98.4678C77.7013 98.5034 78.3062 98.4036 78.7864 97.7261C78.7827 98.2827 79.0043 98.4064 79.3955 98.3699C79.7291 98.338 80.0688 98.3628 80.4511 98.3628C80.274 97.8798 80.2431 97.4141 80.2454 96.9399C80.2515 95.8427 80.2604 94.7458 80.2323 93.6486C80.2126 92.8671 79.8748 92.4426 79.1626 92.2336C78.8234 92.1343 78.4805 92.0828 78.1375 92.08H78.137ZM78.7222 95.3971C78.7222 95.8375 78.726 96.2062 78.7194 96.5754C78.7175 96.6743 78.6997 96.7783 78.6627 96.8697C78.5016 97.2618 78.1675 97.422 77.7786 97.422C77.4727 97.422 77.3171 97.1981 77.2548 96.9001C77.1625 96.4527 77.2033 96.0366 77.6371 95.8028C77.9548 95.6304 78.3184 95.5433 78.7222 95.3966V95.3971Z" fill="#E6E6E6"/>
<path d="M103.162 92.0266C102.065 92.0238 101.035 92.7875 100.829 93.9808C100.706 94.7028 100.712 95.4267 100.755 96.1505C100.862 97.9201 101.88 98.7232 103.635 98.4439C104.628 98.2865 105.257 97.5776 105.293 96.5736C105.296 96.4635 105.355 96.3005 105.178 96.2944C104.774 96.2794 104.358 96.2428 103.968 96.3201C103.785 96.3557 103.825 96.6973 103.754 96.8973C103.641 97.2131 103.43 97.4272 103.088 97.4249C102.766 97.423 102.572 97.2141 102.46 96.9217C102.325 96.567 102.327 96.196 102.308 95.8268C102.298 95.6061 102.393 95.5316 102.607 95.5377C103.03 95.5485 103.452 95.5405 103.875 95.5405C105.044 95.5405 105.516 94.9539 105.29 93.7807C105.238 93.5156 105.143 93.264 105.014 93.0231C104.875 92.7626 104.68 92.5579 104.434 92.4023C104.03 92.1461 103.591 92.0275 103.162 92.0261L103.162 92.0266ZM103.119 93.1918C103.612 93.197 103.92 93.6144 103.863 94.3495C103.818 94.9221 103.319 94.4339 103.084 94.6527C102.861 94.4278 102.344 94.9408 102.323 94.3228C102.3 93.6107 102.629 93.1871 103.119 93.1923V93.1918Z" fill="#E6E6E6"/>
<path d="M65.7469 92.0903C64.5283 92.0945 63.7492 92.6272 63.5074 93.7076C63.2656 94.788 63.2699 95.89 63.5013 96.9723C63.6704 97.7674 64.1933 98.2743 65.0132 98.4111C65.3262 98.4636 65.6518 98.4655 65.9718 98.4575C67.1117 98.4308 67.8572 97.6802 67.9106 96.5413C67.9185 96.374 67.8989 96.2798 67.7133 96.2817C67.3418 96.2854 66.9548 96.2264 66.6034 96.3121C66.3429 96.3763 66.4408 96.7521 66.3349 96.9746C66.2042 97.2511 66.006 97.4132 65.7179 97.4221C65.4208 97.431 65.218 97.2586 65.0999 96.9826C64.972 96.6827 64.9486 96.3656 64.9139 96.047C64.8731 95.6754 64.9636 95.4824 65.3951 95.5321C65.7455 95.5719 66.104 95.54 66.4596 95.54C67.6577 95.54 68.1406 94.962 67.9082 93.806C67.6805 92.6764 67.0152 92.1189 65.8655 92.0908C65.8252 92.0898 65.7854 92.0894 65.746 92.0894L65.7469 92.0903ZM65.7207 93.1913C66.2211 93.1894 66.5148 93.5853 66.4652 94.372C66.4333 94.8799 65.9634 94.4709 65.7207 94.6503C65.4991 94.4095 64.9523 94.9722 64.9256 94.3078C64.8998 93.6481 65.2367 93.2058 65.6968 93.1918C65.7048 93.1918 65.7127 93.1918 65.7207 93.1918V93.1913Z" fill="#E6E6E6"/>
<path d="M38.5277 98.4617C38.1861 98.4902 37.8169 98.4429 37.458 98.3389C36.6925 98.115 36.1977 97.2782 36.3561 96.5079C36.3739 96.4189 36.3818 96.3388 36.4919 96.3388C36.8813 96.3379 37.2711 96.3182 37.6576 96.3514C37.8727 96.3702 37.7705 96.596 37.7954 96.7277C37.9101 97.3236 38.4986 97.6099 39.0299 97.3189C39.4727 97.0762 39.4825 96.4058 39.013 96.1622C38.597 95.9462 38.1407 95.8084 37.7012 95.6412C36.7445 95.2757 36.305 94.6512 36.394 93.7764C36.4849 92.8745 37.019 92.3465 37.9992 92.1544C38.508 92.0546 39.0102 92.079 39.5073 92.1928C40.2996 92.3742 40.7677 93.0137 40.7452 93.8186C40.7391 94.0285 40.6988 94.1306 40.4669 94.1086C40.2827 94.0908 40.0935 94.0918 39.9093 94.1077C39.5518 94.1395 39.2834 94.1203 39.2487 93.6424C39.222 93.2779 38.9161 93.166 38.5722 93.1941C38.2583 93.2198 38.0128 93.3543 37.9373 93.6771C37.8581 94.0205 38.0085 94.282 38.3267 94.4118C38.7169 94.5701 39.1217 94.691 39.5191 94.8316C40.6309 95.2237 41.0052 95.8384 40.8422 97.006C40.7274 97.8268 39.9749 98.412 38.9676 98.4626C38.8341 98.4664 38.6982 98.4607 38.5281 98.4607L38.5277 98.4617Z" fill="#E6E6E6"/>
<path d="M95.2555 95.4692C95.2555 94.9126 95.2377 94.3551 95.2626 93.7989C95.2766 93.4733 95.226 93.2831 94.84 93.3426C94.2468 93.4335 94.4895 92.9771 94.445 92.7157C94.3906 92.398 94.4619 92.1849 94.8549 92.2622C95.2054 92.3306 95.3033 92.1544 95.2569 91.8405C95.2499 91.7908 95.256 91.7393 95.256 91.6892C95.2569 90.4317 95.256 90.4387 96.5444 90.5338C96.7623 90.5497 96.8466 90.612 96.8335 90.829C96.8209 91.0478 96.8476 91.2684 96.8274 91.4863C96.782 91.9843 96.7918 92.4163 97.4988 92.2664C97.5752 92.2505 97.7059 92.2467 97.7115 92.3446C97.7312 92.6445 97.7767 92.9607 97.7054 93.2437C97.6548 93.4475 97.3765 93.3435 97.2055 93.3379C96.9291 93.329 96.8185 93.4054 96.8232 93.7052C96.841 94.6835 96.8312 95.6618 96.8293 96.641C96.8284 97.0411 96.975 97.3143 97.4215 97.2557C97.7246 97.2159 97.7443 97.3555 97.7481 97.5954C97.7621 98.3478 97.7696 98.3497 97.028 98.3755C96.8092 98.3834 96.5885 98.3792 96.3697 98.3675C95.5727 98.3249 95.2822 98.0409 95.2588 97.2398C95.241 96.6504 95.256 96.0595 95.256 95.4692H95.2555Z" fill="#E6E6E6"/>
<path d="M72.9031 95.4674C72.9031 94.9108 72.8843 94.3532 72.9101 93.798C72.926 93.4565 72.8389 93.2911 72.4697 93.3436C71.9112 93.4237 72.123 92.9992 72.0944 92.7453C72.0635 92.4721 72.0391 92.1807 72.4758 92.2622C72.8511 92.3315 72.9551 92.1413 72.9045 91.8077C72.8993 91.7749 72.9036 91.7403 72.9036 91.7065C72.9054 90.5202 72.9054 90.5334 74.0739 90.531C74.3977 90.5301 74.5424 90.6041 74.4998 90.948C74.475 91.1471 74.5157 91.3551 74.4909 91.5538C74.4314 92.0439 74.5087 92.3878 75.1295 92.2645C75.3394 92.2228 75.3867 92.3508 75.375 92.5321C75.3652 92.6834 75.3581 92.8371 75.3759 92.9865C75.4134 93.2845 75.279 93.3895 75.0025 93.3431C74.564 93.2686 74.4717 93.4701 74.4848 93.8758C74.5143 94.7857 74.5007 95.6969 74.4918 96.6077C74.4881 97.0304 74.6198 97.3129 75.0976 97.2552C75.3403 97.2267 75.3895 97.3227 75.3759 97.5326C75.3633 97.7167 75.3591 97.9051 75.3769 98.0892C75.3984 98.323 75.2949 98.3736 75.0836 98.3666C74.6966 98.3525 74.3072 98.3816 73.9202 98.3605C73.2587 98.3249 72.9668 98.0545 72.9303 97.3892C72.8956 96.7506 72.9223 96.1088 72.9223 95.4683C72.9171 95.4674 72.9106 95.4674 72.9036 95.4674H72.9031Z" fill="#E6E6E6"/>
<path d="M91.1095 94.3068C91.1095 95.5395 91.1006 96.7726 91.1165 98.0043C91.1203 98.2906 91.0383 98.367 90.752 98.3698C89.553 98.3857 89.553 98.3956 89.553 97.2233C89.553 95.0616 89.5619 92.9003 89.5441 90.7394C89.5413 90.3702 89.6186 90.2494 90.0127 90.2583C91.1099 90.2812 91.1099 90.2601 91.1099 91.3682V94.3072L91.1095 94.3068Z" fill="#E6E6E6"/>
<path d="M70.2903 92.9719C70.6736 92.4926 71.024 92.1651 71.553 92.0995C71.6195 92.0916 71.6875 92.0944 71.7549 92.0934C72.1846 92.0845 72.052 92.4378 72.0075 92.5994C71.9142 92.9349 72.3443 93.5056 71.7629 93.5918C70.5944 93.7661 70.3836 93.9333 70.3836 95.1126C70.3836 96.074 70.3737 97.0363 70.3897 97.9982C70.3934 98.2723 70.332 98.3665 70.035 98.3707C68.8079 98.3866 68.8079 98.3983 68.8079 97.1942C68.8079 95.709 68.8187 94.2247 68.8 92.739C68.7948 92.3806 68.8585 92.1876 69.2624 92.2588C69.3772 92.2785 69.499 92.2696 69.6171 92.2607C70.0715 92.227 70.5251 92.1885 70.2903 92.9714V92.9719Z" fill="#E6E6E6"/>
<path d="M98.3006 95.2682C98.3006 94.392 98.3085 93.5154 98.2954 92.6393C98.2917 92.3807 98.324 92.2589 98.6379 92.2542C99.9085 92.2312 99.9071 92.2186 99.9071 93.4911C99.9071 94.9744 99.8992 96.4578 99.9132 97.9402C99.9161 98.2503 99.8598 98.374 99.507 98.374C98.2992 98.3712 98.2992 98.3867 98.2992 97.1905C98.3001 96.5486 98.3001 95.9091 98.3001 95.2686L98.3006 95.2682Z" fill="#E6E6E6"/>
<path d="M60.9256 95.269C60.9256 94.4084 60.9452 93.5482 60.9167 92.6893C60.904 92.322 61.0244 92.2489 61.3693 92.2536C62.4834 92.2677 62.4834 92.2536 62.4834 93.3856C62.4834 94.8867 62.4736 96.3879 62.4904 97.8881C62.4942 98.2338 62.4558 98.3861 62.0397 98.3753C60.9265 98.3458 60.9265 98.3702 60.9265 97.2424C60.9256 96.5851 60.9256 95.9273 60.9256 95.269Z" fill="#E6E6E6"/>
<path d="M99.1475 90.1665C99.6544 90.1665 99.9079 90.3926 99.9079 90.8449C99.9079 91.3175 99.6474 91.5538 99.1264 91.5538C98.2985 91.5538 98.3341 91.5519 98.2859 90.7498C98.2564 90.2475 98.4147 90.0775 98.894 90.1646C98.976 90.1796 99.0632 90.1665 99.1475 90.1665Z" fill="#E6E6E6"/>
<path d="M61.6942 91.5537C60.924 91.5537 60.9563 91.5518 60.9118 90.7891C60.8832 90.2901 61.006 90.1247 61.5345 90.1523C62.4903 90.2029 62.4762 90.1673 62.4889 91.1091C62.494 91.4534 62.4116 91.6132 62.047 91.5565C61.9323 91.5378 61.8123 91.5537 61.6933 91.5537H61.6942Z" fill="#E6E6E6"/>
<path d="M119.144 85.7375C114.045 74.2806 108.944 62.8246 103.851 51.3658C103.608 50.819 103.28 50.3032 103.173 49.6992H90.8889C90.6621 49.8182 90.5689 50.0389 90.4761 50.2549C90.0582 51.2294 89.6225 52.1955 89.1999 53.1682C89.1108 53.372 89.0593 53.61 88.8236 53.7703C88.4465 53.0525 88.2136 52.3056 87.8285 51.6385C87.278 50.685 86.5906 49.8777 85.4085 49.6997H63.8871C63.3019 49.7662 62.794 50.0038 62.3602 50.3969C61.865 50.8452 61.5126 51.3939 61.2423 52.0011C60.9701 52.6111 60.7302 53.2357 60.3886 53.8696C59.9163 52.8088 59.4717 51.794 59.0093 50.7871C58.8369 50.4109 58.7521 49.9822 58.4053 49.7011H46.1215C45.2275 51.7369 44.341 53.7778 43.4368 55.8098C38.9928 65.7951 34.5446 75.7775 30.0917 85.7591C29.9324 86.1156 29.8958 86.2623 30.3915 86.2604C34.1473 86.2417 37.9035 86.2435 41.6592 86.2604C42.0326 86.2613 42.1839 86.1198 42.3226 85.8069C44.61 80.6446 46.9072 75.4875 49.2016 70.3295C50.2136 68.0548 51.2284 65.7805 52.2704 63.4416C52.8931 64.8388 53.4816 66.1797 54.0916 67.5094C54.2373 67.8252 54.2429 68.0815 54.0967 68.4085C51.5184 74.1747 48.9537 79.9465 46.3871 85.7178C46.23 86.0711 46.3382 86.2481 46.7118 86.2487C50.4005 86.2496 54.0878 86.2398 57.7766 86.2618C58.2362 86.2646 58.4508 86.133 58.6284 85.7094C59.1798 84.3905 59.7852 83.0931 60.4017 81.7138C60.7752 82.5454 61.0947 83.304 61.4522 84.0447C62.0828 85.3486 63.0353 86.244 64.5735 86.2459C71.2735 86.2566 77.973 86.251 84.6729 86.2496C85.7248 86.2496 86.5574 85.8003 87.2189 85.0001C87.7001 84.4177 87.9465 83.7149 88.2614 83.0453C88.4544 82.6335 88.5861 82.1879 88.8864 81.7639C89.5063 83.1611 90.1074 84.4959 90.6879 85.8397C90.8177 86.1395 90.9709 86.2613 91.3218 86.2595C95.0954 86.2435 98.8684 86.2506 102.641 86.2459C102.781 86.2459 102.945 86.3171 103.068 86.1634C103.023 86.0547 102.98 85.9446 102.932 85.8378C100.351 80.044 97.773 74.2492 95.1825 68.4605C95.0251 68.1091 95.0162 67.8257 95.1816 67.4733C95.7105 66.3456 96.1955 65.1967 96.7127 64.062C96.791 63.8905 96.8097 63.6689 97.0285 63.5452C97.103 63.7064 97.1728 63.8539 97.2393 64.0039C100.472 71.2661 103.707 78.5273 106.93 85.7937C107.079 86.1315 107.247 86.2623 107.631 86.2604C111.353 86.2435 115.075 86.2506 118.798 86.2506C119.181 86.2506 119.297 86.0802 119.145 85.7394L119.144 85.7375ZM66.6463 67.664C68.1784 64.232 69.6931 60.7907 71.2407 57.3658C71.8915 55.9269 73.0497 55.1487 74.638 55.1566C76.2235 55.1646 77.3719 55.9447 78.0217 57.3887C79.5566 60.801 81.0676 64.2241 82.5973 67.6397C82.7032 67.8753 82.7014 68.0613 82.5964 68.2961C81.0685 71.7093 79.5543 75.1305 78.0264 78.5437C77.3756 79.9962 76.2024 80.6976 74.645 80.8105C73.1232 80.7125 71.9318 80.065 71.2913 78.6548C69.718 75.19 68.1868 71.7055 66.6294 68.2337C66.5343 68.0229 66.5591 67.8594 66.6463 67.6645V67.664ZM87.8945 80.3279C87.4438 81.2884 87.0212 82.2629 86.5995 83.236C86.138 84.2987 85.4273 84.8272 84.1772 84.8183C77.7485 84.7709 71.3194 84.7808 64.8907 84.8112C63.8136 84.8164 63.1707 84.3301 62.7598 83.4267C61.9797 81.7129 61.216 79.9896 60.4505 78.2696C56.4848 69.3634 52.5206 60.4576 48.5559 51.5504C48.5025 51.4276 48.4571 51.303 48.3816 51.1175C51.3521 51.1175 54.2448 51.1245 57.137 51.1086C57.4636 51.1067 57.5161 51.2978 57.6121 51.5134C60.7166 58.4893 63.8229 65.4647 66.9293 72.4397C67.9085 74.6381 68.883 76.8392 69.8702 79.0347C70.7801 81.0588 72.3558 82.1828 74.5747 82.2076C76.8204 82.2325 78.4378 81.1263 79.3626 79.0853C80.719 76.0947 82.0393 73.0877 83.376 70.0872C83.4168 69.9949 83.4632 69.9059 83.5353 69.7555C84.1159 71.0585 84.6753 72.3142 85.2347 73.5698C86.1198 75.5564 86.9982 77.5458 87.8964 79.5262C88.0271 79.8144 88.029 80.0393 87.8945 80.3274V80.3279ZM94.1827 66.1844C93.3965 64.419 92.6389 62.7145 91.8794 61.0104C91.1874 59.4577 90.4958 57.9041 89.7958 56.3542C89.6927 56.1265 89.6632 55.9344 89.7743 55.6908C90.4171 54.2847 91.0426 52.8698 91.6704 51.4567C91.7524 51.2716 91.8021 51.11 92.0813 51.1109C94.9904 51.1226 97.8981 51.1179 100.892 51.1179C98.6416 56.1701 96.4264 61.1449 94.1827 66.1844Z" fill="#E6E6E6"/>
</svg>
