<svg width="70" height="70" viewBox="0 0 70 70" fill="none" xmlns="http://www.w3.org/2000/svg">
<rect x="4.375" y="4.375" width="61.25" height="61.25" rx="2.66667" fill="#E10098"/>
<path d="M38.3288 40.4874H28.1092C26.9724 40.4874 26.6059 39.7894 26.6059 38.837C26.6059 38.0667 26.6013 14.5859 26.6013 14.5859H23.0088V42.1447C23.0088 43.3025 24.0102 44.0658 24.7478 44.0658H38.3311V40.4897L38.3288 40.4874Z" fill="white"/>
<path d="M38.3317 45.4318V49.0173H20.1849C18.943 49.0173 18.084 48.0906 18.084 46.8884C18.0957 45.4785 18.084 14.584 18.084 14.584H21.6625V43.2025C21.6625 44.4607 22.2087 45.4318 23.74 45.4318H38.3317Z" fill="white"/>
<path d="M13.125 14.5859H16.7198V47.8964C16.7198 49.1009 17.3244 50.3778 19.0845 50.3778H38.3308V53.9563H17.3968C15.0111 53.9563 13.125 51.9768 13.125 49.6168V14.5859Z" fill="white"/>
<path d="M27.9443 14.5859H31.5415V34.145C31.5415 34.857 31.866 35.5363 32.8861 35.5363H38.3273V39.1264H29.7744C28.4579 39.1264 27.9467 38.2908 27.9467 37.3384V14.5859H27.9443Z" fill="white"/>
<path d="M32.9057 28.0541H43.1252C44.262 28.0541 44.6285 28.752 44.6285 29.7044C44.6285 30.4747 44.6332 53.9555 44.6332 53.9555H48.2257V26.3967C48.2257 25.2389 47.2266 24.4756 46.4866 24.4756H32.9033V28.0517L32.9057 28.0541Z" fill="white"/>
<path d="M32.9027 23.1109V19.5254H51.0472C52.2891 19.5254 53.1481 20.4521 53.1481 21.6543C53.1341 23.0642 53.1481 53.9587 53.1481 53.9587H49.5696V25.3401C49.5696 24.0819 49.0234 23.1109 47.4921 23.1109H32.9004H32.9027Z" fill="white"/>
<path d="M58.1091 53.9563H54.5119V20.6458C54.5119 19.439 53.9074 18.1644 52.1473 18.1644H32.9033V14.5859H53.835C56.223 14.5859 58.1091 16.5654 58.1091 18.9254V53.9563Z" fill="white"/>
<path d="M43.2863 53.9565H39.6891V34.3974C39.6891 33.6855 39.3647 33.0062 38.3446 33.0062H32.9033V29.416H41.4585C42.7751 29.416 43.2863 30.2517 43.2863 31.2041V53.9542V53.9565Z" fill="white"/>
</svg>
