<svg width="96" height="25" viewBox="0 0 96 25" fill="none" xmlns="http://www.w3.org/2000/svg">
<path d="M46.8969 8.69419C46.8969 7.92052 47.4833 7.29422 48.257 7.29422H50.2894V5.00391H47.8793C46.0495 5.00391 44.6035 6.48677 44.6035 8.31657V19.4488H46.9V8.69419H46.8969Z" fill="#E10098"/>
<path d="M57.6276 6.5551C60.5872 6.5551 62.9942 8.96207 62.9942 11.9217C62.9942 14.8813 60.5872 17.2882 57.6276 17.2882C54.668 17.2882 52.2641 14.8813 52.2641 11.9217C52.2641 8.96207 54.668 6.5551 57.6276 6.5551ZM70.6603 6.5551C73.6199 6.5551 76.0268 8.96207 76.0268 11.9217C76.0268 14.8813 73.6199 17.2882 70.6603 17.2882C67.7007 17.2882 65.2937 14.8813 65.2937 11.9217C65.2937 8.96207 67.7007 6.5551 70.6603 6.5551ZM83.6929 6.5551C86.6525 6.5551 89.0564 8.96207 89.0564 11.9217C89.0564 14.8813 86.6495 17.2882 83.6929 17.2882C80.7364 17.2882 78.3264 14.8813 78.3264 11.9217C78.3264 8.96207 80.7333 6.5551 83.6929 6.5551ZM49.9707 25.0004H52.2856V17.4018C53.6641 18.7466 55.5491 19.5755 57.6276 19.5755C60.3815 19.5755 62.7946 18.1202 64.1455 15.9374C65.4932 18.1202 67.9064 19.5755 70.6603 19.5755C73.4142 19.5755 75.8303 18.1202 77.1751 15.9374C78.5259 18.1202 80.939 19.5755 83.6929 19.5755C87.9205 19.5755 91.3467 16.1492 91.3467 11.9186C91.3467 7.68797 87.9205 4.26172 83.6929 4.26172C80.939 4.26172 78.5228 5.71696 77.1751 7.89981C75.8273 5.71696 73.4111 4.26172 70.6603 4.26172C67.9094 4.26172 65.4932 5.71696 64.1455 7.89981C62.7946 5.71696 60.3815 4.26172 57.6276 4.26172C53.4 4.26172 49.9707 7.68797 49.9707 11.9186V24.9973V25.0004Z" fill="#E10098"/>
<path d="M35.8174 6.47232C38.1292 6.47232 40.2292 7.93984 40.9937 10.2332H30.6351C31.3995 7.93984 33.5056 6.47232 35.8174 6.47232ZM35.8174 19.4958C39.3389 19.4958 42.3476 17.1256 43.1735 13.7147H40.9538C40.1893 15.9007 38.1323 17.3682 35.8144 17.3682C32.9991 17.3682 30.6566 15.2467 30.3833 12.367H43.3884V11.9187C43.3884 7.74335 39.9897 4.34473 35.8144 4.34473C31.639 4.34473 28.2373 7.74335 28.2373 11.9187C28.2373 16.0941 31.6359 19.4958 35.8144 19.4958" fill="#E10098"/>
<path d="M23.1839 19.4458L28.9311 4.96094H26.3123L21.6887 16.6182L17.062 4.96094H14.4463L20.1905 19.4458H23.1839Z" fill="#E10098"/>
<path d="M94.7818 0H92.4854V19.4461H94.7818V0Z" fill="#E10098"/>
<path d="M3.32604 0V15.8019C3.33218 16.5879 3.78656 17.2019 4.68303 17.2019H10.3228V19.4431H2.55237C1.573 19.4431 1.00195 18.8444 1.00195 17.9756V0H3.32297H3.32604Z" fill="#E10098"/>
<path d="M13.5092 4.96094H11.2158V19.4427H13.5092V4.96094Z" fill="#E10098"/>
<path d="M13.5093 0H11.2129V2.32101H13.5093V0Z" fill="#E10098"/>
</svg>
