<svg width="80" height="81" viewBox="0 0 80 81" fill="none" xmlns="http://www.w3.org/2000/svg">
<path d="M29.3334 72.2541C32.1623 72.2541 34.8754 71.1303 36.8758 69.13C38.8762 67.1296 40 64.4165 40 61.5875V50.9209H29.3334C26.5044 50.9209 23.7913 52.0447 21.7909 54.0451C19.7905 56.0455 18.6667 58.7586 18.6667 61.5875C18.6667 64.4165 19.7905 67.1296 21.7909 69.13C23.7913 71.1303 26.5044 72.2541 29.3334 72.2541Z" fill="#0ACF83"/>
<path d="M18.6667 40.2535C18.6667 37.4246 19.7905 34.7115 21.7909 32.7111C23.7913 30.7107 26.5044 29.5869 29.3334 29.5869H40V50.9201H29.3334C26.5044 50.9201 23.7913 49.7963 21.7909 47.796C19.7905 45.7956 18.6667 43.0825 18.6667 40.2535Z" fill="#A259FF"/>
<path d="M18.6667 18.9205C18.6667 16.093 19.7894 13.3812 21.788 11.381C23.7866 9.38089 26.4975 8.25612 29.325 8.25391H39.9916V29.5871H29.3334C26.5044 29.5871 23.7913 28.4633 21.7909 26.463C19.7905 24.4626 18.6667 21.7495 18.6667 18.9205Z" fill="#F24E1E"/>
<path d="M40.0001 8.25391H50.6667C53.4957 8.25391 56.2088 9.37771 58.2092 11.3781C60.2096 13.3785 61.3334 16.0916 61.3334 18.9205C61.3334 21.7495 60.2096 24.4626 58.2092 26.463C56.2088 28.4633 53.4957 29.5871 50.6667 29.5871H40.0001V8.25391Z" fill="#FF7262"/>
<path d="M61.3334 40.2535C61.3334 43.0825 60.2096 45.7956 58.2092 47.796C56.2088 49.7963 53.4957 50.9201 50.6667 50.9201C47.8378 50.9201 45.1247 49.7963 43.1243 47.796C41.1239 45.7956 40.0001 43.0825 40.0001 40.2535C40.0001 37.4246 41.1239 34.7115 43.1243 32.7111C45.1247 30.7107 47.8378 29.5869 50.6667 29.5869C53.4957 29.5869 56.2088 30.7107 58.2092 32.7111C60.2096 34.7115 61.3334 37.4246 61.3334 40.2535Z" fill="#1ABCFE"/>
</svg>
