<svg width="81" height="81" viewBox="0 0 81 81" fill="none" xmlns="http://www.w3.org/2000/svg">
<path d="M40.6667 9.0293C36.4644 9.0293 32.3032 9.857 28.4208 11.4652C24.5384 13.0733 21.0107 15.4304 18.0393 18.4019C12.0381 24.403 8.66669 32.5424 8.66669 41.0293C8.66669 55.1733 17.8507 67.1733 30.5547 71.4293C32.1547 71.6853 32.6667 70.6933 32.6667 69.8293V64.4213C23.8027 66.3413 21.9147 60.1333 21.9147 60.1333C20.4427 56.4213 18.3627 55.4293 18.3627 55.4293C15.4507 53.4453 18.5867 53.5093 18.5867 53.5093C21.7867 53.7333 23.4827 56.8053 23.4827 56.8053C26.2667 61.6693 30.9707 60.2293 32.7947 59.4613C33.0827 57.3813 33.9147 55.9733 34.8107 55.1733C27.7067 54.3733 20.2507 51.6213 20.2507 39.4293C20.2507 35.8773 21.4667 33.0293 23.5467 30.7573C23.2267 29.9573 22.1067 26.6293 23.8667 22.3093C23.8667 22.3093 26.5547 21.4453 32.6667 25.5733C35.1947 24.8693 37.9467 24.5173 40.6667 24.5173C43.3867 24.5173 46.1387 24.8693 48.6667 25.5733C54.7787 21.4453 57.4667 22.3093 57.4667 22.3093C59.2267 26.6293 58.1067 29.9573 57.7867 30.7573C59.8667 33.0293 61.0827 35.8773 61.0827 39.4293C61.0827 51.6533 53.5947 54.3413 46.4587 55.1413C47.6107 56.1333 48.6667 58.0853 48.6667 61.0613V69.8293C48.6667 70.6933 49.1787 71.7173 50.8107 71.4293C63.5147 67.1413 72.6667 55.1733 72.6667 41.0293C72.6667 36.827 71.839 32.6658 70.2308 28.7834C68.6227 24.901 66.2656 21.3734 63.2941 18.4019C60.3226 15.4304 56.795 13.0733 52.9126 11.4652C49.0301 9.857 44.869 9.0293 40.6667 9.0293Z" fill="#E6E6E6"/>
</svg>
