<svg width="81" height="81" viewBox="0 0 81 81" fill="none" xmlns="http://www.w3.org/2000/svg">
<path d="M8.5 8.25391H72.5V72.2539H8.5V8.25391Z" fill="#F7DF1E"/>
<path d="M25.328 61.7367L30.2255 58.7727C31.1705 60.448 32.03 61.8655 34.0918 61.8655C36.068 61.8655 37.3143 61.0925 37.3143 58.0855V37.636H43.3285V58.1705C43.3285 64.3997 39.677 67.2352 34.3495 67.2352C29.5383 67.2352 26.7455 64.7435 25.3278 61.7362M46.5953 61.0922L51.4923 58.257C52.7815 60.3622 54.457 61.9087 57.421 61.9087C59.9133 61.9087 61.5023 60.6627 61.5023 58.9442C61.5023 56.8822 59.8698 56.1517 57.1203 54.9492L55.617 54.3042C51.2778 52.4575 48.3995 50.1375 48.3995 45.24C48.3995 40.729 51.8363 37.292 57.2065 37.292C61.03 37.292 63.7795 38.624 65.7555 42.1037L61.0725 45.1112C60.0413 43.264 58.9248 42.5337 57.2063 42.5337C55.4448 42.5337 54.3278 43.6507 54.3278 45.1112C54.3278 46.9155 55.4448 47.6462 58.0223 48.7632L59.5258 49.4075C64.6383 51.5987 67.5165 53.8325 67.5165 58.8585C67.5165 64.272 63.2635 67.236 57.5498 67.236C51.965 67.236 48.3563 64.5725 46.595 61.0925" fill="black"/>
</svg>
