<svg width="81" height="81" viewBox="0 0 81 81" fill="none" xmlns="http://www.w3.org/2000/svg">
<path d="M22.1977 8.25391H58.4688C62.1454 8.25541 65.671 9.71661 68.2708 12.3164C70.8706 14.9161 72.3317 18.4417 72.3333 22.1184V58.3895C72.3317 62.0661 70.8706 65.5917 68.2708 68.1914C65.671 70.7912 62.1454 72.2524 58.4688 72.2539H22.1977C18.5211 72.2524 14.9955 70.7912 12.3957 68.1914C9.79596 65.5917 8.33476 62.0661 8.33325 58.3895V22.1184C8.33476 18.4417 9.79596 14.9161 12.3957 12.3164C14.9955 9.71661 18.5211 8.25541 22.1977 8.25391Z" fill="#FFD02F"/>
<path d="M52.8055 16.2471H45.7786L51.6312 26.5318L38.7517 16.2471H31.7248L38.1645 28.8236L24.6978 16.2471H17.6709L24.6978 32.2518L17.6709 64.2613H24.6978L38.1645 29.96L31.7248 64.2613H38.7517L51.6312 27.6871L45.7786 64.2613H52.8055L65.6851 24.24L52.8055 16.2471Z" fill="#050038"/>
</svg>
