<svg width="80" height="80" viewBox="0 0 80 80" fill="none" xmlns="http://www.w3.org/2000/svg">
<path d="M40 72C39.1181 72 38.2949 71.7648 37.5305 71.3532L29.7106 66.7083C28.5347 66.0615 29.1226 65.8264 29.4754 65.7088C31.0629 65.1796 31.3569 65.062 33.0032 64.1213C33.1796 64.0037 33.4148 64.0625 33.5912 64.1801L39.5884 67.7666C39.8236 67.8842 40.1176 67.8842 40.294 67.7666L63.7538 54.1847C63.989 54.0671 64.1066 53.8319 64.1066 53.5379V26.4327C64.1066 26.1387 63.989 25.9035 63.7538 25.7859L40.294 12.2627C40.0588 12.1452 39.7648 12.1452 39.5884 12.2627L16.1286 25.7859C15.8934 25.9035 15.7758 26.1975 15.7758 26.4327V53.5379C15.7758 53.7731 15.8934 54.0671 16.1286 54.1847L22.5374 57.8888C26.0064 59.6527 28.1819 57.5949 28.1819 55.537V28.7846C28.1819 28.4318 28.4759 28.079 28.8875 28.079H31.8861C32.2389 28.079 32.5916 28.373 32.5916 28.7846V55.537C32.5916 60.1819 30.0634 62.8865 25.6537 62.8865C24.3013 62.8865 23.243 62.8865 20.2444 61.4166L14.0707 57.8888C12.542 57.0069 11.6013 55.3606 11.6013 53.5967V26.4915C11.6013 24.7276 12.542 23.0813 14.0707 22.1994L37.5305 8.61736C39.0005 7.79421 40.9995 7.79421 42.4695 8.61736L65.9293 22.1994C67.458 23.0813 68.3987 24.7276 68.3987 26.4915V53.5967C68.3987 55.3606 67.458 57.0069 65.9293 57.8888L42.4695 71.4708C41.7051 71.8236 40.8232 72 40 72ZM47.232 53.3615C36.9426 53.3615 34.8259 48.6578 34.8259 44.6596C34.8259 44.3068 35.1199 43.9541 35.5315 43.9541H38.5889C38.9417 43.9541 39.2356 44.1892 39.2356 44.542C39.706 47.6582 41.0583 49.187 47.2908 49.187C52.2297 49.187 54.3463 48.0698 54.3463 45.424C54.3463 43.8953 53.7584 42.7781 46.056 42.0138C39.6472 41.367 35.6491 39.9559 35.6491 34.8406C35.6491 30.0781 39.6472 27.2559 46.35 27.2559C53.876 27.2559 57.5802 29.8429 58.0505 35.4874C58.0505 35.6638 57.9917 35.8401 57.8741 36.0165C57.7565 36.1341 57.5802 36.2517 57.4038 36.2517H54.3463C54.0524 36.2517 53.7584 36.0165 53.6996 35.7226C52.994 32.4887 51.1713 31.4304 46.35 31.4304C40.9407 31.4304 40.294 33.3119 40.294 34.723C40.294 36.4281 41.0583 36.9573 48.3491 37.898C55.5811 38.8388 58.9913 40.1911 58.9913 45.2476C58.9325 50.4217 54.6991 53.3615 47.232 53.3615Z" fill="#539E43"/>
</svg>
