<svg width="26" height="26" viewBox="0 0 26 26" fill="none" xmlns="http://www.w3.org/2000/svg">
<path d="M20.2182 14.3671C19.5189 14.3711 18.9134 14.539 18.4054 14.7891C18.2178 14.4179 18.0302 14.0938 17.999 13.8516C17.9639 13.5703 17.9208 13.3984 17.9639 13.0623C18.007 12.7261 18.2023 12.2495 18.2023 12.2107C18.1984 12.1755 18.1598 12.0036 17.7569 11.9996C17.3539 11.9956 17.0064 12.0779 16.9675 12.1859C16.8978 12.381 16.8417 12.5807 16.7996 12.7836C16.7293 13.1509 15.9948 14.4522 15.5768 15.1356C15.44 14.87 15.3229 14.6353 15.2994 14.448C15.2643 14.1667 15.2212 13.9948 15.2643 13.6586C15.3074 13.3225 15.5028 12.8459 15.5028 12.807C15.4988 12.7719 15.4602 12.6 15.0573 12.596C14.6544 12.592 14.3068 12.6742 14.2679 12.7823C14.2291 12.8903 14.186 13.1378 14.1003 13.38C14.0183 13.6195 13.0416 15.7946 12.7875 16.3606C12.6587 16.6496 12.548 16.8804 12.4628 17.0366C12.3777 17.1928 12.4588 17.0483 12.4511 17.064L12.342 17.271V17.275C12.2872 17.3727 12.2286 17.4666 12.201 17.4666C12.1815 17.4666 12.1424 17.2048 12.2089 16.8455C12.3534 16.0916 12.705 14.9155 12.7013 14.8724C12.7013 14.853 12.7678 14.6462 12.4751 14.5403C12.1898 14.4349 12.0884 14.6106 12.0652 14.6106C12.0421 14.6106 12.0226 14.6731 12.0226 14.6731C12.0226 14.6731 12.3393 13.3486 11.4169 13.3486C10.8387 13.3486 10.0416 13.9777 9.64721 14.552L7.65474 15.6421L7.61216 15.5952C6.49443 14.4035 4.42797 13.5594 4.51393 11.9578C4.54506 11.3758 4.74812 9.84027 8.48345 7.98059C11.5426 6.45702 13.9922 6.87484 14.418 7.80495C15.0237 9.13291 13.1092 11.6026 9.92904 11.9581C8.71817 12.0949 8.08107 11.626 7.92086 11.4503C7.7532 11.264 7.72925 11.2587 7.66698 11.2941C7.56532 11.3489 7.62786 11.5129 7.66698 11.6108C7.76065 11.857 8.15132 12.2947 8.81557 12.513C9.39759 12.7046 10.8195 12.81 12.5387 12.1457C14.4636 11.3913 15.9677 9.32346 15.5265 7.59231C15.0767 5.8303 12.1546 5.25227 9.39227 6.23294C7.74761 6.81922 5.96617 7.73309 4.68451 8.93225C3.16094 10.3544 2.9185 11.5967 3.02016 12.1125C3.37571 13.9527 5.91135 15.1521 6.92688 16.0389L6.78584 16.1171C6.27807 16.3673 4.34414 17.3791 3.85952 18.4494C3.31264 19.6603 3.94548 20.5319 4.36729 20.6489C5.6721 21.0122 7.00832 20.3599 7.73111 19.2853C8.44965 18.211 8.36396 16.8162 8.03183 16.1796L8.02013 16.1562L8.41851 15.922C8.66088 15.7797 8.90576 15.6416 9.15302 15.5079C9.02794 15.8478 8.93826 16.2504 8.89115 16.8359C8.83633 17.5236 9.11736 18.414 9.48887 18.7658C9.65307 18.9183 9.84814 18.9221 9.96949 18.9221C10.3993 18.9221 10.5949 18.5665 10.8094 18.1407C11.075 17.621 11.3097 17.0195 11.3097 17.0195C11.3097 17.0195 11.017 18.6488 11.8175 18.6488C12.1102 18.6488 12.4035 18.2698 12.536 18.0745V18.0784C12.536 18.0784 12.544 18.0667 12.5594 18.0393C12.5906 17.9925 12.6063 17.9648 12.6063 17.9648V17.9568C12.7234 17.7538 12.9852 17.2915 13.3759 16.519C13.8799 15.5263 14.3643 14.2843 14.3643 14.2843C14.3643 14.2843 14.4111 14.589 14.5559 15.0891C14.6419 15.3861 14.8295 15.7102 14.9737 16.0266L14.7861 16.2848L14.7901 16.2888C14.6964 16.4138 14.5905 16.5469 14.4814 16.6794C14.083 17.1558 13.6064 17.6992 13.5438 17.8557C13.4693 18.042 13.4853 18.1761 13.6298 18.2855C13.7352 18.3637 13.9225 18.3792 14.1221 18.3637C14.4814 18.3403 14.7342 18.2504 14.8566 18.1961C15.0821 18.1157 15.2952 18.0039 15.4895 17.8639C15.8801 17.5749 16.1186 17.1646 16.0952 16.6177C16.0835 16.317 15.9861 16.02 15.8647 15.7387L15.9701 15.5825C16.5875 14.6803 17.0639 13.6876 17.0639 13.6876C17.0639 13.6876 17.1107 13.9924 17.2555 14.4924C17.33 14.7463 17.4782 15.0239 17.611 15.2972C17.0327 15.7698 16.6695 16.317 16.5444 16.6762C16.3139 17.3405 16.4938 17.6412 16.8334 17.7141C16.9859 17.7453 17.2046 17.675 17.3683 17.605C17.5714 17.5385 17.8175 17.4254 18.0443 17.2572C18.4349 16.9682 18.8099 16.5658 18.7905 16.0224C18.7788 15.7722 18.7122 15.5263 18.6228 15.2918C19.1152 15.0888 19.752 14.9714 20.5607 15.0691C22.2993 15.2722 22.6432 16.3585 22.5766 16.8117C22.5101 17.2649 22.1469 17.5151 22.0258 17.593C21.9047 17.6675 21.8656 17.6947 21.8773 17.7492C21.8932 17.8312 21.9475 17.8275 22.0529 17.8118C22.1974 17.7884 22.9671 17.4405 22.9985 16.6046C23.0453 15.5303 22.0255 14.3585 20.2166 14.37L20.2182 14.3671ZM6.81005 18.8872C6.23576 19.5163 5.427 19.7548 5.0829 19.5514C4.71166 19.3367 4.85669 18.4106 5.56352 17.7426C5.99332 17.3362 6.55191 16.9613 6.91917 16.7308L7.27471 16.516C7.29813 16.5001 7.31383 16.4926 7.31383 16.4926C7.34124 16.4766 7.37238 16.4575 7.40378 16.4378C7.66565 17.391 7.41549 18.2272 6.81032 18.8875L6.81005 18.8872ZM11.01 16.0311C10.8104 16.5195 10.3889 17.7737 10.135 17.7032C9.91627 17.6447 9.78374 16.6951 10.0924 15.7578C10.2487 15.2852 10.5808 14.7199 10.7764 14.5036C11.0931 14.1523 11.4364 14.0347 11.5226 14.1794C11.6243 14.3671 11.1359 15.7267 11.0108 16.0317L11.01 16.0311ZM14.4753 17.6878C14.3893 17.7304 14.3111 17.7623 14.2757 17.7383C14.2483 17.7224 14.3108 17.6638 14.3108 17.6638C14.3108 17.6638 14.7446 17.1989 14.9165 16.9841L15.2563 16.5504V16.5972C15.2563 17.1598 14.7172 17.5348 14.475 17.6872L14.4753 17.6878ZM17.1477 17.0757C17.0852 17.0288 17.0929 16.8841 17.3039 16.4311C17.3859 16.2515 17.5735 15.9505 17.8974 15.6655C17.9365 15.7826 17.9599 15.896 17.9559 16.0016C17.9519 16.705 17.4519 16.9666 17.1469 17.076L17.1477 17.0757Z" fill="#CF649A"/>
</svg>
