<svg width="80" height="81" viewBox="0 0 80 81" fill="none" xmlns="http://www.w3.org/2000/svg">
<path d="M8.60891 30.6661C8.60891 30.6661 7.05011 29.5414 8.92067 28.0397L13.2788 24.1391C13.2788 24.1391 14.5259 22.8259 15.8443 23.9701L56.0614 54.4468V69.061C56.0614 69.061 56.0419 71.3559 53.0997 71.1023L8.60891 30.6661Z" fill="#2489CA"/>
<path d="M18.9749 40.0859L8.60891 49.5189C8.60891 49.5189 7.54373 50.312 8.60891 51.7292L13.4217 56.1109C13.4217 56.1109 14.5648 57.3396 16.2535 55.9419L27.2431 47.6011L18.9749 40.0859Z" fill="#1070B3"/>
<path d="M37.174 40.1641L56.1849 25.6343L56.0615 11.0981C56.0615 11.0981 55.2496 7.92561 52.5412 9.57686L27.2431 32.6229L37.174 40.1641Z" fill="#0877B9"/>
<path d="M53.0997 71.122C54.2039 72.2532 55.5418 71.8826 55.5418 71.8826L70.3569 64.5755C72.2535 63.2818 71.9872 61.6761 71.9872 61.6761V18.0414C71.9872 16.1236 70.0257 15.4605 70.0257 15.4605L57.1851 9.265C54.3792 7.52923 52.5411 9.57705 52.5411 9.57705C52.5411 9.57705 54.9053 7.87379 56.0614 11.0983V68.7947C56.0614 69.1912 55.977 69.5813 55.8081 69.9323C55.4704 70.6149 54.7365 71.252 52.9763 70.9855L53.0997 71.122Z" fill="#3C99D4"/>
</svg>
