<svg width="86" height="31" viewBox="0 0 86 31" fill="none" xmlns="http://www.w3.org/2000/svg">
<g clip-path="url(#clip0_1108_14095)">
<path d="M18.81 3.41997L16.19 6.12997C14.82 4.65997 12.88 3.82997 10.87 3.85997C6.87002 3.85997 4.34002 6.85997 4.34002 10.69C4.34002 14.9 7.16002 17.49 10.87 17.49C12.66 17.59 14.42 17.01 15.81 15.87V13.34H11.9V9.83997H19.7V18.01C17.26 20.28 14.03 21.49 10.7 21.39C4.98002 21.57 0.190021 17.09 2.06188e-05 11.37C2.06188e-05 11.14 2.06188e-05 10.92 2.06188e-05 10.69C-0.129979 4.91997 4.44002 0.139969 10.2 -3.1095e-05C10.36 -3.1095e-05 10.52 -3.1095e-05 10.69 -3.1095e-05C13.76 -0.0900311 16.72 1.15997 18.81 3.40997V3.41997Z" fill="black"/>
<path d="M22.01 10.69C21.84 4.94998 26.36 0.169979 32.1 -2.07815e-05C32.3 -2.07815e-05 32.5 -2.07815e-05 32.7 -2.07815e-05C38.43 -0.180021 43.22 4.30998 43.41 10.04C43.41 10.25 43.41 10.47 43.41 10.68C43.6 16.39 39.12 21.18 33.4 21.36C33.17 21.36 32.93 21.36 32.7 21.36C26.99 21.55 22.2 17.07 22.01 11.36C22.01 11.13 22.01 10.91 22.01 10.68V10.69ZM26.34 10.69C26.34 14.63 29.01 17.49 32.72 17.49C36.43 17.49 39.11 14.63 39.11 10.69C39.11 6.74998 36.43 3.88998 32.72 3.88998C29.01 3.88998 26.32 6.80998 26.32 10.69H26.34Z" fill="black"/>
<path d="M45.18 10.69C45.01 4.95998 49.52 0.169979 55.25 -2.07815e-05C55.46 -2.07815e-05 55.68 -2.07815e-05 55.89 -2.07815e-05C61.62 -0.180021 66.41 4.30998 66.6 10.04C66.6 10.25 66.6 10.47 66.6 10.68C66.79 16.39 62.31 21.18 56.59 21.36C56.36 21.36 56.12 21.36 55.89 21.36C50.18 21.56 45.38 17.09 45.18 11.38C45.18 11.15 45.18 10.91 45.18 10.68V10.69ZM49.5 10.69C49.5 14.63 52.18 17.49 55.89 17.49C59.6 17.49 62.28 14.63 62.28 10.69C62.28 6.74998 59.6 3.88998 55.89 3.88998C52.18 3.88998 49.5 6.80998 49.5 10.69Z" fill="black"/>
<path d="M69.46 0.389954H73.61V9.80995L80.4 0.389954H85.01L77.6 10.25L85.29 21.01H80.52L73.61 11.01V21.01H69.46V0.389954Z" fill="black"/>
<path d="M28.58 29.93H28.26C28.25 29.73 28.25 29.54 28.26 29.34C27.98 29.81 27.45 30.08 26.9 30.01C25.93 30.09 25.08 29.36 25.01 28.39C25.01 28.3 25.01 28.2 25.01 28.11C24.96 27.1 25.75 26.24 26.75 26.2C26.82 26.2 26.88 26.2 26.95 26.2C27.7 26.09 28.41 26.55 28.62 27.27H28.19C27.98 26.78 27.47 26.48 26.94 26.55C26.08 26.55 25.39 27.24 25.39 28.1C25.39 28.96 26.08 29.65 26.94 29.65C27.75 29.65 28.22 29.25 28.22 28.45V28.32H26.91V28.01H28.58V29.93Z" fill="black"/>
<path d="M33.4 28.09C33.48 29.14 32.69 30.06 31.63 30.13C30.58 30.21 29.66 29.42 29.59 28.36C29.59 28.27 29.59 28.18 29.59 28.08C29.67 27.03 30.58 26.24 31.63 26.31C32.58 26.38 33.33 27.13 33.4 28.08V28.09ZM30.03 28.09C29.97 28.9 30.59 29.6 31.4 29.66C31.44 29.66 31.48 29.66 31.51 29.66C32.29 29.71 32.97 29.11 33.01 28.33C33.01 28.25 33.01 28.18 33.01 28.1C33.05 27.29 32.44 26.61 31.63 26.56C31.6 26.56 31.56 26.56 31.53 26.56C30.74 26.51 30.06 27.12 30.01 27.92C30.01 27.97 30.01 28.03 30.01 28.08H30.03V28.09Z" fill="black"/>
<path d="M38.11 28.09C38.12 29.14 37.27 30.01 36.22 30.02C35.17 30.03 34.3 29.18 34.29 28.13C34.28 27.08 35.13 26.21 36.18 26.2C36.18 26.2 36.2 26.2 36.21 26.2C37.23 26.17 38.08 26.96 38.11 27.98C38.11 28.02 38.11 28.05 38.11 28.09ZM34.74 28.09C34.68 28.89 35.28 29.6 36.09 29.66C36.13 29.66 36.17 29.66 36.21 29.66C37 29.68 37.66 29.06 37.67 28.27C37.67 28.22 37.67 28.17 37.67 28.11C37.71 27.3 37.1 26.62 36.29 26.57C36.25 26.57 36.21 26.57 36.18 26.57C35.39 26.57 34.74 27.2 34.74 27.99C34.74 28.02 34.74 28.05 34.74 28.08V28.09Z" fill="black"/>
<path d="M39.2 26.27H40.66C41.61 26.19 42.44 26.9 42.51 27.84C42.51 27.9 42.51 27.95 42.51 28.01C42.57 28.99 41.82 29.83 40.83 29.89C40.77 29.89 40.71 29.89 40.65 29.89H39.19V26.27H39.2ZM39.62 29.58H40.56C41.34 29.65 42.02 29.08 42.09 28.3C42.09 28.22 42.09 28.14 42.09 28.06C42.13 27.31 41.56 26.67 40.81 26.63C40.74 26.63 40.67 26.63 40.6 26.63H39.6L39.62 29.58Z" fill="black"/>
<path d="M46.18 26.27H46.59V29.57H48.84L48.77 29.93H46.18V26.27Z" fill="black"/>
<path d="M53.15 28.09C53.16 29.14 52.31 30.01 51.26 30.02C50.21 30.03 49.34 29.18 49.33 28.13C49.32 27.08 50.17 26.21 51.22 26.2C51.22 26.2 51.24 26.2 51.25 26.2C52.27 26.17 53.12 26.96 53.15 27.98C53.15 28.02 53.15 28.05 53.15 28.09ZM49.77 28.09C49.71 28.9 50.33 29.6 51.14 29.66C51.18 29.66 51.22 29.66 51.25 29.66C52.04 29.68 52.7 29.06 52.71 28.27C52.71 28.22 52.71 28.17 52.71 28.11C52.75 27.3 52.12 26.61 51.31 26.57C51.28 26.57 51.25 26.57 51.22 26.57C50.42 26.57 49.77 27.2 49.77 28C49.77 28.03 49.77 28.05 49.77 28.08V28.09Z" fill="black"/>
<path d="M57.85 28.09C57.93 29.14 57.14 30.06 56.08 30.13C55.03 30.21 54.11 29.42 54.04 28.36C54.04 28.27 54.04 28.18 54.04 28.08C54.12 27.03 55.03 26.24 56.08 26.31C57.03 26.38 57.78 27.13 57.85 28.08V28.09ZM54.48 28.09C54.43 28.9 55.05 29.6 55.86 29.65C55.91 29.65 55.96 29.65 56.01 29.65C56.79 29.67 57.45 29.05 57.47 28.27C57.47 28.21 57.47 28.16 57.47 28.1C57.51 27.29 56.9 26.61 56.09 26.56C56.05 26.56 56.01 26.56 55.98 26.56C55.19 26.53 54.52 27.14 54.49 27.93C54.49 27.98 54.49 28.03 54.49 28.08L54.48 28.09Z" fill="black"/>
<path d="M58.95 26.27H59.36V28.13L61.63 26.27H62.18L60.28 27.84L62.28 29.93H61.73L60.01 28.06L59.41 28.53V29.93H59L58.95 26.27Z" fill="black"/>
<path d="M62.86 29.93V28.83H63.46V29.93H62.86Z" fill="black"/>
</g>
<defs>
<clipPath id="clip0_1108_14095">
<rect width="85.29" height="30.13" fill="white"/>
</clipPath>
</defs>
</svg>
