<svg width="398" height="288" viewBox="0 0 398 288" fill="none" xmlns="http://www.w3.org/2000/svg">
<g clip-path="url(#clip0_1107_14069)">
<path d="M148.58 183.25C156.36 174.35 164.25 165.36 172.11 156.34C179.22 148.19 186.45 140.12 193.36 131.8C195.74 128.94 198.24 127.61 201.91 127.92C204.38 128.13 206.92 128.02 209.38 127.71C213.62 127.17 214.5 128.78 213.74 132.8C210.09 151.91 206.67 171.06 203.16 190.2C201.03 201.81 198.73 213.4 196.82 225.05C196.26 228.47 194.76 229.62 191.56 229.4C186.76 229.08 180.28 231.43 177.62 228.45C174.94 225.46 178.35 219.44 179.2 214.79C182.15 198.45 185.32 182.14 188.66 164.44C185.3 168.17 182.79 170.9 180.34 173.69C170.55 184.81 160.81 195.97 150.99 207.06C146.61 212.02 141.47 211.35 138.52 205.53C132.42 193.52 126.37 181.48 120.22 169.49C119.51 168.1 119.24 166.31 117.1 165.24C114.61 178.6 112.16 191.74 109.71 204.89C108.46 211.59 106.95 218.26 106.07 225.01C105.58 228.78 103.84 229.65 100.49 229.43C97.3401 229.22 94.1501 229.17 91.0001 229.43C86.9801 229.77 85.7101 228.55 86.5401 224.35C89.8401 207.71 92.8801 191.02 95.9701 174.34C98.5401 160.44 101.12 146.54 103.53 132.61C104.1 129.31 105.36 128.3 108.91 127.76C117.86 126.42 122.27 130.13 125.76 138.15C131.99 152.47 139.41 166.26 146.34 180.28C146.84 181.28 146.99 182.53 148.6 183.24L148.58 183.25Z" fill="black"/>
<path d="M22.1 45.7198H27.55C50.2 45.7198 72.86 45.7198 95.51 45.7198C102.96 45.7198 103.3 45.8098 101.51 53.1798C98.15 66.9698 94.27 80.6198 83.29 90.7598C58.54 113.61 12.25 109.15 1.89998 71.2798C-4.85002 46.5898 6.81997 19.2898 29.65 7.61976C50.18 -2.87024 70.53 -3.30024 89.74 11.1698C94.47 14.7298 97.78 19.5298 100.62 24.6898C101.67 26.5898 101.47 27.6898 99.32 28.3598C97.74 28.8498 96.1 29.3298 94.66 30.1098C87.78 33.8298 82.03 35.3098 77.02 26.5598C74.12 21.4998 67.81 19.8898 61.78 19.1598C43.56 16.9498 25.48 28.7898 22.1 45.7098V45.7198ZM79.82 61.7898C60.52 61.7898 41.91 61.8298 23.3 61.7498C20.43 61.7398 20.38 63.1698 20.88 65.2098C21.76 68.7798 23.01 72.1898 25.31 75.1398C32.78 84.7198 42.89 87.4498 54.24 85.3398C67.05 82.9598 75.41 75.0698 79.82 61.7998V61.7898Z" fill="black"/>
<path d="M38.6599 127.98C46.6499 127.93 54.6799 127.54 62.5699 128.91C75.7799 131.19 85.3899 138.15 88.8299 151.62C92.5399 166.18 88.2499 178.57 77.1299 188.5C67.5099 197.09 55.6399 199.28 43.2699 199.62C38.7799 199.74 34.2799 199.67 29.7999 199.41C26.6199 199.23 25.0199 199.97 24.5399 203.56C23.5699 210.8 21.8699 217.93 20.7399 225.16C20.2699 228.2 19.0299 229.56 15.8999 229.43C11.9099 229.27 7.90995 229.32 3.91995 229.4C0.959947 229.46 0.269947 228.26 0.809947 225.39C5.59995 200.08 10.2799 174.74 14.9899 149.41C16.0799 143.53 17.2999 137.66 18.1699 131.75C18.5999 128.87 19.7399 127.8 22.6899 127.93C28.0099 128.15 33.3399 127.99 38.6699 127.99L38.6599 127.98ZM41.1799 180.71V180.69C44.1699 180.69 47.1699 180.87 50.1499 180.65C57.1399 180.15 62.9899 177.35 66.9499 171.39C74.2499 160.41 68.2899 147.67 55.2499 146.63C49.6399 146.18 43.9699 146.5 38.3199 146.38C35.9199 146.33 34.8799 147.2 34.4599 149.73C32.9399 158.89 31.2199 168.02 29.3799 177.12C28.8399 179.78 29.4599 180.84 32.2199 180.74C35.2099 180.63 38.1999 180.71 41.1899 180.71H41.1799Z" fill="black"/>
<path d="M259.39 40.0496C268.27 32.5596 277.53 30.4796 287.47 31.8796C301.94 33.9096 311.74 44.6696 312.92 60.8096C314.59 83.5696 300.89 104.05 274.66 104.72C266.19 104.94 258.53 102.61 252.06 95.0696C250.51 103.06 248.82 110.21 247.84 117.45C247.23 121.93 245.65 124.01 240.92 123.46C237.96 123.11 234.93 123.32 231.94 123.41C228.4 123.52 227.35 122.29 228.07 118.58C232.57 95.4096 236.83 72.1896 241.17 48.9896C241.96 44.7396 242.8 40.4996 243.5 36.2396C243.92 33.6796 245.12 32.3596 247.86 32.6496C249.18 32.7896 250.55 32.8896 251.85 32.7096C256.78 32.0096 260.09 33.2196 259.4 40.0696L259.39 40.0496ZM292.88 66.1896C293 55.6396 287.04 49.1296 277.14 48.9996C265.98 48.8496 256.21 58.2196 255.94 69.3196C255.69 79.5396 262.42 86.8496 272.18 86.9696C284.1 87.1096 292.73 78.4396 292.88 66.1896Z" fill="black"/>
<path d="M397.95 66.2696C396.98 82.0996 388.87 94.1696 373.44 100.94C358.56 107.47 344.14 106.34 331.13 96.2696C320.04 87.6796 316.66 70.5396 322.58 56.1496C331.49 34.4996 360.81 24.3696 381.1 36.0696C392.26 42.4996 397.81 52.3296 397.95 66.2696ZM377.88 65.9296C377.95 55.6396 371.56 49.1696 361.14 48.9896C349.44 48.7896 339.82 57.9196 339.69 69.3596C339.57 79.6096 346.52 86.8596 356.57 86.9596C368.35 87.0696 377.8 77.7496 377.88 65.9296Z" fill="black"/>
<path d="M207.15 94.9799C199.37 103.74 189.83 105.85 179.48 104.39C165.32 102.39 157.43 90.6598 159.86 75.3398C161.91 62.3598 164.5 49.4698 166.77 36.5298C167.24 33.8498 168.18 32.4099 171.28 32.6499C175.09 32.9399 178.95 32.8698 182.77 32.6698C186.4 32.4798 186.93 34.0198 186.28 37.2298C184.1 47.9899 182.04 58.7699 180.15 69.5799C179.17 75.1899 177.99 81.4599 183.94 84.9399C189.89 88.4199 196.21 87.1398 201.88 83.3798C206.29 80.4598 208.53 76.1699 209.52 71.0099C211.67 59.7299 214.15 48.5199 216.18 37.2199C216.82 33.6699 218.31 32.4099 221.8 32.6499C224.95 32.8699 228.15 32.8698 231.28 32.5098C235.81 31.9998 236.2 34.2299 235.53 37.8198C231.77 58.0999 228.01 78.3898 224.46 98.7098C223.8 102.46 222.15 103.92 218.51 103.38C218.02 103.31 217.51 103.38 217.01 103.38C211.563 103.387 208.283 100.583 207.17 94.9699L207.15 94.9799Z" fill="black"/>
<path d="M128.94 43.5299C135.65 34.6499 144.17 31.6599 154.19 31.6299C158.56 31.6199 159.42 33.4399 158.48 37.1299C158.4 37.4499 158.29 37.7699 158.25 38.0999C157.33 46.2099 155.76 52.2199 144.8 52.6499C134.87 53.0399 129.02 61.2499 126.71 70.8999C124.47 80.2799 122.55 89.7399 120.88 99.2399C120.33 102.39 119.16 103.56 116.08 103.43C112.42 103.27 108.75 103.28 105.09 103.42C101.87 103.54 100.98 102.05 101.53 99.1199C105.43 78.1899 109.35 57.2599 113.15 36.3099C113.68 33.3899 115.19 32.3499 117.95 32.5899C118.61 32.6499 119.28 32.5899 119.95 32.5899C125.603 32.5766 128.517 35.3333 128.69 40.8599C128.71 41.4499 128.8 42.0399 128.94 43.5299Z" fill="black"/>
<path d="M204.88 260.39C211.52 260.41 216.04 265.37 215.53 272.06C215.35 274.38 214.36 275.8 211.82 275.78C208.49 275.75 205.15 275.93 201.83 275.75C197.51 275.51 197.96 277.7 199.4 280.29C201 283.19 203.84 283.6 206.77 283.29C208.23 283.13 209.69 282.6 211.05 282.01C212.67 281.31 213.63 281.91 214.27 283.29C214.95 284.76 213.81 285.33 212.8 285.96C204.77 290.91 194.49 286.05 193.28 276.72C191.94 266.41 196.23 260.37 204.88 260.39ZM204.59 272.04C206.29 270.45 210.17 273.99 210.23 269.58C210.27 266.52 208.13 264.42 204.71 264.47C201.28 264.52 198.56 266.25 198.72 269.68C198.91 273.83 202.72 270.56 204.59 272.03V272.04Z" fill="black"/>
<path d="M14.21 251.43C16.39 251.48 18.52 251.77 20.49 252.77C21.62 253.35 22.4 254.13 21.8 255.54C21.19 256.96 20.31 257.7 18.71 256.88C16.73 255.86 14.59 255.53 12.41 255.88C10.07 256.26 8.47003 257.64 7.88003 259.96C7.24003 262.49 8.62003 264.17 10.7 265.2C12.92 266.31 15.34 267.03 17.58 268.1C22.6 270.49 24.52 274.06 23.77 279.35C23.04 284.47 19.52 286.51 14.91 287.38C11.51 288.02 8.29003 287.28 5.15003 286.12C3.65003 285.57 1.77003 284.93 2.66003 282.62C3.54003 280.36 5.09003 280.99 6.69003 281.8C8.99003 282.96 11.45 283.25 13.97 282.89C16.52 282.53 18.26 281.15 18.7 278.49C19.1 276.07 18.13 274.21 16.02 273.1C14.12 272.1 12.09 271.33 10.11 270.48C4.16003 267.94 1.71003 264.11 2.82003 259.06C3.88003 254.2 8.14003 251.35 14.21 251.43Z" fill="black"/>
<path d="M27.9001 273.75C28.0201 264.81 32.2701 260.22 40.2701 260.4C47.6201 260.56 51.7001 265.61 51.5401 274.36C51.3801 282.87 46.8201 287.87 39.4301 287.62C31.9901 287.37 27.7901 282.31 27.9001 273.74V273.75ZM46.4101 272.92C46.4101 272.92 46.5501 271.94 46.3901 270.97C45.7401 267.19 44.0701 264.43 39.6601 264.45C35.5401 264.47 33.7801 266.95 33.1501 270.6C32.6401 273.58 32.7001 276.55 33.7501 279.42C34.7201 282.07 36.7701 283.29 39.5001 283.35C42.2101 283.41 44.3201 282.33 45.5001 279.77C46.3501 277.92 46.6201 275.96 46.4201 272.92H46.4101Z" fill="black"/>
<path d="M148.59 260.39C156.19 260.42 160.26 265.13 160.26 273.92C160.26 282.58 155.97 287.62 148.59 287.62C140.97 287.62 136.51 282.43 136.62 273.67C136.73 265.02 140.92 260.36 148.58 260.38L148.59 260.39ZM141.66 274.02C141.7 275.01 141.64 276.02 141.81 276.99C142.43 280.6 144.16 283.25 148.2 283.34C152.17 283.43 154.21 281.17 154.94 277.42C155.56 274.25 155.54 271.12 154.31 268.14C152.69 264.21 146.76 263.05 143.89 266.09C141.82 268.29 141.57 271.13 141.66 274.01V274.02Z" fill="black"/>
<path d="M92.82 273.9C92.82 277.22 92.71 280.55 92.86 283.87C92.96 286.04 91.27 287.82 90.19 286.71C87.59 284.04 85.87 286.22 83.86 286.91C77.6 289.04 72.69 285.95 72.39 279.36C72.16 274.22 72.32 269.05 72.3 263.9C72.3 262.14 72.39 260.49 74.87 260.64C77.17 260.78 76.84 262.49 76.86 263.92C76.91 268.41 76.88 272.9 76.89 277.39C76.89 280.84 78.19 283.54 82.01 283.24C85.33 282.98 88.02 281.4 87.9 277.24C87.77 272.75 87.86 268.26 87.91 263.77C87.93 262.26 87.95 260.71 90.14 260.62C92.63 260.52 92.68 262.17 92.67 263.92C92.67 267.25 92.67 270.57 92.67 273.9C92.72 273.9 92.76 273.9 92.81 273.9H92.82Z" fill="black"/>
<path d="M166.48 273.7C166.48 270.54 166.61 267.38 166.43 264.23C166.31 262.14 168.01 260.15 168.92 261.09C171.73 263.98 173.56 261.27 175.72 260.68C182.16 258.93 186.72 262.15 186.86 268.73C186.96 273.72 186.9 278.71 186.87 283.7C186.87 285.34 187.12 287.29 184.56 287.2C182.11 287.12 182.31 285.22 182.3 283.56C182.28 279.07 182.26 274.58 182.3 270.09C182.33 266.79 181.19 264.37 177.5 264.6C174.09 264.81 171.4 266.08 171.54 270.33C171.68 274.82 171.54 279.31 171.58 283.8C171.6 285.64 171.34 287.26 169.05 287.22C166.72 287.18 166.62 285.46 166.64 283.68C166.67 280.35 166.64 277.03 166.64 273.7C166.59 273.7 166.54 273.7 166.49 273.7H166.48Z" fill="black"/>
<path d="M229.05 260.39C229.38 260.41 230.23 260.37 231.04 260.53C232.59 260.84 234.78 260.68 234.51 263.08C234.25 265.43 232.48 265.04 230.7 264.71C228.45 264.3 225.63 263.65 224.81 266.68C223.89 270.07 226.94 270.67 229.23 271.56C235.57 274.03 237.8 277.92 235.62 282.76C233.53 287.39 226.17 289.23 221.19 286.36C220.04 285.69 218.7 285.05 219.6 283.3C220.35 281.85 221.36 281.51 222.85 282.4C223.69 282.9 224.69 283.26 225.66 283.39C228.1 283.7 230.55 283.5 231.33 280.66C232.06 278 230.18 276.74 228 275.91C227.22 275.61 226.44 275.33 225.65 275.09C221.45 273.81 219.09 271.18 219.69 266.6C220.22 262.54 223.41 260.39 229.05 260.4V260.39Z" fill="black"/>
<path d="M112.3 260.39C112.93 260.47 114.61 260.51 116.2 260.93C117.37 261.24 119.05 261.64 118.39 263.54C117.93 264.86 117.13 265.96 115.41 265.12C115.26 265.05 115.1 265.01 114.94 264.96C106.42 262.55 103.25 267.8 104.17 275.94C104.87 282.15 108.06 284.27 114.15 283.04C115.13 282.84 116.07 282.46 117.05 282.35C118.25 282.21 118.78 283.17 119.21 284.08C119.81 285.36 118.8 285.84 117.95 286.34C110.55 290.69 100.57 285.86 99.3001 277.32C97.7001 266.51 102.02 260.39 112.29 260.39H112.3Z" fill="black"/>
<path d="M62.55 265.91C62.55 269.41 62.46 272.91 62.59 276.4C62.7 279.47 61.29 283.55 66.81 283.58C67.26 283.58 67.95 284.76 68.08 285.48C68.32 286.77 67.14 287.05 66.21 287.36C62.38 288.64 57.97 285.8 57.81 281.24C57.47 271.43 57.67 261.6 57.63 251.78C57.63 250.19 58.32 249.22 59.93 249.14C61.81 249.05 62.57 250.06 62.55 251.91C62.5 256.57 62.53 261.23 62.55 265.89V265.91Z" fill="black"/>
<path d="M129.88 273.74C129.88 277.07 129.88 280.4 129.88 283.72C129.88 285.43 129.93 287.25 127.47 287.19C125.36 287.13 125.3 285.54 125.3 283.98C125.3 277.16 125.3 270.33 125.3 263.51C125.3 261.88 125.52 260.54 127.71 260.62C129.98 260.7 129.85 262.27 129.87 263.76C129.9 267.09 129.88 270.42 129.88 273.74Z" fill="black"/>
<path d="M130.24 251.69C130.24 253.27 129.94 254.62 127.96 254.76C125.92 254.9 124.95 253.98 124.93 251.93C124.91 250.18 125.63 249.12 127.47 249.08C129.22 249.04 130.24 249.83 130.24 251.69Z" fill="black"/>
</g>
<defs>
<clipPath id="clip0_1107_14069">
<rect width="397.95" height="287.97" fill="white"/>
</clipPath>
</defs>
</svg>
