<svg width="298" height="72" viewBox="0 0 298 72" fill="none" xmlns="http://www.w3.org/2000/svg">
<path d="M0.775024 64.8405V6.09831C0.775024 3.94144 1.37256 2.47484 2.56756 1.57974C3.76257 0.684644 5.68545 0.242432 8.3362 0.242432C10.9869 0.242432 12.7903 0.695428 13.9418 1.57974C15.0934 2.46406 15.68 3.98458 15.68 6.09831V29.716H30.194V6.09831C30.194 3.94144 30.7915 2.47484 31.9865 1.57974C33.1815 0.684644 35.0935 0.242432 37.7443 0.242432C40.395 0.242432 42.1984 0.695428 43.3608 1.57974C44.5232 2.46406 45.099 3.98458 45.099 6.09831V64.8405C45.099 66.9974 44.5232 68.464 43.3608 69.3591C42.1984 70.2542 40.3298 70.6964 37.7443 70.6964C35.1587 70.6964 33.0946 70.2434 31.9322 69.3591C30.7697 68.4748 30.194 66.9542 30.194 64.8405V41.2228H15.68V64.8405C15.68 66.9974 15.1043 68.464 13.9418 69.3591C12.7794 70.2542 10.9109 70.6964 8.3362 70.6964C5.76149 70.6964 3.67561 70.2434 2.51319 69.3591C1.35077 68.4748 0.775024 66.9542 0.775024 64.8405Z" fill="#333333"/>
<path d="M75.6041 71.5915C67.6953 71.5915 62.1729 69.5892 59.0369 65.5846C55.9009 61.58 54.3329 54.98 54.3329 45.7846V6.0983C54.3329 3.94144 54.9087 2.47484 56.0494 1.57974C57.1901 0.684644 59.0152 0.242432 61.5573 0.242432C64.0994 0.242432 65.805 0.695428 66.9131 1.57974C68.0212 2.46405 68.5752 3.98458 68.5752 6.0983V47.5748C68.5752 52.8016 69.1293 56.3389 70.2374 58.1866C70.8367 59.0496 71.6383 59.7552 72.5731 60.2426C73.508 60.73 74.5481 60.9847 75.6041 60.9847C76.66 60.9847 77.7002 60.73 78.635 60.2426C79.5699 59.7552 80.3714 59.0496 80.9708 58.1866C82.0789 56.3389 82.6329 52.8016 82.6329 47.5748V6.0983C82.6329 3.94144 83.1978 2.47484 84.3385 1.57974C85.4792 0.684644 87.3152 0.242432 89.8464 0.242432C92.3776 0.242432 94.105 0.695428 95.2131 1.57974C96.3212 2.46405 96.8753 3.98458 96.8753 6.0983V46.3022C96.8753 55.1669 95.0864 61.6016 91.5086 65.6062C87.9308 69.6108 82.6293 71.6058 75.6041 71.5915Z" fill="#333333"/>
<path d="M127.73 70.2001H114.378C111.782 70.2001 109.935 69.7471 108.838 68.8628C107.741 67.9785 107.176 66.4579 107.176 64.3442V6.5942C107.176 4.43733 107.73 2.91676 108.838 2.03245C109.946 1.14814 111.793 0.71675 114.378 0.738319H129.055C135.429 0.738319 140.18 2.14385 143.309 4.95496C146.437 7.76607 147.994 12.1481 147.98 18.101C147.98 26.4409 145.235 31.7001 139.745 33.8785C139.585 33.915 139.442 34.0041 139.34 34.1314C139.237 34.2586 139.181 34.4165 139.18 34.5795C139.18 34.903 139.365 35.1079 139.745 35.1726C141.235 35.4894 142.636 36.1294 143.847 37.0467C145.059 37.964 146.051 39.1359 146.752 40.4785C148.255 43.4461 149.001 46.7344 148.925 50.055C148.925 57.1942 147.299 62.3383 144.047 65.4873C140.795 68.6364 135.356 70.2073 127.73 70.2001ZM121.005 10.7138V30.7619H128.012C132.553 30.7619 134.824 27.1887 134.824 20.0423C134.824 16.6632 134.321 14.2654 133.314 12.8491C132.307 11.4327 130.352 10.7138 127.448 10.6922L121.005 10.7138ZM121.005 39.3893V60.0305H127.817C130.663 60.0305 132.695 59.2325 133.933 57.6472C135.172 56.0619 135.78 53.3334 135.78 49.5158C135.78 45.6981 135.172 43.1962 133.977 41.6756C133.294 40.8839 132.432 40.264 131.461 39.8666C130.491 39.4692 129.439 39.3057 128.393 39.3893H121.005Z" fill="#333333"/>
<path d="M178.396 70.2001H165.023C162.426 70.2001 160.579 69.7471 159.471 68.8628C158.363 67.9785 157.809 66.4579 157.809 64.3442V6.5942C157.809 4.43733 158.363 2.91676 159.471 2.03245C160.579 1.14814 162.43 0.71675 165.023 0.738319H179.743C186.145 0.738319 190.911 2.14385 194.04 4.95496C197.168 7.76607 198.733 12.1481 198.733 18.101C198.733 26.4409 195.981 31.7001 190.476 33.8785C190.315 33.9146 190.171 34.0033 190.067 34.1304C189.962 34.2575 189.904 34.4156 189.901 34.5795C189.901 34.903 190.096 35.1079 190.476 35.1726C191.97 35.4872 193.375 36.1261 194.59 37.0435C195.805 37.9609 196.801 39.1339 197.505 40.4785C199.008 43.4461 199.754 46.7344 199.678 50.055C199.678 57.1942 198.048 62.3383 194.789 65.4873C191.53 68.6364 186.066 70.2073 178.396 70.2001ZM171.671 10.7138V30.7619H178.7C183.263 30.7619 185.541 27.1887 185.533 20.0423C185.533 16.6668 185.034 14.2726 184.012 12.8491C182.991 11.4256 181.047 10.6922 178.135 10.6922L171.671 10.7138ZM171.671 39.3893V60.0305H178.515C181.362 60.0305 183.4 59.2361 184.632 57.6472C185.863 56.0583 186.482 53.3478 186.489 49.5158C186.489 45.806 185.881 43.1962 184.686 41.6756C183.998 40.8842 183.132 40.2648 182.158 39.8676C181.184 39.4704 180.13 39.3066 179.08 39.3893H171.671Z" fill="#333333"/>
<path d="M226.795 71.5915C218.886 71.5915 213.364 69.5892 210.228 65.5846C207.092 61.58 205.535 54.98 205.556 45.7846V6.0983C205.556 3.94144 206.132 2.47484 207.273 1.57974C208.414 0.684644 210.239 0.242432 212.77 0.242432C215.301 0.242432 217.029 0.695428 218.137 1.57974C219.245 2.46405 219.799 3.98458 219.799 6.0983V47.5748C219.799 52.8016 220.353 56.3389 221.461 58.1866C222.06 59.0496 222.862 59.7552 223.797 60.2426C224.732 60.73 225.772 60.9847 226.828 60.9847C227.884 60.9847 228.924 60.73 229.859 60.2426C230.793 59.7552 231.595 59.0496 232.194 58.1866C233.302 56.3389 233.857 52.8016 233.857 47.5748V6.0983C233.857 3.94144 234.421 2.47484 235.562 1.57974C236.703 0.684644 238.539 0.242432 241.07 0.242432C243.601 0.242432 245.329 0.695428 246.437 1.57974C247.545 2.46405 248.099 3.98458 248.099 6.0983V46.3022C248.099 55.1669 246.31 61.6016 242.732 65.6062C239.154 69.6108 233.842 71.6058 226.795 71.5915Z" fill="#333333"/>
<path d="M276.083 70.2001H262.688C260.092 70.2001 258.245 69.7471 257.137 68.8628C256.029 67.9785 255.475 66.4579 255.475 64.3442V6.5942C255.475 4.43733 256.029 2.91676 257.137 2.03245C258.245 1.14814 260.095 0.71675 262.688 0.738319H277.409C283.797 0.738319 288.562 2.14385 291.705 4.95496C294.849 7.76607 296.413 12.1481 296.398 18.101C296.398 26.4409 293.646 31.7001 288.142 33.8785C287.981 33.9146 287.837 34.0033 287.732 34.1304C287.628 34.2575 287.569 34.4156 287.566 34.5795C287.566 34.903 287.762 35.1079 288.142 35.1726C289.635 35.4893 291.038 36.1291 292.253 37.0462C293.468 37.9633 294.465 39.1353 295.171 40.4785C296.673 43.4461 297.42 46.7344 297.344 50.055C297.344 57.1942 295.71 62.3383 292.444 65.4873C289.178 68.6364 283.724 70.2073 276.083 70.2001ZM269.337 10.7138V30.7619H276.366C280.914 30.7619 283.192 27.1887 283.199 20.0423C283.199 16.6632 282.692 14.2654 281.678 12.8491C280.664 11.4327 278.701 10.7138 275.79 10.6922L269.337 10.7138ZM269.337 39.3893V60.0305H276.17C279.031 60.0305 281.073 59.2361 282.297 57.6472C283.521 56.0583 284.14 53.3478 284.155 49.5158C284.155 45.806 283.55 43.1926 282.341 41.6756C281.656 40.8831 280.792 40.2627 279.82 39.8653C278.848 39.4679 277.794 39.3048 276.746 39.3893H269.337Z" fill="#333333"/>
</svg>
