<svg width="640" height="72" viewBox="0 0 640 72" fill="none" xmlns="http://www.w3.org/2000/svg">
<path fill-rule="evenodd" clip-rule="evenodd" d="M29.9422 8.63117H6.85366V26.7704H28.4839V32.5669H6.85366V50.7051L30.5618 50.7061V56.5027H3.87621C2.33555 56.5027 1.06838 55.3622 0.915997 53.9007L0.900635 53.6044V5.73288C0.900635 4.23225 2.07152 2.99798 3.57197 2.84956L3.87621 2.83459H29.9422V8.63117ZM44.7691 56.4115H38.988V3.08302H44.7691V56.4115ZM633.049 56.4115H638.83V5.73288H633.049V56.4115ZM192.295 23.2404C190.179 23.2404 188.573 24.9435 188.573 27.0628L188.578 56.4115H182.292V26.0313C182.292 21.0445 186.252 16.9948 191.265 16.9948H197.856V23.2404H192.295ZM509.372 25.6098C507.407 25.6098 505.915 27.1912 505.915 29.1592L505.92 56.4115H500.083V28.2013C500.083 23.5707 503.76 19.8103 508.415 19.8103H514.536V25.6098H509.372ZM407.585 56.4115H413.366V19.8103H407.585V56.4115ZM550.923 36.7474C550.923 29.1181 544.205 22.9032 535.933 22.9032C527.667 22.9032 520.949 29.1181 520.949 36.7474C520.949 44.3791 527.667 50.594 535.933 50.594C544.205 50.594 550.923 44.3791 550.923 36.7474ZM587.347 36.7474C587.347 29.1181 580.621 22.9032 572.35 22.9032C564.083 22.9032 557.354 29.1181 557.354 36.7474C557.354 44.3791 564.083 50.594 572.35 50.594C580.621 50.594 587.347 44.3791 587.347 36.7474ZM623.758 36.7474C623.758 29.1181 617.037 22.9032 608.771 22.9032C600.497 22.9032 593.778 29.1181 593.778 36.7474C593.778 44.3791 600.497 50.594 608.771 50.594C617.037 50.594 623.758 44.3791 623.758 36.7474ZM521.003 70.4889H514.536V36.7474C514.536 25.8381 524.12 16.9948 535.933 16.9948C543.63 16.9948 550.377 20.7527 554.141 26.3836C557.909 20.7527 564.659 16.9948 572.35 16.9948C580.038 16.9948 586.801 20.7503 590.558 26.3836C594.325 20.7503 601.067 16.9948 608.771 16.9948C620.585 16.9948 630.158 25.8381 630.158 36.7474C630.158 47.6567 620.585 56.4975 608.771 56.4975C601.067 56.4975 594.325 52.7445 590.558 47.116C586.801 52.7445 580.038 56.4975 572.35 56.4975C564.659 56.4975 557.909 52.7445 554.141 47.116C550.377 52.7445 543.63 56.4975 535.933 56.4975C530.119 56.4975 524.854 54.3567 521.003 50.886V70.4889ZM475.52 22.5343C482.133 22.5343 488.135 26.3555 490.331 32.321H460.685C462.878 26.3555 468.904 22.5343 475.52 22.5343ZM475.52 56.4115C485.595 56.4115 494.202 50.2416 496.571 41.3701H490.221C488.034 47.0557 482.152 50.8769 475.52 50.8769C467.459 50.8769 460.758 45.3568 459.97 37.8629H497.192V36.702C497.192 25.8347 487.466 16.9948 475.52 16.9948C463.563 16.9948 453.834 25.8347 453.834 36.702C453.834 47.5668 463.563 56.4115 475.52 56.4115ZM354.644 32.321C352.449 26.3555 346.447 22.5343 339.834 22.5343C333.218 22.5343 327.192 26.3555 324.999 32.321H354.644ZM360.885 41.3701C358.516 50.2416 349.908 56.4115 339.834 56.4115C327.877 56.4115 318.148 47.5668 318.148 36.702C318.148 25.8347 327.877 16.9948 339.834 16.9948C351.78 16.9948 361.506 25.8347 361.506 36.702V37.8629H324.284C325.071 45.3568 331.773 50.8769 339.834 50.8769C346.465 50.8769 352.347 47.0557 354.535 41.3701H360.885ZM171.58 32.1653H143.014C145.127 26.512 150.934 21.9633 157.308 21.9633C163.68 21.9633 169.464 26.512 171.58 32.1653ZM178.107 41.7014H171.831C169.67 47.3869 163.857 51.2081 157.303 51.2081C149.337 51.2081 142.715 45.6881 141.937 38.1942H178.721V37.0332C178.721 26.1659 169.109 17.326 157.303 17.326C145.487 17.326 135.873 26.1659 135.873 37.0332C135.873 47.898 145.487 56.7428 157.303 56.7428C167.259 56.7428 175.766 50.5729 178.107 41.7014ZM456.725 19.8103L440.67 56.4115H432.306L416.257 19.8103H423.567L436.487 49.2686L449.407 19.8103H456.725ZM385.162 5.73288V46.9186C385.183 48.9669 386.449 50.5665 388.954 50.5665H404.695V56.4115L383.005 56.4091C380.268 56.4091 378.68 54.8485 378.68 52.5905V5.73288H385.162ZM413.366 11.3638H407.585V5.73288H413.366V11.3638ZM254.896 36.4548C254.896 25.25 245.57 16.1667 234.067 16.1667C222.563 16.1667 213.238 25.25 213.238 36.4548C213.238 47.6595 222.563 56.7428 234.067 56.7428C245.57 56.7428 254.896 47.6595 254.896 36.4548ZM219.364 36.4548C219.364 28.5455 225.947 22.1338 234.067 22.1338C242.187 22.1338 248.769 28.5455 248.769 36.4548C248.769 44.364 242.187 50.7757 234.067 50.7757C225.947 50.7757 219.364 44.364 219.364 36.4548ZM314.407 4.03223V37.0344C314.407 47.919 305.348 56.7428 294.173 56.7428C282.998 56.7428 273.939 47.919 273.939 37.0344C273.939 26.1498 282.998 17.326 294.173 17.326C299.748 17.326 304.796 19.522 308.456 23.0744V4.03223H314.407ZM279.891 37.0344C279.891 29.3511 286.285 23.1226 294.173 23.1226C302.061 23.1226 308.456 29.3511 308.456 37.0344C308.456 44.7177 302.061 50.9462 294.173 50.9462C286.285 50.9462 279.891 44.7177 279.891 37.0344ZM208.737 56.7035L208.736 56.7428H213.476L213.476 51.0387L209.855 51.0382L209.443 51.0323C206.109 50.9265 204.827 49.4797 204.782 45.8271L204.782 21.9633H213.476V17.326H204.782L204.782 3.41425H199.193V45.8633L199.209 46.4347C199.471 52.4554 202.695 56.0835 208.235 56.6613L208.737 56.7035ZM104.044 16.1667V40.6919C104.044 47.9564 107.339 51.1089 114.985 51.1089C122.43 51.1089 125.749 48.1202 125.919 41.2569L125.926 40.6919V16.1667H131.877V40.6919C131.877 51.1812 125.894 56.9055 114.985 56.9055C104.299 56.9055 98.3395 51.4124 98.1007 41.3281L98.0932 40.6919V16.1667H104.044ZM81.1995 3.36091L81.4806 3.37388C90.9168 4.24608 95.874 10.4706 95.874 20.9491C95.874 31.2248 91.092 37.3272 81.824 38.1808L81.1995 38.23L68.57 38.2285L68.5696 56.7428H62.6185V6.2592C62.6185 4.75856 63.7894 3.5243 65.2898 3.37588L65.5941 3.36091H81.1995ZM81.0269 9.15518H68.57V32.4319L80.9978 32.4401C86.9455 32.0465 89.76 28.7841 89.916 21.5938L89.9229 20.9491C89.9229 13.5019 87.2409 9.9214 81.4385 9.20072L81.0269 9.15518Z" fill="#833177"/>
</svg>
