<svg width="856" height="139" viewBox="0 0 856 139" fill="none" xmlns="http://www.w3.org/2000/svg">
<g clip-path="url(#clip0_1107_14088)">
<path d="M103.126 114.957C100.715 120.145 97.2795 124.53 92.9673 128.111C88.5821 131.619 83.3928 134.323 77.3997 136.223C71.3334 138.05 64.6825 139 57.3006 139C46.9953 139 36.9092 137.246 26.9694 133.738C17.0295 130.23 8.03971 124.749 -0.072998 117.441L17.468 96.3939C23.6804 101.437 29.9659 105.383 36.4707 108.379C42.9755 111.376 50.065 112.837 57.8122 112.837C64.0247 112.837 68.7754 111.741 72.2105 109.475C75.6456 107.21 77.3266 104.141 77.3266 100.121V99.7557C77.3266 97.7825 76.9612 96.1016 76.3034 94.64C75.6456 93.1784 74.2569 91.7899 72.2105 90.4744C70.2371 89.232 67.4598 87.9166 63.8785 86.6011C60.2972 85.3587 55.6927 83.9702 50.065 82.5817C43.1948 80.9008 37.0554 79.0738 31.5008 76.9544C25.9461 74.9081 21.2685 72.3503 17.3949 69.354C13.5213 66.3577 10.5247 62.5575 8.40514 58.0264C6.28561 53.4954 5.1893 47.9413 5.1893 41.2178V40.8524C5.1893 34.6405 6.3587 29.0864 8.62441 24.1169C10.8901 19.1474 14.1791 14.9087 18.2719 11.2546C22.3648 7.60058 27.4079 4.89659 33.1818 2.9234C38.9557 1.02329 45.3143 0.0732422 52.2576 0.0732422C62.1975 0.0732422 71.2603 1.53486 79.5923 4.53118C87.9243 7.5275 95.5254 11.7662 102.469 17.2473L87.0472 39.61C80.981 35.5175 75.0609 32.2289 69.287 29.8903C63.5131 27.5517 57.6661 26.3093 51.8922 26.3093C46.1183 26.3093 41.733 27.4055 38.8826 29.671C36.0322 31.9365 34.5704 34.7136 34.5704 38.0753V38.4407C34.5704 40.6332 35.009 42.5333 35.8129 44.1411C36.6169 45.7488 38.1517 47.2105 40.3444 48.5259C42.537 49.8414 45.5336 51.0107 49.3341 52.18C53.1347 53.3493 57.9584 54.6647 63.7323 56.2725C70.6026 58.0995 76.6688 60.0727 82.0042 62.3382C87.3396 64.6037 91.871 67.3077 95.5254 70.4502C99.1797 73.5927 101.957 77.3198 103.857 81.5585C105.685 85.7972 106.635 90.9129 106.635 96.8324V97.1978C106.635 103.921 105.392 109.841 102.98 115.03L103.126 114.957Z" fill="#888B8D"/>
<path d="M135.358 137.1V1.90039H237.096V28.3557H164.666V55.7611H228.398V82.2164H164.666V110.572H238.046V137.027H135.285L135.358 137.1Z" fill="#888B8D"/>
<path d="M388.313 96.1748C384.805 104.433 379.908 111.522 373.55 117.588C367.191 123.653 359.59 128.404 350.747 131.838C341.903 135.346 332.255 137.027 321.658 137.027H268.962V1.90039H321.658C332.182 1.90039 341.903 3.58125 350.747 7.01606C359.517 10.4509 367.191 15.2011 373.55 21.1938C379.908 27.2595 384.878 34.3483 388.313 42.5334C391.822 50.7185 393.503 59.5613 393.503 69.0618V69.4272C393.503 78.9277 391.749 87.8436 388.313 96.1018V96.1748ZM362.44 69.5003C362.44 63.5807 361.417 58.0997 359.444 53.0571C357.471 48.0145 354.693 43.7027 351.112 40.1217C347.604 36.5408 343.292 33.7637 338.249 31.7174C333.206 29.7442 327.651 28.7211 321.658 28.7211H298.708V110.206H321.658C327.724 110.206 333.279 109.256 338.249 107.356C343.292 105.383 347.531 102.679 351.112 99.025C354.62 95.444 357.397 91.2053 359.444 86.3089C361.417 81.4125 362.44 75.9314 362.44 69.8657V69.5003Z" fill="#888B8D"/>
<path d="M422.153 137.1V1.90039H523.891V28.3557H451.461V55.7611H515.193V82.2164H451.461V110.572H524.841V137.027H422.08L422.153 137.1Z" fill="#888B8D"/>
<path d="M661.587 137.1V48.8184L623.582 106.552H622.778L585.138 49.403V137.1H555.757V1.90039H587.769L623.29 59.0497L658.81 1.90039H690.822V137.027H661.441L661.587 137.1Z" fill="#888B8D"/>
<path d="M824.938 137.1L812.586 106.771H755.432L743.08 137.1H712.749L770.634 0.950195H798.042L856 137.1H824.938ZM784.009 36.6868L766.029 80.5354H801.915L783.936 36.6868H784.009Z" fill="#888B8D"/>
</g>
<defs>
<clipPath id="clip0_1107_14088">
<rect width="856" height="139" fill="white"/>
</clipPath>
</defs>
</svg>
