<svg width="34" height="35" viewBox="0 0 34 35" fill="none" xmlns="http://www.w3.org/2000/svg">
<mask id="mask0_2486_10983" style="mask-type:alpha" maskUnits="userSpaceOnUse" x="0" y="0" width="34" height="35">
<rect y="0.832031" width="33.3333" height="33.3333" fill="#D9D9D9"/>
</mask>
<g mask="url(#mask0_2486_10983)">
<path d="M2.77783 10.5538V3.60938H9.72228V6.38715H5.55561V10.5538H2.77783ZM2.77783 31.3872V24.4427H5.55561V28.6094H9.72228V31.3872H2.77783ZM23.6112 31.3872V28.6094H27.7778V24.4427H30.5556V31.3872H23.6112ZM27.7778 10.5538V6.38715H23.6112V3.60938H30.5556V10.5538H27.7778ZM24.3056 25.1372H26.3889V27.2205H24.3056V25.1372ZM24.3056 20.9705H26.3889V23.0538H24.3056V20.9705ZM22.2223 23.0538H24.3056V25.1372H22.2223V23.0538ZM20.1389 25.1372H22.2223V27.2205H20.1389V25.1372ZM18.0556 23.0538H20.1389V25.1372H18.0556V23.0538ZM22.2223 18.8872H24.3056V20.9705H22.2223V18.8872ZM20.1389 20.9705H22.2223V23.0538H20.1389V20.9705ZM18.0556 18.8872H20.1389V20.9705H18.0556V18.8872ZM26.3889 7.77604V16.1094H18.0556V7.77604H26.3889ZM15.2778 18.8872V27.2205H6.9445V18.8872H15.2778ZM15.2778 7.77604V16.1094H6.9445V7.77604H15.2778ZM13.1945 25.1372V20.9705H9.02783V25.1372H13.1945ZM13.1945 14.026V9.85938H9.02783V14.026H13.1945ZM24.3056 14.026V9.85938H20.1389V14.026H24.3056Z" fill="#FF2079"/>
</g>
</svg>
