<svg width="70" height="70" viewBox="0 0 70 70" fill="none" xmlns="http://www.w3.org/2000/svg">
<path fill-rule="evenodd" clip-rule="evenodd" d="M4.375 63.625C4.375 64.7296 5.27043 65.625 6.375 65.625H63.625C64.7296 65.625 65.625 64.7296 65.625 63.625V6.375C65.625 5.27043 64.7296 4.375 63.625 4.375H6.375C5.27043 4.375 4.375 5.27043 4.375 6.375V63.625Z" fill="#040304"/>
<path fill-rule="evenodd" clip-rule="evenodd" d="M22.0422 51.0014V35.664H23.9947C26.0092 35.664 28.5373 35.4583 30.0168 34.456C31.6203 33.4029 31.8051 31.9181 31.8051 31.0552V23.1117C31.8051 21.4151 31.3738 20.0281 29.7497 19.0008C28.4128 18.156 26.1709 18.1914 25.2348 18.2062C25.1345 18.2078 25.0492 18.2091 24.9816 18.2091H14.7871V18.9805H16.1847V51.0014H14.7871V51.7518H23.4604V51.0014H22.0422ZM25.9886 21.0628C25.9885 21.0944 25.9885 21.1263 25.9885 21.1586V32.5971C25.9885 32.6586 25.9908 32.7286 25.9934 32.8049C26.0079 33.2316 26.0289 33.8549 25.6799 34.2816C25.331 34.6926 24.7967 34.9295 24.1389 34.9295H22.0423V18.9806H23.7891C24.6111 18.9806 25.2282 19.0674 25.6392 19.5608C25.9904 20.0042 25.9896 20.4762 25.9886 21.0628ZM55.1709 46.8707V39.3279C55.1709 37.8014 54.761 36.9741 53.8358 36.1835C52.8167 35.302 51.5121 35.0248 50.7617 34.8653C50.3918 34.7867 50.1566 34.7368 50.1566 34.6571C50.1435 34.6122 50.253 34.5758 50.4571 34.5078C50.9061 34.3583 51.8127 34.0564 52.8797 33.1772C54.0222 32.1916 54.001 30.6151 54 30.5392C54 30.538 54 30.5371 54 30.5367V22.4947C54 22.4938 54.0001 22.4913 54.0004 22.4874C54.008 22.3603 54.1085 20.6903 52.3144 19.3195C51.1834 18.4871 50.0533 18.2092 48.5526 18.2092H36.5093V18.9807H37.9075V51.0014H36.5093V51.7519H49.1496C50.259 51.7519 52.9113 51.4952 54.164 50.1136C55.0685 49.0959 55.1709 48.1499 55.1709 46.8707ZM46.8471 51.0014H43.7446V35.2741H47.3608C48.0194 35.2741 48.6151 35.3916 48.9641 35.7923C49.2937 36.1835 49.3138 36.595 49.3138 37.0977V48.9368C49.3138 49.6144 49.1082 50.1136 48.5526 50.5808C48.0194 51.0014 46.971 51.0014 46.8471 51.0014ZM43.7446 34.3801V18.9807H46.2314C46.2715 18.9807 47.6189 18.9807 47.8954 19.3551C48.1958 19.7061 48.1707 20.655 48.1639 20.9135C48.1633 20.9388 48.1628 20.9574 48.1628 20.9683V32.7609C48.1628 32.8114 48.1655 32.8683 48.1685 32.9298C48.1837 33.2429 48.2046 33.6742 47.8954 33.9842C47.5421 34.3867 46.9445 34.3814 46.8022 34.3802C46.7956 34.3801 46.79 34.3801 46.7854 34.3801H43.7446Z" fill="white"/>
</svg>
