<svg width="190" height="25" viewBox="0 0 190 25" fill="none" xmlns="http://www.w3.org/2000/svg">
<path fill-rule="evenodd" clip-rule="evenodd" d="M130.875 14.1275V16.9447C130.875 17.4097 130.849 17.7653 130.502 18.1482C130.049 18.6679 129.09 18.75 128.69 18.75H124.107V18.4765H124.613V6.55088H124.107V6.25H128.477C129.01 6.25 129.436 6.35941 129.836 6.66028C130.502 7.17998 130.449 7.83643 130.449 7.83643V10.8452C130.449 10.8452 130.476 11.4469 130.049 11.8299C129.673 12.1424 129.345 12.2572 129.179 12.3155C129.097 12.344 129.055 12.359 129.063 12.3769C129.063 12.4033 129.143 12.4212 129.27 12.4496C129.538 12.5097 130.016 12.6171 130.396 12.9513C130.716 13.2522 130.875 13.5804 130.875 14.1275ZM126.718 18.4765H127.837C127.891 18.4765 128.264 18.4765 128.45 18.3124C128.664 18.1483 128.717 17.9568 128.717 17.7106V13.3069C128.717 13.1155 128.717 12.9787 128.584 12.8146C128.45 12.6778 128.237 12.6231 127.997 12.6231H126.718V18.4765ZM126.718 6.55088V12.2949H127.811C127.837 12.2949 128.077 12.2949 128.21 12.1581C128.325 12.0401 128.321 11.8815 128.318 11.7523L128.318 11.7519C128.318 11.7314 128.317 11.7118 128.317 11.6931V7.2894C128.317 7.28628 128.317 7.28202 128.317 7.27673L128.318 7.2647L128.318 7.26399C128.321 7.15761 128.331 6.81113 128.21 6.68765C128.104 6.55088 127.624 6.55088 127.598 6.55088H126.718ZM7.37977 12.7613V18.4765H7.9064V18.75H4.63574V18.4765H5.16237V6.55383H4.63574V6.25303H8.48846C8.51566 6.25303 8.54952 6.2525 8.58901 6.25189C8.95199 6.24624 9.79013 6.23321 10.2901 6.55383C10.8999 6.93667 11.0662 7.45624 11.0662 8.08519V11.0385C11.0662 11.3667 10.983 11.9136 10.401 12.2964C9.84662 12.6793 8.87651 12.734 8.12814 12.734H7.37977V12.7613ZM8.87648 7.37418C8.87648 7.12807 8.87648 6.96399 8.73789 6.77257C8.57159 6.58115 8.34985 6.55381 8.04496 6.55381H7.37974V12.4878H8.18354C8.433 12.4878 8.62702 12.4058 8.76561 12.2417C8.90112 12.0857 8.88941 11.8753 8.88042 11.7139C8.87838 11.6773 8.87648 11.6431 8.87648 11.6128V7.37418ZM27.3115 16.9082C27.3115 18.0348 26.5767 18.7767 24.5903 18.7493C22.4678 18.7493 21.8963 18.0348 21.8963 16.9082V9.32434C21.8963 7.97793 22.8215 7.29098 24.6447 7.2635C26.3863 7.2635 27.3115 8.14279 27.3115 9.32434V16.9082ZM25.3522 8.36262C25.3522 7.73062 25.1073 7.48332 24.6447 7.48332C24.1277 7.48332 23.8284 7.70315 23.8284 8.36262V17.7051C23.8284 18.1722 23.9917 18.5569 24.5631 18.5569C25.1346 18.5569 25.3522 18.3096 25.3522 17.7051V8.36262ZM44.5721 9.82566V7.60136H38.8186V9.82566H39.1143V8.08962H40.7275V18.4787H40.2704V18.75H43.1203V18.4787H42.6633V8.08962H44.3033V9.82566H44.5721ZM61.8328 7.60136V9.82566H61.5371V8.08962H59.897V18.4787H60.381V18.75H57.5311V18.4787H57.9882V8.08962H56.375V9.82566H56.0793V7.60136H61.8328ZM77.7869 12.8095H75.6957V8.08962H77.7869V9.77141H78.0781V7.60136H73.3399V7.84549H73.8163V18.4787H73.3399V18.75H78.0781V16.5528H77.7869V18.2346H75.6957V13.2977H77.7869V14.3014H78.0781V11.833H77.7869V12.8095ZM93.7037 13.0415C93.7037 13.0731 93.8165 13.1006 93.9839 13.1414C94.2487 13.2059 94.65 13.3037 94.9572 13.5036C95.4864 13.8298 95.5143 14.2104 95.5143 14.6997V18.5054H96.0157V18.75H93.5365V14.2919C93.5365 14.2351 93.5387 14.1789 93.5408 14.1238C93.5519 13.8364 93.5619 13.5773 93.258 13.3948C93.0654 13.2774 92.748 13.2817 92.5035 13.2851L92.449 13.2858C92.4302 13.286 92.412 13.2861 92.3945 13.2861H91.7259V18.5054H92.1995V18.75H89.2468V18.5054H89.7482V7.84941H89.2468V7.60475H92.7287C92.7546 7.60475 92.7873 7.60417 92.8257 7.60349C93.1593 7.59759 93.9226 7.58406 94.3722 7.87659C94.9293 8.22998 95.0686 8.6921 95.0686 9.23577V11.6279L95.0687 11.6462C95.0702 11.7877 95.0754 12.2983 94.6507 12.6609C94.3771 12.8568 94.0555 12.936 93.8663 12.9826C93.7666 13.0072 93.7037 13.0227 93.7037 13.0415ZM93.0641 8.49093V8.4905C93.0675 8.31777 93.0703 8.17873 92.9515 8.03969C92.7844 7.87659 92.5337 7.84941 92.3387 7.84941H91.7259V13.0686H92.4501C92.673 13.0686 92.868 12.9871 92.9794 12.8512C93.1005 12.7093 93.0952 12.4852 93.0918 12.3398C93.0913 12.318 93.0908 12.298 93.0908 12.2803V8.58336H93.063C93.063 8.5516 93.0636 8.52099 93.0641 8.49137V8.49093ZM106.633 7.84549L108.68 14.7625V18.4787H108.189V18.75H111.082V18.4787H110.618V14.7897L112.447 7.84549H112.938V7.60136H111.355V7.84549H111.819L110.29 13.7046L108.598 7.84549H109.062V7.60136H106.169V7.84549H106.633ZM144.935 7.84549H145.427L143.158 18.5059H142.721V18.75H144.252V18.5059H143.76L144.416 15.3864H146.821L147.286 18.5059H146.876V18.75H149.828V18.5059H149.336L147.395 7.84549H147.942V7.60136H144.935V7.84549ZM146.739 14.9524H144.525L145.701 8.90341L146.739 14.9524ZM165.51 13.0415C165.51 13.0732 165.619 13.1009 165.783 13.1421C166.04 13.2066 166.429 13.3045 166.735 13.5036C167.264 13.8298 167.292 14.2104 167.292 14.6997V18.5054H167.766V18.75H165.287V14.2919C165.287 14.2351 165.289 14.1789 165.291 14.1238C165.302 13.8364 165.312 13.5773 165.008 13.3948C164.816 13.2774 164.498 13.2817 164.254 13.2851C164.215 13.2856 164.179 13.2861 164.145 13.2861H163.476V18.5054H163.95V18.75H160.997V18.5054H161.498V7.84941H160.997V7.60475H164.479C164.501 7.60475 164.53 7.60421 164.565 7.60355C164.877 7.59767 165.646 7.58318 166.122 7.87659C166.679 8.22998 166.819 8.6921 166.819 9.23577V11.6279L166.819 11.6462C166.82 11.7877 166.826 12.2983 166.401 12.6609C166.178 12.8602 165.856 12.9388 165.666 12.9851C165.571 13.0082 165.51 13.0233 165.51 13.0415ZM164.898 8.49203L164.898 8.49051C164.901 8.31778 164.904 8.17874 164.785 8.03969C164.618 7.87659 164.367 7.84941 164.172 7.84941H163.56V13.0686H164.284C164.507 13.0686 164.702 12.9871 164.813 12.8512C164.934 12.7093 164.929 12.4852 164.926 12.3398C164.925 12.318 164.925 12.298 164.925 12.2803V8.58336H164.897C164.897 8.55183 164.897 8.52144 164.898 8.49203ZM180.335 9.47303L182.766 18.75H184.862V7.84549H185.365V7.60136H183.8V7.84549H184.275V17.2581L181.76 7.60136H179.273V7.84549H179.748V18.4787H179.273V18.75H180.838V18.4787H180.335V9.47303Z" fill="black"/>
</svg>
