<svg xmlns="http://www.w3.org/2000/svg" width="25" height="24" fill="none" viewBox="0 0 25 24"><rect width="21" height="21" x="2.167" y="1.5" fill="#0f4dbc" rx="10.5"/><path fill="#fff" d="M16.182 8.253c-2.031-1.047-4.037-1.158-5.284-.784-2.306.692-3.021 3.622-.884 5.059.129.087.048.27-.114.561-.2.364-.572 1.078-1.228 1.593-.395.311-.652.44-.327.824 0 0 .722.809 1.257 1.044.643.282.804.234 1.283-.214.301-.282.898-1.052 1.618-2.28.374-.637.873-.65.806.4 0 0-.099 1.01-.127 1.22-.08.602-.017.81.522.815 0 0 1.159-.064 1.56-.12.566-.077.536-.169.684-.615.79-2.382.857-6.47.857-6.47.035-.55-.138-.783-.623-1.033m-1.483 2.204-.737.506c-.061.047-.145.104-.156.332-.005.095-.033.767-.034.852-.002.092-.042.345-.335.088l-.562-.492c-.017-.015-.184-.206-.446-.093l-.767.307s-.461.188-.29-.226c.166-.404.278-.738.316-.846a.41.41 0 0 0-.07-.383c-.042-.05-.41-.537-.494-.657 0 0-.303-.36.201-.335l.875.02c.015.002.176.013.29-.168.142-.223.558-.745.472-.634.072-.092.24-.32.352.058 0 0 .159.497.234.706.052.142.084.237.34.32l.79.286s.37.114.021.359"/></svg>