<svg xmlns="http://www.w3.org/2000/svg" width="25" height="24" fill="none" viewBox="0 0 25 24"><rect width="21" height="21" x="2.167" y="1.5" fill="#040304" rx="10.5"/><path fill="#fff" d="M9.882 7.502c.194 0 .915-.04 1.328.22.452.287.573.674.573 1.146v2.213c0 .24-.053.654-.5.947-.411.28-1.115.336-1.676.336h-.544v4.274h.395v.209H7.042v-.21h.39v-8.92h-.39v-.215zm6.566 0c.418 0 .733.078 1.048.31.515.393.47.876.47.885v2.24c0 .012.009.458-.313.735-.432.356-.769.372-.758.412 0 .067.6.06 1.025.426.257.22.372.45.372.876v2.1c0 .357-.029.62-.28.904-.35.385-1.089.457-1.398.457h-3.52v-.21h.388v-8.92h-.389v-.215zm-1.339 9.136h.864c.037 0 .327 0 .475-.117a.55.55 0 0 0 .212-.458v-3.298c0-.14-.006-.255-.098-.364-.097-.112-.263-.145-.446-.145h-1.007zM9.063 12.16h.584a.55.55 0 0 0 .429-.18.44.44 0 0 0 .086-.245V8.198a.5.5 0 0 0-.097-.319c-.114-.137-.287-.162-.516-.162h-.486zm6.046-.153h.847c.029 0 .206.007.31-.11.102-.104.074-.255.074-.341V8.27c0-.036.017-.342-.075-.45-.076-.103-.45-.104-.464-.104h-.692z"/></svg>