<svg width="81" height="80" viewBox="0 0 81 80" fill="none" xmlns="http://www.w3.org/2000/svg">
<mask id="mask0_1264_2960" style="mask-type:alpha" maskUnits="userSpaceOnUse" x="10" y="10" width="61" height="60">
<rect x="10.5" y="10" width="60" height="60" fill="#D9D9D9"/>
</mask>
<g mask="url(#mask0_1264_2960)">
<path d="M43 37.5H60.375C59.75 32.9167 57.8438 29.0313 54.6563 25.8438C51.4688 22.6563 47.5833 20.75 43 20.125V37.5ZM38 59.875V20.125C32.9583 20.75 28.7812 22.9479 25.4687 26.7188C22.1562 30.4896 20.5 34.9167 20.5 40C20.5 45.0833 22.1562 49.5104 25.4687 53.2812C28.7812 57.0521 32.9583 59.25 38 59.875ZM43 59.875C47.5833 59.2917 51.4792 57.3958 54.6875 54.1875C57.8958 50.9792 59.7917 47.0833 60.375 42.5H43V59.875ZM40.5 65C37.0417 65 33.7917 64.3437 30.75 63.0312C27.7083 61.7187 25.0625 59.9375 22.8125 57.6875C20.5625 55.4375 18.7813 52.7917 17.4688 49.75C16.1562 46.7083 15.5 43.4583 15.5 40C15.5 36.5417 16.1562 33.2917 17.4688 30.25C18.7813 27.2083 20.5625 24.5625 22.8125 22.3125C25.0625 20.0625 27.7083 18.2813 30.75 16.9688C33.7917 15.6562 37.0417 15 40.5 15C43.9583 15 47.1979 15.6562 50.2187 16.9688C53.2396 18.2813 55.8854 20.0729 58.1562 22.3438C60.4271 24.6146 62.2187 27.2604 63.5312 30.2813C64.8437 33.3021 65.5 36.5417 65.5 40C65.5 43.4167 64.8437 46.6458 63.5312 49.6875C62.2187 52.7292 60.4375 55.3854 58.1875 57.6562C55.9375 59.9271 53.2917 61.7187 50.25 63.0312C47.2083 64.3437 43.9583 65 40.5 65Z" fill="#E6E6E6"/>
</g>
</svg>
