<svg width="50" height="50" viewBox="0 0 50 50" fill="none" xmlns="http://www.w3.org/2000/svg">
<mask id="mask0_553_16414" style="mask-type:alpha" maskUnits="userSpaceOnUse" x="0" y="0" width="50" height="50">
<rect width="50" height="50" fill="#D9D9D9"/>
</mask>
<g mask="url(#mask0_553_16414)">
<path d="M20.3125 43.75C18.5417 43.75 17.0139 43.1337 15.7292 41.901C14.4444 40.6684 13.7153 39.184 13.5417 37.4479C11.4583 37.1701 9.72222 36.25 8.33333 34.6875C6.94444 33.125 6.25 31.2847 6.25 29.1667C6.25 28.4375 6.34549 27.717 6.53646 27.0052C6.72743 26.2934 7.01389 25.625 7.39583 25C7.01389 24.375 6.72743 23.7153 6.53646 23.0208C6.34549 22.3264 6.25 21.5972 6.25 20.8333C6.25 18.7153 6.94444 16.8837 8.33333 15.3385C9.72222 13.7934 11.441 12.8819 13.4896 12.6042C13.5938 10.8333 14.3056 9.3316 15.625 8.09896C16.9444 6.86632 18.5069 6.25 20.3125 6.25C21.2153 6.25 22.0573 6.42361 22.8385 6.77083C23.6198 7.11806 24.3403 7.58681 25 8.17708C25.625 7.58681 26.3368 7.11806 27.1354 6.77083C27.934 6.42361 28.7847 6.25 29.6875 6.25C31.4931 6.25 33.0469 6.85764 34.349 8.07292C35.651 9.28819 36.3542 10.7812 36.4583 12.5521C38.5069 12.8299 40.2344 13.75 41.6406 15.3125C43.0469 16.875 43.75 18.7153 43.75 20.8333C43.75 21.5972 43.6545 22.3264 43.4635 23.0208C43.2726 23.7153 42.9861 24.375 42.6042 25C42.9861 25.625 43.2726 26.2934 43.4635 27.0052C43.6545 27.717 43.75 28.4375 43.75 29.1667C43.75 31.3194 43.0469 33.1684 41.6406 34.7135C40.2344 36.2587 38.4896 37.1701 36.4062 37.4479C36.2326 39.184 35.5122 40.6684 34.2448 41.901C32.9774 43.1337 31.4583 43.75 29.6875 43.75C28.8194 43.75 27.9774 43.5851 27.1615 43.2552C26.3455 42.9253 25.625 42.4653 25 41.875C24.3403 42.4653 23.6111 42.9253 22.8125 43.2552C22.0139 43.5851 21.1806 43.75 20.3125 43.75ZM27.0833 13.0208V36.9792C27.0833 37.7083 27.3351 38.3246 27.8385 38.8281C28.342 39.3316 28.9583 39.5833 29.6875 39.5833C30.3819 39.5833 30.9809 39.3056 31.4844 38.75C31.9878 38.1944 32.2569 37.5694 32.2917 36.875C31.5625 36.5972 30.8941 36.224 30.2865 35.7552C29.6788 35.2865 29.1319 34.7222 28.6458 34.0625C28.2986 33.5764 28.1684 33.0556 28.2552 32.5C28.342 31.9444 28.6285 31.4931 29.1146 31.1458C29.6007 30.7986 30.1215 30.6684 30.6771 30.7552C31.2326 30.842 31.684 31.1285 32.0312 31.6146C32.4132 32.1701 32.8993 32.5955 33.4896 32.8906C34.0799 33.1858 34.7222 33.3333 35.4167 33.3333C36.5625 33.3333 37.5434 32.9253 38.3594 32.1094C39.1753 31.2934 39.5833 30.3125 39.5833 29.1667C39.5833 28.9931 39.5747 28.8194 39.5573 28.6458C39.5399 28.4722 39.4965 28.2986 39.4271 28.125C38.8368 28.4722 38.2031 28.7326 37.526 28.9062C36.849 29.0799 36.1458 29.1667 35.4167 29.1667C34.8264 29.1667 34.3316 28.967 33.9323 28.5677C33.533 28.1684 33.3333 27.6736 33.3333 27.0833C33.3333 26.4931 33.533 25.9983 33.9323 25.599C34.3316 25.1997 34.8264 25 35.4167 25C36.5625 25 37.5434 24.592 38.3594 23.776C39.1753 22.9601 39.5833 21.9792 39.5833 20.8333C39.5833 19.6875 39.1753 18.7153 38.3594 17.9167C37.5434 17.1181 36.5625 16.7014 35.4167 16.6667C35.0347 17.2917 34.5399 17.8385 33.9323 18.3073C33.3247 18.776 32.6562 19.1493 31.9271 19.4271C31.3715 19.6354 30.8333 19.6181 30.3125 19.375C29.7917 19.1319 29.4444 18.7326 29.2708 18.1771C29.0972 17.6215 29.1233 17.0833 29.349 16.5625C29.5747 16.0417 29.9653 15.6944 30.5208 15.5208C31.0417 15.3472 31.467 15.0347 31.7969 14.5833C32.1267 14.1319 32.2917 13.6111 32.2917 13.0208C32.2917 12.2917 32.0399 11.6753 31.5365 11.1719C31.033 10.6684 30.4167 10.4167 29.6875 10.4167C28.9583 10.4167 28.342 10.6684 27.8385 11.1719C27.3351 11.6753 27.0833 12.2917 27.0833 13.0208ZM22.9167 36.9792V13.0208C22.9167 12.2917 22.6649 11.6753 22.1615 11.1719C21.658 10.6684 21.0417 10.4167 20.3125 10.4167C19.5833 10.4167 18.967 10.6684 18.4635 11.1719C17.9601 11.6753 17.7083 12.2917 17.7083 13.0208C17.7083 13.5764 17.8646 14.0885 18.1771 14.5573C18.4896 15.026 18.9062 15.3472 19.4271 15.5208C19.9826 15.6944 20.3819 16.0417 20.625 16.5625C20.8681 17.0833 20.9028 17.6215 20.7292 18.1771C20.5208 18.7326 20.1562 19.1319 19.6354 19.375C19.1146 19.6181 18.5764 19.6354 18.0208 19.4271C17.2917 19.1493 16.6233 18.776 16.0156 18.3073C15.408 17.8385 14.9132 17.2917 14.5312 16.6667C13.4201 16.7014 12.4566 17.1267 11.6406 17.9427C10.8247 18.7587 10.4167 19.7222 10.4167 20.8333C10.4167 21.9792 10.8247 22.9601 11.6406 23.776C12.4566 24.592 13.4375 25 14.5833 25C15.1736 25 15.6684 25.1997 16.0677 25.599C16.467 25.9983 16.6667 26.4931 16.6667 27.0833C16.6667 27.6736 16.467 28.1684 16.0677 28.5677C15.6684 28.967 15.1736 29.1667 14.5833 29.1667C13.8542 29.1667 13.151 29.0799 12.474 28.9062C11.7969 28.7326 11.1632 28.4722 10.5729 28.125C10.5035 28.2986 10.4601 28.4722 10.4427 28.6458C10.4253 28.8194 10.4167 28.9931 10.4167 29.1667C10.4167 30.3125 10.8247 31.2934 11.6406 32.1094C12.4566 32.9253 13.4375 33.3333 14.5833 33.3333C15.2778 33.3333 15.9201 33.1858 16.5104 32.8906C17.1007 32.5955 17.5868 32.1701 17.9688 31.6146C18.316 31.1285 18.7674 30.842 19.3229 30.7552C19.8785 30.6684 20.3993 30.7986 20.8854 31.1458C21.3715 31.4931 21.658 31.9444 21.7448 32.5C21.8316 33.0556 21.7014 33.5764 21.3542 34.0625C20.8681 34.7222 20.3125 35.2951 19.6875 35.7812C19.0625 36.2674 18.3854 36.6493 17.6562 36.9271C17.691 37.6215 17.9688 38.2378 18.4896 38.776C19.0104 39.3142 19.6181 39.5833 20.3125 39.5833C21.0417 39.5833 21.658 39.3316 22.1615 38.8281C22.6649 38.3246 22.9167 37.7083 22.9167 36.9792Z" fill="#E6E6E6"/>
</g>
</svg>
