<svg width="50" height="50" viewBox="0 0 50 50" fill="none" xmlns="http://www.w3.org/2000/svg">
<mask id="mask0_553_16407" style="mask-type:alpha" maskUnits="userSpaceOnUse" x="0" y="0" width="50" height="50">
<rect width="50" height="50" fill="#D9D9D9"/>
</mask>
<g mask="url(#mask0_553_16407)">
<path d="M24.9992 33.3333C27.6034 33.3333 29.8169 32.4218 31.6398 30.5989C33.4627 28.776 34.3742 26.5624 34.3742 23.9583C34.3742 21.3541 33.4627 19.1405 31.6398 17.3176C29.8169 15.4947 27.6034 14.5833 24.9992 14.5833C22.395 14.5833 20.1815 15.4947 18.3586 17.3176C16.5356 19.1405 15.6242 21.3541 15.6242 23.9583C15.6242 26.5624 16.5356 28.776 18.3586 30.5989C20.1815 32.4218 22.395 33.3333 24.9992 33.3333ZM24.9992 29.5833C23.4367 29.5833 22.1086 29.0364 21.0148 27.9426C19.9211 26.8489 19.3742 25.5208 19.3742 23.9583C19.3742 22.3958 19.9211 21.0676 21.0148 19.9739C22.1086 18.8801 23.4367 18.3333 24.9992 18.3333C26.5617 18.3333 27.8898 18.8801 28.9836 19.9739C30.0773 21.0676 30.6242 22.3958 30.6242 23.9583C30.6242 25.5208 30.0773 26.8489 28.9836 27.9426C27.8898 29.0364 26.5617 29.5833 24.9992 29.5833ZM24.9992 39.5833C19.9297 39.5833 15.3117 38.1683 11.145 35.3385C6.97835 32.5086 3.95752 28.7152 2.08252 23.9583C3.95752 19.2013 6.97835 15.4079 11.145 12.578C15.3117 9.74818 19.9297 8.33325 24.9992 8.33325C30.0686 8.33325 34.6867 9.74818 38.8534 12.578C43.02 15.4079 46.0409 19.2013 47.9159 23.9583C46.0409 28.7152 43.02 32.5086 38.8534 35.3385C34.6867 38.1683 30.0686 39.5833 24.9992 39.5833ZM24.9992 35.4166C28.9228 35.4166 32.5252 34.3836 35.8065 32.3176C39.0877 30.2517 41.5964 27.4652 43.3325 23.9583C41.5964 20.4513 39.0877 17.6648 35.8065 15.5989C32.5252 13.5329 28.9228 12.4999 24.9992 12.4999C21.0756 12.4999 17.4731 13.5329 14.1919 15.5989C10.9106 17.6648 8.40196 20.4513 6.66585 23.9583C8.40196 27.4652 10.9106 30.2517 14.1919 32.3176C17.4731 34.3836 21.0756 35.4166 24.9992 35.4166Z" fill="#E6E6E6"/>
</g>
</svg>
