<svg width="81" height="80" viewBox="0 0 81 80" fill="none" xmlns="http://www.w3.org/2000/svg">
<mask id="mask0_1264_2859" style="mask-type:alpha" maskUnits="userSpaceOnUse" x="10" y="10" width="61" height="60">
<rect x="10.5" y="10" width="60" height="60" fill="#D9D9D9"/>
</mask>
<g mask="url(#mask0_1264_2859)">
<path d="M38.0005 15.125C38.4172 15.0833 38.8338 15.0521 39.2505 15.0313C39.6672 15.0104 40.0838 15 40.5005 15C40.9588 15 41.3859 15.0104 41.7817 15.0313C42.1776 15.0521 42.5838 15.0833 43.0005 15.125V20.125C42.5838 20.0417 42.1776 20 41.7817 20H39.2192C38.8234 20 38.4172 20.0417 38.0005 20.125V15.125ZM27.5005 18.625C28.2088 18.1667 28.9276 17.7708 29.6567 17.4375C30.3859 17.1042 31.1463 16.7917 31.938 16.5L34.1255 21C33.2922 21.25 32.5109 21.5521 31.7817 21.9063C31.0526 22.2604 30.3338 22.6667 29.6255 23.125L27.5005 18.625ZM51.3755 23.125C50.6672 22.6667 49.9484 22.2604 49.2192 21.9063C48.4901 21.5521 47.7088 21.25 46.8755 21L49.063 16.5C49.8547 16.7917 50.6151 17.1042 51.3442 17.4375C52.0734 17.7708 52.7922 18.1667 53.5005 18.625L51.3755 23.125ZM57.563 29.4375C57.1047 28.7292 56.6047 28.0521 56.063 27.4063C55.5213 26.7604 54.9588 26.1458 54.3755 25.5625L58.313 22.4375C58.8963 23.0208 59.4588 23.6354 60.0005 24.2813C60.5422 24.9271 61.0422 25.6042 61.5005 26.3125L57.563 29.4375ZM19.438 26.4375C19.8963 25.7292 20.3859 25.0521 20.9067 24.4063C21.4276 23.7604 21.9797 23.1458 22.563 22.5625L26.5005 25.6875C25.9172 26.2708 25.3651 26.8854 24.8442 27.5313C24.3234 28.1771 23.8338 28.8542 23.3755 29.5625L19.438 26.4375ZM15.688 36.75C15.7713 35.9167 15.9172 35.0938 16.1255 34.2813C16.3338 33.4688 16.563 32.6667 16.813 31.875L21.7505 33C21.4588 33.7917 21.2192 34.5938 21.0317 35.4063C20.8442 36.2188 20.7088 37.0417 20.6255 37.875L15.688 36.75ZM60.438 38.0625C60.3547 37.2292 60.2192 36.3958 60.0317 35.5625C59.8442 34.7292 59.6047 33.9167 59.313 33.125L64.188 32C64.438 32.7917 64.6672 33.5938 64.8755 34.4063C65.0838 35.2188 65.2297 36.0417 65.313 36.875L60.438 38.0625ZM59.313 46.875C59.6047 46.0833 59.8338 45.2917 60.0005 44.5C60.1672 43.7083 60.2922 42.8958 60.3755 42.0625L65.313 43.1875C65.2297 44.0208 65.0838 44.8437 64.8755 45.6562C64.6672 46.4687 64.438 47.2708 64.188 48.0625L59.313 46.875ZM20.6255 42.125C20.7088 42.9583 20.8442 43.7813 21.0317 44.5938C21.2192 45.4063 21.4588 46.2083 21.7505 47L16.813 48.125C16.563 47.3333 16.3338 46.5313 16.1255 45.7188C15.9172 44.9063 15.7713 44.0833 15.688 43.25L20.6255 42.125ZM54.563 54.25C55.1463 53.6667 55.688 53.0521 56.188 52.4063C56.688 51.7604 57.1672 51.0833 57.6255 50.375L61.6255 53.5C61.1672 54.2083 60.6776 54.8854 60.1567 55.5312C59.6359 56.1771 59.0838 56.7917 58.5005 57.375L54.563 54.25ZM22.6255 57.5C22.0422 56.9167 21.4901 56.2917 20.9692 55.625C20.4484 54.9583 19.9588 54.2708 19.5005 53.5625L23.3755 50.4375C23.8338 51.1458 24.3234 51.8333 24.8442 52.5C25.3651 53.1667 25.9172 53.7917 26.5005 54.375L22.6255 57.5ZM46.938 58.9375C47.7713 58.6458 48.5422 58.3333 49.2505 58C49.9588 57.6667 50.6672 57.2708 51.3755 56.8125L53.563 61.3125C52.8547 61.7708 52.1359 62.1771 51.4067 62.5313C50.6776 62.8854 49.9172 63.2083 49.1255 63.5L46.938 58.9375ZM32.0005 63.5625C31.2088 63.2708 30.438 62.9479 29.688 62.5938C28.938 62.2396 28.2088 61.8333 27.5005 61.375L29.688 56.875C30.3963 57.3333 31.1151 57.7396 31.8442 58.0938C32.5734 58.4479 33.3547 58.75 34.188 59L32.0005 63.5625ZM40.5005 65C40.0838 65 39.6672 64.9896 39.2505 64.9688C38.8338 64.9479 38.4172 64.9167 38.0005 64.875V59.875C38.5422 59.9583 39.3755 60 40.5005 60H41.7817C42.1776 60 42.5838 59.9583 43.0005 59.875V64.875C42.5838 64.9167 42.1776 64.9479 41.7817 64.9688C41.3859 64.9896 40.9588 65 40.5005 65ZM43.0005 55C41.4172 55 39.9692 54.5208 38.6567 53.5625C37.3442 52.6042 36.4172 51.375 35.8755 49.875C35.7505 49.5 35.6151 49.1354 35.4692 48.7812C35.3234 48.4271 35.1047 48.1042 34.813 47.8125L31.3755 44.375C30.2922 43.2917 29.4588 42.0521 28.8755 40.6562C28.2922 39.2604 28.0005 37.7917 28.0005 36.25C28.0005 33.125 29.0942 30.4688 31.2817 28.2812C33.4692 26.0938 36.1255 25 39.2505 25C42.1255 25 44.6255 25.9479 46.7505 27.8438C48.8755 29.7396 50.1047 32.125 50.438 35H45.3755C45.0838 33.5417 44.3651 32.3438 43.2192 31.4062C42.0734 30.4688 40.7505 30 39.2505 30C37.5005 30 36.0213 30.6042 34.813 31.8125C33.6047 33.0208 33.0005 34.5 33.0005 36.25C33.0005 37.0833 33.1672 37.9063 33.5005 38.7188C33.8338 39.5313 34.313 40.25 34.938 40.875L38.313 44.25C38.8963 44.8333 39.3651 45.4688 39.7192 46.1563C40.0734 46.8438 40.3755 47.5417 40.6255 48.25C40.8338 48.7917 41.1463 49.2188 41.563 49.5312C41.9797 49.8438 42.4588 50 43.0005 50C43.7088 50 44.3026 49.7604 44.7817 49.2813C45.2609 48.8021 45.5005 48.2083 45.5005 47.5H50.5005C50.5005 49.5833 49.7817 51.3542 48.3442 52.8125C46.9067 54.2708 45.1255 55 43.0005 55ZM44.2505 45C43.2088 45 42.3234 44.6354 41.5942 43.9062C40.8651 43.1771 40.5005 42.2917 40.5005 41.25C40.5005 40.1667 40.8651 39.2708 41.5942 38.5625C42.3234 37.8542 43.2088 37.5 44.2505 37.5C45.3338 37.5 46.2297 37.8542 46.938 38.5625C47.6463 39.2708 48.0005 40.1667 48.0005 41.25C48.0005 42.2917 47.6463 43.1771 46.938 43.9062C46.2297 44.6354 45.3338 45 44.2505 45Z" fill="#E6E6E6"/>
</g>
</svg>
