<svg width="81" height="80" viewBox="0 0 81 80" fill="none" xmlns="http://www.w3.org/2000/svg">
<mask id="mask0_1264_14376" style="mask-type:alpha" maskUnits="userSpaceOnUse" x="10" y="10" width="61" height="60">
<rect x="10.5" y="10" width="60" height="60" fill="#D9D9D9"/>
</mask>
<g mask="url(#mask0_1264_14376)">
<path d="M40.5 40C37.75 40 35.3958 39.0208 33.4375 37.0625C31.4792 35.1042 30.5 32.75 30.5 30C30.5 27.25 31.4792 24.8958 33.4375 22.9375C35.3958 20.9792 37.75 20 40.5 20C43.25 20 45.6042 20.9792 47.5625 22.9375C49.5208 24.8958 50.5 27.25 50.5 30C50.5 32.75 49.5208 35.1042 47.5625 37.0625C45.6042 39.0208 43.25 40 40.5 40ZM20.5 60V53C20.5 51.5833 20.8646 50.2812 21.5938 49.0937C22.3229 47.9062 23.2917 47 24.5 46.375C27.0833 45.0833 29.7083 44.1146 32.375 43.4687C35.0417 42.8229 37.75 42.5 40.5 42.5C43.25 42.5 45.9583 42.8229 48.625 43.4687C51.2917 44.1146 53.9167 45.0833 56.5 46.375C57.7083 47 58.6771 47.9062 59.4062 49.0937C60.1354 50.2812 60.5 51.5833 60.5 53V60H20.5ZM25.5 55H55.5V53C55.5 52.5417 55.3854 52.125 55.1563 51.75C54.9271 51.375 54.625 51.0833 54.25 50.875C52 49.75 49.7292 48.9063 47.4375 48.3438C45.1458 47.7813 42.8333 47.5 40.5 47.5C38.1667 47.5 35.8542 47.7813 33.5625 48.3438C31.2708 48.9063 29 49.75 26.75 50.875C26.375 51.0833 26.0729 51.375 25.8438 51.75C25.6146 52.125 25.5 52.5417 25.5 53V55ZM40.5 35C41.875 35 43.0521 34.5104 44.0313 33.5312C45.0104 32.5521 45.5 31.375 45.5 30C45.5 28.625 45.0104 27.4479 44.0313 26.4688C43.0521 25.4896 41.875 25 40.5 25C39.125 25 37.9479 25.4896 36.9688 26.4688C35.9896 27.4479 35.5 28.625 35.5 30C35.5 31.375 35.9896 32.5521 36.9688 33.5312C37.9479 34.5104 39.125 35 40.5 35Z" fill="#E6E6E6"/>
</g>
</svg>
