<svg width="35" height="35" viewBox="0 0 35 35" fill="none" xmlns="http://www.w3.org/2000/svg">
<path d="M16.4405 21.4699C13.7283 23.9337 11.2437 23.1469 9.25608 21.4699C7.26845 19.7928 7.53752 17.6395 7.72394 16.19C7.91037 14.7405 9.77384 12.1733 12.1339 11.8834C14.4944 11.5936 15.8884 13.0567 15.8884 13.0567C18.9176 13.0835 18.8765 13.3424 18.8704 13.3594L19.6429 11.4831L18.5112 10.489L17.5726 10.434L16.3303 11.2483L15.9163 11.1242L15.7782 9.08144L14.2046 8.75049H13.2106L12.3822 10.4343H12.2166L11.2505 8.75049H10.2844L8.62813 9.19202L8.7938 11.2072L8.32434 11.511L7.22015 10.7381H6.22615L5.12195 12.0631L6.22615 13.7469L5.73632 14.6579L3.85209 14.5956L3.5 16.2523L5.23932 17.184L5.26007 18.2192L3.66567 19.1509L4.22456 20.7529H6.17067L6.75032 21.6978L5.83934 23.313L7.01939 24.4519L7.97188 24.4311L9.21419 23.6651L9.58704 23.8515L9.62855 25.7772L11.223 26.2535H12.2373L12.9619 24.5557L13.2102 24.5349L14.1419 26.1293H15.1771L16.7092 25.6323L16.6885 23.6239L17.1855 23.2926L18.407 23.9137H19.2972L20.4362 22.5473L19.6425 21.4291L16.4401 21.4706L16.4405 21.4699Z" fill="#234F74"/>
<path d="M31.2243 20.2157V18.4353C31.0862 17.8141 30.7963 17.3311 27.7596 16.5858C24.7229 15.8405 22.8802 16.0337 22.8802 16.0337C18.7808 13.4456 17.6143 13.3698 13.6666 13.9079C9.71889 14.4464 8.6562 15.2329 8.6562 15.2329C8.02108 16.199 8.04901 17.7451 8.04901 17.7451C12.5352 16.5303 11.7484 21.1546 11.7484 21.1546H24.0746C24.0746 21.1546 23.2462 17.5658 26.4626 17.5518C29.6786 17.5379 28.9057 21.1546 28.9057 21.1546L31.5005 20.9274V20.3538L31.2243 20.2157ZM19.6434 14.3355C20.9382 14.8434 22.8319 16.1299 22.8319 16.1299H21.8933C21.148 15.6469 18.6359 14.1698 18.5943 14.1853C18.5528 14.2008 18.3483 13.8275 19.6434 14.3355ZM11.4442 15.7571C10.9888 15.7295 11.4303 15.2876 11.8171 14.9427C12.2035 14.5978 13.9013 14.4181 13.9013 14.4181L14.1911 15.9088C14.1911 15.9088 11.8997 15.7846 11.4442 15.7571ZM14.1447 14.4181C14.1447 14.4181 16.6207 14.0177 17.8837 14.2664C19.1468 14.5147 21.3001 16.1299 21.3001 16.1299H20.334C20.348 15.6053 20.2235 15.5638 19.7748 15.4121C19.3261 15.2604 19.2434 15.6193 19.2434 15.6193V16.0608L14.4674 15.9091L14.1447 14.4185V14.4181ZM23.3255 17.5858C23.0874 18.0103 21.7518 20.0187 21.7518 20.0187L15.2814 19.967L21.4722 19.7082L22.9111 17.7413C22.9111 17.7413 23.1802 17.4979 22.8179 17.3971C22.4556 17.2964 21.9484 17.1409 21.9484 17.1409L23.17 17.2235C23.17 17.2235 23.5632 17.1613 23.3251 17.5858H23.3255ZM30.5412 18.2379C29.951 18.0828 28.9782 17.2028 27.477 16.9129C27.477 16.9129 28.1279 16.8439 29.4955 17.3062C30.8635 17.7685 31.1311 18.393 30.5412 18.2379Z" fill="#178254"/>
<path d="M9.72557 21.5273L10.3399 21.9748C10.983 21.6023 11.4158 20.9069 11.4158 20.1098C11.4158 18.9207 10.4516 17.9565 9.26253 17.9565C8.79874 17.9565 8.36891 18.1033 8.01758 18.3528L8.0806 19.2026C8.35344 18.8479 8.78176 18.6192 9.26291 18.6192C10.0848 18.6192 10.7535 19.2879 10.7535 20.1098C10.7535 20.7702 10.3218 21.3318 9.72595 21.5269L9.72557 21.5273Z" fill="#178254"/>
<path d="M26.5342 17.8657C25.345 17.8657 24.3809 18.8299 24.3809 20.019C24.3809 21.2081 25.345 22.1723 26.5342 22.1723C27.7233 22.1723 28.6874 21.2081 28.6874 20.019C28.6874 18.8299 27.7233 17.8657 26.5342 17.8657ZM26.5342 21.5096C25.7122 21.5096 25.0435 20.8409 25.0435 20.019C25.0435 19.1971 25.7122 18.5284 26.5342 18.5284C27.3561 18.5284 28.0248 19.1971 28.0248 20.019C28.0248 20.8409 27.3561 21.5096 26.5342 21.5096Z" fill="#178254"/>
<path d="M18.1888 10.4862L16.7556 11.5077C16.7556 11.5077 16.3824 11.2386 15.8823 11.1202L15.7442 9.07743L14.171 8.74609L13.1909 10.4756L12.1833 10.4303L11.2172 8.74609H10.2512L9.68096 8.89818V11.2051L8.89678 11.7692L8.29072 11.5066L7.18652 10.7337L5.96836 12.0032L7.11406 13.5206L6.59782 14.6663L5.70231 14.6535L4.5951 14.6169L4.38867 16.3279L6.11251 17.1332L6.07138 18.2378L4.60566 19.0944L5.12191 20.7481H7.02123L7.57861 21.6338L6.67027 23.2957L7.93863 24.426L9.21302 23.6403L9.62247 23.4093L10.3863 23.7603L10.4836 26.0374L11.1893 26.2483L12.2275 26.2211L12.9501 24.5282L13.1977 24.5075L13.9475 24.4313L15.1438 26.1238L16.6865 25.6015L16.6658 23.5988L17.1613 23.2686L17.5601 23.027L18.9538 23.8878H19.267L20.4025 22.5251L19.6089 21.4236L17.1948 21.4549C17.1948 21.4549 14.126 24.2278 11.2425 22.7123C8.35902 21.1968 7.46464 19.1484 7.58691 17.6702C7.70918 16.1921 7.58239 14.2671 10.9172 12.2462C14.2257 10.2412 16.7533 13.0689 16.7533 13.0689C16.7533 13.0689 18.5304 13.0221 18.8402 13.3659L19.6108 11.4941L18.4821 10.5031L18.1877 10.4858L18.1888 10.4862Z" fill="#386283"/>
</svg>
