<svg width="35" height="35" viewBox="0 0 35 35" fill="none" xmlns="http://www.w3.org/2000/svg">
<path d="M31.4991 18.0095C31.4991 18.385 31.5001 18.7604 31.4991 19.1358C31.4991 19.3389 31.4963 19.3417 31.299 19.3427C30.8776 19.3446 30.4562 19.3427 30.0348 19.3436C29.7925 19.3436 29.7925 19.3446 29.7532 19.5907C29.4008 21.8136 28.5379 23.821 27.1511 25.5899C25.138 28.1566 22.5282 29.7818 19.3275 30.4465C18.3037 30.6591 17.2675 30.751 16.2245 30.7031C13.0956 30.5595 10.3307 29.4801 7.97758 27.4048C5.75089 25.4405 4.34783 22.9887 3.75308 20.0801C3.51461 18.9117 3.44853 17.7289 3.53856 16.5385C3.7617 13.6012 4.83626 11.0144 6.77469 8.80012C8.60584 6.70655 10.8852 5.33031 13.5889 4.66086C14.8607 4.34577 16.1546 4.22989 17.459 4.30842C20.1837 4.47219 22.6441 5.37436 24.798 7.05516C27.3321 9.03189 28.9411 11.6043 29.6373 14.7437C29.7638 15.3116 29.8385 15.8892 29.8816 16.4695C29.895 16.6505 29.894 16.6525 30.0856 16.6534C30.4686 16.6553 30.8517 16.6534 31.2348 16.6534C31.5279 16.6544 31.4972 16.6199 31.4991 16.9292C31.5011 17.2893 31.4991 17.6494 31.4991 18.0095ZM5.52295 17.5039C5.49517 23.5222 10.3604 28.6278 16.5913 28.6948C22.8548 28.7618 27.9134 23.7099 27.9087 17.4952C27.9039 11.2279 22.8031 6.30335 16.7206 6.30239C10.505 6.30048 5.49134 11.3802 5.52295 17.5039Z" fill="black"/>
<path d="M20.0707 15.4986C20.0535 15.4727 20.0324 15.4421 20.0142 15.4105C19.4549 14.4173 18.6226 13.7833 17.4963 13.6014C16.2925 13.4069 15.1796 13.6473 14.2497 14.4873C13.698 14.9853 13.3734 15.6241 13.2182 16.3433C13.0161 17.279 13.0669 18.2051 13.4327 19.0939C13.9614 20.3743 14.9297 21.1099 16.3011 21.3062C17.6209 21.4949 18.7002 21.0275 19.6005 20.0813C19.6627 20.0162 19.6962 19.9501 19.6924 19.8581C19.6867 19.7432 19.6847 19.6283 19.6924 19.5134C19.702 19.3879 19.6436 19.3592 19.5305 19.3601C19.2011 19.3649 18.8716 19.364 18.5431 19.3601C18.4454 19.3592 18.3698 19.3879 18.2922 19.4473C17.8641 19.7748 17.3786 19.9271 16.8384 19.9175C15.8069 19.8984 14.8655 19.1044 14.6787 18.0902C14.4364 16.7724 15.2984 15.5503 16.6277 15.3885C17.5586 15.2745 18.3066 15.6394 18.8247 16.4257C18.9243 16.577 19.023 16.6201 19.1915 16.6201C20.539 16.6143 21.8865 16.6172 23.235 16.6172C23.281 16.6172 23.3269 16.6172 23.3729 16.6172C23.5645 16.6211 23.5664 16.621 23.5836 16.8049C23.7483 18.5231 23.3308 20.0889 22.3137 21.4796C21.2018 22.9985 19.7068 23.9486 17.8526 24.2617C15.8414 24.6017 13.9691 24.2062 12.3161 22.9726C11.1668 22.1155 10.4131 20.972 10.0242 19.5957C9.56357 17.9638 9.58464 16.3366 10.2196 14.7545C11.0758 12.6226 12.6532 11.2885 14.8741 10.7368C16.348 10.371 17.8172 10.4323 19.2509 10.9609C20.3695 11.3737 21.2832 12.0748 22.0398 12.9884C22.1106 13.0737 22.1442 13.1378 22.0532 13.2413C21.422 13.971 20.7976 14.7056 20.1703 15.4392C20.1464 15.468 20.1234 15.5005 20.0678 15.4996L20.0707 15.4986Z" fill="black"/>
</svg>
