<svg width="35" height="35" viewBox="0 0 35 35" fill="none" xmlns="http://www.w3.org/2000/svg">
<path d="M18.8785 16.1672C19.4331 16.0809 19.6179 15.6743 19.507 15.169C19.4061 14.5801 19.4229 13.9769 19.5563 13.3945C20.0246 11.0777 21.91 9.38946 24.3254 9.15532C26.4203 8.95815 28.6385 10.3383 29.4888 12.3593C30.4253 14.5898 29.8708 16.9928 27.973 18.447C26.3464 19.6916 25.5946 21.2197 25.8534 23.2653C26.0013 24.3991 25.1757 25.4096 24.0912 25.7423C23.0068 26.075 21.3432 25.4465 21.0474 23.8938C20.9488 23.3639 20.5545 23.1421 20.0369 23.2777C19.5193 23.4132 19.4454 23.8199 19.5193 24.2881C19.8274 26.1613 22.0086 27.7017 23.894 27.3689C26.3094 26.9376 27.6526 25.2001 27.3938 22.7601C27.2829 21.7249 27.628 20.887 28.3673 20.1969C28.6385 19.9381 28.9465 19.7163 29.23 19.4575C30.2536 18.5405 30.9765 17.3358 31.3041 16.0012C31.6318 14.6665 31.5488 13.264 31.0661 11.9773C30.5869 10.6853 29.7224 9.57157 28.5895 8.78693C27.4566 8.00229 26.1101 7.58457 24.732 7.59028C20.764 7.4424 17.2765 11.0901 17.9666 15.4155C18.0406 15.9577 18.3363 16.2535 18.8785 16.1672Z" fill="#333333"/>
<path d="M3.84338 20.6899C5.0264 20.542 6.44356 21.306 7.3185 19.8642C7.33083 19.8396 7.40477 19.8642 7.46638 19.8765C7.6882 20.4311 7.92234 20.9856 8.13183 21.5402C8.23042 21.7866 8.31668 22.0454 8.62476 22.0208C8.87122 21.9961 8.95748 21.7743 9.03142 21.5402C9.15467 21.0801 9.31541 20.6308 9.51202 20.1969C9.6599 19.8889 9.57364 19.4329 10.0666 19.2604L10.5472 21.4786C10.732 22.3535 10.9292 23.2408 11.1264 24.1157C11.1756 24.3129 11.2249 24.5101 11.5084 24.4977C11.7672 24.4854 11.8534 24.3252 11.8904 24.1157C11.915 23.9925 11.9643 23.8692 11.9767 23.746C12.1985 22.0947 12.408 20.4311 12.6791 18.7798C12.7407 18.3854 12.6668 17.9048 13.0734 17.5105C13.4185 19.0262 13.7389 20.4557 14.0593 21.8852C14.1086 22.107 14.1579 22.3412 14.4536 22.3658C14.774 22.3905 14.8603 22.1563 14.9589 21.9099C15.2546 21.1705 15.575 20.4434 15.9201 19.6301C16.376 20.3079 16.4869 21.0472 16.7827 21.7004C16.8936 21.9468 16.8936 22.2919 17.251 22.3165C17.6083 22.3412 17.7192 22.0454 17.8178 21.799C18.1506 20.998 18.6681 20.5297 19.6047 20.7022C19.8635 20.7515 20.1962 20.7392 20.1962 20.3202C20.1962 19.9382 19.9251 19.8889 19.6293 19.8889C18.779 19.8889 17.8548 19.6794 17.3742 20.924C17.0291 19.9628 16.7704 19.2357 16.4992 18.521C16.4007 18.2745 16.3267 17.9295 15.994 17.9295C15.6613 17.9295 15.5873 18.2745 15.4764 18.5087C15.2053 19.1002 15.0574 19.7656 14.5768 20.4064C14.1579 18.521 13.7758 16.7465 13.3692 14.9843C13.3076 14.7008 13.3568 14.2449 12.8762 14.2695C12.4203 14.2942 12.4573 14.7255 12.4203 15.0089C12.2478 16.118 12.1369 17.2394 11.952 18.3485C11.7918 19.2974 11.7672 20.2709 11.3975 21.4169C11.0894 19.9751 10.8306 18.7551 10.5718 17.5475C10.5102 17.2764 10.4979 16.9683 10.1282 16.9436C9.75849 16.919 9.7092 17.2271 9.62293 17.4859C9.30253 18.3731 8.98213 19.2481 8.60011 20.3202C8.39062 19.778 8.27971 19.4206 8.11951 19.1002C7.97163 18.8291 7.94698 18.3978 7.55264 18.3731C7.2076 18.3608 7.0474 18.6935 6.92416 18.9646C6.52982 19.7287 5.91367 20.0121 5.07569 19.9012C4.69854 19.8622 4.31817 19.8663 3.94196 19.9135C3.70782 19.9258 3.49833 20.0491 3.51065 20.3325C3.49739 20.3797 3.4965 20.4295 3.50805 20.4772C3.51961 20.5249 3.54324 20.5687 3.57665 20.6046C3.61007 20.6405 3.65215 20.6672 3.69886 20.6821C3.74557 20.6971 3.79534 20.6997 3.84338 20.6899Z" fill="#333333"/>
<path d="M21.4651 19.581C21.8964 19.8028 22.3401 19.7412 22.6358 19.2605C22.8814 18.8566 23.0291 18.4009 23.0671 17.9296C23.1411 16.8082 22.8083 15.7485 22.7344 14.6517C22.6605 13.5549 23.1164 12.8648 24.0283 12.5198C24.4074 12.3813 24.8193 12.3602 25.2105 12.4591C25.6018 12.558 25.9541 12.7724 26.2218 13.0743C26.8503 13.8014 26.9119 14.6517 26.3328 15.5636C26.037 16.0442 25.9014 16.5371 26.4437 16.8699C26.9859 17.2026 27.4049 16.8699 27.6883 16.4016C28.4154 15.2555 28.514 14.0479 27.8978 12.8279C27.2447 11.5216 26.1356 10.8808 24.9526 10.8315C22.3401 10.7945 20.6271 12.9881 21.1694 15.3541C21.4158 16.4139 21.613 17.449 21.0584 18.4965C20.8366 18.9401 21.0584 19.3715 21.4651 19.581Z" fill="#333333"/>
</svg>
