<svg width="35" height="35" viewBox="0 0 35 35" fill="none" xmlns="http://www.w3.org/2000/svg">
<path opacity="0.8" d="M26.5715 11.3894C26.0383 11.3833 25.5242 11.7253 25.3177 12.2309L21.71 21.8468C21.4722 22.5364 21.8155 23.2802 22.4926 23.5372L22.5111 23.5436C22.6506 23.5898 22.7945 23.6124 22.9484 23.6124C23.4898 23.6124 23.9745 23.2825 24.1831 22.7718L24.8804 20.9217H28.2734L28.9698 22.7695C29.1537 23.2745 29.6435 23.6127 30.1893 23.6127C30.2887 23.6127 30.4797 23.6029 30.6434 23.5379C31.3219 23.2805 31.6628 22.5316 31.4223 21.8316L27.8133 12.2127C27.6078 11.7114 27.1065 11.3793 26.5719 11.3894H26.5715ZM25.8432 18.3045L26.5688 16.3786L27.2945 18.3045H25.8432Z" fill="#00263E"/>
<path d="M16.1908 21.514C15.4184 20.594 14.94 19.4954 14.7891 18.3174C14.4293 19.7474 13.1643 20.7854 11.6147 20.7971H11.2333H10.7543H8.93952H8.40119H8.29608C7.52126 20.7971 6.89062 21.4349 6.89062 22.2184C6.89062 22.9518 7.42559 23.5366 8.13472 23.6145C8.12798 23.6175 8.12124 23.6209 8.11451 23.6239H8.29541C8.29541 23.6239 8.29575 23.6239 8.29608 23.6239H9.85954H10.7546H10.756H11.615C13.4426 23.6239 15.0825 22.811 16.203 21.5282L16.1912 21.5144L16.1908 21.514Z" fill="#00263E"/>
<path d="M11.615 11.3765H9.85954H8.40119H8.29608H8.11484C8.12192 11.3795 8.12899 11.3832 8.13607 11.3862C7.43637 11.4667 6.89062 12.0688 6.89062 12.7978C6.89062 13.5857 7.50812 14.2032 8.29608 14.2032H9.05473H10.7546C10.7691 14.2032 10.7829 14.2015 10.7971 14.2012H11.2337V14.2032H11.615C13.1485 14.2032 14.436 15.262 14.7935 16.6863C14.9491 15.5063 15.4298 14.407 16.202 13.4873L16.2137 13.4735C15.0933 12.1904 13.4483 11.3765 11.615 11.3765Z" fill="#00263E"/>
<path opacity="0.8" d="M16.2843 21.2433C17.1343 20.178 17.6009 18.8487 17.6009 17.484C17.6009 16.1193 17.1383 14.8153 16.2954 13.7578C15.529 14.7162 15.0803 15.8657 14.9944 17.0922C14.985 17.2671 14.9698 17.5959 14.9917 17.9071C15.0712 19.1334 15.5173 20.2835 16.2843 21.2433Z" fill="#00263E"/>
<path d="M27.8131 12.2127C27.6076 11.7114 27.1063 11.3793 26.5717 11.3894C26.0384 11.3833 25.5243 11.7253 25.3178 12.2309L24.6484 14.015H26.568C26.5932 14.015 26.6182 14.0133 26.6428 14.0116L26.661 14.0103H28.4878L27.8134 12.2127H27.8131Z" fill="#00263E"/>
<path d="M22.9659 20.9865H22.0328L21.71 21.8466C21.4722 22.5362 21.8155 23.28 22.4926 23.537L22.5111 23.5434C22.6506 23.5896 22.7945 23.6121 22.9484 23.6121C23.4898 23.6121 23.9745 23.2823 24.1831 22.7716L24.2336 22.6376C24.2595 22.5335 24.2747 22.4243 24.2747 22.3111C24.2747 21.5804 23.6875 20.9858 22.9659 20.9858V20.9865Z" fill="#00263E"/>
<path d="M30.1901 11.3765H27.4082C27.6868 11.5483 27.9142 11.8056 28.0439 12.1223L28.7523 14.0105H29.0171H29.1761H29.3351H29.4942H29.6532H29.8122H29.9035H30.1901C30.9242 14.0105 31.4989 13.4355 31.4989 12.7017C31.4989 11.968 30.9117 11.3765 30.1901 11.3765Z" fill="#00263E"/>
<path d="M25.2504 11.3765L25.1261 11.3812H20.9589C19.134 11.3812 17.4958 12.1927 16.3764 13.4732L16.3881 13.487C17.3267 14.6065 17.8438 16.0257 17.8438 17.4837C17.8438 18.9417 17.323 20.3859 16.377 21.5135L16.3652 21.5273C17.485 22.8081 19.1276 23.6203 20.9586 23.6203H22.1104C21.506 23.2329 21.2304 22.4746 21.476 21.7624L21.7671 20.9866H20.9586C19.6242 20.9866 18.3926 20.205 17.8202 18.9953L17.7363 18.8181H19.6815C20.4155 18.8181 20.9902 18.2431 20.9902 17.5093C20.9902 16.7756 20.4031 16.1841 19.6815 16.1841H17.7384L17.8212 16.0072C18.3919 14.7887 19.5935 14.0257 20.9576 14.0152H24.3826L25.086 12.1405C25.2174 11.8188 25.4542 11.5533 25.7412 11.3765H25.2501H25.2504Z" fill="#00263E"/>
<g opacity="0.8">
<path d="M9.75528 20.5696V14.4303H8.29525C7.82766 14.4303 7.41196 14.2434 7.11719 13.9385V21.0779C7.41465 20.7646 7.83272 20.5693 8.29525 20.5693H9.75528V20.5696Z" fill="#00263E"/>
</g>
<path d="M4.80844 11.3765C4.07471 11.3765 3.5 11.9512 3.5 12.6849V22.3045C3.5 23.0382 4.07471 23.6129 4.80844 23.6129C5.54216 23.6129 6.13338 23.0261 6.13338 22.3045V12.6849C6.13338 11.9633 5.53913 11.3765 4.80844 11.3765Z" fill="#00263E"/>
<path d="M22.6992 22.2995C22.6992 22.4413 22.8144 22.5566 22.9563 22.5566C23.0981 22.5566 23.2133 22.4413 23.2133 22.2995C23.2133 22.1577 23.0981 22.0425 22.9563 22.0425C22.8144 22.0425 22.6992 22.1577 22.6992 22.2995Z" fill="#00263E" stroke="#C6C6C6" stroke-width="0.75" stroke-miterlimit="10"/>
<path d="M26.3105 12.6936C26.3105 12.8354 26.4258 12.9506 26.5676 12.9506C26.7094 12.9506 26.8246 12.8354 26.8246 12.6936C26.8246 12.5517 26.7094 12.4365 26.5676 12.4365C26.4258 12.4365 26.3105 12.5517 26.3105 12.6936Z" fill="#00263E" stroke="#C6C6C6" stroke-width="0.75" stroke-miterlimit="10"/>
<path d="M4.53516 12.6936C4.53516 12.8354 4.65037 12.9506 4.79219 12.9506C4.93402 12.9506 5.04923 12.8354 5.04923 12.6936C5.04923 12.5517 4.93402 12.4365 4.79219 12.4365C4.65037 12.4365 4.53516 12.5517 4.53516 12.6936Z" fill="#00263E" stroke="#C6C6C6" stroke-width="0.75" stroke-miterlimit="10"/>
<path d="M4.53516 22.2995C4.53516 22.4413 4.65037 22.5566 4.79219 22.5566C4.93402 22.5566 5.04923 22.4413 5.04923 22.2995C5.04923 22.1577 4.93402 22.0425 4.79219 22.0425C4.65037 22.0425 4.53516 22.1577 4.53516 22.2995Z" fill="#00263E" stroke="#C6C6C6" stroke-width="0.75" stroke-miterlimit="10"/>
<path d="M7.92578 22.2995C7.92578 22.4413 8.04099 22.5566 8.18282 22.5566C8.32465 22.5566 8.43986 22.4413 8.43986 22.2995C8.43986 22.1577 8.32465 22.0425 8.18282 22.0425C8.04099 22.0425 7.92578 22.1577 7.92578 22.2995Z" fill="#00263E" stroke="#C6C6C6" stroke-width="0.75" stroke-miterlimit="10"/>
<path d="M8.09766 12.6936C8.09766 12.8354 8.21287 12.9506 8.3547 12.9506C8.49652 12.9506 8.61173 12.8354 8.61173 12.6936C8.61173 12.5517 8.49652 12.4365 8.3547 12.4365C8.21287 12.4365 8.09766 12.5517 8.09766 12.6936Z" fill="#00263E" stroke="#C6C6C6" stroke-width="0.75" stroke-miterlimit="10"/>
<path d="M16.2024 17.7558C16.3443 17.7558 16.4594 17.6407 16.4594 17.4987C16.4594 17.3568 16.3443 17.2417 16.2024 17.2417C16.0604 17.2417 15.9453 17.3568 15.9453 17.4987C15.9453 17.6407 16.0604 17.7558 16.2024 17.7558Z" fill="#00263E" stroke="#C6C6C6" stroke-width="0.75" stroke-miterlimit="10"/>
</svg>
