<svg width="13" height="13" viewBox="0 0 13 13" fill="none" xmlns="http://www.w3.org/2000/svg">
<path d="M4.65296 1.75597C4.77596 1.75597 4.89914 1.76073 5.02185 1.75513C5.36394 1.73934 5.70631 1.75718 6.04802 1.74429C6.36209 1.73262 6.67607 1.73215 6.99014 1.73337C7.17375 1.73402 7.35745 1.73337 7.54115 1.73925C7.74894 1.74541 7.95711 1.75223 8.16425 1.76857C8.33235 1.78184 8.50148 1.78725 8.67005 1.79426C8.83441 1.80107 8.99887 1.8036 9.16296 1.81396C9.31182 1.8233 9.46106 1.82395 9.60965 1.83376C9.80352 1.84646 9.99899 1.8502 10.1919 1.87887C10.4455 1.91688 10.6962 1.97562 10.9164 2.1101C11.2118 2.29053 11.3827 2.5651 11.4674 2.89841C11.5142 3.08883 11.5502 3.28168 11.5752 3.47621C11.5975 3.64189 11.6134 3.80868 11.6256 3.97566C11.6497 4.30421 11.6638 4.63304 11.674 4.96233C11.6822 5.22186 11.6865 5.48149 11.6927 5.74102C11.7061 6.32443 11.6992 6.90784 11.6977 7.49125C11.6967 7.77422 11.6905 8.05719 11.679 8.34016C11.668 8.60053 11.6473 8.86044 11.6171 9.11978C11.5975 9.28901 11.5819 9.45879 11.5672 9.62867C11.5548 9.77174 11.5226 9.91248 11.4831 10.0506C11.4365 10.2179 11.3826 10.3829 11.29 10.5327C11.1528 10.7546 10.961 10.9055 10.7162 10.9937C10.5495 11.0537 10.38 11.1005 10.2042 11.1222C10.0953 11.1356 9.98563 11.145 9.87609 11.1513C9.66867 11.1631 9.46144 11.1787 9.25346 11.1828C9.12981 11.1852 9.00597 11.195 8.88204 11.2C8.65417 11.2093 8.42648 11.2245 8.19861 11.2344C8.08991 11.2391 7.98101 11.2393 7.87175 11.2443C7.71653 11.2513 7.56095 11.2481 7.40582 11.2562C7.17113 11.2686 6.93626 11.2655 6.70147 11.2655C6.20539 11.2668 5.7092 11.2692 5.2133 11.2603C4.97394 11.256 4.7344 11.2629 4.49541 11.2519C4.27454 11.2417 4.05377 11.2511 3.83309 11.2434C3.67218 11.2377 3.5108 11.2317 3.35073 11.2154C3.06402 11.1863 2.77703 11.1559 2.49658 11.0861C2.24153 11.0226 2.01534 10.9099 1.83603 10.7095C1.68997 10.5463 1.60386 10.3565 1.54587 10.1486C1.47891 9.90828 1.4395 9.66444 1.4141 9.41611C1.39196 9.19991 1.37637 8.98334 1.3674 8.76658C1.35703 8.53236 1.33695 8.2987 1.32267 8.06466C1.29558 7.62012 1.30735 7.17503 1.30399 6.73021C1.30063 6.29296 1.29736 5.85561 1.30838 5.41845C1.31295 5.23681 1.31996 5.05507 1.3335 4.87389C1.35311 4.60894 1.36572 4.34362 1.38019 4.07839C1.39075 3.88657 1.40672 3.69475 1.42689 3.50367C1.45005 3.28122 1.4663 3.05745 1.53662 2.84237C1.63375 2.5453 1.79064 2.29044 2.05027 2.10842C2.19138 2.0098 2.35444 1.9603 2.51825 1.91622C2.69868 1.86775 2.88247 1.83936 3.0685 1.82041C3.23474 1.8035 3.40106 1.79239 3.56767 1.78137C3.76164 1.76867 3.95571 1.76951 4.14949 1.76269C4.31676 1.75597 4.48486 1.75681 4.65296 1.75597ZM3.39696 5.0815C3.39163 5.08766 3.38603 5.09364 3.38015 5.09924C3.21951 5.21635 3.05851 5.33272 2.89825 5.45067C2.87883 5.46496 2.86734 5.46001 2.85081 5.44665C2.77675 5.38502 2.70139 5.32525 2.62667 5.26389C2.56448 5.2128 2.49695 5.20786 2.42682 5.24297C2.34081 5.28584 2.25573 5.33076 2.17065 5.3754C2.10126 5.41182 2.0499 5.51203 2.06997 5.59281C2.09967 5.71235 2.17513 5.81078 2.22472 5.93144C2.26852 5.85215 2.33063 5.81097 2.40609 5.78884C2.45689 5.77455 2.50928 5.7668 2.56205 5.76577C2.78618 5.7582 3.00948 5.77417 3.23315 5.77894C3.49287 5.78435 3.751 5.80695 4.0096 5.82675C4.29911 5.84917 4.58675 5.87784 4.87271 5.92948C5.10282 5.97095 5.33219 6.0154 5.55707 6.08031C5.89057 6.17659 6.20333 6.3206 6.50526 6.49122C6.96231 6.74646 7.36193 7.09294 7.67927 7.50918C8.00315 7.93466 8.18806 8.42151 8.25446 8.95271C8.28444 9.19085 8.2723 9.43245 8.21869 9.66649C8.14398 9.99336 8.00389 10.2935 7.82346 10.5751C7.77528 10.6498 7.72877 10.7266 7.67834 10.8073C7.70112 10.8073 7.71635 10.8082 7.73138 10.8073C7.9431 10.7922 8.15229 10.7515 8.3542 10.6859C8.59646 10.6091 8.82638 10.5057 9.03053 10.3526C9.29147 10.1566 9.47189 9.8952 9.61656 9.6084C9.84947 9.14612 10.0088 8.6547 10.174 8.16627C10.3047 7.7801 10.3937 7.38179 10.4869 6.98516C10.5779 6.59713 10.6569 6.20666 10.7116 5.81162C10.7444 5.57479 10.7718 5.33739 10.7957 5.09943C10.8202 4.85811 10.8424 4.6167 10.8489 4.37416C10.8565 4.10501 10.8466 3.83623 10.8296 3.56774C10.8135 3.31185 10.7626 3.06343 10.6428 2.8335C10.4428 2.44836 10.0818 2.26504 9.65615 2.3122C9.41269 2.33863 9.19088 2.43426 8.98169 2.5594C8.73701 2.70621 8.52137 2.89215 8.29994 3.06931C7.9077 3.38208 7.52107 3.70138 7.11818 4.00023C6.87023 4.18439 6.61546 4.35922 6.35957 4.5318C5.9593 4.80179 5.55165 5.05796 5.09535 5.22625C4.92398 5.28938 4.75074 5.34682 4.57582 5.39846C4.56452 5.40173 4.5478 5.41434 4.53846 5.39594C4.52772 5.37502 4.54706 5.36998 4.55976 5.36223C4.59431 5.3414 4.62784 5.31862 4.66361 5.30031C4.93929 5.15836 5.18426 4.96355 5.38477 4.72699C5.3999 4.70943 5.41773 4.6929 5.4239 4.66759C5.27559 4.68272 5.13177 4.70392 4.98748 4.72101C4.76662 4.74716 4.545 4.75743 4.3232 4.76341C4.1975 4.76677 4.0717 4.76631 3.94581 4.75893C3.80292 4.75183 3.65966 4.75389 3.51696 4.76491C3.4289 4.77098 3.3412 4.78256 3.25454 4.79946C3.08952 4.8314 2.94336 4.91078 2.79319 4.98017C2.75667 4.99707 2.71848 5.0122 2.68794 5.03901C2.6786 5.04704 2.66926 5.05722 2.67458 5.07066C2.67991 5.08411 2.69326 5.07916 2.70363 5.07842C2.93178 5.06282 3.15965 5.07832 3.39696 5.0815ZM3.06206 6.20218C2.88957 6.19919 2.72669 6.20984 2.56401 6.22161C2.54533 6.22301 2.51526 6.21432 2.52254 6.25719C2.55056 6.4237 2.58157 6.58984 2.61752 6.75505C2.73286 7.28569 2.88004 7.80756 3.04712 8.32401C3.17161 8.71045 3.29834 9.0956 3.47456 9.46262C3.61876 9.76268 3.78826 10.0442 4.02753 10.2797C4.26203 10.5106 4.52614 10.6922 4.84497 10.7868C5.11963 10.868 5.40298 10.8863 5.68679 10.8969C6.01366 10.9091 6.33791 10.8961 6.65805 10.8157C7.09792 10.7053 7.41049 10.446 7.60334 10.0372C7.71382 9.80303 7.76033 9.55433 7.77546 9.29937C7.7891 9.06739 7.77742 8.83569 7.71849 8.60997C7.60643 8.17934 7.4062 7.79747 7.07494 7.49265C6.88816 7.32071 6.67336 7.19016 6.44755 7.07921C6.16205 6.93912 5.86031 6.87608 5.54166 6.91176C5.32247 6.93641 5.12309 7.01832 4.93463 7.13011C4.92361 7.13664 4.91473 7.15149 4.89876 7.13711C4.88447 7.12413 4.8968 7.11358 4.90175 7.10424C4.93715 7.03774 4.95667 6.96621 4.97198 6.89317C5.02195 6.65559 4.91987 6.46358 4.69545 6.37262C4.57227 6.32293 4.44171 6.30351 4.31143 6.28857C4.11597 6.26578 3.91985 6.24598 3.72307 6.23347C3.49969 6.2188 3.27695 6.19798 3.06206 6.20218ZM6.01478 4.25201C5.98424 4.22053 5.9593 4.19317 5.9325 4.16796C5.56865 3.81998 5.18556 3.49256 4.7852 3.18736C4.48841 2.96201 4.19684 2.72975 3.89155 2.51579C3.67236 2.36198 3.43394 2.2741 3.15872 2.30529C2.9739 2.32593 2.81149 2.3927 2.67879 2.51738C2.43961 2.74198 2.33688 3.03532 2.32642 3.35359C2.31157 3.82456 2.32082 4.29609 2.34258 4.76715C2.3437 4.79031 2.34912 4.81337 2.35323 4.84074C2.37583 4.82029 2.3932 4.80488 2.41029 4.78928C2.64899 4.57327 2.93178 4.44953 3.24837 4.41208C3.42226 4.39153 3.59905 4.392 3.77463 4.39116C4.17564 4.38929 4.57675 4.39592 4.97646 4.35324C5.10151 4.33989 5.22731 4.334 5.35236 4.32224C5.53298 4.30524 5.71331 4.28609 5.89402 4.26742C5.93241 4.26368 5.97182 4.25761 6.01478 4.25201Z" fill="#154F3A"/>
<path d="M8.29935 3.76221C8.30383 3.76473 8.30804 3.76781 8.31159 3.77155C8.31952 3.78462 8.30636 3.79022 8.30047 3.79863C8.21147 3.91826 8.12135 4.03705 8.03338 4.15753C7.93905 4.28678 7.84557 4.41725 7.77067 4.55911C7.63255 4.82004 7.60481 5.09526 7.68008 5.38094C7.73126 5.5751 7.83091 5.7475 7.9229 5.92335C8.09034 6.24349 8.26256 6.5613 8.37939 6.90507C8.44597 7.10119 8.49463 7.30095 8.53815 7.50277C8.57467 7.67264 8.60931 7.84271 8.62724 8.01641C8.65012 8.23681 8.64508 8.45684 8.62827 8.67715C8.62211 8.75625 8.61155 8.8346 8.59848 8.91277C8.59605 8.92743 8.59979 8.94751 8.57737 8.94761C8.55655 8.94761 8.56187 8.92893 8.55963 8.91595C8.51555 8.6467 8.47119 8.37736 8.39788 8.114C8.30598 7.78331 8.18112 7.46457 8.04449 7.15022C7.85052 6.704 7.59696 6.29308 7.31679 5.89636C7.21023 5.74572 7.0935 5.60153 7.00917 5.43613C6.96182 5.3433 6.92269 5.24748 6.9169 5.14102C6.90756 4.97525 6.97293 4.84133 7.09312 4.73253C7.25572 4.58582 7.42933 4.45236 7.60201 4.31751C7.82614 4.14212 8.05205 3.96981 8.26601 3.78238C8.27479 3.77407 8.28263 3.76333 8.29935 3.76221Z" fill="#154F3A"/>
<path d="M4.68502 9.71737C4.7573 9.79591 4.83313 9.8498 4.9268 9.87613C5.023 9.9049 5.12666 9.89369 5.21445 9.84513C5.24452 9.82906 5.27468 9.81272 5.30298 9.79376C5.48341 9.67292 5.67831 9.65368 5.88097 9.71961C6.10567 9.79292 6.31514 9.77266 6.50902 9.63407C6.61773 9.55646 6.68067 9.44308 6.734 9.32522C6.80628 9.16487 6.84653 8.99191 6.85251 8.81615C6.87343 8.25861 6.64033 7.82799 6.19009 7.50813C6.01882 7.38672 5.82512 7.31715 5.62041 7.28045C5.50283 7.25897 5.38152 7.28325 5.28122 7.34825C5.14552 7.43183 5.09369 7.60358 5.16037 7.74824C5.28262 8.0257 5.49779 8.1896 5.79543 8.23387C5.93383 8.25432 6.05514 8.18885 6.16096 8.10032C6.17749 8.0864 6.19159 8.0695 6.20765 8.05456C6.21522 8.04746 6.22222 8.03756 6.23567 8.04578C6.25295 8.05642 6.24118 8.06791 6.23567 8.07725C6.17963 8.17643 6.10492 8.25815 6.00219 8.31073C5.91235 8.35742 5.81429 8.37124 5.71511 8.37927C5.44904 8.40085 5.22416 8.50068 5.06446 8.72304C5.02066 8.78524 4.98564 8.85323 4.96033 8.92505C4.95221 8.94737 4.95099 8.95941 4.98088 8.95699C5.04933 8.95194 5.11797 8.96427 5.18036 8.99285C5.25619 9.02656 5.31428 8.98958 5.36845 8.94102C5.38059 8.93009 5.3861 8.9017 5.41066 8.92047C5.43251 8.93719 5.43541 8.99313 5.41748 9.00835C5.36144 9.05617 5.34659 9.11687 5.38059 9.17375C5.39842 9.20335 5.42728 9.22343 5.4553 9.24276C5.53309 9.2959 5.58026 9.41871 5.55803 9.50986C5.55532 9.52041 5.55681 9.53283 5.54178 9.53367C5.52674 9.53451 5.52394 9.52349 5.52133 9.51266C5.51871 9.50182 5.51722 9.49127 5.51488 9.48063C5.49396 9.38724 5.45184 9.35165 5.35696 9.35203C5.33968 9.35333 5.32343 9.34381 5.31615 9.32812C5.18232 9.11136 4.9029 9.09053 4.70911 9.25145C4.69342 9.26648 4.67904 9.28264 4.66587 9.29992C4.65737 9.30925 4.6542 9.32915 4.63505 9.32027C4.61049 9.30897 4.63048 9.29123 4.63505 9.28114C4.68791 9.15208 4.75235 9.02899 4.81922 8.90628C4.89813 8.76227 4.98097 8.62041 5.03588 8.46435C5.07324 8.35901 5.07034 8.25488 5.04578 8.14841C5.01478 8.01403 4.97593 7.8816 4.94651 7.74684C4.89234 7.49795 5.05391 7.26326 5.24723 7.16632C5.4807 7.0494 5.7181 7.05939 5.95578 7.14101C6.38537 7.28848 6.71065 7.56398 6.94851 7.94968C7.10074 8.19614 7.19348 8.47472 7.21935 8.7633C7.27099 9.30328 7.11895 9.78125 6.77341 10.1978C6.66097 10.3337 6.50622 10.4058 6.34344 10.4622C6.07971 10.5532 5.82139 10.5252 5.56569 10.4318C5.55233 10.4269 5.52926 10.4242 5.53459 10.4043C5.53991 10.3845 5.56102 10.395 5.57456 10.3978C5.71987 10.4243 5.83848 10.367 5.94709 10.2793C5.96484 10.2649 5.98585 10.2462 5.97324 10.2204C5.96063 10.1945 5.93411 10.2037 5.91095 10.2067C5.81112 10.22 5.71119 10.2332 5.61107 10.2441C5.57092 10.2498 5.5301 10.2479 5.4906 10.2386C5.46258 10.2312 5.44129 10.2176 5.43606 10.1884C5.43083 10.1593 5.44858 10.1417 5.46903 10.1259C5.48378 10.1147 5.50106 10.1072 5.51619 10.0961C5.53132 10.085 5.56046 10.0807 5.55093 10.0546C5.54253 10.0316 5.51675 10.0384 5.49695 10.0386C5.42775 10.0382 5.35995 10.0586 5.30251 10.0973C5.06381 10.2603 4.74301 10.0941 4.69118 9.84289C4.68352 9.80151 4.68137 9.7593 4.68502 9.71737Z" fill="#154F3A"/>
</svg>
