<svg width="25" height="25" viewBox="0 0 25 25" fill="none" xmlns="http://www.w3.org/2000/svg">
<path d="M13.7056 15.2638H9.16194C8.65652 15.2638 8.49358 14.9535 8.49358 14.5301C8.49358 14.1876 8.49151 3.74805 8.49151 3.74805H6.89429V16.0007C6.89429 16.5154 7.33952 16.8548 7.66747 16.8548H13.7066V15.2648L13.7056 15.2638Z" fill="#833177"/>
<path d="M13.7065 17.462V19.0561H5.63839C5.08627 19.0561 4.70435 18.6441 4.70435 18.1096C4.70953 17.4827 4.70435 3.74707 4.70435 3.74707H6.29534V16.4709C6.29534 17.0302 6.53819 17.462 7.21901 17.462H13.7065Z" fill="#833177"/>
<path d="M2.5 3.74805H4.09826V18.5579C4.09826 19.0934 4.36705 19.6611 5.14958 19.6611H13.7065V21.2521H4.39923C3.33857 21.2521 2.5 20.372 2.5 19.3228V3.74805Z" fill="#833177"/>
<path d="M9.08911 3.74805H10.6884V12.444C10.6884 12.7606 10.8327 13.0626 11.2862 13.0626H13.7054V14.6587H9.90277C9.31743 14.6587 9.09015 14.2872 9.09015 13.8638V3.74805H9.08911Z" fill="#833177"/>
<path d="M11.2945 9.7365H15.8381C16.3435 9.7365 16.5065 10.0468 16.5065 10.4702C16.5065 10.8127 16.5085 21.2523 16.5085 21.2523H18.1058V8.99964C18.1058 8.48488 17.6616 8.14551 17.3326 8.14551H11.2935V9.73546L11.2945 9.7365Z" fill="#FF6A13"/>
<path d="M11.2935 7.53795V5.94385H19.3606C19.9127 5.94385 20.2946 6.35587 20.2946 6.89035C20.2884 7.5172 20.2946 21.2529 20.2946 21.2529H18.7036V8.52908C18.7036 7.96969 18.4608 7.53795 17.7799 7.53795H11.2925H11.2935Z" fill="#FF6A13"/>
<path d="M22.4999 21.2521H20.9006V6.44225C20.9006 5.90569 20.6318 5.33904 19.8493 5.33904H11.2935V3.74805H20.5997C21.6614 3.74805 22.4999 4.62813 22.4999 5.67737V21.2521Z" fill="#FF6A13"/>
<path d="M15.9097 21.252H14.3104V12.556C14.3104 12.2395 14.1662 11.9375 13.7126 11.9375H11.2935V10.3413H15.0971C15.6824 10.3413 15.9097 10.7129 15.9097 11.1363V21.251V21.252Z" fill="#FF6A13"/>
</svg>
