<svg width="13" height="13" viewBox="0 0 13 13" fill="none" xmlns="http://www.w3.org/2000/svg">
<path d="M6.50078 1.2998C3.62877 1.2998 1.30078 3.62779 1.30078 6.4998C1.30078 9.37182 3.62877 11.6998 6.50078 11.6998C9.3728 11.6998 11.7008 9.37182 11.7008 6.4998C11.7008 3.62779 9.3728 1.2998 6.50078 1.2998ZM6.33724 2.0758C6.35977 1.9957 6.41651 1.94647 6.50078 1.93812C6.55335 1.93312 6.60592 1.93729 6.65848 1.93729C8.25887 2.03825 9.51298 2.73915 10.3941 4.08838C10.4617 4.19185 10.4442 4.29448 10.3516 4.35873C10.2648 4.4188 10.1563 4.39627 10.087 4.29031C9.91599 4.02997 9.72909 3.78382 9.5088 3.56187C8.9314 2.97862 8.24218 2.59814 7.44366 2.41206C7.14911 2.34364 6.84956 2.3111 6.54667 2.30609C6.49911 2.30609 6.45405 2.30192 6.41317 2.27272C6.34391 2.22265 6.31221 2.15757 6.33557 2.07497L6.33724 2.0758ZM6.72607 3.405C7.51625 3.46758 8.19212 3.77798 8.7495 4.34287C8.80791 4.40212 8.82376 4.43466 8.82292 4.49557C8.82042 4.57317 8.78538 4.62991 8.71445 4.66161C8.63518 4.69749 8.56426 4.67663 8.50502 4.61906C8.40906 4.52477 8.3131 4.42965 8.20463 4.34871C7.5029 3.82137 6.72357 3.65199 5.86663 3.8439C5.80572 3.85725 5.74565 3.87143 5.68724 3.83806C5.61715 3.79801 5.58043 3.7371 5.59045 3.65616C5.60213 3.56354 5.66221 3.51264 5.74982 3.49178C6.07023 3.41418 6.39565 3.37914 6.72524 3.405H6.72607ZM2.57325 8.45565C2.4848 8.49486 2.37966 8.45314 2.33377 8.35218C2.29122 8.25956 2.25367 8.1636 2.21862 8.06765C1.95579 7.33755 1.87652 6.58825 1.99 5.81977C2.00502 5.71797 2.08929 5.64538 2.18191 5.65289C2.28204 5.66039 2.3563 5.74717 2.35213 5.86482C2.31875 6.10763 2.3004 6.3638 2.30874 6.62246C2.32459 7.13979 2.43307 7.6371 2.63165 8.11521C2.645 8.14775 2.66002 8.17946 2.67087 8.21283C2.70592 8.31547 2.66503 8.41559 2.57325 8.45565ZM2.57325 5.01957C2.55656 5.06296 2.54237 5.10802 2.52068 5.14891C2.48063 5.224 2.38968 5.26155 2.31124 5.23902C2.23531 5.21649 2.17941 5.1414 2.18024 5.04294C2.20277 4.93947 2.25117 4.82599 2.3004 4.71418C2.82941 3.50847 3.71221 2.67323 4.94128 2.2043C5.11901 2.13671 5.30258 2.08581 5.48782 2.04326C5.61047 2.01489 5.7106 2.06996 5.7348 2.17593C5.75816 2.27856 5.69809 2.36701 5.57376 2.39788C5.10149 2.51303 4.65592 2.69075 4.24622 2.95526C3.46355 3.46091 2.90617 4.14929 2.57325 5.01957ZM5.0364 4.18267C4.74937 4.36707 4.50322 4.59319 4.30129 4.86855C3.94918 5.34916 3.77228 5.88819 3.76811 6.48312C3.76811 6.53568 3.76811 6.58825 3.76811 6.64165C3.76644 6.75513 3.69218 6.83941 3.59038 6.84191C3.49109 6.84441 3.40765 6.76181 3.40264 6.64916C3.38929 6.3396 3.41599 6.03421 3.49526 5.73466C3.70303 4.94364 4.15194 4.32618 4.83531 3.87728C4.94212 3.80719 5.04975 3.82137 5.114 3.91315C5.17491 3.99993 5.14738 4.11258 5.03724 4.1835L5.0364 4.18267ZM3.10643 9.29505C3.07806 9.31758 3.05136 9.34679 3.0063 9.34512C3.00296 9.29505 3.02883 9.25918 3.04719 9.22079C3.11561 9.08145 3.1882 8.94461 3.25328 8.80443C3.29667 8.71014 3.27414 8.68177 3.17151 8.68427C3.15649 8.68427 3.14231 8.68511 3.12729 8.68677C3.09141 8.69011 3.0572 8.6801 3.05052 8.64422C3.04385 8.60751 3.08307 8.60167 3.10977 8.59249C3.22909 8.55077 3.35174 8.5249 3.4744 8.49737C3.50194 8.49069 3.5278 8.49069 3.54616 8.45815C3.79898 8.01758 4.13525 7.6421 4.47568 7.27079C4.78608 6.93119 5.10733 6.6016 5.44443 6.2887C5.55123 6.18941 5.61631 6.05256 5.67389 5.91739C5.69809 5.85982 5.67138 5.80224 5.64385 5.74968C5.60964 5.68543 5.57042 5.62285 5.53705 5.55776C5.4728 5.43427 5.51785 5.36168 5.65637 5.37253C5.79321 5.38337 5.93005 5.4034 6.06606 5.42176C6.25213 5.44679 6.43737 5.47265 6.6226 5.50102C6.65681 5.50603 6.68518 5.49685 6.71522 5.48434C7.17665 5.29409 7.65142 5.14724 8.14539 5.07464C8.75617 4.98453 9.36946 4.94698 9.98024 5.07965C10.158 5.11887 10.3257 5.18812 10.4851 5.27824C10.5184 5.2966 10.5501 5.31746 10.581 5.33998C10.7462 5.46264 10.7479 5.55192 10.5718 5.65789C10.2539 5.8498 9.921 6.01585 9.58891 6.18357C9.46124 6.24781 9.35861 6.31373 9.28936 6.46059C9.13332 6.79185 8.82793 6.97124 8.50752 7.1206C8.49167 7.12811 8.4683 7.1473 8.45245 7.12394C8.4391 7.10475 8.45579 7.08556 8.46663 7.06803C8.50585 7.00295 8.54841 6.93953 8.58345 6.87195C8.60515 6.82939 8.63852 6.77766 8.58929 6.73594C8.54507 6.69756 8.49167 6.69505 8.43409 6.72009C8.05861 6.8828 7.67479 7.02631 7.29346 7.17484C6.81285 7.36174 6.32138 7.51277 5.82325 7.64377C5.43775 7.74473 5.08146 7.90995 4.74102 8.11437C4.47068 8.27625 4.20951 8.46315 3.90245 8.55077C3.74308 8.59666 3.63794 8.67676 3.5545 8.81945C3.44269 9.01052 3.27665 9.15905 3.10476 9.29756L3.10643 9.29505ZM7.69982 9.35847C7.51708 9.43774 7.32684 9.49698 7.13159 9.53453C6.2029 9.71226 5.36099 9.51617 4.60418 8.94961C4.54911 8.90789 4.50239 8.86033 4.50489 8.78273C4.50322 8.70847 4.53993 8.65423 4.60418 8.62086C4.6726 8.58498 4.74102 8.59499 4.80194 8.64088C4.97716 8.77355 5.16073 8.89371 5.36266 8.98299C6.05604 9.29088 6.75945 9.31508 7.47286 9.05558C7.5054 9.0439 7.53794 9.02888 7.57132 9.01803C7.67312 8.98466 7.77408 9.02888 7.81163 9.1215C7.84834 9.21328 7.80495 9.31341 7.70149 9.35847H7.69982ZM7.95014 10.716C7.93762 10.7945 7.88839 10.8487 7.81163 10.8704C7.50123 10.9597 7.18583 11.0214 6.86375 11.0465C6.74443 11.0556 6.62427 11.059 6.53249 11.064C5.36599 11.0465 4.36137 10.6752 3.49693 9.9317C3.3968 9.84576 3.37844 9.73562 3.44853 9.65552C3.52613 9.56707 3.63043 9.56373 3.73473 9.65468C4.27126 10.1203 4.88454 10.4348 5.5771 10.5917C6.27549 10.7494 6.97138 10.7286 7.6606 10.5316C7.7357 10.5099 7.80829 10.4933 7.87671 10.5483C7.93178 10.5926 7.96015 10.6485 7.9493 10.7169L7.95014 10.716ZM8.18043 8.90205C8.10868 8.82278 8.11785 8.71514 8.21715 8.63254C8.48583 8.40975 8.71028 8.15109 8.88384 7.8482C8.95226 7.72888 9.00566 7.60289 9.0624 7.47772C9.09494 7.40597 9.15251 7.36258 9.23512 7.36508C9.30855 7.36758 9.36111 7.4068 9.39449 7.47105C9.40701 7.49441 9.41618 7.51944 9.41702 7.54781C9.40868 7.57535 9.40367 7.60455 9.39282 7.63125C9.18839 8.13774 8.878 8.56579 8.45245 8.90956C8.35399 8.98966 8.25636 8.98549 8.18043 8.90122V8.90205ZM8.67023 10.5141C8.59764 10.5542 8.52755 10.5667 8.45579 10.5183C8.39571 10.4774 8.36567 10.4198 8.37568 10.3456C8.38653 10.268 8.43993 10.2237 8.50251 10.1887C8.68859 10.0836 8.87049 9.97176 9.03987 9.84075C9.92601 9.15404 10.4642 8.25873 10.6478 7.15147C10.6695 7.02131 10.6795 6.89031 10.697 6.7593C10.7112 6.65167 10.7938 6.58575 10.8981 6.59576C10.994 6.60494 11.0616 6.68838 11.06 6.75513C11.0216 7.38344 10.8739 7.94666 10.6152 8.47817C10.1847 9.36348 9.53384 10.041 8.67106 10.5158L8.67023 10.5141Z" fill="#004B76"/>
</svg>
