<svg width="35" height="35" viewBox="0 0 35 35" fill="none" xmlns="http://www.w3.org/2000/svg">
<path d="M17.5 6.44737C23.5952 6.44737 28.5526 11.4048 28.5526 17.5C28.5526 23.5952 23.5952 28.5526 17.5 28.5526C11.4048 28.5526 6.44737 23.5952 6.44737 17.5C6.44737 11.4048 11.4063 6.44737 17.5 6.44737ZM17.5 3.5C9.76758 3.5 3.5 9.76758 3.5 17.5C3.5 25.2324 9.76758 31.5 17.5 31.5C25.2324 31.5 31.5 25.2324 31.5 17.5C31.5 9.76758 25.2324 3.5 17.5 3.5Z" fill="#093E9C"/>
<mask id="mask0_1092_419" style="mask-type:luminance" maskUnits="userSpaceOnUse" x="3" y="3" width="29" height="29">
<path d="M17.5 31.5C25.232 31.5 31.5 25.232 31.5 17.5C31.5 9.76801 25.232 3.5 17.5 3.5C9.76801 3.5 3.5 9.76801 3.5 17.5C3.5 25.232 9.76801 31.5 17.5 31.5Z" fill="white"/>
</mask>
<g mask="url(#mask0_1092_419)">
<path d="M31.4202 10.1813L1.94922 13.6851L2.40678 17.5337L31.8778 14.03L31.4202 10.1813Z" fill="#FF4514"/>
<path d="M32.7483 16.9611L3.27734 20.4648L3.73491 24.3135L33.2059 20.8098L32.7483 16.9611Z" fill="#046C0D"/>
</g>
<path d="M29.5696 10.4028L26.2773 10.7934C27.11 11.8809 27.7437 13.1262 28.1283 14.4761L31.0889 14.1239C31.0786 14.0826 31.0698 14.0414 31.058 14.0001C30.943 13.5521 30.806 13.1144 30.6498 12.6856C30.61 12.578 30.5702 12.4719 30.5289 12.3658C30.3624 11.9414 30.1752 11.5287 29.9689 11.1264C29.8658 10.9245 29.7582 10.727 29.6462 10.531C29.6211 10.4883 29.5961 10.4456 29.571 10.4028H29.5696Z" fill="#093E9C"/>
<path d="M7.39296 13.0391L4.1037 13.4296C4.04622 13.6182 3.9917 13.8083 3.94306 14.0014C3.66306 15.0904 3.51127 16.2296 3.50391 17.4041L6.46159 17.0534C6.51906 15.6298 6.84622 14.2755 7.39443 13.0391H7.39296Z" fill="#1C0A3A"/>
<path d="M31.4937 17.1108L28.5508 17.4601C28.5508 17.4734 28.5508 17.4866 28.5508 17.4999C28.5508 18.891 28.2899 20.2233 27.8184 21.4508L31.0384 21.0677C31.3375 19.9285 31.4981 18.7334 31.4981 17.4999C31.4981 17.3702 31.4967 17.2405 31.4923 17.1108H31.4937Z" fill="#093E9C"/>
<path d="M6.74863 20.0508L3.80273 20.4015C4.08273 21.7264 4.54842 22.9834 5.17326 24.1417L8.39768 23.7586C7.63431 22.6518 7.06842 21.3992 6.74863 20.0523V20.0508Z" fill="#043A9A"/>
<mask id="mask1_1092_419" style="mask-type:luminance" maskUnits="userSpaceOnUse" x="3" y="3" width="29" height="29">
<path d="M17.5 31.5C25.232 31.5 31.5 25.232 31.5 17.5C31.5 9.76801 25.232 3.5 17.5 3.5C9.76801 3.5 3.5 9.76801 3.5 17.5C3.5 25.232 9.76801 31.5 17.5 31.5Z" fill="white"/>
</mask>
<g mask="url(#mask1_1092_419)">
<path d="M28.8521 3.83641L0.988281 14.0552L2.32277 17.694L30.1866 7.47521L28.8521 3.83641Z" fill="#FF7F1E"/>
<path d="M30.9146 10.1733L3.05078 20.3921L4.38527 24.0309L32.2491 13.8121L30.9146 10.1733Z" fill="#00B21D"/>
<path d="M31.7532 17.0642L14.4503 23.4099C13.4454 23.7784 12.9296 24.8917 13.2981 25.8965C13.6666 26.9014 14.7799 27.4172 15.7848 27.0487L33.0877 20.703C34.0926 20.3345 34.6084 19.2212 34.2399 18.2164C33.8714 17.2115 32.7581 16.6957 31.7532 17.0642Z" fill="#150C4B"/>
</g>
</svg>
