<svg width="35" height="35" viewBox="0 0 35 35" fill="none" xmlns="http://www.w3.org/2000/svg">
<path d="M4.08984 10.4531H23.9565L30.3512 4.05908H10.4839L4.08984 10.4531Z" fill="#FDC52B"/>
<path d="M24.5469 30.9411V11.0744L30.9416 4.67969V24.5464L24.5469 30.9411Z" fill="#D59700"/>
<path d="M23.9253 11.0742H4.05859V30.9409H23.9253V11.0742Z" fill="#FBB708"/>
<path d="M30.9409 3.5H10.4531C10.3052 3.5 10.1627 3.55874 10.0581 3.6634L3.6634 10.0581C3.55874 10.1627 3.5 10.3052 3.5 10.4531V30.9409C3.5 31.2495 3.74982 31.5 4.05905 31.5H24.5469C24.6948 31.5 24.8373 31.4413 24.9419 31.3366L31.3366 24.9419C31.4413 24.8373 31.5 24.6948 31.5 24.5469V4.05905C31.5 3.75049 31.2502 3.5 30.9409 3.5ZM10.4841 4.05905H30.3508L23.9561 10.4537H4.09011L10.4841 4.05905ZM23.9251 11.0742V14.0194C23.8697 14.0788 23.8225 14.1308 23.7833 14.1747H4.05905V11.0749H23.9258L23.9251 11.0742ZM23.4943 14.8033L21.7706 20.196H16.1456L14.4218 14.8033H23.4936H23.4943ZM13.561 14.8033L11.8372 20.196H6.2129L4.48915 14.8033H13.561ZM4.05905 30.9409V15.5217L5.75377 20.8253H12.2977L13.9924 15.5217L15.6871 20.8253H22.231L23.9258 15.5217V30.9409H4.05905ZM30.9416 24.5462L24.5469 30.9409V14.2767C25.692 13.0809 27.4766 11.6549 28.4144 11.9912L28.6271 11.399C27.3658 10.9473 25.5989 12.372 24.5476 13.3868V11.0742L30.9423 4.67955V24.5462H30.9416Z" fill="white"/>
<path d="M21.5248 23.0413L21.5086 23.0278C21.3864 23.1953 21.2581 23.358 21.1251 23.5167C21.1163 23.5275 21.1075 23.5369 21.0987 23.5477C21.0609 23.5923 21.0224 23.6369 20.984 23.6807C20.9657 23.701 20.9475 23.7219 20.9293 23.7422C20.8935 23.782 20.8577 23.8212 20.8212 23.8603C20.8016 23.8819 20.7814 23.9029 20.7618 23.9245C20.7247 23.9636 20.6869 24.0028 20.6491 24.042C20.6302 24.0609 20.6119 24.0804 20.593 24.0994C20.5424 24.1507 20.4911 24.2006 20.4391 24.2506C20.4337 24.256 20.4283 24.2614 20.4222 24.2668C20.3621 24.3242 20.3013 24.3802 20.2399 24.4363C20.2345 24.441 20.2284 24.4464 20.223 24.4511C20.167 24.5018 20.1109 24.5511 20.0535 24.6003C20.0448 24.6078 20.036 24.6152 20.0272 24.6226C19.9712 24.6699 19.9151 24.7171 19.8577 24.7637C19.8517 24.7685 19.8456 24.7739 19.8395 24.7786C18.3703 25.9656 16.5331 26.715 14.5258 26.8291C14.517 26.8291 14.5082 26.8305 14.4995 26.8305C14.4286 26.8345 14.3577 26.8372 14.2861 26.8393C14.2719 26.8393 14.2571 26.8406 14.2429 26.8406C14.1592 26.8426 14.0754 26.844 13.991 26.844C13.9066 26.844 13.8229 26.8426 13.7392 26.8406C13.725 26.8406 13.7102 26.8393 13.696 26.8393C13.6244 26.8372 13.5535 26.8345 13.4826 26.8305C13.4738 26.8305 13.4651 26.8291 13.4563 26.8291C11.449 26.7157 9.61178 25.9662 8.14257 24.7786C8.1365 24.7739 8.13042 24.7691 8.12434 24.7637C8.06763 24.7171 8.01091 24.6706 7.95487 24.6226C7.94609 24.6152 7.93731 24.6078 7.92921 24.6003C7.87182 24.5511 7.81578 24.5018 7.75974 24.4511C7.75434 24.4464 7.74826 24.441 7.74286 24.4363C7.68142 24.3802 7.62065 24.3242 7.56056 24.2668C7.55516 24.2614 7.54976 24.256 7.54368 24.2506C7.49169 24.2006 7.44038 24.15 7.38974 24.0994C7.37083 24.0804 7.3526 24.0615 7.3337 24.042C7.29589 24.0035 7.25808 23.9643 7.22094 23.9245C7.20069 23.9035 7.18111 23.8819 7.16153 23.8603C7.12507 23.8212 7.08928 23.782 7.0535 23.7422C7.03527 23.7219 7.01704 23.701 6.99881 23.6807C6.96032 23.6369 6.92183 23.5923 6.88402 23.5477C6.87525 23.5376 6.86647 23.5275 6.85769 23.5173C6.72468 23.3587 6.59639 23.196 6.47419 23.0285L6.45798 23.042L5.98805 23.4363C5.98805 23.4363 5.98467 23.4431 5.98738 23.4464L6.31417 23.836C8.19051 26.0723 10.9378 27.4253 13.8567 27.4638C16.8505 27.5036 19.6795 26.2059 21.6004 23.9164L21.9947 23.4464C21.9947 23.4464 21.9967 23.439 21.994 23.4363L21.5241 23.042L21.5248 23.0413Z" fill="white"/>
<path d="M8.77726 19.7972C10.0628 19.7972 11.1053 18.7547 11.1053 17.4692C11.1053 16.1836 10.0628 15.1411 8.77726 15.1411C7.49171 15.1411 6.44922 16.1836 6.44922 17.4692C6.44922 18.7547 7.49171 19.7972 8.77726 19.7972ZM8.77726 15.7697C9.71442 15.7697 10.476 16.532 10.476 17.4685C10.476 18.405 9.71375 19.1673 8.77726 19.1673C7.84078 19.1673 7.07849 18.405 7.07849 17.4685C7.07849 16.532 7.84078 15.7697 8.77726 15.7697Z" fill="white"/>
<path d="M19.207 19.7972C20.4925 19.7972 21.535 18.7547 21.535 17.4692C21.535 16.1836 20.4925 15.1411 19.207 15.1411C17.9214 15.1411 16.8789 16.1836 16.8789 17.4692C16.8789 18.7547 17.9214 19.7972 19.207 19.7972ZM19.207 15.7697C20.1441 15.7697 20.9057 16.532 20.9057 17.4685C20.9057 18.405 20.1434 19.1673 19.207 19.1673C18.2705 19.1673 17.5082 18.405 17.5082 17.4685C17.5082 16.532 18.2705 15.7697 19.207 15.7697Z" fill="white"/>
</svg>
