<svg width="35" height="35" viewBox="0 0 35 35" fill="none" xmlns="http://www.w3.org/2000/svg">
<path d="M14.1425 18.9967C14.2755 19.2627 14.5415 19.3292 14.8075 19.3292C15.2066 19.3292 15.4061 18.9967 15.4061 18.9967L21.8574 10.6831C22.3895 10.1511 22.9216 10.6166 22.9216 10.6166C23.4536 11.1487 23.0546 11.6143 23.0546 11.6143L21.6579 13.4765C21.5249 13.6095 21.3919 13.809 21.3919 13.9421C21.3919 14.1416 21.4584 14.3411 21.5914 14.4076L23.0546 16.2698L27.6437 10.4836L25.7814 8.15583L25.4489 7.69027C25.1828 7.29122 24.5178 7.1582 24.5178 7.1582H21.7244C21.0593 7.1582 20.6603 7.69027 20.6603 7.69027L12.9453 17.5335L14.1425 18.9967Z" fill="#10AE4B"/>
<path d="M13.8085 13.9419L12.0128 11.6142C11.6137 11.0156 12.1458 10.6165 12.1458 10.6165C12.8774 10.2175 13.2765 10.8161 13.2765 10.8161L14.7396 12.7448L16.5354 10.417L14.4736 7.75667C14.008 7.09159 13.2765 7.1581 13.2765 7.1581H10.7491C10.0176 7.1581 9.6185 7.69016 9.6185 7.69016L7.49023 10.417L12.0128 16.2697L13.8085 13.9419Z" fill="#10AE4B"/>
<path d="M20.927 16.0034C20.927 16.0034 20.6609 15.6709 20.2619 15.6709C19.8628 15.6709 19.6633 15.9369 19.6633 15.9369L13.1455 24.317C12.6799 24.9156 12.0814 24.45 12.0814 24.45C11.5493 23.9179 12.0149 23.3859 12.0149 23.3859L13.478 21.5236C13.5445 21.3906 13.6776 21.1911 13.6776 20.9916C13.6776 20.8585 13.6111 20.659 13.478 20.526L12.0149 18.7303L7.42578 24.583L10.0196 27.8419H14.0101L22.1241 17.5331L20.927 16.0034Z" fill="#10AE4B"/>
<path d="M21.2582 20.9918L23.0539 23.3861C23.5195 23.9846 22.9874 24.4502 22.9874 24.4502C22.2558 24.9157 21.8568 24.1842 21.8568 24.1842L20.2606 22.1889L18.4648 24.5167L21.0587 27.8421H25.0492L27.643 24.5832L23.0539 18.7305L21.2582 20.9918Z" fill="#10AE4B"/>
<path d="M27.5771 15.6709C26.5795 15.6709 25.7148 16.5355 25.7148 17.5331C25.7148 18.5308 26.5795 19.3289 27.5771 19.3289C28.5747 19.3289 29.4393 18.5308 29.4393 17.5331C29.4393 16.5355 28.5747 15.6709 27.5771 15.6709ZM27.5771 18.5308C27.045 18.5308 26.5795 18.0652 26.5795 17.5331C26.5795 17.0011 27.045 16.5355 27.5771 16.5355C28.1091 16.5355 28.5747 17.0011 28.5747 17.5331C28.5747 18.0652 28.1091 18.5308 27.5771 18.5308Z" fill="#10AE4B"/>
<path d="M17.5341 7.15796C18.5317 7.15796 19.3963 6.35986 19.3963 5.36223C19.3963 4.36461 18.5317 3.5 17.5341 3.5C16.5365 3.5 15.6719 4.36461 15.6719 5.36223C15.6719 6.35986 16.5365 7.15796 17.5341 7.15796ZM17.5341 4.36461C18.0662 4.36461 18.5317 4.83017 18.5317 5.36223C18.5317 5.8943 18.0662 6.35986 17.5341 6.35986C17.002 6.35986 16.5365 5.8943 16.5365 5.36223C16.5365 4.83017 17.002 4.36461 17.5341 4.36461Z" fill="#10AE4B"/>
<path d="M9.28697 17.5331C9.28697 16.469 8.48887 15.6709 7.42473 15.6709C6.42711 15.6709 5.5625 16.469 5.5625 17.5331C5.5625 18.5308 6.42711 19.3289 7.42473 19.3289C8.48887 19.3289 9.28697 18.5308 9.28697 17.5331ZM6.49362 17.5331C6.49362 17.0011 6.89267 16.5355 7.42473 16.5355C7.9568 16.5355 8.42236 17.0011 8.42236 17.5331C8.42236 18.0652 7.9568 18.4642 7.42473 18.4642C6.89267 18.4642 6.49362 18.0652 6.49362 17.5331Z" fill="#10AE4B"/>
<path d="M17.5341 27.8423C16.5365 27.8423 15.6719 28.6404 15.6719 29.7045C15.6719 30.7021 16.5365 31.5002 17.5341 31.5002C18.5317 31.5002 19.3963 30.7021 19.3963 29.7045C19.3963 28.6404 18.5317 27.8423 17.5341 27.8423ZM17.5341 30.6356C17.002 30.6356 16.5365 30.2366 16.5365 29.7045C16.5365 29.1059 17.002 28.7069 17.5341 28.7069C18.0662 28.7069 18.5317 29.1059 18.5317 29.7045C18.5317 30.2366 18.0662 30.6356 17.5341 30.6356Z" fill="#10AE4B"/>
</svg>
