<svg width="13" height="13" viewBox="0 0 13 13" fill="none" xmlns="http://www.w3.org/2000/svg">
<path d="M11.6931 8.56978C11.0987 7.23436 10.5042 5.89904 9.9106 4.5634C9.8822 4.49966 9.84403 4.43954 9.83152 4.36914H8.39971C8.37327 4.38301 8.36241 4.40873 8.35159 4.43391C8.30288 4.5475 8.25209 4.66011 8.20283 4.77349C8.19245 4.79724 8.18645 4.82499 8.15898 4.84366C8.11501 4.76 8.08787 4.67295 8.04298 4.59518C7.97881 4.48404 7.89869 4.38995 7.76091 4.3692H5.25236C5.18415 4.37695 5.12495 4.40464 5.07438 4.45046C5.01666 4.50272 4.97559 4.56667 4.94408 4.63745C4.91235 4.70855 4.88439 4.78135 4.84458 4.85524C4.78953 4.7316 4.7377 4.61331 4.6838 4.49595C4.6637 4.4521 4.65382 4.40213 4.6134 4.36936H3.18159C3.07739 4.60665 2.97406 4.84454 2.86866 5.08139C2.35066 6.24528 1.83218 7.40884 1.31315 8.5723C1.29458 8.61386 1.29032 8.63095 1.3481 8.63073C1.78587 8.62855 2.22369 8.62877 2.66146 8.63073C2.70499 8.63084 2.72263 8.61435 2.73879 8.57787C3.00541 7.97615 3.27317 7.37504 3.5406 6.77382C3.65857 6.50867 3.77686 6.24359 3.89831 5.97096C3.97089 6.13382 4.03949 6.29012 4.11059 6.44511C4.12757 6.48191 4.12823 6.51179 4.11119 6.54991C3.81066 7.22202 3.51172 7.89478 3.21255 8.56749C3.19424 8.60867 3.20685 8.62929 3.2504 8.62937C3.68036 8.62948 4.11015 8.62833 4.54011 8.6309C4.59369 8.63122 4.6187 8.61588 4.6394 8.56651C4.70368 8.41278 4.77423 8.26155 4.8461 8.10078C4.88963 8.19771 4.92688 8.28613 4.96854 8.37247C5.04205 8.52446 5.15308 8.62882 5.33237 8.62904C6.11332 8.63029 6.89422 8.62964 7.67517 8.62948C7.79777 8.62948 7.89482 8.5771 7.97193 8.48383C8.02802 8.41594 8.05674 8.33402 8.09344 8.25598C8.11594 8.20798 8.13129 8.15604 8.16629 8.10662C8.23855 8.26947 8.30861 8.42506 8.37628 8.58169C8.3914 8.61664 8.40926 8.63084 8.45017 8.63062C8.89001 8.62877 9.3298 8.62959 9.76954 8.62904C9.78581 8.62904 9.80498 8.63734 9.81929 8.61943C9.8141 8.60676 9.80902 8.59392 9.80345 8.58147C9.50265 7.90614 9.20212 7.2307 8.90017 6.55597C8.88182 6.51501 8.88078 6.48197 8.90006 6.4409C8.96172 6.30945 9.01824 6.17554 9.07853 6.04327C9.08765 6.02328 9.08984 5.99745 9.11534 5.98303C9.12402 6.00182 9.13216 6.01902 9.13992 6.0365C9.51674 6.88298 9.89383 7.72936 10.2695 8.57634C10.2869 8.61571 10.3064 8.63095 10.3512 8.63073C10.785 8.62877 11.2189 8.62958 11.6528 8.62958C11.6974 8.62958 11.7109 8.60972 11.6933 8.57L11.6931 8.56978ZM5.57397 6.46313C5.75255 6.06309 5.92911 5.66197 6.1095 5.26276C6.18535 5.09504 6.32035 5.00433 6.50549 5.00526C6.6903 5.00619 6.82415 5.09712 6.8999 5.26543C7.07881 5.66317 7.25493 6.06217 7.43324 6.46029C7.44558 6.48776 7.44536 6.50944 7.43313 6.5368C7.25504 6.93465 7.07853 7.33342 6.90044 7.73127C6.82459 7.90057 6.68784 7.98232 6.50631 7.99549C6.32893 7.98407 6.19005 7.9086 6.1154 7.74422C5.93201 7.34036 5.75354 6.93421 5.57201 6.52954C5.56092 6.50496 5.56382 6.4859 5.57397 6.46318V6.46313ZM8.05068 7.93923C7.99814 8.05119 7.94888 8.16478 7.89973 8.27821C7.84594 8.40207 7.76309 8.46367 7.61739 8.46264C6.86806 8.45712 6.11867 8.45827 5.36934 8.46182C5.24379 8.46242 5.16886 8.40573 5.12097 8.30044C5.03004 8.10067 4.94102 7.8998 4.85178 7.69932C4.38955 6.66121 3.92748 5.62314 3.46535 4.58491C3.45912 4.5706 3.45383 4.55608 3.44503 4.53445C3.79127 4.53445 4.12845 4.53527 4.46557 4.53341C4.50363 4.5332 4.50975 4.55548 4.52094 4.5806C4.8828 5.39372 5.24488 6.20678 5.60696 7.01979C5.7211 7.27603 5.83469 7.53259 5.94976 7.78851C6.05581 8.02443 6.23947 8.15544 6.49812 8.15834C6.75987 8.16123 6.94839 8.03229 7.0562 7.7944C7.2143 7.44582 7.36819 7.09532 7.524 6.74558C7.52875 6.73482 7.53416 6.72445 7.54257 6.70692C7.61023 6.85879 7.67544 7.00515 7.74065 7.15151C7.84381 7.38307 7.94621 7.61495 8.0509 7.84579C8.06614 7.87938 8.06635 7.90559 8.05068 7.93918V7.93923ZM8.78363 6.29066C8.69199 6.08489 8.60368 5.88621 8.51515 5.68758C8.43449 5.5066 8.35389 5.32551 8.2723 5.14485C8.26028 5.11831 8.25684 5.09592 8.26978 5.06752C8.34471 4.90363 8.41762 4.7387 8.4908 4.57399C8.50036 4.55242 8.50614 4.53358 8.53869 4.53369C8.87778 4.53505 9.2167 4.53451 9.56562 4.53451C9.30337 5.12339 9.04516 5.70326 8.78363 6.29066Z" fill="#333333"/>
</svg>
