<svg width="35" height="35" viewBox="0 0 35 35" fill="none" xmlns="http://www.w3.org/2000/svg">
<path d="M28.1658 17.611C28.1551 17.4736 28.084 17.3481 27.9717 17.268C26.2623 16.0498 24.805 15.5581 23.591 15.4834C24.0158 15.4147 24.4394 15.3561 24.8445 15.3089C25.0769 15.282 25.2531 15.0849 25.2543 14.8507L25.2836 10.3941C25.2848 10.2567 25.2251 10.127 25.1205 10.0374C25.0154 9.94779 24.8767 9.90955 24.7405 9.93226C22.6703 10.2794 21.2919 10.9623 20.3808 11.7677C20.6329 11.4188 20.891 11.0776 21.1437 10.7574C21.2889 10.5739 21.274 10.3099 21.1097 10.1432L17.9789 6.97118C17.8821 6.87319 17.7477 6.8242 17.6115 6.83496C17.474 6.84571 17.3492 6.91681 17.2685 7.02973C16.0503 8.7391 15.5585 10.1963 15.4839 11.4104C15.4151 10.9856 15.3566 10.562 15.3094 10.1563C15.2819 9.92389 15.0853 9.74764 14.8511 9.74644L10.3946 9.71717H10.3916C10.2554 9.71717 10.1269 9.77632 10.0385 9.88028C9.94886 9.98543 9.91063 10.124 9.93333 10.2603C10.2805 12.3299 10.9628 13.7083 11.7682 14.6194C11.4192 14.3679 11.0787 14.1098 10.7584 13.8571C10.575 13.7119 10.3109 13.7268 10.1442 13.8911L6.97225 17.0219C6.87427 17.1187 6.82468 17.2525 6.83543 17.3893C6.84618 17.5267 6.91728 17.6522 7.02961 17.7323C8.74197 18.9523 10.1998 19.4428 11.4145 19.5163C10.9879 19.585 10.5631 19.6442 10.1562 19.692C9.92377 19.7195 9.74752 19.916 9.74632 20.1503L9.71705 24.6068C9.71585 24.7442 9.7756 24.8739 9.88016 24.9629C9.96559 25.0358 10.0725 25.0746 10.1825 25.0746C10.2082 25.0746 10.2345 25.0722 10.2601 25.0681C12.3304 24.7209 13.7088 24.038 14.6199 23.2326C14.3678 23.5815 14.1097 23.9227 13.8569 24.2429C13.7118 24.4264 13.7267 24.6905 13.891 24.8571L17.0218 28.0291C17.1096 28.1182 17.2279 28.1672 17.3516 28.1672C17.3641 28.1672 17.3767 28.1672 17.3892 28.166C17.5266 28.1552 17.6515 28.0841 17.7322 27.9712C18.9504 26.2618 19.4421 24.8046 19.5168 23.5905C19.5855 24.0153 19.6441 24.4389 19.6913 24.8446C19.7188 25.0764 19.9153 25.2533 20.1495 25.2545L24.6061 25.2837H24.6091C24.7453 25.2837 24.8738 25.2246 24.9622 25.1206C25.0518 25.0155 25.09 24.8769 25.0673 24.7406C24.7202 22.6704 24.0373 21.292 23.2319 20.3815C23.5808 20.6336 23.9214 20.8911 24.2416 21.1444C24.3259 21.2114 24.4274 21.2442 24.529 21.2442C24.6479 21.2442 24.7656 21.1988 24.8558 21.1104L28.0278 17.9802C28.1258 17.884 28.1754 17.7496 28.1646 17.6128L28.1658 17.611ZM24.8218 10.3905L24.7907 14.8489C23.7804 14.9672 20.3909 15.429 19.2019 16.3975C19.2019 16.3975 19.2019 16.3975 19.2019 16.3951C18.9713 14.911 19.0573 11.3548 24.8224 10.3899L24.8218 10.3905ZM17.6509 7.29621L20.7817 10.4706C20.1507 11.2688 18.0811 13.9915 17.9251 15.518C17.9251 15.518 17.9245 15.518 17.9233 15.5168C16.7111 14.6302 14.2572 12.0551 17.6515 7.29621H17.6509ZM14.8511 10.2101C14.9694 11.2204 15.4313 14.6093 16.3998 15.7989C16.3998 15.7989 16.3992 15.7989 16.3974 15.7989C14.9127 16.0289 11.3571 15.9434 10.3922 10.1784L14.8511 10.2095V10.2101ZM10.4728 14.2191C11.2711 14.8501 13.9944 16.9197 15.5203 17.0757C15.5203 17.0757 15.5203 17.0762 15.5191 17.0774C14.6325 18.2897 12.0573 20.7441 7.29847 17.3499L10.4728 14.2191ZM10.1813 24.6086L10.2124 20.1497C11.2227 20.0314 14.6115 19.5695 15.8011 18.601C15.8011 18.601 15.8011 18.601 15.8011 18.6034C16.0317 20.0875 15.9457 23.6437 10.1807 24.6086H10.1813ZM17.3522 27.7029L14.2214 24.5285C14.8523 23.7303 16.922 21.0076 17.0779 19.4817C17.0779 19.4817 17.0785 19.4817 17.0797 19.4829C18.292 20.3695 20.7458 22.9446 17.3516 27.7035L17.3522 27.7029ZM20.1519 24.789C20.0336 23.7787 19.5718 20.3898 18.6033 19.2003C18.6033 19.2003 18.6039 19.2003 18.6057 19.2003C20.0898 18.9696 23.6459 19.0557 24.6109 24.8207L20.1519 24.7896V24.789ZM18.5346 18.7426C18.3697 18.7683 18.2298 18.8806 18.1701 19.0366C18.1104 19.1931 18.1378 19.364 18.2436 19.4936C18.4772 19.7804 18.6893 20.2417 18.8763 20.8033C18.384 19.9465 17.7316 19.3855 17.3534 19.1089C17.2183 19.0103 17.0403 18.9912 16.8879 19.0593C16.735 19.1274 16.6334 19.2678 16.6167 19.4345C16.5796 19.8025 16.4028 20.2781 16.1381 20.8075C16.3956 19.8539 16.3311 18.9959 16.2588 18.5329C16.2331 18.368 16.1202 18.2282 15.9648 18.1684C15.8083 18.1087 15.6374 18.1356 15.5078 18.2419C15.221 18.4755 14.7591 18.6876 14.1975 18.8746C15.0543 18.3823 15.6153 17.7299 15.8919 17.3511C15.9905 17.2161 16.0096 17.038 15.9415 16.8857C15.8734 16.7327 15.733 16.6311 15.5663 16.6144C15.1983 16.5774 14.7227 16.4005 14.1939 16.1358C14.7119 16.2756 15.2019 16.3204 15.6153 16.3204C15.9624 16.3204 16.2564 16.2888 16.4679 16.2559C16.6328 16.2302 16.7726 16.1179 16.8324 15.962C16.8921 15.8054 16.8646 15.6345 16.7589 15.5049C16.5253 15.2181 16.3137 14.7569 16.1261 14.1952C16.6185 15.052 17.2709 15.613 17.6491 15.8897C17.7304 15.9494 17.8277 15.9799 17.9251 15.9799C17.9897 15.9799 18.0542 15.9667 18.1145 15.9399C18.2675 15.8717 18.3691 15.7313 18.3858 15.5646C18.4228 15.1966 18.5997 14.721 18.8644 14.1916C18.6069 15.1452 18.6714 16.0032 18.7437 16.4662C18.7694 16.6311 18.8823 16.7709 19.0376 16.8307C19.092 16.8516 19.1488 16.8618 19.2043 16.8618C19.3083 16.8618 19.4099 16.8259 19.4941 16.7572C19.7809 16.5236 20.2421 16.3121 20.8038 16.1251C19.947 16.6174 19.3866 17.2698 19.1099 17.648C19.0113 17.7831 18.9922 17.9611 19.0603 18.1135C19.1284 18.2664 19.2689 18.368 19.4355 18.3847C19.8036 18.4218 20.2792 18.5986 20.8079 18.8633C19.8544 18.6058 18.997 18.6709 18.534 18.7426H18.5346ZM24.5302 20.78C23.732 20.1491 21.0093 18.0794 19.4827 17.9235C19.4827 17.9235 19.4827 17.9229 19.4839 17.9217C20.0372 17.1647 21.2489 15.9243 23.2385 15.9243C24.4364 15.9243 25.9163 16.3742 27.7046 17.6498L24.5302 20.7806V20.78Z" fill="#591639"/>
<path d="M17.4999 16.1113C16.7345 16.1113 16.1113 16.7339 16.1113 17.4999C16.1113 18.2658 16.7345 18.8884 17.4999 18.8884C18.2652 18.8884 18.8884 18.2658 18.8884 17.4999C18.8884 16.7339 18.2658 16.1113 17.4999 16.1113ZM17.4999 18.4719C16.9639 18.4719 16.5278 18.0358 16.5278 17.4999C16.5278 16.9639 16.9639 16.5278 17.4999 16.5278C18.0358 16.5278 18.4719 16.9639 18.4719 17.4999C18.4719 18.0358 18.0358 18.4719 17.4999 18.4719Z" fill="#591639"/>
<path d="M17.4991 4.81152C10.5027 4.81152 4.81055 10.5037 4.81055 17.5001C4.81055 24.4965 10.5027 30.1886 17.4991 30.1886C24.4955 30.1886 30.1876 24.4965 30.1876 17.5001C30.1876 10.5037 24.4955 4.81152 17.4991 4.81152ZM17.4991 29.7262C10.7578 29.7262 5.27299 24.2414 5.27299 17.5001C5.27299 10.7588 10.7578 5.27397 17.4991 5.27397C24.2404 5.27397 29.7252 10.7588 29.7252 17.5001C29.7252 24.2414 24.2404 29.7262 17.4991 29.7262Z" fill="#591639"/>
<path d="M17.5 3.5C9.78064 3.5 3.5 9.78064 3.5 17.5C3.5 25.2194 9.78064 31.5 17.5 31.5C25.2194 31.5 31.5 25.2194 31.5 17.5C31.5 9.78064 25.2194 3.5 17.5 3.5ZM17.5 31.0376C10.0352 31.0376 3.96244 24.9648 3.96244 17.5C3.96244 10.0352 10.0358 3.96244 17.5 3.96244C24.9642 3.96244 31.0376 10.0352 31.0376 17.5C31.0376 24.9648 24.9648 31.0376 17.5 31.0376Z" fill="#591639"/>
<path d="M28.1658 17.611C28.1551 17.4736 28.084 17.3481 27.9717 17.268C26.2623 16.0498 24.805 15.5581 23.591 15.4834C24.0158 15.4147 24.4394 15.3561 24.8445 15.3089C25.0769 15.282 25.2531 15.0849 25.2543 14.8507L25.2836 10.3941C25.2848 10.2567 25.2251 10.127 25.1205 10.0374C25.0154 9.94779 24.8767 9.90955 24.7405 9.93226C22.6703 10.2794 21.2919 10.9623 20.3808 11.7677C20.6329 11.4188 20.891 11.0776 21.1437 10.7574C21.2889 10.5739 21.274 10.3099 21.1097 10.1432L17.9789 6.97118C17.8821 6.87319 17.7477 6.8242 17.6115 6.83496C17.474 6.84571 17.3492 6.91681 17.2685 7.02973C16.0503 8.7391 15.5585 10.1963 15.4839 11.4104C15.4151 10.9856 15.3566 10.562 15.3094 10.1563C15.2819 9.92389 15.0853 9.74764 14.8511 9.74644L10.3946 9.71717H10.3916C10.2554 9.71717 10.1269 9.77632 10.0385 9.88028C9.94886 9.98543 9.91063 10.124 9.93333 10.2603C10.2805 12.3299 10.9628 13.7083 11.7682 14.6194C11.4192 14.3679 11.0787 14.1098 10.7584 13.8571C10.575 13.7119 10.3109 13.7268 10.1442 13.8911L6.97225 17.0219C6.87427 17.1187 6.82468 17.2525 6.83543 17.3893C6.84618 17.5267 6.91728 17.6522 7.02961 17.7323C8.74197 18.9523 10.1998 19.4428 11.4145 19.5163C10.9879 19.585 10.5631 19.6442 10.1562 19.692C9.92377 19.7195 9.74752 19.916 9.74632 20.1503L9.71705 24.6068C9.71585 24.7442 9.7756 24.8739 9.88016 24.9629C9.96559 25.0358 10.0725 25.0746 10.1825 25.0746C10.2082 25.0746 10.2345 25.0722 10.2601 25.0681C12.3304 24.7209 13.7088 24.038 14.6199 23.2326C14.3678 23.5815 14.1097 23.9227 13.8569 24.2429C13.7118 24.4264 13.7267 24.6905 13.891 24.8571L17.0218 28.0291C17.1096 28.1182 17.2279 28.1672 17.3516 28.1672C17.3641 28.1672 17.3767 28.1672 17.3892 28.166C17.5266 28.1552 17.6515 28.0841 17.7322 27.9712C18.9504 26.2618 19.4421 24.8046 19.5168 23.5905C19.5855 24.0153 19.6441 24.4389 19.6913 24.8446C19.7188 25.0764 19.9153 25.2533 20.1495 25.2545L24.6061 25.2837H24.6091C24.7453 25.2837 24.8738 25.2246 24.9622 25.1206C25.0518 25.0155 25.09 24.8769 25.0673 24.7406C24.7202 22.6704 24.0373 21.292 23.2319 20.3815C23.5808 20.6336 23.9214 20.8911 24.2416 21.1444C24.3259 21.2114 24.4274 21.2442 24.529 21.2442C24.6479 21.2442 24.7656 21.1988 24.8558 21.1104L28.0278 17.9802C28.1258 17.884 28.1754 17.7496 28.1646 17.6128L28.1658 17.611ZM24.8218 10.3905L24.7907 14.8489C23.7804 14.9672 20.3909 15.429 19.2019 16.3975C19.2019 16.3975 19.2019 16.3975 19.2019 16.3951C18.9713 14.911 19.0573 11.3548 24.8224 10.3899L24.8218 10.3905ZM17.6509 7.29621L20.7817 10.4706C20.1507 11.2688 18.0811 13.9915 17.9251 15.518C17.9251 15.518 17.9245 15.518 17.9233 15.5168C16.7111 14.6302 14.2572 12.0551 17.6515 7.29621H17.6509ZM14.8511 10.2101C14.9694 11.2204 15.4313 14.6093 16.3998 15.7989C16.3998 15.7989 16.3992 15.7989 16.3974 15.7989C14.9127 16.0289 11.3571 15.9434 10.3922 10.1784L14.8511 10.2095V10.2101ZM10.4728 14.2191C11.2711 14.8501 13.9944 16.9197 15.5203 17.0757C15.5203 17.0757 15.5203 17.0762 15.5191 17.0774C14.6325 18.2897 12.0573 20.7441 7.29847 17.3499L10.4728 14.2191ZM10.1813 24.6086L10.2124 20.1497C11.2227 20.0314 14.6115 19.5695 15.8011 18.601C15.8011 18.601 15.8011 18.601 15.8011 18.6034C16.0317 20.0875 15.9457 23.6437 10.1807 24.6086H10.1813ZM17.3522 27.7029L14.2214 24.5285C14.8523 23.7303 16.922 21.0076 17.0779 19.4817C17.0779 19.4817 17.0785 19.4817 17.0797 19.4829C18.292 20.3695 20.7458 22.9446 17.3516 27.7035L17.3522 27.7029ZM20.1519 24.789C20.0336 23.7787 19.5718 20.3898 18.6033 19.2003C18.6033 19.2003 18.6039 19.2003 18.6057 19.2003C20.0898 18.9696 23.6459 19.0557 24.6109 24.8207L20.1519 24.7896V24.789ZM18.5346 18.7426C18.3697 18.7683 18.2298 18.8806 18.1701 19.0366C18.1104 19.1931 18.1378 19.364 18.2436 19.4936C18.4772 19.7804 18.6893 20.2417 18.8763 20.8033C18.384 19.9465 17.7316 19.3855 17.3534 19.1089C17.2183 19.0103 17.0403 18.9912 16.8879 19.0593C16.735 19.1274 16.6334 19.2678 16.6167 19.4345C16.5796 19.8025 16.4028 20.2781 16.1381 20.8075C16.3956 19.8539 16.3311 18.9959 16.2588 18.5329C16.2331 18.368 16.1202 18.2282 15.9648 18.1684C15.8083 18.1087 15.6374 18.1356 15.5078 18.2419C15.221 18.4755 14.7591 18.6876 14.1975 18.8746C15.0543 18.3823 15.6153 17.7299 15.8919 17.3511C15.9905 17.2161 16.0096 17.038 15.9415 16.8857C15.8734 16.7327 15.733 16.6311 15.5663 16.6144C15.1983 16.5774 14.7227 16.4005 14.1939 16.1358C14.7119 16.2756 15.2019 16.3204 15.6153 16.3204C15.9624 16.3204 16.2564 16.2888 16.4679 16.2559C16.6328 16.2302 16.7726 16.1179 16.8324 15.962C16.8921 15.8054 16.8646 15.6345 16.7589 15.5049C16.5253 15.2181 16.3137 14.7569 16.1261 14.1952C16.6185 15.052 17.2709 15.613 17.6491 15.8897C17.7304 15.9494 17.8277 15.9799 17.9251 15.9799C17.9897 15.9799 18.0542 15.9667 18.1145 15.9399C18.2675 15.8717 18.3691 15.7313 18.3858 15.5646C18.4228 15.1966 18.5997 14.721 18.8644 14.1916C18.6069 15.1452 18.6714 16.0032 18.7437 16.4662C18.7694 16.6311 18.8823 16.7709 19.0376 16.8307C19.092 16.8516 19.1488 16.8618 19.2043 16.8618C19.3083 16.8618 19.4099 16.8259 19.4941 16.7572C19.7809 16.5236 20.2421 16.3121 20.8038 16.1251C19.947 16.6174 19.3866 17.2698 19.1099 17.648C19.0113 17.7831 18.9922 17.9611 19.0603 18.1135C19.1284 18.2664 19.2689 18.368 19.4355 18.3847C19.8036 18.4218 20.2792 18.5986 20.8079 18.8633C19.8544 18.6058 18.997 18.6709 18.534 18.7426H18.5346ZM24.5302 20.78C23.732 20.1491 21.0093 18.0794 19.4827 17.9235C19.4827 17.9235 19.4827 17.9229 19.4839 17.9217C20.0372 17.1647 21.2489 15.9243 23.2385 15.9243C24.4364 15.9243 25.9163 16.3742 27.7046 17.6498L24.5302 20.7806V20.78Z" fill="#591639"/>
<path d="M17.4999 16.1113C16.7345 16.1113 16.1113 16.7339 16.1113 17.4999C16.1113 18.2658 16.7345 18.8884 17.4999 18.8884C18.2652 18.8884 18.8884 18.2658 18.8884 17.4999C18.8884 16.7339 18.2658 16.1113 17.4999 16.1113ZM17.4999 18.4719C16.9639 18.4719 16.5278 18.0358 16.5278 17.4999C16.5278 16.9639 16.9639 16.5278 17.4999 16.5278C18.0358 16.5278 18.4719 16.9639 18.4719 17.4999C18.4719 18.0358 18.0358 18.4719 17.4999 18.4719Z" fill="#591639"/>
<path d="M17.4991 4.81152C10.5027 4.81152 4.81055 10.5037 4.81055 17.5001C4.81055 24.4965 10.5027 30.1886 17.4991 30.1886C24.4955 30.1886 30.1876 24.4965 30.1876 17.5001C30.1876 10.5037 24.4955 4.81152 17.4991 4.81152ZM17.4991 29.7262C10.7578 29.7262 5.27299 24.2414 5.27299 17.5001C5.27299 10.7588 10.7578 5.27397 17.4991 5.27397C24.2404 5.27397 29.7252 10.7588 29.7252 17.5001C29.7252 24.2414 24.2404 29.7262 17.4991 29.7262Z" fill="#591639"/>
<path d="M17.5 3.5C9.78064 3.5 3.5 9.78064 3.5 17.5C3.5 25.2194 9.78064 31.5 17.5 31.5C25.2194 31.5 31.5 25.2194 31.5 17.5C31.5 9.78064 25.2194 3.5 17.5 3.5ZM17.5 31.0376C10.0352 31.0376 3.96244 24.9648 3.96244 17.5C3.96244 10.0352 10.0358 3.96244 17.5 3.96244C24.9642 3.96244 31.0376 10.0352 31.0376 17.5C31.0376 24.9648 24.9648 31.0376 17.5 31.0376Z" fill="#591639"/>
</svg>
