<svg width="1588" height="75" viewBox="0 0 1588 75" fill="none" xmlns="http://www.w3.org/2000/svg">
<g clip-path="url(#clip0_1428_15508)">
<path d="M55.0252 0C72.4534 0.127841 89.8399 1.72348 107 4.77C117.5 6.585 128 8.835 138.5 11.415C139.042 11.5503 139.609 11.5503 140.15 11.415C153.65 8.07 167.255 5.265 181.025 3.27C200.699 0.265629 220.636 -0.63445 240.5 0.585C245.27 0.915 250.025 1.41 254.765 2.085C255.329 2.11065 255.871 2.30641 256.321 2.64649C256.771 2.98657 257.107 3.45499 257.285 3.99C258.006 5.97867 258.303 8.0959 258.159 10.2062C258.014 12.3164 257.431 14.3733 256.445 16.245C256.169 16.7863 255.735 17.2309 255.2 17.52C249.665 20.52 246.635 25.305 244.94 31.14C243.68 35.49 242.93 39.96 242.03 44.385C239.105 58.785 230.27 67.785 216.53 72.195C203.934 76.3546 190.283 75.9993 177.92 71.19C169.31 67.905 162.92 61.8 157.88 54.33C153.026 46.8531 148.902 38.9266 145.565 30.66C145.04 29.475 144.56 28.275 144.065 27.105C143.075 25.005 141.635 23.325 139.13 23.355C138.029 23.3894 136.965 23.7559 136.076 24.4064C135.187 25.0569 134.516 25.961 134.15 27C131.765 32.4 129.47 37.83 126.8 43.08C123.457 50.1376 119.034 56.6306 113.69 62.325C107.283 68.6262 99.0232 72.706 90.1252 73.965C79.3948 76.0027 68.3049 74.9145 58.1752 70.83C49.8952 67.5 43.2502 62.16 39.3202 53.91C37.2581 49.0325 35.8071 43.9187 35.0002 38.685C34.3852 35.0293 33.4311 31.4388 32.1502 27.96C30.5074 23.4934 27.313 19.7666 23.1502 17.46C22.2177 16.9336 21.5086 16.0859 21.1552 15.075C19.879 11.847 19.6533 8.2987 20.5102 4.935C20.6317 4.12391 21.0322 3.38056 21.6428 2.83297C22.2534 2.28538 23.0358 1.96783 23.8552 1.935C34.1959 0.653249 44.6054 0.00703501 55.0252 0ZM205.64 7.05C197.806 7.03012 189.985 7.70779 182.27 9.075C176.617 10.0046 171.129 11.753 165.98 14.265C160.52 17.07 157.775 21.39 158.09 27.585C158.54 37.7053 161.751 47.5095 167.375 55.935C169.721 59.5656 172.784 62.6776 176.378 65.0793C179.971 67.481 184.019 69.1216 188.27 69.9C195.498 71.1867 202.912 70.9979 210.065 69.345C215.134 68.324 219.902 66.1533 224 63C237.5 52.695 240.365 33.225 236.24 21C233.885 13.98 228.365 10.365 221.51 8.58C216.299 7.44873 210.972 6.93519 205.64 7.05ZM73.4602 7.275C70.9702 7.275 68.4652 7.155 65.9602 7.275C61.9994 7.36267 58.0728 8.02975 54.3052 9.255C46.7302 12.015 42.1402 17.235 40.8052 25.29C39.7629 31.5557 40.1215 37.9744 41.8552 44.085C44.8552 54.705 51.0952 62.76 61.4302 67.17C68.6175 70.0348 76.3668 71.2101 84.0802 70.605C90.2902 70.4678 96.3381 68.5973 101.541 65.2046C106.744 61.8118 110.895 57.0321 113.525 51.405C117.482 43.9689 119.731 35.7446 120.11 27.33C120.314 24.6026 119.666 21.8791 118.256 19.5359C116.845 17.1928 114.741 15.3457 112.235 14.25C109.475 12.8465 106.587 11.7113 103.61 10.86C93.7803 8.24567 83.6292 7.03865 73.4602 7.275ZM28.6852 12.12C30.0019 12.1803 31.3138 11.9231 32.5102 11.37C33.7102 10.65 33.7252 9.66 32.5102 9.075C31.4084 8.53466 30.1975 8.25373 28.9702 8.25373C27.743 8.25373 26.5321 8.53466 25.4302 9.075C24.2302 9.66 24.2752 10.575 25.4302 11.28C26.4287 11.8258 27.5473 12.1145 28.6852 12.12ZM249.185 12.12C250.443 12.1566 251.688 11.8672 252.8 11.28C253.91 10.635 253.925 9.78 252.8 9.15C251.688 8.57398 250.453 8.27334 249.2 8.27334C247.947 8.27334 246.713 8.57398 245.6 9.15C244.46 9.705 244.505 10.65 245.6 11.295C246.72 11.8759 247.969 12.1648 249.23 12.135L249.185 12.12Z" fill="black"/>
</g>
<g clip-path="url(#clip1_1428_15508)">
<path d="M298.2 7.06386C301.2 1.21386 306.48 0.238857 312.225 0.133857C328.755 -0.166143 344.7 3.55386 360.585 7.49886C375.795 11.2789 390.885 15.3139 405.495 21.3439C418.5 26.6989 431.91 24.3439 444.825 19.6039C470.337 10.3156 496.798 3.87645 523.725 0.403857C528.448 -0.158545 533.222 -0.158545 537.945 0.403857C540.066 0.515312 542.12 1.1878 543.896 2.35262C545.672 3.51744 547.107 5.13285 548.055 7.03386V12.9739C539.85 34.7089 522.855 49.1089 506.055 63.7789C498.09 70.7539 489.345 75.0439 478.605 74.9989C469.277 75.1345 460.157 72.2352 452.62 66.7378C445.082 61.2404 439.536 53.4425 436.815 44.5189C436.426 42.8954 435.548 41.43 434.301 40.3198C433.055 39.2097 431.498 38.5079 429.84 38.3089C426.488 37.5331 423.025 37.3504 419.61 37.7689C414.63 38.4439 410.94 40.0489 408.93 45.8989C401.7 67.0339 380.7 78.4939 358.875 74.0389C353.549 72.9922 348.566 70.6422 344.37 67.1989C335.64 60.2758 327.359 52.8058 319.575 44.8339C310.65 35.4139 302.52 25.4989 298.2 12.9739V7.06386ZM347.115 11.7139C342.64 11.2798 338.129 11.421 333.69 12.1339C323.73 13.6339 317.925 20.3239 320.265 28.8739C322.605 37.9633 327.052 46.3741 333.246 53.4257C339.441 60.4773 347.208 65.9716 355.92 69.4639C375.165 77.4889 397.35 65.1889 404.55 44.5939C408.66 32.8039 404.7 24.2839 393.015 20.1139C378.243 14.9497 362.758 12.1158 347.115 11.7139ZM499.5 11.9989C497.205 11.9989 494.91 11.8489 492.63 11.9989C478.591 12.8831 464.759 15.8245 451.575 20.7289C442.575 24.2689 438.57 31.5739 440.805 41.0839C441.985 46.3752 444.255 51.3625 447.471 55.7272C450.686 60.092 454.776 63.7385 459.48 66.4339C465.986 70.3132 473.538 72.0712 481.088 71.4637C488.639 70.8562 495.813 67.9135 501.615 63.0439C506.077 59.4509 510.218 55.4759 513.99 51.1639C519.36 44.9089 523.905 38.1739 525.78 29.9389C527.7 21.4789 524.37 15.5389 516.045 12.9439C510.65 11.5141 505.022 11.1926 499.5 11.9989Z" fill="black"/>
</g>
<g clip-path="url(#clip2_1428_15508)">
<path d="M666.895 24.4354C677.215 16.5754 684.895 16.5754 694.945 24.4354L696.685 21.0754C700.175 13.9482 705.829 8.10761 712.84 4.38947C719.85 0.671341 727.858 -0.73373 735.715 0.375356C751.435 2.58036 763.855 14.6254 767.005 30.9004C767.455 33.2104 767.995 34.8904 770.83 34.4854C773.245 34.1554 773.74 35.5054 773.695 37.6204C773.65 39.7354 773.11 40.8304 771.055 40.5004C767.815 39.9604 767.56 42.1204 767.125 44.4154C765.959 50.7399 763.177 56.6554 759.05 61.5879C754.923 66.5203 749.592 70.3021 743.572 72.5662C737.553 74.8303 731.05 75.4998 724.696 74.5096C718.341 73.5195 712.35 70.9035 707.305 66.9154C697.165 58.9354 692.56 48.3604 693.055 35.5354C693.295 29.5354 691.99 27.9304 686.2 26.0554C682.235 24.7258 677.919 24.9074 674.08 26.5654C670.3 28.1404 668.17 30.2704 668.575 35.1604C670.255 55.2754 655.9 72.0004 635.365 74.7154C616.555 77.1454 598.375 63.5854 594.775 44.3104C594.325 41.8954 593.92 39.9904 590.785 40.4854C588.655 40.8154 588.055 39.5554 588.055 37.6204C588.055 35.6854 588.535 34.1704 590.935 34.5004C593.335 34.8304 594.19 33.6454 594.685 31.3804C598.39 14.0704 610.705 2.14536 626.53 0.330356C643.6 -1.60464 658.03 6.64536 665.92 22.8304C666.19 23.3704 666.565 23.8804 666.895 24.4354ZM663.64 37.6504C663.634 31.2857 661.742 25.0656 658.202 19.7763C654.662 14.4869 649.633 10.3657 643.751 7.93351C637.87 5.50128 631.399 4.86721 625.157 6.11144C618.916 7.35567 613.183 10.4223 608.683 14.9239C604.184 19.4254 601.12 25.1598 599.878 31.4022C598.637 37.6447 599.274 44.115 601.709 49.9955C604.144 55.8759 608.268 60.9026 613.559 64.4401C618.85 67.9777 625.071 69.8674 631.435 69.8704C639.973 69.8505 648.155 66.4491 654.191 60.4105C660.227 54.372 663.624 46.1882 663.64 37.6504ZM762.49 38.0554C762.619 29.6121 759.448 21.4519 753.652 15.3112C747.855 9.17041 739.892 5.53387 731.455 5.17536C713.695 4.68036 698.455 18.8104 698.11 36.2104C697.958 40.5098 698.661 44.7966 700.177 48.8226C701.694 52.8486 703.994 56.5337 706.945 59.6644C709.895 62.7951 713.438 65.3092 717.367 67.0611C721.296 68.813 725.534 69.7679 729.835 69.8704C747.295 70.2754 762.055 55.9054 762.49 38.0554Z" fill="black"/>
</g>
<g clip-path="url(#clip3_1428_15508)">
<path d="M848.72 0C866.149 0.127841 883.535 1.72348 900.695 4.77C911.195 6.585 921.695 8.835 932.195 11.415C932.737 11.5503 933.304 11.5503 933.845 11.415C947.345 8.07 960.95 5.265 974.72 3.27C994.394 0.265629 1014.33 -0.63445 1034.2 0.585C1038.97 0.915 1043.72 1.41 1048.46 2.085C1049.02 2.11065 1049.57 2.30641 1050.02 2.64649C1050.47 2.98657 1050.8 3.45499 1050.98 3.99C1051.7 5.97867 1052 8.0959 1051.85 10.2062C1051.71 12.3164 1051.13 14.3733 1050.14 16.245C1049.86 16.7863 1049.43 17.2309 1048.9 17.52C1043.36 20.52 1040.33 25.305 1038.64 31.14C1037.38 35.49 1036.63 39.96 1035.73 44.385C1032.8 58.785 1023.97 67.785 1010.23 72.195C997.629 76.3546 983.978 75.9993 971.615 71.19C963.005 67.905 956.615 61.8 951.575 54.33C946.721 46.8531 942.597 38.9266 939.26 30.66C938.735 29.475 938.255 28.275 937.76 27.105C936.77 25.005 935.33 23.325 932.825 23.355C931.724 23.3894 930.66 23.7559 929.771 24.4064C928.882 25.0569 928.211 25.961 927.845 27C925.46 32.4 923.165 37.83 920.495 43.08C917.152 50.1376 912.729 56.6306 907.385 62.325C900.978 68.6262 892.718 72.706 883.82 73.965C873.09 76.0027 862 74.9145 851.87 70.83C843.59 67.5 836.945 62.16 833.015 53.91C830.953 49.0325 829.502 43.9187 828.695 38.685C828.08 35.0293 827.126 31.4388 825.845 27.96C824.202 23.4934 821.008 19.7666 816.845 17.46C815.913 16.9336 815.204 16.0859 814.85 15.075C813.574 11.847 813.348 8.2987 814.205 4.935C814.327 4.12391 814.727 3.38056 815.338 2.83297C815.948 2.28538 816.731 1.96783 817.55 1.935C827.891 0.653249 838.301 0.00703501 848.72 0ZM999.335 7.05C991.501 7.03012 983.68 7.70779 975.965 9.075C970.312 10.0046 964.824 11.753 959.675 14.265C954.215 17.07 951.47 21.39 951.785 27.585C952.235 37.7053 955.446 47.5095 961.07 55.935C963.416 59.5656 966.479 62.6776 970.073 65.0793C973.667 67.481 977.714 69.1216 981.965 69.9C989.193 71.1867 996.607 70.9979 1003.76 69.345C1008.83 68.324 1013.6 66.1533 1017.7 63C1031.2 52.695 1034.06 33.225 1029.94 21C1027.58 13.98 1022.06 10.365 1015.21 8.58C1009.99 7.44873 1004.67 6.93519 999.335 7.05ZM867.155 7.275C864.665 7.275 862.16 7.155 859.655 7.275C855.694 7.36267 851.768 8.02975 848 9.255C840.425 12.015 835.835 17.235 834.5 25.29C833.458 31.5557 833.817 37.9744 835.55 44.085C838.55 54.705 844.79 62.76 855.125 67.17C862.313 70.0348 870.062 71.2101 877.775 70.605C883.985 70.4678 890.033 68.5973 895.236 65.2046C900.439 61.8118 904.59 57.0321 907.22 51.405C911.177 43.9689 913.426 35.7446 913.805 27.33C914.01 24.6026 913.361 21.8791 911.951 19.5359C910.54 17.1928 908.436 15.3457 905.93 14.25C903.17 12.8465 900.282 11.7113 897.305 10.86C887.475 8.24567 877.324 7.03865 867.155 7.275ZM822.38 12.12C823.697 12.1803 825.009 11.9231 826.205 11.37C827.405 10.65 827.42 9.66 826.205 9.075C825.103 8.53466 823.893 8.25373 822.665 8.25373C821.438 8.25373 820.227 8.53466 819.125 9.075C817.925 9.66 817.97 10.575 819.125 11.28C820.124 11.8258 821.242 12.1145 822.38 12.12ZM1042.88 12.12C1044.14 12.1566 1045.38 11.8672 1046.5 11.28C1047.61 10.635 1047.62 9.78 1046.5 9.15C1045.38 8.57398 1044.15 8.27334 1042.9 8.27334C1041.64 8.27334 1040.41 8.57398 1039.3 9.15C1038.16 9.705 1038.2 10.65 1039.3 11.295C1040.42 11.8759 1041.66 12.1648 1042.93 12.135L1042.88 12.12Z" fill="black"/>
</g>
<g clip-path="url(#clip4_1428_15508)">
<path d="M1091.9 7.06386C1094.9 1.21386 1100.18 0.238857 1105.92 0.133857C1122.45 -0.166143 1138.4 3.55386 1154.28 7.49886C1169.49 11.2789 1184.58 15.3139 1199.19 21.3439C1212.2 26.6989 1225.61 24.3439 1238.52 19.6039C1264.03 10.3156 1290.49 3.87645 1317.42 0.403857C1322.14 -0.158545 1326.92 -0.158545 1331.64 0.403857C1333.76 0.515312 1335.81 1.1878 1337.59 2.35262C1339.37 3.51744 1340.8 5.13285 1341.75 7.03386V12.9739C1333.55 34.7089 1316.55 49.1089 1299.75 63.7789C1291.79 70.7539 1283.04 75.0439 1272.3 74.9989C1262.97 75.1345 1253.85 72.2352 1246.31 66.7378C1238.78 61.2404 1233.23 53.4425 1230.51 44.5189C1230.12 42.8954 1229.24 41.43 1228 40.3198C1226.75 39.2097 1225.19 38.5079 1223.54 38.3089C1220.18 37.5331 1216.72 37.3504 1213.31 37.7689C1208.33 38.4439 1204.64 40.0489 1202.63 45.8989C1195.4 67.0339 1174.4 78.4939 1152.57 74.0389C1147.24 72.9922 1142.26 70.6422 1138.07 67.1989C1129.34 60.2758 1121.05 52.8058 1113.27 44.8339C1104.35 35.4139 1096.22 25.4989 1091.9 12.9739V7.06386ZM1140.81 11.7139C1136.34 11.2798 1131.82 11.421 1127.39 12.1339C1117.43 13.6339 1111.62 20.3239 1113.96 28.8739C1116.3 37.9633 1120.75 46.3741 1126.94 53.4257C1133.14 60.4773 1140.9 65.9716 1149.62 69.4639C1168.86 77.4889 1191.05 65.1889 1198.25 44.5939C1202.36 32.8039 1198.4 24.2839 1186.71 20.1139C1171.94 14.9497 1156.45 12.1158 1140.81 11.7139ZM1293.2 11.9989C1290.9 11.9989 1288.61 11.8489 1286.33 11.9989C1272.29 12.8831 1258.45 15.8245 1245.27 20.7289C1236.27 24.2689 1232.27 31.5739 1234.5 41.0839C1235.68 46.3752 1237.95 51.3625 1241.17 55.7272C1244.38 60.092 1248.47 63.7385 1253.18 66.4339C1259.68 70.3132 1267.23 72.0712 1274.78 71.4637C1282.33 70.8562 1289.51 67.9135 1295.31 63.0439C1299.77 59.4509 1303.91 55.4759 1307.69 51.1639C1313.06 44.9089 1317.6 38.1739 1319.48 29.9389C1321.4 21.4789 1318.07 15.5389 1309.74 12.9439C1304.35 11.5141 1298.72 11.1926 1293.2 11.9989Z" fill="black"/>
</g>
<g clip-path="url(#clip5_1428_15508)">
<path d="M1460.59 24.4354C1470.91 16.5754 1478.59 16.5754 1488.64 24.4354L1490.38 21.0754C1493.87 13.9482 1499.52 8.10761 1506.53 4.38947C1513.55 0.671341 1521.55 -0.73373 1529.41 0.375356C1545.13 2.58036 1557.55 14.6254 1560.7 30.9004C1561.15 33.2104 1561.69 34.8904 1564.53 34.4854C1566.94 34.1554 1567.44 35.5054 1567.39 37.6204C1567.35 39.7354 1566.81 40.8304 1564.75 40.5004C1561.51 39.9604 1561.26 42.1204 1560.82 44.4154C1559.65 50.7399 1556.87 56.6554 1552.75 61.5879C1548.62 66.5203 1543.29 70.3021 1537.27 72.5662C1531.25 74.8303 1524.74 75.4998 1518.39 74.5096C1512.04 73.5195 1506.05 70.9035 1501 66.9154C1490.86 58.9354 1486.26 48.3604 1486.75 35.5354C1486.99 29.5354 1485.69 27.9304 1479.9 26.0554C1475.93 24.7258 1471.61 24.9074 1467.78 26.5654C1464 28.1404 1461.87 30.2704 1462.27 35.1604C1463.95 55.2754 1449.6 72.0004 1429.06 74.7154C1410.25 77.1454 1392.07 63.5854 1388.47 44.3104C1388.02 41.8954 1387.62 39.9904 1384.48 40.4854C1382.35 40.8154 1381.75 39.5554 1381.75 37.6204C1381.75 35.6854 1382.23 34.1704 1384.63 34.5004C1387.03 34.8304 1387.89 33.6454 1388.38 31.3804C1392.09 14.0704 1404.4 2.14536 1420.23 0.330356C1437.3 -1.60464 1451.73 6.64536 1459.62 22.8304C1459.89 23.3704 1460.26 23.8804 1460.59 24.4354ZM1457.34 37.6504C1457.33 31.2857 1455.44 25.0656 1451.9 19.7763C1448.36 14.4869 1443.33 10.3657 1437.45 7.93351C1431.56 5.50128 1425.09 4.86721 1418.85 6.11144C1412.61 7.35567 1406.88 10.4223 1402.38 14.9239C1397.88 19.4254 1394.81 25.1598 1393.57 31.4022C1392.33 37.6447 1392.97 44.115 1395.4 49.9955C1397.84 55.8759 1401.96 60.9026 1407.25 64.4401C1412.54 67.9777 1418.77 69.8674 1425.13 69.8704C1433.67 69.8505 1441.85 66.4491 1447.89 60.4105C1453.92 54.372 1457.32 46.1882 1457.34 37.6504ZM1556.19 38.0554C1556.31 29.6121 1553.14 21.4519 1547.35 15.3112C1541.55 9.17041 1533.59 5.53387 1525.15 5.17536C1507.39 4.68036 1492.15 18.8104 1491.81 36.2104C1491.65 40.5098 1492.36 44.7966 1493.87 48.8226C1495.39 52.8486 1497.69 56.5337 1500.64 59.6644C1503.59 62.7951 1507.13 65.3092 1511.06 67.0611C1514.99 68.813 1519.23 69.7679 1523.53 69.8704C1540.99 70.2754 1555.75 55.9054 1556.19 38.0554Z" fill="black"/>
</g>
<defs>
<clipPath id="clip0_1428_15508">
<rect width="238.2" height="75" fill="white" transform="translate(20)"/>
</clipPath>
<clipPath id="clip1_1428_15508">
<rect width="249.855" height="75" fill="white" transform="translate(298.2)"/>
</clipPath>
<clipPath id="clip2_1428_15508">
<rect width="185.64" height="75" fill="white" transform="translate(588.055)"/>
</clipPath>
<clipPath id="clip3_1428_15508">
<rect width="238.2" height="75" fill="white" transform="translate(813.695)"/>
</clipPath>
<clipPath id="clip4_1428_15508">
<rect width="249.855" height="75" fill="white" transform="translate(1091.9)"/>
</clipPath>
<clipPath id="clip5_1428_15508">
<rect width="185.64" height="75" fill="white" transform="translate(1381.75)"/>
</clipPath>
</defs>
</svg>
