<svg width="150" height="150" viewBox="0 0 150 150" fill="none" xmlns="http://www.w3.org/2000/svg">
<path d="M134.996 77.1833C134.996 78.7923 135 80.4013 134.996 82.0102C134.996 82.8804 134.984 82.8927 134.139 82.8968C132.333 82.905 130.527 82.8968 128.721 82.9009C127.682 82.9009 127.682 82.905 127.514 83.9599C126.003 93.4864 122.305 102.089 116.362 109.671C107.734 120.671 96.5494 127.636 82.8322 130.484C78.4444 131.396 74.0034 131.79 69.5336 131.584C56.1241 130.969 44.2744 126.343 34.1896 117.449C24.6467 109.03 18.6335 98.5227 16.0846 86.0573C15.0626 81.0498 14.7794 75.9807 15.1652 70.8788C16.1216 58.2903 20.7268 47.204 29.0344 37.7144C36.8822 28.7419 46.6509 22.8437 58.2379 19.9747C63.6887 18.6243 69.2339 18.1277 74.8243 18.4642C86.5016 19.1661 97.0461 23.0325 106.277 30.236C117.138 38.7077 124.033 49.7324 127.017 63.1869C127.559 65.6209 127.879 68.0959 128.064 70.5833C128.121 71.359 128.117 71.3672 128.938 71.3713C130.58 71.3795 132.222 71.3713 133.863 71.3713C135.119 71.3754 134.988 71.2277 134.996 72.5534C135.005 74.0967 134.996 75.64 134.996 77.1833ZM23.6698 75.0161C23.5507 100.809 44.4017 122.69 71.1056 122.977C97.9491 123.265 119.629 101.613 119.609 74.9792C119.588 48.1193 97.7274 27.0139 71.6597 27.0098C45.0214 27.0016 23.5343 48.7719 23.6698 75.0161Z" fill="black"/>
<path d="M86.0173 66.4213C85.9434 66.3105 85.8531 66.1791 85.7751 66.0437C83.3781 61.7873 79.8113 59.0701 74.9844 58.2903C69.825 57.4571 65.0555 58.4873 61.0701 62.087C58.7059 64.2213 57.3144 66.959 56.6495 70.0415C55.7835 74.0516 56.001 78.0207 57.5689 81.8296C59.8346 87.3174 63.9843 90.4696 69.8619 91.3111C75.5179 92.1196 80.1437 90.1166 84.002 86.0614C84.2688 85.7823 84.4124 85.4991 84.396 85.105C84.3714 84.6125 84.3632 84.12 84.396 83.6274C84.437 83.0897 84.1867 82.9666 83.7023 82.9707C82.2904 82.9912 80.8784 82.9871 79.4706 82.9707C79.0519 82.9666 78.7277 83.0897 78.3952 83.3442C76.5605 84.7479 74.4795 85.4006 72.1646 85.3595C67.744 85.2774 63.7093 81.8748 62.9089 77.5281C61.8705 71.8803 65.5645 66.643 71.2616 65.9493C75.2512 65.4609 78.4568 67.0247 80.6773 70.3945C81.1042 71.043 81.5269 71.2277 82.2493 71.2277C88.0244 71.2031 93.7994 71.2154 99.5786 71.2154C99.7756 71.2154 99.9726 71.2154 100.17 71.2154C100.991 71.2318 100.999 71.2318 101.073 72.0199C101.779 79.3834 99.989 86.0942 95.63 92.054C90.8647 98.5637 84.4576 102.635 76.5112 103.978C67.8918 105.435 59.8675 103.74 52.7831 98.4529C47.8577 94.7794 44.6274 89.8786 42.961 83.9804C40.9867 76.9863 41.077 70.0128 43.7983 63.2321C47.4677 54.0955 54.2279 48.3779 63.7462 46.0137C70.0631 44.4458 76.3594 44.7085 82.5038 46.9742C87.2979 48.7432 91.2136 51.7477 94.4561 55.6634C94.7599 56.0287 94.9035 56.3037 94.5136 56.747C91.8087 59.8746 89.1326 63.0228 86.4441 66.1668C86.3415 66.29 86.243 66.4295 86.005 66.4254L86.0173 66.4213Z" fill="black"/>
</svg>
