<svg width="484" height="75" viewBox="0 0 484 75" fill="none" xmlns="http://www.w3.org/2000/svg">
<g clip-path="url(#clip0_591_17262)">
<path d="M244.699 38.2072C244.689 44.2715 243.242 50.6817 239.877 56.5324C234.244 66.3106 225.688 72.1408 214.525 74.2572C211.663 74.7965 208.769 75.0712 205.876 74.9898C195.801 74.7049 186.844 71.571 179.56 64.4689C174.491 59.5238 171.3 53.5409 169.71 46.6931C168.879 43.1115 168.541 39.4791 168.715 35.8262C169.187 25.8649 172.737 17.1551 180.011 10.1445C184.433 5.89134 189.727 3.05252 195.688 1.44486C199.987 0.284913 204.368 -0.152612 208.8 0.0610628C218.167 0.529113 226.488 3.68337 233.3 10.1241C238.677 15.2117 242.155 21.4591 243.735 28.6935C244.371 31.6138 244.658 34.5645 244.699 38.2072ZM206.758 13.7058C205.537 13.6752 204.317 13.6854 203.116 13.8787C195.534 15.0896 190.014 19.1494 186.608 25.9056C183.561 31.9495 183.315 38.3191 184.936 44.7701C186.228 49.939 189.081 54.1921 193.492 57.2955C197.976 60.4396 203.034 61.6097 208.503 61.2434C212.576 60.9687 216.3 59.6764 219.665 57.4176C223.328 54.9552 225.811 51.5364 227.452 47.5275C229.279 43.0505 229.689 38.3801 229.043 33.6081C228.396 28.8767 226.673 24.593 223.451 21.0114C219.029 16.0867 213.458 13.6142 206.769 13.7058H206.758Z" fill="black"/>
<path d="M250.927 37.3323C251.019 29.0804 253.256 21.4797 258.201 14.7743C262.777 8.56758 268.851 4.34495 276.228 1.95382C281.07 0.386871 286.056 -0.182929 291.114 0.071446C298.676 0.447921 305.642 2.64572 311.819 7.07185C317.492 11.1419 321.566 16.4532 324.151 22.8838C325.905 27.2387 326.747 31.7768 326.87 36.4573C327.075 44.1292 325.362 51.3128 321.299 57.8859C317.144 64.6014 311.296 69.3734 303.888 72.2631C299.784 73.8606 295.526 74.695 291.125 74.9086C283.974 75.2648 277.171 74.0031 270.739 70.8488C265.927 68.4882 261.956 65.1305 258.683 60.9485C255.41 56.7768 253.133 52.1268 252.025 46.9375C251.348 43.7731 250.886 40.5883 250.927 37.3323ZM289.011 13.6856C287.954 13.7365 286.908 13.706 285.861 13.8281C280.957 14.408 276.741 16.4227 273.262 19.8415C269.117 23.9115 267.014 28.9583 266.409 34.6563C266.07 37.8513 266.286 41.0157 267.055 44.1394C268.215 48.8301 270.42 52.9408 274.196 56.0747C279.357 60.3584 285.359 61.966 292.028 61.1113C298.85 60.2363 304.155 56.9294 307.858 51.2212C310.136 47.7108 311.224 43.7935 311.531 39.6421C311.932 34.1679 310.977 28.9685 308.084 24.2778C303.755 17.2469 297.322 13.767 289.011 13.6958V13.6856Z" fill="black"/>
<path d="M160.505 48.7995C160.505 53.3986 160.505 57.9977 160.505 62.5968C160.505 62.9224 160.423 63.1463 160.167 63.36C155.622 67.1858 150.707 70.4113 145.034 72.3954C140.796 73.8708 136.426 74.5932 131.952 74.8781C128.68 75.0918 125.417 75.0307 122.195 74.4813C109.843 72.375 100.445 66.1378 94.6786 54.9452C92.4419 50.6107 91.3236 45.9709 90.903 41.1276C90.3284 34.524 91.2415 28.1646 93.8886 22.08C98.0541 12.5154 105.123 5.94238 115.003 2.32008C120.143 0.437703 125.479 -0.223673 130.916 0.0612273C138.898 0.488578 146.214 2.90006 152.657 7.66196C154.216 8.81174 155.632 10.1243 156.966 11.5285C157.325 11.9049 157.263 12.1186 156.925 12.4646C154.278 15.1304 151.662 17.8166 149.025 20.5028C148.142 21.3982 148.142 21.3881 147.219 20.5334C142.017 15.7206 135.841 13.4108 128.721 13.5329C123.293 13.6245 118.389 15.1304 114.193 18.6204C110.202 21.9375 107.852 26.2314 106.734 31.2069C105.616 36.1825 105.749 41.1377 107.308 46.0116C109.391 52.5338 113.598 57.1532 120.092 59.6664C124.114 61.2232 128.279 61.5488 132.548 61.152C136.436 60.7857 140.129 59.7784 143.567 57.9469C144.531 57.4381 145.434 56.848 146.255 56.1357C146.655 55.7898 146.809 55.3828 146.798 54.8537C146.778 52.3608 146.778 49.8781 146.798 47.3852C146.798 46.8866 146.686 46.7544 146.162 46.7645C141.935 46.8459 137.708 46.8561 133.491 46.7951C132.978 46.7951 132.804 46.6526 132.814 46.1133C132.835 42.4198 132.835 38.7263 132.814 35.0327C132.814 34.6054 132.907 34.4629 133.368 34.4629C142.223 34.4731 151.087 34.4731 159.941 34.4629C160.403 34.4629 160.526 34.5443 160.526 35.0531C160.485 38.9603 160.495 42.8573 160.495 46.7645C160.495 47.4361 160.495 48.1178 160.495 48.7894H160.505V48.7995Z" fill="black"/>
<path d="M337.078 37.4541C337.078 25.6409 337.078 13.8176 337.067 2.00438C337.067 1.49563 337.221 1.34301 337.714 1.34301C342.197 1.34301 346.681 1.34301 351.154 1.32266C351.575 1.32266 351.718 1.45493 351.718 1.86193C351.698 3.02188 351.718 4.18183 351.718 5.34178C351.718 14.774 351.718 24.2063 351.718 33.6385C351.718 33.7911 351.595 34.015 351.821 34.076C352.036 34.1269 352.149 33.9132 352.262 33.7606C353.575 31.9698 354.889 30.179 356.202 28.378C362.481 19.7699 368.77 11.1822 375.008 2.54366C375.675 1.61773 376.362 1.27178 377.512 1.28196C382.231 1.35318 386.94 1.31248 391.66 1.31248C391.844 1.31248 392.091 1.22091 392.193 1.40406C392.306 1.60756 392.07 1.72966 391.968 1.87211C385.473 10.3988 378.979 18.9152 372.474 27.4419C370.391 30.1688 368.319 32.9059 366.226 35.6226C366.031 35.877 366.062 36.0296 366.236 36.2738C372.197 44.5258 378.158 52.7879 384.119 61.0398C387.033 65.0793 389.936 69.1086 392.84 73.148C392.932 73.2701 393.147 73.3821 393.024 73.5652C392.922 73.7179 392.706 73.6568 392.542 73.6568C387.566 73.5856 382.6 73.6059 377.624 73.6568C376.711 73.667 376.126 73.4126 375.583 72.6291C371.602 66.8395 367.56 61.0907 363.548 55.3214C359.824 49.9796 356.089 44.6275 352.354 39.2856C352.231 39.1025 352.16 38.7463 351.913 38.8176C351.616 38.899 351.739 39.2449 351.739 39.4789C351.739 50.6206 351.729 61.7622 351.739 72.9039C351.739 73.4635 351.595 73.6263 351.031 73.6161C346.681 73.5957 342.32 73.6161 337.97 73.6161C337.067 73.6161 337.067 73.6161 337.057 72.7003C337.057 63.4106 337.057 54.131 337.057 44.8412C337.057 42.3686 337.057 39.9063 337.057 37.4338H337.078V37.4541Z" fill="black"/>
</g>
<defs>
<clipPath id="clip0_591_17262">
<rect width="484" height="75" fill="white"/>
</clipPath>
</defs>
</svg>
