<svg width="80" height="80" viewBox="0 0 80 80" fill="none" xmlns="http://www.w3.org/2000/svg">
<path d="M54.947 24.483C54.9035 23.7929 54.8147 23.1141 54.6804 22.4523C53.3001 15.7116 47.3365 10.6423 40.1893 10.6423C32.021 10.6423 25.3994 17.2639 25.3994 25.4322C25.3994 33.6005 32.021 40.2221 40.1893 40.2221C47.658 40.2221 53.8315 34.6839 54.8336 27.4913H56.7509V24.483H54.947ZM40.1912 37.9796C33.2614 37.9796 27.6438 32.362 27.6438 25.4322C27.6438 18.5024 33.2595 12.8848 40.1893 12.8848C47.1191 12.8848 52.7367 18.5024 52.7367 25.4322C52.7367 32.362 47.1191 37.9796 40.1893 37.9796H40.1912Z" fill="white"/>
<path d="M42.681 24.4528C42.2632 23.6227 41.4048 23.0517 40.4121 23.0517C39.0091 23.0517 37.8708 24.1899 37.8708 25.5929C37.8708 26.9959 39.0091 28.1342 40.4121 28.1342C41.0512 28.1342 41.6354 27.8959 42.0817 27.5064H43.5357V28.2174C43.3012 28.4518 42.2329 29.7489 40.3535 29.7489C37.9824 29.7489 36.1464 28.0396 36.1464 25.2639C36.1464 22.8512 37.6836 20.9926 40.3535 20.9926C42.3615 20.9926 43.5565 22.3351 43.963 23.2294L46.2698 20.5312C45.5002 19.5707 43.7078 17.6194 40.1833 17.6194C35.5281 17.6194 32.3667 21.0569 32.3667 25.3282C32.3667 30.1327 35.8685 33.124 40.0982 33.124C44.7836 33.124 48.4669 29.0266 47.8524 24.4528H42.6829H42.681Z" fill="white"/>
<path d="M22.1111 49.4059L20.1465 51.4366C19.6833 50.928 18.3578 49.7367 16.1494 49.7367C13.1241 49.7367 11.2465 51.9887 11.2465 54.8608C11.2465 58.0185 13.3661 59.9622 16.1494 59.9622C18.3143 59.9622 19.5282 59.0792 19.8591 58.7483V56.85H16.9227V54.2217H22.7748V60.3385C21.1184 61.7509 19.2635 62.8778 16.017 62.8778C11.6455 62.8778 8 59.7429 8 54.8608C8 50.4231 11.3127 46.8457 16.017 46.8457C19.2635 46.8457 21.3169 48.4586 22.1111 49.4077V49.4059Z" fill="white"/>
<path d="M24.4971 54.8589C24.4971 50.3531 27.7871 46.8438 32.5349 46.8438C37.2827 46.8438 40.5727 50.355 40.5727 54.8589C40.5727 59.3628 37.2827 62.8759 32.5349 62.8759C27.7871 62.8759 24.4971 59.4082 24.4971 54.8589ZM27.7436 54.8589C27.7436 57.818 29.7535 59.9603 32.5349 59.9603C35.3163 59.9603 37.3262 57.818 37.3262 54.8589C37.3262 51.8998 35.3163 49.7575 32.5349 49.7575C29.7535 49.7575 27.7436 51.9433 27.7436 54.8589Z" fill="white"/>
<path d="M41.8984 54.8589C41.8984 50.3531 45.1884 46.8438 49.9363 46.8438C54.6841 46.8438 57.9741 50.355 57.9741 54.8589C57.9741 59.3628 54.6841 62.8759 49.9363 62.8759C45.1884 62.8759 41.8984 59.4082 41.8984 54.8589ZM45.145 54.8589C45.145 57.818 47.1549 59.9603 49.9363 59.9603C52.7176 59.9603 54.7276 57.818 54.7276 54.8589C54.7276 51.8998 52.7176 49.7575 49.9363 49.7575C47.1549 49.7575 45.145 51.9433 45.145 54.8589Z" fill="white"/>
<path d="M60.1182 47.1311H63.2323V54.197L68.3337 47.1311H71.8223L66.2576 54.5279L72 62.5884H68.4226L63.2323 55.0801V62.5884H60.1182V47.1311Z" fill="white"/>
<path d="M29.4416 69.299H29.1977C29.1863 69.229 29.1693 68.9851 29.1712 68.8584C28.9859 69.1799 28.6947 69.3576 28.1502 69.3576C27.2899 69.3576 26.751 68.7998 26.751 67.9338C26.751 67.1246 27.3069 66.4968 28.2012 66.4968C29.0067 66.4968 29.3489 66.8977 29.4605 67.3042H29.1372C29.0162 67.0149 28.7552 66.7634 28.1974 66.7634C27.4752 66.7634 27.0781 67.2702 27.0781 67.9149C27.0781 68.5918 27.477 69.091 28.1823 69.091C28.7855 69.091 29.1428 68.7866 29.1428 68.1853V68.0927H28.1899V67.8204H29.4416V69.3009V69.299Z" fill="white"/>
<path d="M33.0606 67.9187C33.0606 68.6996 32.5312 69.3576 31.6331 69.3576C30.7349 69.3576 30.2036 68.7223 30.2036 67.9168C30.2036 67.1529 30.7709 66.4968 31.6387 66.4968C32.5066 66.4968 33.0606 67.1548 33.0606 67.9187ZM30.5307 67.9055C30.5307 68.5162 30.9183 69.0872 31.6387 69.0872C32.3591 69.0872 32.7316 68.5654 32.7316 67.9263C32.7316 67.3345 32.3383 66.7672 31.6142 66.7672C30.9448 66.7672 30.5288 67.2929 30.5288 67.9055H30.5307Z" fill="white"/>
<path d="M36.5909 67.9187C36.5909 68.6996 36.0615 69.3576 35.1633 69.3576C34.2652 69.3576 33.7339 68.7223 33.7339 67.9168C33.7339 67.1529 34.3011 66.4968 35.169 66.4968C36.0369 66.4968 36.5909 67.1548 36.5909 67.9187ZM34.061 67.9055C34.061 68.5162 34.4486 69.0872 35.169 69.0872C35.8894 69.0872 36.2619 68.5654 36.2619 67.9263C36.2619 67.3345 35.8686 66.7672 35.1444 66.7672C34.4751 66.7672 34.0591 67.2929 34.0591 67.9055H34.061Z" fill="white"/>
<path d="M37.4136 66.5535H38.5102C39.3857 66.5535 39.9057 67.1245 39.9057 67.8827C39.9057 68.7638 39.2949 69.2989 38.5046 69.2989H37.4136V66.5535ZM37.7237 69.0323H38.4289C39.2098 69.0323 39.5767 68.5331 39.5767 67.8922C39.5767 67.2512 39.1248 66.8201 38.4649 66.8182H37.7218V69.0323H37.7237Z" fill="white"/>
<path d="M42.6489 66.5535H42.9552V69.0266H44.6437L44.5927 69.2989H42.6489V66.5535Z" fill="white"/>
<path d="M47.877 67.9187C47.877 68.6996 47.3476 69.3576 46.4495 69.3576C45.5513 69.3576 45.02 68.7223 45.02 67.9168C45.02 67.1529 45.5873 66.4968 46.4551 66.4968C47.323 66.4968 47.877 67.1548 47.877 67.9187ZM45.3471 67.9055C45.3471 68.5162 45.7347 69.0872 46.4551 69.0872C47.1755 69.0872 47.548 68.5654 47.548 67.9263C47.548 67.3345 47.1547 66.7672 46.4306 66.7672C45.7612 66.7672 45.3452 67.2929 45.3452 67.9055H45.3471Z" fill="white"/>
<path d="M51.4073 67.9187C51.4073 68.6996 50.8779 69.3576 49.9797 69.3576C49.0816 69.3576 48.5503 68.7223 48.5503 67.9168C48.5503 67.1529 49.1175 66.4968 49.9854 66.4968C50.8533 66.4968 51.4073 67.1548 51.4073 67.9187ZM48.8774 67.9055C48.8774 68.5162 49.265 69.0872 49.9854 69.0872C50.7058 69.0872 51.0783 68.5654 51.0783 67.9263C51.0783 67.3345 50.685 66.7672 49.9608 66.7672C49.2915 66.7672 48.8755 67.2929 48.8755 67.9055H48.8774Z" fill="white"/>
<path d="M52.2295 66.5535H52.5396V67.9489C52.9669 67.5934 53.7232 66.9846 54.2432 66.5535H54.6573L53.2297 67.7277L54.7424 69.2989H54.3283L52.9896 67.894L52.5396 68.2495V69.2989H52.2295V66.5535Z" fill="white"/>
<path d="M55.168 69.299V68.467H55.618V69.299H55.168Z" fill="white"/>
</svg>
