<svg width="80" height="80" viewBox="0 0 80 80" fill="none" xmlns="http://www.w3.org/2000/svg">
<path d="M47.18 4.4347V32.31C47.18 35.4314 49.3313 37.1671 51.6147 37.1671C53.7264 37.1671 56.0494 35.6888 56.0494 32.31V4.64588C56.0494 1.7884 53.9376 0 51.6147 0C49.2917 0 47.18 1.97318 47.18 4.4347Z" fill="#E6E6E6"/>
<path d="M35.5653 18.5835V32.31C35.5653 35.4314 37.7166 37.1671 40 37.1671C42.1117 37.1671 44.4347 35.6888 44.4347 32.31V18.7947C44.4347 15.9372 42.3229 14.1488 40 14.1488C37.677 14.1488 35.5653 16.122 35.5653 18.5835Z" fill="#E6E6E6"/>
<path d="M32.82 32.7324C32.82 35.1807 30.8336 37.1671 28.3853 37.1671C25.9369 37.1671 23.9506 35.1807 23.9506 32.7324C23.9506 30.284 25.9369 28.2977 28.3853 28.2977C30.8336 28.2977 32.82 30.284 32.82 32.7324Z" fill="#E6E6E6"/>
<path d="M35.9542 53.8543C35.9542 56.5131 33.8742 58.4724 31.3215 58.4724C28.7689 58.4724 26.6889 56.5131 26.6889 53.8543C26.6889 51.1767 28.7689 49.2362 31.3215 49.2362C33.8742 49.2362 35.9542 51.1767 35.9542 53.8543ZM33.9262 53.8543C33.9262 52.1928 32.7207 51.056 31.3215 51.056C29.9224 51.056 28.7169 52.1928 28.7169 53.8543C28.7169 55.4991 29.9224 56.6526 31.3215 56.6526C32.7207 56.6526 33.9262 55.4971 33.9262 53.8543Z" fill="#E6E6E6"/>
<path d="M45.9484 53.8543C45.9484 56.5131 43.8684 58.4724 41.3158 58.4724C38.7631 58.4724 36.6831 56.5131 36.6831 53.8543C36.6831 51.1788 38.7631 49.2362 41.3158 49.2362C43.8684 49.2362 45.9484 51.1767 45.9484 53.8543ZM43.9205 53.8543C43.9205 52.1928 42.7149 51.056 41.3158 51.056C39.9166 51.056 38.7111 52.1928 38.7111 53.8543C38.7111 55.4991 39.9166 56.6526 41.3158 56.6526C42.7149 56.6526 43.9205 55.4971 43.9205 53.8543Z" fill="#E6E6E6"/>
<path d="M55.5258 49.5152V57.8061C55.5258 61.2165 53.5145 62.6095 51.1367 62.6095C48.8985 62.6095 47.5514 61.1124 47.0433 59.8882L48.809 59.1532C49.1234 59.9048 49.8937 60.7918 51.1346 60.7918C52.6566 60.7918 53.5998 59.8528 53.5998 58.0851V57.4209H53.529C53.0751 57.981 52.2007 58.4703 51.0972 58.4703C48.7881 58.4703 46.6727 56.459 46.6727 53.871C46.6727 51.2642 48.7881 49.2362 51.0972 49.2362C52.1986 49.2362 53.0731 49.7255 53.529 50.2689H53.5998V49.5173H55.5258V49.5152ZM53.7435 53.871C53.7435 52.2448 52.6587 51.056 51.2783 51.056C49.8791 51.056 48.7069 52.2448 48.7069 53.871C48.7069 55.4804 49.8791 56.6526 51.2783 56.6526C52.6587 56.6526 53.7435 55.4804 53.7435 53.871Z" fill="#E6E6E6"/>
<path d="M58.7009 44.6556V58.1891H56.7229V44.6556H58.7009Z" fill="#E6E6E6"/>
<path d="M66.4091 55.3742L67.9831 56.4235C67.4751 57.1752 66.2508 58.4702 64.1354 58.4702C61.512 58.4702 59.5528 56.4423 59.5528 53.8522C59.5528 51.1059 61.5287 49.2341 63.9085 49.2341C66.305 49.2341 67.4772 51.1413 67.8603 52.1719L68.0706 52.6966L61.8972 55.2534C62.3698 56.1799 63.1048 56.6526 64.1354 56.6526C65.1682 56.6526 65.8844 56.1445 66.4091 55.3742ZM61.5641 53.7127L65.6908 51.9991C65.4638 51.4224 64.7809 51.0205 63.9772 51.0205C62.9466 51.0205 61.512 51.9304 61.5641 53.7127Z" fill="#E6E6E6"/>
<path d="M19.2021 52.6528V50.6935H25.8043C25.8689 51.035 25.9022 51.4389 25.9022 51.8761C25.9022 53.3461 25.5004 55.1638 24.2053 56.4588C22.9456 57.7705 21.3362 58.4701 19.2041 58.4701C15.2523 58.4701 11.9293 55.2512 11.9293 51.2994C11.9293 47.3476 15.2523 44.1287 19.2041 44.1287C21.3903 44.1287 22.9477 44.9865 24.1179 46.1046L22.7354 47.4871C21.8963 46.7001 20.7595 46.088 19.2021 46.088C16.3163 46.088 14.0593 48.4136 14.0593 51.2994C14.0593 54.1852 16.3163 56.5109 19.2021 56.5109C21.0738 56.5109 22.1399 55.7592 22.8228 55.0763C23.3766 54.5225 23.741 53.7313 23.8847 52.6507L19.2021 52.6528Z" fill="#E6E6E6"/>
<path d="M11.9782 65.7513L9.94497 71.3754H14.0933L12.0438 65.7513H11.9782ZM8.19052 76.2452H6.41968L11.1091 63.7837H12.9292L17.6186 76.2452H15.8478L14.6508 72.8675H9.40388L8.19052 76.2452Z" fill="#E6E6E6"/>
<path d="M18.4259 67.7189H19.9672V68.8994H20.0328C20.2705 68.4854 20.6435 68.1411 21.1477 67.8664C21.6601 67.5836 22.1848 67.4401 22.7218 67.4401C23.7712 67.4401 24.5746 67.7434 25.1321 68.3419C25.6978 68.9322 25.9848 69.7807 25.9848 70.8834V76.2451H24.3779V70.9982C24.3451 69.6004 23.6441 68.8994 22.2791 68.8994C21.6437 68.8994 21.1067 69.1618 20.6722 69.6865C20.2459 70.203 20.0328 70.8137 20.0328 71.5229V76.2451H18.4259V67.7189Z" fill="#E6E6E6"/>
<path d="M28.951 73.6381C28.951 74.0562 29.1231 74.4046 29.4757 74.6875C29.8241 74.9621 30.2381 75.0974 30.7218 75.0974C31.3859 75.0974 31.9844 74.8514 32.5091 74.3595C33.042 73.8594 33.3125 73.2692 33.3125 72.5887C32.8083 72.1952 32.1073 71.9984 31.2137 71.9984C30.5661 71.9984 30.025 72.1583 29.5904 72.4739C29.1641 72.7814 28.951 73.1708 28.951 73.6381ZM31.017 67.4401C32.1975 67.4401 33.1239 67.7599 33.8044 68.3911C34.4931 69.0265 34.8374 69.8955 34.8374 70.9982V76.2452H33.3125V75.0646H33.2469C32.5787 76.0402 31.6933 76.5239 30.5906 76.5239C29.6478 76.5239 28.8608 76.2452 28.2295 75.6877C27.6064 75.1302 27.2949 74.4374 27.2949 73.6053C27.2949 72.7199 27.6269 72.023 28.2951 71.5065C28.9592 70.9818 29.8528 70.7195 30.9678 70.7195C31.9188 70.7195 32.6976 70.8916 33.3125 71.2278V70.867C33.3125 70.3095 33.087 69.8422 32.6402 69.4569C32.2016 69.0634 31.6892 68.8666 31.0989 68.8666C30.2012 68.8666 29.4962 69.2438 28.9838 69.998L27.5736 69.1126C28.3484 67.9976 29.4962 67.4401 31.017 67.4401Z" fill="#E6E6E6"/>
<path d="M38.1892 63.7837V76.2452H36.5823V63.7837H38.1892Z" fill="#E6E6E6"/>
<path d="M47.6355 67.7189L42.2901 80H40.6505L42.6345 75.7041L39.1092 67.7189H40.8472L43.3887 73.8512H43.4215L45.8974 67.7189H47.6355Z" fill="#E6E6E6"/>
<path d="M52.0371 76.3763C51.3484 76.3763 50.7745 76.1632 50.3154 75.7369C49.8563 75.3106 49.6185 74.7162 49.6103 73.9496V69.1782H48.1018V67.7189H49.6103V65.1118H51.2008V67.7189H53.2996V69.1782H51.2008V73.4249C51.2008 73.9947 51.3074 74.3841 51.5288 74.5891C51.7583 74.7859 52.0084 74.8842 52.283 74.8842C52.4142 74.8842 52.5372 74.8761 52.6601 74.8514C52.779 74.8187 52.8938 74.7818 53.0045 74.7367L53.4964 76.1632C53.0783 76.3026 52.5946 76.3763 52.0371 76.3763Z" fill="#E6E6E6"/>
<path d="M56.8042 64.7839C56.8042 65.0913 56.6895 65.3578 56.4599 65.5873C56.2385 65.8087 55.9762 65.9152 55.6729 65.9152C55.3531 65.9152 55.0867 65.8087 54.8694 65.5873C54.6481 65.3578 54.5415 65.0913 54.5415 64.7839C54.5415 64.4682 54.6481 64.2018 54.8694 63.9804C55.0867 63.7632 55.3531 63.6525 55.6729 63.6525C55.9762 63.6525 56.2385 63.7632 56.4599 63.9804C56.6895 64.2018 56.8042 64.4682 56.8042 64.7839ZM56.4763 67.7189V76.2452H54.8694V67.7189H56.4763Z" fill="#E6E6E6"/>
<path d="M61.8737 76.5239C60.603 76.5239 59.5536 76.0935 58.7255 75.2286C57.9057 74.3554 57.4958 73.2732 57.4958 71.982C57.4958 70.6703 57.9057 69.5881 58.7255 68.7355C59.5536 67.8746 60.603 67.4401 61.8737 67.4401C62.7468 67.4401 63.5052 67.6615 64.1528 68.096C64.7964 68.5346 65.2842 69.1372 65.6122 69.8996L64.1528 70.5063C63.7019 69.4364 62.9108 68.8994 61.7753 68.8994C61.0416 68.8994 60.4062 69.1946 59.8733 69.7848C59.3486 70.3751 59.0863 71.1089 59.0863 71.982C59.0863 72.8592 59.3486 73.5889 59.8733 74.1792C60.4062 74.7694 61.0416 75.0646 61.7753 75.0646C62.9436 75.0646 63.7634 74.5317 64.2348 73.4577L65.6613 74.0644C65.3539 74.8309 64.8661 75.4335 64.202 75.868C63.5339 76.3025 62.7591 76.5239 61.8737 76.5239Z" fill="#E6E6E6"/>
<path d="M73.5803 73.884C73.5803 74.6301 73.2524 75.2572 72.5965 75.7696C71.9489 76.2697 71.1372 76.5239 70.1534 76.5239C69.3008 76.5239 68.5465 76.2984 67.8907 75.8516C67.243 75.4048 66.7798 74.8145 66.4969 74.0808L67.9235 73.4741C68.1407 73.9906 68.4482 74.3882 68.8417 74.6711C69.2434 74.958 69.682 75.0974 70.1534 75.0974C70.6658 75.0974 71.0921 74.9908 71.4324 74.7694C71.7808 74.5522 71.957 74.2898 71.957 73.9824C71.957 73.4372 71.5348 73.0396 70.6945 72.7854L69.2352 72.4247C67.5709 71.9984 66.7429 71.195 66.7429 70.0144C66.7429 69.2397 67.0585 68.6166 67.6939 68.1452C68.3252 67.6779 69.1368 67.4401 70.1206 67.4401C70.8749 67.4401 71.5553 67.6205 72.1702 67.9812C72.781 68.3419 73.2073 68.8256 73.4492 69.4241L72.0226 70.0144C71.8587 69.6537 71.5881 69.3749 71.2192 69.1782C70.8585 68.9732 70.4527 68.8666 70.0058 68.8666C69.5877 68.8666 69.2106 68.9732 68.8745 69.1782C68.5465 69.3872 68.3826 69.6455 68.3826 69.9488C68.3826 70.4325 68.8417 70.7809 69.7599 70.9982L71.0388 71.3261C72.7318 71.7443 73.5803 72.5969 73.5803 73.884Z" fill="#E6E6E6"/>
</svg>
