<svg width="51" height="50" viewBox="0 0 51 50" fill="none" xmlns="http://www.w3.org/2000/svg">
<path d="M44.6621 10.2168L28.8816 0.842244C26.9969 -0.280748 24.6728 -0.280748 22.7881 0.842244L7.00766 10.2168C5.12299 11.33 3.96094 13.4002 3.96094 15.6364V34.3758C3.96094 36.612 5.12299 38.6822 7.00766 39.7954L22.7881 49.1602C23.7256 49.7168 24.7802 50 25.8349 50C26.8895 50 27.9344 49.7168 28.8816 49.1602L44.6621 39.7954C46.5467 38.6724 47.7088 36.612 47.7088 34.3758V15.6364C47.7088 13.4002 46.5467 11.33 44.6621 10.2168Z" fill="white"/>
<path d="M44.6621 10.2168L28.8816 0.842244C27.9441 0.285631 26.8895 0.00244141 25.8349 0.00244141C24.7802 0.00244141 23.7354 0.285631 22.7881 0.842244L7.00766 10.2168C5.12299 11.33 3.96094 13.4002 3.96094 15.6364V34.3758C3.96094 36.612 5.12299 38.6822 7.00766 39.7954L22.7881 49.1602C23.7256 49.7168 24.7802 50 25.8349 50C26.8895 50 27.9344 49.7168 28.8816 49.1602L44.6621 39.7954C46.5467 38.6724 47.7088 36.612 47.7088 34.3758V15.6364C47.7088 13.4002 46.5467 11.33 44.6621 10.2168ZM23.3448 48.2032L7.56428 38.8384C6.02138 37.9205 5.0644 36.2116 5.0644 34.3758V15.6364C5.0644 13.8006 6.02138 12.0917 7.56428 11.1738L23.3448 1.80899C24.1064 1.3598 24.9658 1.12543 25.8349 1.12543C26.704 1.12543 27.5731 1.3598 28.325 1.80899L44.1055 11.1738C45.4042 11.9452 46.2831 13.283 46.5272 14.7869C45.9999 13.6736 44.8281 13.3612 43.4512 14.1717L28.5203 23.3997C26.6551 24.4837 25.288 25.7141 25.288 27.9503V46.3478C25.288 47.6954 25.8251 48.5645 26.6649 48.8184C26.3915 48.8672 26.1181 48.8965 25.8349 48.8965C24.9658 48.8868 24.0967 48.6524 23.3448 48.2032Z" fill="#283037"/>
<path d="M40.5312 36.1823L36.5957 38.5358C36.4883 38.5944 36.4102 38.6628 36.4102 38.7897V39.8151C36.4102 39.9421 36.498 39.9909 36.5957 39.9323L40.5898 37.5104C40.6973 37.4518 40.707 37.3347 40.707 37.2077V36.2995C40.7168 36.1726 40.6289 36.1237 40.5312 36.1823Z" fill="#4DA825"/>
<path d="M32.1633 27.5304C32.2903 27.462 32.3977 27.5499 32.3977 27.716L32.4075 29.0734C32.9739 28.8488 33.4719 28.7902 33.9211 28.8878C34.0188 28.9171 34.0579 29.0441 34.0188 29.2003L33.7161 30.4015C33.6965 30.4894 33.6379 30.587 33.5793 30.6456C33.55 30.6749 33.5305 30.6945 33.5012 30.7042C33.4622 30.7238 33.4231 30.7335 33.384 30.7238C33.179 30.6749 32.6907 30.5675 31.929 30.9581C31.1282 31.3683 30.845 32.0617 30.8547 32.5792C30.8645 33.1945 31.177 33.3898 32.2708 33.3995C33.7258 33.4191 34.3606 34.0636 34.3704 35.5285C34.3899 36.9738 33.6184 38.5167 32.4368 39.4738L32.4661 40.8214C32.4661 40.9874 32.3586 41.173 32.2317 41.2316L31.4309 41.6906C31.304 41.7589 31.1965 41.6808 31.1965 41.5148L31.1868 40.1867C30.5032 40.4699 29.8098 40.5382 29.3704 40.3624C29.2825 40.3331 29.2532 40.2062 29.2825 40.0695L29.5754 38.8488C29.595 38.7511 29.6536 38.6535 29.7219 38.5949C29.7512 38.5753 29.7708 38.5558 29.8 38.5363C29.8489 38.5167 29.8879 38.507 29.927 38.5265C30.4055 38.6827 31.011 38.6144 31.5969 38.3117C32.3391 37.9308 32.8372 37.1788 32.8274 36.4171C32.8176 35.7335 32.4465 35.4503 31.5481 35.4406C30.4055 35.4406 29.3313 35.216 29.3118 33.5265C29.302 32.1398 30.0247 30.6945 31.1672 29.7765L31.1575 28.4191C31.1575 28.2531 31.2551 28.0675 31.3918 27.9992L32.1633 27.5304Z" fill="white"/>
</svg>
