<svg width="81" height="80" viewBox="0 0 81 80" fill="none" xmlns="http://www.w3.org/2000/svg">
<path fill-rule="evenodd" clip-rule="evenodd" d="M30.9173 5.25882C30.9173 5.25882 35.9113 3.65283 36.7253 3.05884L37.4293 3.43284C37.4293 3.43284 35.8013 8.8228 32.6333 15.7088L29.7733 17.3367L29.1134 16.8527C29.1134 16.8527 31.3133 9.3728 30.9173 5.25882Z" fill="#E6E6E6"/>
<path fill-rule="evenodd" clip-rule="evenodd" d="M49.2653 28.3147C49.2653 28.3147 48.1653 33.4187 48.2533 34.4307L47.5933 34.8706C47.5933 34.8706 43.7213 30.7347 39.3873 24.5307V21.2747L40.1573 20.9007C40.1573 20.9007 45.5033 26.5987 49.2653 28.3147Z" fill="#E6E6E6"/>
<path fill-rule="evenodd" clip-rule="evenodd" d="M46.7352 11.5288C46.7352 11.5288 50.5852 15.0487 51.5312 15.4887L51.5532 16.2587C51.5532 16.2587 46.0532 17.5347 38.5292 18.1947L35.6693 16.5447L35.7793 15.6867C35.7793 15.6867 43.3692 13.9267 46.7352 11.5068" fill="#E6E6E6"/>
<path fill-rule="evenodd" clip-rule="evenodd" d="M4.41213 51.8778C4.41213 53.4695 4.83849 53.9101 6.21707 53.8959C7.92252 53.8959 9.48585 52.9579 9.48585 50.6555C9.48585 48.4384 7.99358 47.4151 5.3217 47.4151H4.41213V51.8778ZM5.35013 46.6619C7.75198 46.6619 8.74682 45.7097 8.74682 43.8479C8.74682 42.2419 7.83725 41.0197 5.87598 41.0197C5.35013 41.0197 4.88113 41.105 4.68216 41.2471C4.48319 41.3892 4.41213 41.645 4.41213 42.3272V46.6619H5.35013ZM7.90831 46.9319C10.168 47.2588 11.8877 48.2394 11.8877 50.4565C11.8877 51.9204 11.0776 53.0716 9.78431 53.7822C8.64734 54.4217 7.12664 54.6917 5.37855 54.6917H0.333252V54.0522C2.19504 53.9101 2.32295 53.768 2.32295 51.9204V43.0378C2.32295 41.1902 2.23768 41.0623 0.475373 40.906V40.2665H6.33076C8.00779 40.2665 9.00264 40.5507 9.74167 41.0197C10.5482 41.6068 11.0156 42.5521 10.9923 43.5494C10.9923 45.6671 9.21582 46.534 7.8941 46.8609V46.9319H7.90831ZM18.9938 49.3622C18.5248 49.618 17.6152 50.0302 17.132 50.2576C16.3077 50.6555 15.8529 51.0534 15.8529 51.8778C15.8529 53.0289 16.7056 53.5548 17.3736 53.5548C17.9781 53.5066 18.5488 53.2563 18.9938 52.8442V49.3622ZM20.685 54.9618C20.2794 54.9498 19.8914 54.7936 19.5907 54.5212C19.3064 54.237 19.1643 53.9101 19.0648 53.5548C18.1695 54.1659 17.1035 54.9618 16.4924 54.9618C14.9886 54.954 13.7715 53.7369 13.7637 52.2331C13.7637 51.1245 14.3322 50.4565 15.5402 50.0586C16.8619 49.5896 18.5105 48.9927 18.9938 48.5948V48.14C18.9938 46.5908 18.2832 45.7097 17.2172 45.7097C16.8193 45.7097 16.4924 45.8518 16.265 46.1361C15.9474 46.5766 15.7292 47.0809 15.6255 47.6141C15.5118 48.0121 15.2702 48.1684 14.9149 48.1684C14.4885 48.1684 13.8632 47.7278 13.8632 47.1878C13.8632 46.8324 14.1474 46.5908 14.6022 46.264C15.6272 45.5358 16.7792 45.0056 17.9989 44.7006C18.6706 44.689 19.3266 44.9043 19.8607 45.3118C20.685 45.9655 20.8982 46.8751 20.8982 48.0831V52.1194C20.8982 53.1142 21.2819 53.4269 21.6656 53.4269C21.9215 53.4269 22.2341 53.3132 22.4615 53.2137L22.6747 53.8106L20.685 54.9476V54.9618ZM33.0495 45.5534C31.8841 45.7523 31.6852 45.9229 31.0883 47.1735C30.534 48.3531 29.8518 50.1865 28.3453 53.768C26.8815 57.321 26.3841 58.6001 26.0572 59.7939C25.9435 60.2487 25.6592 60.3624 25.3181 60.3624C24.707 60.3624 24.0106 59.7939 24.0106 59.2254C24.0106 58.8701 24.2096 58.6569 24.5791 58.4011C25.3182 57.9605 25.7587 57.4489 26.2846 56.4967C26.6541 55.8003 26.8104 55.3881 26.9241 55.0897C27.0236 54.7628 27.0094 54.4501 26.8815 54.0664C26.0595 51.7521 25.1924 49.454 24.2807 47.1735C23.8117 46.0224 23.5843 45.7239 22.4189 45.5534V44.9849H27.1089V45.5534C26.0714 45.7239 25.9435 45.9513 26.2277 46.7472L28.2174 52.2046C28.9174 50.4232 29.5667 48.6223 30.1645 46.804C30.4203 45.9939 30.264 45.7523 29.0275 45.5534V44.9849H33.0495V45.5534ZM45.6699 54.6917V54.0948C46.9206 53.9527 47.1337 53.8532 47.1337 52.3183V48.5948C47.1337 46.9746 46.5368 46.1076 45.272 46.1076C44.5187 46.1076 43.7371 46.5056 42.927 47.1735C42.9696 47.4436 42.9838 47.6994 42.9838 48.0973V52.4462C42.9838 53.8248 43.1828 53.9669 44.3624 54.0948V54.6917H39.5445V54.0948C40.852 53.9527 41.0367 53.8532 41.0367 52.432V48.5663C41.0367 46.9319 40.4398 46.0792 39.175 46.0792C38.3507 46.0792 37.5264 46.6477 36.8868 47.1735V52.432C36.8868 53.8248 37.0574 53.9669 38.1091 54.0948V54.6917H33.3054V54.0948C34.755 53.9527 34.9255 53.8532 34.9255 52.3894V47.7847C34.9255 46.3919 34.8687 46.2782 33.618 46.0792V45.5534C34.5987 45.3686 35.7925 45.0844 36.8584 44.6438V46.4345C37.3274 46.1076 37.7964 45.7239 38.4359 45.326C38.9738 44.9343 39.6184 44.7162 40.2835 44.7006C41.3636 44.7006 42.3016 45.397 42.7422 46.5198C43.3817 46.0366 44.0071 45.6386 44.5329 45.2833C45.0304 44.9707 45.5988 44.7148 46.2384 44.7148C48.0007 44.7148 49.0808 45.9513 49.0808 48.1258V52.4036C49.0808 53.8674 49.2229 53.9385 50.4878 54.0948V54.6917H45.6699ZM57.0396 49.3622C56.5706 49.618 55.661 50.0302 55.1636 50.2576C54.3535 50.6555 53.8845 51.0534 53.8845 51.8778C53.8845 53.0289 54.7372 53.5548 55.4194 53.5548C56.0239 53.5066 56.5947 53.2563 57.0396 52.8442V49.3622ZM58.7166 54.9618C58.316 54.9464 57.9336 54.7905 57.6365 54.5212C57.3523 54.237 57.1959 53.9101 57.0964 53.5548C56.2153 54.1659 55.1494 54.9618 54.5383 54.9618C53.0289 54.9618 51.8031 53.7424 51.7953 52.2331C51.7953 51.1245 52.3638 50.4565 53.5718 50.0586C54.9078 49.5896 56.5564 48.9927 57.0396 48.5948V48.14C57.0396 46.5908 56.329 45.7097 55.2631 45.7097C54.8651 45.7097 54.524 45.8518 54.3109 46.1361C53.9882 46.5754 53.7651 47.0798 53.6571 47.6141C53.5434 48.0121 53.3018 48.1684 52.9465 48.1684C52.5201 48.1684 51.909 47.7278 51.909 47.1878C51.909 46.8324 52.1933 46.5908 52.6338 46.264C53.6631 45.5342 54.82 45.0039 56.0447 44.7006C56.7116 44.6922 57.362 44.9073 57.8923 45.3118C58.7166 45.9655 58.944 46.8751 58.944 48.0831V52.1194C58.944 53.1142 59.3135 53.4269 59.6973 53.4269C59.9673 53.4269 60.2657 53.3132 60.4931 53.2137L60.7205 53.8106L58.7308 54.9476L58.7166 54.9618ZM64.8563 47.0598C65.5669 45.8802 66.4907 44.7006 67.5139 44.7006C68.3098 44.7006 68.8356 45.3118 68.8356 45.866C68.8356 46.3777 68.523 46.8325 68.0682 47.0598C67.7982 47.1735 67.5992 47.1309 67.4713 46.9888C67.1302 46.6761 66.8602 46.5482 66.4764 46.5482C65.9506 46.5482 65.2826 47.1167 64.8278 48.2963V52.3894C64.8278 53.8248 64.9415 53.9527 66.647 54.0948V54.6917H61.3601V54.0948C62.7102 53.9527 62.8666 53.8248 62.8666 52.3894V47.742C62.8666 46.3208 62.7529 46.264 61.5448 46.065V45.5534C62.6818 45.3686 63.6909 45.1128 64.8136 44.658V47.0598H64.8705H64.8563ZM76.7234 46.7045C76.2402 45.9848 75.4301 45.5531 74.5631 45.5534C73.6109 45.5534 71.7633 46.3777 71.7633 49.618C71.7633 52.2757 73.3835 53.5121 74.7479 53.5121C75.4727 53.5121 76.1833 53.1995 76.7234 52.83V46.7045ZM80.3333 54.1233C79.8216 54.2085 78.1019 54.4928 76.7234 54.9618V53.5406L75.359 54.3649C74.8779 54.6973 74.3206 54.9026 73.7388 54.9618C71.9481 54.9618 69.5747 53.3416 69.5747 50.2149C69.6372 48.4854 70.4841 46.8786 71.8755 45.8495C73.267 44.8204 75.0514 44.4813 76.7234 44.928V41.8724C76.7234 40.4654 76.5812 40.3944 75.0605 40.2665V39.7122C76.2544 39.5701 77.7893 39.229 78.6704 38.9305V52.0909C78.6704 53.2705 78.8125 53.3842 79.6511 53.4695L80.3333 53.5406V54.1233Z" fill="#E6E6E6"/>
<path fill-rule="evenodd" clip-rule="evenodd" d="M3.63758 76.6699V76.0304C5.41409 75.8883 5.61306 75.7603 5.61306 73.8701V65.0586C5.61306 63.1826 5.41409 63.0405 3.62336 62.8842V62.2446H9.6493V62.8842C7.87279 63.0405 7.67381 63.1684 7.67381 65.0586V73.8701C7.67381 75.7603 7.87278 75.8883 9.66351 76.0304V76.6699H3.63758ZM17.1249 76.6699V76.073C18.3755 75.9309 18.5319 75.7888 18.5319 74.2254V70.5303C18.5319 68.9669 17.9634 68.0574 16.599 68.0574C15.7747 68.0574 14.9504 68.569 14.3109 69.1233V74.3676C14.3109 75.8456 14.453 75.9309 15.6894 76.073V76.6699H10.7863V76.073C12.2501 75.9167 12.3496 75.803 12.3496 74.3391V69.7486C12.3496 68.3558 12.2217 68.2848 11.0421 68.0574V67.5315C12.1648 67.3326 13.2734 67.0341 14.3109 66.6219V68.3558C14.7856 67.9963 15.2739 67.6549 15.7747 67.3326C16.4143 66.9062 16.9543 66.6646 17.5939 66.6646C19.3704 66.6646 20.4647 67.9153 20.4647 70.0755V74.3391C20.4647 75.8314 20.5926 75.9025 21.8575 76.0588V76.6557H17.1249V76.6699ZM28.7646 69.6207C28.3098 68.299 27.5566 67.4178 26.4764 67.4178C25.6806 67.4178 25.0979 68.0432 25.0979 68.8817C25.0979 69.8197 25.8937 70.3313 26.917 70.7719C28.6225 71.4825 29.7594 72.2499 29.7594 73.8275C29.7594 75.8883 27.855 76.9399 26.0643 76.9399C25.1362 76.9617 24.2236 76.6988 23.4493 76.1867C23.3071 75.874 23.094 74.3391 23.0797 73.4864L23.7051 73.4153C24.103 74.8508 25.0979 76.1867 26.448 76.1867C27.2439 76.1867 27.9545 75.5898 27.9545 74.6944C27.9545 73.7707 27.386 73.259 26.2348 72.7047C24.9415 72.0936 23.4066 71.3404 23.4066 69.6207C23.4066 68.0147 24.771 66.6788 26.846 66.6788C27.7982 66.6788 28.4093 66.8778 28.8641 67.091C29.0851 67.8695 29.2513 68.6626 29.3615 69.4644L28.7646 69.6065V69.6207ZM35.4585 76.6557C35.089 76.8547 34.7479 76.9399 34.5489 76.9399C33.0851 76.9399 32.275 76.073 32.275 74.2681V67.8726H30.7543L30.669 67.6168L31.2659 66.9488H32.2608V65.3286L33.9094 63.8222L34.1936 63.8932V66.9346H36.6523C36.8797 67.162 36.8086 67.6737 36.5244 67.8442H34.1936V73.5006C34.1936 75.2771 34.9469 75.5898 35.5011 75.5898C36.0128 75.5898 36.496 75.4193 36.8086 75.2629L37.0076 75.8598L35.4585 76.6415V76.6557ZM39.111 63.6374C39.111 62.9268 39.6795 62.401 40.3475 62.401C40.987 62.401 41.5129 62.941 41.5129 63.6374C41.5129 64.2912 40.987 64.8454 40.319 64.8454C39.6606 64.8302 39.1327 64.296 39.1252 63.6374H39.111ZM37.9456 76.6699V76.073C39.3242 75.9309 39.4805 75.803 39.4805 74.2965V69.7486C39.4805 68.3558 39.3952 68.2563 38.1304 68.0574V67.5031C39.2673 67.3326 40.4043 67.0341 41.4276 66.6504V74.2965C41.4276 75.803 41.5697 75.9451 42.9909 76.073V76.6699H37.9456ZM48.2494 76.6557C47.8657 76.8547 47.5388 76.9399 47.3398 76.9399C45.876 76.9399 45.0517 76.073 45.0517 74.2681V67.8726H43.5452L43.4457 67.6168L44.0426 66.9488H45.0375V65.3286L46.6861 63.8222L46.9703 63.8932V66.9346H49.4432C49.6706 67.162 49.5853 67.6737 49.3011 67.8442H46.9845V73.5006C46.9845 75.2771 47.7378 75.5898 48.292 75.5898C48.8037 75.5898 49.2869 75.4193 49.5995 75.2629L49.7985 75.8598L48.2352 76.6415L48.2494 76.6557ZM61.3103 76.1441C60.2444 76.2862 59.079 76.5989 57.9136 76.9399L57.7715 76.7978V75.2771C57.2741 75.6466 56.8335 76.0019 56.2366 76.3572C55.5828 76.741 55.0854 76.9257 54.4743 76.9257C52.9252 76.9257 51.7029 75.9877 51.7029 73.6569V69.2796C51.7029 68.0574 51.6177 67.9721 50.3528 67.7447V67.1904C51.4821 67.1208 52.6066 66.988 53.7211 66.7925C53.6642 67.5315 53.6358 68.5974 53.6358 70.0613V73.0742C53.6358 74.9645 54.5738 75.4903 55.526 75.4903C56.2935 75.4903 57.0609 75.1776 57.7715 74.4955V69.2796C57.7715 68.0432 57.6578 67.9437 56.0945 67.7447V67.1904C57.2741 67.1336 58.4963 67.0483 59.7186 66.7925V74.1828C59.7186 75.3198 59.8891 75.4619 60.7418 75.5329L61.3103 75.5756V76.1441ZM66.5404 76.6557C66.1567 76.8547 65.8298 76.9399 65.6166 76.9399C64.1528 76.9399 63.3427 76.073 63.3427 74.2681V67.8726H61.822L61.7367 67.6168L62.3336 66.9488H63.3285V65.3286L64.9771 63.8222L65.2613 63.8932V66.9346H67.7342C67.9474 67.162 67.8763 67.6737 67.5921 67.8442H65.2613V73.5006C65.2613 75.2771 66.0145 75.5898 66.5688 75.5898C67.0804 75.5898 67.5637 75.4193 67.8905 75.2629L68.0895 75.8598L66.5262 76.6415L66.5404 76.6557ZM70.9461 70.2603C72.1257 70.2603 73.2769 70.2318 74.4992 70.1892C74.8687 70.1892 75.0108 70.0755 75.0108 69.7486C75.025 68.5974 74.3144 67.5031 73.1632 67.5031C72.1826 67.5031 71.2304 68.4553 70.9461 70.2603ZM76.9579 74.7371C75.5651 76.542 74.016 76.9399 73.2769 76.9399C70.5056 76.9399 68.8996 74.7229 68.8996 72.2073C68.8996 70.644 69.4823 69.2796 70.3919 68.299C71.3299 67.2899 72.5237 66.6788 73.6749 66.6788C75.5324 66.7245 77.0208 68.2318 77.0431 70.0897C77.0431 70.5445 76.9579 70.7435 76.5173 70.8287C76.162 70.8856 73.3906 71.113 70.8182 71.184C70.8609 74.0975 72.5237 75.334 74.087 75.334C75.0329 75.3093 75.9333 74.9227 76.6026 74.2539L76.9579 74.7371Z" fill="#E6E6E6"/>
</svg>
