<svg width="81" height="80" viewBox="0 0 81 80" fill="none" xmlns="http://www.w3.org/2000/svg">
<g style="mix-blend-mode:multiply">
<mask id="mask0_1189_1117" style="mask-type:alpha" maskUnits="userSpaceOnUse" x="0" y="0" width="81" height="80">
<rect x="0.33252" width="80" height="80" fill="#D9D9D9"/>
</mask>
<g mask="url(#mask0_1189_1117)">
<mask id="mask1_1189_1117" style="mask-type:alpha" maskUnits="userSpaceOnUse" x="10" y="10" width="61" height="60">
<rect x="10.3325" y="10" width="60" height="60" fill="#D9D9D9"/>
</mask>
<g mask="url(#mask1_1189_1117)">
<path d="M25.3322 62.5011C23.4572 62.5011 21.603 62.0428 19.7697 61.1261C17.9364 60.2095 16.4572 59.0011 15.3322 57.5011C16.4155 57.5011 17.5197 57.074 18.6447 56.2199C19.7697 55.3657 20.3322 54.1261 20.3322 52.5011C20.3322 50.4178 21.0614 48.647 22.5197 47.1886C23.978 45.7303 25.7489 45.0011 27.8322 45.0011C29.9155 45.0011 31.6864 45.7303 33.1447 47.1886C34.603 48.647 35.3322 50.4178 35.3322 52.5011C35.3322 55.2511 34.353 57.6053 32.3947 59.5636C30.4364 61.522 28.0822 62.5011 25.3322 62.5011ZM25.3322 57.5011C26.7072 57.5011 27.8843 57.0115 28.8635 56.0324C29.8426 55.0532 30.3322 53.8761 30.3322 52.5011C30.3322 51.7928 30.0926 51.199 29.6135 50.7199C29.1343 50.2407 28.5405 50.0011 27.8322 50.0011C27.1239 50.0011 26.5301 50.2407 26.051 50.7199C25.5718 51.199 25.3322 51.7928 25.3322 52.5011C25.3322 53.4595 25.2176 54.3345 24.9885 55.1261C24.7593 55.9178 24.4572 56.6678 24.0822 57.3761C24.2905 57.4595 24.4989 57.5011 24.7072 57.5011H25.3322ZM39.7072 47.5011L32.8322 40.6261L55.2072 18.2511C55.6655 17.7928 56.2385 17.5532 56.926 17.5324C57.6135 17.5115 58.2072 17.7511 58.7072 18.2511L62.0822 21.6261C62.5822 22.1261 62.8322 22.7095 62.8322 23.3761C62.8322 24.0428 62.5822 24.6261 62.0822 25.1261L39.7072 47.5011Z" fill="#833177"/>
</g>
</g>
</g>
</svg>
