<svg width="1040" height="183" viewBox="0 0 1040 183" fill="none" xmlns="http://www.w3.org/2000/svg">
<path d="M294.896 10.224H297.264V14.768C296.656 15.2267 295.952 15.5787 295.152 15.824C294.352 16.0693 293.547 16.192 292.736 16.192C291.573 16.192 290.528 15.9467 289.6 15.456C288.672 14.9547 287.941 14.2667 287.408 13.392C286.885 12.5067 286.624 11.5093 286.624 10.4C286.624 9.29067 286.885 8.29867 287.408 7.424C287.941 6.53867 288.677 5.85067 289.616 5.36C290.555 4.85867 291.611 4.608 292.784 4.608C293.765 4.608 294.656 4.77333 295.456 5.104C296.256 5.43467 296.928 5.91467 297.472 6.544L295.808 8.08C295.008 7.23733 294.043 6.816 292.912 6.816C292.197 6.816 291.563 6.96533 291.008 7.264C290.453 7.56267 290.021 7.984 289.712 8.528C289.403 9.072 289.248 9.696 289.248 10.4C289.248 11.0933 289.403 11.712 289.712 12.256C290.021 12.8 290.448 13.2267 290.992 13.536C291.547 13.8347 292.176 13.984 292.88 13.984C293.627 13.984 294.299 13.824 294.896 13.504V10.224ZM299.672 4.8H302.264V13.888H307.88V16H299.672V4.8ZM314.163 16.192C312.563 16.192 311.315 15.7493 310.419 14.864C309.534 13.9787 309.091 12.7147 309.091 11.072V4.8H311.683V10.976C311.683 12.9813 312.515 13.984 314.179 13.984C314.99 13.984 315.609 13.744 316.035 13.264C316.462 12.7733 316.675 12.0107 316.675 10.976V4.8H319.235V11.072C319.235 12.7147 318.787 13.9787 317.891 14.864C317.006 15.7493 315.763 16.192 314.163 16.192ZM330.469 13.92V16H321.797V4.8H330.261V6.88H324.373V9.312H329.573V11.328H324.373V13.92H330.469ZM345.654 4.128V16H343.27V15.008C342.652 15.7547 341.756 16.128 340.582 16.128C339.772 16.128 339.036 15.9467 338.374 15.584C337.724 15.2213 337.212 14.704 336.838 14.032C336.465 13.36 336.278 12.5813 336.278 11.696C336.278 10.8107 336.465 10.032 336.838 9.36C337.212 8.688 337.724 8.17067 338.374 7.808C339.036 7.44533 339.772 7.264 340.582 7.264C341.681 7.264 342.54 7.61067 343.158 8.304V4.128H345.654ZM341.014 14.08C341.644 14.08 342.166 13.8667 342.582 13.44C342.998 13.0027 343.206 12.4213 343.206 11.696C343.206 10.9707 342.998 10.3947 342.582 9.968C342.166 9.53067 341.644 9.312 341.014 9.312C340.374 9.312 339.846 9.53067 339.43 9.968C339.014 10.3947 338.806 10.9707 338.806 11.696C338.806 12.4213 339.014 13.0027 339.43 13.44C339.846 13.8667 340.374 14.08 341.014 14.08ZM356.397 11.728C356.397 11.76 356.381 11.984 356.349 12.4H349.837C349.954 12.9333 350.231 13.3547 350.669 13.664C351.106 13.9733 351.65 14.128 352.301 14.128C352.749 14.128 353.143 14.064 353.485 13.936C353.837 13.7973 354.162 13.584 354.461 13.296L355.789 14.736C354.978 15.664 353.794 16.128 352.237 16.128C351.266 16.128 350.407 15.9413 349.661 15.568C348.914 15.184 348.338 14.656 347.933 13.984C347.527 13.312 347.325 12.5493 347.325 11.696C347.325 10.8533 347.522 10.096 347.917 9.424C348.322 8.74133 348.871 8.21333 349.565 7.84C350.269 7.456 351.053 7.264 351.917 7.264C352.759 7.264 353.522 7.44533 354.205 7.808C354.887 8.17067 355.421 8.69333 355.805 9.376C356.199 10.048 356.397 10.832 356.397 11.728ZM351.933 9.152C351.367 9.152 350.893 9.312 350.509 9.632C350.125 9.952 349.89 10.3893 349.805 10.944H354.045C353.959 10.4 353.725 9.968 353.341 9.648C352.957 9.31733 352.487 9.152 351.933 9.152ZM360.954 16.128C360.24 16.128 359.541 16.0427 358.858 15.872C358.176 15.6907 357.632 15.4667 357.226 15.2L358.058 13.408C358.442 13.6533 358.906 13.856 359.45 14.016C359.994 14.1653 360.528 14.24 361.05 14.24C362.106 14.24 362.634 13.9787 362.634 13.456C362.634 13.2107 362.49 13.0347 362.202 12.928C361.914 12.8213 361.472 12.7307 360.874 12.656C360.17 12.5493 359.589 12.4267 359.13 12.288C358.672 12.1493 358.272 11.904 357.93 11.552C357.6 11.2 357.434 10.6987 357.434 10.048C357.434 9.504 357.589 9.024 357.898 8.608C358.218 8.18133 358.677 7.85067 359.274 7.616C359.882 7.38133 360.597 7.264 361.418 7.264C362.026 7.264 362.629 7.33333 363.226 7.472C363.834 7.6 364.336 7.78133 364.73 8.016L363.898 9.792C363.141 9.36533 362.314 9.152 361.418 9.152C360.885 9.152 360.485 9.22667 360.218 9.376C359.952 9.52533 359.818 9.71733 359.818 9.952C359.818 10.2187 359.962 10.4053 360.25 10.512C360.538 10.6187 360.997 10.72 361.626 10.816C362.33 10.9333 362.906 11.0613 363.354 11.2C363.802 11.328 364.192 11.568 364.522 11.92C364.853 12.272 365.018 12.7627 365.018 13.392C365.018 13.9253 364.858 14.4 364.538 14.816C364.218 15.232 363.749 15.5573 363.13 15.792C362.522 16.016 361.797 16.128 360.954 16.128ZM366.558 7.392H369.054V16H366.558V7.392ZM367.806 6.192C367.348 6.192 366.974 6.05867 366.686 5.792C366.398 5.52533 366.254 5.19467 366.254 4.8C366.254 4.40533 366.398 4.07467 366.686 3.808C366.974 3.54133 367.348 3.408 367.806 3.408C368.265 3.408 368.638 3.536 368.926 3.792C369.214 4.048 369.358 4.368 369.358 4.752C369.358 5.168 369.214 5.51467 368.926 5.792C368.638 6.05867 368.265 6.192 367.806 6.192ZM380.251 7.392V14.56C380.251 16.1387 379.84 17.312 379.019 18.08C378.197 18.848 376.997 19.232 375.419 19.232C374.587 19.232 373.797 19.1307 373.051 18.928C372.304 18.7253 371.685 18.432 371.195 18.048L372.187 16.256C372.549 16.5547 373.008 16.7893 373.563 16.96C374.117 17.1413 374.672 17.232 375.227 17.232C376.091 17.232 376.725 17.0347 377.131 16.64C377.547 16.256 377.755 15.6693 377.755 14.88V14.512C377.104 15.2267 376.197 15.584 375.035 15.584C374.245 15.584 373.52 15.4133 372.859 15.072C372.208 14.72 371.691 14.2293 371.307 13.6C370.923 12.9707 370.731 12.2453 370.731 11.424C370.731 10.6027 370.923 9.87733 371.307 9.248C371.691 8.61867 372.208 8.13333 372.859 7.792C373.52 7.44 374.245 7.264 375.035 7.264C376.283 7.264 377.232 7.67467 377.883 8.496V7.392H380.251ZM375.531 13.536C376.192 13.536 376.731 13.344 377.147 12.96C377.573 12.5653 377.787 12.0533 377.787 11.424C377.787 10.7947 377.573 10.288 377.147 9.904C376.731 9.50933 376.192 9.312 375.531 9.312C374.869 9.312 374.325 9.50933 373.899 9.904C373.472 10.288 373.259 10.7947 373.259 11.424C373.259 12.0533 373.472 12.5653 373.899 12.96C374.325 13.344 374.869 13.536 375.531 13.536ZM387.806 7.264C388.873 7.264 389.731 7.584 390.382 8.224C391.043 8.864 391.374 9.81333 391.374 11.072V16H388.878V11.456C388.878 10.7733 388.729 10.2667 388.43 9.936C388.131 9.59467 387.699 9.424 387.134 9.424C386.505 9.424 386.003 9.62133 385.63 10.016C385.257 10.4 385.07 10.976 385.07 11.744V16H382.574V7.392H384.958V8.4C385.289 8.03733 385.699 7.76 386.19 7.568C386.681 7.36533 387.219 7.264 387.806 7.264ZM398.168 4.128H400.664V16H398.168V4.128ZM402.98 7.392H405.476V16H402.98V7.392ZM404.228 6.192C403.769 6.192 403.396 6.05867 403.108 5.792C402.82 5.52533 402.676 5.19467 402.676 4.8C402.676 4.40533 402.82 4.07467 403.108 3.808C403.396 3.54133 403.769 3.408 404.228 3.408C404.687 3.408 405.06 3.536 405.348 3.792C405.636 4.048 405.78 4.368 405.78 4.752C405.78 5.168 405.636 5.51467 405.348 5.792C405.06 6.05867 404.687 6.192 404.228 6.192ZM412.881 7.264C413.681 7.264 414.406 7.45067 415.057 7.824C415.718 8.18667 416.235 8.704 416.609 9.376C416.982 10.0373 417.169 10.8107 417.169 11.696C417.169 12.5813 416.982 13.36 416.609 14.032C416.235 14.6933 415.718 15.2107 415.057 15.584C414.406 15.9467 413.681 16.128 412.881 16.128C411.697 16.128 410.795 15.7547 410.177 15.008V16H407.793V4.128H410.289V8.304C410.918 7.61067 411.782 7.264 412.881 7.264ZM412.449 14.08C413.089 14.08 413.611 13.8667 414.017 13.44C414.433 13.0027 414.641 12.4213 414.641 11.696C414.641 10.9707 414.433 10.3947 414.017 9.968C413.611 9.53067 413.089 9.312 412.449 9.312C411.809 9.312 411.281 9.53067 410.865 9.968C410.459 10.3947 410.257 10.9707 410.257 11.696C410.257 12.4213 410.459 13.0027 410.865 13.44C411.281 13.8667 411.809 14.08 412.449 14.08ZM421.224 8.528C421.522 8.112 421.922 7.79733 422.424 7.584C422.936 7.37067 423.522 7.264 424.184 7.264V9.568C423.906 9.54667 423.72 9.536 423.624 9.536C422.909 9.536 422.349 9.73867 421.944 10.144C421.538 10.5387 421.336 11.136 421.336 11.936V16H418.84V7.392H421.224V8.528ZM429.093 7.264C430.426 7.264 431.45 7.584 432.165 8.224C432.879 8.85333 433.237 9.808 433.237 11.088V16H430.901V14.928C430.431 15.728 429.557 16.128 428.277 16.128C427.615 16.128 427.039 16.016 426.549 15.792C426.069 15.568 425.701 15.2587 425.445 14.864C425.189 14.4693 425.061 14.0213 425.061 13.52C425.061 12.72 425.359 12.0907 425.957 11.632C426.565 11.1733 427.498 10.944 428.757 10.944H430.741C430.741 10.4 430.575 9.984 430.245 9.696C429.914 9.39733 429.418 9.248 428.757 9.248C428.298 9.248 427.845 9.32267 427.397 9.472C426.959 9.61067 426.586 9.80267 426.277 10.048L425.381 8.304C425.85 7.97333 426.41 7.71733 427.061 7.536C427.722 7.35467 428.399 7.264 429.093 7.264ZM428.901 14.448C429.327 14.448 429.706 14.352 430.037 14.16C430.367 13.9573 430.602 13.664 430.741 13.28V12.4H429.029C428.005 12.4 427.493 12.736 427.493 13.408C427.493 13.728 427.615 13.984 427.861 14.176C428.117 14.3573 428.463 14.448 428.901 14.448ZM437.88 8.528C438.178 8.112 438.578 7.79733 439.08 7.584C439.592 7.37067 440.178 7.264 440.84 7.264V9.568C440.562 9.54667 440.376 9.536 440.28 9.536C439.565 9.536 439.005 9.73867 438.6 10.144C438.194 10.5387 437.992 11.136 437.992 11.936V16H435.496V7.392H437.88V8.528ZM451.165 7.392L447.277 16.528C446.882 17.52 446.391 18.2187 445.805 18.624C445.229 19.0293 444.53 19.232 443.709 19.232C443.261 19.232 442.818 19.1627 442.381 19.024C441.943 18.8853 441.586 18.6933 441.309 18.448L442.221 16.672C442.413 16.8427 442.631 16.976 442.877 17.072C443.133 17.168 443.383 17.216 443.629 17.216C443.97 17.216 444.247 17.1307 444.461 16.96C444.674 16.8 444.866 16.528 445.037 16.144L445.069 16.064L441.341 7.392H443.917L446.333 13.232L448.765 7.392H451.165Z" fill="#833177"/>
<path d="M50 26V36" stroke="#833177" stroke-width="4" stroke-linecap="round"/>
<path d="M50 31H688" stroke="#833177" stroke-width="4" stroke-linecap="round"/>
<path d="M688 26V36" stroke="#833177" stroke-width="4" stroke-linecap="round"/>
<path d="M765.215 4.128H767.711V16H765.215V4.128ZM774.123 16.128C773.216 16.128 772.4 15.9413 771.675 15.568C770.96 15.184 770.4 14.656 769.995 13.984C769.59 13.312 769.387 12.5493 769.387 11.696C769.387 10.8427 769.59 10.08 769.995 9.408C770.4 8.736 770.96 8.21333 771.675 7.84C772.4 7.456 773.216 7.264 774.123 7.264C775.03 7.264 775.84 7.456 776.555 7.84C777.27 8.21333 777.83 8.736 778.235 9.408C778.64 10.08 778.843 10.8427 778.843 11.696C778.843 12.5493 778.64 13.312 778.235 13.984C777.83 14.656 777.27 15.184 776.555 15.568C775.84 15.9413 775.03 16.128 774.123 16.128ZM774.123 14.08C774.763 14.08 775.286 13.8667 775.691 13.44C776.107 13.0027 776.315 12.4213 776.315 11.696C776.315 10.9707 776.107 10.3947 775.691 9.968C775.286 9.53067 774.763 9.312 774.123 9.312C773.483 9.312 772.955 9.53067 772.539 9.968C772.123 10.3947 771.915 10.9707 771.915 11.696C771.915 12.4213 772.123 13.0027 772.539 13.44C772.955 13.8667 773.483 14.08 774.123 14.08ZM784.671 16.128C783.754 16.128 782.927 15.9413 782.191 15.568C781.466 15.184 780.895 14.656 780.479 13.984C780.074 13.312 779.871 12.5493 779.871 11.696C779.871 10.8427 780.074 10.08 780.479 9.408C780.895 8.736 781.466 8.21333 782.191 7.84C782.927 7.456 783.754 7.264 784.671 7.264C785.578 7.264 786.367 7.456 787.039 7.84C787.722 8.21333 788.218 8.752 788.527 9.456L786.591 10.496C786.143 9.70667 785.498 9.312 784.655 9.312C784.005 9.312 783.466 9.52533 783.039 9.952C782.613 10.3787 782.399 10.96 782.399 11.696C782.399 12.432 782.613 13.0133 783.039 13.44C783.466 13.8667 784.005 14.08 784.655 14.08C785.509 14.08 786.154 13.6853 786.591 12.896L788.527 13.952C788.218 14.6347 787.722 15.168 787.039 15.552C786.367 15.936 785.578 16.128 784.671 16.128ZM793.437 7.264C794.77 7.264 795.794 7.584 796.509 8.224C797.223 8.85333 797.581 9.808 797.581 11.088V16H795.245V14.928C794.775 15.728 793.901 16.128 792.621 16.128C791.959 16.128 791.383 16.016 790.893 15.792C790.413 15.568 790.045 15.2587 789.789 14.864C789.533 14.4693 789.405 14.0213 789.405 13.52C789.405 12.72 789.703 12.0907 790.301 11.632C790.909 11.1733 791.842 10.944 793.101 10.944H795.085C795.085 10.4 794.919 9.984 794.589 9.696C794.258 9.39733 793.762 9.248 793.101 9.248C792.642 9.248 792.189 9.32267 791.741 9.472C791.303 9.61067 790.93 9.80267 790.621 10.048L789.725 8.304C790.194 7.97333 790.754 7.71733 791.405 7.536C792.066 7.35467 792.743 7.264 793.437 7.264ZM793.245 14.448C793.671 14.448 794.05 14.352 794.381 14.16C794.711 13.9573 794.946 13.664 795.085 13.28V12.4H793.373C792.349 12.4 791.837 12.736 791.837 13.408C791.837 13.728 791.959 13.984 792.205 14.176C792.461 14.3573 792.807 14.448 793.245 14.448ZM799.84 4.128H802.336V16H799.84V4.128ZM813.343 16.128C812.426 16.128 811.599 15.9413 810.863 15.568C810.138 15.184 809.567 14.656 809.151 13.984C808.746 13.312 808.543 12.5493 808.543 11.696C808.543 10.8427 808.746 10.08 809.151 9.408C809.567 8.736 810.138 8.21333 810.863 7.84C811.599 7.456 812.426 7.264 813.343 7.264C814.25 7.264 815.039 7.456 815.711 7.84C816.394 8.21333 816.89 8.752 817.199 9.456L815.263 10.496C814.815 9.70667 814.17 9.312 813.327 9.312C812.677 9.312 812.138 9.52533 811.711 9.952C811.285 10.3787 811.071 10.96 811.071 11.696C811.071 12.432 811.285 13.0133 811.711 13.44C812.138 13.8667 812.677 14.08 813.327 14.08C814.181 14.08 814.826 13.6853 815.263 12.896L817.199 13.952C816.89 14.6347 816.394 15.168 815.711 15.552C815.039 15.936 814.25 16.128 813.343 16.128ZM822.623 16.128C821.716 16.128 820.9 15.9413 820.175 15.568C819.46 15.184 818.9 14.656 818.495 13.984C818.09 13.312 817.887 12.5493 817.887 11.696C817.887 10.8427 818.09 10.08 818.495 9.408C818.9 8.736 819.46 8.21333 820.175 7.84C820.9 7.456 821.716 7.264 822.623 7.264C823.53 7.264 824.34 7.456 825.055 7.84C825.77 8.21333 826.33 8.736 826.735 9.408C827.14 10.08 827.343 10.8427 827.343 11.696C827.343 12.5493 827.14 13.312 826.735 13.984C826.33 14.656 825.77 15.184 825.055 15.568C824.34 15.9413 823.53 16.128 822.623 16.128ZM822.623 14.08C823.263 14.08 823.786 13.8667 824.191 13.44C824.607 13.0027 824.815 12.4213 824.815 11.696C824.815 10.9707 824.607 10.3947 824.191 9.968C823.786 9.53067 823.263 9.312 822.623 9.312C821.983 9.312 821.455 9.53067 821.039 9.968C820.623 10.3947 820.415 10.9707 820.415 11.696C820.415 12.4213 820.623 13.0027 821.039 13.44C821.455 13.8667 821.983 14.08 822.623 14.08ZM840.035 7.264C841.113 7.264 841.966 7.584 842.595 8.224C843.235 8.85333 843.555 9.80267 843.555 11.072V16H841.059V11.456C841.059 10.7733 840.915 10.2667 840.627 9.936C840.35 9.59467 839.95 9.424 839.427 9.424C838.841 9.424 838.377 9.616 838.035 10C837.694 10.3733 837.523 10.9333 837.523 11.68V16H835.027V11.456C835.027 10.1013 834.483 9.424 833.395 9.424C832.819 9.424 832.361 9.616 832.019 10C831.678 10.3733 831.507 10.9333 831.507 11.68V16H829.011V7.392H831.395V8.384C831.715 8.02133 832.105 7.744 832.563 7.552C833.033 7.36 833.545 7.264 834.099 7.264C834.707 7.264 835.257 7.38667 835.747 7.632C836.238 7.86667 836.633 8.21333 836.931 8.672C837.283 8.224 837.726 7.87733 838.259 7.632C838.803 7.38667 839.395 7.264 840.035 7.264ZM850.881 7.264C851.681 7.264 852.406 7.45067 853.057 7.824C853.718 8.18667 854.235 8.704 854.609 9.376C854.982 10.0373 855.169 10.8107 855.169 11.696C855.169 12.5813 854.982 13.36 854.609 14.032C854.235 14.6933 853.718 15.2107 853.057 15.584C852.406 15.9467 851.681 16.128 850.881 16.128C849.782 16.128 848.918 15.7813 848.289 15.088V19.104H845.793V7.392H848.177V8.384C848.795 7.63733 849.697 7.264 850.881 7.264ZM850.449 14.08C851.089 14.08 851.611 13.8667 852.017 13.44C852.433 13.0027 852.641 12.4213 852.641 11.696C852.641 10.9707 852.433 10.3947 852.017 9.968C851.611 9.53067 851.089 9.312 850.449 9.312C849.809 9.312 849.281 9.53067 848.865 9.968C848.459 10.3947 848.257 10.9707 848.257 11.696C848.257 12.4213 848.459 13.0027 848.865 13.44C849.281 13.8667 849.809 14.08 850.449 14.08ZM860.936 16.128C860.029 16.128 859.213 15.9413 858.488 15.568C857.773 15.184 857.213 14.656 856.808 13.984C856.402 13.312 856.2 12.5493 856.2 11.696C856.2 10.8427 856.402 10.08 856.808 9.408C857.213 8.736 857.773 8.21333 858.488 7.84C859.213 7.456 860.029 7.264 860.936 7.264C861.842 7.264 862.653 7.456 863.368 7.84C864.082 8.21333 864.642 8.736 865.048 9.408C865.453 10.08 865.656 10.8427 865.656 11.696C865.656 12.5493 865.453 13.312 865.048 13.984C864.642 14.656 864.082 15.184 863.368 15.568C862.653 15.9413 861.842 16.128 860.936 16.128ZM860.936 14.08C861.576 14.08 862.098 13.8667 862.504 13.44C862.92 13.0027 863.128 12.4213 863.128 11.696C863.128 10.9707 862.92 10.3947 862.504 9.968C862.098 9.53067 861.576 9.312 860.936 9.312C860.296 9.312 859.768 9.53067 859.352 9.968C858.936 10.3947 858.728 10.9707 858.728 11.696C858.728 12.4213 858.936 13.0027 859.352 13.44C859.768 13.8667 860.296 14.08 860.936 14.08ZM872.556 7.264C873.623 7.264 874.481 7.584 875.132 8.224C875.793 8.864 876.124 9.81333 876.124 11.072V16H873.628V11.456C873.628 10.7733 873.479 10.2667 873.18 9.936C872.881 9.59467 872.449 9.424 871.884 9.424C871.255 9.424 870.753 9.62133 870.38 10.016C870.007 10.4 869.82 10.976 869.82 11.744V16H867.324V7.392H869.708V8.4C870.039 8.03733 870.449 7.76 870.94 7.568C871.431 7.36533 871.969 7.264 872.556 7.264ZM886.912 11.728C886.912 11.76 886.896 11.984 886.864 12.4H880.352C880.469 12.9333 880.747 13.3547 881.184 13.664C881.621 13.9733 882.165 14.128 882.816 14.128C883.264 14.128 883.659 14.064 884 13.936C884.352 13.7973 884.677 13.584 884.976 13.296L886.304 14.736C885.493 15.664 884.309 16.128 882.752 16.128C881.781 16.128 880.923 15.9413 880.176 15.568C879.429 15.184 878.853 14.656 878.448 13.984C878.043 13.312 877.84 12.5493 877.84 11.696C877.84 10.8533 878.037 10.096 878.432 9.424C878.837 8.74133 879.387 8.21333 880.08 7.84C880.784 7.456 881.568 7.264 882.432 7.264C883.275 7.264 884.037 7.44533 884.72 7.808C885.403 8.17067 885.936 8.69333 886.32 9.376C886.715 10.048 886.912 10.832 886.912 11.728ZM882.448 9.152C881.883 9.152 881.408 9.312 881.024 9.632C880.64 9.952 880.405 10.3893 880.32 10.944H884.56C884.475 10.4 884.24 9.968 883.856 9.648C883.472 9.31733 883.003 9.152 882.448 9.152ZM893.806 7.264C894.873 7.264 895.731 7.584 896.382 8.224C897.043 8.864 897.374 9.81333 897.374 11.072V16H894.878V11.456C894.878 10.7733 894.729 10.2667 894.43 9.936C894.131 9.59467 893.699 9.424 893.134 9.424C892.505 9.424 892.003 9.62133 891.63 10.016C891.257 10.4 891.07 10.976 891.07 11.744V16H888.574V7.392H890.958V8.4C891.289 8.03733 891.699 7.76 892.19 7.568C892.681 7.36533 893.219 7.264 893.806 7.264ZM905.188 15.584C904.943 15.7653 904.639 15.904 904.276 16C903.924 16.0853 903.551 16.128 903.156 16.128C902.132 16.128 901.338 15.8667 900.772 15.344C900.218 14.8213 899.94 14.0533 899.94 13.04V9.504H898.612V7.584H899.94V5.488H902.436V7.584H904.58V9.504H902.436V13.008C902.436 13.3707 902.527 13.6533 902.708 13.856C902.9 14.048 903.167 14.144 903.508 14.144C903.903 14.144 904.239 14.0373 904.516 13.824L905.188 15.584ZM909.486 16.128C908.771 16.128 908.072 16.0427 907.39 15.872C906.707 15.6907 906.163 15.4667 905.758 15.2L906.59 13.408C906.974 13.6533 907.438 13.856 907.982 14.016C908.526 14.1653 909.059 14.24 909.582 14.24C910.638 14.24 911.166 13.9787 911.166 13.456C911.166 13.2107 911.022 13.0347 910.734 12.928C910.446 12.8213 910.003 12.7307 909.406 12.656C908.702 12.5493 908.12 12.4267 907.662 12.288C907.203 12.1493 906.803 11.904 906.462 11.552C906.131 11.2 905.965 10.6987 905.965 10.048C905.965 9.504 906.12 9.024 906.43 8.608C906.75 8.18133 907.208 7.85067 907.806 7.616C908.414 7.38133 909.128 7.264 909.95 7.264C910.558 7.264 911.16 7.33333 911.758 7.472C912.366 7.6 912.867 7.78133 913.262 8.016L912.43 9.792C911.672 9.36533 910.846 9.152 909.95 9.152C909.416 9.152 909.016 9.22667 908.75 9.376C908.483 9.52533 908.35 9.71733 908.35 9.952C908.35 10.2187 908.494 10.4053 908.782 10.512C909.07 10.6187 909.528 10.72 910.158 10.816C910.862 10.9333 911.438 11.0613 911.886 11.2C912.334 11.328 912.723 11.568 913.054 11.92C913.384 12.272 913.55 12.7627 913.55 13.392C913.55 13.9253 913.39 14.4 913.07 14.816C912.75 15.232 912.28 15.5573 911.662 15.792C911.054 16.016 910.328 16.128 909.486 16.128Z" fill="#833177"/>
<path d="M688 26V36" stroke="#833177" stroke-width="4" stroke-linecap="round"/>
<path d="M688 31H990" stroke="#833177" stroke-width="4" stroke-linecap="round"/>
<path d="M990 26V36" stroke="#833177" stroke-width="4" stroke-linecap="round"/>
<path d="M87.996 63V54.6H89.94V63H87.996ZM96.9735 63.144C96.3095 63.144 95.6935 63.036 95.1255 62.82C94.5655 62.604 94.0775 62.3 93.6615 61.908C93.2535 61.516 92.9335 61.056 92.7015 60.528C92.4775 60 92.3655 59.424 92.3655 58.8C92.3655 58.176 92.4775 57.6 92.7015 57.072C92.9335 56.544 93.2575 56.084 93.6735 55.692C94.0895 55.3 94.5775 54.996 95.1375 54.78C95.6975 54.564 96.3055 54.456 96.9615 54.456C97.6255 54.456 98.2335 54.564 98.7855 54.78C99.3455 54.996 99.8295 55.3 100.238 55.692C100.654 56.084 100.978 56.544 101.21 57.072C101.442 57.592 101.558 58.168 101.558 58.8C101.558 59.424 101.442 60.004 101.21 60.54C100.978 61.068 100.654 61.528 100.238 61.92C99.8295 62.304 99.3455 62.604 98.7855 62.82C98.2335 63.036 97.6295 63.144 96.9735 63.144ZM96.9615 61.488C97.3375 61.488 97.6815 61.424 97.9935 61.296C98.3135 61.168 98.5935 60.984 98.8335 60.744C99.0735 60.504 99.2575 60.22 99.3855 59.892C99.5215 59.564 99.5895 59.2 99.5895 58.8C99.5895 58.4 99.5215 58.036 99.3855 57.708C99.2575 57.38 99.0735 57.096 98.8335 56.856C98.6015 56.616 98.3255 56.432 98.0055 56.304C97.6855 56.176 97.3375 56.112 96.9615 56.112C96.5855 56.112 96.2375 56.176 95.9175 56.304C95.6055 56.432 95.3295 56.616 95.0895 56.856C94.8495 57.096 94.6615 57.38 94.5255 57.708C94.3975 58.036 94.3335 58.4 94.3335 58.8C94.3335 59.192 94.3975 59.556 94.5255 59.892C94.6615 60.22 94.8455 60.504 95.0775 60.744C95.3175 60.984 95.5975 61.168 95.9175 61.296C96.2375 61.424 96.5855 61.488 96.9615 61.488ZM103.979 63V54.6H105.587L110.543 60.648H109.763V54.6H111.683V63H110.087L105.119 56.952H105.899V63H103.979Z" fill="#333333"/>
<mask id="mask0_1191_14022" style="mask-type:alpha" maskUnits="userSpaceOnUse" x="77" y="79" width="46" height="46">
<rect x="77.5" y="79.5" width="45" height="45" fill="#D9D9D9"/>
</mask>
<g mask="url(#mask0_1191_14022)">
<path d="M88.75 117C87.7188 117 86.8359 116.632 86.1016 115.898C85.3672 115.164 85 114.281 85 113.25C85 112.218 85.3672 111.335 86.1016 110.601C86.8359 109.867 87.7188 109.5 88.75 109.5C89.7812 109.5 90.6641 109.867 91.3984 110.601C92.1328 111.335 92.5 112.218 92.5 113.25C92.5 114.281 92.1328 115.164 91.3984 115.898C90.6641 116.632 89.7812 117 88.75 117ZM100 117C98.9688 117 98.0859 116.632 97.3516 115.898C96.6172 115.164 96.25 114.281 96.25 113.25C96.25 112.218 96.6172 111.335 97.3516 110.601C98.0859 109.867 98.9688 109.5 100 109.5C101.031 109.5 101.914 109.867 102.648 110.601C103.383 111.335 103.75 112.218 103.75 113.25C103.75 114.281 103.383 115.164 102.648 115.898C101.914 116.632 101.031 117 100 117ZM111.25 117C110.219 117 109.336 116.632 108.602 115.898C107.867 115.164 107.5 114.281 107.5 113.25C107.5 112.218 107.867 111.335 108.602 110.601C109.336 109.867 110.219 109.5 111.25 109.5C112.281 109.5 113.164 109.867 113.898 110.601C114.633 111.335 115 112.218 115 113.25C115 114.281 114.633 115.164 113.898 115.898C113.164 116.632 112.281 117 111.25 117ZM88.75 105.75C87.7188 105.75 86.8359 105.382 86.1016 104.648C85.3672 103.914 85 103.031 85 102C85 100.968 85.3672 100.085 86.1016 99.3511C86.8359 98.6167 87.7188 98.2495 88.75 98.2495C89.7812 98.2495 90.6641 98.6167 91.3984 99.3511C92.1328 100.085 92.5 100.968 92.5 102C92.5 103.031 92.1328 103.914 91.3984 104.648C90.6641 105.382 89.7812 105.75 88.75 105.75ZM100 105.75C98.9688 105.75 98.0859 105.382 97.3516 104.648C96.6172 103.914 96.25 103.031 96.25 102C96.25 100.968 96.6172 100.085 97.3516 99.3511C98.0859 98.6167 98.9688 98.2495 100 98.2495C101.031 98.2495 101.914 98.6167 102.648 99.3511C103.383 100.085 103.75 100.968 103.75 102C103.75 103.031 103.383 103.914 102.648 104.648C101.914 105.382 101.031 105.75 100 105.75ZM111.25 105.75C110.219 105.75 109.336 105.382 108.602 104.648C107.867 103.914 107.5 103.031 107.5 102C107.5 100.968 107.867 100.085 108.602 99.3511C109.336 98.6167 110.219 98.2495 111.25 98.2495C112.281 98.2495 113.164 98.6167 113.898 99.3511C114.633 100.085 115 100.968 115 102C115 103.031 114.633 103.914 113.898 104.648C113.164 105.382 112.281 105.75 111.25 105.75ZM88.75 94.4995C87.7188 94.4995 86.8359 94.1323 86.1016 93.3979C85.3672 92.6636 85 91.7808 85 90.7495C85 89.7183 85.3672 88.8354 86.1016 88.1011C86.8359 87.3667 87.7188 86.9995 88.75 86.9995C89.7812 86.9995 90.6641 87.3667 91.3984 88.1011C92.1328 88.8354 92.5 89.7183 92.5 90.7495C92.5 91.7808 92.1328 92.6636 91.3984 93.3979C90.6641 94.1323 89.7812 94.4995 88.75 94.4995ZM100 94.4995C98.9688 94.4995 98.0859 94.1323 97.3516 93.3979C96.6172 92.6636 96.25 91.7808 96.25 90.7495C96.25 89.7183 96.6172 88.8354 97.3516 88.1011C98.0859 87.3667 98.9688 86.9995 100 86.9995C101.031 86.9995 101.914 87.3667 102.648 88.1011C103.383 88.8354 103.75 89.7183 103.75 90.7495C103.75 91.7808 103.383 92.6636 102.648 93.3979C101.914 94.1323 101.031 94.4995 100 94.4995ZM111.25 94.4995C110.219 94.4995 109.336 94.1323 108.602 93.3979C107.867 92.6636 107.5 91.7808 107.5 90.7495C107.5 89.7183 107.867 88.8354 108.602 88.1011C109.336 87.3667 110.219 86.9995 111.25 86.9995C112.281 86.9995 113.164 87.3667 113.898 88.1011C114.633 88.8354 115 89.7183 115 90.7495C115 91.7808 114.633 92.6636 113.898 93.3979C113.164 94.1323 112.281 94.4995 111.25 94.4995Z" fill="#833177"/>
</g>
<path d="M244.228 61.2H240.328L239.584 63H237.592L241.336 54.6H243.256L247.012 63H244.972L244.228 61.2ZM243.616 59.724L242.284 56.508L240.952 59.724H243.616ZM250.162 56.184H247.474V54.6H254.794V56.184H252.106V63H250.162V56.184ZM260.751 63.144C259.879 63.144 259.091 62.956 258.387 62.58C257.691 62.204 257.143 61.688 256.743 61.032C256.351 60.368 256.155 59.624 256.155 58.8C256.155 57.976 256.351 57.236 256.743 56.58C257.143 55.916 257.691 55.396 258.387 55.02C259.091 54.644 259.879 54.456 260.751 54.456C261.623 54.456 262.407 54.644 263.103 55.02C263.799 55.396 264.347 55.916 264.747 56.58C265.147 57.236 265.347 57.976 265.347 58.8C265.347 59.624 265.147 60.368 264.747 61.032C264.347 61.688 263.799 62.204 263.103 62.58C262.407 62.956 261.623 63.144 260.751 63.144ZM260.751 61.488C261.247 61.488 261.695 61.376 262.095 61.152C262.495 60.92 262.807 60.6 263.031 60.192C263.263 59.784 263.379 59.32 263.379 58.8C263.379 58.28 263.263 57.816 263.031 57.408C262.807 57 262.495 56.684 262.095 56.46C261.695 56.228 261.247 56.112 260.751 56.112C260.255 56.112 259.807 56.228 259.407 56.46C259.007 56.684 258.691 57 258.459 57.408C258.235 57.816 258.123 58.28 258.123 58.8C258.123 59.32 258.235 59.784 258.459 60.192C258.691 60.6 259.007 60.92 259.407 61.152C259.807 61.376 260.255 61.488 260.751 61.488ZM275.412 63L275.4 57.96L272.928 62.112H272.052L269.592 58.068V63H267.768V54.6H269.376L272.52 59.82L275.616 54.6H277.212L277.236 63H275.412Z" fill="#333333"/>
<mask id="mask1_1191_14022" style="mask-type:alpha" maskUnits="userSpaceOnUse" x="235" y="79" width="46" height="46">
<rect x="235.7" y="79.5" width="45" height="45" fill="#D9D9D9"/>
</mask>
<g mask="url(#mask1_1191_14022)">
<path d="M254.45 100.125C254.981 100.125 255.427 99.9453 255.786 99.5859C256.146 99.2266 256.325 98.7812 256.325 98.25C256.325 97.7188 256.146 97.2734 255.786 96.9141C255.427 96.5547 254.981 96.375 254.45 96.375C253.919 96.375 253.474 96.5547 253.114 96.9141C252.755 97.2734 252.575 97.7188 252.575 98.25C252.575 98.7812 252.755 99.2266 253.114 99.5859C253.474 99.9453 253.919 100.125 254.45 100.125ZM254.45 107.625C254.981 107.625 255.427 107.445 255.786 107.086C256.146 106.727 256.325 106.281 256.325 105.75C256.325 105.219 256.146 104.773 255.786 104.414C255.427 104.055 254.981 103.875 254.45 103.875C253.919 103.875 253.474 104.055 253.114 104.414C252.755 104.773 252.575 105.219 252.575 105.75C252.575 106.281 252.755 106.727 253.114 107.086C253.474 107.445 253.919 107.625 254.45 107.625ZM248.825 99.1875C249.075 99.1875 249.294 99.0938 249.481 98.9063C249.669 98.7188 249.763 98.5 249.763 98.25C249.763 98 249.669 97.7812 249.481 97.5938C249.294 97.4062 249.075 97.3125 248.825 97.3125C248.575 97.3125 248.356 97.4062 248.169 97.5938C247.981 97.7812 247.888 98 247.888 98.25C247.888 98.5 247.981 98.7188 248.169 98.9063C248.356 99.0938 248.575 99.1875 248.825 99.1875ZM254.45 112.312C254.7 112.312 254.919 112.219 255.106 112.031C255.294 111.844 255.388 111.625 255.388 111.375C255.388 111.125 255.294 110.906 255.106 110.719C254.919 110.531 254.7 110.438 254.45 110.438C254.2 110.438 253.981 110.531 253.794 110.719C253.606 110.906 253.513 111.125 253.513 111.375C253.513 111.625 253.606 111.844 253.794 112.031C253.981 112.219 254.2 112.312 254.45 112.312ZM248.825 106.688C249.075 106.688 249.294 106.594 249.481 106.406C249.669 106.219 249.763 106 249.763 105.75C249.763 105.5 249.669 105.281 249.481 105.094C249.294 104.906 249.075 104.812 248.825 104.812C248.575 104.812 248.356 104.906 248.169 105.094C247.981 105.281 247.888 105.5 247.888 105.75C247.888 106 247.981 106.219 248.169 106.406C248.356 106.594 248.575 106.688 248.825 106.688ZM254.45 93.5625C254.7 93.5625 254.919 93.4688 255.106 93.2812C255.294 93.0938 255.388 92.875 255.388 92.625C255.388 92.375 255.294 92.1562 255.106 91.9688C254.919 91.7812 254.7 91.6875 254.45 91.6875C254.2 91.6875 253.981 91.7812 253.794 91.9688C253.606 92.1562 253.513 92.375 253.513 92.625C253.513 92.875 253.606 93.0938 253.794 93.2812C253.981 93.4688 254.2 93.5625 254.45 93.5625ZM261.95 100.125C262.481 100.125 262.927 99.9453 263.286 99.5859C263.646 99.2266 263.825 98.7812 263.825 98.25C263.825 97.7188 263.646 97.2734 263.286 96.9141C262.927 96.5547 262.481 96.375 261.95 96.375C261.419 96.375 260.974 96.5547 260.614 96.9141C260.255 97.2734 260.075 97.7188 260.075 98.25C260.075 98.7812 260.255 99.2266 260.614 99.5859C260.974 99.9453 261.419 100.125 261.95 100.125ZM261.95 93.5625C262.2 93.5625 262.419 93.4688 262.606 93.2812C262.794 93.0938 262.888 92.875 262.888 92.625C262.888 92.375 262.794 92.1562 262.606 91.9688C262.419 91.7812 262.2 91.6875 261.95 91.6875C261.7 91.6875 261.481 91.7812 261.294 91.9688C261.106 92.1562 261.013 92.375 261.013 92.625C261.013 92.875 261.106 93.0938 261.294 93.2812C261.481 93.4688 261.7 93.5625 261.95 93.5625ZM267.575 106.688C267.825 106.688 268.044 106.594 268.231 106.406C268.419 106.219 268.513 106 268.513 105.75C268.513 105.5 268.419 105.281 268.231 105.094C268.044 104.906 267.825 104.812 267.575 104.812C267.325 104.812 267.106 104.906 266.919 105.094C266.731 105.281 266.638 105.5 266.638 105.75C266.638 106 266.731 106.219 266.919 106.406C267.106 106.594 267.325 106.688 267.575 106.688ZM267.575 99.1875C267.825 99.1875 268.044 99.0938 268.231 98.9063C268.419 98.7188 268.513 98.5 268.513 98.25C268.513 98 268.419 97.7812 268.231 97.5938C268.044 97.4062 267.825 97.3125 267.575 97.3125C267.325 97.3125 267.106 97.4062 266.919 97.5938C266.731 97.7812 266.638 98 266.638 98.25C266.638 98.5 266.731 98.7188 266.919 98.9063C267.106 99.0938 267.325 99.1875 267.575 99.1875ZM258.2 120.75C255.606 120.75 253.169 120.258 250.888 119.273C248.606 118.289 246.622 116.953 244.935 115.266C243.247 113.578 241.911 111.594 240.927 109.313C239.942 107.031 239.45 104.594 239.45 102C239.45 99.4062 239.942 96.9688 240.927 94.6875C241.911 92.4062 243.247 90.4219 244.935 88.7344C246.622 87.0469 248.606 85.7109 250.888 84.7266C253.169 83.7422 255.606 83.25 258.2 83.25C260.794 83.25 263.231 83.7422 265.513 84.7266C267.794 85.7109 269.778 87.0469 271.466 88.7344C273.153 90.4219 274.489 92.4062 275.474 94.6875C276.458 96.9688 276.95 99.4062 276.95 102C276.95 104.594 276.458 107.031 275.474 109.313C274.489 111.594 273.153 113.578 271.466 115.266C269.778 116.953 267.794 118.289 265.513 119.273C263.231 120.258 260.794 120.75 258.2 120.75ZM258.2 117C262.388 117 265.935 115.547 268.841 112.641C271.747 109.734 273.2 106.188 273.2 102C273.2 97.8125 271.747 94.2656 268.841 91.3594C265.935 88.4531 262.388 87 258.2 87C254.013 87 250.466 88.4531 247.56 91.3594C244.653 94.2656 243.2 97.8125 243.2 102C243.2 106.188 244.653 109.734 247.56 112.641C250.466 115.547 254.013 117 258.2 117ZM261.95 112.312C262.2 112.312 262.419 112.219 262.606 112.031C262.794 111.844 262.888 111.625 262.888 111.375C262.888 111.125 262.794 110.906 262.606 110.719C262.419 110.531 262.2 110.438 261.95 110.438C261.7 110.438 261.481 110.531 261.294 110.719C261.106 110.906 261.013 111.125 261.013 111.375C261.013 111.625 261.106 111.844 261.294 112.031C261.481 112.219 261.7 112.312 261.95 112.312ZM261.95 107.625C262.481 107.625 262.927 107.445 263.286 107.086C263.646 106.727 263.825 106.281 263.825 105.75C263.825 105.219 263.646 104.773 263.286 104.414C262.927 104.055 262.481 103.875 261.95 103.875C261.419 103.875 260.974 104.055 260.614 104.414C260.255 104.773 260.075 105.219 260.075 105.75C260.075 106.281 260.255 106.727 260.614 107.086C260.974 107.445 261.419 107.625 261.95 107.625Z" fill="#833177"/>
</g>
<path d="M395.04 63L395.028 57.96L392.556 62.112H391.68L389.22 58.068V63H387.396V54.6H389.004L392.148 59.82L395.244 54.6H396.84L396.864 63H395.04ZM403.885 63.144C403.013 63.144 402.225 62.956 401.521 62.58C400.825 62.204 400.277 61.688 399.877 61.032C399.485 60.368 399.289 59.624 399.289 58.8C399.289 57.976 399.485 57.236 399.877 56.58C400.277 55.916 400.825 55.396 401.521 55.02C402.225 54.644 403.013 54.456 403.885 54.456C404.757 54.456 405.541 54.644 406.237 55.02C406.933 55.396 407.481 55.916 407.881 56.58C408.281 57.236 408.481 57.976 408.481 58.8C408.481 59.624 408.281 60.368 407.881 61.032C407.481 61.688 406.933 62.204 406.237 62.58C405.541 62.956 404.757 63.144 403.885 63.144ZM403.885 61.488C404.381 61.488 404.829 61.376 405.229 61.152C405.629 60.92 405.941 60.6 406.165 60.192C406.397 59.784 406.513 59.32 406.513 58.8C406.513 58.28 406.397 57.816 406.165 57.408C405.941 57 405.629 56.684 405.229 56.46C404.829 56.228 404.381 56.112 403.885 56.112C403.389 56.112 402.941 56.228 402.541 56.46C402.141 56.684 401.825 57 401.593 57.408C401.369 57.816 401.257 58.28 401.257 58.8C401.257 59.32 401.369 59.784 401.593 60.192C401.825 60.6 402.141 60.92 402.541 61.152C402.941 61.376 403.389 61.488 403.885 61.488ZM410.902 54.6H412.846V61.416H417.058V63H410.902V54.6ZM425.608 61.44V63H419.104V54.6H425.452V56.16H421.036V57.984H424.936V59.496H421.036V61.44H425.608ZM432.111 63.144C431.255 63.144 430.479 62.96 429.783 62.592C429.095 62.216 428.551 61.7 428.151 61.044C427.759 60.38 427.563 59.632 427.563 58.8C427.563 57.968 427.759 57.224 428.151 56.568C428.551 55.904 429.095 55.388 429.783 55.02C430.479 54.644 431.259 54.456 432.123 54.456C432.851 54.456 433.507 54.584 434.091 54.84C434.683 55.096 435.179 55.464 435.579 55.944L434.331 57.096C433.763 56.44 433.059 56.112 432.219 56.112C431.699 56.112 431.235 56.228 430.827 56.46C430.419 56.684 430.099 57 429.867 57.408C429.643 57.816 429.531 58.28 429.531 58.8C429.531 59.32 429.643 59.784 429.867 60.192C430.099 60.6 430.419 60.92 430.827 61.152C431.235 61.376 431.699 61.488 432.219 61.488C433.059 61.488 433.763 61.156 434.331 60.492L435.579 61.644C435.179 62.132 434.683 62.504 434.091 62.76C433.499 63.016 432.839 63.144 432.111 63.144ZM441.514 63.144C440.314 63.144 439.378 62.812 438.706 62.148C438.042 61.484 437.71 60.536 437.71 59.304V54.6H439.654V59.232C439.654 60.736 440.278 61.488 441.526 61.488C442.134 61.488 442.598 61.308 442.918 60.948C443.238 60.58 443.398 60.008 443.398 59.232V54.6H445.318V59.304C445.318 60.536 444.982 61.484 444.31 62.148C443.646 62.812 442.714 63.144 441.514 63.144ZM448.199 54.6H450.143V61.416H454.355V63H448.199V54.6ZM462.905 61.44V63H456.401V54.6H462.749V56.16H458.333V57.984H462.233V59.496H458.333V61.44H462.905Z" fill="#333333"/>
<mask id="mask2_1191_14022" style="mask-type:alpha" maskUnits="userSpaceOnUse" x="402" y="79" width="46" height="46">
<rect x="402.9" y="79.5" width="45" height="45" fill="#D9D9D9"/>
</mask>
<g mask="url(#mask2_1191_14022)">
<path d="M412.275 109.5C410.212 109.5 408.447 108.766 406.978 107.297C405.509 105.828 404.775 104.062 404.775 102C404.775 99.9375 405.509 98.1719 406.978 96.7031C408.447 95.2344 410.212 94.5 412.275 94.5C414.337 94.5 416.103 95.2344 417.572 96.7031C419.041 98.1719 419.775 99.9375 419.775 102C419.775 104.062 419.041 105.828 417.572 107.297C416.103 108.766 414.337 109.5 412.275 109.5ZM412.275 105.75C413.306 105.75 414.189 105.383 414.923 104.648C415.658 103.914 416.025 103.031 416.025 102C416.025 100.969 415.658 100.086 414.923 99.3516C414.189 98.6172 413.306 98.25 412.275 98.25C411.244 98.25 410.361 98.6172 409.626 99.3516C408.892 100.086 408.525 100.969 408.525 102C408.525 103.031 408.892 103.914 409.626 104.648C410.361 105.383 411.244 105.75 412.275 105.75ZM434.775 113.25C431.65 113.25 428.994 112.156 426.806 109.969C424.619 107.781 423.525 105.125 423.525 102C423.525 98.875 424.619 96.2188 426.806 94.0312C428.994 91.8437 431.65 90.75 434.775 90.75C437.9 90.75 440.556 91.8437 442.744 94.0312C444.931 96.2188 446.025 98.875 446.025 102C446.025 105.125 444.931 107.781 442.744 109.969C440.556 112.156 437.9 113.25 434.775 113.25Z" fill="#833177"/>
</g>
<path d="M567.664 63.144C566.792 63.144 566.004 62.956 565.3 62.58C564.604 62.204 564.056 61.688 563.656 61.032C563.264 60.368 563.068 59.624 563.068 58.8C563.068 57.976 563.264 57.236 563.656 56.58C564.056 55.916 564.604 55.396 565.3 55.02C566.004 54.644 566.792 54.456 567.664 54.456C568.536 54.456 569.32 54.644 570.016 55.02C570.712 55.396 571.26 55.916 571.66 56.58C572.06 57.236 572.26 57.976 572.26 58.8C572.26 59.624 572.06 60.368 571.66 61.032C571.26 61.688 570.712 62.204 570.016 62.58C569.32 62.956 568.536 63.144 567.664 63.144ZM567.664 61.488C568.16 61.488 568.608 61.376 569.008 61.152C569.408 60.92 569.72 60.6 569.944 60.192C570.176 59.784 570.292 59.32 570.292 58.8C570.292 58.28 570.176 57.816 569.944 57.408C569.72 57 569.408 56.684 569.008 56.46C568.608 56.228 568.16 56.112 567.664 56.112C567.168 56.112 566.72 56.228 566.32 56.46C565.92 56.684 565.604 57 565.372 57.408C565.148 57.816 565.036 58.28 565.036 58.8C565.036 59.32 565.148 59.784 565.372 60.192C565.604 60.6 565.92 60.92 566.32 61.152C566.72 61.376 567.168 61.488 567.664 61.488ZM580.033 63L578.413 60.66H578.317H576.625V63H574.681V54.6H578.317C579.061 54.6 579.705 54.724 580.249 54.972C580.801 55.22 581.225 55.572 581.521 56.028C581.817 56.484 581.965 57.024 581.965 57.648C581.965 58.272 581.813 58.812 581.509 59.268C581.213 59.716 580.789 60.06 580.237 60.3L582.121 63H580.033ZM579.997 57.648C579.997 57.176 579.845 56.816 579.541 56.568C579.237 56.312 578.793 56.184 578.209 56.184H576.625V59.112H578.209C578.793 59.112 579.237 58.984 579.541 58.728C579.845 58.472 579.997 58.112 579.997 57.648ZM590.141 58.668H591.917V62.076C591.461 62.42 590.933 62.684 590.333 62.868C589.733 63.052 589.129 63.144 588.521 63.144C587.649 63.144 586.865 62.96 586.169 62.592C585.473 62.216 584.925 61.7 584.525 61.044C584.133 60.38 583.937 59.632 583.937 58.8C583.937 57.968 584.133 57.224 584.525 56.568C584.925 55.904 585.477 55.388 586.181 55.02C586.885 54.644 587.677 54.456 588.557 54.456C589.293 54.456 589.961 54.58 590.561 54.828C591.161 55.076 591.665 55.436 592.073 55.908L590.825 57.06C590.225 56.428 589.501 56.112 588.653 56.112C588.117 56.112 587.641 56.224 587.225 56.448C586.809 56.672 586.485 56.988 586.253 57.396C586.021 57.804 585.905 58.272 585.905 58.8C585.905 59.32 586.021 59.784 586.253 60.192C586.485 60.6 586.805 60.92 587.213 61.152C587.629 61.376 588.101 61.488 588.629 61.488C589.189 61.488 589.693 61.368 590.141 61.128V58.668ZM600.215 61.2H596.315L595.571 63H593.579L597.323 54.6H599.243L602.999 63H600.959L600.215 61.2ZM599.603 59.724L598.271 56.508L596.939 59.724H599.603ZM612.535 54.6V63H610.939L606.751 57.9V63H604.831V54.6H606.439L610.615 59.7V54.6H612.535ZM615.482 54.6H617.426V63H615.482V54.6ZM623.14 63.144C622.476 63.144 621.832 63.056 621.208 62.88C620.592 62.696 620.096 62.46 619.72 62.172L620.38 60.708C620.74 60.972 621.168 61.184 621.664 61.344C622.16 61.504 622.656 61.584 623.152 61.584C623.704 61.584 624.112 61.504 624.376 61.344C624.64 61.176 624.772 60.956 624.772 60.684C624.772 60.484 624.692 60.32 624.532 60.192C624.38 60.056 624.18 59.948 623.932 59.868C623.692 59.788 623.364 59.7 622.948 59.604C622.308 59.452 621.784 59.3 621.376 59.148C620.968 58.996 620.616 58.752 620.32 58.416C620.032 58.08 619.888 57.632 619.888 57.072C619.888 56.584 620.02 56.144 620.284 55.752C620.548 55.352 620.944 55.036 621.472 54.804C622.008 54.572 622.66 54.456 623.428 54.456C623.964 54.456 624.488 54.52 625 54.648C625.512 54.776 625.96 54.96 626.344 55.2L625.744 56.676C624.968 56.236 624.192 56.016 623.416 56.016C622.872 56.016 622.468 56.104 622.204 56.28C621.948 56.456 621.82 56.688 621.82 56.976C621.82 57.264 621.968 57.48 622.264 57.624C622.568 57.76 623.028 57.896 623.644 58.032C624.284 58.184 624.808 58.336 625.216 58.488C625.624 58.64 625.972 58.88 626.26 59.208C626.556 59.536 626.704 59.98 626.704 60.54C626.704 61.02 626.568 61.46 626.296 61.86C626.032 62.252 625.632 62.564 625.096 62.796C624.56 63.028 623.908 63.144 623.14 63.144ZM636.636 63L636.624 57.96L634.152 62.112H633.276L630.816 58.068V63H628.992V54.6H630.6L633.744 59.82L636.84 54.6H638.436L638.46 63H636.636Z" fill="#333333"/>
<mask id="mask3_1191_14022" style="mask-type:alpha" maskUnits="userSpaceOnUse" x="578" y="79" width="46" height="46">
<rect x="578.6" y="79.5" width="45" height="45" fill="#D9D9D9"/>
</mask>
<g mask="url(#mask3_1191_14022)">
<path d="M589.85 118.875C587.788 118.875 586.022 118.141 584.553 116.672C583.084 115.203 582.35 113.438 582.35 111.375C582.35 109.312 583.084 107.547 584.553 106.078C586.022 104.609 587.788 103.875 589.85 103.875C591.913 103.875 593.678 104.609 595.147 106.078C596.616 107.547 597.35 109.312 597.35 111.375C597.35 113.438 596.616 115.203 595.147 116.672C593.678 118.141 591.913 118.875 589.85 118.875ZM612.35 118.875C610.288 118.875 608.522 118.141 607.053 116.672C605.584 115.203 604.85 113.438 604.85 111.375C604.85 109.312 605.584 107.547 607.053 106.078C608.522 104.609 610.288 103.875 612.35 103.875C614.413 103.875 616.178 104.609 617.647 106.078C619.116 107.547 619.85 109.312 619.85 111.375C619.85 113.438 619.116 115.203 617.647 116.672C616.178 118.141 614.413 118.875 612.35 118.875ZM589.85 115.125C590.881 115.125 591.764 114.758 592.499 114.023C593.233 113.289 593.6 112.406 593.6 111.375C593.6 110.344 593.233 109.461 592.499 108.727C591.764 107.992 590.881 107.625 589.85 107.625C588.819 107.625 587.936 107.992 587.202 108.727C586.467 109.461 586.1 110.344 586.1 111.375C586.1 112.406 586.467 113.289 587.202 114.023C587.936 114.758 588.819 115.125 589.85 115.125ZM612.35 115.125C613.381 115.125 614.264 114.758 614.999 114.023C615.733 113.289 616.1 112.406 616.1 111.375C616.1 110.344 615.733 109.461 614.999 108.727C614.264 107.992 613.381 107.625 612.35 107.625C611.319 107.625 610.436 107.992 609.702 108.727C608.967 109.461 608.6 110.344 608.6 111.375C608.6 112.406 608.967 113.289 609.702 114.023C610.436 114.758 611.319 115.125 612.35 115.125ZM601.1 107.438C600.1 107.438 599.256 107.094 598.569 106.406C597.881 105.719 597.538 104.875 597.538 103.875C597.538 102.875 597.881 102.031 598.569 101.344C599.256 100.656 600.1 100.312 601.1 100.312C602.1 100.312 602.944 100.656 603.631 101.344C604.319 102.031 604.663 102.875 604.663 103.875C604.663 104.875 604.319 105.719 603.631 106.406C602.944 107.094 602.1 107.438 601.1 107.438ZM601.1 98.25C599.038 98.25 597.272 97.5156 595.803 96.0469C594.334 94.5781 593.6 92.8125 593.6 90.75C593.6 88.6875 594.334 86.9219 595.803 85.4531C597.272 83.9844 599.038 83.25 601.1 83.25C603.163 83.25 604.928 83.9844 606.397 85.4531C607.866 86.9219 608.6 88.6875 608.6 90.75C608.6 92.8125 607.866 94.5781 606.397 96.0469C604.928 97.5156 603.163 98.25 601.1 98.25ZM601.1 94.5C602.131 94.5 603.014 94.1328 603.749 93.3984C604.483 92.6641 604.85 91.7812 604.85 90.75C604.85 89.7188 604.483 88.8359 603.749 88.1016C603.014 87.3672 602.131 87 601.1 87C600.069 87 599.186 87.3672 598.452 88.1016C597.717 88.8359 597.35 89.7188 597.35 90.75C597.35 91.7812 597.717 92.6641 598.452 93.3984C599.186 94.1328 600.069 94.5 601.1 94.5Z" fill="#833177"/>
</g>
<path d="M740.536 56.184H737.848V54.6H745.168V56.184H742.48V63H740.536V56.184ZM753.678 61.44V63H747.174V54.6H753.522V56.16H749.106V57.984H753.006V59.496H749.106V61.44H753.678ZM763.829 63L763.817 57.96L761.345 62.112H760.469L758.009 58.068V63H756.185V54.6H757.793L760.937 59.82L764.033 54.6H765.629L765.653 63H763.829ZM772.242 54.6C772.986 54.6 773.63 54.724 774.174 54.972C774.726 55.22 775.15 55.572 775.446 56.028C775.742 56.484 775.89 57.024 775.89 57.648C775.89 58.264 775.742 58.804 775.446 59.268C775.15 59.724 774.726 60.076 774.174 60.324C773.63 60.564 772.986 60.684 772.242 60.684H770.55V63H768.606V54.6H772.242ZM772.134 59.1C772.718 59.1 773.162 58.976 773.466 58.728C773.77 58.472 773.922 58.112 773.922 57.648C773.922 57.176 773.77 56.816 773.466 56.568C773.162 56.312 772.718 56.184 772.134 56.184H770.55V59.1H772.134ZM778.238 54.6H780.182V61.416H784.394V63H778.238V54.6ZM792.042 61.2H788.142L787.398 63H785.406L789.15 54.6H791.07L794.826 63H792.786L792.042 61.2ZM791.43 59.724L790.098 56.508L788.766 59.724H791.43ZM797.976 56.184H795.288V54.6H802.608V56.184H799.92V63H797.976V56.184ZM811.118 61.44V63H804.614V54.6H810.962V56.16H806.546V57.984H810.446V59.496H806.546V61.44H811.118Z" fill="#333333"/>
<mask id="mask4_1191_14022" style="mask-type:alpha" maskUnits="userSpaceOnUse" x="752" y="79" width="46" height="46">
<rect x="752.3" y="79.5" width="45" height="45" fill="#D9D9D9"/>
</mask>
<g mask="url(#mask4_1191_14022)">
<path d="M764.3 115.125H785.253L781.316 111.188C780.409 111.844 779.402 112.352 778.292 112.711C777.183 113.07 776.019 113.25 774.8 113.25C773.581 113.25 772.417 113.062 771.308 112.688C770.198 112.312 769.191 111.797 768.284 111.141L764.3 115.125ZM761.675 112.453L765.613 108.516C764.956 107.609 764.448 106.602 764.089 105.492C763.73 104.383 763.55 103.219 763.55 102C763.55 100.781 763.738 99.6172 764.113 98.5078C764.488 97.3984 765.003 96.3906 765.659 95.4844L761.675 91.5V112.453ZM768.331 105.797L772.175 102L768.331 98.2031C767.988 98.7656 767.73 99.3594 767.558 99.9844C767.386 100.609 767.3 101.281 767.3 102C767.3 102.719 767.386 103.391 767.558 104.016C767.73 104.641 767.988 105.234 768.331 105.797ZM774.8 109.5C775.519 109.5 776.191 109.414 776.816 109.242C777.441 109.07 778.034 108.812 778.597 108.469L774.8 104.625L770.956 108.469C771.519 108.812 772.12 109.07 772.761 109.242C773.402 109.414 774.081 109.5 774.8 109.5ZM774.8 99.3281L778.597 95.5312C778.034 95.1875 777.441 94.9297 776.816 94.7578C776.191 94.5859 775.519 94.5 774.8 94.5C774.081 94.5 773.409 94.5859 772.784 94.7578C772.159 94.9297 771.566 95.1875 771.003 95.5312L774.8 99.3281ZM781.269 105.797C781.613 105.234 781.87 104.641 782.042 104.016C782.214 103.391 782.3 102.719 782.3 102C782.3 101.281 782.214 100.602 782.042 99.9609C781.87 99.3203 781.613 98.7188 781.269 98.1563L777.472 101.953L781.269 105.797ZM787.925 112.453V91.5L783.941 95.4844C784.597 96.3906 785.113 97.3984 785.488 98.5078C785.863 99.6172 786.05 100.781 786.05 102C786.05 103.219 785.87 104.383 785.511 105.492C785.152 106.602 784.644 107.609 783.988 108.516L787.925 112.453ZM781.316 92.8594L785.3 88.875H764.347L768.284 92.8125C769.191 92.1562 770.198 91.6484 771.308 91.2891C772.417 90.9297 773.581 90.75 774.8 90.75C776.019 90.75 777.183 90.9375 778.292 91.3125C779.402 91.6875 780.409 92.2031 781.316 92.8594ZM761.675 118.875C760.644 118.875 759.761 118.508 759.027 117.773C758.292 117.039 757.925 116.156 757.925 115.125V88.875C757.925 87.8438 758.292 86.9609 759.027 86.2266C759.761 85.4922 760.644 85.125 761.675 85.125H787.925C788.956 85.125 789.839 85.4922 790.573 86.2266C791.308 86.9609 791.675 87.8438 791.675 88.875V115.125C791.675 116.156 791.308 117.039 790.573 117.773C789.839 118.508 788.956 118.875 787.925 118.875H761.675Z" fill="#833177"/>
</g>
<path d="M925.632 54.6C926.376 54.6 927.02 54.724 927.564 54.972C928.116 55.22 928.54 55.572 928.836 56.028C929.132 56.484 929.28 57.024 929.28 57.648C929.28 58.264 929.132 58.804 928.836 59.268C928.54 59.724 928.116 60.076 927.564 60.324C927.02 60.564 926.376 60.684 925.632 60.684H923.94V63H921.996V54.6H925.632ZM925.524 59.1C926.108 59.1 926.552 58.976 926.856 58.728C927.16 58.472 927.312 58.112 927.312 57.648C927.312 57.176 927.16 56.816 926.856 56.568C926.552 56.312 926.108 56.184 925.524 56.184H923.94V59.1H925.524ZM936.738 61.2H932.838L932.094 63H930.102L933.846 54.6H935.766L939.522 63H937.482L936.738 61.2ZM936.126 59.724L934.794 56.508L933.462 59.724H936.126ZM946.912 58.668H948.688V62.076C948.232 62.42 947.704 62.684 947.104 62.868C946.504 63.052 945.9 63.144 945.292 63.144C944.42 63.144 943.636 62.96 942.94 62.592C942.244 62.216 941.696 61.7 941.296 61.044C940.904 60.38 940.708 59.632 940.708 58.8C940.708 57.968 940.904 57.224 941.296 56.568C941.696 55.904 942.248 55.388 942.952 55.02C943.656 54.644 944.448 54.456 945.328 54.456C946.064 54.456 946.732 54.58 947.332 54.828C947.932 55.076 948.436 55.436 948.844 55.908L947.596 57.06C946.996 56.428 946.272 56.112 945.424 56.112C944.888 56.112 944.412 56.224 943.996 56.448C943.58 56.672 943.256 56.988 943.024 57.396C942.792 57.804 942.676 58.272 942.676 58.8C942.676 59.32 942.792 59.784 943.024 60.192C943.256 60.6 943.576 60.92 943.984 61.152C944.4 61.376 944.872 61.488 945.4 61.488C945.96 61.488 946.464 61.368 946.912 61.128V58.668ZM957.958 61.44V63H951.454V54.6H957.802V56.16H953.386V57.984H957.286V59.496H953.386V61.44H957.958Z" fill="#333333"/>
<mask id="mask5_1191_14022" style="mask-type:alpha" maskUnits="userSpaceOnUse" x="917" y="79" width="46" height="46">
<rect x="917.5" y="79.5" width="45" height="45" fill="#D9D9D9"/>
</mask>
<g mask="url(#mask5_1191_14022)">
<path d="M926.875 118.875C925.844 118.875 924.961 118.508 924.227 117.773C923.492 117.039 923.125 116.156 923.125 115.125V88.875C923.125 87.8438 923.492 86.9609 924.227 86.2266C924.961 85.4922 925.844 85.125 926.875 85.125H953.125C954.156 85.125 955.039 85.4922 955.773 86.2266C956.508 86.9609 956.875 87.8438 956.875 88.875V115.125C956.875 116.156 956.508 117.039 955.773 117.773C955.039 118.508 954.156 118.875 953.125 118.875H926.875ZM926.875 115.125H953.125V94.5H926.875V115.125Z" fill="#833177"/>
</g>
<path d="M50 147V157" stroke="#833177" stroke-width="4" stroke-linecap="round"/>
<path d="M50 152H150" stroke="#833177" stroke-width="4" stroke-linecap="round"/>
<path d="M150 147V157" stroke="#833177" stroke-width="4" stroke-linecap="round"/>
<path d="M77.704 177.584C77.4587 177.765 77.1547 177.904 76.792 178C76.44 178.085 76.0667 178.128 75.672 178.128C74.648 178.128 73.8533 177.867 73.288 177.344C72.7333 176.821 72.456 176.053 72.456 175.04V171.504H71.128V169.584H72.456V167.488H74.952V169.584H77.096V171.504H74.952V175.008C74.952 175.371 75.0427 175.653 75.224 175.856C75.416 176.048 75.6827 176.144 76.024 176.144C76.4187 176.144 76.7547 176.037 77.032 175.824L77.704 177.584ZM82.9355 178.128C82.0288 178.128 81.2128 177.941 80.4875 177.568C79.7728 177.184 79.2128 176.656 78.8075 175.984C78.4022 175.312 78.1995 174.549 78.1995 173.696C78.1995 172.843 78.4022 172.08 78.8075 171.408C79.2128 170.736 79.7728 170.213 80.4875 169.84C81.2128 169.456 82.0288 169.264 82.9355 169.264C83.8422 169.264 84.6528 169.456 85.3675 169.84C86.0822 170.213 86.6422 170.736 87.0475 171.408C87.4528 172.08 87.6555 172.843 87.6555 173.696C87.6555 174.549 87.4528 175.312 87.0475 175.984C86.6422 176.656 86.0822 177.184 85.3675 177.568C84.6528 177.941 83.8422 178.128 82.9355 178.128ZM82.9355 176.08C83.5755 176.08 84.0982 175.867 84.5035 175.44C84.9195 175.003 85.1275 174.421 85.1275 173.696C85.1275 172.971 84.9195 172.395 84.5035 171.968C84.0982 171.531 83.5755 171.312 82.9355 171.312C82.2955 171.312 81.7675 171.531 81.3515 171.968C80.9355 172.395 80.7275 172.971 80.7275 173.696C80.7275 174.421 80.9355 175.003 81.3515 175.44C81.7675 175.867 82.2955 176.08 82.9355 176.08ZM93.0199 174.624L91.8199 175.808V178H89.3239V166.128H91.8199V172.848L95.4679 169.392H98.4439L94.8599 173.04L98.7639 178H95.7399L93.0199 174.624ZM107.943 173.728C107.943 173.76 107.927 173.984 107.895 174.4H101.383C101.501 174.933 101.778 175.355 102.215 175.664C102.653 175.973 103.197 176.128 103.847 176.128C104.295 176.128 104.69 176.064 105.031 175.936C105.383 175.797 105.709 175.584 106.007 175.296L107.335 176.736C106.525 177.664 105.341 178.128 103.783 178.128C102.813 178.128 101.954 177.941 101.207 177.568C100.461 177.184 99.8847 176.656 99.4794 175.984C99.074 175.312 98.8714 174.549 98.8714 173.696C98.8714 172.853 99.0687 172.096 99.4634 171.424C99.8687 170.741 100.418 170.213 101.111 169.84C101.815 169.456 102.599 169.264 103.463 169.264C104.306 169.264 105.069 169.445 105.751 169.808C106.434 170.171 106.967 170.693 107.351 171.376C107.746 172.048 107.943 172.832 107.943 173.728ZM103.479 171.152C102.914 171.152 102.439 171.312 102.055 171.632C101.671 171.952 101.437 172.389 101.351 172.944H105.591C105.506 172.4 105.271 171.968 104.887 171.648C104.503 171.317 104.034 171.152 103.479 171.152ZM114.837 169.264C115.904 169.264 116.762 169.584 117.413 170.224C118.074 170.864 118.405 171.813 118.405 173.072V178H115.909V173.456C115.909 172.773 115.76 172.267 115.461 171.936C115.162 171.595 114.73 171.424 114.165 171.424C113.536 171.424 113.034 171.621 112.661 172.016C112.288 172.4 112.101 172.976 112.101 173.744V178H109.605V169.392H111.989V170.4C112.32 170.037 112.73 169.76 113.221 169.568C113.712 169.365 114.25 169.264 114.837 169.264ZM123.564 178.128C122.849 178.128 122.15 178.043 121.468 177.872C120.785 177.691 120.241 177.467 119.836 177.2L120.668 175.408C121.052 175.653 121.516 175.856 122.06 176.016C122.604 176.165 123.137 176.24 123.66 176.24C124.716 176.24 125.244 175.979 125.244 175.456C125.244 175.211 125.1 175.035 124.812 174.928C124.524 174.821 124.081 174.731 123.484 174.656C122.78 174.549 122.198 174.427 121.74 174.288C121.281 174.149 120.881 173.904 120.54 173.552C120.209 173.2 120.044 172.699 120.044 172.048C120.044 171.504 120.198 171.024 120.508 170.608C120.828 170.181 121.286 169.851 121.884 169.616C122.492 169.381 123.206 169.264 124.028 169.264C124.636 169.264 125.238 169.333 125.836 169.472C126.444 169.6 126.945 169.781 127.34 170.016L126.508 171.792C125.75 171.365 124.924 171.152 124.028 171.152C123.494 171.152 123.094 171.227 122.828 171.376C122.561 171.525 122.428 171.717 122.428 171.952C122.428 172.219 122.572 172.405 122.86 172.512C123.148 172.619 123.606 172.72 124.236 172.816C124.94 172.933 125.516 173.061 125.964 173.2C126.412 173.328 126.801 173.568 127.132 173.92C127.462 174.272 127.628 174.763 127.628 175.392C127.628 175.925 127.468 176.4 127.148 176.816C126.828 177.232 126.358 177.557 125.74 177.792C125.132 178.016 124.406 178.128 123.564 178.128Z" fill="#833177"/>
<path d="M522 147V157" stroke="#833177" stroke-width="4" stroke-linecap="round"/>
<path d="M522 152H858" stroke="#833177" stroke-width="4" stroke-linecap="round"/>
<path d="M858 147V157" stroke="#833177" stroke-width="4" stroke-linecap="round"/>
<path d="M668.804 178.192C667.204 178.192 665.956 177.749 665.06 176.864C664.175 175.979 663.732 174.715 663.732 173.072V166.8H666.324V172.976C666.324 174.981 667.156 175.984 668.82 175.984C669.631 175.984 670.249 175.744 670.676 175.264C671.103 174.773 671.316 174.011 671.316 172.976V166.8H673.876V173.072C673.876 174.715 673.428 175.979 672.532 176.864C671.647 177.749 670.404 178.192 668.804 178.192ZM676.437 166.8H679.029V178H676.437V166.8ZM690.299 173.6L688.795 175.168V178H686.219V166.8H688.795V172.032L693.755 166.8H696.635L691.995 171.792L696.907 178H693.883L690.299 173.6ZM697.73 169.392H700.226V178H697.73V169.392ZM698.978 168.192C698.519 168.192 698.146 168.059 697.858 167.792C697.57 167.525 697.426 167.195 697.426 166.8C697.426 166.405 697.57 166.075 697.858 165.808C698.146 165.541 698.519 165.408 698.978 165.408C699.437 165.408 699.81 165.536 700.098 165.792C700.386 166.048 700.53 166.368 700.53 166.752C700.53 167.168 700.386 167.515 700.098 167.792C699.81 168.059 699.437 168.192 698.978 168.192ZM708.095 177.584C707.849 177.765 707.545 177.904 707.183 178C706.831 178.085 706.457 178.128 706.063 178.128C705.039 178.128 704.244 177.867 703.679 177.344C703.124 176.821 702.847 176.053 702.847 175.04V171.504H701.519V169.584H702.847V167.488H705.343V169.584H707.487V171.504H705.343V175.008C705.343 175.371 705.433 175.653 705.615 175.856C705.807 176.048 706.073 176.144 706.415 176.144C706.809 176.144 707.145 176.037 707.423 175.824L708.095 177.584ZM712.392 178.128C711.677 178.128 710.978 178.043 710.296 177.872C709.613 177.691 709.069 177.467 708.664 177.2L709.496 175.408C709.88 175.653 710.344 175.856 710.888 176.016C711.432 176.165 711.965 176.24 712.488 176.24C713.544 176.24 714.072 175.979 714.072 175.456C714.072 175.211 713.928 175.035 713.64 174.928C713.352 174.821 712.909 174.731 712.312 174.656C711.608 174.549 711.026 174.427 710.568 174.288C710.109 174.149 709.709 173.904 709.368 173.552C709.037 173.2 708.872 172.699 708.872 172.048C708.872 171.504 709.026 171.024 709.336 170.608C709.656 170.181 710.114 169.851 710.712 169.616C711.32 169.381 712.034 169.264 712.856 169.264C713.464 169.264 714.066 169.333 714.664 169.472C715.272 169.6 715.773 169.781 716.168 170.016L715.336 171.792C714.578 171.365 713.752 171.152 712.856 171.152C712.322 171.152 711.922 171.227 711.656 171.376C711.389 171.525 711.256 171.717 711.256 171.952C711.256 172.219 711.4 172.405 711.688 172.512C711.976 172.619 712.434 172.72 713.064 172.816C713.768 172.933 714.344 173.061 714.792 173.2C715.24 173.328 715.629 173.568 715.96 173.92C716.29 174.272 716.456 174.763 716.456 175.392C716.456 175.925 716.296 176.4 715.976 176.816C715.656 177.232 715.186 177.557 714.568 177.792C713.96 178.016 713.234 178.128 712.392 178.128Z" fill="#833177"/>
<path d="M890 147V157" stroke="#833177" stroke-width="4" stroke-linecap="round"/>
<path d="M890 152H990" stroke="#833177" stroke-width="4" stroke-linecap="round"/>
<path d="M990 147V157" stroke="#833177" stroke-width="4" stroke-linecap="round"/>
<path d="M908.24 169.264C909.04 169.264 909.765 169.451 910.416 169.824C911.077 170.187 911.595 170.704 911.968 171.376C912.341 172.037 912.528 172.811 912.528 173.696C912.528 174.581 912.341 175.36 911.968 176.032C911.595 176.693 911.077 177.211 910.416 177.584C909.765 177.947 909.04 178.128 908.24 178.128C907.141 178.128 906.277 177.781 905.648 177.088V181.104H903.152V169.392H905.536V170.384C906.155 169.637 907.056 169.264 908.24 169.264ZM907.808 176.08C908.448 176.08 908.971 175.867 909.376 175.44C909.792 175.003 910 174.421 910 173.696C910 172.971 909.792 172.395 909.376 171.968C908.971 171.531 908.448 171.312 907.808 171.312C907.168 171.312 906.64 171.531 906.224 171.968C905.819 172.395 905.616 172.971 905.616 173.696C905.616 174.421 905.819 175.003 906.224 175.44C906.64 175.867 907.168 176.08 907.808 176.08ZM916.583 170.528C916.882 170.112 917.282 169.797 917.783 169.584C918.295 169.371 918.882 169.264 919.543 169.264V171.568C919.266 171.547 919.079 171.536 918.983 171.536C918.268 171.536 917.708 171.739 917.303 172.144C916.898 172.539 916.695 173.136 916.695 173.936V178H914.199V169.392H916.583V170.528ZM925.045 178.128C924.138 178.128 923.322 177.941 922.597 177.568C921.882 177.184 921.322 176.656 920.917 175.984C920.512 175.312 920.309 174.549 920.309 173.696C920.309 172.843 920.512 172.08 920.917 171.408C921.322 170.736 921.882 170.213 922.597 169.84C923.322 169.456 924.138 169.264 925.045 169.264C925.952 169.264 926.762 169.456 927.477 169.84C928.192 170.213 928.752 170.736 929.157 171.408C929.562 172.08 929.765 172.843 929.765 173.696C929.765 174.549 929.562 175.312 929.157 175.984C928.752 176.656 928.192 177.184 927.477 177.568C926.762 177.941 925.952 178.128 925.045 178.128ZM925.045 176.08C925.685 176.08 926.208 175.867 926.613 175.44C927.029 175.003 927.237 174.421 927.237 173.696C927.237 172.971 927.029 172.395 926.613 171.968C926.208 171.531 925.685 171.312 925.045 171.312C924.405 171.312 923.877 171.531 923.461 171.968C923.045 172.395 922.837 172.971 922.837 173.696C922.837 174.421 923.045 175.003 923.461 175.44C923.877 175.867 924.405 176.08 925.045 176.08ZM940.201 166.128V178H937.817V177.008C937.199 177.755 936.303 178.128 935.129 178.128C934.319 178.128 933.583 177.947 932.921 177.584C932.271 177.221 931.759 176.704 931.385 176.032C931.012 175.36 930.825 174.581 930.825 173.696C930.825 172.811 931.012 172.032 931.385 171.36C931.759 170.688 932.271 170.171 932.921 169.808C933.583 169.445 934.319 169.264 935.129 169.264C936.228 169.264 937.087 169.611 937.705 170.304V166.128H940.201ZM935.561 176.08C936.191 176.08 936.713 175.867 937.129 175.44C937.545 175.003 937.753 174.421 937.753 173.696C937.753 172.971 937.545 172.395 937.129 171.968C936.713 171.531 936.191 171.312 935.561 171.312C934.921 171.312 934.393 171.531 933.977 171.968C933.561 172.395 933.353 172.971 933.353 173.696C933.353 174.421 933.561 175.003 933.977 175.44C934.393 175.867 934.921 176.08 935.561 176.08ZM951.183 169.392V178H948.815V176.976C948.485 177.349 948.09 177.637 947.631 177.84C947.173 178.032 946.677 178.128 946.143 178.128C945.013 178.128 944.117 177.803 943.455 177.152C942.794 176.501 942.463 175.536 942.463 174.256V169.392H944.959V173.888C944.959 175.275 945.541 175.968 946.703 175.968C947.301 175.968 947.781 175.776 948.143 175.392C948.506 174.997 948.687 174.416 948.687 173.648V169.392H951.183ZM957.656 178.128C956.738 178.128 955.912 177.941 955.176 177.568C954.45 177.184 953.88 176.656 953.464 175.984C953.058 175.312 952.856 174.549 952.856 173.696C952.856 172.843 953.058 172.08 953.464 171.408C953.88 170.736 954.45 170.213 955.176 169.84C955.912 169.456 956.738 169.264 957.656 169.264C958.562 169.264 959.352 169.456 960.024 169.84C960.706 170.213 961.202 170.752 961.512 171.456L959.576 172.496C959.128 171.707 958.482 171.312 957.64 171.312C956.989 171.312 956.45 171.525 956.024 171.952C955.597 172.379 955.384 172.96 955.384 173.696C955.384 174.432 955.597 175.013 956.024 175.44C956.45 175.867 956.989 176.08 957.64 176.08C958.493 176.08 959.138 175.685 959.576 174.896L961.512 175.952C961.202 176.635 960.706 177.168 960.024 177.552C959.352 177.936 958.562 178.128 957.656 178.128ZM968.626 177.584C968.381 177.765 968.077 177.904 967.714 178C967.362 178.085 966.989 178.128 966.594 178.128C965.57 178.128 964.775 177.867 964.21 177.344C963.655 176.821 963.378 176.053 963.378 175.04V171.504H962.05V169.584H963.378V167.488H965.874V169.584H968.018V171.504H965.874V175.008C965.874 175.371 965.965 175.653 966.146 175.856C966.338 176.048 966.605 176.144 966.946 176.144C967.341 176.144 967.677 176.037 967.954 175.824L968.626 177.584ZM972.923 178.128C972.208 178.128 971.51 178.043 970.827 177.872C970.144 177.691 969.6 177.467 969.195 177.2L970.027 175.408C970.411 175.653 970.875 175.856 971.419 176.016C971.963 176.165 972.496 176.24 973.019 176.24C974.075 176.24 974.603 175.979 974.603 175.456C974.603 175.211 974.459 175.035 974.171 174.928C973.883 174.821 973.44 174.731 972.843 174.656C972.139 174.549 971.558 174.427 971.099 174.288C970.64 174.149 970.24 173.904 969.899 173.552C969.568 173.2 969.403 172.699 969.403 172.048C969.403 171.504 969.558 171.024 969.867 170.608C970.187 170.181 970.646 169.851 971.243 169.616C971.851 169.381 972.566 169.264 973.387 169.264C973.995 169.264 974.598 169.333 975.195 169.472C975.803 169.6 976.304 169.781 976.699 170.016L975.867 171.792C975.11 171.365 974.283 171.152 973.387 171.152C972.854 171.152 972.454 171.227 972.187 171.376C971.92 171.525 971.787 171.717 971.787 171.952C971.787 172.219 971.931 172.405 972.219 172.512C972.507 172.619 972.966 172.72 973.595 172.816C974.299 172.933 974.875 173.061 975.323 173.2C975.771 173.328 976.16 173.568 976.491 173.92C976.822 174.272 976.987 174.763 976.987 175.392C976.987 175.925 976.827 176.4 976.507 176.816C976.187 177.232 975.718 177.557 975.099 177.792C974.491 178.016 973.766 178.128 972.923 178.128Z" fill="#833177"/>
</svg>
