<svg width="263" height="670" viewBox="0 0 263 670" fill="none" xmlns="http://www.w3.org/2000/svg">
<path d="M42.958 214.62C42.4047 214.62 41.8947 214.533 41.428 214.36C40.968 214.18 40.5647 213.927 40.218 213.6C39.878 213.273 39.6114 212.89 39.418 212.45C39.2314 212.01 39.138 211.527 39.138 211C39.138 210.473 39.2314 209.99 39.418 209.55C39.6114 209.11 39.8814 208.727 40.228 208.4C40.5747 208.073 40.9814 207.823 41.448 207.65C41.9147 207.47 42.428 207.38 42.988 207.38C43.608 207.38 44.1647 207.483 44.658 207.69C45.158 207.897 45.578 208.197 45.918 208.59L44.878 209.55C44.6247 209.283 44.348 209.087 44.048 208.96C43.748 208.827 43.4214 208.76 43.068 208.76C42.728 208.76 42.418 208.813 42.138 208.92C41.858 209.027 41.6147 209.18 41.408 209.38C41.208 209.58 41.0514 209.817 40.938 210.09C40.8314 210.363 40.778 210.667 40.778 211C40.778 211.327 40.8314 211.627 40.938 211.9C41.0514 212.173 41.208 212.413 41.408 212.62C41.6147 212.82 41.8547 212.973 42.128 213.08C42.408 213.187 42.7147 213.24 43.048 213.24C43.368 213.24 43.678 213.19 43.978 213.09C44.2847 212.983 44.5814 212.807 44.868 212.56L45.788 213.73C45.408 214.017 44.9647 214.237 44.458 214.39C43.958 214.543 43.458 214.62 42.958 214.62ZM44.308 213.52V210.89H45.788V213.73L44.308 213.52ZM47.2929 214.5V207.5H48.9129V213.18H52.4229V214.5H47.2929ZM56.3502 214.62C55.3568 214.62 54.5802 214.343 54.0202 213.79C53.4602 213.237 53.1802 212.447 53.1802 211.42V207.5H54.8002V211.36C54.8002 212.027 54.9368 212.507 55.2102 212.8C55.4835 213.093 55.8668 213.24 56.3602 213.24C56.8535 213.24 57.2368 213.093 57.5102 212.8C57.7835 212.507 57.9202 212.027 57.9202 211.36V207.5H59.5202V211.42C59.5202 212.447 59.2402 213.237 58.6802 213.79C58.1202 214.343 57.3435 214.62 56.3502 214.62ZM62.611 210.32H65.981V211.58H62.611V210.32ZM62.731 213.2H66.541V214.5H61.121V207.5H66.411V208.8H62.731V213.2ZM34.5613 227.58C34.0546 227.58 33.5979 227.467 33.1913 227.24C32.7846 227.007 32.4613 226.683 32.2213 226.27C31.9879 225.857 31.8713 225.37 31.8713 224.81C31.8713 224.243 31.9879 223.753 32.2213 223.34C32.4613 222.927 32.7846 222.607 33.1913 222.38C33.5979 222.153 34.0546 222.04 34.5613 222.04C35.0146 222.04 35.4113 222.14 35.7513 222.34C36.0913 222.54 36.3546 222.843 36.5413 223.25C36.7279 223.657 36.8213 224.177 36.8213 224.81C36.8213 225.437 36.7313 225.957 36.5513 226.37C36.3713 226.777 36.1113 227.08 35.7713 227.28C35.4379 227.48 35.0346 227.58 34.5613 227.58ZM34.8313 226.3C35.0846 226.3 35.3146 226.24 35.5213 226.12C35.7279 226 35.8913 225.83 36.0113 225.61C36.1379 225.383 36.2013 225.117 36.2013 224.81C36.2013 224.497 36.1379 224.23 36.0113 224.01C35.8913 223.79 35.7279 223.62 35.5213 223.5C35.3146 223.38 35.0846 223.32 34.8313 223.32C34.5713 223.32 34.3379 223.38 34.1313 223.5C33.9246 223.62 33.7579 223.79 33.6313 224.01C33.5113 224.23 33.4513 224.497 33.4513 224.81C33.4513 225.117 33.5113 225.383 33.6313 225.61C33.7579 225.83 33.9246 226 34.1313 226.12C34.3379 226.24 34.5713 226.3 34.8313 226.3ZM36.2413 227.5V226.4L36.2713 224.8L36.1713 223.21V220.08H37.7313V227.5H36.2413ZM41.8451 227.58C41.2317 227.58 40.6917 227.46 40.2251 227.22C39.7651 226.98 39.4084 226.653 39.1551 226.24C38.9017 225.82 38.7751 225.343 38.7751 224.81C38.7751 224.27 38.8984 223.793 39.1451 223.38C39.3984 222.96 39.7417 222.633 40.1751 222.4C40.6084 222.16 41.0984 222.04 41.6451 222.04C42.1717 222.04 42.6451 222.153 43.0651 222.38C43.4917 222.6 43.8284 222.92 44.0751 223.34C44.3217 223.753 44.4451 224.25 44.4451 224.83C44.4451 224.89 44.4417 224.96 44.4351 225.04C44.4284 225.113 44.4217 225.183 44.4151 225.25H40.0451V224.34H43.5951L42.9951 224.61C42.9951 224.33 42.9384 224.087 42.8251 223.88C42.7117 223.673 42.5551 223.513 42.3551 223.4C42.1551 223.28 41.9217 223.22 41.6551 223.22C41.3884 223.22 41.1517 223.28 40.9451 223.4C40.7451 223.513 40.5884 223.677 40.4751 223.89C40.3617 224.097 40.3051 224.343 40.3051 224.63V224.87C40.3051 225.163 40.3684 225.423 40.4951 225.65C40.6284 225.87 40.8117 226.04 41.0451 226.16C41.2851 226.273 41.5651 226.33 41.8851 226.33C42.1717 226.33 42.4217 226.287 42.6351 226.2C42.8551 226.113 43.0551 225.983 43.2351 225.81L44.0651 226.71C43.8184 226.99 43.5084 227.207 43.1351 227.36C42.7617 227.507 42.3317 227.58 41.8451 227.58ZM47.2937 227.58C46.8337 227.58 46.3903 227.527 45.9637 227.42C45.5437 227.307 45.2103 227.167 44.9637 227L45.4837 225.88C45.7303 226.033 46.0203 226.16 46.3537 226.26C46.6937 226.353 47.027 226.4 47.3537 226.4C47.7137 226.4 47.967 226.357 48.1137 226.27C48.267 226.183 48.3437 226.063 48.3437 225.91C48.3437 225.783 48.2837 225.69 48.1637 225.63C48.0503 225.563 47.897 225.513 47.7037 225.48C47.5103 225.447 47.297 225.413 47.0637 225.38C46.837 225.347 46.607 225.303 46.3737 225.25C46.1403 225.19 45.927 225.103 45.7337 224.99C45.5403 224.877 45.3837 224.723 45.2637 224.53C45.1503 224.337 45.0937 224.087 45.0937 223.78C45.0937 223.44 45.1903 223.14 45.3837 222.88C45.5837 222.62 45.8703 222.417 46.2437 222.27C46.617 222.117 47.0637 222.04 47.5837 222.04C47.9503 222.04 48.3237 222.08 48.7037 222.16C49.0837 222.24 49.4003 222.357 49.6537 222.51L49.1337 223.62C48.8737 223.467 48.6103 223.363 48.3437 223.31C48.0837 223.25 47.8303 223.22 47.5837 223.22C47.237 223.22 46.9837 223.267 46.8237 223.36C46.6637 223.453 46.5837 223.573 46.5837 223.72C46.5837 223.853 46.6403 223.953 46.7537 224.02C46.8737 224.087 47.0303 224.14 47.2237 224.18C47.417 224.22 47.627 224.257 47.8537 224.29C48.087 224.317 48.3203 224.36 48.5537 224.42C48.787 224.48 48.997 224.567 49.1837 224.68C49.377 224.787 49.5337 224.937 49.6537 225.13C49.7737 225.317 49.8337 225.563 49.8337 225.87C49.8337 226.203 49.7337 226.5 49.5337 226.76C49.3337 227.013 49.0437 227.213 48.6637 227.36C48.2903 227.507 47.8337 227.58 47.2937 227.58ZM50.7962 227.5V222.12H52.3562V227.5H50.7962ZM51.5762 221.37C51.2895 221.37 51.0562 221.287 50.8762 221.12C50.6962 220.953 50.6062 220.747 50.6062 220.5C50.6062 220.253 50.6962 220.047 50.8762 219.88C51.0562 219.713 51.2895 219.63 51.5762 219.63C51.8628 219.63 52.0962 219.71 52.2762 219.87C52.4562 220.023 52.5462 220.223 52.5462 220.47C52.5462 220.73 52.4562 220.947 52.2762 221.12C52.1028 221.287 51.8695 221.37 51.5762 221.37ZM56.334 229.52C55.8273 229.52 55.3373 229.457 54.864 229.33C54.3973 229.21 54.0073 229.027 53.694 228.78L54.314 227.66C54.5407 227.847 54.8273 227.993 55.174 228.1C55.5273 228.213 55.874 228.27 56.214 228.27C56.7673 228.27 57.1673 228.147 57.414 227.9C57.6673 227.653 57.794 227.287 57.794 226.8V225.99L57.894 224.64L57.874 223.28V222.12H59.354V226.6C59.354 227.6 59.094 228.337 58.574 228.81C58.054 229.283 57.3073 229.52 56.334 229.52ZM56.094 227.24C55.594 227.24 55.1407 227.133 54.734 226.92C54.334 226.7 54.0107 226.397 53.764 226.01C53.524 225.617 53.404 225.16 53.404 224.64C53.404 224.113 53.524 223.657 53.764 223.27C54.0107 222.877 54.334 222.573 54.734 222.36C55.1407 222.147 55.594 222.04 56.094 222.04C56.5473 222.04 56.9473 222.133 57.294 222.32C57.6407 222.5 57.9107 222.783 58.104 223.17C58.2973 223.55 58.394 224.04 58.394 224.64C58.394 225.233 58.2973 225.723 58.104 226.11C57.9107 226.49 57.6407 226.773 57.294 226.96C56.9473 227.147 56.5473 227.24 56.094 227.24ZM56.404 225.96C56.6773 225.96 56.9207 225.907 57.134 225.8C57.3473 225.687 57.514 225.53 57.634 225.33C57.754 225.13 57.814 224.9 57.814 224.64C57.814 224.373 57.754 224.143 57.634 223.95C57.514 223.75 57.3473 223.597 57.134 223.49C56.9207 223.377 56.6773 223.32 56.404 223.32C56.1307 223.32 55.8873 223.377 55.674 223.49C55.4607 223.597 55.2907 223.75 55.164 223.95C55.044 224.143 54.984 224.373 54.984 224.64C54.984 224.9 55.044 225.13 55.164 225.33C55.2907 225.53 55.4607 225.687 55.674 225.8C55.8873 225.907 56.1307 225.96 56.404 225.96ZM64.0759 222.04C64.5026 222.04 64.8826 222.127 65.2159 222.3C65.5559 222.467 65.8226 222.727 66.0159 223.08C66.2093 223.427 66.3059 223.873 66.3059 224.42V227.5H64.7459V224.66C64.7459 224.227 64.6493 223.907 64.4559 223.7C64.2693 223.493 64.0026 223.39 63.6559 223.39C63.4093 223.39 63.1859 223.443 62.9859 223.55C62.7926 223.65 62.6393 223.807 62.5259 224.02C62.4193 224.233 62.3659 224.507 62.3659 224.84V227.5H60.8059V222.12H62.2959V223.61L62.0159 223.16C62.2093 222.8 62.4859 222.523 62.8459 222.33C63.2059 222.137 63.6159 222.04 64.0759 222.04ZM34.2825 240.5V233.08H35.8425V240.5H34.2825ZM37.2903 240.5V235.12H38.8503V240.5H37.2903ZM38.0703 234.37C37.7836 234.37 37.5503 234.287 37.3703 234.12C37.1903 233.953 37.1003 233.747 37.1003 233.5C37.1003 233.253 37.1903 233.047 37.3703 232.88C37.5503 232.713 37.7836 232.63 38.0703 232.63C38.357 232.63 38.5903 232.71 38.7703 232.87C38.9503 233.023 39.0403 233.223 39.0403 233.47C39.0403 233.73 38.9503 233.947 38.7703 234.12C38.597 234.287 38.3636 234.37 38.0703 234.37ZM43.4781 240.58C43.0048 240.58 42.5981 240.48 42.2581 240.28C41.9181 240.08 41.6581 239.777 41.4781 239.37C41.2981 238.957 41.2081 238.437 41.2081 237.81C41.2081 237.177 41.3015 236.657 41.4881 236.25C41.6815 235.843 41.9481 235.54 42.2881 235.34C42.6281 235.14 43.0248 235.04 43.4781 235.04C43.9848 235.04 44.4381 235.153 44.8381 235.38C45.2448 235.607 45.5648 235.927 45.7981 236.34C46.0381 236.753 46.1581 237.243 46.1581 237.81C46.1581 238.37 46.0381 238.857 45.7981 239.27C45.5648 239.683 45.2448 240.007 44.8381 240.24C44.4381 240.467 43.9848 240.58 43.4781 240.58ZM40.2981 240.5V233.08H41.8581V236.21L41.7581 237.8L41.7881 239.4V240.5H40.2981ZM43.2081 239.3C43.4681 239.3 43.6981 239.24 43.8981 239.12C44.1048 239 44.2681 238.83 44.3881 238.61C44.5148 238.383 44.5781 238.117 44.5781 237.81C44.5781 237.497 44.5148 237.23 44.3881 237.01C44.2681 236.79 44.1048 236.62 43.8981 236.5C43.6981 236.38 43.4681 236.32 43.2081 236.32C42.9481 236.32 42.7148 236.38 42.5081 236.5C42.3015 236.62 42.1381 236.79 42.0181 237.01C41.8981 237.23 41.8381 237.497 41.8381 237.81C41.8381 238.117 41.8981 238.383 42.0181 238.61C42.1381 238.83 42.3015 239 42.5081 239.12C42.7148 239.24 42.9481 239.3 43.2081 239.3ZM47.2024 240.5V235.12H48.6924V236.64L48.4824 236.2C48.6424 235.82 48.8991 235.533 49.2524 235.34C49.6058 235.14 50.0358 235.04 50.5424 235.04V236.48C50.4758 236.473 50.4158 236.47 50.3624 236.47C50.3091 236.463 50.2524 236.46 50.1924 236.46C49.7658 236.46 49.4191 236.583 49.1524 236.83C48.8924 237.07 48.7624 237.447 48.7624 237.96V240.5H47.2024ZM54.4184 240.5V239.45L54.3184 239.22V237.34C54.3184 237.007 54.2151 236.747 54.0084 236.56C53.8084 236.373 53.4984 236.28 53.0784 236.28C52.7918 236.28 52.5084 236.327 52.2284 236.42C51.9551 236.507 51.7218 236.627 51.5284 236.78L50.9684 235.69C51.2618 235.483 51.6151 235.323 52.0284 235.21C52.4418 235.097 52.8618 235.04 53.2884 235.04C54.1084 235.04 54.7451 235.233 55.1984 235.62C55.6518 236.007 55.8784 236.61 55.8784 237.43V240.5H54.4184ZM52.7784 240.58C52.3584 240.58 51.9984 240.51 51.6984 240.37C51.3984 240.223 51.1684 240.027 51.0084 239.78C50.8484 239.533 50.7684 239.257 50.7684 238.95C50.7684 238.63 50.8451 238.35 50.9984 238.11C51.1584 237.87 51.4084 237.683 51.7484 237.55C52.0884 237.41 52.5318 237.34 53.0784 237.34H54.5084V238.25H53.2484C52.8818 238.25 52.6284 238.31 52.4884 238.43C52.3551 238.55 52.2884 238.7 52.2884 238.88C52.2884 239.08 52.3651 239.24 52.5184 239.36C52.6784 239.473 52.8951 239.53 53.1684 239.53C53.4284 239.53 53.6618 239.47 53.8684 239.35C54.0751 239.223 54.2251 239.04 54.3184 238.8L54.5584 239.52C54.4451 239.867 54.2384 240.13 53.9384 240.31C53.6384 240.49 53.2518 240.58 52.7784 240.58ZM57.2903 240.5V235.12H58.7803V236.64L58.5703 236.2C58.7303 235.82 58.987 235.533 59.3403 235.34C59.6936 235.14 60.1236 235.04 60.6303 235.04V236.48C60.5636 236.473 60.5036 236.47 60.4503 236.47C60.397 236.463 60.3403 236.46 60.2803 236.46C59.8536 236.46 59.507 236.583 59.2403 236.83C58.9803 237.07 58.8503 237.447 58.8503 237.96V240.5H57.2903ZM62.4234 242.52C62.1434 242.52 61.8668 242.477 61.5934 242.39C61.3201 242.303 61.0968 242.183 60.9234 242.03L61.4934 240.92C61.6134 241.027 61.7501 241.11 61.9034 241.17C62.0634 241.23 62.2201 241.26 62.3734 241.26C62.5934 241.26 62.7668 241.207 62.8934 241.1C63.0268 241 63.1468 240.83 63.2534 240.59L63.5334 239.93L63.6534 239.76L65.5834 235.12H67.0834L64.6534 240.83C64.4801 241.263 64.2801 241.603 64.0534 241.85C63.8334 242.097 63.5868 242.27 63.3134 242.37C63.0468 242.47 62.7501 242.52 62.4234 242.52ZM63.3434 240.71L60.9434 235.12H62.5534L64.4134 239.62L63.3434 240.71Z" fill="#833177"/>
<path d="M72 2L82 2" stroke="#833177" stroke-width="4" stroke-linecap="round"/>
<path d="M77 446L77 2.00001" stroke="#833177" stroke-width="4" stroke-linecap="round"/>
<path d="M72 446H82" stroke="#833177" stroke-width="4" stroke-linecap="round"/>
<path d="M43.0716 554V546.58H44.6316V554H43.0716ZM48.6394 554.08C48.066 554.08 47.556 553.96 47.1094 553.72C46.6694 553.48 46.3194 553.153 46.0594 552.74C45.806 552.32 45.6794 551.843 45.6794 551.31C45.6794 550.77 45.806 550.293 46.0594 549.88C46.3194 549.46 46.6694 549.133 47.1094 548.9C47.556 548.66 48.066 548.54 48.6394 548.54C49.206 548.54 49.7127 548.66 50.1594 548.9C50.606 549.133 50.956 549.457 51.2094 549.87C51.4627 550.283 51.5894 550.763 51.5894 551.31C51.5894 551.843 51.4627 552.32 51.2094 552.74C50.956 553.153 50.606 553.48 50.1594 553.72C49.7127 553.96 49.206 554.08 48.6394 554.08ZM48.6394 552.8C48.8994 552.8 49.1327 552.74 49.3394 552.62C49.546 552.5 49.7094 552.33 49.8294 552.11C49.9494 551.883 50.0094 551.617 50.0094 551.31C50.0094 550.997 49.9494 550.73 49.8294 550.51C49.7094 550.29 49.546 550.12 49.3394 550C49.1327 549.88 48.8994 549.82 48.6394 549.82C48.3794 549.82 48.146 549.88 47.9394 550C47.7327 550.12 47.566 550.29 47.4394 550.51C47.3194 550.73 47.2594 550.997 47.2594 551.31C47.2594 551.617 47.3194 551.883 47.4394 552.11C47.566 552.33 47.7327 552.5 47.9394 552.62C48.146 552.74 48.3794 552.8 48.6394 552.8ZM55.2321 554.08C54.6521 554.08 54.1354 553.963 53.6821 553.73C53.2288 553.49 52.8721 553.16 52.6121 552.74C52.3588 552.32 52.2321 551.843 52.2321 551.31C52.2321 550.77 52.3588 550.293 52.6121 549.88C52.8721 549.46 53.2288 549.133 53.6821 548.9C54.1354 548.66 54.6521 548.54 55.2321 548.54C55.7988 548.54 56.2921 548.66 56.7121 548.9C57.1321 549.133 57.4421 549.47 57.6421 549.91L56.4321 550.56C56.2921 550.307 56.1154 550.12 55.9021 550C55.6954 549.88 55.4688 549.82 55.2221 549.82C54.9554 549.82 54.7154 549.88 54.5021 550C54.2888 550.12 54.1188 550.29 53.9921 550.51C53.8721 550.73 53.8121 550.997 53.8121 551.31C53.8121 551.623 53.8721 551.89 53.9921 552.11C54.1188 552.33 54.2888 552.5 54.5021 552.62C54.7154 552.74 54.9554 552.8 55.2221 552.8C55.4688 552.8 55.6954 552.743 55.9021 552.63C56.1154 552.51 56.2921 552.32 56.4321 552.06L57.6421 552.72C57.4421 553.153 57.1321 553.49 56.7121 553.73C56.2921 553.963 55.7988 554.08 55.2321 554.08ZM61.8403 554V552.95L61.7403 552.72V550.84C61.7403 550.507 61.637 550.247 61.4303 550.06C61.2303 549.873 60.9203 549.78 60.5003 549.78C60.2136 549.78 59.9303 549.827 59.6503 549.92C59.377 550.007 59.1436 550.127 58.9503 550.28L58.3903 549.19C58.6836 548.983 59.037 548.823 59.4503 548.71C59.8636 548.597 60.2836 548.54 60.7103 548.54C61.5303 548.54 62.167 548.733 62.6203 549.12C63.0736 549.507 63.3003 550.11 63.3003 550.93V554H61.8403ZM60.2003 554.08C59.7803 554.08 59.4203 554.01 59.1203 553.87C58.8203 553.723 58.5903 553.527 58.4303 553.28C58.2703 553.033 58.1903 552.757 58.1903 552.45C58.1903 552.13 58.267 551.85 58.4203 551.61C58.5803 551.37 58.8303 551.183 59.1703 551.05C59.5103 550.91 59.9536 550.84 60.5003 550.84H61.9303V551.75H60.6703C60.3036 551.75 60.0503 551.81 59.9103 551.93C59.777 552.05 59.7103 552.2 59.7103 552.38C59.7103 552.58 59.787 552.74 59.9403 552.86C60.1003 552.973 60.317 553.03 60.5903 553.03C60.8503 553.03 61.0836 552.97 61.2903 552.85C61.497 552.723 61.647 552.54 61.7403 552.3L61.9803 553.02C61.867 553.367 61.6603 553.63 61.3603 553.81C61.0603 553.99 60.6736 554.08 60.2003 554.08ZM64.7122 554V546.58H66.2722V554H64.7122ZM4.14813 567.08C3.56813 567.08 3.05146 566.963 2.59813 566.73C2.14479 566.49 1.78813 566.16 1.52813 565.74C1.27479 565.32 1.14813 564.843 1.14813 564.31C1.14813 563.77 1.27479 563.293 1.52813 562.88C1.78813 562.46 2.14479 562.133 2.59813 561.9C3.05146 561.66 3.56813 561.54 4.14813 561.54C4.71479 561.54 5.20813 561.66 5.62813 561.9C6.04813 562.133 6.35813 562.47 6.55813 562.91L5.34813 563.56C5.20813 563.307 5.03146 563.12 4.81813 563C4.61146 562.88 4.38479 562.82 4.13813 562.82C3.87146 562.82 3.63146 562.88 3.41813 563C3.20479 563.12 3.03479 563.29 2.90813 563.51C2.78813 563.73 2.72813 563.997 2.72813 564.31C2.72813 564.623 2.78813 564.89 2.90813 565.11C3.03479 565.33 3.20479 565.5 3.41813 565.62C3.63146 565.74 3.87146 565.8 4.13813 565.8C4.38479 565.8 4.61146 565.743 4.81813 565.63C5.03146 565.51 5.20813 565.32 5.34813 565.06L6.55813 565.72C6.35813 566.153 6.04813 566.49 5.62813 566.73C5.20813 566.963 4.71479 567.08 4.14813 567.08ZM9.94797 567.08C9.37464 567.08 8.86464 566.96 8.41797 566.72C7.97797 566.48 7.62797 566.153 7.36797 565.74C7.11464 565.32 6.98797 564.843 6.98797 564.31C6.98797 563.77 7.11464 563.293 7.36797 562.88C7.62797 562.46 7.97797 562.133 8.41797 561.9C8.86464 561.66 9.37464 561.54 9.94797 561.54C10.5146 561.54 11.0213 561.66 11.468 561.9C11.9146 562.133 12.2646 562.457 12.518 562.87C12.7713 563.283 12.898 563.763 12.898 564.31C12.898 564.843 12.7713 565.32 12.518 565.74C12.2646 566.153 11.9146 566.48 11.468 566.72C11.0213 566.96 10.5146 567.08 9.94797 567.08ZM9.94797 565.8C10.208 565.8 10.4413 565.74 10.648 565.62C10.8546 565.5 11.018 565.33 11.138 565.11C11.258 564.883 11.318 564.617 11.318 564.31C11.318 563.997 11.258 563.73 11.138 563.51C11.018 563.29 10.8546 563.12 10.648 563C10.4413 562.88 10.208 562.82 9.94797 562.82C9.68797 562.82 9.45464 562.88 9.24797 563C9.0413 563.12 8.87464 563.29 8.74797 563.51C8.62797 563.73 8.56797 563.997 8.56797 564.31C8.56797 564.617 8.62797 564.883 8.74797 565.11C8.87464 565.33 9.0413 565.5 9.24797 565.62C9.45464 565.74 9.68797 565.8 9.94797 565.8ZM20.8307 561.54C21.2574 561.54 21.634 561.627 21.9607 561.8C22.294 561.967 22.554 562.227 22.7407 562.58C22.934 562.927 23.0307 563.373 23.0307 563.92V567H21.4707V564.16C21.4707 563.727 21.3807 563.407 21.2007 563.2C21.0207 562.993 20.7674 562.89 20.4407 562.89C20.214 562.89 20.0107 562.943 19.8307 563.05C19.6507 563.15 19.5107 563.303 19.4107 563.51C19.3107 563.717 19.2607 563.98 19.2607 564.3V567H17.7007V564.16C17.7007 563.727 17.6107 563.407 17.4307 563.2C17.2574 562.993 17.0074 562.89 16.6807 562.89C16.454 562.89 16.2507 562.943 16.0707 563.05C15.8907 563.15 15.7507 563.303 15.6507 563.51C15.5507 563.717 15.5007 563.98 15.5007 564.3V567H13.9407V561.62H15.4307V563.09L15.1507 562.66C15.3374 562.293 15.6007 562.017 15.9407 561.83C16.2874 561.637 16.6807 561.54 17.1207 561.54C17.614 561.54 18.044 561.667 18.4107 561.92C18.784 562.167 19.0307 562.547 19.1507 563.06L18.6007 562.91C18.7807 562.49 19.0674 562.157 19.4607 561.91C19.8607 561.663 20.3174 561.54 20.8307 561.54ZM27.609 567.08C27.1557 567.08 26.759 566.98 26.419 566.78C26.079 566.58 25.8123 566.277 25.619 565.87C25.4323 565.457 25.339 564.937 25.339 564.31C25.339 563.677 25.429 563.157 25.609 562.75C25.789 562.343 26.049 562.04 26.389 561.84C26.729 561.64 27.1357 561.54 27.609 561.54C28.1157 561.54 28.569 561.657 28.969 561.89C29.3757 562.117 29.6957 562.437 29.929 562.85C30.169 563.263 30.289 563.75 30.289 564.31C30.289 564.877 30.169 565.367 29.929 565.78C29.6957 566.193 29.3757 566.513 28.969 566.74C28.569 566.967 28.1157 567.08 27.609 567.08ZM24.429 568.94V561.62H25.919V562.72L25.889 564.32L25.989 565.91V568.94H24.429ZM27.339 565.8C27.599 565.8 27.829 565.74 28.029 565.62C28.2357 565.5 28.399 565.33 28.519 565.11C28.6457 564.883 28.709 564.617 28.709 564.31C28.709 563.997 28.6457 563.73 28.519 563.51C28.399 563.29 28.2357 563.12 28.029 563C27.829 562.88 27.599 562.82 27.339 562.82C27.079 562.82 26.8457 562.88 26.639 563C26.4323 563.12 26.269 563.29 26.149 563.51C26.029 563.73 25.969 563.997 25.969 564.31C25.969 564.617 26.029 564.883 26.149 565.11C26.269 565.33 26.4323 565.5 26.639 565.62C26.8457 565.74 27.079 565.8 27.339 565.8ZM33.8933 567.08C33.3199 567.08 32.8099 566.96 32.3633 566.72C31.9233 566.48 31.5733 566.153 31.3133 565.74C31.0599 565.32 30.9333 564.843 30.9333 564.31C30.9333 563.77 31.0599 563.293 31.3133 562.88C31.5733 562.46 31.9233 562.133 32.3633 561.9C32.8099 561.66 33.3199 561.54 33.8933 561.54C34.4599 561.54 34.9666 561.66 35.4133 561.9C35.8599 562.133 36.2099 562.457 36.4633 562.87C36.7166 563.283 36.8433 563.763 36.8433 564.31C36.8433 564.843 36.7166 565.32 36.4633 565.74C36.2099 566.153 35.8599 566.48 35.4133 566.72C34.9666 566.96 34.4599 567.08 33.8933 567.08ZM33.8933 565.8C34.1533 565.8 34.3866 565.74 34.5933 565.62C34.7999 565.5 34.9633 565.33 35.0833 565.11C35.2033 564.883 35.2633 564.617 35.2633 564.31C35.2633 563.997 35.2033 563.73 35.0833 563.51C34.9633 563.29 34.7999 563.12 34.5933 563C34.3866 562.88 34.1533 562.82 33.8933 562.82C33.6333 562.82 33.3999 562.88 33.1933 563C32.9866 563.12 32.8199 563.29 32.6933 563.51C32.5733 563.73 32.5133 563.997 32.5133 564.31C32.5133 564.617 32.5733 564.883 32.6933 565.11C32.8199 565.33 32.9866 565.5 33.1933 565.62C33.3999 565.74 33.6333 565.8 33.8933 565.8ZM41.156 561.54C41.5827 561.54 41.9627 561.627 42.296 561.8C42.636 561.967 42.9027 562.227 43.096 562.58C43.2893 562.927 43.386 563.373 43.386 563.92V567H41.826V564.16C41.826 563.727 41.7293 563.407 41.536 563.2C41.3493 562.993 41.0827 562.89 40.736 562.89C40.4893 562.89 40.266 562.943 40.066 563.05C39.8727 563.15 39.7193 563.307 39.606 563.52C39.4993 563.733 39.446 564.007 39.446 564.34V567H37.886V561.62H39.376V563.11L39.096 562.66C39.2893 562.3 39.566 562.023 39.926 561.83C40.286 561.637 40.696 561.54 41.156 561.54ZM47.5091 567.08C46.8958 567.08 46.3558 566.96 45.8891 566.72C45.4291 566.48 45.0725 566.153 44.8191 565.74C44.5658 565.32 44.4391 564.843 44.4391 564.31C44.4391 563.77 44.5625 563.293 44.8091 562.88C45.0625 562.46 45.4058 562.133 45.8391 561.9C46.2725 561.66 46.7625 561.54 47.3091 561.54C47.8358 561.54 48.3091 561.653 48.7291 561.88C49.1558 562.1 49.4925 562.42 49.7391 562.84C49.9858 563.253 50.1091 563.75 50.1091 564.33C50.1091 564.39 50.1058 564.46 50.0991 564.54C50.0925 564.613 50.0858 564.683 50.0791 564.75H45.7091V563.84H49.2591L48.6591 564.11C48.6591 563.83 48.6025 563.587 48.4891 563.38C48.3758 563.173 48.2191 563.013 48.0191 562.9C47.8191 562.78 47.5858 562.72 47.3191 562.72C47.0525 562.72 46.8158 562.78 46.6091 562.9C46.4091 563.013 46.2525 563.177 46.1391 563.39C46.0258 563.597 45.9691 563.843 45.9691 564.13V564.37C45.9691 564.663 46.0325 564.923 46.1591 565.15C46.2925 565.37 46.4758 565.54 46.7091 565.66C46.9491 565.773 47.2291 565.83 47.5491 565.83C47.8358 565.83 48.0858 565.787 48.2991 565.7C48.5191 565.613 48.7191 565.483 48.8991 565.31L49.7291 566.21C49.4825 566.49 49.1725 566.707 48.7991 566.86C48.4258 567.007 47.9958 567.08 47.5091 567.08ZM54.4177 561.54C54.8444 561.54 55.2244 561.627 55.5577 561.8C55.8977 561.967 56.1644 562.227 56.3577 562.58C56.5511 562.927 56.6477 563.373 56.6477 563.92V567H55.0877V564.16C55.0877 563.727 54.9911 563.407 54.7977 563.2C54.6111 562.993 54.3444 562.89 53.9977 562.89C53.7511 562.89 53.5277 562.943 53.3277 563.05C53.1344 563.15 52.9811 563.307 52.8677 563.52C52.7611 563.733 52.7077 564.007 52.7077 564.34V567H51.1477V561.62H52.6377V563.11L52.3577 562.66C52.5511 562.3 52.8277 562.023 53.1877 561.83C53.5477 561.637 53.9577 561.54 54.4177 561.54ZM60.2618 567.08C59.6285 567.08 59.1351 566.92 58.7818 566.6C58.4285 566.273 58.2518 565.79 58.2518 565.15V560.43H59.8118V565.13C59.8118 565.357 59.8718 565.533 59.9918 565.66C60.1118 565.78 60.2751 565.84 60.4818 565.84C60.7285 565.84 60.9385 565.773 61.1118 565.64L61.5318 566.74C61.3718 566.853 61.1785 566.94 60.9518 567C60.7318 567.053 60.5018 567.08 60.2618 567.08ZM57.4218 562.94V561.74H61.1518V562.94H57.4218ZM64.2175 567.08C63.7575 567.08 63.3142 567.027 62.8875 566.92C62.4675 566.807 62.1342 566.667 61.8875 566.5L62.4075 565.38C62.6542 565.533 62.9442 565.66 63.2775 565.76C63.6175 565.853 63.9508 565.9 64.2775 565.9C64.6375 565.9 64.8908 565.857 65.0375 565.77C65.1908 565.683 65.2675 565.563 65.2675 565.41C65.2675 565.283 65.2075 565.19 65.0875 565.13C64.9742 565.063 64.8208 565.013 64.6275 564.98C64.4342 564.947 64.2208 564.913 63.9875 564.88C63.7608 564.847 63.5308 564.803 63.2975 564.75C63.0642 564.69 62.8508 564.603 62.6575 564.49C62.4642 564.377 62.3075 564.223 62.1875 564.03C62.0742 563.837 62.0175 563.587 62.0175 563.28C62.0175 562.94 62.1142 562.64 62.3075 562.38C62.5075 562.12 62.7942 561.917 63.1675 561.77C63.5408 561.617 63.9875 561.54 64.5075 561.54C64.8742 561.54 65.2475 561.58 65.6275 561.66C66.0075 561.74 66.3242 561.857 66.5775 562.01L66.0575 563.12C65.7975 562.967 65.5342 562.863 65.2675 562.81C65.0075 562.75 64.7542 562.72 64.5075 562.72C64.1608 562.72 63.9075 562.767 63.7475 562.86C63.5875 562.953 63.5075 563.073 63.5075 563.22C63.5075 563.353 63.5642 563.453 63.6775 563.52C63.7975 563.587 63.9542 563.64 64.1475 563.68C64.3408 563.72 64.5508 563.757 64.7775 563.79C65.0108 563.817 65.2442 563.86 65.4775 563.92C65.7108 563.98 65.9208 564.067 66.1075 564.18C66.3008 564.287 66.4575 564.437 66.5775 564.63C66.6975 564.817 66.7575 565.063 66.7575 565.37C66.7575 565.703 66.6575 566 66.4575 566.26C66.2575 566.513 65.9675 566.713 65.5875 566.86C65.2142 567.007 64.7575 567.08 64.2175 567.08Z" fill="#833177"/>
<path d="M72 446H82" stroke="#833177" stroke-width="4" stroke-linecap="round"/>
<path d="M77 668L77 446" stroke="#833177" stroke-width="4" stroke-linecap="round"/>
<path d="M72 668H82" stroke="#833177" stroke-width="4" stroke-linecap="round"/>
<path d="M128.996 29V20.6H130.94V29H128.996ZM137.974 29.144C137.31 29.144 136.694 29.036 136.126 28.82C135.566 28.604 135.078 28.3 134.662 27.908C134.254 27.516 133.934 27.056 133.702 26.528C133.478 26 133.366 25.424 133.366 24.8C133.366 24.176 133.478 23.6 133.702 23.072C133.934 22.544 134.258 22.084 134.674 21.692C135.09 21.3 135.578 20.996 136.138 20.78C136.698 20.564 137.306 20.456 137.962 20.456C138.626 20.456 139.234 20.564 139.786 20.78C140.346 20.996 140.83 21.3 141.238 21.692C141.654 22.084 141.978 22.544 142.21 23.072C142.442 23.592 142.558 24.168 142.558 24.8C142.558 25.424 142.442 26.004 142.21 26.54C141.978 27.068 141.654 27.528 141.238 27.92C140.83 28.304 140.346 28.604 139.786 28.82C139.234 29.036 138.63 29.144 137.974 29.144ZM137.962 27.488C138.338 27.488 138.682 27.424 138.994 27.296C139.314 27.168 139.594 26.984 139.834 26.744C140.074 26.504 140.258 26.22 140.386 25.892C140.522 25.564 140.59 25.2 140.59 24.8C140.59 24.4 140.522 24.036 140.386 23.708C140.258 23.38 140.074 23.096 139.834 22.856C139.602 22.616 139.326 22.432 139.006 22.304C138.686 22.176 138.338 22.112 137.962 22.112C137.586 22.112 137.238 22.176 136.918 22.304C136.606 22.432 136.33 22.616 136.09 22.856C135.85 23.096 135.662 23.38 135.526 23.708C135.398 24.036 135.334 24.4 135.334 24.8C135.334 25.192 135.398 25.556 135.526 25.892C135.662 26.22 135.846 26.504 136.078 26.744C136.318 26.984 136.598 27.168 136.918 27.296C137.238 27.424 137.586 27.488 137.962 27.488ZM144.979 29V20.6H146.587L151.543 26.648H150.763V20.6H152.683V29H151.087L146.119 22.952H146.899V29H144.979Z" fill="#333333"/>
<mask id="mask0_1210_17580" style="mask-type:alpha" maskUnits="userSpaceOnUse" x="118" y="45" width="46" height="46">
<rect x="118.5" y="45.5" width="45" height="45" fill="#D9D9D9"/>
</mask>
<g mask="url(#mask0_1210_17580)">
<path d="M129.75 82.9995C128.719 82.9995 127.836 82.6323 127.102 81.8979C126.367 81.1636 126 80.2808 126 79.2495C126 78.2183 126.367 77.3355 127.102 76.6011C127.836 75.8667 128.719 75.4995 129.75 75.4995C130.781 75.4995 131.664 75.8667 132.398 76.6011C133.133 77.3355 133.5 78.2183 133.5 79.2495C133.5 80.2808 133.133 81.1636 132.398 81.8979C131.664 82.6323 130.781 82.9995 129.75 82.9995ZM141 82.9995C139.969 82.9995 139.086 82.6323 138.352 81.8979C137.617 81.1636 137.25 80.2808 137.25 79.2495C137.25 78.2183 137.617 77.3355 138.352 76.6011C139.086 75.8667 139.969 75.4995 141 75.4995C142.031 75.4995 142.914 75.8667 143.648 76.6011C144.383 77.3355 144.75 78.2183 144.75 79.2495C144.75 80.2808 144.383 81.1636 143.648 81.8979C142.914 82.6323 142.031 82.9995 141 82.9995ZM152.25 82.9995C151.219 82.9995 150.336 82.6323 149.602 81.8979C148.867 81.1636 148.5 80.2808 148.5 79.2495C148.5 78.2183 148.867 77.3355 149.602 76.6011C150.336 75.8667 151.219 75.4995 152.25 75.4995C153.281 75.4995 154.164 75.8667 154.898 76.6011C155.633 77.3355 156 78.2183 156 79.2495C156 80.2808 155.633 81.1636 154.898 81.8979C154.164 82.6323 153.281 82.9995 152.25 82.9995ZM129.75 71.7495C128.719 71.7495 127.836 71.3823 127.102 70.6479C126.367 69.9136 126 69.0308 126 67.9995C126 66.9683 126.367 66.0854 127.102 65.3511C127.836 64.6167 128.719 64.2495 129.75 64.2495C130.781 64.2495 131.664 64.6167 132.398 65.3511C133.133 66.0854 133.5 66.9683 133.5 67.9995C133.5 69.0308 133.133 69.9136 132.398 70.6479C131.664 71.3823 130.781 71.7495 129.75 71.7495ZM141 71.7495C139.969 71.7495 139.086 71.3823 138.352 70.6479C137.617 69.9136 137.25 69.0308 137.25 67.9995C137.25 66.9683 137.617 66.0854 138.352 65.3511C139.086 64.6167 139.969 64.2495 141 64.2495C142.031 64.2495 142.914 64.6167 143.648 65.3511C144.383 66.0854 144.75 66.9683 144.75 67.9995C144.75 69.0308 144.383 69.9136 143.648 70.6479C142.914 71.3823 142.031 71.7495 141 71.7495ZM152.25 71.7495C151.219 71.7495 150.336 71.3823 149.602 70.6479C148.867 69.9136 148.5 69.0308 148.5 67.9995C148.5 66.9683 148.867 66.0854 149.602 65.3511C150.336 64.6167 151.219 64.2495 152.25 64.2495C153.281 64.2495 154.164 64.6167 154.898 65.3511C155.633 66.0854 156 66.9683 156 67.9995C156 69.0308 155.633 69.9136 154.898 70.6479C154.164 71.3823 153.281 71.7495 152.25 71.7495ZM129.75 60.4995C128.719 60.4995 127.836 60.1323 127.102 59.3979C126.367 58.6636 126 57.7808 126 56.7495C126 55.7183 126.367 54.8354 127.102 54.1011C127.836 53.3667 128.719 52.9995 129.75 52.9995C130.781 52.9995 131.664 53.3667 132.398 54.1011C133.133 54.8354 133.5 55.7183 133.5 56.7495C133.5 57.7808 133.133 58.6636 132.398 59.3979C131.664 60.1323 130.781 60.4995 129.75 60.4995ZM141 60.4995C139.969 60.4995 139.086 60.1323 138.352 59.3979C137.617 58.6636 137.25 57.7808 137.25 56.7495C137.25 55.7183 137.617 54.8354 138.352 54.1011C139.086 53.3667 139.969 52.9995 141 52.9995C142.031 52.9995 142.914 53.3667 143.648 54.1011C144.383 54.8354 144.75 55.7183 144.75 56.7495C144.75 57.7808 144.383 58.6636 143.648 59.3979C142.914 60.1323 142.031 60.4995 141 60.4995ZM152.25 60.4995C151.219 60.4995 150.336 60.1323 149.602 59.3979C148.867 58.6636 148.5 57.7808 148.5 56.7495C148.5 55.7183 148.867 54.8354 149.602 54.1011C150.336 53.3667 151.219 52.9995 152.25 52.9995C153.281 52.9995 154.164 53.3667 154.898 54.1011C155.633 54.8354 156 55.7183 156 56.7495C156 57.7808 155.633 58.6636 154.898 59.3979C154.164 60.1323 153.281 60.4995 152.25 60.4995Z" fill="#833177"/>
</g>
<path d="M120.392 140L124.136 131.6H126.056L129.812 140H127.772L124.7 132.584H125.468L122.384 140H120.392ZM122.264 138.2L122.78 136.724H127.1L127.628 138.2H122.264ZM132.962 140V133.184H130.274V131.6H137.594V133.184H134.906V140H132.962ZM143.562 140.144C142.898 140.144 142.282 140.036 141.714 139.82C141.154 139.604 140.666 139.3 140.25 138.908C139.842 138.516 139.522 138.056 139.29 137.528C139.066 137 138.954 136.424 138.954 135.8C138.954 135.176 139.066 134.6 139.29 134.072C139.522 133.544 139.846 133.084 140.262 132.692C140.678 132.3 141.166 131.996 141.726 131.78C142.286 131.564 142.894 131.456 143.55 131.456C144.214 131.456 144.822 131.564 145.374 131.78C145.934 131.996 146.418 132.3 146.826 132.692C147.242 133.084 147.566 133.544 147.798 134.072C148.03 134.592 148.146 135.168 148.146 135.8C148.146 136.424 148.03 137.004 147.798 137.54C147.566 138.068 147.242 138.528 146.826 138.92C146.418 139.304 145.934 139.604 145.374 139.82C144.822 140.036 144.218 140.144 143.562 140.144ZM143.55 138.488C143.926 138.488 144.27 138.424 144.582 138.296C144.902 138.168 145.182 137.984 145.422 137.744C145.662 137.504 145.846 137.22 145.974 136.892C146.11 136.564 146.178 136.2 146.178 135.8C146.178 135.4 146.11 135.036 145.974 134.708C145.846 134.38 145.662 134.096 145.422 133.856C145.19 133.616 144.914 133.432 144.594 133.304C144.274 133.176 143.926 133.112 143.55 133.112C143.174 133.112 142.826 133.176 142.506 133.304C142.194 133.432 141.918 133.616 141.678 133.856C141.438 134.096 141.25 134.38 141.114 134.708C140.986 135.036 140.922 135.4 140.922 135.8C140.922 136.192 140.986 136.556 141.114 136.892C141.25 137.22 141.434 137.504 141.666 137.744C141.906 137.984 142.186 138.168 142.506 138.296C142.826 138.424 143.174 138.488 143.55 138.488ZM150.567 140V131.6H152.175L155.751 137.528H154.899L158.415 131.6H160.011L160.035 140H158.211L158.199 134.396H158.535L155.727 139.112H154.851L151.983 134.396H152.391V140H150.567Z" fill="#333333"/>
<mask id="mask1_1210_17580" style="mask-type:alpha" maskUnits="userSpaceOnUse" x="118" y="156" width="46" height="46">
<rect x="118.5" y="156.5" width="45" height="45" fill="#D9D9D9"/>
</mask>
<g mask="url(#mask1_1210_17580)">
<path d="M137.25 177.125C137.781 177.125 138.227 176.945 138.586 176.586C138.945 176.227 139.125 175.781 139.125 175.25C139.125 174.719 138.945 174.273 138.586 173.914C138.227 173.555 137.781 173.375 137.25 173.375C136.719 173.375 136.273 173.555 135.914 173.914C135.555 174.273 135.375 174.719 135.375 175.25C135.375 175.781 135.555 176.227 135.914 176.586C136.273 176.945 136.719 177.125 137.25 177.125ZM137.25 184.625C137.781 184.625 138.227 184.445 138.586 184.086C138.945 183.727 139.125 183.281 139.125 182.75C139.125 182.219 138.945 181.773 138.586 181.414C138.227 181.055 137.781 180.875 137.25 180.875C136.719 180.875 136.273 181.055 135.914 181.414C135.555 181.773 135.375 182.219 135.375 182.75C135.375 183.281 135.555 183.727 135.914 184.086C136.273 184.445 136.719 184.625 137.25 184.625ZM131.625 176.188C131.875 176.188 132.094 176.094 132.281 175.906C132.469 175.719 132.562 175.5 132.562 175.25C132.562 175 132.469 174.781 132.281 174.594C132.094 174.406 131.875 174.312 131.625 174.312C131.375 174.312 131.156 174.406 130.969 174.594C130.781 174.781 130.688 175 130.688 175.25C130.688 175.5 130.781 175.719 130.969 175.906C131.156 176.094 131.375 176.188 131.625 176.188ZM137.25 189.312C137.5 189.312 137.719 189.219 137.906 189.031C138.094 188.844 138.188 188.625 138.188 188.375C138.188 188.125 138.094 187.906 137.906 187.719C137.719 187.531 137.5 187.438 137.25 187.438C137 187.438 136.781 187.531 136.594 187.719C136.406 187.906 136.312 188.125 136.312 188.375C136.312 188.625 136.406 188.844 136.594 189.031C136.781 189.219 137 189.312 137.25 189.312ZM131.625 183.688C131.875 183.688 132.094 183.594 132.281 183.406C132.469 183.219 132.562 183 132.562 182.75C132.562 182.5 132.469 182.281 132.281 182.094C132.094 181.906 131.875 181.812 131.625 181.812C131.375 181.812 131.156 181.906 130.969 182.094C130.781 182.281 130.688 182.5 130.688 182.75C130.688 183 130.781 183.219 130.969 183.406C131.156 183.594 131.375 183.688 131.625 183.688ZM137.25 170.562C137.5 170.562 137.719 170.469 137.906 170.281C138.094 170.094 138.188 169.875 138.188 169.625C138.188 169.375 138.094 169.156 137.906 168.969C137.719 168.781 137.5 168.688 137.25 168.688C137 168.688 136.781 168.781 136.594 168.969C136.406 169.156 136.312 169.375 136.312 169.625C136.312 169.875 136.406 170.094 136.594 170.281C136.781 170.469 137 170.562 137.25 170.562ZM144.75 177.125C145.281 177.125 145.727 176.945 146.086 176.586C146.445 176.227 146.625 175.781 146.625 175.25C146.625 174.719 146.445 174.273 146.086 173.914C145.727 173.555 145.281 173.375 144.75 173.375C144.219 173.375 143.773 173.555 143.414 173.914C143.055 174.273 142.875 174.719 142.875 175.25C142.875 175.781 143.055 176.227 143.414 176.586C143.773 176.945 144.219 177.125 144.75 177.125ZM144.75 170.562C145 170.562 145.219 170.469 145.406 170.281C145.594 170.094 145.688 169.875 145.688 169.625C145.688 169.375 145.594 169.156 145.406 168.969C145.219 168.781 145 168.688 144.75 168.688C144.5 168.688 144.281 168.781 144.094 168.969C143.906 169.156 143.812 169.375 143.812 169.625C143.812 169.875 143.906 170.094 144.094 170.281C144.281 170.469 144.5 170.562 144.75 170.562ZM150.375 183.688C150.625 183.688 150.844 183.594 151.031 183.406C151.219 183.219 151.312 183 151.312 182.75C151.312 182.5 151.219 182.281 151.031 182.094C150.844 181.906 150.625 181.812 150.375 181.812C150.125 181.812 149.906 181.906 149.719 182.094C149.531 182.281 149.438 182.5 149.438 182.75C149.438 183 149.531 183.219 149.719 183.406C149.906 183.594 150.125 183.688 150.375 183.688ZM150.375 176.188C150.625 176.188 150.844 176.094 151.031 175.906C151.219 175.719 151.312 175.5 151.312 175.25C151.312 175 151.219 174.781 151.031 174.594C150.844 174.406 150.625 174.312 150.375 174.312C150.125 174.312 149.906 174.406 149.719 174.594C149.531 174.781 149.438 175 149.438 175.25C149.438 175.5 149.531 175.719 149.719 175.906C149.906 176.094 150.125 176.188 150.375 176.188ZM141 197.75C138.406 197.75 135.969 197.258 133.687 196.273C131.406 195.289 129.422 193.953 127.734 192.266C126.047 190.578 124.711 188.594 123.727 186.313C122.742 184.031 122.25 181.594 122.25 179C122.25 176.406 122.742 173.969 123.727 171.687C124.711 169.406 126.047 167.422 127.734 165.734C129.422 164.047 131.406 162.711 133.687 161.727C135.969 160.742 138.406 160.25 141 160.25C143.594 160.25 146.031 160.742 148.313 161.727C150.594 162.711 152.578 164.047 154.266 165.734C155.953 167.422 157.289 169.406 158.273 171.687C159.258 173.969 159.75 176.406 159.75 179C159.75 181.594 159.258 184.031 158.273 186.313C157.289 188.594 155.953 190.578 154.266 192.266C152.578 193.953 150.594 195.289 148.313 196.273C146.031 197.258 143.594 197.75 141 197.75ZM141 194C145.188 194 148.734 192.547 151.641 189.641C154.547 186.734 156 183.188 156 179C156 174.812 154.547 171.266 151.641 168.359C148.734 165.453 145.188 164 141 164C136.812 164 133.266 165.453 130.359 168.359C127.453 171.266 126 174.812 126 179C126 183.188 127.453 186.734 130.359 189.641C133.266 192.547 136.812 194 141 194ZM144.75 189.312C145 189.312 145.219 189.219 145.406 189.031C145.594 188.844 145.688 188.625 145.688 188.375C145.688 188.125 145.594 187.906 145.406 187.719C145.219 187.531 145 187.438 144.75 187.438C144.5 187.438 144.281 187.531 144.094 187.719C143.906 187.906 143.812 188.125 143.812 188.375C143.812 188.625 143.906 188.844 144.094 189.031C144.281 189.219 144.5 189.312 144.75 189.312ZM144.75 184.625C145.281 184.625 145.727 184.445 146.086 184.086C146.445 183.727 146.625 183.281 146.625 182.75C146.625 182.219 146.445 181.773 146.086 181.414C145.727 181.055 145.281 180.875 144.75 180.875C144.219 180.875 143.773 181.055 143.414 181.414C143.055 181.773 142.875 182.219 142.875 182.75C142.875 183.281 143.055 183.727 143.414 184.086C143.773 184.445 144.219 184.625 144.75 184.625Z" fill="#833177"/>
</g>
<path d="M102.996 251V242.6H104.604L108.18 248.528H107.328L110.844 242.6H112.44L112.464 251H110.64L110.628 245.396H110.964L108.156 250.112H107.28L104.412 245.396H104.82V251H102.996ZM119.497 251.144C118.833 251.144 118.217 251.036 117.649 250.82C117.089 250.604 116.601 250.3 116.185 249.908C115.777 249.516 115.457 249.056 115.225 248.528C115.001 248 114.889 247.424 114.889 246.8C114.889 246.176 115.001 245.6 115.225 245.072C115.457 244.544 115.781 244.084 116.197 243.692C116.613 243.3 117.101 242.996 117.661 242.78C118.221 242.564 118.829 242.456 119.485 242.456C120.149 242.456 120.757 242.564 121.309 242.78C121.869 242.996 122.353 243.3 122.761 243.692C123.177 244.084 123.501 244.544 123.733 245.072C123.965 245.592 124.081 246.168 124.081 246.8C124.081 247.424 123.965 248.004 123.733 248.54C123.501 249.068 123.177 249.528 122.761 249.92C122.353 250.304 121.869 250.604 121.309 250.82C120.757 251.036 120.153 251.144 119.497 251.144ZM119.485 249.488C119.861 249.488 120.205 249.424 120.517 249.296C120.837 249.168 121.117 248.984 121.357 248.744C121.597 248.504 121.781 248.22 121.909 247.892C122.045 247.564 122.113 247.2 122.113 246.8C122.113 246.4 122.045 246.036 121.909 245.708C121.781 245.38 121.597 245.096 121.357 244.856C121.125 244.616 120.849 244.432 120.529 244.304C120.209 244.176 119.861 244.112 119.485 244.112C119.109 244.112 118.761 244.176 118.441 244.304C118.129 244.432 117.853 244.616 117.613 244.856C117.373 245.096 117.185 245.38 117.049 245.708C116.921 246.036 116.857 246.4 116.857 246.8C116.857 247.192 116.921 247.556 117.049 247.892C117.185 248.22 117.369 248.504 117.601 248.744C117.841 248.984 118.121 249.168 118.441 249.296C118.761 249.424 119.109 249.488 119.485 249.488ZM126.502 251V242.6H128.446V249.416H132.658V251H126.502ZM136.492 245.984H140.536V247.496H136.492V245.984ZM136.636 249.44H141.208V251H134.704V242.6H141.052V244.16H136.636V249.44ZM147.735 251.144C147.087 251.144 146.483 251.04 145.923 250.832C145.371 250.616 144.891 250.312 144.483 249.92C144.075 249.528 143.755 249.068 143.523 248.54C143.299 248.012 143.187 247.432 143.187 246.8C143.187 246.168 143.299 245.588 143.523 245.06C143.755 244.532 144.075 244.072 144.483 243.68C144.899 243.288 145.383 242.988 145.935 242.78C146.487 242.564 147.091 242.456 147.747 242.456C148.475 242.456 149.131 242.584 149.715 242.84C150.307 243.088 150.803 243.456 151.203 243.944L149.955 245.096C149.667 244.768 149.347 244.524 148.995 244.364C148.643 244.196 148.259 244.112 147.843 244.112C147.451 244.112 147.091 244.176 146.763 244.304C146.435 244.432 146.151 244.616 145.911 244.856C145.671 245.096 145.483 245.38 145.347 245.708C145.219 246.036 145.155 246.4 145.155 246.8C145.155 247.2 145.219 247.564 145.347 247.892C145.483 248.22 145.671 248.504 145.911 248.744C146.151 248.984 146.435 249.168 146.763 249.296C147.091 249.424 147.451 249.488 147.843 249.488C148.259 249.488 148.643 249.408 148.995 249.248C149.347 249.08 149.667 248.828 149.955 248.492L151.203 249.644C150.803 250.132 150.307 250.504 149.715 250.76C149.131 251.016 148.471 251.144 147.735 251.144ZM157.161 251.144C155.969 251.144 155.037 250.812 154.365 250.148C153.693 249.484 153.357 248.536 153.357 247.304V242.6H155.301V247.232C155.301 248.032 155.465 248.608 155.793 248.96C156.121 249.312 156.581 249.488 157.173 249.488C157.765 249.488 158.225 249.312 158.553 248.96C158.881 248.608 159.045 248.032 159.045 247.232V242.6H160.965V247.304C160.965 248.536 160.629 249.484 159.957 250.148C159.285 250.812 158.353 251.144 157.161 251.144ZM163.846 251V242.6H165.79V249.416H170.002V251H163.846ZM173.836 245.984H177.88V247.496H173.836V245.984ZM173.98 249.44H178.552V251H172.048V242.6H178.396V244.16H173.98V249.44Z" fill="#333333"/>
<mask id="mask2_1210_17580" style="mask-type:alpha" maskUnits="userSpaceOnUse" x="118" y="267" width="46" height="46">
<rect x="118.5" y="267.5" width="45" height="45" fill="#D9D9D9"/>
</mask>
<g mask="url(#mask2_1210_17580)">
<path d="M127.875 297.5C125.812 297.5 124.047 296.766 122.578 295.297C121.109 293.828 120.375 292.063 120.375 290C120.375 287.937 121.109 286.172 122.578 284.703C124.047 283.234 125.812 282.5 127.875 282.5C129.938 282.5 131.703 283.234 133.172 284.703C134.641 286.172 135.375 287.937 135.375 290C135.375 292.063 134.641 293.828 133.172 295.297C131.703 296.766 129.938 297.5 127.875 297.5ZM127.875 293.75C128.906 293.75 129.789 293.383 130.523 292.648C131.258 291.914 131.625 291.031 131.625 290C131.625 288.969 131.258 288.086 130.523 287.352C129.789 286.617 128.906 286.25 127.875 286.25C126.844 286.25 125.961 286.617 125.227 287.352C124.492 288.086 124.125 288.969 124.125 290C124.125 291.031 124.492 291.914 125.227 292.648C125.961 293.383 126.844 293.75 127.875 293.75ZM150.375 301.25C147.25 301.25 144.594 300.156 142.406 297.969C140.219 295.781 139.125 293.125 139.125 290C139.125 286.875 140.219 284.219 142.406 282.031C144.594 279.844 147.25 278.75 150.375 278.75C153.5 278.75 156.156 279.844 158.344 282.031C160.531 284.219 161.625 286.875 161.625 290C161.625 293.125 160.531 295.781 158.344 297.969C156.156 300.156 153.5 301.25 150.375 301.25Z" fill="#833177"/>
</g>
<path d="M107.576 362.144C106.912 362.144 106.296 362.036 105.728 361.82C105.168 361.604 104.68 361.3 104.264 360.908C103.856 360.516 103.536 360.056 103.304 359.528C103.08 359 102.968 358.424 102.968 357.8C102.968 357.176 103.08 356.6 103.304 356.072C103.536 355.544 103.86 355.084 104.276 354.692C104.692 354.3 105.18 353.996 105.74 353.78C106.3 353.564 106.908 353.456 107.564 353.456C108.228 353.456 108.836 353.564 109.388 353.78C109.948 353.996 110.432 354.3 110.84 354.692C111.256 355.084 111.58 355.544 111.812 356.072C112.044 356.592 112.16 357.168 112.16 357.8C112.16 358.424 112.044 359.004 111.812 359.54C111.58 360.068 111.256 360.528 110.84 360.92C110.432 361.304 109.948 361.604 109.388 361.82C108.836 362.036 108.232 362.144 107.576 362.144ZM107.564 360.488C107.94 360.488 108.284 360.424 108.596 360.296C108.916 360.168 109.196 359.984 109.436 359.744C109.676 359.504 109.86 359.22 109.988 358.892C110.124 358.564 110.192 358.2 110.192 357.8C110.192 357.4 110.124 357.036 109.988 356.708C109.86 356.38 109.676 356.096 109.436 355.856C109.204 355.616 108.928 355.432 108.608 355.304C108.288 355.176 107.94 355.112 107.564 355.112C107.188 355.112 106.84 355.176 106.52 355.304C106.208 355.432 105.932 355.616 105.692 355.856C105.452 356.096 105.264 356.38 105.128 356.708C105 357.036 104.936 357.4 104.936 357.8C104.936 358.192 105 358.556 105.128 358.892C105.264 359.22 105.448 359.504 105.68 359.744C105.92 359.984 106.2 360.168 106.52 360.296C106.84 360.424 107.188 360.488 107.564 360.488ZM114.581 362V353.6H118.217C118.969 353.6 119.617 353.724 120.161 353.972C120.705 354.212 121.125 354.56 121.421 355.016C121.717 355.472 121.865 356.016 121.865 356.648C121.865 357.272 121.717 357.812 121.421 358.268C121.125 358.716 120.705 359.06 120.161 359.3C119.617 359.54 118.969 359.66 118.217 359.66H115.661L116.525 358.808V362H114.581ZM119.921 362L117.821 358.952H119.897L122.021 362H119.921ZM116.525 359.024L115.661 358.112H118.109C118.709 358.112 119.157 357.984 119.453 357.728C119.749 357.464 119.897 357.104 119.897 356.648C119.897 356.184 119.749 355.824 119.453 355.568C119.157 355.312 118.709 355.184 118.109 355.184H115.661L116.525 354.26V359.024ZM128.421 362.144C127.757 362.144 127.145 362.04 126.585 361.832C126.033 361.616 125.549 361.312 125.133 360.92C124.725 360.528 124.405 360.068 124.173 359.54C123.949 359.012 123.837 358.432 123.837 357.8C123.837 357.168 123.949 356.588 124.173 356.06C124.405 355.532 124.729 355.072 125.145 354.68C125.561 354.288 126.049 353.988 126.609 353.78C127.169 353.564 127.785 353.456 128.457 353.456C129.201 353.456 129.869 353.58 130.461 353.828C131.061 354.076 131.565 354.436 131.973 354.908L130.725 356.06C130.421 355.74 130.089 355.504 129.729 355.352C129.369 355.192 128.977 355.112 128.553 355.112C128.145 355.112 127.773 355.176 127.437 355.304C127.101 355.432 126.809 355.616 126.561 355.856C126.321 356.096 126.133 356.38 125.997 356.708C125.869 357.036 125.805 357.4 125.805 357.8C125.805 358.192 125.869 358.552 125.997 358.88C126.133 359.208 126.321 359.496 126.561 359.744C126.809 359.984 127.097 360.168 127.425 360.296C127.761 360.424 128.129 360.488 128.529 360.488C128.913 360.488 129.285 360.428 129.645 360.308C130.013 360.18 130.369 359.968 130.713 359.672L131.817 361.076C131.361 361.42 130.829 361.684 130.221 361.868C129.621 362.052 129.021 362.144 128.421 362.144ZM130.041 360.824V357.668H131.817V361.076L130.041 360.824ZM133.479 362L137.223 353.6H139.143L142.899 362H140.859L137.787 354.584H138.555L135.471 362H133.479ZM135.351 360.2L135.867 358.724H140.187L140.715 360.2H135.351ZM144.731 362V353.6H146.339L151.295 359.648H150.515V353.6H152.435V362H150.839L145.871 355.952H146.651V362H144.731ZM155.382 362V353.6H157.326V362H155.382ZM163.039 362.144C162.367 362.144 161.723 362.056 161.107 361.88C160.491 361.696 159.995 361.46 159.619 361.172L160.279 359.708C160.639 359.964 161.063 360.176 161.551 360.344C162.047 360.504 162.547 360.584 163.051 360.584C163.435 360.584 163.743 360.548 163.975 360.476C164.215 360.396 164.391 360.288 164.503 360.152C164.615 360.016 164.671 359.86 164.671 359.684C164.671 359.46 164.583 359.284 164.407 359.156C164.231 359.02 163.999 358.912 163.711 358.832C163.423 358.744 163.103 358.664 162.751 358.592C162.407 358.512 162.059 358.416 161.707 358.304C161.363 358.192 161.047 358.048 160.759 357.872C160.471 357.696 160.235 357.464 160.051 357.176C159.875 356.888 159.787 356.52 159.787 356.072C159.787 355.592 159.915 355.156 160.171 354.764C160.435 354.364 160.827 354.048 161.347 353.816C161.875 353.576 162.535 353.456 163.327 353.456C163.855 353.456 164.375 353.52 164.887 353.648C165.399 353.768 165.851 353.952 166.243 354.2L165.643 355.676C165.251 355.452 164.859 355.288 164.467 355.184C164.075 355.072 163.691 355.016 163.315 355.016C162.939 355.016 162.631 355.06 162.391 355.148C162.151 355.236 161.979 355.352 161.875 355.496C161.771 355.632 161.719 355.792 161.719 355.976C161.719 356.192 161.807 356.368 161.983 356.504C162.159 356.632 162.391 356.736 162.679 356.816C162.967 356.896 163.283 356.976 163.627 357.056C163.979 357.136 164.327 357.228 164.671 357.332C165.023 357.436 165.343 357.576 165.631 357.752C165.919 357.928 166.151 358.16 166.327 358.448C166.511 358.736 166.603 359.1 166.603 359.54C166.603 360.012 166.471 360.444 166.207 360.836C165.943 361.228 165.547 361.544 165.019 361.784C164.499 362.024 163.839 362.144 163.039 362.144ZM168.892 362V353.6H170.5L174.076 359.528H173.224L176.74 353.6H178.336L178.36 362H176.536L176.524 356.396H176.86L174.052 361.112H173.176L170.308 356.396H170.716V362H168.892Z" fill="#333333"/>
<mask id="mask3_1210_17580" style="mask-type:alpha" maskUnits="userSpaceOnUse" x="118" y="378" width="46" height="46">
<rect x="118.5" y="378.5" width="45" height="45" fill="#D9D9D9"/>
</mask>
<g mask="url(#mask3_1210_17580)">
<path d="M129.75 417.875C127.687 417.875 125.922 417.141 124.453 415.672C122.984 414.203 122.25 412.438 122.25 410.375C122.25 408.312 122.984 406.547 124.453 405.078C125.922 403.609 127.687 402.875 129.75 402.875C131.813 402.875 133.578 403.609 135.047 405.078C136.516 406.547 137.25 408.312 137.25 410.375C137.25 412.438 136.516 414.203 135.047 415.672C133.578 417.141 131.813 417.875 129.75 417.875ZM152.25 417.875C150.187 417.875 148.422 417.141 146.953 415.672C145.484 414.203 144.75 412.438 144.75 410.375C144.75 408.312 145.484 406.547 146.953 405.078C148.422 403.609 150.187 402.875 152.25 402.875C154.313 402.875 156.078 403.609 157.547 405.078C159.016 406.547 159.75 408.312 159.75 410.375C159.75 412.438 159.016 414.203 157.547 415.672C156.078 417.141 154.313 417.875 152.25 417.875ZM129.75 414.125C130.781 414.125 131.664 413.758 132.398 413.023C133.133 412.289 133.5 411.406 133.5 410.375C133.5 409.344 133.133 408.461 132.398 407.727C131.664 406.992 130.781 406.625 129.75 406.625C128.719 406.625 127.836 406.992 127.102 407.727C126.367 408.461 126 409.344 126 410.375C126 411.406 126.367 412.289 127.102 413.023C127.836 413.758 128.719 414.125 129.75 414.125ZM152.25 414.125C153.281 414.125 154.164 413.758 154.898 413.023C155.633 412.289 156 411.406 156 410.375C156 409.344 155.633 408.461 154.898 407.727C154.164 406.992 153.281 406.625 152.25 406.625C151.219 406.625 150.336 406.992 149.602 407.727C148.867 408.461 148.5 409.344 148.5 410.375C148.5 411.406 148.867 412.289 149.602 413.023C150.336 413.758 151.219 414.125 152.25 414.125ZM141 406.438C140 406.438 139.156 406.094 138.469 405.406C137.781 404.719 137.438 403.875 137.438 402.875C137.438 401.875 137.781 401.031 138.469 400.344C139.156 399.656 140 399.313 141 399.313C142 399.313 142.844 399.656 143.531 400.344C144.219 401.031 144.563 401.875 144.563 402.875C144.563 403.875 144.219 404.719 143.531 405.406C142.844 406.094 142 406.438 141 406.438ZM141 397.25C138.937 397.25 137.172 396.516 135.703 395.047C134.234 393.578 133.5 391.813 133.5 389.75C133.5 387.687 134.234 385.922 135.703 384.453C137.172 382.984 138.937 382.25 141 382.25C143.063 382.25 144.828 382.984 146.297 384.453C147.766 385.922 148.5 387.687 148.5 389.75C148.5 391.813 147.766 393.578 146.297 395.047C144.828 396.516 143.063 397.25 141 397.25ZM141 393.5C142.031 393.5 142.914 393.133 143.648 392.398C144.383 391.664 144.75 390.781 144.75 389.75C144.75 388.719 144.383 387.836 143.648 387.102C142.914 386.367 142.031 386 141 386C139.969 386 139.086 386.367 138.352 387.102C137.617 387.836 137.25 388.719 137.25 389.75C137.25 390.781 137.617 391.664 138.352 392.398C139.086 393.133 139.969 393.5 141 393.5Z" fill="#833177"/>
</g>
<path d="M106.736 473V466.184H104.048V464.6H111.368V466.184H108.68V473H106.736ZM115.162 467.984H119.206V469.496H115.162V467.984ZM115.306 471.44H119.878V473H113.374V464.6H119.722V466.16H115.306V471.44ZM122.385 473V464.6H123.993L127.569 470.528H126.717L130.233 464.6H131.829L131.853 473H130.029L130.017 467.396H130.353L127.545 472.112H126.669L123.801 467.396H124.209V473H122.385ZM134.806 473V464.6H138.442C139.194 464.6 139.842 464.724 140.386 464.972C140.93 465.212 141.35 465.56 141.646 466.016C141.942 466.472 142.09 467.016 142.09 467.648C142.09 468.272 141.942 468.812 141.646 469.268C141.35 469.724 140.93 470.076 140.386 470.324C139.842 470.564 139.194 470.684 138.442 470.684H135.886L136.75 469.808V473H134.806ZM136.75 470.024L135.886 469.1H138.334C138.934 469.1 139.382 468.972 139.678 468.716C139.974 468.46 140.122 468.104 140.122 467.648C140.122 467.184 139.974 466.824 139.678 466.568C139.382 466.312 138.934 466.184 138.334 466.184H135.886L136.75 465.26V470.024ZM144.438 473V464.6H146.382V471.416H150.594V473H144.438ZM151.583 473L155.327 464.6H157.247L161.003 473H158.963L155.891 465.584H156.659L153.575 473H151.583ZM153.455 471.2L153.971 469.724H158.291L158.819 471.2H153.455ZM164.152 473V466.184H161.464V464.6H168.784V466.184H166.096V473H164.152ZM172.578 467.984H176.622V469.496H172.578V467.984ZM172.722 471.44H177.294V473H170.79V464.6H177.138V466.16H172.722V471.44Z" fill="#333333"/>
<mask id="mask4_1210_17580" style="mask-type:alpha" maskUnits="userSpaceOnUse" x="118" y="489" width="46" height="46">
<rect x="118.5" y="489.5" width="45" height="45" fill="#D9D9D9"/>
</mask>
<g mask="url(#mask4_1210_17580)">
<path d="M130.5 525.125H151.453L147.516 521.188C146.609 521.844 145.602 522.352 144.492 522.711C143.383 523.07 142.219 523.25 141 523.25C139.781 523.25 138.617 523.062 137.508 522.687C136.398 522.312 135.391 521.797 134.484 521.141L130.5 525.125ZM127.875 522.453L131.812 518.516C131.156 517.609 130.648 516.602 130.289 515.492C129.93 514.383 129.75 513.219 129.75 512C129.75 510.781 129.937 509.617 130.312 508.508C130.687 507.398 131.203 506.391 131.859 505.484L127.875 501.5V522.453ZM134.531 515.797L138.375 512L134.531 508.203C134.188 508.766 133.93 509.359 133.758 509.984C133.586 510.609 133.5 511.281 133.5 512C133.5 512.719 133.586 513.391 133.758 514.016C133.93 514.641 134.188 515.234 134.531 515.797ZM141 519.5C141.719 519.5 142.391 519.414 143.016 519.242C143.641 519.07 144.234 518.812 144.797 518.469L141 514.625L137.156 518.469C137.719 518.812 138.32 519.07 138.961 519.242C139.602 519.414 140.281 519.5 141 519.5ZM141 509.328L144.797 505.531C144.234 505.188 143.641 504.93 143.016 504.758C142.391 504.586 141.719 504.5 141 504.5C140.281 504.5 139.609 504.586 138.984 504.758C138.359 504.93 137.766 505.188 137.203 505.531L141 509.328ZM147.469 515.797C147.812 515.234 148.07 514.641 148.242 514.016C148.414 513.391 148.5 512.719 148.5 512C148.5 511.281 148.414 510.602 148.242 509.961C148.07 509.32 147.812 508.719 147.469 508.156L143.672 511.953L147.469 515.797ZM154.125 522.453V501.5L150.141 505.484C150.797 506.391 151.312 507.398 151.687 508.508C152.062 509.617 152.25 510.781 152.25 512C152.25 513.219 152.07 514.383 151.711 515.492C151.352 516.602 150.844 517.609 150.188 518.516L154.125 522.453ZM147.516 502.859L151.5 498.875H130.547L134.484 502.812C135.391 502.156 136.398 501.648 137.508 501.289C138.617 500.93 139.781 500.75 141 500.75C142.219 500.75 143.383 500.937 144.492 501.312C145.602 501.687 146.609 502.203 147.516 502.859ZM127.875 528.875C126.844 528.875 125.961 528.508 125.227 527.773C124.492 527.039 124.125 526.156 124.125 525.125V498.875C124.125 497.844 124.492 496.961 125.227 496.227C125.961 495.492 126.844 495.125 127.875 495.125H154.125C155.156 495.125 156.039 495.492 156.773 496.227C157.508 496.961 157.875 497.844 157.875 498.875V525.125C157.875 526.156 157.508 527.039 156.773 527.773C156.039 528.508 155.156 528.875 154.125 528.875H127.875Z" fill="#833177"/>
</g>
<path d="M122.996 584V575.6H126.632C127.384 575.6 128.032 575.724 128.576 575.972C129.12 576.212 129.54 576.56 129.836 577.016C130.132 577.472 130.28 578.016 130.28 578.648C130.28 579.272 130.132 579.812 129.836 580.268C129.54 580.724 129.12 581.076 128.576 581.324C128.032 581.564 127.384 581.684 126.632 581.684H124.076L124.94 580.808V584H122.996ZM124.94 581.024L124.076 580.1H126.524C127.124 580.1 127.572 579.972 127.868 579.716C128.164 579.46 128.312 579.104 128.312 578.648C128.312 578.184 128.164 577.824 127.868 577.568C127.572 577.312 127.124 577.184 126.524 577.184H124.076L124.94 576.26V581.024ZM131.102 584L134.846 575.6H136.766L140.522 584H138.482L135.41 576.584H136.178L133.094 584H131.102ZM132.974 582.2L133.49 580.724H137.81L138.338 582.2H132.974ZM146.292 584.144C145.628 584.144 145.016 584.04 144.456 583.832C143.904 583.616 143.42 583.312 143.004 582.92C142.596 582.528 142.276 582.068 142.044 581.54C141.82 581.012 141.708 580.432 141.708 579.8C141.708 579.168 141.82 578.588 142.044 578.06C142.276 577.532 142.6 577.072 143.016 576.68C143.432 576.288 143.92 575.988 144.48 575.78C145.04 575.564 145.656 575.456 146.328 575.456C147.072 575.456 147.74 575.58 148.332 575.828C148.932 576.076 149.436 576.436 149.844 576.908L148.596 578.06C148.292 577.74 147.96 577.504 147.6 577.352C147.24 577.192 146.848 577.112 146.424 577.112C146.016 577.112 145.644 577.176 145.308 577.304C144.972 577.432 144.68 577.616 144.432 577.856C144.192 578.096 144.004 578.38 143.868 578.708C143.74 579.036 143.676 579.4 143.676 579.8C143.676 580.192 143.74 580.552 143.868 580.88C144.004 581.208 144.192 581.496 144.432 581.744C144.68 581.984 144.968 582.168 145.296 582.296C145.632 582.424 146 582.488 146.4 582.488C146.784 582.488 147.156 582.428 147.516 582.308C147.884 582.18 148.24 581.968 148.584 581.672L149.688 583.076C149.232 583.42 148.7 583.684 148.092 583.868C147.492 584.052 146.892 584.144 146.292 584.144ZM147.912 582.824V579.668H149.688V583.076L147.912 582.824ZM154.242 578.984H158.286V580.496H154.242V578.984ZM154.386 582.44H158.958V584H152.454V575.6H158.802V577.16H154.386V582.44Z" fill="#333333"/>
<mask id="mask5_1210_17580" style="mask-type:alpha" maskUnits="userSpaceOnUse" x="118" y="600" width="46" height="46">
<rect x="118.5" y="600.5" width="45" height="45" fill="#D9D9D9"/>
</mask>
<g mask="url(#mask5_1210_17580)">
<path d="M127.875 639.875C126.844 639.875 125.961 639.508 125.227 638.773C124.492 638.039 124.125 637.156 124.125 636.125V609.875C124.125 608.844 124.492 607.961 125.227 607.227C125.961 606.492 126.844 606.125 127.875 606.125H154.125C155.156 606.125 156.039 606.492 156.773 607.227C157.508 607.961 157.875 608.844 157.875 609.875V636.125C157.875 637.156 157.508 638.039 156.773 638.773C156.039 639.508 155.156 639.875 154.125 639.875H127.875ZM127.875 636.125H154.125V615.5H127.875V636.125Z" fill="#833177"/>
</g>
<path d="M200 2L210 2" stroke="#833177" stroke-width="4" stroke-linecap="round"/>
<path d="M205 113V2" stroke="#833177" stroke-width="4" stroke-linecap="round"/>
<path d="M200 113H210" stroke="#833177" stroke-width="4" stroke-linecap="round"/>
<path d="M217.92 61.08C217.287 61.08 216.793 60.92 216.44 60.6C216.087 60.2733 215.91 59.79 215.91 59.15V54.43H217.47V59.13C217.47 59.3567 217.53 59.5333 217.65 59.66C217.77 59.78 217.933 59.84 218.14 59.84C218.387 59.84 218.597 59.7733 218.77 59.64L219.19 60.74C219.03 60.8533 218.837 60.94 218.61 61C218.39 61.0533 218.16 61.08 217.92 61.08ZM215.08 56.94V55.74H218.81V56.94H215.08ZM222.46 61.08C221.886 61.08 221.376 60.96 220.93 60.72C220.49 60.48 220.14 60.1533 219.88 59.74C219.626 59.32 219.5 58.8433 219.5 58.31C219.5 57.77 219.626 57.2933 219.88 56.88C220.14 56.46 220.49 56.1333 220.93 55.9C221.376 55.66 221.886 55.54 222.46 55.54C223.026 55.54 223.533 55.66 223.98 55.9C224.426 56.1333 224.776 56.4567 225.03 56.87C225.283 57.2833 225.41 57.7633 225.41 58.31C225.41 58.8433 225.283 59.32 225.03 59.74C224.776 60.1533 224.426 60.48 223.98 60.72C223.533 60.96 223.026 61.08 222.46 61.08ZM222.46 59.8C222.72 59.8 222.953 59.74 223.16 59.62C223.366 59.5 223.53 59.33 223.65 59.11C223.77 58.8833 223.83 58.6167 223.83 58.31C223.83 57.9967 223.77 57.73 223.65 57.51C223.53 57.29 223.366 57.12 223.16 57C222.953 56.88 222.72 56.82 222.46 56.82C222.2 56.82 221.966 56.88 221.76 57C221.553 57.12 221.386 57.29 221.26 57.51C221.14 57.73 221.08 57.9967 221.08 58.31C221.08 58.6167 221.14 58.8833 221.26 59.11C221.386 59.33 221.553 59.5 221.76 59.62C221.966 59.74 222.2 59.8 222.46 59.8ZM227.742 59.9L227.782 58L230.292 55.62H232.152L229.742 58.07L228.932 58.73L227.742 59.9ZM226.452 61V53.58H228.012V61H226.452ZM230.462 61L228.642 58.74L229.622 57.53L232.352 61H230.462ZM235.49 61.08C234.876 61.08 234.336 60.96 233.87 60.72C233.41 60.48 233.053 60.1533 232.8 59.74C232.546 59.32 232.42 58.8433 232.42 58.31C232.42 57.77 232.543 57.2933 232.79 56.88C233.043 56.46 233.386 56.1333 233.82 55.9C234.253 55.66 234.743 55.54 235.29 55.54C235.816 55.54 236.29 55.6533 236.71 55.88C237.136 56.1 237.473 56.42 237.72 56.84C237.966 57.2533 238.09 57.75 238.09 58.33C238.09 58.39 238.086 58.46 238.08 58.54C238.073 58.6133 238.066 58.6833 238.06 58.75H233.69V57.84H237.24L236.64 58.11C236.64 57.83 236.583 57.5867 236.47 57.38C236.356 57.1733 236.2 57.0133 236 56.9C235.8 56.78 235.566 56.72 235.3 56.72C235.033 56.72 234.796 56.78 234.59 56.9C234.39 57.0133 234.233 57.1767 234.12 57.39C234.006 57.5967 233.95 57.8433 233.95 58.13V58.37C233.95 58.6633 234.013 58.9233 234.14 59.15C234.273 59.37 234.456 59.54 234.69 59.66C234.93 59.7733 235.21 59.83 235.53 59.83C235.816 59.83 236.066 59.7867 236.28 59.7C236.5 59.6133 236.7 59.4833 236.88 59.31L237.71 60.21C237.463 60.49 237.153 60.7067 236.78 60.86C236.406 61.0067 235.976 61.08 235.49 61.08ZM242.398 55.54C242.825 55.54 243.205 55.6267 243.538 55.8C243.878 55.9667 244.145 56.2267 244.338 56.58C244.532 56.9267 244.628 57.3733 244.628 57.92V61H243.068V58.16C243.068 57.7267 242.972 57.4067 242.778 57.2C242.592 56.9933 242.325 56.89 241.978 56.89C241.732 56.89 241.508 56.9433 241.308 57.05C241.115 57.15 240.962 57.3067 240.848 57.52C240.742 57.7333 240.688 58.0067 240.688 58.34V61H239.128V55.62H240.618V57.11L240.338 56.66C240.532 56.3 240.808 56.0233 241.168 55.83C241.528 55.6367 241.938 55.54 242.398 55.54ZM247.852 61.08C247.392 61.08 246.949 61.0267 246.522 60.92C246.102 60.8067 245.769 60.6667 245.522 60.5L246.042 59.38C246.289 59.5333 246.579 59.66 246.912 59.76C247.252 59.8533 247.586 59.9 247.912 59.9C248.272 59.9 248.526 59.8567 248.672 59.77C248.826 59.6833 248.902 59.5633 248.902 59.41C248.902 59.2833 248.842 59.19 248.722 59.13C248.609 59.0633 248.456 59.0133 248.262 58.98C248.069 58.9467 247.856 58.9133 247.622 58.88C247.396 58.8467 247.166 58.8033 246.932 58.75C246.699 58.69 246.486 58.6033 246.292 58.49C246.099 58.3767 245.942 58.2233 245.822 58.03C245.709 57.8367 245.652 57.5867 245.652 57.28C245.652 56.94 245.749 56.64 245.942 56.38C246.142 56.12 246.429 55.9167 246.802 55.77C247.176 55.6167 247.622 55.54 248.142 55.54C248.509 55.54 248.882 55.58 249.262 55.66C249.642 55.74 249.959 55.8567 250.212 56.01L249.692 57.12C249.432 56.9667 249.169 56.8633 248.902 56.81C248.642 56.75 248.389 56.72 248.142 56.72C247.796 56.72 247.542 56.7667 247.382 56.86C247.222 56.9533 247.142 57.0733 247.142 57.22C247.142 57.3533 247.199 57.4533 247.312 57.52C247.432 57.5867 247.589 57.64 247.782 57.68C247.976 57.72 248.186 57.7567 248.412 57.79C248.646 57.8167 248.879 57.86 249.112 57.92C249.346 57.98 249.556 58.0667 249.742 58.18C249.936 58.2867 250.092 58.4367 250.212 58.63C250.332 58.8167 250.392 59.0633 250.392 59.37C250.392 59.7033 250.292 60 250.092 60.26C249.892 60.5133 249.602 60.7133 249.222 60.86C248.849 61.0067 248.392 61.08 247.852 61.08Z" fill="#833177"/>
<path d="M200 335H210" stroke="#833177" stroke-width="4" stroke-linecap="round"/>
<path d="M205 557V335" stroke="#833177" stroke-width="4" stroke-linecap="round"/>
<path d="M200 557H210" stroke="#833177" stroke-width="4" stroke-linecap="round"/>
<path d="M218.94 449.62C217.947 449.62 217.17 449.343 216.61 448.79C216.05 448.237 215.77 447.447 215.77 446.42V442.5H217.39V446.36C217.39 447.027 217.527 447.507 217.8 447.8C218.073 448.093 218.457 448.24 218.95 448.24C219.443 448.24 219.827 448.093 220.1 447.8C220.373 447.507 220.51 447.027 220.51 446.36V442.5H222.11V446.42C222.11 447.447 221.83 448.237 221.27 448.79C220.71 449.343 219.933 449.62 218.94 449.62ZM223.711 449.5V442.5H225.331V449.5H223.711ZM231.274 447.9L231.184 446.03L234.534 442.5H236.334L233.314 445.75L232.414 446.71L231.274 447.9ZM229.824 449.5V442.5H231.434V449.5H229.824ZM234.614 449.5L232.124 446.45L233.184 445.3L236.504 449.5H234.614ZM237.116 449.5V444.12H238.676V449.5H237.116ZM237.896 443.37C237.61 443.37 237.376 443.287 237.196 443.12C237.016 442.953 236.926 442.747 236.926 442.5C236.926 442.253 237.016 442.047 237.196 441.88C237.376 441.713 237.61 441.63 237.896 441.63C238.183 441.63 238.416 441.71 238.596 441.87C238.776 442.023 238.866 442.223 238.866 442.47C238.866 442.73 238.776 442.947 238.596 443.12C238.423 443.287 238.19 443.37 237.896 443.37ZM242.324 449.58C241.691 449.58 241.198 449.42 240.844 449.1C240.491 448.773 240.314 448.29 240.314 447.65V442.93H241.874V447.63C241.874 447.857 241.934 448.033 242.054 448.16C242.174 448.28 242.338 448.34 242.544 448.34C242.791 448.34 243.001 448.273 243.174 448.14L243.594 449.24C243.434 449.353 243.241 449.44 243.014 449.5C242.794 449.553 242.564 449.58 242.324 449.58ZM239.484 445.44V444.24H243.214V445.44H239.484ZM246.28 449.58C245.82 449.58 245.377 449.527 244.95 449.42C244.53 449.307 244.197 449.167 243.95 449L244.47 447.88C244.717 448.033 245.007 448.16 245.34 448.26C245.68 448.353 246.013 448.4 246.34 448.4C246.7 448.4 246.953 448.357 247.1 448.27C247.253 448.183 247.33 448.063 247.33 447.91C247.33 447.783 247.27 447.69 247.15 447.63C247.037 447.563 246.883 447.513 246.69 447.48C246.497 447.447 246.283 447.413 246.05 447.38C245.823 447.347 245.593 447.303 245.36 447.25C245.127 447.19 244.913 447.103 244.72 446.99C244.527 446.877 244.37 446.723 244.25 446.53C244.137 446.337 244.08 446.087 244.08 445.78C244.08 445.44 244.177 445.14 244.37 444.88C244.57 444.62 244.857 444.417 245.23 444.27C245.603 444.117 246.05 444.04 246.57 444.04C246.937 444.04 247.31 444.08 247.69 444.16C248.07 444.24 248.387 444.357 248.64 444.51L248.12 445.62C247.86 445.467 247.597 445.363 247.33 445.31C247.07 445.25 246.817 445.22 246.57 445.22C246.223 445.22 245.97 445.267 245.81 445.36C245.65 445.453 245.57 445.573 245.57 445.72C245.57 445.853 245.627 445.953 245.74 446.02C245.86 446.087 246.017 446.14 246.21 446.18C246.403 446.22 246.613 446.257 246.84 446.29C247.073 446.317 247.307 446.36 247.54 446.42C247.773 446.48 247.983 446.567 248.17 446.68C248.363 446.787 248.52 446.937 248.64 447.13C248.76 447.317 248.82 447.563 248.82 447.87C248.82 448.203 248.72 448.5 248.52 448.76C248.32 449.013 248.03 449.213 247.65 449.36C247.277 449.507 246.82 449.58 246.28 449.58Z" fill="#833177"/>
<path d="M200 557H210" stroke="#833177" stroke-width="4" stroke-linecap="round"/>
<path d="M205 668V557" stroke="#833177" stroke-width="4" stroke-linecap="round"/>
<path d="M200 668H210" stroke="#833177" stroke-width="4" stroke-linecap="round"/>
<path d="M218.9 616.08C218.447 616.08 218.05 615.98 217.71 615.78C217.37 615.58 217.103 615.277 216.91 614.87C216.723 614.457 216.63 613.937 216.63 613.31C216.63 612.677 216.72 612.157 216.9 611.75C217.08 611.343 217.34 611.04 217.68 610.84C218.02 610.64 218.427 610.54 218.9 610.54C219.407 610.54 219.86 610.657 220.26 610.89C220.667 611.117 220.987 611.437 221.22 611.85C221.46 612.263 221.58 612.75 221.58 613.31C221.58 613.877 221.46 614.367 221.22 614.78C220.987 615.193 220.667 615.513 220.26 615.74C219.86 615.967 219.407 616.08 218.9 616.08ZM215.72 617.94V610.62H217.21V611.72L217.18 613.32L217.28 614.91V617.94H215.72ZM218.63 614.8C218.89 614.8 219.12 614.74 219.32 614.62C219.527 614.5 219.69 614.33 219.81 614.11C219.937 613.883 220 613.617 220 613.31C220 612.997 219.937 612.73 219.81 612.51C219.69 612.29 219.527 612.12 219.32 612C219.12 611.88 218.89 611.82 218.63 611.82C218.37 611.82 218.137 611.88 217.93 612C217.723 612.12 217.56 612.29 217.44 612.51C217.32 612.73 217.26 612.997 217.26 613.31C217.26 613.617 217.32 613.883 217.44 614.11C217.56 614.33 217.723 614.5 217.93 614.62C218.137 614.74 218.37 614.8 218.63 614.8ZM222.624 616V610.62H224.114V612.14L223.904 611.7C224.064 611.32 224.321 611.033 224.674 610.84C225.028 610.64 225.458 610.54 225.964 610.54V611.98C225.898 611.973 225.838 611.97 225.784 611.97C225.731 611.963 225.674 611.96 225.614 611.96C225.188 611.96 224.841 612.083 224.574 612.33C224.314 612.57 224.184 612.947 224.184 613.46V616H222.624ZM229.403 616.08C228.83 616.08 228.32 615.96 227.873 615.72C227.433 615.48 227.083 615.153 226.823 614.74C226.57 614.32 226.443 613.843 226.443 613.31C226.443 612.77 226.57 612.293 226.823 611.88C227.083 611.46 227.433 611.133 227.873 610.9C228.32 610.66 228.83 610.54 229.403 610.54C229.97 610.54 230.476 610.66 230.923 610.9C231.37 611.133 231.72 611.457 231.973 611.87C232.226 612.283 232.353 612.763 232.353 613.31C232.353 613.843 232.226 614.32 231.973 614.74C231.72 615.153 231.37 615.48 230.923 615.72C230.476 615.96 229.97 616.08 229.403 616.08ZM229.403 614.8C229.663 614.8 229.896 614.74 230.103 614.62C230.31 614.5 230.473 614.33 230.593 614.11C230.713 613.883 230.773 613.617 230.773 613.31C230.773 612.997 230.713 612.73 230.593 612.51C230.473 612.29 230.31 612.12 230.103 612C229.896 611.88 229.663 611.82 229.403 611.82C229.143 611.82 228.91 611.88 228.703 612C228.496 612.12 228.33 612.29 228.203 612.51C228.083 612.73 228.023 612.997 228.023 613.31C228.023 613.617 228.083 613.883 228.203 614.11C228.33 614.33 228.496 614.5 228.703 614.62C228.91 614.74 229.143 614.8 229.403 614.8ZM235.706 616.08C235.199 616.08 234.742 615.967 234.336 615.74C233.929 615.507 233.606 615.183 233.366 614.77C233.132 614.357 233.016 613.87 233.016 613.31C233.016 612.743 233.132 612.253 233.366 611.84C233.606 611.427 233.929 611.107 234.336 610.88C234.742 610.653 235.199 610.54 235.706 610.54C236.159 610.54 236.556 610.64 236.896 610.84C237.236 611.04 237.499 611.343 237.686 611.75C237.872 612.157 237.966 612.677 237.966 613.31C237.966 613.937 237.876 614.457 237.696 614.87C237.516 615.277 237.256 615.58 236.916 615.78C236.582 615.98 236.179 616.08 235.706 616.08ZM235.976 614.8C236.229 614.8 236.459 614.74 236.666 614.62C236.872 614.5 237.036 614.33 237.156 614.11C237.282 613.883 237.346 613.617 237.346 613.31C237.346 612.997 237.282 612.73 237.156 612.51C237.036 612.29 236.872 612.12 236.666 612C236.459 611.88 236.229 611.82 235.976 611.82C235.716 611.82 235.482 611.88 235.276 612C235.069 612.12 234.902 612.29 234.776 612.51C234.656 612.73 234.596 612.997 234.596 613.31C234.596 613.617 234.656 613.883 234.776 614.11C234.902 614.33 235.069 614.5 235.276 614.62C235.482 614.74 235.716 614.8 235.976 614.8ZM237.386 616V614.9L237.416 613.3L237.316 611.71V608.58H238.876V616H237.386ZM242.59 616.08C242.143 616.08 241.743 615.993 241.39 615.82C241.043 615.647 240.773 615.383 240.58 615.03C240.386 614.67 240.29 614.213 240.29 613.66V610.62H241.85V613.43C241.85 613.877 241.943 614.207 242.13 614.42C242.323 614.627 242.593 614.73 242.94 614.73C243.18 614.73 243.393 614.68 243.58 614.58C243.766 614.473 243.913 614.313 244.02 614.1C244.126 613.88 244.18 613.607 244.18 613.28V610.62H245.74V616H244.26V614.52L244.53 614.95C244.35 615.323 244.083 615.607 243.73 615.8C243.383 615.987 243.003 616.08 242.59 616.08ZM249.785 616.08C249.205 616.08 248.688 615.963 248.235 615.73C247.782 615.49 247.425 615.16 247.165 614.74C246.912 614.32 246.785 613.843 246.785 613.31C246.785 612.77 246.912 612.293 247.165 611.88C247.425 611.46 247.782 611.133 248.235 610.9C248.688 610.66 249.205 610.54 249.785 610.54C250.352 610.54 250.845 610.66 251.265 610.9C251.685 611.133 251.995 611.47 252.195 611.91L250.985 612.56C250.845 612.307 250.668 612.12 250.455 612C250.248 611.88 250.022 611.82 249.775 611.82C249.508 611.82 249.268 611.88 249.055 612C248.842 612.12 248.672 612.29 248.545 612.51C248.425 612.73 248.365 612.997 248.365 613.31C248.365 613.623 248.425 613.89 248.545 614.11C248.672 614.33 248.842 614.5 249.055 614.62C249.268 614.74 249.508 614.8 249.775 614.8C250.022 614.8 250.248 614.743 250.455 614.63C250.668 614.51 250.845 614.32 250.985 614.06L252.195 614.72C251.995 615.153 251.685 615.49 251.265 615.73C250.845 615.963 250.352 616.08 249.785 616.08ZM255.371 616.08C254.738 616.08 254.245 615.92 253.891 615.6C253.538 615.273 253.361 614.79 253.361 614.15V609.43H254.921V614.13C254.921 614.357 254.981 614.533 255.101 614.66C255.221 614.78 255.385 614.84 255.591 614.84C255.838 614.84 256.048 614.773 256.221 614.64L256.641 615.74C256.481 615.853 256.288 615.94 256.061 616C255.841 616.053 255.611 616.08 255.371 616.08ZM252.531 611.94V610.74H256.261V611.94H252.531ZM259.327 616.08C258.867 616.08 258.424 616.027 257.997 615.92C257.577 615.807 257.244 615.667 256.997 615.5L257.517 614.38C257.764 614.533 258.054 614.66 258.387 614.76C258.727 614.853 259.06 614.9 259.387 614.9C259.747 614.9 260 614.857 260.147 614.77C260.3 614.683 260.377 614.563 260.377 614.41C260.377 614.283 260.317 614.19 260.197 614.13C260.084 614.063 259.93 614.013 259.737 613.98C259.544 613.947 259.33 613.913 259.097 613.88C258.87 613.847 258.64 613.803 258.407 613.75C258.174 613.69 257.96 613.603 257.767 613.49C257.574 613.377 257.417 613.223 257.297 613.03C257.184 612.837 257.127 612.587 257.127 612.28C257.127 611.94 257.224 611.64 257.417 611.38C257.617 611.12 257.904 610.917 258.277 610.77C258.65 610.617 259.097 610.54 259.617 610.54C259.984 610.54 260.357 610.58 260.737 610.66C261.117 610.74 261.434 610.857 261.687 611.01L261.167 612.12C260.907 611.967 260.644 611.863 260.377 611.81C260.117 611.75 259.864 611.72 259.617 611.72C259.27 611.72 259.017 611.767 258.857 611.86C258.697 611.953 258.617 612.073 258.617 612.22C258.617 612.353 258.674 612.453 258.787 612.52C258.907 612.587 259.064 612.64 259.257 612.68C259.45 612.72 259.66 612.757 259.887 612.79C260.12 612.817 260.354 612.86 260.587 612.92C260.82 612.98 261.03 613.067 261.217 613.18C261.41 613.287 261.567 613.437 261.687 613.63C261.807 613.817 261.867 614.063 261.867 614.37C261.867 614.703 261.767 615 261.567 615.26C261.367 615.513 261.077 615.713 260.697 615.86C260.324 616.007 259.867 616.08 259.327 616.08Z" fill="#833177"/>
</svg>
