<svg width="1040" height="183" viewBox="0 0 1040 183" fill="none" xmlns="http://www.w3.org/2000/svg">
<path d="M272.152 16V4.128H274.648V16H272.152ZM276.965 16V7.392H279.461V16H276.965ZM278.213 6.192C277.754 6.192 277.381 6.05867 277.093 5.792C276.805 5.52533 276.661 5.19467 276.661 4.8C276.661 4.40533 276.805 4.07467 277.093 3.808C277.381 3.54133 277.754 3.408 278.213 3.408C278.671 3.408 279.045 3.536 279.333 3.792C279.621 4.03733 279.765 4.35733 279.765 4.752C279.765 5.168 279.621 5.51467 279.333 5.792C279.055 6.05867 278.682 6.192 278.213 6.192ZM286.865 16.128C286.108 16.128 285.457 15.968 284.913 15.648C284.369 15.328 283.953 14.8427 283.665 14.192C283.377 13.5307 283.233 12.6987 283.233 11.696C283.233 10.6827 283.382 9.85067 283.681 9.2C283.99 8.54933 284.417 8.064 284.961 7.744C285.505 7.424 286.14 7.264 286.865 7.264C287.676 7.264 288.401 7.44533 289.041 7.808C289.692 8.17067 290.204 8.68267 290.577 9.344C290.961 10.0053 291.153 10.7893 291.153 11.696C291.153 12.592 290.961 13.3707 290.577 14.032C290.204 14.6933 289.692 15.2107 289.041 15.584C288.401 15.9467 287.676 16.128 286.865 16.128ZM281.777 16V4.128H284.273V9.136L284.113 11.68L284.161 14.24V16H281.777ZM286.433 14.08C286.849 14.08 287.217 13.984 287.537 13.792C287.868 13.6 288.129 13.328 288.321 12.976C288.524 12.6133 288.625 12.1867 288.625 11.696C288.625 11.1947 288.524 10.768 288.321 10.416C288.129 10.064 287.868 9.792 287.537 9.6C287.217 9.408 286.849 9.312 286.433 9.312C286.017 9.312 285.644 9.408 285.313 9.6C284.982 9.792 284.721 10.064 284.529 10.416C284.337 10.768 284.241 11.1947 284.241 11.696C284.241 12.1867 284.337 12.6133 284.529 12.976C284.721 13.328 284.982 13.6 285.313 13.792C285.644 13.984 286.017 14.08 286.433 14.08ZM292.824 16V7.392H295.208V9.824L294.872 9.12C295.128 8.512 295.539 8.05333 296.104 7.744C296.669 7.424 297.357 7.264 298.168 7.264V9.568C298.061 9.55733 297.965 9.552 297.88 9.552C297.795 9.54133 297.704 9.536 297.608 9.536C296.925 9.536 296.371 9.73333 295.944 10.128C295.528 10.512 295.32 11.1147 295.32 11.936V16H292.824ZM303.846 16.128C302.865 16.128 302.001 15.936 301.254 15.552C300.518 15.168 299.947 14.6453 299.542 13.984C299.137 13.312 298.934 12.5493 298.934 11.696C298.934 10.832 299.131 10.0693 299.526 9.408C299.931 8.736 300.481 8.21333 301.174 7.84C301.867 7.456 302.651 7.264 303.526 7.264C304.369 7.264 305.126 7.44533 305.798 7.808C306.481 8.16 307.019 8.672 307.414 9.344C307.809 10.0053 308.006 10.8 308.006 11.728C308.006 11.824 308.001 11.936 307.99 12.064C307.979 12.1813 307.969 12.2933 307.958 12.4H300.966V10.944H306.646L305.686 11.376C305.686 10.928 305.595 10.5387 305.414 10.208C305.233 9.87733 304.982 9.62133 304.662 9.44C304.342 9.248 303.969 9.152 303.542 9.152C303.115 9.152 302.737 9.248 302.406 9.44C302.086 9.62133 301.835 9.88267 301.654 10.224C301.473 10.5547 301.382 10.9493 301.382 11.408V11.792C301.382 12.2613 301.483 12.6773 301.686 13.04C301.899 13.392 302.193 13.664 302.566 13.856C302.95 14.0373 303.398 14.128 303.91 14.128C304.369 14.128 304.769 14.0587 305.11 13.92C305.462 13.7813 305.782 13.5733 306.07 13.296L307.398 14.736C307.003 15.184 306.507 15.5307 305.91 15.776C305.313 16.0107 304.625 16.128 303.846 16.128ZM309.668 16V7.392H312.052V9.824L311.716 9.12C311.972 8.512 312.382 8.05333 312.948 7.744C313.513 7.424 314.201 7.264 315.012 7.264V9.568C314.905 9.55733 314.809 9.552 314.724 9.552C314.638 9.54133 314.548 9.536 314.452 9.536C313.769 9.536 313.214 9.73333 312.788 10.128C312.372 10.512 312.164 11.1147 312.164 11.936V16H309.668ZM316.496 16V7.392H318.992V16H316.496ZM316.288 6.288L318.448 3.984H321.136L318.24 6.288H316.288ZM326.588 16V14.32L326.428 13.952V10.944C326.428 10.4107 326.263 9.99467 325.932 9.696C325.612 9.39733 325.116 9.248 324.444 9.248C323.986 9.248 323.532 9.32267 323.084 9.472C322.647 9.61067 322.274 9.80267 321.964 10.048L321.068 8.304C321.538 7.97333 322.103 7.71733 322.764 7.536C323.426 7.35467 324.098 7.264 324.78 7.264C326.092 7.264 327.111 7.57333 327.836 8.192C328.562 8.81067 328.924 9.776 328.924 11.088V16H326.588ZM323.964 16.128C323.292 16.128 322.716 16.016 322.236 15.792C321.756 15.5573 321.388 15.2427 321.132 14.848C320.876 14.4533 320.748 14.0107 320.748 13.52C320.748 13.008 320.871 12.56 321.116 12.176C321.372 11.792 321.772 11.4933 322.316 11.28C322.86 11.056 323.57 10.944 324.444 10.944H326.732V12.4H324.716C324.13 12.4 323.724 12.496 323.5 12.688C323.287 12.88 323.18 13.12 323.18 13.408C323.18 13.728 323.303 13.984 323.548 14.176C323.804 14.3573 324.151 14.448 324.588 14.448C325.004 14.448 325.378 14.352 325.708 14.16C326.039 13.9573 326.279 13.664 326.428 13.28L326.812 14.432C326.631 14.9867 326.3 15.408 325.82 15.696C325.34 15.984 324.722 16.128 323.964 16.128ZM339.411 16.128C338.6 16.128 337.869 15.9467 337.219 15.584C336.568 15.2107 336.051 14.6933 335.667 14.032C335.293 13.3707 335.107 12.592 335.107 11.696C335.107 10.7893 335.293 10.0053 335.667 9.344C336.051 8.68267 336.568 8.17067 337.219 7.808C337.869 7.44533 338.6 7.264 339.411 7.264C340.136 7.264 340.771 7.424 341.315 7.744C341.859 8.064 342.28 8.54933 342.579 9.2C342.877 9.85067 343.027 10.6827 343.027 11.696C343.027 12.6987 342.883 13.5307 342.595 14.192C342.307 14.8427 341.891 15.328 341.347 15.648C340.813 15.968 340.168 16.128 339.411 16.128ZM339.843 14.08C340.248 14.08 340.616 13.984 340.947 13.792C341.277 13.6 341.539 13.328 341.731 12.976C341.933 12.6133 342.035 12.1867 342.035 11.696C342.035 11.1947 341.933 10.768 341.731 10.416C341.539 10.064 341.277 9.792 340.947 9.6C340.616 9.408 340.248 9.312 339.843 9.312C339.427 9.312 339.053 9.408 338.723 9.6C338.392 9.792 338.125 10.064 337.923 10.416C337.731 10.768 337.635 11.1947 337.635 11.696C337.635 12.1867 337.731 12.6133 337.923 12.976C338.125 13.328 338.392 13.6 338.723 13.792C339.053 13.984 339.427 14.08 339.843 14.08ZM342.099 16V14.24L342.147 11.68L341.987 9.136V4.128H344.483V16H342.099ZM351.065 16.128C350.083 16.128 349.219 15.936 348.473 15.552C347.737 15.168 347.166 14.6453 346.761 13.984C346.355 13.312 346.153 12.5493 346.153 11.696C346.153 10.832 346.35 10.0693 346.745 9.408C347.15 8.736 347.699 8.21333 348.393 7.84C349.086 7.456 349.87 7.264 350.745 7.264C351.587 7.264 352.345 7.44533 353.017 7.808C353.699 8.16 354.238 8.672 354.633 9.344C355.027 10.0053 355.225 10.8 355.225 11.728C355.225 11.824 355.219 11.936 355.209 12.064C355.198 12.1813 355.187 12.2933 355.177 12.4H348.185V10.944H353.865L352.905 11.376C352.905 10.928 352.814 10.5387 352.633 10.208C352.451 9.87733 352.201 9.62133 351.881 9.44C351.561 9.248 351.187 9.152 350.761 9.152C350.334 9.152 349.955 9.248 349.625 9.44C349.305 9.62133 349.054 9.88267 348.873 10.224C348.691 10.5547 348.601 10.9493 348.601 11.408V11.792C348.601 12.2613 348.702 12.6773 348.905 13.04C349.118 13.392 349.411 13.664 349.785 13.856C350.169 14.0373 350.617 14.128 351.129 14.128C351.587 14.128 351.987 14.0587 352.329 13.92C352.681 13.7813 353.001 13.5733 353.289 13.296L354.617 14.736C354.222 15.184 353.726 15.5307 353.129 15.776C352.531 16.0107 351.843 16.128 351.065 16.128ZM365.114 16.128C364.303 16.128 363.572 15.9467 362.922 15.584C362.271 15.2107 361.754 14.6933 361.37 14.032C360.996 13.3707 360.81 12.592 360.81 11.696C360.81 10.7893 360.996 10.0053 361.37 9.344C361.754 8.68267 362.271 8.17067 362.922 7.808C363.572 7.44533 364.303 7.264 365.114 7.264C365.839 7.264 366.474 7.424 367.018 7.744C367.562 8.064 367.983 8.54933 368.282 9.2C368.58 9.85067 368.73 10.6827 368.73 11.696C368.73 12.6987 368.586 13.5307 368.298 14.192C368.01 14.8427 367.594 15.328 367.05 15.648C366.516 15.968 365.871 16.128 365.114 16.128ZM365.546 14.08C365.951 14.08 366.319 13.984 366.65 13.792C366.98 13.6 367.242 13.328 367.434 12.976C367.636 12.6133 367.738 12.1867 367.738 11.696C367.738 11.1947 367.636 10.768 367.434 10.416C367.242 10.064 366.98 9.792 366.65 9.6C366.319 9.408 365.951 9.312 365.546 9.312C365.13 9.312 364.756 9.408 364.426 9.6C364.095 9.792 363.828 10.064 363.626 10.416C363.434 10.768 363.338 11.1947 363.338 11.696C363.338 12.1867 363.434 12.6133 363.626 12.976C363.828 13.328 364.095 13.6 364.426 13.792C364.756 13.984 365.13 14.08 365.546 14.08ZM367.802 16V14.24L367.85 11.68L367.69 9.136V4.128H370.186V16H367.802ZM372.496 16V7.392H374.992V16H372.496ZM373.744 6.192C373.285 6.192 372.912 6.05867 372.624 5.792C372.336 5.52533 372.192 5.19467 372.192 4.8C372.192 4.40533 372.336 4.07467 372.624 3.808C372.912 3.54133 373.285 3.408 373.744 3.408C374.202 3.408 374.576 3.536 374.864 3.792C375.152 4.03733 375.296 4.35733 375.296 4.752C375.296 5.168 375.152 5.51467 374.864 5.792C374.586 6.05867 374.213 6.192 373.744 6.192ZM380.204 16.128C379.468 16.128 378.759 16.0427 378.076 15.872C377.404 15.6907 376.871 15.4667 376.476 15.2L377.308 13.408C377.703 13.6533 378.167 13.856 378.7 14.016C379.244 14.1653 379.778 14.24 380.3 14.24C380.876 14.24 381.282 14.1707 381.516 14.032C381.762 13.8933 381.884 13.7013 381.884 13.456C381.884 13.2533 381.788 13.104 381.596 13.008C381.415 12.9013 381.17 12.8213 380.86 12.768C380.551 12.7147 380.21 12.6613 379.836 12.608C379.474 12.5547 379.106 12.4853 378.732 12.4C378.359 12.304 378.018 12.1653 377.708 11.984C377.399 11.8027 377.148 11.5573 376.956 11.248C376.775 10.9387 376.684 10.5387 376.684 10.048C376.684 9.504 376.839 9.024 377.148 8.608C377.468 8.192 377.927 7.86667 378.524 7.632C379.122 7.38667 379.836 7.264 380.668 7.264C381.255 7.264 381.852 7.328 382.46 7.456C383.068 7.584 383.575 7.77067 383.98 8.016L383.148 9.792C382.732 9.54667 382.311 9.38133 381.884 9.296C381.468 9.2 381.063 9.152 380.668 9.152C380.114 9.152 379.708 9.22667 379.452 9.376C379.196 9.52533 379.068 9.71733 379.068 9.952C379.068 10.1653 379.159 10.3253 379.34 10.432C379.532 10.5387 379.783 10.624 380.092 10.688C380.402 10.752 380.738 10.8107 381.1 10.864C381.474 10.9067 381.847 10.976 382.22 11.072C382.594 11.168 382.93 11.3067 383.228 11.488C383.538 11.6587 383.788 11.8987 383.98 12.208C384.172 12.5067 384.268 12.9013 384.268 13.392C384.268 13.9253 384.108 14.4 383.788 14.816C383.468 15.2213 383.004 15.5413 382.396 15.776C381.799 16.0107 381.068 16.128 380.204 16.128ZM390.08 16.128C389.099 16.128 388.235 15.936 387.488 15.552C386.752 15.168 386.182 14.6453 385.776 13.984C385.371 13.312 385.168 12.5493 385.168 11.696C385.168 10.832 385.366 10.0693 385.76 9.408C386.166 8.736 386.715 8.21333 387.408 7.84C388.102 7.456 388.886 7.264 389.76 7.264C390.603 7.264 391.36 7.44533 392.032 7.808C392.715 8.16 393.254 8.672 393.648 9.344C394.043 10.0053 394.24 10.8 394.24 11.728C394.24 11.824 394.235 11.936 394.224 12.064C394.214 12.1813 394.203 12.2933 394.192 12.4H387.2V10.944H392.88L391.92 11.376C391.92 10.928 391.83 10.5387 391.648 10.208C391.467 9.87733 391.216 9.62133 390.896 9.44C390.576 9.248 390.203 9.152 389.776 9.152C389.35 9.152 388.971 9.248 388.64 9.44C388.32 9.62133 388.07 9.88267 387.888 10.224C387.707 10.5547 387.616 10.9493 387.616 11.408V11.792C387.616 12.2613 387.718 12.6773 387.92 13.04C388.134 13.392 388.427 13.664 388.8 13.856C389.184 14.0373 389.632 14.128 390.144 14.128C390.603 14.128 391.003 14.0587 391.344 13.92C391.696 13.7813 392.016 13.5733 392.304 13.296L393.632 14.736C393.238 15.184 392.742 15.5307 392.144 15.776C391.547 16.0107 390.859 16.128 390.08 16.128ZM401.134 7.264C401.817 7.264 402.425 7.40267 402.958 7.68C403.502 7.94667 403.929 8.36267 404.238 8.928C404.547 9.48267 404.702 10.1973 404.702 11.072V16H402.206V11.456C402.206 10.7627 402.051 10.2507 401.742 9.92C401.443 9.58933 401.017 9.424 400.462 9.424C400.067 9.424 399.71 9.50933 399.39 9.68C399.081 9.84 398.835 10.0907 398.654 10.432C398.483 10.7733 398.398 11.2107 398.398 11.744V16H395.902V7.392H398.286V9.776L397.838 9.056C398.147 8.48 398.59 8.03733 399.166 7.728C399.742 7.41867 400.398 7.264 401.134 7.264ZM401.518 6.336C401.241 6.336 400.995 6.288 400.782 6.192C400.569 6.08533 400.377 5.968 400.206 5.84C400.035 5.70133 399.875 5.584 399.726 5.488C399.577 5.38133 399.427 5.328 399.278 5.328C399.065 5.328 398.889 5.408 398.75 5.568C398.611 5.71733 398.531 5.936 398.51 6.224H397.246C397.267 5.50933 397.443 4.944 397.774 4.528C398.105 4.10133 398.553 3.888 399.118 3.888C399.395 3.888 399.641 3.94133 399.854 4.048C400.067 4.144 400.259 4.26133 400.43 4.4C400.611 4.53867 400.777 4.66133 400.926 4.768C401.075 4.864 401.219 4.912 401.358 4.912C401.582 4.912 401.763 4.83733 401.902 4.688C402.041 4.528 402.115 4.31467 402.126 4.048H403.39C403.379 4.73067 403.203 5.28533 402.862 5.712C402.531 6.128 402.083 6.336 401.518 6.336ZM411.123 16.128C410.206 16.128 409.39 15.936 408.675 15.552C407.971 15.168 407.411 14.6453 406.995 13.984C406.59 13.312 406.387 12.5493 406.387 11.696C406.387 10.832 406.59 10.0693 406.995 9.408C407.411 8.736 407.971 8.21333 408.675 7.84C409.39 7.456 410.206 7.264 411.123 7.264C412.03 7.264 412.84 7.456 413.555 7.84C414.27 8.21333 414.83 8.73067 415.235 9.392C415.64 10.0533 415.843 10.8213 415.843 11.696C415.843 12.5493 415.64 13.312 415.235 13.984C414.83 14.6453 414.27 15.168 413.555 15.552C412.84 15.936 412.03 16.128 411.123 16.128ZM411.123 14.08C411.539 14.08 411.912 13.984 412.243 13.792C412.574 13.6 412.835 13.328 413.027 12.976C413.219 12.6133 413.315 12.1867 413.315 11.696C413.315 11.1947 413.219 10.768 413.027 10.416C412.835 10.064 412.574 9.792 412.243 9.6C411.912 9.408 411.539 9.312 411.123 9.312C410.707 9.312 410.334 9.408 410.003 9.6C409.672 9.792 409.406 10.064 409.203 10.416C409.011 10.768 408.915 11.1947 408.915 11.696C408.915 12.1867 409.011 12.6133 409.203 12.976C409.406 13.328 409.672 13.6 410.003 13.792C410.334 13.984 410.707 14.08 411.123 14.08ZM427.627 16.192C426.741 16.192 425.925 16.0533 425.179 15.776C424.443 15.488 423.797 15.0827 423.243 14.56C422.699 14.0373 422.272 13.424 421.963 12.72C421.664 12.016 421.515 11.2427 421.515 10.4C421.515 9.55733 421.664 8.784 421.963 8.08C422.272 7.376 422.704 6.76267 423.259 6.24C423.813 5.71733 424.464 5.31733 425.211 5.04C425.957 4.752 426.779 4.608 427.675 4.608C428.667 4.608 429.557 4.77333 430.347 5.104C431.147 5.43467 431.819 5.91467 432.363 6.544L430.699 8.08C430.293 7.65333 429.851 7.33867 429.371 7.136C428.891 6.92267 428.368 6.816 427.803 6.816C427.259 6.816 426.763 6.90133 426.315 7.072C425.867 7.24267 425.477 7.488 425.147 7.808C424.827 8.128 424.576 8.50667 424.395 8.944C424.224 9.38133 424.139 9.86667 424.139 10.4C424.139 10.9227 424.224 11.4027 424.395 11.84C424.576 12.2773 424.827 12.6613 425.147 12.992C425.477 13.312 425.861 13.5573 426.299 13.728C426.747 13.8987 427.237 13.984 427.771 13.984C428.283 13.984 428.779 13.904 429.259 13.744C429.749 13.5733 430.224 13.2907 430.683 12.896L432.155 14.768C431.547 15.2267 430.837 15.5787 430.027 15.824C429.227 16.0693 428.427 16.192 427.627 16.192ZM429.787 14.432V10.224H432.155V14.768L429.787 14.432ZM434.562 16V4.8H437.154V13.888H442.77V16H434.562ZM449.054 16.192C447.465 16.192 446.222 15.7493 445.326 14.864C444.43 13.9787 443.982 12.7147 443.982 11.072V4.8H446.574V10.976C446.574 12.0427 446.793 12.8107 447.23 13.28C447.667 13.7493 448.281 13.984 449.07 13.984C449.859 13.984 450.473 13.7493 450.91 13.28C451.347 12.8107 451.566 12.0427 451.566 10.976V4.8H454.126V11.072C454.126 12.7147 453.678 13.9787 452.782 14.864C451.886 15.7493 450.643 16.192 449.054 16.192ZM459.071 9.312H464.463V11.328H459.071V9.312ZM459.263 13.92H465.359V16H456.687V4.8H465.151V6.88H459.263V13.92Z" fill="#833177"/>
<path d="M50 26V36" stroke="#833177" stroke-width="4" stroke-linecap="round"/>
<path d="M50 31H688" stroke="#833177" stroke-width="4" stroke-linecap="round"/>
<path d="M688 26V36" stroke="#833177" stroke-width="4" stroke-linecap="round"/>
<path d="M752.898 16.128C751.981 16.128 751.154 15.9413 750.418 15.568C749.693 15.184 749.122 14.656 748.706 13.984C748.301 13.312 748.098 12.5493 748.098 11.696C748.098 10.8427 748.301 10.08 748.706 9.408C749.122 8.736 749.693 8.21333 750.418 7.84C751.154 7.456 751.981 7.264 752.898 7.264C753.805 7.264 754.594 7.456 755.266 7.84C755.949 8.21333 756.445 8.752 756.754 9.456L754.818 10.496C754.37 9.70667 753.725 9.312 752.882 9.312C752.231 9.312 751.693 9.52533 751.266 9.952C750.839 10.3787 750.626 10.96 750.626 11.696C750.626 12.432 750.839 13.0133 751.266 13.44C751.693 13.8667 752.231 14.08 752.882 14.08C753.735 14.08 754.381 13.6853 754.818 12.896L756.754 13.952C756.445 14.6347 755.949 15.168 755.266 15.552C754.594 15.936 753.805 16.128 752.898 16.128ZM762.178 16.128C761.271 16.128 760.455 15.9413 759.73 15.568C759.015 15.184 758.455 14.656 758.05 13.984C757.644 13.312 757.442 12.5493 757.442 11.696C757.442 10.8427 757.644 10.08 758.05 9.408C758.455 8.736 759.015 8.21333 759.73 7.84C760.455 7.456 761.271 7.264 762.178 7.264C763.084 7.264 763.895 7.456 764.61 7.84C765.324 8.21333 765.884 8.736 766.29 9.408C766.695 10.08 766.898 10.8427 766.898 11.696C766.898 12.5493 766.695 13.312 766.29 13.984C765.884 14.656 765.324 15.184 764.61 15.568C763.895 15.9413 763.084 16.128 762.178 16.128ZM762.178 14.08C762.818 14.08 763.34 13.8667 763.746 13.44C764.162 13.0027 764.37 12.4213 764.37 11.696C764.37 10.9707 764.162 10.3947 763.746 9.968C763.34 9.53067 762.818 9.312 762.178 9.312C761.538 9.312 761.01 9.53067 760.594 9.968C760.178 10.3947 759.97 10.9707 759.97 11.696C759.97 12.4213 760.178 13.0027 760.594 13.44C761.01 13.8667 761.538 14.08 762.178 14.08ZM779.59 7.264C780.667 7.264 781.521 7.584 782.15 8.224C782.79 8.85333 783.11 9.80267 783.11 11.072V16H780.614V11.456C780.614 10.7733 780.47 10.2667 780.182 9.936C779.905 9.59467 779.505 9.424 778.982 9.424C778.395 9.424 777.931 9.616 777.59 10C777.249 10.3733 777.078 10.9333 777.078 11.68V16H774.582V11.456C774.582 10.1013 774.038 9.424 772.95 9.424C772.374 9.424 771.915 9.616 771.574 10C771.233 10.3733 771.062 10.9333 771.062 11.68V16H768.566V7.392H770.95V8.384C771.27 8.02133 771.659 7.744 772.118 7.552C772.587 7.36 773.099 7.264 773.654 7.264C774.262 7.264 774.811 7.38667 775.302 7.632C775.793 7.86667 776.187 8.21333 776.486 8.672C776.838 8.224 777.281 7.87733 777.814 7.632C778.358 7.38667 778.95 7.264 779.59 7.264ZM790.435 7.264C791.235 7.264 791.961 7.45067 792.611 7.824C793.273 8.18667 793.79 8.704 794.163 9.376C794.537 10.0373 794.723 10.8107 794.723 11.696C794.723 12.5813 794.537 13.36 794.163 14.032C793.79 14.6933 793.273 15.2107 792.611 15.584C791.961 15.9467 791.235 16.128 790.435 16.128C789.337 16.128 788.473 15.7813 787.843 15.088V19.104H785.347V7.392H787.731V8.384C788.35 7.63733 789.251 7.264 790.435 7.264ZM790.003 14.08C790.643 14.08 791.166 13.8667 791.571 13.44C791.987 13.0027 792.195 12.4213 792.195 11.696C792.195 10.9707 791.987 10.3947 791.571 9.968C791.166 9.53067 790.643 9.312 790.003 9.312C789.363 9.312 788.835 9.53067 788.419 9.968C788.014 10.3947 787.811 10.9707 787.811 11.696C787.811 12.4213 788.014 13.0027 788.419 13.44C788.835 13.8667 789.363 14.08 790.003 14.08ZM800.49 16.128C799.584 16.128 798.768 15.9413 798.042 15.568C797.328 15.184 796.768 14.656 796.362 13.984C795.957 13.312 795.754 12.5493 795.754 11.696C795.754 10.8427 795.957 10.08 796.362 9.408C796.768 8.736 797.328 8.21333 798.042 7.84C798.768 7.456 799.584 7.264 800.49 7.264C801.397 7.264 802.208 7.456 802.922 7.84C803.637 8.21333 804.197 8.736 804.602 9.408C805.008 10.08 805.21 10.8427 805.21 11.696C805.21 12.5493 805.008 13.312 804.602 13.984C804.197 14.656 803.637 15.184 802.922 15.568C802.208 15.9413 801.397 16.128 800.49 16.128ZM800.49 14.08C801.13 14.08 801.653 13.8667 802.058 13.44C802.474 13.0027 802.682 12.4213 802.682 11.696C802.682 10.9707 802.474 10.3947 802.058 9.968C801.653 9.53067 801.13 9.312 800.49 9.312C799.85 9.312 799.322 9.53067 798.906 9.968C798.49 10.3947 798.282 10.9707 798.282 11.696C798.282 12.4213 798.49 13.0027 798.906 13.44C799.322 13.8667 799.85 14.08 800.49 14.08ZM812.111 7.264C813.177 7.264 814.036 7.584 814.687 8.224C815.348 8.864 815.679 9.81333 815.679 11.072V16H813.183V11.456C813.183 10.7733 813.033 10.2667 812.735 9.936C812.436 9.59467 812.004 9.424 811.439 9.424C810.809 9.424 810.308 9.62133 809.935 10.016C809.561 10.4 809.375 10.976 809.375 11.744V16H806.879V7.392H809.263V8.4C809.593 8.03733 810.004 7.76 810.495 7.568C810.985 7.36533 811.524 7.264 812.111 7.264ZM826.467 11.728C826.467 11.76 826.451 11.984 826.419 12.4H819.907C820.024 12.9333 820.301 13.3547 820.739 13.664C821.176 13.9733 821.72 14.128 822.371 14.128C822.819 14.128 823.213 14.064 823.555 13.936C823.907 13.7973 824.232 13.584 824.531 13.296L825.859 14.736C825.048 15.664 823.864 16.128 822.307 16.128C821.336 16.128 820.477 15.9413 819.731 15.568C818.984 15.184 818.408 14.656 818.003 13.984C817.597 13.312 817.395 12.5493 817.395 11.696C817.395 10.8533 817.592 10.096 817.987 9.424C818.392 8.74133 818.941 8.21333 819.635 7.84C820.339 7.456 821.123 7.264 821.987 7.264C822.829 7.264 823.592 7.44533 824.275 7.808C824.957 8.17067 825.491 8.69333 825.875 9.376C826.269 10.048 826.467 10.832 826.467 11.728ZM822.003 9.152C821.437 9.152 820.963 9.312 820.579 9.632C820.195 9.952 819.96 10.3893 819.875 10.944H824.115C824.029 10.4 823.795 9.968 823.411 9.648C823.027 9.31733 822.557 9.152 822.003 9.152ZM833.361 7.264C834.427 7.264 835.286 7.584 835.937 8.224C836.598 8.864 836.929 9.81333 836.929 11.072V16H834.433V11.456C834.433 10.7733 834.283 10.2667 833.985 9.936C833.686 9.59467 833.254 9.424 832.689 9.424C832.059 9.424 831.558 9.62133 831.185 10.016C830.811 10.4 830.625 10.976 830.625 11.744V16H828.129V7.392H830.513V8.4C830.843 8.03733 831.254 7.76 831.745 7.568C832.235 7.36533 832.774 7.264 833.361 7.264ZM844.743 15.584C844.498 15.7653 844.194 15.904 843.831 16C843.479 16.0853 843.106 16.128 842.711 16.128C841.687 16.128 840.892 15.8667 840.327 15.344C839.772 14.8213 839.495 14.0533 839.495 13.04V9.504H838.167V7.584H839.495V5.488H841.991V7.584H844.135V9.504H841.991V13.008C841.991 13.3707 842.082 13.6533 842.263 13.856C842.455 14.048 842.722 14.144 843.063 14.144C843.458 14.144 843.794 14.0373 844.071 13.824L844.743 15.584ZM854.311 11.728C854.311 11.76 854.295 11.984 854.263 12.4H847.751C847.868 12.9333 848.145 13.3547 848.583 13.664C849.02 13.9733 849.564 14.128 850.215 14.128C850.663 14.128 851.057 14.064 851.399 13.936C851.751 13.7973 852.076 13.584 852.375 13.296L853.703 14.736C852.892 15.664 851.708 16.128 850.151 16.128C849.18 16.128 848.321 15.9413 847.575 15.568C846.828 15.184 846.252 14.656 845.847 13.984C845.441 13.312 845.239 12.5493 845.239 11.696C845.239 10.8533 845.436 10.096 845.831 9.424C846.236 8.74133 846.785 8.21333 847.479 7.84C848.183 7.456 848.967 7.264 849.831 7.264C850.673 7.264 851.436 7.44533 852.119 7.808C852.801 8.17067 853.335 8.69333 853.719 9.376C854.113 10.048 854.311 10.832 854.311 11.728ZM849.847 9.152C849.281 9.152 848.807 9.312 848.423 9.632C848.039 9.952 847.804 10.3893 847.719 10.944H851.959C851.873 10.4 851.639 9.968 851.255 9.648C850.871 9.31733 850.401 9.152 849.847 9.152ZM858.868 16.128C858.154 16.128 857.455 16.0427 856.772 15.872C856.09 15.6907 855.546 15.4667 855.14 15.2L855.972 13.408C856.356 13.6533 856.82 13.856 857.364 14.016C857.908 14.1653 858.442 14.24 858.964 14.24C860.02 14.24 860.548 13.9787 860.548 13.456C860.548 13.2107 860.404 13.0347 860.116 12.928C859.828 12.8213 859.386 12.7307 858.788 12.656C858.084 12.5493 857.503 12.4267 857.044 12.288C856.586 12.1493 856.186 11.904 855.844 11.552C855.514 11.2 855.348 10.6987 855.348 10.048C855.348 9.504 855.503 9.024 855.812 8.608C856.132 8.18133 856.591 7.85067 857.188 7.616C857.796 7.38133 858.511 7.264 859.332 7.264C859.94 7.264 860.543 7.33333 861.14 7.472C861.748 7.6 862.25 7.78133 862.644 8.016L861.812 9.792C861.055 9.36533 860.228 9.152 859.332 9.152C858.799 9.152 858.399 9.22667 858.132 9.376C857.866 9.52533 857.732 9.71733 857.732 9.952C857.732 10.2187 857.876 10.4053 858.164 10.512C858.452 10.6187 858.911 10.72 859.54 10.816C860.244 10.9333 860.82 11.0613 861.268 11.2C861.716 11.328 862.106 11.568 862.436 11.92C862.767 12.272 862.932 12.7627 862.932 13.392C862.932 13.9253 862.772 14.4 862.452 14.816C862.132 15.232 861.663 15.5573 861.044 15.792C860.436 16.016 859.711 16.128 858.868 16.128ZM873.535 4.128H876.031V16H873.535V4.128ZM882.443 16.128C881.537 16.128 880.721 15.9413 879.995 15.568C879.281 15.184 878.721 14.656 878.315 13.984C877.91 13.312 877.707 12.5493 877.707 11.696C877.707 10.8427 877.91 10.08 878.315 9.408C878.721 8.736 879.281 8.21333 879.995 7.84C880.721 7.456 881.537 7.264 882.443 7.264C883.35 7.264 884.161 7.456 884.875 7.84C885.59 8.21333 886.15 8.736 886.555 9.408C886.961 10.08 887.163 10.8427 887.163 11.696C887.163 12.5493 886.961 13.312 886.555 13.984C886.15 14.656 885.59 15.184 884.875 15.568C884.161 15.9413 883.35 16.128 882.443 16.128ZM882.443 14.08C883.083 14.08 883.606 13.8667 884.011 13.44C884.427 13.0027 884.635 12.4213 884.635 11.696C884.635 10.9707 884.427 10.3947 884.011 9.968C883.606 9.53067 883.083 9.312 882.443 9.312C881.803 9.312 881.275 9.53067 880.859 9.968C880.443 10.3947 880.235 10.9707 880.235 11.696C880.235 12.4213 880.443 13.0027 880.859 13.44C881.275 13.8667 881.803 14.08 882.443 14.08ZM892.992 16.128C892.074 16.128 891.248 15.9413 890.512 15.568C889.786 15.184 889.216 14.656 888.8 13.984C888.394 13.312 888.192 12.5493 888.192 11.696C888.192 10.8427 888.394 10.08 888.8 9.408C889.216 8.736 889.786 8.21333 890.512 7.84C891.248 7.456 892.074 7.264 892.992 7.264C893.898 7.264 894.688 7.456 895.36 7.84C896.042 8.21333 896.538 8.752 896.848 9.456L894.912 10.496C894.464 9.70667 893.818 9.312 892.976 9.312C892.325 9.312 891.786 9.52533 891.36 9.952C890.933 10.3787 890.72 10.96 890.72 11.696C890.72 12.432 890.933 13.0133 891.36 13.44C891.786 13.8667 892.325 14.08 892.976 14.08C893.829 14.08 894.474 13.6853 894.912 12.896L896.848 13.952C896.538 14.6347 896.042 15.168 895.36 15.552C894.688 15.936 893.898 16.128 892.992 16.128ZM901.757 7.264C903.09 7.264 904.114 7.584 904.829 8.224C905.543 8.85333 905.901 9.808 905.901 11.088V16H903.565V14.928C903.095 15.728 902.221 16.128 900.941 16.128C900.279 16.128 899.703 16.016 899.213 15.792C898.733 15.568 898.365 15.2587 898.109 14.864C897.853 14.4693 897.725 14.0213 897.725 13.52C897.725 12.72 898.023 12.0907 898.621 11.632C899.229 11.1733 900.162 10.944 901.421 10.944H903.405C903.405 10.4 903.239 9.984 902.909 9.696C902.578 9.39733 902.082 9.248 901.421 9.248C900.962 9.248 900.509 9.32267 900.061 9.472C899.623 9.61067 899.25 9.80267 898.941 10.048L898.045 8.304C898.514 7.97333 899.074 7.71733 899.725 7.536C900.386 7.35467 901.063 7.264 901.757 7.264ZM901.565 14.448C901.991 14.448 902.37 14.352 902.701 14.16C903.031 13.9573 903.266 13.664 903.405 13.28V12.4H901.693C900.669 12.4 900.157 12.736 900.157 13.408C900.157 13.728 900.279 13.984 900.525 14.176C900.781 14.3573 901.127 14.448 901.565 14.448ZM908.16 4.128H910.656V16H908.16V4.128ZM921.404 11.728C921.404 11.76 921.388 11.984 921.356 12.4H914.844C914.962 12.9333 915.239 13.3547 915.676 13.664C916.114 13.9733 916.658 14.128 917.308 14.128C917.756 14.128 918.151 14.064 918.492 13.936C918.844 13.7973 919.17 13.584 919.468 13.296L920.796 14.736C919.986 15.664 918.802 16.128 917.244 16.128C916.274 16.128 915.415 15.9413 914.668 15.568C913.922 15.184 913.346 14.656 912.94 13.984C912.535 13.312 912.332 12.5493 912.332 11.696C912.332 10.8533 912.53 10.096 912.924 9.424C913.33 8.74133 913.879 8.21333 914.572 7.84C915.276 7.456 916.06 7.264 916.924 7.264C917.767 7.264 918.53 7.44533 919.212 7.808C919.895 8.17067 920.428 8.69333 920.812 9.376C921.207 10.048 921.404 10.832 921.404 11.728ZM916.94 9.152C916.375 9.152 915.9 9.312 915.516 9.632C915.132 9.952 914.898 10.3893 914.812 10.944H919.052C918.967 10.4 918.732 9.968 918.348 9.648C917.964 9.31733 917.495 9.152 916.94 9.152ZM925.962 16.128C925.247 16.128 924.549 16.0427 923.866 15.872C923.183 15.6907 922.639 15.4667 922.234 15.2L923.066 13.408C923.45 13.6533 923.914 13.856 924.458 14.016C925.002 14.1653 925.535 14.24 926.058 14.24C927.114 14.24 927.642 13.9787 927.642 13.456C927.642 13.2107 927.498 13.0347 927.21 12.928C926.922 12.8213 926.479 12.7307 925.882 12.656C925.178 12.5493 924.597 12.4267 924.138 12.288C923.679 12.1493 923.279 11.904 922.938 11.552C922.607 11.2 922.442 10.6987 922.442 10.048C922.442 9.504 922.597 9.024 922.906 8.608C923.226 8.18133 923.685 7.85067 924.282 7.616C924.89 7.38133 925.605 7.264 926.426 7.264C927.034 7.264 927.637 7.33333 928.234 7.472C928.842 7.6 929.343 7.78133 929.738 8.016L928.906 9.792C928.149 9.36533 927.322 9.152 926.426 9.152C925.893 9.152 925.493 9.22667 925.226 9.376C924.959 9.52533 924.826 9.71733 924.826 9.952C924.826 10.2187 924.97 10.4053 925.258 10.512C925.546 10.6187 926.005 10.72 926.634 10.816C927.338 10.9333 927.914 11.0613 928.362 11.2C928.81 11.328 929.199 11.568 929.53 11.92C929.861 12.272 930.026 12.7627 930.026 13.392C930.026 13.9253 929.866 14.4 929.546 14.816C929.226 15.232 928.757 15.5573 928.138 15.792C927.53 16.016 926.805 16.128 925.962 16.128Z" fill="#833177"/>
<path d="M688 26V36" stroke="#833177" stroke-width="4" stroke-linecap="round"/>
<path d="M688 31H990" stroke="#833177" stroke-width="4" stroke-linecap="round"/>
<path d="M990 26V36" stroke="#833177" stroke-width="4" stroke-linecap="round"/>
<path d="M87.996 63V54.6H89.94V63H87.996ZM96.9735 63.144C96.3095 63.144 95.6935 63.036 95.1255 62.82C94.5655 62.604 94.0775 62.3 93.6615 61.908C93.2535 61.516 92.9335 61.056 92.7015 60.528C92.4775 60 92.3655 59.424 92.3655 58.8C92.3655 58.176 92.4775 57.6 92.7015 57.072C92.9335 56.544 93.2575 56.084 93.6735 55.692C94.0895 55.3 94.5775 54.996 95.1375 54.78C95.6975 54.564 96.3055 54.456 96.9615 54.456C97.6255 54.456 98.2335 54.564 98.7855 54.78C99.3455 54.996 99.8295 55.3 100.238 55.692C100.654 56.084 100.978 56.544 101.21 57.072C101.442 57.592 101.558 58.168 101.558 58.8C101.558 59.424 101.442 60.004 101.21 60.54C100.978 61.068 100.654 61.528 100.238 61.92C99.8295 62.304 99.3455 62.604 98.7855 62.82C98.2335 63.036 97.6295 63.144 96.9735 63.144ZM96.9615 61.488C97.3375 61.488 97.6815 61.424 97.9935 61.296C98.3135 61.168 98.5935 60.984 98.8335 60.744C99.0735 60.504 99.2575 60.22 99.3855 59.892C99.5215 59.564 99.5895 59.2 99.5895 58.8C99.5895 58.4 99.5215 58.036 99.3855 57.708C99.2575 57.38 99.0735 57.096 98.8335 56.856C98.6015 56.616 98.3255 56.432 98.0055 56.304C97.6855 56.176 97.3375 56.112 96.9615 56.112C96.5855 56.112 96.2375 56.176 95.9175 56.304C95.6055 56.432 95.3295 56.616 95.0895 56.856C94.8495 57.096 94.6615 57.38 94.5255 57.708C94.3975 58.036 94.3335 58.4 94.3335 58.8C94.3335 59.192 94.3975 59.556 94.5255 59.892C94.6615 60.22 94.8455 60.504 95.0775 60.744C95.3175 60.984 95.5975 61.168 95.9175 61.296C96.2375 61.424 96.5855 61.488 96.9615 61.488ZM95.8695 53.916L97.4895 52.188H99.5055L97.3335 53.916H95.8695ZM103.979 63V54.6H105.587L110.543 60.648H109.763V54.6H111.683V63H110.087L105.119 56.952H105.899V63H103.979Z" fill="#333333"/>
<mask id="mask0_1191_13951" style="mask-type:alpha" maskUnits="userSpaceOnUse" x="77" y="79" width="46" height="46">
<rect x="77.5" y="79.5" width="45" height="45" fill="#D9D9D9"/>
</mask>
<g mask="url(#mask0_1191_13951)">
<path d="M88.75 117C87.7188 117 86.8359 116.632 86.1016 115.898C85.3672 115.164 85 114.281 85 113.25C85 112.218 85.3672 111.335 86.1016 110.601C86.8359 109.867 87.7188 109.5 88.75 109.5C89.7812 109.5 90.6641 109.867 91.3984 110.601C92.1328 111.335 92.5 112.218 92.5 113.25C92.5 114.281 92.1328 115.164 91.3984 115.898C90.6641 116.632 89.7812 117 88.75 117ZM100 117C98.9688 117 98.0859 116.632 97.3516 115.898C96.6172 115.164 96.25 114.281 96.25 113.25C96.25 112.218 96.6172 111.335 97.3516 110.601C98.0859 109.867 98.9688 109.5 100 109.5C101.031 109.5 101.914 109.867 102.648 110.601C103.383 111.335 103.75 112.218 103.75 113.25C103.75 114.281 103.383 115.164 102.648 115.898C101.914 116.632 101.031 117 100 117ZM111.25 117C110.219 117 109.336 116.632 108.602 115.898C107.867 115.164 107.5 114.281 107.5 113.25C107.5 112.218 107.867 111.335 108.602 110.601C109.336 109.867 110.219 109.5 111.25 109.5C112.281 109.5 113.164 109.867 113.898 110.601C114.633 111.335 115 112.218 115 113.25C115 114.281 114.633 115.164 113.898 115.898C113.164 116.632 112.281 117 111.25 117ZM88.75 105.75C87.7188 105.75 86.8359 105.382 86.1016 104.648C85.3672 103.914 85 103.031 85 102C85 100.968 85.3672 100.085 86.1016 99.3511C86.8359 98.6167 87.7188 98.2495 88.75 98.2495C89.7812 98.2495 90.6641 98.6167 91.3984 99.3511C92.1328 100.085 92.5 100.968 92.5 102C92.5 103.031 92.1328 103.914 91.3984 104.648C90.6641 105.382 89.7812 105.75 88.75 105.75ZM100 105.75C98.9688 105.75 98.0859 105.382 97.3516 104.648C96.6172 103.914 96.25 103.031 96.25 102C96.25 100.968 96.6172 100.085 97.3516 99.3511C98.0859 98.6167 98.9688 98.2495 100 98.2495C101.031 98.2495 101.914 98.6167 102.648 99.3511C103.383 100.085 103.75 100.968 103.75 102C103.75 103.031 103.383 103.914 102.648 104.648C101.914 105.382 101.031 105.75 100 105.75ZM111.25 105.75C110.219 105.75 109.336 105.382 108.602 104.648C107.867 103.914 107.5 103.031 107.5 102C107.5 100.968 107.867 100.085 108.602 99.3511C109.336 98.6167 110.219 98.2495 111.25 98.2495C112.281 98.2495 113.164 98.6167 113.898 99.3511C114.633 100.085 115 100.968 115 102C115 103.031 114.633 103.914 113.898 104.648C113.164 105.382 112.281 105.75 111.25 105.75ZM88.75 94.4995C87.7188 94.4995 86.8359 94.1323 86.1016 93.3979C85.3672 92.6636 85 91.7808 85 90.7495C85 89.7183 85.3672 88.8354 86.1016 88.1011C86.8359 87.3667 87.7188 86.9995 88.75 86.9995C89.7812 86.9995 90.6641 87.3667 91.3984 88.1011C92.1328 88.8354 92.5 89.7183 92.5 90.7495C92.5 91.7808 92.1328 92.6636 91.3984 93.3979C90.6641 94.1323 89.7812 94.4995 88.75 94.4995ZM100 94.4995C98.9688 94.4995 98.0859 94.1323 97.3516 93.3979C96.6172 92.6636 96.25 91.7808 96.25 90.7495C96.25 89.7183 96.6172 88.8354 97.3516 88.1011C98.0859 87.3667 98.9688 86.9995 100 86.9995C101.031 86.9995 101.914 87.3667 102.648 88.1011C103.383 88.8354 103.75 89.7183 103.75 90.7495C103.75 91.7808 103.383 92.6636 102.648 93.3979C101.914 94.1323 101.031 94.4995 100 94.4995ZM111.25 94.4995C110.219 94.4995 109.336 94.1323 108.602 93.3979C107.867 92.6636 107.5 91.7808 107.5 90.7495C107.5 89.7183 107.867 88.8354 108.602 88.1011C109.336 87.3667 110.219 86.9995 111.25 86.9995C112.281 86.9995 113.164 87.3667 113.898 88.1011C114.633 88.8354 115 89.7183 115 90.7495C115 91.7808 114.633 92.6636 113.898 93.3979C113.164 94.1323 112.281 94.4995 111.25 94.4995Z" fill="#833177"/>
</g>
<path d="M235.528 61.2H231.628L230.884 63H228.892L232.636 54.6H234.556L238.312 63H236.272L235.528 61.2ZM234.916 59.724L233.584 56.508L232.252 59.724H234.916ZM234.124 52.188H236.14L233.968 53.916H232.504L234.124 52.188ZM241.462 56.184H238.774V54.6H246.094V56.184H243.406V63H241.462V56.184ZM252.05 63.144C251.178 63.144 250.39 62.956 249.686 62.58C248.99 62.204 248.442 61.688 248.042 61.032C247.65 60.368 247.454 59.624 247.454 58.8C247.454 57.976 247.65 57.236 248.042 56.58C248.442 55.916 248.99 55.396 249.686 55.02C250.39 54.644 251.178 54.456 252.05 54.456C252.922 54.456 253.706 54.644 254.402 55.02C255.098 55.396 255.646 55.916 256.046 56.58C256.446 57.236 256.646 57.976 256.646 58.8C256.646 59.624 256.446 60.368 256.046 61.032C255.646 61.688 255.098 62.204 254.402 62.58C253.706 62.956 252.922 63.144 252.05 63.144ZM252.05 61.488C252.546 61.488 252.994 61.376 253.394 61.152C253.794 60.92 254.106 60.6 254.33 60.192C254.562 59.784 254.678 59.32 254.678 58.8C254.678 58.28 254.562 57.816 254.33 57.408C254.106 57 253.794 56.684 253.394 56.46C252.994 56.228 252.546 56.112 252.05 56.112C251.554 56.112 251.106 56.228 250.706 56.46C250.306 56.684 249.99 57 249.758 57.408C249.534 57.816 249.422 58.28 249.422 58.8C249.422 59.32 249.534 59.784 249.758 60.192C249.99 60.6 250.306 60.92 250.706 61.152C251.106 61.376 251.554 61.488 252.05 61.488ZM266.711 63L266.699 57.96L264.227 62.112H263.351L260.891 58.068V63H259.067V54.6H260.675L263.819 59.82L266.915 54.6H268.511L268.535 63H266.711ZM275.556 63.144C274.684 63.144 273.896 62.956 273.192 62.58C272.496 62.204 271.948 61.688 271.548 61.032C271.156 60.368 270.96 59.624 270.96 58.8C270.96 57.976 271.156 57.236 271.548 56.58C271.948 55.916 272.496 55.396 273.192 55.02C273.896 54.644 274.684 54.456 275.556 54.456C276.428 54.456 277.212 54.644 277.908 55.02C278.604 55.396 279.152 55.916 279.552 56.58C279.952 57.236 280.152 57.976 280.152 58.8C280.152 59.624 279.952 60.368 279.552 61.032C279.152 61.688 278.604 62.204 277.908 62.58C277.212 62.956 276.428 63.144 275.556 63.144ZM275.556 61.488C276.052 61.488 276.5 61.376 276.9 61.152C277.3 60.92 277.612 60.6 277.836 60.192C278.068 59.784 278.184 59.32 278.184 58.8C278.184 58.28 278.068 57.816 277.836 57.408C277.612 57 277.3 56.684 276.9 56.46C276.5 56.228 276.052 56.112 275.556 56.112C275.06 56.112 274.612 56.228 274.212 56.46C273.812 56.684 273.496 57 273.264 57.408C273.04 57.816 272.928 58.28 272.928 58.8C272.928 59.32 273.04 59.784 273.264 60.192C273.496 60.6 273.812 60.92 274.212 61.152C274.612 61.376 275.06 61.488 275.556 61.488Z" fill="#333333"/>
<mask id="mask1_1191_13951" style="mask-type:alpha" maskUnits="userSpaceOnUse" x="232" y="79" width="46" height="46">
<rect x="232.5" y="79.5" width="45" height="45" fill="#D9D9D9"/>
</mask>
<g mask="url(#mask1_1191_13951)">
<path d="M251.25 100.125C251.781 100.125 252.227 99.9453 252.586 99.5859C252.945 99.2266 253.125 98.7812 253.125 98.25C253.125 97.7188 252.945 97.2734 252.586 96.9141C252.227 96.5547 251.781 96.375 251.25 96.375C250.719 96.375 250.273 96.5547 249.914 96.9141C249.555 97.2734 249.375 97.7188 249.375 98.25C249.375 98.7812 249.555 99.2266 249.914 99.5859C250.273 99.9453 250.719 100.125 251.25 100.125ZM251.25 107.625C251.781 107.625 252.227 107.445 252.586 107.086C252.945 106.727 253.125 106.281 253.125 105.75C253.125 105.219 252.945 104.773 252.586 104.414C252.227 104.055 251.781 103.875 251.25 103.875C250.719 103.875 250.273 104.055 249.914 104.414C249.555 104.773 249.375 105.219 249.375 105.75C249.375 106.281 249.555 106.727 249.914 107.086C250.273 107.445 250.719 107.625 251.25 107.625ZM245.625 99.1875C245.875 99.1875 246.094 99.0938 246.281 98.9063C246.469 98.7188 246.562 98.5 246.562 98.25C246.562 98 246.469 97.7812 246.281 97.5938C246.094 97.4062 245.875 97.3125 245.625 97.3125C245.375 97.3125 245.156 97.4062 244.969 97.5938C244.781 97.7812 244.688 98 244.688 98.25C244.688 98.5 244.781 98.7188 244.969 98.9063C245.156 99.0938 245.375 99.1875 245.625 99.1875ZM251.25 112.312C251.5 112.312 251.719 112.219 251.906 112.031C252.094 111.844 252.188 111.625 252.188 111.375C252.188 111.125 252.094 110.906 251.906 110.719C251.719 110.531 251.5 110.438 251.25 110.438C251 110.438 250.781 110.531 250.594 110.719C250.406 110.906 250.312 111.125 250.312 111.375C250.312 111.625 250.406 111.844 250.594 112.031C250.781 112.219 251 112.312 251.25 112.312ZM245.625 106.688C245.875 106.688 246.094 106.594 246.281 106.406C246.469 106.219 246.562 106 246.562 105.75C246.562 105.5 246.469 105.281 246.281 105.094C246.094 104.906 245.875 104.812 245.625 104.812C245.375 104.812 245.156 104.906 244.969 105.094C244.781 105.281 244.688 105.5 244.688 105.75C244.688 106 244.781 106.219 244.969 106.406C245.156 106.594 245.375 106.688 245.625 106.688ZM251.25 93.5625C251.5 93.5625 251.719 93.4688 251.906 93.2812C252.094 93.0938 252.188 92.875 252.188 92.625C252.188 92.375 252.094 92.1562 251.906 91.9688C251.719 91.7812 251.5 91.6875 251.25 91.6875C251 91.6875 250.781 91.7812 250.594 91.9688C250.406 92.1562 250.312 92.375 250.312 92.625C250.312 92.875 250.406 93.0938 250.594 93.2812C250.781 93.4688 251 93.5625 251.25 93.5625ZM258.75 100.125C259.281 100.125 259.727 99.9453 260.086 99.5859C260.445 99.2266 260.625 98.7812 260.625 98.25C260.625 97.7188 260.445 97.2734 260.086 96.9141C259.727 96.5547 259.281 96.375 258.75 96.375C258.219 96.375 257.773 96.5547 257.414 96.9141C257.055 97.2734 256.875 97.7188 256.875 98.25C256.875 98.7812 257.055 99.2266 257.414 99.5859C257.773 99.9453 258.219 100.125 258.75 100.125ZM258.75 93.5625C259 93.5625 259.219 93.4688 259.406 93.2812C259.594 93.0938 259.688 92.875 259.688 92.625C259.688 92.375 259.594 92.1562 259.406 91.9688C259.219 91.7812 259 91.6875 258.75 91.6875C258.5 91.6875 258.281 91.7812 258.094 91.9688C257.906 92.1562 257.812 92.375 257.812 92.625C257.812 92.875 257.906 93.0938 258.094 93.2812C258.281 93.4688 258.5 93.5625 258.75 93.5625ZM264.375 106.688C264.625 106.688 264.844 106.594 265.031 106.406C265.219 106.219 265.312 106 265.312 105.75C265.312 105.5 265.219 105.281 265.031 105.094C264.844 104.906 264.625 104.812 264.375 104.812C264.125 104.812 263.906 104.906 263.719 105.094C263.531 105.281 263.438 105.5 263.438 105.75C263.438 106 263.531 106.219 263.719 106.406C263.906 106.594 264.125 106.688 264.375 106.688ZM264.375 99.1875C264.625 99.1875 264.844 99.0938 265.031 98.9063C265.219 98.7188 265.312 98.5 265.312 98.25C265.312 98 265.219 97.7812 265.031 97.5938C264.844 97.4062 264.625 97.3125 264.375 97.3125C264.125 97.3125 263.906 97.4062 263.719 97.5938C263.531 97.7812 263.438 98 263.438 98.25C263.438 98.5 263.531 98.7188 263.719 98.9063C263.906 99.0938 264.125 99.1875 264.375 99.1875ZM255 120.75C252.406 120.75 249.969 120.258 247.688 119.273C245.406 118.289 243.422 116.953 241.734 115.266C240.047 113.578 238.711 111.594 237.727 109.313C236.742 107.031 236.25 104.594 236.25 102C236.25 99.4062 236.742 96.9688 237.727 94.6875C238.711 92.4062 240.047 90.4219 241.734 88.7344C243.422 87.0469 245.406 85.7109 247.688 84.7266C249.969 83.7422 252.406 83.25 255 83.25C257.594 83.25 260.031 83.7422 262.313 84.7266C264.594 85.7109 266.578 87.0469 268.266 88.7344C269.953 90.4219 271.289 92.4062 272.273 94.6875C273.258 96.9688 273.75 99.4062 273.75 102C273.75 104.594 273.258 107.031 272.273 109.313C271.289 111.594 269.953 113.578 268.266 115.266C266.578 116.953 264.594 118.289 262.313 119.273C260.031 120.258 257.594 120.75 255 120.75ZM255 117C259.188 117 262.734 115.547 265.641 112.641C268.547 109.734 270 106.188 270 102C270 97.8125 268.547 94.2656 265.641 91.3594C262.734 88.4531 259.188 87 255 87C250.812 87 247.266 88.4531 244.359 91.3594C241.453 94.2656 240 97.8125 240 102C240 106.188 241.453 109.734 244.359 112.641C247.266 115.547 250.812 117 255 117ZM258.75 112.312C259 112.312 259.219 112.219 259.406 112.031C259.594 111.844 259.688 111.625 259.688 111.375C259.688 111.125 259.594 110.906 259.406 110.719C259.219 110.531 259 110.438 258.75 110.438C258.5 110.438 258.281 110.531 258.094 110.719C257.906 110.906 257.812 111.125 257.812 111.375C257.812 111.625 257.906 111.844 258.094 112.031C258.281 112.219 258.5 112.312 258.75 112.312ZM258.75 107.625C259.281 107.625 259.727 107.445 260.086 107.086C260.445 106.727 260.625 106.281 260.625 105.75C260.625 105.219 260.445 104.773 260.086 104.414C259.727 104.055 259.281 103.875 258.75 103.875C258.219 103.875 257.773 104.055 257.414 104.414C257.055 104.773 256.875 105.219 256.875 105.75C256.875 106.281 257.055 106.727 257.414 107.086C257.773 107.445 258.219 107.625 258.75 107.625Z" fill="#833177"/>
</g>
<path d="M380.996 63V54.6H382.604L386.18 60.528H385.328L388.844 54.6H390.44L390.464 63H388.64L388.628 57.396H388.964L386.156 62.112H385.28L382.412 57.396H382.82V63H380.996ZM397.497 63.144C396.833 63.144 396.217 63.036 395.649 62.82C395.089 62.604 394.601 62.3 394.185 61.908C393.777 61.516 393.457 61.056 393.225 60.528C393.001 60 392.889 59.424 392.889 58.8C392.889 58.176 393.001 57.6 393.225 57.072C393.457 56.544 393.781 56.084 394.197 55.692C394.613 55.3 395.101 54.996 395.661 54.78C396.221 54.564 396.829 54.456 397.485 54.456C398.149 54.456 398.757 54.564 399.309 54.78C399.869 54.996 400.353 55.3 400.761 55.692C401.177 56.084 401.501 56.544 401.733 57.072C401.965 57.592 402.081 58.168 402.081 58.8C402.081 59.424 401.965 60.004 401.733 60.54C401.501 61.068 401.177 61.528 400.761 61.92C400.353 62.304 399.869 62.604 399.309 62.82C398.757 63.036 398.153 63.144 397.497 63.144ZM397.485 61.488C397.861 61.488 398.205 61.424 398.517 61.296C398.837 61.168 399.117 60.984 399.357 60.744C399.597 60.504 399.781 60.22 399.909 59.892C400.045 59.564 400.113 59.2 400.113 58.8C400.113 58.4 400.045 58.036 399.909 57.708C399.781 57.38 399.597 57.096 399.357 56.856C399.125 56.616 398.849 56.432 398.529 56.304C398.209 56.176 397.861 56.112 397.485 56.112C397.109 56.112 396.761 56.176 396.441 56.304C396.129 56.432 395.853 56.616 395.613 56.856C395.373 57.096 395.185 57.38 395.049 57.708C394.921 58.036 394.857 58.4 394.857 58.8C394.857 59.192 394.921 59.556 395.049 59.892C395.185 60.22 395.369 60.504 395.601 60.744C395.841 60.984 396.121 61.168 396.441 61.296C396.761 61.424 397.109 61.488 397.485 61.488ZM404.502 63V54.6H406.446V61.416H410.658V63H404.502ZM414.492 57.984H418.536V59.496H414.492V57.984ZM414.636 61.44H419.208V63H412.704V54.6H419.052V56.16H414.636V61.44ZM414.792 53.916L416.412 52.188H418.428L416.256 53.916H414.792ZM425.735 63.144C425.087 63.144 424.483 63.04 423.923 62.832C423.371 62.616 422.891 62.312 422.483 61.92C422.075 61.528 421.755 61.068 421.523 60.54C421.299 60.012 421.187 59.432 421.187 58.8C421.187 58.168 421.299 57.588 421.523 57.06C421.755 56.532 422.075 56.072 422.483 55.68C422.899 55.288 423.383 54.988 423.935 54.78C424.487 54.564 425.091 54.456 425.747 54.456C426.475 54.456 427.131 54.584 427.715 54.84C428.307 55.088 428.803 55.456 429.203 55.944L427.955 57.096C427.667 56.768 427.347 56.524 426.995 56.364C426.643 56.196 426.259 56.112 425.843 56.112C425.451 56.112 425.091 56.176 424.763 56.304C424.435 56.432 424.151 56.616 423.911 56.856C423.671 57.096 423.483 57.38 423.347 57.708C423.219 58.036 423.155 58.4 423.155 58.8C423.155 59.2 423.219 59.564 423.347 59.892C423.483 60.22 423.671 60.504 423.911 60.744C424.151 60.984 424.435 61.168 424.763 61.296C425.091 61.424 425.451 61.488 425.843 61.488C426.259 61.488 426.643 61.408 426.995 61.248C427.347 61.08 427.667 60.828 427.955 60.492L429.203 61.644C428.803 62.132 428.307 62.504 427.715 62.76C427.131 63.016 426.471 63.144 425.735 63.144ZM435.161 63.144C433.969 63.144 433.037 62.812 432.365 62.148C431.693 61.484 431.357 60.536 431.357 59.304V54.6H433.301V59.232C433.301 60.032 433.465 60.608 433.793 60.96C434.121 61.312 434.581 61.488 435.173 61.488C435.765 61.488 436.225 61.312 436.553 60.96C436.881 60.608 437.045 60.032 437.045 59.232V54.6H438.965V59.304C438.965 60.536 438.629 61.484 437.957 62.148C437.285 62.812 436.353 63.144 435.161 63.144ZM441.846 63V54.6H443.79V61.416H448.002V63H441.846ZM448.991 63L452.735 54.6H454.655L458.411 63H456.371L453.299 55.584H454.067L450.983 63H448.991ZM450.863 61.2L451.379 59.724H455.699L456.227 61.2H450.863Z" fill="#333333"/>
<mask id="mask2_1191_13951" style="mask-type:alpha" maskUnits="userSpaceOnUse" x="397" y="79" width="45" height="46">
<rect x="397" y="79.5" width="45" height="45" fill="#D9D9D9"/>
</mask>
<g mask="url(#mask2_1191_13951)">
<path d="M406.375 109.5C404.312 109.5 402.547 108.766 401.078 107.297C399.609 105.828 398.875 104.062 398.875 102C398.875 99.9375 399.609 98.1719 401.078 96.7031C402.547 95.2344 404.312 94.5 406.375 94.5C408.438 94.5 410.203 95.2344 411.672 96.7031C413.141 98.1719 413.875 99.9375 413.875 102C413.875 104.062 413.141 105.828 411.672 107.297C410.203 108.766 408.438 109.5 406.375 109.5ZM406.375 105.75C407.406 105.75 408.289 105.383 409.023 104.648C409.758 103.914 410.125 103.031 410.125 102C410.125 100.969 409.758 100.086 409.023 99.3516C408.289 98.6172 407.406 98.25 406.375 98.25C405.344 98.25 404.461 98.6172 403.727 99.3516C402.992 100.086 402.625 100.969 402.625 102C402.625 103.031 402.992 103.914 403.727 104.648C404.461 105.383 405.344 105.75 406.375 105.75ZM428.875 113.25C425.75 113.25 423.094 112.156 420.906 109.969C418.719 107.781 417.625 105.125 417.625 102C417.625 98.875 418.719 96.2188 420.906 94.0312C423.094 91.8437 425.75 90.75 428.875 90.75C432 90.75 434.656 91.8437 436.844 94.0312C439.031 96.2188 440.125 98.875 440.125 102C440.125 105.125 439.031 107.781 436.844 109.969C434.656 112.156 432 113.25 428.875 113.25Z" fill="#833177"/>
</g>
<path d="M559.064 63.144C558.192 63.144 557.404 62.956 556.7 62.58C556.004 62.204 555.456 61.688 555.056 61.032C554.664 60.368 554.468 59.624 554.468 58.8C554.468 57.976 554.664 57.236 555.056 56.58C555.456 55.916 556.004 55.396 556.7 55.02C557.404 54.644 558.192 54.456 559.064 54.456C559.936 54.456 560.72 54.644 561.416 55.02C562.112 55.396 562.66 55.916 563.06 56.58C563.46 57.236 563.66 57.976 563.66 58.8C563.66 59.624 563.46 60.368 563.06 61.032C562.66 61.688 562.112 62.204 561.416 62.58C560.72 62.956 559.936 63.144 559.064 63.144ZM559.064 61.488C559.56 61.488 560.008 61.376 560.408 61.152C560.808 60.92 561.12 60.6 561.344 60.192C561.576 59.784 561.692 59.32 561.692 58.8C561.692 58.28 561.576 57.816 561.344 57.408C561.12 57 560.808 56.684 560.408 56.46C560.008 56.228 559.56 56.112 559.064 56.112C558.568 56.112 558.12 56.228 557.72 56.46C557.32 56.684 557.004 57 556.772 57.408C556.548 57.816 556.436 58.28 556.436 58.8C556.436 59.32 556.548 59.784 556.772 60.192C557.004 60.6 557.32 60.92 557.72 61.152C558.12 61.376 558.568 61.488 559.064 61.488ZM571.433 63L569.813 60.66H569.717H568.025V63H566.081V54.6H569.717C570.461 54.6 571.105 54.724 571.649 54.972C572.201 55.22 572.625 55.572 572.921 56.028C573.217 56.484 573.365 57.024 573.365 57.648C573.365 58.272 573.213 58.812 572.909 59.268C572.613 59.716 572.189 60.06 571.637 60.3L573.521 63H571.433ZM571.397 57.648C571.397 57.176 571.245 56.816 570.941 56.568C570.637 56.312 570.193 56.184 569.609 56.184H568.025V59.112H569.609C570.193 59.112 570.637 58.984 570.941 58.728C571.245 58.472 571.397 58.112 571.397 57.648ZM581.541 58.668H583.317V62.076C582.861 62.42 582.333 62.684 581.733 62.868C581.133 63.052 580.529 63.144 579.921 63.144C579.049 63.144 578.265 62.96 577.569 62.592C576.873 62.216 576.325 61.7 575.925 61.044C575.533 60.38 575.337 59.632 575.337 58.8C575.337 57.968 575.533 57.224 575.925 56.568C576.325 55.904 576.877 55.388 577.581 55.02C578.285 54.644 579.077 54.456 579.957 54.456C580.693 54.456 581.361 54.58 581.961 54.828C582.561 55.076 583.065 55.436 583.473 55.908L582.225 57.06C581.625 56.428 580.901 56.112 580.053 56.112C579.517 56.112 579.041 56.224 578.625 56.448C578.209 56.672 577.885 56.988 577.653 57.396C577.421 57.804 577.305 58.272 577.305 58.8C577.305 59.32 577.421 59.784 577.653 60.192C577.885 60.6 578.205 60.92 578.613 61.152C579.029 61.376 579.501 61.488 580.029 61.488C580.589 61.488 581.093 61.368 581.541 61.128V58.668ZM591.615 61.2H587.715L586.971 63H584.979L588.723 54.6H590.643L594.399 63H592.359L591.615 61.2ZM591.003 59.724L589.671 56.508L588.339 59.724H591.003ZM603.935 54.6V63H602.339L598.151 57.9V63H596.231V54.6H597.839L602.015 59.7V54.6H603.935ZM606.882 54.6H608.826V63H606.882V54.6ZM614.539 63.144C613.875 63.144 613.231 63.056 612.607 62.88C611.991 62.696 611.495 62.46 611.119 62.172L611.779 60.708C612.139 60.972 612.567 61.184 613.063 61.344C613.559 61.504 614.055 61.584 614.551 61.584C615.103 61.584 615.511 61.504 615.775 61.344C616.039 61.176 616.171 60.956 616.171 60.684C616.171 60.484 616.091 60.32 615.931 60.192C615.779 60.056 615.579 59.948 615.331 59.868C615.091 59.788 614.763 59.7 614.347 59.604C613.707 59.452 613.183 59.3 612.775 59.148C612.367 58.996 612.015 58.752 611.719 58.416C611.431 58.08 611.287 57.632 611.287 57.072C611.287 56.584 611.419 56.144 611.683 55.752C611.947 55.352 612.343 55.036 612.871 54.804C613.407 54.572 614.059 54.456 614.827 54.456C615.363 54.456 615.887 54.52 616.399 54.648C616.911 54.776 617.359 54.96 617.743 55.2L617.143 56.676C616.367 56.236 615.591 56.016 614.815 56.016C614.271 56.016 613.867 56.104 613.603 56.28C613.347 56.456 613.219 56.688 613.219 56.976C613.219 57.264 613.367 57.48 613.663 57.624C613.967 57.76 614.427 57.896 615.043 58.032C615.683 58.184 616.207 58.336 616.615 58.488C617.023 58.64 617.371 58.88 617.659 59.208C617.955 59.536 618.103 59.98 618.103 60.54C618.103 61.02 617.967 61.46 617.695 61.86C617.431 62.252 617.031 62.564 616.495 62.796C615.959 63.028 615.307 63.144 614.539 63.144ZM628.036 63L628.024 57.96L625.552 62.112H624.676L622.216 58.068V63H620.392V54.6H622L625.144 59.82L628.24 54.6H629.836L629.86 63H628.036ZM636.881 63.144C636.009 63.144 635.221 62.956 634.517 62.58C633.821 62.204 633.273 61.688 632.873 61.032C632.481 60.368 632.285 59.624 632.285 58.8C632.285 57.976 632.481 57.236 632.873 56.58C633.273 55.916 633.821 55.396 634.517 55.02C635.221 54.644 636.009 54.456 636.881 54.456C637.753 54.456 638.537 54.644 639.233 55.02C639.929 55.396 640.477 55.916 640.877 56.58C641.277 57.236 641.477 57.976 641.477 58.8C641.477 59.624 641.277 60.368 640.877 61.032C640.477 61.688 639.929 62.204 639.233 62.58C638.537 62.956 637.753 63.144 636.881 63.144ZM636.881 61.488C637.377 61.488 637.825 61.376 638.225 61.152C638.625 60.92 638.937 60.6 639.161 60.192C639.393 59.784 639.509 59.32 639.509 58.8C639.509 58.28 639.393 57.816 639.161 57.408C638.937 57 638.625 56.684 638.225 56.46C637.825 56.228 637.377 56.112 636.881 56.112C636.385 56.112 635.937 56.228 635.537 56.46C635.137 56.684 634.821 57 634.589 57.408C634.365 57.816 634.253 58.28 634.253 58.8C634.253 59.32 634.365 59.784 634.589 60.192C634.821 60.6 635.137 60.92 635.537 61.152C635.937 61.376 636.385 61.488 636.881 61.488Z" fill="#333333"/>
<mask id="mask3_1191_13951" style="mask-type:alpha" maskUnits="userSpaceOnUse" x="575" y="79" width="46" height="46">
<rect x="575.5" y="79.5" width="45" height="45" fill="#D9D9D9"/>
</mask>
<g mask="url(#mask3_1191_13951)">
<path d="M586.75 118.875C584.688 118.875 582.922 118.141 581.453 116.672C579.984 115.203 579.25 113.438 579.25 111.375C579.25 109.312 579.984 107.547 581.453 106.078C582.922 104.609 584.688 103.875 586.75 103.875C588.812 103.875 590.578 104.609 592.047 106.078C593.516 107.547 594.25 109.312 594.25 111.375C594.25 113.438 593.516 115.203 592.047 116.672C590.578 118.141 588.812 118.875 586.75 118.875ZM609.25 118.875C607.188 118.875 605.422 118.141 603.953 116.672C602.484 115.203 601.75 113.438 601.75 111.375C601.75 109.312 602.484 107.547 603.953 106.078C605.422 104.609 607.188 103.875 609.25 103.875C611.312 103.875 613.078 104.609 614.547 106.078C616.016 107.547 616.75 109.312 616.75 111.375C616.75 113.438 616.016 115.203 614.547 116.672C613.078 118.141 611.312 118.875 609.25 118.875ZM586.75 115.125C587.781 115.125 588.664 114.758 589.398 114.023C590.133 113.289 590.5 112.406 590.5 111.375C590.5 110.344 590.133 109.461 589.398 108.727C588.664 107.992 587.781 107.625 586.75 107.625C585.719 107.625 584.836 107.992 584.102 108.727C583.367 109.461 583 110.344 583 111.375C583 112.406 583.367 113.289 584.102 114.023C584.836 114.758 585.719 115.125 586.75 115.125ZM609.25 115.125C610.281 115.125 611.164 114.758 611.898 114.023C612.633 113.289 613 112.406 613 111.375C613 110.344 612.633 109.461 611.898 108.727C611.164 107.992 610.281 107.625 609.25 107.625C608.219 107.625 607.336 107.992 606.602 108.727C605.867 109.461 605.5 110.344 605.5 111.375C605.5 112.406 605.867 113.289 606.602 114.023C607.336 114.758 608.219 115.125 609.25 115.125ZM598 107.438C597 107.438 596.156 107.094 595.469 106.406C594.781 105.719 594.438 104.875 594.438 103.875C594.438 102.875 594.781 102.031 595.469 101.344C596.156 100.656 597 100.312 598 100.312C599 100.312 599.844 100.656 600.531 101.344C601.219 102.031 601.563 102.875 601.563 103.875C601.563 104.875 601.219 105.719 600.531 106.406C599.844 107.094 599 107.438 598 107.438ZM598 98.25C595.938 98.25 594.172 97.5156 592.703 96.0469C591.234 94.5781 590.5 92.8125 590.5 90.75C590.5 88.6875 591.234 86.9219 592.703 85.4531C594.172 83.9844 595.938 83.25 598 83.25C600.062 83.25 601.828 83.9844 603.297 85.4531C604.766 86.9219 605.5 88.6875 605.5 90.75C605.5 92.8125 604.766 94.5781 603.297 96.0469C601.828 97.5156 600.062 98.25 598 98.25ZM598 94.5C599.031 94.5 599.914 94.1328 600.648 93.3984C601.383 92.6641 601.75 91.7812 601.75 90.75C601.75 89.7188 601.383 88.8359 600.648 88.1016C599.914 87.3672 599.031 87 598 87C596.969 87 596.086 87.3672 595.352 88.1016C594.617 88.8359 594.25 89.7188 594.25 90.75C594.25 91.7812 594.617 92.6641 595.352 93.3984C596.086 94.1328 596.969 94.5 598 94.5Z" fill="#833177"/>
</g>
<path d="M741.632 54.6C742.376 54.6 743.02 54.724 743.564 54.972C744.116 55.22 744.54 55.572 744.836 56.028C745.132 56.484 745.28 57.024 745.28 57.648C745.28 58.264 745.132 58.804 744.836 59.268C744.54 59.724 744.116 60.076 743.564 60.324C743.02 60.564 742.376 60.684 741.632 60.684H739.94V63H737.996V54.6H741.632ZM741.524 59.1C742.108 59.1 742.552 58.976 742.856 58.728C743.16 58.472 743.312 58.112 743.312 57.648C743.312 57.176 743.16 56.816 742.856 56.568C742.552 56.312 742.108 56.184 741.524 56.184H739.94V59.1H741.524ZM747.628 54.6H749.572V61.416H753.784V63H747.628V54.6ZM761.432 61.2H757.532L756.788 63H754.796L758.54 54.6H760.46L764.216 63H762.176L761.432 61.2ZM760.82 59.724L759.488 56.508L758.156 59.724H760.82ZM773.752 54.6V63H772.156L767.968 57.9V63H766.048V54.6H767.656L771.832 59.7V54.6H773.752ZM778.439 56.184H775.751V54.6H783.071V56.184H780.383V63H778.439V56.184ZM785.077 54.6H787.021V63H785.077V54.6ZM789.975 54.6H791.919V61.416H796.131V63H789.975V54.6ZM798.177 54.6H800.121V61.416H804.333V63H798.177V54.6ZM811.981 61.2H808.081L807.337 63H805.345L809.089 54.6H811.009L814.765 63H812.725L811.981 61.2ZM811.369 59.724L810.037 56.508L808.705 59.724H811.369Z" fill="#333333"/>
<mask id="mask4_1191_13951" style="mask-type:alpha" maskUnits="userSpaceOnUse" x="753" y="79" width="46" height="46">
<rect x="753.5" y="79.5" width="45" height="45" fill="#D9D9D9"/>
</mask>
<g mask="url(#mask4_1191_13951)">
<path d="M765.5 115.125H786.453L782.516 111.188C781.609 111.844 780.602 112.352 779.492 112.711C778.383 113.07 777.219 113.25 776 113.25C774.781 113.25 773.617 113.062 772.508 112.688C771.398 112.312 770.391 111.797 769.484 111.141L765.5 115.125ZM762.875 112.453L766.812 108.516C766.156 107.609 765.648 106.602 765.289 105.492C764.93 104.383 764.75 103.219 764.75 102C764.75 100.781 764.938 99.6172 765.312 98.5078C765.688 97.3984 766.203 96.3906 766.859 95.4844L762.875 91.5V112.453ZM769.531 105.797L773.375 102L769.531 98.2031C769.188 98.7656 768.93 99.3594 768.758 99.9844C768.586 100.609 768.5 101.281 768.5 102C768.5 102.719 768.586 103.391 768.758 104.016C768.93 104.641 769.188 105.234 769.531 105.797ZM776 109.5C776.719 109.5 777.391 109.414 778.016 109.242C778.641 109.07 779.234 108.812 779.797 108.469L776 104.625L772.156 108.469C772.719 108.812 773.32 109.07 773.961 109.242C774.602 109.414 775.281 109.5 776 109.5ZM776 99.3281L779.797 95.5312C779.234 95.1875 778.641 94.9297 778.016 94.7578C777.391 94.5859 776.719 94.5 776 94.5C775.281 94.5 774.609 94.5859 773.984 94.7578C773.359 94.9297 772.766 95.1875 772.203 95.5312L776 99.3281ZM782.469 105.797C782.812 105.234 783.07 104.641 783.242 104.016C783.414 103.391 783.5 102.719 783.5 102C783.5 101.281 783.414 100.602 783.242 99.9609C783.07 99.3203 782.812 98.7188 782.469 98.1563L778.672 101.953L782.469 105.797ZM789.125 112.453V91.5L785.141 95.4844C785.797 96.3906 786.312 97.3984 786.688 98.5078C787.062 99.6172 787.25 100.781 787.25 102C787.25 103.219 787.07 104.383 786.711 105.492C786.352 106.602 785.844 107.609 785.188 108.516L789.125 112.453ZM782.516 92.8594L786.5 88.875H765.547L769.484 92.8125C770.391 92.1562 771.398 91.6484 772.508 91.2891C773.617 90.9297 774.781 90.75 776 90.75C777.219 90.75 778.383 90.9375 779.492 91.3125C780.602 91.6875 781.609 92.2031 782.516 92.8594ZM762.875 118.875C761.844 118.875 760.961 118.508 760.227 117.773C759.492 117.039 759.125 116.156 759.125 115.125V88.875C759.125 87.8438 759.492 86.9609 760.227 86.2266C760.961 85.4922 761.844 85.125 762.875 85.125H789.125C790.156 85.125 791.039 85.4922 791.773 86.2266C792.508 86.9609 792.875 87.8438 792.875 88.875V115.125C792.875 116.156 792.508 117.039 791.773 117.773C791.039 118.508 790.156 118.875 789.125 118.875H762.875Z" fill="#833177"/>
</g>
<path d="M917.132 54.6C917.876 54.6 918.52 54.724 919.064 54.972C919.616 55.22 920.04 55.572 920.336 56.028C920.632 56.484 920.78 57.024 920.78 57.648C920.78 58.264 920.632 58.804 920.336 59.268C920.04 59.724 919.616 60.076 919.064 60.324C918.52 60.564 917.876 60.684 917.132 60.684H915.44V63H913.496V54.6H917.132ZM917.024 59.1C917.608 59.1 918.052 58.976 918.356 58.728C918.66 58.472 918.812 58.112 918.812 57.648C918.812 57.176 918.66 56.816 918.356 56.568C918.052 56.312 917.608 56.184 917.024 56.184H915.44V59.1H917.024ZM928.238 61.2H924.338L923.594 63H921.602L925.346 54.6H927.266L931.022 63H928.982L928.238 61.2ZM927.626 59.724L926.294 56.508L924.962 59.724H927.626ZM926.834 52.188H928.85L926.678 53.916H925.214L926.834 52.188ZM938.412 58.668H940.188V62.076C939.732 62.42 939.204 62.684 938.604 62.868C938.004 63.052 937.4 63.144 936.792 63.144C935.92 63.144 935.136 62.96 934.44 62.592C933.744 62.216 933.196 61.7 932.796 61.044C932.404 60.38 932.208 59.632 932.208 58.8C932.208 57.968 932.404 57.224 932.796 56.568C933.196 55.904 933.748 55.388 934.452 55.02C935.156 54.644 935.948 54.456 936.828 54.456C937.564 54.456 938.232 54.58 938.832 54.828C939.432 55.076 939.936 55.436 940.344 55.908L939.096 57.06C938.496 56.428 937.772 56.112 936.924 56.112C936.388 56.112 935.912 56.224 935.496 56.448C935.08 56.672 934.756 56.988 934.524 57.396C934.292 57.804 934.176 58.272 934.176 58.8C934.176 59.32 934.292 59.784 934.524 60.192C934.756 60.6 935.076 60.92 935.484 61.152C935.9 61.376 936.372 61.488 936.9 61.488C937.46 61.488 937.964 61.368 938.412 61.128V58.668ZM942.954 54.6H944.898V63H942.954V54.6ZM955.556 54.6V63H953.96L949.772 57.9V63H947.852V54.6H949.46L953.636 59.7V54.6H955.556ZM964.035 61.2H960.135L959.391 63H957.399L961.143 54.6H963.063L966.819 63H964.779L964.035 61.2ZM963.423 59.724L962.091 56.508L960.759 59.724H963.423Z" fill="#333333"/>
<mask id="mask5_1191_13951" style="mask-type:alpha" maskUnits="userSpaceOnUse" x="917" y="79" width="46" height="46">
<rect x="917.5" y="79.5" width="45" height="45" fill="#D9D9D9"/>
</mask>
<g mask="url(#mask5_1191_13951)">
<path d="M926.875 118.875C925.844 118.875 924.961 118.508 924.227 117.773C923.492 117.039 923.125 116.156 923.125 115.125V88.875C923.125 87.8438 923.492 86.9609 924.227 86.2266C924.961 85.4922 925.844 85.125 926.875 85.125H953.125C954.156 85.125 955.039 85.4922 955.773 86.2266C956.508 86.9609 956.875 87.8438 956.875 88.875V115.125C956.875 116.156 956.508 117.039 955.773 117.773C955.039 118.508 954.156 118.875 953.125 118.875H926.875ZM926.875 115.125H953.125V94.5H926.875V115.125Z" fill="#833177"/>
</g>
<path d="M50 147V157" stroke="#833177" stroke-width="4" stroke-linecap="round"/>
<path d="M50 152H150" stroke="#833177" stroke-width="4" stroke-linecap="round"/>
<path d="M150 147V157" stroke="#833177" stroke-width="4" stroke-linecap="round"/>
<path d="M77.704 177.584C77.4587 177.765 77.1547 177.904 76.792 178C76.44 178.085 76.0667 178.128 75.672 178.128C74.648 178.128 73.8533 177.867 73.288 177.344C72.7333 176.821 72.456 176.053 72.456 175.04V171.504H71.128V169.584H72.456V167.488H74.952V169.584H77.096V171.504H74.952V175.008C74.952 175.371 75.0427 175.653 75.224 175.856C75.416 176.048 75.6827 176.144 76.024 176.144C76.4187 176.144 76.7547 176.037 77.032 175.824L77.704 177.584ZM82.9355 178.128C82.0288 178.128 81.2128 177.941 80.4875 177.568C79.7728 177.184 79.2128 176.656 78.8075 175.984C78.4022 175.312 78.1995 174.549 78.1995 173.696C78.1995 172.843 78.4022 172.08 78.8075 171.408C79.2128 170.736 79.7728 170.213 80.4875 169.84C81.2128 169.456 82.0288 169.264 82.9355 169.264C83.8422 169.264 84.6528 169.456 85.3675 169.84C86.0822 170.213 86.6422 170.736 87.0475 171.408C87.4528 172.08 87.6555 172.843 87.6555 173.696C87.6555 174.549 87.4528 175.312 87.0475 175.984C86.6422 176.656 86.0822 177.184 85.3675 177.568C84.6528 177.941 83.8422 178.128 82.9355 178.128ZM82.9355 176.08C83.5755 176.08 84.0982 175.867 84.5035 175.44C84.9195 175.003 85.1275 174.421 85.1275 173.696C85.1275 172.971 84.9195 172.395 84.5035 171.968C84.0982 171.531 83.5755 171.312 82.9355 171.312C82.2955 171.312 81.7675 171.531 81.3515 171.968C80.9355 172.395 80.7275 172.971 80.7275 173.696C80.7275 174.421 80.9355 175.003 81.3515 175.44C81.7675 175.867 82.2955 176.08 82.9355 176.08ZM93.0199 174.624L91.8199 175.808V178H89.3239V166.128H91.8199V172.848L95.4679 169.392H98.4439L94.8599 173.04L98.7639 178H95.7399L93.0199 174.624ZM107.943 173.728C107.943 173.76 107.927 173.984 107.895 174.4H101.383C101.501 174.933 101.778 175.355 102.215 175.664C102.653 175.973 103.197 176.128 103.847 176.128C104.295 176.128 104.69 176.064 105.031 175.936C105.383 175.797 105.709 175.584 106.007 175.296L107.335 176.736C106.525 177.664 105.341 178.128 103.783 178.128C102.813 178.128 101.954 177.941 101.207 177.568C100.461 177.184 99.8847 176.656 99.4794 175.984C99.074 175.312 98.8714 174.549 98.8714 173.696C98.8714 172.853 99.0687 172.096 99.4634 171.424C99.8687 170.741 100.418 170.213 101.111 169.84C101.815 169.456 102.599 169.264 103.463 169.264C104.306 169.264 105.069 169.445 105.751 169.808C106.434 170.171 106.967 170.693 107.351 171.376C107.746 172.048 107.943 172.832 107.943 173.728ZM103.479 171.152C102.914 171.152 102.439 171.312 102.055 171.632C101.671 171.952 101.437 172.389 101.351 172.944H105.591C105.506 172.4 105.271 171.968 104.887 171.648C104.503 171.317 104.034 171.152 103.479 171.152ZM114.837 169.264C115.904 169.264 116.762 169.584 117.413 170.224C118.074 170.864 118.405 171.813 118.405 173.072V178H115.909V173.456C115.909 172.773 115.76 172.267 115.461 171.936C115.162 171.595 114.73 171.424 114.165 171.424C113.536 171.424 113.034 171.621 112.661 172.016C112.288 172.4 112.101 172.976 112.101 173.744V178H109.605V169.392H111.989V170.4C112.32 170.037 112.73 169.76 113.221 169.568C113.712 169.365 114.25 169.264 114.837 169.264ZM123.564 178.128C122.849 178.128 122.15 178.043 121.468 177.872C120.785 177.691 120.241 177.467 119.836 177.2L120.668 175.408C121.052 175.653 121.516 175.856 122.06 176.016C122.604 176.165 123.137 176.24 123.66 176.24C124.716 176.24 125.244 175.979 125.244 175.456C125.244 175.211 125.1 175.035 124.812 174.928C124.524 174.821 124.081 174.731 123.484 174.656C122.78 174.549 122.198 174.427 121.74 174.288C121.281 174.149 120.881 173.904 120.54 173.552C120.209 173.2 120.044 172.699 120.044 172.048C120.044 171.504 120.198 171.024 120.508 170.608C120.828 170.181 121.286 169.851 121.884 169.616C122.492 169.381 123.206 169.264 124.028 169.264C124.636 169.264 125.238 169.333 125.836 169.472C126.444 169.6 126.945 169.781 127.34 170.016L126.508 171.792C125.75 171.365 124.924 171.152 124.028 171.152C123.494 171.152 123.094 171.227 122.828 171.376C122.561 171.525 122.428 171.717 122.428 171.952C122.428 172.219 122.572 172.405 122.86 172.512C123.148 172.619 123.606 172.72 124.236 172.816C124.94 172.933 125.516 173.061 125.964 173.2C126.412 173.328 126.801 173.568 127.132 173.92C127.462 174.272 127.628 174.763 127.628 175.392C127.628 175.925 127.468 176.4 127.148 176.816C126.828 177.232 126.358 177.557 125.74 177.792C125.132 178.016 124.406 178.128 123.564 178.128Z" fill="#833177"/>
<path d="M522 147V157" stroke="#833177" stroke-width="4" stroke-linecap="round"/>
<path d="M522 152H858" stroke="#833177" stroke-width="4" stroke-linecap="round"/>
<path d="M858 147V157" stroke="#833177" stroke-width="4" stroke-linecap="round"/>
<path d="M668.804 178.192C667.204 178.192 665.956 177.749 665.06 176.864C664.175 175.979 663.732 174.715 663.732 173.072V166.8H666.324V172.976C666.324 174.981 667.156 175.984 668.82 175.984C669.631 175.984 670.249 175.744 670.676 175.264C671.103 174.773 671.316 174.011 671.316 172.976V166.8H673.876V173.072C673.876 174.715 673.428 175.979 672.532 176.864C671.647 177.749 670.404 178.192 668.804 178.192ZM676.437 166.8H679.029V178H676.437V166.8ZM690.299 173.6L688.795 175.168V178H686.219V166.8H688.795V172.032L693.755 166.8H696.635L691.995 171.792L696.907 178H693.883L690.299 173.6ZM697.73 169.392H700.226V178H697.73V169.392ZM698.978 168.192C698.519 168.192 698.146 168.059 697.858 167.792C697.57 167.525 697.426 167.195 697.426 166.8C697.426 166.405 697.57 166.075 697.858 165.808C698.146 165.541 698.519 165.408 698.978 165.408C699.437 165.408 699.81 165.536 700.098 165.792C700.386 166.048 700.53 166.368 700.53 166.752C700.53 167.168 700.386 167.515 700.098 167.792C699.81 168.059 699.437 168.192 698.978 168.192ZM708.095 177.584C707.849 177.765 707.545 177.904 707.183 178C706.831 178.085 706.457 178.128 706.063 178.128C705.039 178.128 704.244 177.867 703.679 177.344C703.124 176.821 702.847 176.053 702.847 175.04V171.504H701.519V169.584H702.847V167.488H705.343V169.584H707.487V171.504H705.343V175.008C705.343 175.371 705.433 175.653 705.615 175.856C705.807 176.048 706.073 176.144 706.415 176.144C706.809 176.144 707.145 176.037 707.423 175.824L708.095 177.584ZM712.392 178.128C711.677 178.128 710.978 178.043 710.296 177.872C709.613 177.691 709.069 177.467 708.664 177.2L709.496 175.408C709.88 175.653 710.344 175.856 710.888 176.016C711.432 176.165 711.965 176.24 712.488 176.24C713.544 176.24 714.072 175.979 714.072 175.456C714.072 175.211 713.928 175.035 713.64 174.928C713.352 174.821 712.909 174.731 712.312 174.656C711.608 174.549 711.026 174.427 710.568 174.288C710.109 174.149 709.709 173.904 709.368 173.552C709.037 173.2 708.872 172.699 708.872 172.048C708.872 171.504 709.026 171.024 709.336 170.608C709.656 170.181 710.114 169.851 710.712 169.616C711.32 169.381 712.034 169.264 712.856 169.264C713.464 169.264 714.066 169.333 714.664 169.472C715.272 169.6 715.773 169.781 716.168 170.016L715.336 171.792C714.578 171.365 713.752 171.152 712.856 171.152C712.322 171.152 711.922 171.227 711.656 171.376C711.389 171.525 711.256 171.717 711.256 171.952C711.256 172.219 711.4 172.405 711.688 172.512C711.976 172.619 712.434 172.72 713.064 172.816C713.768 172.933 714.344 173.061 714.792 173.2C715.24 173.328 715.629 173.568 715.96 173.92C716.29 174.272 716.456 174.763 716.456 175.392C716.456 175.925 716.296 176.4 715.976 176.816C715.656 177.232 715.186 177.557 714.568 177.792C713.96 178.016 713.234 178.128 712.392 178.128Z" fill="#833177"/>
<path d="M890 147V157" stroke="#833177" stroke-width="4" stroke-linecap="round"/>
<path d="M890 152H990" stroke="#833177" stroke-width="4" stroke-linecap="round"/>
<path d="M990 147V157" stroke="#833177" stroke-width="4" stroke-linecap="round"/>
<path d="M903.24 178.128C902.515 178.128 901.88 177.968 901.336 177.648C900.792 177.328 900.365 176.843 900.056 176.192C899.757 175.531 899.608 174.699 899.608 173.696C899.608 172.683 899.752 171.851 900.04 171.2C900.328 170.549 900.744 170.064 901.288 169.744C901.832 169.424 902.483 169.264 903.24 169.264C904.051 169.264 904.776 169.451 905.416 169.824C906.067 170.187 906.579 170.699 906.952 171.36C907.336 172.021 907.528 172.8 907.528 173.696C907.528 174.603 907.336 175.387 906.952 176.048C906.579 176.709 906.067 177.221 905.416 177.584C904.776 177.947 904.051 178.128 903.24 178.128ZM898.152 181.104V169.392H900.536V171.152L900.488 173.712L900.648 176.256V181.104H898.152ZM902.808 176.08C903.224 176.08 903.592 175.984 903.912 175.792C904.243 175.6 904.504 175.328 904.696 174.976C904.899 174.613 905 174.187 905 173.696C905 173.195 904.899 172.768 904.696 172.416C904.504 172.064 904.243 171.792 903.912 171.6C903.592 171.408 903.224 171.312 902.808 171.312C902.392 171.312 902.019 171.408 901.688 171.6C901.357 171.792 901.096 172.064 900.904 172.416C900.712 172.768 900.616 173.195 900.616 173.696C900.616 174.187 900.712 174.613 900.904 174.976C901.096 175.328 901.357 175.6 901.688 175.792C902.019 175.984 902.392 176.08 902.808 176.08ZM909.199 178V169.392H911.583V171.824L911.247 171.12C911.503 170.512 911.914 170.053 912.479 169.744C913.044 169.424 913.732 169.264 914.543 169.264V171.568C914.436 171.557 914.34 171.552 914.255 171.552C914.17 171.541 914.079 171.536 913.983 171.536C913.3 171.536 912.746 171.733 912.319 172.128C911.903 172.512 911.695 173.115 911.695 173.936V178H909.199ZM920.045 178.128C919.128 178.128 918.312 177.936 917.597 177.552C916.893 177.168 916.333 176.645 915.917 175.984C915.512 175.312 915.309 174.549 915.309 173.696C915.309 172.832 915.512 172.069 915.917 171.408C916.333 170.736 916.893 170.213 917.597 169.84C918.312 169.456 919.128 169.264 920.045 169.264C920.952 169.264 921.762 169.456 922.477 169.84C923.192 170.213 923.752 170.731 924.157 171.392C924.562 172.053 924.765 172.821 924.765 173.696C924.765 174.549 924.562 175.312 924.157 175.984C923.752 176.645 923.192 177.168 922.477 177.552C921.762 177.936 920.952 178.128 920.045 178.128ZM920.045 176.08C920.461 176.08 920.834 175.984 921.165 175.792C921.496 175.6 921.757 175.328 921.949 174.976C922.141 174.613 922.237 174.187 922.237 173.696C922.237 173.195 922.141 172.768 921.949 172.416C921.757 172.064 921.496 171.792 921.165 171.6C920.834 171.408 920.461 171.312 920.045 171.312C919.629 171.312 919.256 171.408 918.925 171.6C918.594 171.792 918.328 172.064 918.125 172.416C917.933 172.768 917.837 173.195 917.837 173.696C917.837 174.187 917.933 174.613 918.125 174.976C918.328 175.328 918.594 175.6 918.925 175.792C919.256 175.984 919.629 176.08 920.045 176.08ZM930.129 178.128C929.319 178.128 928.588 177.947 927.937 177.584C927.287 177.211 926.769 176.693 926.385 176.032C926.012 175.371 925.825 174.592 925.825 173.696C925.825 172.789 926.012 172.005 926.385 171.344C926.769 170.683 927.287 170.171 927.937 169.808C928.588 169.445 929.319 169.264 930.129 169.264C930.855 169.264 931.489 169.424 932.033 169.744C932.577 170.064 932.999 170.549 933.297 171.2C933.596 171.851 933.745 172.683 933.745 173.696C933.745 174.699 933.601 175.531 933.313 176.192C933.025 176.843 932.609 177.328 932.065 177.648C931.532 177.968 930.887 178.128 930.129 178.128ZM930.561 176.08C930.967 176.08 931.335 175.984 931.665 175.792C931.996 175.6 932.257 175.328 932.449 174.976C932.652 174.613 932.753 174.187 932.753 173.696C932.753 173.195 932.652 172.768 932.449 172.416C932.257 172.064 931.996 171.792 931.665 171.6C931.335 171.408 930.967 171.312 930.561 171.312C930.145 171.312 929.772 171.408 929.441 171.6C929.111 171.792 928.844 172.064 928.641 172.416C928.449 172.768 928.353 173.195 928.353 173.696C928.353 174.187 928.449 174.613 928.641 174.976C928.844 175.328 929.111 175.6 929.441 175.792C929.772 175.984 930.145 176.08 930.561 176.08ZM932.817 178V176.24L932.865 173.68L932.705 171.136V166.128H935.201V178H932.817ZM941.143 178.128C940.429 178.128 939.789 177.989 939.223 177.712C938.669 177.435 938.237 177.013 937.927 176.448C937.618 175.872 937.463 175.141 937.463 174.256V169.392H939.959V173.888C939.959 174.603 940.109 175.131 940.407 175.472C940.717 175.803 941.149 175.968 941.703 175.968C942.087 175.968 942.429 175.888 942.727 175.728C943.026 175.557 943.261 175.301 943.431 174.96C943.602 174.608 943.687 174.171 943.687 173.648V169.392H946.183V178H943.815V175.632L944.247 176.32C943.959 176.917 943.533 177.371 942.967 177.68C942.413 177.979 941.805 178.128 941.143 178.128ZM952.656 178.128C951.728 178.128 950.901 177.941 950.176 177.568C949.45 177.184 948.88 176.656 948.464 175.984C948.058 175.312 947.856 174.549 947.856 173.696C947.856 172.832 948.058 172.069 948.464 171.408C948.88 170.736 949.45 170.213 950.176 169.84C950.901 169.456 951.728 169.264 952.656 169.264C953.562 169.264 954.352 169.456 955.024 169.84C955.696 170.213 956.192 170.752 956.512 171.456L954.576 172.496C954.352 172.091 954.069 171.792 953.728 171.6C953.397 171.408 953.034 171.312 952.64 171.312C952.213 171.312 951.829 171.408 951.488 171.6C951.146 171.792 950.874 172.064 950.672 172.416C950.48 172.768 950.384 173.195 950.384 173.696C950.384 174.197 950.48 174.624 950.672 174.976C950.874 175.328 951.146 175.6 951.488 175.792C951.829 175.984 952.213 176.08 952.64 176.08C953.034 176.08 953.397 175.989 953.728 175.808C954.069 175.616 954.352 175.312 954.576 174.896L956.512 175.952C956.192 176.645 955.696 177.184 955.024 177.568C954.352 177.941 953.562 178.128 952.656 178.128ZM961.594 178.128C960.581 178.128 959.791 177.872 959.226 177.36C958.661 176.837 958.378 176.064 958.378 175.04V167.488H960.874V175.008C960.874 175.371 960.97 175.653 961.162 175.856C961.354 176.048 961.615 176.144 961.946 176.144C962.341 176.144 962.677 176.037 962.954 175.824L963.626 177.584C963.37 177.765 963.061 177.904 962.698 178C962.346 178.085 961.978 178.128 961.594 178.128ZM957.05 171.504V169.584H963.018V171.504H957.05ZM968.857 178.128C967.94 178.128 967.124 177.936 966.409 177.552C965.705 177.168 965.145 176.645 964.729 175.984C964.324 175.312 964.121 174.549 964.121 173.696C964.121 172.832 964.324 172.069 964.729 171.408C965.145 170.736 965.705 170.213 966.409 169.84C967.124 169.456 967.94 169.264 968.857 169.264C969.764 169.264 970.575 169.456 971.289 169.84C972.004 170.213 972.564 170.731 972.969 171.392C973.375 172.053 973.577 172.821 973.577 173.696C973.577 174.549 973.375 175.312 972.969 175.984C972.564 176.645 972.004 177.168 971.289 177.552C970.575 177.936 969.764 178.128 968.857 178.128ZM968.857 176.08C969.273 176.08 969.647 175.984 969.977 175.792C970.308 175.6 970.569 175.328 970.761 174.976C970.953 174.613 971.049 174.187 971.049 173.696C971.049 173.195 970.953 172.768 970.761 172.416C970.569 172.064 970.308 171.792 969.977 171.6C969.647 171.408 969.273 171.312 968.857 171.312C968.441 171.312 968.068 171.408 967.737 171.6C967.407 171.792 967.14 172.064 966.937 172.416C966.745 172.768 966.649 173.195 966.649 173.696C966.649 174.187 966.745 174.613 966.937 174.976C967.14 175.328 967.407 175.6 967.737 175.792C968.068 175.984 968.441 176.08 968.857 176.08ZM978.142 178.128C977.406 178.128 976.696 178.043 976.014 177.872C975.342 177.691 974.808 177.467 974.414 177.2L975.246 175.408C975.64 175.653 976.104 175.856 976.638 176.016C977.182 176.165 977.715 176.24 978.238 176.24C978.814 176.24 979.219 176.171 979.454 176.032C979.699 175.893 979.822 175.701 979.822 175.456C979.822 175.253 979.726 175.104 979.534 175.008C979.352 174.901 979.107 174.821 978.798 174.768C978.488 174.715 978.147 174.661 977.774 174.608C977.411 174.555 977.043 174.485 976.67 174.4C976.296 174.304 975.955 174.165 975.646 173.984C975.336 173.803 975.086 173.557 974.894 173.248C974.712 172.939 974.622 172.539 974.622 172.048C974.622 171.504 974.776 171.024 975.086 170.608C975.406 170.192 975.864 169.867 976.462 169.632C977.059 169.387 977.774 169.264 978.606 169.264C979.192 169.264 979.79 169.328 980.398 169.456C981.006 169.584 981.512 169.771 981.918 170.016L981.086 171.792C980.67 171.547 980.248 171.381 979.822 171.296C979.406 171.2 979 171.152 978.606 171.152C978.051 171.152 977.646 171.227 977.39 171.376C977.134 171.525 977.006 171.717 977.006 171.952C977.006 172.165 977.096 172.325 977.278 172.432C977.47 172.539 977.72 172.624 978.03 172.688C978.339 172.752 978.675 172.811 979.038 172.864C979.411 172.907 979.784 172.976 980.158 173.072C980.531 173.168 980.867 173.307 981.166 173.488C981.475 173.659 981.726 173.899 981.918 174.208C982.11 174.507 982.206 174.901 982.206 175.392C982.206 175.925 982.046 176.4 981.726 176.816C981.406 177.221 980.942 177.541 980.334 177.776C979.736 178.011 979.006 178.128 978.142 178.128Z" fill="#833177"/>
</svg>
