<svg width="285" height="670" viewBox="0 0 285 670" fill="none" xmlns="http://www.w3.org/2000/svg">
<path d="M36.8255 214.5V207.08H38.3855V214.5H36.8255ZM39.8333 214.5V209.12H41.3933V214.5H39.8333ZM40.6133 208.37C40.3266 208.37 40.0933 208.287 39.9133 208.12C39.7333 207.953 39.6433 207.747 39.6433 207.5C39.6433 207.253 39.7333 207.047 39.9133 206.88C40.0933 206.713 40.3266 206.63 40.6133 206.63C40.8999 206.63 41.1333 206.71 41.3133 206.87C41.4933 207.023 41.5833 207.223 41.5833 207.47C41.5833 207.73 41.4933 207.947 41.3133 208.12C41.1399 208.287 40.9066 208.37 40.6133 208.37ZM46.0211 214.58C45.5478 214.58 45.1411 214.48 44.8011 214.28C44.4611 214.08 44.2011 213.777 44.0211 213.37C43.8411 212.957 43.7511 212.437 43.7511 211.81C43.7511 211.177 43.8444 210.657 44.0311 210.25C44.2244 209.843 44.4911 209.54 44.8311 209.34C45.1711 209.14 45.5678 209.04 46.0211 209.04C46.5278 209.04 46.9811 209.153 47.3811 209.38C47.7878 209.607 48.1078 209.927 48.3411 210.34C48.5811 210.753 48.7011 211.243 48.7011 211.81C48.7011 212.37 48.5811 212.857 48.3411 213.27C48.1078 213.683 47.7878 214.007 47.3811 214.24C46.9811 214.467 46.5278 214.58 46.0211 214.58ZM42.8411 214.5V207.08H44.4011V210.21L44.3011 211.8L44.3311 213.4V214.5H42.8411ZM45.7511 213.3C46.0111 213.3 46.2411 213.24 46.4411 213.12C46.6478 213 46.8111 212.83 46.9311 212.61C47.0578 212.383 47.1211 212.117 47.1211 211.81C47.1211 211.497 47.0578 211.23 46.9311 211.01C46.8111 210.79 46.6478 210.62 46.4411 210.5C46.2411 210.38 46.0111 210.32 45.7511 210.32C45.4911 210.32 45.2578 210.38 45.0511 210.5C44.8444 210.62 44.6811 210.79 44.5611 211.01C44.4411 211.23 44.3811 211.497 44.3811 211.81C44.3811 212.117 44.4411 212.383 44.5611 212.61C44.6811 212.83 44.8444 213 45.0511 213.12C45.2578 213.24 45.4911 213.3 45.7511 213.3ZM49.7454 214.5V209.12H51.2354V210.64L51.0254 210.2C51.1854 209.82 51.4421 209.533 51.7954 209.34C52.1487 209.14 52.5787 209.04 53.0854 209.04V210.48C53.0187 210.473 52.9587 210.47 52.9054 210.47C52.8521 210.463 52.7954 210.46 52.7354 210.46C52.3087 210.46 51.9621 210.583 51.6954 210.83C51.4354 211.07 51.3054 211.447 51.3054 211.96V214.5H49.7454ZM56.6341 214.58C56.0208 214.58 55.4808 214.46 55.0141 214.22C54.5541 213.98 54.1975 213.653 53.9441 213.24C53.6908 212.82 53.5641 212.343 53.5641 211.81C53.5641 211.27 53.6875 210.793 53.9341 210.38C54.1875 209.96 54.5308 209.633 54.9641 209.4C55.3975 209.16 55.8875 209.04 56.4341 209.04C56.9608 209.04 57.4341 209.153 57.8541 209.38C58.2808 209.6 58.6175 209.92 58.8641 210.34C59.1108 210.753 59.2341 211.25 59.2341 211.83C59.2341 211.89 59.2308 211.96 59.2241 212.04C59.2175 212.113 59.2108 212.183 59.2041 212.25H54.8341V211.34H58.3841L57.7841 211.61C57.7841 211.33 57.7275 211.087 57.6141 210.88C57.5008 210.673 57.3441 210.513 57.1441 210.4C56.9441 210.28 56.7108 210.22 56.4441 210.22C56.1775 210.22 55.9408 210.28 55.7341 210.4C55.5341 210.513 55.3775 210.677 55.2641 210.89C55.1508 211.097 55.0941 211.343 55.0941 211.63V211.87C55.0941 212.163 55.1575 212.423 55.2841 212.65C55.4175 212.87 55.6008 213.04 55.8341 213.16C56.0741 213.273 56.3541 213.33 56.6741 213.33C56.9608 213.33 57.2108 213.287 57.4241 213.2C57.6441 213.113 57.8441 212.983 58.0241 212.81L58.8541 213.71C58.6075 213.99 58.2975 214.207 57.9241 214.36C57.5508 214.507 57.1208 214.58 56.6341 214.58ZM60.2727 214.5V209.12H61.7627V210.64L61.5527 210.2C61.7127 209.82 61.9694 209.533 62.3227 209.34C62.6761 209.14 63.1061 209.04 63.6127 209.04V210.48C63.5461 210.473 63.4861 210.47 63.4327 210.47C63.3794 210.463 63.3227 210.46 63.2627 210.46C62.8361 210.46 62.4894 210.583 62.2227 210.83C61.9627 211.07 61.8327 211.447 61.8327 211.96V214.5H60.2727ZM64.5403 214.5V209.12H66.1003V214.5H64.5403ZM64.4103 208.43L65.7603 206.99H67.4403L65.6303 208.43H64.4103ZM70.8481 214.5V213.45L70.7481 213.22V211.34C70.7481 211.007 70.6448 210.747 70.4381 210.56C70.2381 210.373 69.9281 210.28 69.5081 210.28C69.2215 210.28 68.9381 210.327 68.6581 210.42C68.3848 210.507 68.1515 210.627 67.9581 210.78L67.3981 209.69C67.6915 209.483 68.0448 209.323 68.4581 209.21C68.8715 209.097 69.2915 209.04 69.7181 209.04C70.5381 209.04 71.1748 209.233 71.6281 209.62C72.0815 210.007 72.3081 210.61 72.3081 211.43V214.5H70.8481ZM69.2081 214.58C68.7881 214.58 68.4281 214.51 68.1281 214.37C67.8281 214.223 67.5981 214.027 67.4381 213.78C67.2781 213.533 67.1981 213.257 67.1981 212.95C67.1981 212.63 67.2748 212.35 67.4281 212.11C67.5881 211.87 67.8381 211.683 68.1781 211.55C68.5181 211.41 68.9615 211.34 69.5081 211.34H70.9381V212.25H69.6781C69.3115 212.25 69.0581 212.31 68.9181 212.43C68.7848 212.55 68.7181 212.7 68.7181 212.88C68.7181 213.08 68.7948 213.24 68.9481 213.36C69.1081 213.473 69.3248 213.53 69.5981 213.53C69.8581 213.53 70.0915 213.47 70.2981 213.35C70.5048 213.223 70.6548 213.04 70.7481 212.8L70.9881 213.52C70.8748 213.867 70.6681 214.13 70.3681 214.31C70.0681 214.49 69.6815 214.58 69.2081 214.58ZM24.907 227.58C24.4003 227.58 23.9436 227.467 23.537 227.24C23.1303 227.007 22.807 226.683 22.567 226.27C22.3336 225.857 22.217 225.37 22.217 224.81C22.217 224.243 22.3336 223.753 22.567 223.34C22.807 222.927 23.1303 222.607 23.537 222.38C23.9436 222.153 24.4003 222.04 24.907 222.04C25.3603 222.04 25.757 222.14 26.097 222.34C26.437 222.54 26.7003 222.843 26.887 223.25C27.0736 223.657 27.167 224.177 27.167 224.81C27.167 225.437 27.077 225.957 26.897 226.37C26.717 226.777 26.457 227.08 26.117 227.28C25.7836 227.48 25.3803 227.58 24.907 227.58ZM25.177 226.3C25.4303 226.3 25.6603 226.24 25.867 226.12C26.0736 226 26.237 225.83 26.357 225.61C26.4836 225.383 26.547 225.117 26.547 224.81C26.547 224.497 26.4836 224.23 26.357 224.01C26.237 223.79 26.0736 223.62 25.867 223.5C25.6603 223.38 25.4303 223.32 25.177 223.32C24.917 223.32 24.6836 223.38 24.477 223.5C24.2703 223.62 24.1036 223.79 23.977 224.01C23.857 224.23 23.797 224.497 23.797 224.81C23.797 225.117 23.857 225.383 23.977 225.61C24.1036 225.83 24.2703 226 24.477 226.12C24.6836 226.24 24.917 226.3 25.177 226.3ZM26.587 227.5V226.4L26.617 224.8L26.517 223.21V220.08H28.077V227.5H26.587ZM32.1908 227.58C31.5774 227.58 31.0374 227.46 30.5708 227.22C30.1108 226.98 29.7541 226.653 29.5008 226.24C29.2474 225.82 29.1208 225.343 29.1208 224.81C29.1208 224.27 29.2441 223.793 29.4908 223.38C29.7441 222.96 30.0874 222.633 30.5208 222.4C30.9541 222.16 31.4441 222.04 31.9908 222.04C32.5174 222.04 32.9908 222.153 33.4108 222.38C33.8374 222.6 34.1741 222.92 34.4208 223.34C34.6674 223.753 34.7908 224.25 34.7908 224.83C34.7908 224.89 34.7874 224.96 34.7808 225.04C34.7741 225.113 34.7674 225.183 34.7608 225.25H30.3908V224.34H33.9408L33.3408 224.61C33.3408 224.33 33.2841 224.087 33.1708 223.88C33.0574 223.673 32.9008 223.513 32.7008 223.4C32.5008 223.28 32.2674 223.22 32.0008 223.22C31.7341 223.22 31.4974 223.28 31.2908 223.4C31.0908 223.513 30.9341 223.677 30.8208 223.89C30.7074 224.097 30.6508 224.343 30.6508 224.63V224.87C30.6508 225.163 30.7141 225.423 30.8408 225.65C30.9741 225.87 31.1574 226.04 31.3908 226.16C31.6308 226.273 31.9108 226.33 32.2308 226.33C32.5174 226.33 32.7674 226.287 32.9808 226.2C33.2008 226.113 33.4008 225.983 33.5808 225.81L34.4108 226.71C34.1641 226.99 33.8541 227.207 33.4808 227.36C33.1074 227.507 32.6774 227.58 32.1908 227.58ZM40.9714 227.58C40.4647 227.58 40.0081 227.467 39.6014 227.24C39.1947 227.007 38.8714 226.683 38.6314 226.27C38.3981 225.857 38.2814 225.37 38.2814 224.81C38.2814 224.243 38.3981 223.753 38.6314 223.34C38.8714 222.927 39.1947 222.607 39.6014 222.38C40.0081 222.153 40.4647 222.04 40.9714 222.04C41.4247 222.04 41.8214 222.14 42.1614 222.34C42.5014 222.54 42.7647 222.843 42.9514 223.25C43.1381 223.657 43.2314 224.177 43.2314 224.81C43.2314 225.437 43.1414 225.957 42.9614 226.37C42.7814 226.777 42.5214 227.08 42.1814 227.28C41.8481 227.48 41.4447 227.58 40.9714 227.58ZM41.2414 226.3C41.4947 226.3 41.7247 226.24 41.9314 226.12C42.1381 226 42.3014 225.83 42.4214 225.61C42.5481 225.383 42.6114 225.117 42.6114 224.81C42.6114 224.497 42.5481 224.23 42.4214 224.01C42.3014 223.79 42.1381 223.62 41.9314 223.5C41.7247 223.38 41.4947 223.32 41.2414 223.32C40.9814 223.32 40.7481 223.38 40.5414 223.5C40.3347 223.62 40.1681 223.79 40.0414 224.01C39.9214 224.23 39.8614 224.497 39.8614 224.81C39.8614 225.117 39.9214 225.383 40.0414 225.61C40.1681 225.83 40.3347 226 40.5414 226.12C40.7481 226.24 40.9814 226.3 41.2414 226.3ZM42.6514 227.5V226.4L42.6814 224.8L42.5814 223.21V220.08H44.1414V227.5H42.6514ZM45.5852 227.5V222.12H47.1452V227.5H45.5852ZM46.3652 221.37C46.0786 221.37 45.8452 221.287 45.6652 221.12C45.4852 220.953 45.3952 220.747 45.3952 220.5C45.3952 220.253 45.4852 220.047 45.6652 219.88C45.8452 219.713 46.0786 219.63 46.3652 219.63C46.6519 219.63 46.8852 219.71 47.0652 219.87C47.2452 220.023 47.3352 220.223 47.3352 220.47C47.3352 220.73 47.2452 220.947 47.0652 221.12C46.8919 221.287 46.6586 221.37 46.3652 221.37ZM50.403 227.58C49.943 227.58 49.4997 227.527 49.073 227.42C48.653 227.307 48.3197 227.167 48.073 227L48.593 225.88C48.8397 226.033 49.1297 226.16 49.463 226.26C49.803 226.353 50.1364 226.4 50.463 226.4C50.823 226.4 51.0764 226.357 51.223 226.27C51.3764 226.183 51.453 226.063 51.453 225.91C51.453 225.783 51.393 225.69 51.273 225.63C51.1597 225.563 51.0064 225.513 50.813 225.48C50.6197 225.447 50.4064 225.413 50.173 225.38C49.9464 225.347 49.7164 225.303 49.483 225.25C49.2497 225.19 49.0364 225.103 48.843 224.99C48.6497 224.877 48.493 224.723 48.373 224.53C48.2597 224.337 48.203 224.087 48.203 223.78C48.203 223.44 48.2997 223.14 48.493 222.88C48.693 222.62 48.9797 222.417 49.353 222.27C49.7264 222.117 50.173 222.04 50.693 222.04C51.0597 222.04 51.433 222.08 51.813 222.16C52.193 222.24 52.5097 222.357 52.763 222.51L52.243 223.62C51.983 223.467 51.7197 223.363 51.453 223.31C51.193 223.25 50.9397 223.22 50.693 223.22C50.3464 223.22 50.093 223.267 49.933 223.36C49.773 223.453 49.693 223.573 49.693 223.72C49.693 223.853 49.7497 223.953 49.863 224.02C49.983 224.087 50.1397 224.14 50.333 224.18C50.5264 224.22 50.7364 224.257 50.963 224.29C51.1964 224.317 51.4297 224.36 51.663 224.42C51.8964 224.48 52.1064 224.567 52.293 224.68C52.4864 224.787 52.643 224.937 52.763 225.13C52.883 225.317 52.943 225.563 52.943 225.87C52.943 226.203 52.843 226.5 52.643 226.76C52.443 227.013 52.153 227.213 51.773 227.36C51.3997 227.507 50.943 227.58 50.403 227.58ZM56.5755 227.58C55.9622 227.58 55.4222 227.46 54.9555 227.22C54.4955 226.98 54.1389 226.653 53.8855 226.24C53.6322 225.82 53.5055 225.343 53.5055 224.81C53.5055 224.27 53.6289 223.793 53.8755 223.38C54.1289 222.96 54.4722 222.633 54.9055 222.4C55.3389 222.16 55.8289 222.04 56.3755 222.04C56.9022 222.04 57.3755 222.153 57.7955 222.38C58.2222 222.6 58.5589 222.92 58.8055 223.34C59.0522 223.753 59.1755 224.25 59.1755 224.83C59.1755 224.89 59.1722 224.96 59.1655 225.04C59.1589 225.113 59.1522 225.183 59.1455 225.25H54.7755V224.34H58.3255L57.7255 224.61C57.7255 224.33 57.6689 224.087 57.5555 223.88C57.4422 223.673 57.2855 223.513 57.0855 223.4C56.8855 223.28 56.6522 223.22 56.3855 223.22C56.1189 223.22 55.8822 223.28 55.6755 223.4C55.4755 223.513 55.3189 223.677 55.2055 223.89C55.0922 224.097 55.0355 224.343 55.0355 224.63V224.87C55.0355 225.163 55.0989 225.423 55.2255 225.65C55.3589 225.87 55.5422 226.04 55.7755 226.16C56.0155 226.273 56.2955 226.33 56.6155 226.33C56.9022 226.33 57.1522 226.287 57.3655 226.2C57.5855 226.113 57.7855 225.983 57.9655 225.81L58.7955 226.71C58.5489 226.99 58.2389 227.207 57.8655 227.36C57.4922 227.507 57.0622 227.58 56.5755 227.58ZM63.4841 222.04C63.9108 222.04 64.2908 222.127 64.6241 222.3C64.9641 222.467 65.2308 222.727 65.4241 223.08C65.6175 223.427 65.7141 223.873 65.7141 224.42V227.5H64.1541V224.66C64.1541 224.227 64.0575 223.907 63.8641 223.7C63.6775 223.493 63.4108 223.39 63.0641 223.39C62.8175 223.39 62.5941 223.443 62.3941 223.55C62.2008 223.65 62.0475 223.807 61.9341 224.02C61.8275 224.233 61.7741 224.507 61.7741 224.84V227.5H60.2141V222.12H61.7041V223.61L61.4241 223.16C61.6175 222.8 61.8941 222.523 62.2541 222.33C62.6141 222.137 63.0241 222.04 63.4841 222.04ZM63.7241 221.46C63.5508 221.46 63.3975 221.43 63.2641 221.37C63.1308 221.303 63.0108 221.23 62.9041 221.15C62.7975 221.063 62.6975 220.99 62.6041 220.93C62.5108 220.863 62.4175 220.83 62.3241 220.83C62.1908 220.83 62.0808 220.88 61.9941 220.98C61.9075 221.073 61.8575 221.21 61.8441 221.39H61.0541C61.0675 220.943 61.1775 220.59 61.3841 220.33C61.5908 220.063 61.8708 219.93 62.2241 219.93C62.3975 219.93 62.5508 219.963 62.6841 220.03C62.8175 220.09 62.9375 220.163 63.0441 220.25C63.1575 220.337 63.2608 220.413 63.3541 220.48C63.4475 220.54 63.5375 220.57 63.6241 220.57C63.7641 220.57 63.8775 220.523 63.9641 220.43C64.0508 220.33 64.0975 220.197 64.1041 220.03H64.8941C64.8875 220.457 64.7775 220.803 64.5641 221.07C64.3575 221.33 64.0775 221.46 63.7241 221.46ZM69.7273 227.58C69.1539 227.58 68.6439 227.46 68.1973 227.22C67.7573 226.98 67.4073 226.653 67.1473 226.24C66.8939 225.82 66.7673 225.343 66.7673 224.81C66.7673 224.27 66.8939 223.793 67.1473 223.38C67.4073 222.96 67.7573 222.633 68.1973 222.4C68.6439 222.16 69.1539 222.04 69.7273 222.04C70.2939 222.04 70.8006 222.16 71.2473 222.4C71.6939 222.633 72.0439 222.957 72.2973 223.37C72.5506 223.783 72.6773 224.263 72.6773 224.81C72.6773 225.343 72.5506 225.82 72.2973 226.24C72.0439 226.653 71.6939 226.98 71.2473 227.22C70.8006 227.46 70.2939 227.58 69.7273 227.58ZM69.7273 226.3C69.9873 226.3 70.2206 226.24 70.4273 226.12C70.6339 226 70.7973 225.83 70.9173 225.61C71.0373 225.383 71.0973 225.117 71.0973 224.81C71.0973 224.497 71.0373 224.23 70.9173 224.01C70.7973 223.79 70.6339 223.62 70.4273 223.5C70.2206 223.38 69.9873 223.32 69.7273 223.32C69.4673 223.32 69.2339 223.38 69.0273 223.5C68.8206 223.62 68.6539 223.79 68.5273 224.01C68.4073 224.23 68.3473 224.497 68.3473 224.81C68.3473 225.117 68.4073 225.383 68.5273 225.61C68.6539 225.83 68.8206 226 69.0273 226.12C69.2339 226.24 69.4673 226.3 69.7273 226.3ZM48.958 240.62C48.4047 240.62 47.8947 240.533 47.428 240.36C46.968 240.18 46.5647 239.927 46.218 239.6C45.878 239.273 45.6114 238.89 45.418 238.45C45.2314 238.01 45.138 237.527 45.138 237C45.138 236.473 45.2314 235.99 45.418 235.55C45.6114 235.11 45.8814 234.727 46.228 234.4C46.5747 234.073 46.9814 233.823 47.448 233.65C47.9147 233.47 48.428 233.38 48.988 233.38C49.608 233.38 50.1647 233.483 50.658 233.69C51.158 233.897 51.578 234.197 51.918 234.59L50.878 235.55C50.6247 235.283 50.348 235.087 50.048 234.96C49.748 234.827 49.4214 234.76 49.068 234.76C48.728 234.76 48.418 234.813 48.138 234.92C47.858 235.027 47.6147 235.18 47.408 235.38C47.208 235.58 47.0514 235.817 46.938 236.09C46.8314 236.363 46.778 236.667 46.778 237C46.778 237.327 46.8314 237.627 46.938 237.9C47.0514 238.173 47.208 238.413 47.408 238.62C47.6147 238.82 47.8547 238.973 48.128 239.08C48.408 239.187 48.7147 239.24 49.048 239.24C49.368 239.24 49.678 239.19 49.978 239.09C50.2847 238.983 50.5814 238.807 50.868 238.56L51.788 239.73C51.408 240.017 50.9647 240.237 50.458 240.39C49.958 240.543 49.458 240.62 48.958 240.62ZM50.308 239.52V236.89H51.788V239.73L50.308 239.52ZM53.2929 240.5V233.5H54.9129V239.18H58.4229V240.5H53.2929ZM62.3502 240.62C61.3568 240.62 60.5802 240.343 60.0202 239.79C59.4602 239.237 59.1802 238.447 59.1802 237.42V233.5H60.8002V237.36C60.8002 238.027 60.9368 238.507 61.2102 238.8C61.4835 239.093 61.8668 239.24 62.3602 239.24C62.8535 239.24 63.2368 239.093 63.5102 238.8C63.7835 238.507 63.9202 238.027 63.9202 237.36V233.5H65.5202V237.42C65.5202 238.447 65.2402 239.237 64.6802 239.79C64.1202 240.343 63.3435 240.62 62.3502 240.62ZM68.611 236.32H71.981V237.58H68.611V236.32ZM68.731 239.2H72.541V240.5H67.121V233.5H72.411V234.8H68.731V239.2Z" fill="#833177"/>
<path d="M78 2L88 2" stroke="#833177" stroke-width="4" stroke-linecap="round"/>
<path d="M83 446L83 2.00001" stroke="#833177" stroke-width="4" stroke-linecap="round"/>
<path d="M78 446H88" stroke="#833177" stroke-width="4" stroke-linecap="round"/>
<path d="M4.00555 554.08C3.42555 554.08 2.90888 553.963 2.45555 553.73C2.00221 553.49 1.64555 553.16 1.38555 552.74C1.13221 552.32 1.00555 551.843 1.00555 551.31C1.00555 550.77 1.13221 550.293 1.38555 549.88C1.64555 549.46 2.00221 549.133 2.45555 548.9C2.90888 548.66 3.42555 548.54 4.00555 548.54C4.57221 548.54 5.06555 548.66 5.48555 548.9C5.90555 549.133 6.21555 549.47 6.41555 549.91L5.20555 550.56C5.06555 550.307 4.88888 550.12 4.67555 550C4.46888 549.88 4.24221 549.82 3.99555 549.82C3.72888 549.82 3.48888 549.88 3.27555 550C3.06221 550.12 2.89221 550.29 2.76555 550.51C2.64555 550.73 2.58555 550.997 2.58555 551.31C2.58555 551.623 2.64555 551.89 2.76555 552.11C2.89221 552.33 3.06221 552.5 3.27555 552.62C3.48888 552.74 3.72888 552.8 3.99555 552.8C4.24221 552.8 4.46888 552.743 4.67555 552.63C4.88888 552.51 5.06555 552.32 5.20555 552.06L6.41555 552.72C6.21555 553.153 5.90555 553.49 5.48555 553.73C5.06555 553.963 4.57221 554.08 4.00555 554.08ZM9.80539 554.08C9.23206 554.08 8.72206 553.96 8.27539 553.72C7.83539 553.48 7.48539 553.153 7.22539 552.74C6.97206 552.32 6.84539 551.843 6.84539 551.31C6.84539 550.77 6.97206 550.293 7.22539 549.88C7.48539 549.46 7.83539 549.133 8.27539 548.9C8.72206 548.66 9.23206 548.54 9.80539 548.54C10.3721 548.54 10.8787 548.66 11.3254 548.9C11.7721 549.133 12.1221 549.457 12.3754 549.87C12.6287 550.283 12.7554 550.763 12.7554 551.31C12.7554 551.843 12.6287 552.32 12.3754 552.74C12.1221 553.153 11.7721 553.48 11.3254 553.72C10.8787 553.96 10.3721 554.08 9.80539 554.08ZM9.80539 552.8C10.0654 552.8 10.2987 552.74 10.5054 552.62C10.7121 552.5 10.8754 552.33 10.9954 552.11C11.1154 551.883 11.1754 551.617 11.1754 551.31C11.1754 550.997 11.1154 550.73 10.9954 550.51C10.8754 550.29 10.7121 550.12 10.5054 550C10.2987 549.88 10.0654 549.82 9.80539 549.82C9.54539 549.82 9.31206 549.88 9.10539 550C8.89872 550.12 8.73206 550.29 8.60539 550.51C8.48539 550.73 8.42539 550.997 8.42539 551.31C8.42539 551.617 8.48539 551.883 8.60539 552.11C8.73206 552.33 8.89872 552.5 9.10539 552.62C9.31206 552.74 9.54539 552.8 9.80539 552.8ZM20.6881 548.54C21.1148 548.54 21.4915 548.627 21.8181 548.8C22.1515 548.967 22.4115 549.227 22.5981 549.58C22.7915 549.927 22.8881 550.373 22.8881 550.92V554H21.3281V551.16C21.3281 550.727 21.2381 550.407 21.0581 550.2C20.8781 549.993 20.6248 549.89 20.2981 549.89C20.0715 549.89 19.8681 549.943 19.6881 550.05C19.5081 550.15 19.3681 550.303 19.2681 550.51C19.1681 550.717 19.1181 550.98 19.1181 551.3V554H17.5581V551.16C17.5581 550.727 17.4681 550.407 17.2881 550.2C17.1148 549.993 16.8648 549.89 16.5381 549.89C16.3115 549.89 16.1081 549.943 15.9281 550.05C15.7481 550.15 15.6081 550.303 15.5081 550.51C15.4081 550.717 15.3581 550.98 15.3581 551.3V554H13.7981V548.62H15.2881V550.09L15.0081 549.66C15.1948 549.293 15.4581 549.017 15.7981 548.83C16.1448 548.637 16.5381 548.54 16.9781 548.54C17.4715 548.54 17.9015 548.667 18.2681 548.92C18.6415 549.167 18.8881 549.547 19.0081 550.06L18.4581 549.91C18.6381 549.49 18.9248 549.157 19.3181 548.91C19.7181 548.663 20.1748 548.54 20.6881 548.54ZM27.4664 554.08C27.0131 554.08 26.6164 553.98 26.2764 553.78C25.9364 553.58 25.6697 553.277 25.4764 552.87C25.2897 552.457 25.1964 551.937 25.1964 551.31C25.1964 550.677 25.2864 550.157 25.4664 549.75C25.6464 549.343 25.9064 549.04 26.2464 548.84C26.5864 548.64 26.9931 548.54 27.4664 548.54C27.9731 548.54 28.4264 548.657 28.8264 548.89C29.2331 549.117 29.5531 549.437 29.7864 549.85C30.0264 550.263 30.1464 550.75 30.1464 551.31C30.1464 551.877 30.0264 552.367 29.7864 552.78C29.5531 553.193 29.2331 553.513 28.8264 553.74C28.4264 553.967 27.9731 554.08 27.4664 554.08ZM24.2864 555.94V548.62H25.7764V549.72L25.7464 551.32L25.8464 552.91V555.94H24.2864ZM27.1964 552.8C27.4564 552.8 27.6864 552.74 27.8864 552.62C28.0931 552.5 28.2564 552.33 28.3764 552.11C28.5031 551.883 28.5664 551.617 28.5664 551.31C28.5664 550.997 28.5031 550.73 28.3764 550.51C28.2564 550.29 28.0931 550.12 27.8864 550C27.6864 549.88 27.4564 549.82 27.1964 549.82C26.9364 549.82 26.7031 549.88 26.4964 550C26.2897 550.12 26.1264 550.29 26.0064 550.51C25.8864 550.73 25.8264 550.997 25.8264 551.31C25.8264 551.617 25.8864 551.883 26.0064 552.11C26.1264 552.33 26.2897 552.5 26.4964 552.62C26.7031 552.74 26.9364 552.8 27.1964 552.8ZM33.7507 554.08C33.1774 554.08 32.6674 553.96 32.2207 553.72C31.7807 553.48 31.4307 553.153 31.1707 552.74C30.9174 552.32 30.7907 551.843 30.7907 551.31C30.7907 550.77 30.9174 550.293 31.1707 549.88C31.4307 549.46 31.7807 549.133 32.2207 548.9C32.6674 548.66 33.1774 548.54 33.7507 548.54C34.3174 548.54 34.824 548.66 35.2707 548.9C35.7174 549.133 36.0674 549.457 36.3207 549.87C36.574 550.283 36.7007 550.763 36.7007 551.31C36.7007 551.843 36.574 552.32 36.3207 552.74C36.0674 553.153 35.7174 553.48 35.2707 553.72C34.824 553.96 34.3174 554.08 33.7507 554.08ZM33.7507 552.8C34.0107 552.8 34.244 552.74 34.4507 552.62C34.6574 552.5 34.8207 552.33 34.9407 552.11C35.0607 551.883 35.1207 551.617 35.1207 551.31C35.1207 550.997 35.0607 550.73 34.9407 550.51C34.8207 550.29 34.6574 550.12 34.4507 550C34.244 549.88 34.0107 549.82 33.7507 549.82C33.4907 549.82 33.2574 549.88 33.0507 550C32.844 550.12 32.6774 550.29 32.5507 550.51C32.4307 550.73 32.3707 550.997 32.3707 551.31C32.3707 551.617 32.4307 551.883 32.5507 552.11C32.6774 552.33 32.844 552.5 33.0507 552.62C33.2574 552.74 33.4907 552.8 33.7507 552.8ZM41.0134 548.54C41.4401 548.54 41.8201 548.627 42.1534 548.8C42.4934 548.967 42.7601 549.227 42.9534 549.58C43.1468 549.927 43.2434 550.373 43.2434 550.92V554H41.6834V551.16C41.6834 550.727 41.5868 550.407 41.3934 550.2C41.2068 549.993 40.9401 549.89 40.5934 549.89C40.3468 549.89 40.1234 549.943 39.9234 550.05C39.7301 550.15 39.5768 550.307 39.4634 550.52C39.3568 550.733 39.3034 551.007 39.3034 551.34V554H37.7434V548.62H39.2334V550.11L38.9534 549.66C39.1468 549.3 39.4234 549.023 39.7834 548.83C40.1434 548.637 40.5534 548.54 41.0134 548.54ZM47.3666 554.08C46.7532 554.08 46.2132 553.96 45.7466 553.72C45.2866 553.48 44.9299 553.153 44.6766 552.74C44.4232 552.32 44.2966 551.843 44.2966 551.31C44.2966 550.77 44.4199 550.293 44.6666 549.88C44.9199 549.46 45.2632 549.133 45.6966 548.9C46.1299 548.66 46.6199 548.54 47.1666 548.54C47.6932 548.54 48.1666 548.653 48.5866 548.88C49.0132 549.1 49.3499 549.42 49.5966 549.84C49.8432 550.253 49.9666 550.75 49.9666 551.33C49.9666 551.39 49.9632 551.46 49.9566 551.54C49.9499 551.613 49.9432 551.683 49.9366 551.75H45.5666V550.84H49.1166L48.5166 551.11C48.5166 550.83 48.4599 550.587 48.3466 550.38C48.2332 550.173 48.0766 550.013 47.8766 549.9C47.6766 549.78 47.4432 549.72 47.1766 549.72C46.9099 549.72 46.6732 549.78 46.4666 549.9C46.2666 550.013 46.1099 550.177 45.9966 550.39C45.8832 550.597 45.8266 550.843 45.8266 551.13V551.37C45.8266 551.663 45.8899 551.923 46.0166 552.15C46.1499 552.37 46.3332 552.54 46.5666 552.66C46.8066 552.773 47.0866 552.83 47.4066 552.83C47.6932 552.83 47.9432 552.787 48.1566 552.7C48.3766 552.613 48.5766 552.483 48.7566 552.31L49.5866 553.21C49.3399 553.49 49.0299 553.707 48.6566 553.86C48.2832 554.007 47.8532 554.08 47.3666 554.08ZM54.2752 548.54C54.7018 548.54 55.0818 548.627 55.4152 548.8C55.7552 548.967 56.0218 549.227 56.2152 549.58C56.4085 549.927 56.5052 550.373 56.5052 550.92V554H54.9452V551.16C54.9452 550.727 54.8485 550.407 54.6552 550.2C54.4685 549.993 54.2018 549.89 53.8552 549.89C53.6085 549.89 53.3852 549.943 53.1852 550.05C52.9918 550.15 52.8385 550.307 52.7252 550.52C52.6185 550.733 52.5652 551.007 52.5652 551.34V554H51.0052V548.62H52.4952V550.11L52.2152 549.66C52.4085 549.3 52.6852 549.023 53.0452 548.83C53.4052 548.637 53.8152 548.54 54.2752 548.54ZM60.1192 554.08C59.4859 554.08 58.9926 553.92 58.6392 553.6C58.2859 553.273 58.1092 552.79 58.1092 552.15V547.43H59.6692V552.13C59.6692 552.357 59.7292 552.533 59.8492 552.66C59.9692 552.78 60.1326 552.84 60.3392 552.84C60.5859 552.84 60.7959 552.773 60.9692 552.64L61.3892 553.74C61.2292 553.853 61.0359 553.94 60.8092 554C60.5892 554.053 60.3592 554.08 60.1192 554.08ZM57.2792 549.94V548.74H61.0092V549.94H57.2792ZM64.7689 554.08C64.1556 554.08 63.6156 553.96 63.1489 553.72C62.6889 553.48 62.3322 553.153 62.0789 552.74C61.8256 552.32 61.6989 551.843 61.6989 551.31C61.6989 550.77 61.8222 550.293 62.0689 549.88C62.3222 549.46 62.6656 549.133 63.0989 548.9C63.5322 548.66 64.0222 548.54 64.5689 548.54C65.0956 548.54 65.5689 548.653 65.9889 548.88C66.4156 549.1 66.7522 549.42 66.9989 549.84C67.2456 550.253 67.3689 550.75 67.3689 551.33C67.3689 551.39 67.3656 551.46 67.3589 551.54C67.3522 551.613 67.3456 551.683 67.3389 551.75H62.9689V550.84H66.5189L65.9189 551.11C65.9189 550.83 65.8622 550.587 65.7489 550.38C65.6356 550.173 65.4789 550.013 65.2789 549.9C65.0789 549.78 64.8456 549.72 64.5789 549.72C64.3122 549.72 64.0756 549.78 63.8689 549.9C63.6689 550.013 63.5122 550.177 63.3989 550.39C63.2856 550.597 63.2289 550.843 63.2289 551.13V551.37C63.2289 551.663 63.2922 551.923 63.4189 552.15C63.5522 552.37 63.7356 552.54 63.9689 552.66C64.2089 552.773 64.4889 552.83 64.8089 552.83C65.0956 552.83 65.3456 552.787 65.5589 552.7C65.7789 552.613 65.9789 552.483 66.1589 552.31L66.9889 553.21C66.7422 553.49 66.4322 553.707 66.0589 553.86C65.6856 554.007 65.2556 554.08 64.7689 554.08ZM70.2175 554.08C69.7575 554.08 69.3142 554.027 68.8875 553.92C68.4675 553.807 68.1342 553.667 67.8875 553.5L68.4075 552.38C68.6542 552.533 68.9442 552.66 69.2775 552.76C69.6175 552.853 69.9508 552.9 70.2775 552.9C70.6375 552.9 70.8908 552.857 71.0375 552.77C71.1908 552.683 71.2675 552.563 71.2675 552.41C71.2675 552.283 71.2075 552.19 71.0875 552.13C70.9742 552.063 70.8208 552.013 70.6275 551.98C70.4342 551.947 70.2208 551.913 69.9875 551.88C69.7608 551.847 69.5308 551.803 69.2975 551.75C69.0642 551.69 68.8508 551.603 68.6575 551.49C68.4642 551.377 68.3075 551.223 68.1875 551.03C68.0742 550.837 68.0175 550.587 68.0175 550.28C68.0175 549.94 68.1142 549.64 68.3075 549.38C68.5075 549.12 68.7942 548.917 69.1675 548.77C69.5408 548.617 69.9875 548.54 70.5075 548.54C70.8742 548.54 71.2475 548.58 71.6275 548.66C72.0075 548.74 72.3242 548.857 72.5775 549.01L72.0575 550.12C71.7975 549.967 71.5342 549.863 71.2675 549.81C71.0075 549.75 70.7542 549.72 70.5075 549.72C70.1608 549.72 69.9075 549.767 69.7475 549.86C69.5875 549.953 69.5075 550.073 69.5075 550.22C69.5075 550.353 69.5642 550.453 69.6775 550.52C69.7975 550.587 69.9542 550.64 70.1475 550.68C70.3408 550.72 70.5508 550.757 70.7775 550.79C71.0108 550.817 71.2442 550.86 71.4775 550.92C71.7108 550.98 71.9208 551.067 72.1075 551.18C72.3008 551.287 72.4575 551.437 72.5775 551.63C72.6975 551.817 72.7575 552.063 72.7575 552.37C72.7575 552.703 72.6575 553 72.4575 553.26C72.2575 553.513 71.9675 553.713 71.5875 553.86C71.2142 554.007 70.7575 554.08 70.2175 554.08ZM37.4505 567V559.58H39.0105V567H37.4505ZM43.0183 567.08C42.4449 567.08 41.9349 566.96 41.4883 566.72C41.0483 566.48 40.6983 566.153 40.4383 565.74C40.1849 565.32 40.0583 564.843 40.0583 564.31C40.0583 563.77 40.1849 563.293 40.4383 562.88C40.6983 562.46 41.0483 562.133 41.4883 561.9C41.9349 561.66 42.4449 561.54 43.0183 561.54C43.5849 561.54 44.0916 561.66 44.5383 561.9C44.9849 562.133 45.3349 562.457 45.5883 562.87C45.8416 563.283 45.9683 563.763 45.9683 564.31C45.9683 564.843 45.8416 565.32 45.5883 565.74C45.3349 566.153 44.9849 566.48 44.5383 566.72C44.0916 566.96 43.5849 567.08 43.0183 567.08ZM43.0183 565.8C43.2783 565.8 43.5116 565.74 43.7183 565.62C43.9249 565.5 44.0883 565.33 44.2083 565.11C44.3283 564.883 44.3883 564.617 44.3883 564.31C44.3883 563.997 44.3283 563.73 44.2083 563.51C44.0883 563.29 43.9249 563.12 43.7183 563C43.5116 562.88 43.2783 562.82 43.0183 562.82C42.7583 562.82 42.5249 562.88 42.3183 563C42.1116 563.12 41.9449 563.29 41.8183 563.51C41.6983 563.73 41.6383 563.997 41.6383 564.31C41.6383 564.617 41.6983 564.883 41.8183 565.11C41.9449 565.33 42.1116 565.5 42.3183 565.62C42.5249 565.74 42.7583 565.8 43.0183 565.8ZM49.611 567.08C49.031 567.08 48.5143 566.963 48.061 566.73C47.6077 566.49 47.251 566.16 46.991 565.74C46.7377 565.32 46.611 564.843 46.611 564.31C46.611 563.77 46.7377 563.293 46.991 562.88C47.251 562.46 47.6077 562.133 48.061 561.9C48.5143 561.66 49.031 561.54 49.611 561.54C50.1777 561.54 50.671 561.66 51.091 561.9C51.511 562.133 51.821 562.47 52.021 562.91L50.811 563.56C50.671 563.307 50.4943 563.12 50.281 563C50.0743 562.88 49.8477 562.82 49.601 562.82C49.3343 562.82 49.0943 562.88 48.881 563C48.6677 563.12 48.4977 563.29 48.371 563.51C48.251 563.73 48.191 563.997 48.191 564.31C48.191 564.623 48.251 564.89 48.371 565.11C48.4977 565.33 48.6677 565.5 48.881 565.62C49.0943 565.74 49.3343 565.8 49.601 565.8C49.8477 565.8 50.0743 565.743 50.281 565.63C50.4943 565.51 50.671 565.32 50.811 565.06L52.021 565.72C51.821 566.153 51.511 566.49 51.091 566.73C50.671 566.963 50.1777 567.08 49.611 567.08ZM56.2192 567V565.95L56.1192 565.72V563.84C56.1192 563.507 56.0159 563.247 55.8092 563.06C55.6092 562.873 55.2992 562.78 54.8792 562.78C54.5926 562.78 54.3092 562.827 54.0292 562.92C53.7559 563.007 53.5226 563.127 53.3292 563.28L52.7692 562.19C53.0626 561.983 53.4159 561.823 53.8292 561.71C54.2426 561.597 54.6626 561.54 55.0892 561.54C55.9092 561.54 56.5459 561.733 56.9992 562.12C57.4526 562.507 57.6792 563.11 57.6792 563.93V567H56.2192ZM54.5792 567.08C54.1592 567.08 53.7992 567.01 53.4992 566.87C53.1992 566.723 52.9692 566.527 52.8092 566.28C52.6492 566.033 52.5692 565.757 52.5692 565.45C52.5692 565.13 52.6459 564.85 52.7992 564.61C52.9592 564.37 53.2092 564.183 53.5492 564.05C53.8892 563.91 54.3326 563.84 54.8792 563.84H56.3092V564.75H55.0492C54.6826 564.75 54.4292 564.81 54.2892 564.93C54.1559 565.05 54.0892 565.2 54.0892 565.38C54.0892 565.58 54.1659 565.74 54.3192 565.86C54.4792 565.973 54.6959 566.03 54.9692 566.03C55.2292 566.03 55.4626 565.97 55.6692 565.85C55.8759 565.723 56.0259 565.54 56.1192 565.3L56.3592 566.02C56.2459 566.367 56.0392 566.63 55.7392 566.81C55.4392 566.99 55.0526 567.08 54.5792 567.08ZM59.0911 567V559.58H60.6511V567H59.0911ZM64.7689 567.08C64.1556 567.08 63.6156 566.96 63.1489 566.72C62.6889 566.48 62.3322 566.153 62.0789 565.74C61.8256 565.32 61.6989 564.843 61.6989 564.31C61.6989 563.77 61.8222 563.293 62.0689 562.88C62.3222 562.46 62.6656 562.133 63.0989 561.9C63.5322 561.66 64.0222 561.54 64.5689 561.54C65.0956 561.54 65.5689 561.653 65.9889 561.88C66.4156 562.1 66.7522 562.42 66.9989 562.84C67.2456 563.253 67.3689 563.75 67.3689 564.33C67.3689 564.39 67.3656 564.46 67.3589 564.54C67.3522 564.613 67.3456 564.683 67.3389 564.75H62.9689V563.84H66.5189L65.9189 564.11C65.9189 563.83 65.8622 563.587 65.7489 563.38C65.6356 563.173 65.4789 563.013 65.2789 562.9C65.0789 562.78 64.8456 562.72 64.5789 562.72C64.3122 562.72 64.0756 562.78 63.8689 562.9C63.6689 563.013 63.5122 563.177 63.3989 563.39C63.2856 563.597 63.2289 563.843 63.2289 564.13V564.37C63.2289 564.663 63.2922 564.923 63.4189 565.15C63.5522 565.37 63.7356 565.54 63.9689 565.66C64.2089 565.773 64.4889 565.83 64.8089 565.83C65.0956 565.83 65.3456 565.787 65.5589 565.7C65.7789 565.613 65.9789 565.483 66.1589 565.31L66.9889 566.21C66.7422 566.49 66.4322 566.707 66.0589 566.86C65.6856 567.007 65.2556 567.08 64.7689 567.08ZM70.2175 567.08C69.7575 567.08 69.3142 567.027 68.8875 566.92C68.4675 566.807 68.1342 566.667 67.8875 566.5L68.4075 565.38C68.6542 565.533 68.9442 565.66 69.2775 565.76C69.6175 565.853 69.9508 565.9 70.2775 565.9C70.6375 565.9 70.8908 565.857 71.0375 565.77C71.1908 565.683 71.2675 565.563 71.2675 565.41C71.2675 565.283 71.2075 565.19 71.0875 565.13C70.9742 565.063 70.8208 565.013 70.6275 564.98C70.4342 564.947 70.2208 564.913 69.9875 564.88C69.7608 564.847 69.5308 564.803 69.2975 564.75C69.0642 564.69 68.8508 564.603 68.6575 564.49C68.4642 564.377 68.3075 564.223 68.1875 564.03C68.0742 563.837 68.0175 563.587 68.0175 563.28C68.0175 562.94 68.1142 562.64 68.3075 562.38C68.5075 562.12 68.7942 561.917 69.1675 561.77C69.5408 561.617 69.9875 561.54 70.5075 561.54C70.8742 561.54 71.2475 561.58 71.6275 561.66C72.0075 561.74 72.3242 561.857 72.5775 562.01L72.0575 563.12C71.7975 562.967 71.5342 562.863 71.2675 562.81C71.0075 562.75 70.7542 562.72 70.5075 562.72C70.1608 562.72 69.9075 562.767 69.7475 562.86C69.5875 562.953 69.5075 563.073 69.5075 563.22C69.5075 563.353 69.5642 563.453 69.6775 563.52C69.7975 563.587 69.9542 563.64 70.1475 563.68C70.3408 563.72 70.5508 563.757 70.7775 563.79C71.0108 563.817 71.2442 563.86 71.4775 563.92C71.7108 563.98 71.9208 564.067 72.1075 564.18C72.3008 564.287 72.4575 564.437 72.5775 564.63C72.6975 564.817 72.7575 565.063 72.7575 565.37C72.7575 565.703 72.6575 566 72.4575 566.26C72.2575 566.513 71.9675 566.713 71.5875 566.86C71.2142 567.007 70.7575 567.08 70.2175 567.08Z" fill="#833177"/>
<path d="M78 446H88" stroke="#833177" stroke-width="4" stroke-linecap="round"/>
<path d="M83 668L83 446" stroke="#833177" stroke-width="4" stroke-linecap="round"/>
<path d="M78 668H88" stroke="#833177" stroke-width="4" stroke-linecap="round"/>
<path d="M139.996 29V20.6H141.94V29H139.996ZM148.974 29.144C148.31 29.144 147.694 29.036 147.126 28.82C146.566 28.604 146.078 28.3 145.662 27.908C145.254 27.516 144.934 27.056 144.702 26.528C144.478 26 144.366 25.424 144.366 24.8C144.366 24.176 144.478 23.6 144.702 23.072C144.934 22.544 145.258 22.084 145.674 21.692C146.09 21.3 146.578 20.996 147.138 20.78C147.698 20.564 148.306 20.456 148.962 20.456C149.626 20.456 150.234 20.564 150.786 20.78C151.346 20.996 151.83 21.3 152.238 21.692C152.654 22.084 152.978 22.544 153.21 23.072C153.442 23.592 153.558 24.168 153.558 24.8C153.558 25.424 153.442 26.004 153.21 26.54C152.978 27.068 152.654 27.528 152.238 27.92C151.83 28.304 151.346 28.604 150.786 28.82C150.234 29.036 149.63 29.144 148.974 29.144ZM148.962 27.488C149.338 27.488 149.682 27.424 149.994 27.296C150.314 27.168 150.594 26.984 150.834 26.744C151.074 26.504 151.258 26.22 151.386 25.892C151.522 25.564 151.59 25.2 151.59 24.8C151.59 24.4 151.522 24.036 151.386 23.708C151.258 23.38 151.074 23.096 150.834 22.856C150.602 22.616 150.326 22.432 150.006 22.304C149.686 22.176 149.338 22.112 148.962 22.112C148.586 22.112 148.238 22.176 147.918 22.304C147.606 22.432 147.33 22.616 147.09 22.856C146.85 23.096 146.662 23.38 146.526 23.708C146.398 24.036 146.334 24.4 146.334 24.8C146.334 25.192 146.398 25.556 146.526 25.892C146.662 26.22 146.846 26.504 147.078 26.744C147.318 26.984 147.598 27.168 147.918 27.296C148.238 27.424 148.586 27.488 148.962 27.488ZM147.87 19.916L149.49 18.188H151.506L149.334 19.916H147.87ZM155.979 29V20.6H157.587L162.543 26.648H161.763V20.6H163.683V29H162.087L157.119 22.952H157.899V29H155.979Z" fill="#333333"/>
<mask id="mask0_1237_15716" style="mask-type:alpha" maskUnits="userSpaceOnUse" x="129" y="45" width="46" height="46">
<rect x="129.5" y="45.5" width="45" height="45" fill="#D9D9D9"/>
</mask>
<g mask="url(#mask0_1237_15716)">
<path d="M140.75 82.9995C139.719 82.9995 138.836 82.6323 138.102 81.8979C137.367 81.1636 137 80.2808 137 79.2495C137 78.2183 137.367 77.3355 138.102 76.6011C138.836 75.8667 139.719 75.4995 140.75 75.4995C141.781 75.4995 142.664 75.8667 143.398 76.6011C144.133 77.3355 144.5 78.2183 144.5 79.2495C144.5 80.2808 144.133 81.1636 143.398 81.8979C142.664 82.6323 141.781 82.9995 140.75 82.9995ZM152 82.9995C150.969 82.9995 150.086 82.6323 149.352 81.8979C148.617 81.1636 148.25 80.2808 148.25 79.2495C148.25 78.2183 148.617 77.3355 149.352 76.6011C150.086 75.8667 150.969 75.4995 152 75.4995C153.031 75.4995 153.914 75.8667 154.648 76.6011C155.383 77.3355 155.75 78.2183 155.75 79.2495C155.75 80.2808 155.383 81.1636 154.648 81.8979C153.914 82.6323 153.031 82.9995 152 82.9995ZM163.25 82.9995C162.219 82.9995 161.336 82.6323 160.602 81.8979C159.867 81.1636 159.5 80.2808 159.5 79.2495C159.5 78.2183 159.867 77.3355 160.602 76.6011C161.336 75.8667 162.219 75.4995 163.25 75.4995C164.281 75.4995 165.164 75.8667 165.898 76.6011C166.633 77.3355 167 78.2183 167 79.2495C167 80.2808 166.633 81.1636 165.898 81.8979C165.164 82.6323 164.281 82.9995 163.25 82.9995ZM140.75 71.7495C139.719 71.7495 138.836 71.3823 138.102 70.6479C137.367 69.9136 137 69.0308 137 67.9995C137 66.9683 137.367 66.0854 138.102 65.3511C138.836 64.6167 139.719 64.2495 140.75 64.2495C141.781 64.2495 142.664 64.6167 143.398 65.3511C144.133 66.0854 144.5 66.9683 144.5 67.9995C144.5 69.0308 144.133 69.9136 143.398 70.6479C142.664 71.3823 141.781 71.7495 140.75 71.7495ZM152 71.7495C150.969 71.7495 150.086 71.3823 149.352 70.6479C148.617 69.9136 148.25 69.0308 148.25 67.9995C148.25 66.9683 148.617 66.0854 149.352 65.3511C150.086 64.6167 150.969 64.2495 152 64.2495C153.031 64.2495 153.914 64.6167 154.648 65.3511C155.383 66.0854 155.75 66.9683 155.75 67.9995C155.75 69.0308 155.383 69.9136 154.648 70.6479C153.914 71.3823 153.031 71.7495 152 71.7495ZM163.25 71.7495C162.219 71.7495 161.336 71.3823 160.602 70.6479C159.867 69.9136 159.5 69.0308 159.5 67.9995C159.5 66.9683 159.867 66.0854 160.602 65.3511C161.336 64.6167 162.219 64.2495 163.25 64.2495C164.281 64.2495 165.164 64.6167 165.898 65.3511C166.633 66.0854 167 66.9683 167 67.9995C167 69.0308 166.633 69.9136 165.898 70.6479C165.164 71.3823 164.281 71.7495 163.25 71.7495ZM140.75 60.4995C139.719 60.4995 138.836 60.1323 138.102 59.3979C137.367 58.6636 137 57.7808 137 56.7495C137 55.7183 137.367 54.8354 138.102 54.1011C138.836 53.3667 139.719 52.9995 140.75 52.9995C141.781 52.9995 142.664 53.3667 143.398 54.1011C144.133 54.8354 144.5 55.7183 144.5 56.7495C144.5 57.7808 144.133 58.6636 143.398 59.3979C142.664 60.1323 141.781 60.4995 140.75 60.4995ZM152 60.4995C150.969 60.4995 150.086 60.1323 149.352 59.3979C148.617 58.6636 148.25 57.7808 148.25 56.7495C148.25 55.7183 148.617 54.8354 149.352 54.1011C150.086 53.3667 150.969 52.9995 152 52.9995C153.031 52.9995 153.914 53.3667 154.648 54.1011C155.383 54.8354 155.75 55.7183 155.75 56.7495C155.75 57.7808 155.383 58.6636 154.648 59.3979C153.914 60.1323 153.031 60.4995 152 60.4995ZM163.25 60.4995C162.219 60.4995 161.336 60.1323 160.602 59.3979C159.867 58.6636 159.5 57.7808 159.5 56.7495C159.5 55.7183 159.867 54.8354 160.602 54.1011C161.336 53.3667 162.219 52.9995 163.25 52.9995C164.281 52.9995 165.164 53.3667 165.898 54.1011C166.633 54.8354 167 55.7183 167 56.7495C167 57.7808 166.633 58.6636 165.898 59.3979C165.164 60.1323 164.281 60.4995 163.25 60.4995Z" fill="#833177"/>
</g>
<path d="M125.892 140L129.636 131.6H131.556L135.312 140H133.272L130.2 132.584H130.968L127.884 140H125.892ZM127.764 138.2L128.28 136.724H132.6L133.128 138.2H127.764ZM129.504 130.916L131.124 129.188H133.14L130.968 130.916H129.504ZM138.462 140V133.184H135.774V131.6H143.094V133.184H140.406V140H138.462ZM149.062 140.144C148.398 140.144 147.782 140.036 147.214 139.82C146.654 139.604 146.166 139.3 145.75 138.908C145.342 138.516 145.022 138.056 144.79 137.528C144.566 137 144.454 136.424 144.454 135.8C144.454 135.176 144.566 134.6 144.79 134.072C145.022 133.544 145.346 133.084 145.762 132.692C146.178 132.3 146.666 131.996 147.226 131.78C147.786 131.564 148.394 131.456 149.05 131.456C149.714 131.456 150.322 131.564 150.874 131.78C151.434 131.996 151.918 132.3 152.326 132.692C152.742 133.084 153.066 133.544 153.298 134.072C153.53 134.592 153.646 135.168 153.646 135.8C153.646 136.424 153.53 137.004 153.298 137.54C153.066 138.068 152.742 138.528 152.326 138.92C151.918 139.304 151.434 139.604 150.874 139.82C150.322 140.036 149.718 140.144 149.062 140.144ZM149.05 138.488C149.426 138.488 149.77 138.424 150.082 138.296C150.402 138.168 150.682 137.984 150.922 137.744C151.162 137.504 151.346 137.22 151.474 136.892C151.61 136.564 151.678 136.2 151.678 135.8C151.678 135.4 151.61 135.036 151.474 134.708C151.346 134.38 151.162 134.096 150.922 133.856C150.69 133.616 150.414 133.432 150.094 133.304C149.774 133.176 149.426 133.112 149.05 133.112C148.674 133.112 148.326 133.176 148.006 133.304C147.694 133.432 147.418 133.616 147.178 133.856C146.938 134.096 146.75 134.38 146.614 134.708C146.486 135.036 146.422 135.4 146.422 135.8C146.422 136.192 146.486 136.556 146.614 136.892C146.75 137.22 146.934 137.504 147.166 137.744C147.406 137.984 147.686 138.168 148.006 138.296C148.326 138.424 148.674 138.488 149.05 138.488ZM156.067 140V131.6H157.675L161.251 137.528H160.399L163.915 131.6H165.511L165.535 140H163.711L163.699 134.396H164.035L161.227 139.112H160.351L157.483 134.396H157.891V140H156.067ZM172.568 140.144C171.904 140.144 171.288 140.036 170.72 139.82C170.16 139.604 169.672 139.3 169.256 138.908C168.848 138.516 168.528 138.056 168.296 137.528C168.072 137 167.96 136.424 167.96 135.8C167.96 135.176 168.072 134.6 168.296 134.072C168.528 133.544 168.852 133.084 169.268 132.692C169.684 132.3 170.172 131.996 170.732 131.78C171.292 131.564 171.9 131.456 172.556 131.456C173.22 131.456 173.828 131.564 174.38 131.78C174.94 131.996 175.424 132.3 175.832 132.692C176.248 133.084 176.572 133.544 176.804 134.072C177.036 134.592 177.152 135.168 177.152 135.8C177.152 136.424 177.036 137.004 176.804 137.54C176.572 138.068 176.248 138.528 175.832 138.92C175.424 139.304 174.94 139.604 174.38 139.82C173.828 140.036 173.224 140.144 172.568 140.144ZM172.556 138.488C172.932 138.488 173.276 138.424 173.588 138.296C173.908 138.168 174.188 137.984 174.428 137.744C174.668 137.504 174.852 137.22 174.98 136.892C175.116 136.564 175.184 136.2 175.184 135.8C175.184 135.4 175.116 135.036 174.98 134.708C174.852 134.38 174.668 134.096 174.428 133.856C174.196 133.616 173.92 133.432 173.6 133.304C173.28 133.176 172.932 133.112 172.556 133.112C172.18 133.112 171.832 133.176 171.512 133.304C171.2 133.432 170.924 133.616 170.684 133.856C170.444 134.096 170.256 134.38 170.12 134.708C169.992 135.036 169.928 135.4 169.928 135.8C169.928 136.192 169.992 136.556 170.12 136.892C170.256 137.22 170.44 137.504 170.672 137.744C170.912 137.984 171.192 138.168 171.512 138.296C171.832 138.424 172.18 138.488 172.556 138.488Z" fill="#333333"/>
<mask id="mask1_1237_15716" style="mask-type:alpha" maskUnits="userSpaceOnUse" x="129" y="156" width="46" height="46">
<rect x="129.5" y="156.5" width="45" height="45" fill="#D9D9D9"/>
</mask>
<g mask="url(#mask1_1237_15716)">
<path d="M148.25 177.125C148.781 177.125 149.227 176.945 149.586 176.586C149.945 176.227 150.125 175.781 150.125 175.25C150.125 174.719 149.945 174.273 149.586 173.914C149.227 173.555 148.781 173.375 148.25 173.375C147.719 173.375 147.273 173.555 146.914 173.914C146.555 174.273 146.375 174.719 146.375 175.25C146.375 175.781 146.555 176.227 146.914 176.586C147.273 176.945 147.719 177.125 148.25 177.125ZM148.25 184.625C148.781 184.625 149.227 184.445 149.586 184.086C149.945 183.727 150.125 183.281 150.125 182.75C150.125 182.219 149.945 181.773 149.586 181.414C149.227 181.055 148.781 180.875 148.25 180.875C147.719 180.875 147.273 181.055 146.914 181.414C146.555 181.773 146.375 182.219 146.375 182.75C146.375 183.281 146.555 183.727 146.914 184.086C147.273 184.445 147.719 184.625 148.25 184.625ZM142.625 176.188C142.875 176.188 143.094 176.094 143.281 175.906C143.469 175.719 143.562 175.5 143.562 175.25C143.562 175 143.469 174.781 143.281 174.594C143.094 174.406 142.875 174.312 142.625 174.312C142.375 174.312 142.156 174.406 141.969 174.594C141.781 174.781 141.688 175 141.688 175.25C141.688 175.5 141.781 175.719 141.969 175.906C142.156 176.094 142.375 176.188 142.625 176.188ZM148.25 189.312C148.5 189.312 148.719 189.219 148.906 189.031C149.094 188.844 149.188 188.625 149.188 188.375C149.188 188.125 149.094 187.906 148.906 187.719C148.719 187.531 148.5 187.438 148.25 187.438C148 187.438 147.781 187.531 147.594 187.719C147.406 187.906 147.312 188.125 147.312 188.375C147.312 188.625 147.406 188.844 147.594 189.031C147.781 189.219 148 189.312 148.25 189.312ZM142.625 183.688C142.875 183.688 143.094 183.594 143.281 183.406C143.469 183.219 143.562 183 143.562 182.75C143.562 182.5 143.469 182.281 143.281 182.094C143.094 181.906 142.875 181.812 142.625 181.812C142.375 181.812 142.156 181.906 141.969 182.094C141.781 182.281 141.688 182.5 141.688 182.75C141.688 183 141.781 183.219 141.969 183.406C142.156 183.594 142.375 183.688 142.625 183.688ZM148.25 170.562C148.5 170.562 148.719 170.469 148.906 170.281C149.094 170.094 149.188 169.875 149.188 169.625C149.188 169.375 149.094 169.156 148.906 168.969C148.719 168.781 148.5 168.688 148.25 168.688C148 168.688 147.781 168.781 147.594 168.969C147.406 169.156 147.312 169.375 147.312 169.625C147.312 169.875 147.406 170.094 147.594 170.281C147.781 170.469 148 170.562 148.25 170.562ZM155.75 177.125C156.281 177.125 156.727 176.945 157.086 176.586C157.445 176.227 157.625 175.781 157.625 175.25C157.625 174.719 157.445 174.273 157.086 173.914C156.727 173.555 156.281 173.375 155.75 173.375C155.219 173.375 154.773 173.555 154.414 173.914C154.055 174.273 153.875 174.719 153.875 175.25C153.875 175.781 154.055 176.227 154.414 176.586C154.773 176.945 155.219 177.125 155.75 177.125ZM155.75 170.562C156 170.562 156.219 170.469 156.406 170.281C156.594 170.094 156.688 169.875 156.688 169.625C156.688 169.375 156.594 169.156 156.406 168.969C156.219 168.781 156 168.688 155.75 168.688C155.5 168.688 155.281 168.781 155.094 168.969C154.906 169.156 154.812 169.375 154.812 169.625C154.812 169.875 154.906 170.094 155.094 170.281C155.281 170.469 155.5 170.562 155.75 170.562ZM161.375 183.688C161.625 183.688 161.844 183.594 162.031 183.406C162.219 183.219 162.312 183 162.312 182.75C162.312 182.5 162.219 182.281 162.031 182.094C161.844 181.906 161.625 181.812 161.375 181.812C161.125 181.812 160.906 181.906 160.719 182.094C160.531 182.281 160.438 182.5 160.438 182.75C160.438 183 160.531 183.219 160.719 183.406C160.906 183.594 161.125 183.688 161.375 183.688ZM161.375 176.188C161.625 176.188 161.844 176.094 162.031 175.906C162.219 175.719 162.312 175.5 162.312 175.25C162.312 175 162.219 174.781 162.031 174.594C161.844 174.406 161.625 174.312 161.375 174.312C161.125 174.312 160.906 174.406 160.719 174.594C160.531 174.781 160.438 175 160.438 175.25C160.438 175.5 160.531 175.719 160.719 175.906C160.906 176.094 161.125 176.188 161.375 176.188ZM152 197.75C149.406 197.75 146.969 197.258 144.687 196.273C142.406 195.289 140.422 193.953 138.734 192.266C137.047 190.578 135.711 188.594 134.727 186.313C133.742 184.031 133.25 181.594 133.25 179C133.25 176.406 133.742 173.969 134.727 171.687C135.711 169.406 137.047 167.422 138.734 165.734C140.422 164.047 142.406 162.711 144.687 161.727C146.969 160.742 149.406 160.25 152 160.25C154.594 160.25 157.031 160.742 159.313 161.727C161.594 162.711 163.578 164.047 165.266 165.734C166.953 167.422 168.289 169.406 169.273 171.687C170.258 173.969 170.75 176.406 170.75 179C170.75 181.594 170.258 184.031 169.273 186.313C168.289 188.594 166.953 190.578 165.266 192.266C163.578 193.953 161.594 195.289 159.313 196.273C157.031 197.258 154.594 197.75 152 197.75ZM152 194C156.188 194 159.734 192.547 162.641 189.641C165.547 186.734 167 183.188 167 179C167 174.812 165.547 171.266 162.641 168.359C159.734 165.453 156.188 164 152 164C147.812 164 144.266 165.453 141.359 168.359C138.453 171.266 137 174.812 137 179C137 183.188 138.453 186.734 141.359 189.641C144.266 192.547 147.812 194 152 194ZM155.75 189.312C156 189.312 156.219 189.219 156.406 189.031C156.594 188.844 156.688 188.625 156.688 188.375C156.688 188.125 156.594 187.906 156.406 187.719C156.219 187.531 156 187.438 155.75 187.438C155.5 187.438 155.281 187.531 155.094 187.719C154.906 187.906 154.812 188.125 154.812 188.375C154.812 188.625 154.906 188.844 155.094 189.031C155.281 189.219 155.5 189.312 155.75 189.312ZM155.75 184.625C156.281 184.625 156.727 184.445 157.086 184.086C157.445 183.727 157.625 183.281 157.625 182.75C157.625 182.219 157.445 181.773 157.086 181.414C156.727 181.055 156.281 180.875 155.75 180.875C155.219 180.875 154.773 181.055 154.414 181.414C154.055 181.773 153.875 182.219 153.875 182.75C153.875 183.281 154.055 183.727 154.414 184.086C154.773 184.445 155.219 184.625 155.75 184.625Z" fill="#833177"/>
</g>
<path d="M113.496 251V242.6H115.104L118.68 248.528H117.828L121.344 242.6H122.94L122.964 251H121.14L121.128 245.396H121.464L118.656 250.112H117.78L114.912 245.396H115.32V251H113.496ZM129.997 251.144C129.333 251.144 128.717 251.036 128.149 250.82C127.589 250.604 127.101 250.3 126.685 249.908C126.277 249.516 125.957 249.056 125.725 248.528C125.501 248 125.389 247.424 125.389 246.8C125.389 246.176 125.501 245.6 125.725 245.072C125.957 244.544 126.281 244.084 126.697 243.692C127.113 243.3 127.601 242.996 128.161 242.78C128.721 242.564 129.329 242.456 129.985 242.456C130.649 242.456 131.257 242.564 131.809 242.78C132.369 242.996 132.853 243.3 133.261 243.692C133.677 244.084 134.001 244.544 134.233 245.072C134.465 245.592 134.581 246.168 134.581 246.8C134.581 247.424 134.465 248.004 134.233 248.54C134.001 249.068 133.677 249.528 133.261 249.92C132.853 250.304 132.369 250.604 131.809 250.82C131.257 251.036 130.653 251.144 129.997 251.144ZM129.985 249.488C130.361 249.488 130.705 249.424 131.017 249.296C131.337 249.168 131.617 248.984 131.857 248.744C132.097 248.504 132.281 248.22 132.409 247.892C132.545 247.564 132.613 247.2 132.613 246.8C132.613 246.4 132.545 246.036 132.409 245.708C132.281 245.38 132.097 245.096 131.857 244.856C131.625 244.616 131.349 244.432 131.029 244.304C130.709 244.176 130.361 244.112 129.985 244.112C129.609 244.112 129.261 244.176 128.941 244.304C128.629 244.432 128.353 244.616 128.113 244.856C127.873 245.096 127.685 245.38 127.549 245.708C127.421 246.036 127.357 246.4 127.357 246.8C127.357 247.192 127.421 247.556 127.549 247.892C127.685 248.22 127.869 248.504 128.101 248.744C128.341 248.984 128.621 249.168 128.941 249.296C129.261 249.424 129.609 249.488 129.985 249.488ZM137.002 251V242.6H138.946V249.416H143.158V251H137.002ZM146.992 245.984H151.036V247.496H146.992V245.984ZM147.136 249.44H151.708V251H145.204V242.6H151.552V244.16H147.136V249.44ZM147.292 241.916L148.912 240.188H150.928L148.756 241.916H147.292ZM158.235 251.144C157.587 251.144 156.983 251.04 156.423 250.832C155.871 250.616 155.391 250.312 154.983 249.92C154.575 249.528 154.255 249.068 154.023 248.54C153.799 248.012 153.687 247.432 153.687 246.8C153.687 246.168 153.799 245.588 154.023 245.06C154.255 244.532 154.575 244.072 154.983 243.68C155.399 243.288 155.883 242.988 156.435 242.78C156.987 242.564 157.591 242.456 158.247 242.456C158.975 242.456 159.631 242.584 160.215 242.84C160.807 243.088 161.303 243.456 161.703 243.944L160.455 245.096C160.167 244.768 159.847 244.524 159.495 244.364C159.143 244.196 158.759 244.112 158.343 244.112C157.951 244.112 157.591 244.176 157.263 244.304C156.935 244.432 156.651 244.616 156.411 244.856C156.171 245.096 155.983 245.38 155.847 245.708C155.719 246.036 155.655 246.4 155.655 246.8C155.655 247.2 155.719 247.564 155.847 247.892C155.983 248.22 156.171 248.504 156.411 248.744C156.651 248.984 156.935 249.168 157.263 249.296C157.591 249.424 157.951 249.488 158.343 249.488C158.759 249.488 159.143 249.408 159.495 249.248C159.847 249.08 160.167 248.828 160.455 248.492L161.703 249.644C161.303 250.132 160.807 250.504 160.215 250.76C159.631 251.016 158.971 251.144 158.235 251.144ZM167.661 251.144C166.469 251.144 165.537 250.812 164.865 250.148C164.193 249.484 163.857 248.536 163.857 247.304V242.6H165.801V247.232C165.801 248.032 165.965 248.608 166.293 248.96C166.621 249.312 167.081 249.488 167.673 249.488C168.265 249.488 168.725 249.312 169.053 248.96C169.381 248.608 169.545 248.032 169.545 247.232V242.6H171.465V247.304C171.465 248.536 171.129 249.484 170.457 250.148C169.785 250.812 168.853 251.144 167.661 251.144ZM174.346 251V242.6H176.29V249.416H180.502V251H174.346ZM181.491 251L185.235 242.6H187.155L190.911 251H188.871L185.799 243.584H186.567L183.483 251H181.491ZM183.363 249.2L183.879 247.724H188.199L188.727 249.2H183.363Z" fill="#333333"/>
<mask id="mask2_1237_15716" style="mask-type:alpha" maskUnits="userSpaceOnUse" x="129" y="267" width="46" height="46">
<rect x="129.5" y="267.5" width="45" height="45" fill="#D9D9D9"/>
</mask>
<g mask="url(#mask2_1237_15716)">
<path d="M138.875 297.5C136.812 297.5 135.047 296.766 133.578 295.297C132.109 293.828 131.375 292.063 131.375 290C131.375 287.937 132.109 286.172 133.578 284.703C135.047 283.234 136.812 282.5 138.875 282.5C140.938 282.5 142.703 283.234 144.172 284.703C145.641 286.172 146.375 287.937 146.375 290C146.375 292.063 145.641 293.828 144.172 295.297C142.703 296.766 140.938 297.5 138.875 297.5ZM138.875 293.75C139.906 293.75 140.789 293.383 141.523 292.648C142.258 291.914 142.625 291.031 142.625 290C142.625 288.969 142.258 288.086 141.523 287.352C140.789 286.617 139.906 286.25 138.875 286.25C137.844 286.25 136.961 286.617 136.227 287.352C135.492 288.086 135.125 288.969 135.125 290C135.125 291.031 135.492 291.914 136.227 292.648C136.961 293.383 137.844 293.75 138.875 293.75ZM161.375 301.25C158.25 301.25 155.594 300.156 153.406 297.969C151.219 295.781 150.125 293.125 150.125 290C150.125 286.875 151.219 284.219 153.406 282.031C155.594 279.844 158.25 278.75 161.375 278.75C164.5 278.75 167.156 279.844 169.344 282.031C171.531 284.219 172.625 286.875 172.625 290C172.625 293.125 171.531 295.781 169.344 297.969C167.156 300.156 164.5 301.25 161.375 301.25Z" fill="#833177"/>
</g>
<path d="M113.076 362.144C112.412 362.144 111.796 362.036 111.228 361.82C110.668 361.604 110.18 361.3 109.764 360.908C109.356 360.516 109.036 360.056 108.804 359.528C108.58 359 108.468 358.424 108.468 357.8C108.468 357.176 108.58 356.6 108.804 356.072C109.036 355.544 109.36 355.084 109.776 354.692C110.192 354.3 110.68 353.996 111.24 353.78C111.8 353.564 112.408 353.456 113.064 353.456C113.728 353.456 114.336 353.564 114.888 353.78C115.448 353.996 115.932 354.3 116.34 354.692C116.756 355.084 117.08 355.544 117.312 356.072C117.544 356.592 117.66 357.168 117.66 357.8C117.66 358.424 117.544 359.004 117.312 359.54C117.08 360.068 116.756 360.528 116.34 360.92C115.932 361.304 115.448 361.604 114.888 361.82C114.336 362.036 113.732 362.144 113.076 362.144ZM113.064 360.488C113.44 360.488 113.784 360.424 114.096 360.296C114.416 360.168 114.696 359.984 114.936 359.744C115.176 359.504 115.36 359.22 115.488 358.892C115.624 358.564 115.692 358.2 115.692 357.8C115.692 357.4 115.624 357.036 115.488 356.708C115.36 356.38 115.176 356.096 114.936 355.856C114.704 355.616 114.428 355.432 114.108 355.304C113.788 355.176 113.44 355.112 113.064 355.112C112.688 355.112 112.34 355.176 112.02 355.304C111.708 355.432 111.432 355.616 111.192 355.856C110.952 356.096 110.764 356.38 110.628 356.708C110.5 357.036 110.436 357.4 110.436 357.8C110.436 358.192 110.5 358.556 110.628 358.892C110.764 359.22 110.948 359.504 111.18 359.744C111.42 359.984 111.7 360.168 112.02 360.296C112.34 360.424 112.688 360.488 113.064 360.488ZM120.081 362V353.6H123.717C124.469 353.6 125.117 353.724 125.661 353.972C126.205 354.212 126.625 354.56 126.921 355.016C127.217 355.472 127.365 356.016 127.365 356.648C127.365 357.272 127.217 357.812 126.921 358.268C126.625 358.716 126.205 359.06 125.661 359.3C125.117 359.54 124.469 359.66 123.717 359.66H121.161L122.025 358.808V362H120.081ZM125.421 362L123.321 358.952H125.397L127.521 362H125.421ZM122.025 359.024L121.161 358.112H123.609C124.209 358.112 124.657 357.984 124.953 357.728C125.249 357.464 125.397 357.104 125.397 356.648C125.397 356.184 125.249 355.824 124.953 355.568C124.657 355.312 124.209 355.184 123.609 355.184H121.161L122.025 354.26V359.024ZM133.921 362.144C133.257 362.144 132.645 362.04 132.085 361.832C131.533 361.616 131.049 361.312 130.633 360.92C130.225 360.528 129.905 360.068 129.673 359.54C129.449 359.012 129.337 358.432 129.337 357.8C129.337 357.168 129.449 356.588 129.673 356.06C129.905 355.532 130.229 355.072 130.645 354.68C131.061 354.288 131.549 353.988 132.109 353.78C132.669 353.564 133.285 353.456 133.957 353.456C134.701 353.456 135.369 353.58 135.961 353.828C136.561 354.076 137.065 354.436 137.473 354.908L136.225 356.06C135.921 355.74 135.589 355.504 135.229 355.352C134.869 355.192 134.477 355.112 134.053 355.112C133.645 355.112 133.273 355.176 132.937 355.304C132.601 355.432 132.309 355.616 132.061 355.856C131.821 356.096 131.633 356.38 131.497 356.708C131.369 357.036 131.305 357.4 131.305 357.8C131.305 358.192 131.369 358.552 131.497 358.88C131.633 359.208 131.821 359.496 132.061 359.744C132.309 359.984 132.597 360.168 132.925 360.296C133.261 360.424 133.629 360.488 134.029 360.488C134.413 360.488 134.785 360.428 135.145 360.308C135.513 360.18 135.869 359.968 136.213 359.672L137.317 361.076C136.861 361.42 136.329 361.684 135.721 361.868C135.121 362.052 134.521 362.144 133.921 362.144ZM135.541 360.824V357.668H137.317V361.076L135.541 360.824ZM138.979 362L142.723 353.6H144.643L148.399 362H146.359L143.287 354.584H144.055L140.971 362H138.979ZM140.851 360.2L141.367 358.724H145.687L146.215 360.2H140.851ZM150.231 362V353.6H151.839L156.795 359.648H156.015V353.6H157.935V362H156.339L151.371 355.952H152.151V362H150.231ZM160.882 362V353.6H162.826V362H160.882ZM168.539 362.144C167.867 362.144 167.223 362.056 166.607 361.88C165.991 361.696 165.495 361.46 165.119 361.172L165.779 359.708C166.139 359.964 166.563 360.176 167.051 360.344C167.547 360.504 168.047 360.584 168.551 360.584C168.935 360.584 169.243 360.548 169.475 360.476C169.715 360.396 169.891 360.288 170.003 360.152C170.115 360.016 170.171 359.86 170.171 359.684C170.171 359.46 170.083 359.284 169.907 359.156C169.731 359.02 169.499 358.912 169.211 358.832C168.923 358.744 168.603 358.664 168.251 358.592C167.907 358.512 167.559 358.416 167.207 358.304C166.863 358.192 166.547 358.048 166.259 357.872C165.971 357.696 165.735 357.464 165.551 357.176C165.375 356.888 165.287 356.52 165.287 356.072C165.287 355.592 165.415 355.156 165.671 354.764C165.935 354.364 166.327 354.048 166.847 353.816C167.375 353.576 168.035 353.456 168.827 353.456C169.355 353.456 169.875 353.52 170.387 353.648C170.899 353.768 171.351 353.952 171.743 354.2L171.143 355.676C170.751 355.452 170.359 355.288 169.967 355.184C169.575 355.072 169.191 355.016 168.815 355.016C168.439 355.016 168.131 355.06 167.891 355.148C167.651 355.236 167.479 355.352 167.375 355.496C167.271 355.632 167.219 355.792 167.219 355.976C167.219 356.192 167.307 356.368 167.483 356.504C167.659 356.632 167.891 356.736 168.179 356.816C168.467 356.896 168.783 356.976 169.127 357.056C169.479 357.136 169.827 357.228 170.171 357.332C170.523 357.436 170.843 357.576 171.131 357.752C171.419 357.928 171.651 358.16 171.827 358.448C172.011 358.736 172.103 359.1 172.103 359.54C172.103 360.012 171.971 360.444 171.707 360.836C171.443 361.228 171.047 361.544 170.519 361.784C169.999 362.024 169.339 362.144 168.539 362.144ZM174.392 362V353.6H176L179.576 359.528H178.724L182.24 353.6H183.836L183.86 362H182.036L182.024 356.396H182.36L179.552 361.112H178.676L175.808 356.396H176.216V362H174.392ZM190.893 362.144C190.229 362.144 189.613 362.036 189.045 361.82C188.485 361.604 187.997 361.3 187.581 360.908C187.173 360.516 186.853 360.056 186.621 359.528C186.397 359 186.285 358.424 186.285 357.8C186.285 357.176 186.397 356.6 186.621 356.072C186.853 355.544 187.177 355.084 187.593 354.692C188.009 354.3 188.497 353.996 189.057 353.78C189.617 353.564 190.225 353.456 190.881 353.456C191.545 353.456 192.153 353.564 192.705 353.78C193.265 353.996 193.749 354.3 194.157 354.692C194.573 355.084 194.897 355.544 195.129 356.072C195.361 356.592 195.477 357.168 195.477 357.8C195.477 358.424 195.361 359.004 195.129 359.54C194.897 360.068 194.573 360.528 194.157 360.92C193.749 361.304 193.265 361.604 192.705 361.82C192.153 362.036 191.549 362.144 190.893 362.144ZM190.881 360.488C191.257 360.488 191.601 360.424 191.913 360.296C192.233 360.168 192.513 359.984 192.753 359.744C192.993 359.504 193.177 359.22 193.305 358.892C193.441 358.564 193.509 358.2 193.509 357.8C193.509 357.4 193.441 357.036 193.305 356.708C193.177 356.38 192.993 356.096 192.753 355.856C192.521 355.616 192.245 355.432 191.925 355.304C191.605 355.176 191.257 355.112 190.881 355.112C190.505 355.112 190.157 355.176 189.837 355.304C189.525 355.432 189.249 355.616 189.009 355.856C188.769 356.096 188.581 356.38 188.445 356.708C188.317 357.036 188.253 357.4 188.253 357.8C188.253 358.192 188.317 358.556 188.445 358.892C188.581 359.22 188.765 359.504 188.997 359.744C189.237 359.984 189.517 360.168 189.837 360.296C190.157 360.424 190.505 360.488 190.881 360.488Z" fill="#333333"/>
<mask id="mask3_1237_15716" style="mask-type:alpha" maskUnits="userSpaceOnUse" x="129" y="378" width="46" height="46">
<rect x="129.5" y="378.5" width="45" height="45" fill="#D9D9D9"/>
</mask>
<g mask="url(#mask3_1237_15716)">
<path d="M140.75 417.875C138.687 417.875 136.922 417.141 135.453 415.672C133.984 414.203 133.25 412.438 133.25 410.375C133.25 408.312 133.984 406.547 135.453 405.078C136.922 403.609 138.687 402.875 140.75 402.875C142.813 402.875 144.578 403.609 146.047 405.078C147.516 406.547 148.25 408.312 148.25 410.375C148.25 412.438 147.516 414.203 146.047 415.672C144.578 417.141 142.813 417.875 140.75 417.875ZM163.25 417.875C161.187 417.875 159.422 417.141 157.953 415.672C156.484 414.203 155.75 412.438 155.75 410.375C155.75 408.312 156.484 406.547 157.953 405.078C159.422 403.609 161.187 402.875 163.25 402.875C165.313 402.875 167.078 403.609 168.547 405.078C170.016 406.547 170.75 408.312 170.75 410.375C170.75 412.438 170.016 414.203 168.547 415.672C167.078 417.141 165.313 417.875 163.25 417.875ZM140.75 414.125C141.781 414.125 142.664 413.758 143.398 413.023C144.133 412.289 144.5 411.406 144.5 410.375C144.5 409.344 144.133 408.461 143.398 407.727C142.664 406.992 141.781 406.625 140.75 406.625C139.719 406.625 138.836 406.992 138.102 407.727C137.367 408.461 137 409.344 137 410.375C137 411.406 137.367 412.289 138.102 413.023C138.836 413.758 139.719 414.125 140.75 414.125ZM163.25 414.125C164.281 414.125 165.164 413.758 165.898 413.023C166.633 412.289 167 411.406 167 410.375C167 409.344 166.633 408.461 165.898 407.727C165.164 406.992 164.281 406.625 163.25 406.625C162.219 406.625 161.336 406.992 160.602 407.727C159.867 408.461 159.5 409.344 159.5 410.375C159.5 411.406 159.867 412.289 160.602 413.023C161.336 413.758 162.219 414.125 163.25 414.125ZM152 406.438C151 406.438 150.156 406.094 149.469 405.406C148.781 404.719 148.438 403.875 148.438 402.875C148.438 401.875 148.781 401.031 149.469 400.344C150.156 399.656 151 399.313 152 399.313C153 399.313 153.844 399.656 154.531 400.344C155.219 401.031 155.563 401.875 155.563 402.875C155.563 403.875 155.219 404.719 154.531 405.406C153.844 406.094 153 406.438 152 406.438ZM152 397.25C149.937 397.25 148.172 396.516 146.703 395.047C145.234 393.578 144.5 391.813 144.5 389.75C144.5 387.687 145.234 385.922 146.703 384.453C148.172 382.984 149.937 382.25 152 382.25C154.063 382.25 155.828 382.984 157.297 384.453C158.766 385.922 159.5 387.687 159.5 389.75C159.5 391.813 158.766 393.578 157.297 395.047C155.828 396.516 154.063 397.25 152 397.25ZM152 393.5C153.031 393.5 153.914 393.133 154.648 392.398C155.383 391.664 155.75 390.781 155.75 389.75C155.75 388.719 155.383 387.836 154.648 387.102C153.914 386.367 153.031 386 152 386C150.969 386 150.086 386.367 149.352 387.102C148.617 387.836 148.25 388.719 148.25 389.75C148.25 390.781 148.617 391.664 149.352 392.398C150.086 393.133 150.969 393.5 152 393.5Z" fill="#833177"/>
</g>
<path d="M113.996 473V464.6H117.632C118.384 464.6 119.032 464.724 119.576 464.972C120.12 465.212 120.54 465.56 120.836 466.016C121.132 466.472 121.28 467.016 121.28 467.648C121.28 468.272 121.132 468.812 120.836 469.268C120.54 469.724 120.12 470.076 119.576 470.324C119.032 470.564 118.384 470.684 117.632 470.684H115.076L115.94 469.808V473H113.996ZM115.94 470.024L115.076 469.1H117.524C118.124 469.1 118.572 468.972 118.868 468.716C119.164 468.46 119.312 468.104 119.312 467.648C119.312 467.184 119.164 466.824 118.868 466.568C118.572 466.312 118.124 466.184 117.524 466.184H115.076L115.94 465.26V470.024ZM123.628 473V464.6H125.572V471.416H129.784V473H123.628ZM130.773 473L134.517 464.6H136.437L140.193 473H138.153L135.081 465.584H135.849L132.765 473H130.773ZM132.645 471.2L133.161 469.724H137.481L138.009 471.2H132.645ZM142.024 473V464.6H143.632L148.588 470.648H147.808V464.6H149.728V473H148.132L143.164 466.952H143.944V473H142.024ZM154.416 473V466.184H151.728V464.6H159.048V466.184H156.36V473H154.416ZM161.054 473V464.6H162.998V473H161.054ZM165.951 473V464.6H167.895V471.416H172.107V473H165.951ZM174.154 473V464.6H176.098V471.416H180.31V473H174.154ZM181.299 473L185.043 464.6H186.963L190.719 473H188.679L185.607 465.584H186.375L183.291 473H181.299ZM183.171 471.2L183.687 469.724H188.007L188.535 471.2H183.171Z" fill="#333333"/>
<mask id="mask4_1237_15716" style="mask-type:alpha" maskUnits="userSpaceOnUse" x="129" y="489" width="46" height="46">
<rect x="129.5" y="489.5" width="45" height="45" fill="#D9D9D9"/>
</mask>
<g mask="url(#mask4_1237_15716)">
<path d="M141.5 525.125H162.453L158.516 521.188C157.609 521.844 156.602 522.352 155.492 522.711C154.383 523.07 153.219 523.25 152 523.25C150.781 523.25 149.617 523.062 148.508 522.687C147.398 522.312 146.391 521.797 145.484 521.141L141.5 525.125ZM138.875 522.453L142.812 518.516C142.156 517.609 141.648 516.602 141.289 515.492C140.93 514.383 140.75 513.219 140.75 512C140.75 510.781 140.937 509.617 141.312 508.508C141.687 507.398 142.203 506.391 142.859 505.484L138.875 501.5V522.453ZM145.531 515.797L149.375 512L145.531 508.203C145.188 508.766 144.93 509.359 144.758 509.984C144.586 510.609 144.5 511.281 144.5 512C144.5 512.719 144.586 513.391 144.758 514.016C144.93 514.641 145.188 515.234 145.531 515.797ZM152 519.5C152.719 519.5 153.391 519.414 154.016 519.242C154.641 519.07 155.234 518.812 155.797 518.469L152 514.625L148.156 518.469C148.719 518.812 149.32 519.07 149.961 519.242C150.602 519.414 151.281 519.5 152 519.5ZM152 509.328L155.797 505.531C155.234 505.188 154.641 504.93 154.016 504.758C153.391 504.586 152.719 504.5 152 504.5C151.281 504.5 150.609 504.586 149.984 504.758C149.359 504.93 148.766 505.188 148.203 505.531L152 509.328ZM158.469 515.797C158.812 515.234 159.07 514.641 159.242 514.016C159.414 513.391 159.5 512.719 159.5 512C159.5 511.281 159.414 510.602 159.242 509.961C159.07 509.32 158.812 508.719 158.469 508.156L154.672 511.953L158.469 515.797ZM165.125 522.453V501.5L161.141 505.484C161.797 506.391 162.312 507.398 162.687 508.508C163.062 509.617 163.25 510.781 163.25 512C163.25 513.219 163.07 514.383 162.711 515.492C162.352 516.602 161.844 517.609 161.188 518.516L165.125 522.453ZM158.516 502.859L162.5 498.875H141.547L145.484 502.812C146.391 502.156 147.398 501.648 148.508 501.289C149.617 500.93 150.781 500.75 152 500.75C153.219 500.75 154.383 500.937 155.492 501.312C156.602 501.687 157.609 502.203 158.516 502.859ZM138.875 528.875C137.844 528.875 136.961 528.508 136.227 527.773C135.492 527.039 135.125 526.156 135.125 525.125V498.875C135.125 497.844 135.492 496.961 136.227 496.227C136.961 495.492 137.844 495.125 138.875 495.125H165.125C166.156 495.125 167.039 495.492 167.773 496.227C168.508 496.961 168.875 497.844 168.875 498.875V525.125C168.875 526.156 168.508 527.039 167.773 527.773C167.039 528.508 166.156 528.875 165.125 528.875H138.875Z" fill="#833177"/>
</g>
<path d="M125.496 584V575.6H129.132C129.884 575.6 130.532 575.724 131.076 575.972C131.62 576.212 132.04 576.56 132.336 577.016C132.632 577.472 132.78 578.016 132.78 578.648C132.78 579.272 132.632 579.812 132.336 580.268C132.04 580.724 131.62 581.076 131.076 581.324C130.532 581.564 129.884 581.684 129.132 581.684H126.576L127.44 580.808V584H125.496ZM127.44 581.024L126.576 580.1H129.024C129.624 580.1 130.072 579.972 130.368 579.716C130.664 579.46 130.812 579.104 130.812 578.648C130.812 578.184 130.664 577.824 130.368 577.568C130.072 577.312 129.624 577.184 129.024 577.184H126.576L127.44 576.26V581.024ZM133.602 584L137.346 575.6H139.266L143.022 584H140.982L137.91 576.584H138.678L135.594 584H133.602ZM135.474 582.2L135.99 580.724H140.31L140.838 582.2H135.474ZM137.214 574.916L138.834 573.188H140.85L138.678 574.916H137.214ZM148.792 584.144C148.128 584.144 147.516 584.04 146.956 583.832C146.404 583.616 145.92 583.312 145.504 582.92C145.096 582.528 144.776 582.068 144.544 581.54C144.32 581.012 144.208 580.432 144.208 579.8C144.208 579.168 144.32 578.588 144.544 578.06C144.776 577.532 145.1 577.072 145.516 576.68C145.932 576.288 146.42 575.988 146.98 575.78C147.54 575.564 148.156 575.456 148.828 575.456C149.572 575.456 150.24 575.58 150.832 575.828C151.432 576.076 151.936 576.436 152.344 576.908L151.096 578.06C150.792 577.74 150.46 577.504 150.1 577.352C149.74 577.192 149.348 577.112 148.924 577.112C148.516 577.112 148.144 577.176 147.808 577.304C147.472 577.432 147.18 577.616 146.932 577.856C146.692 578.096 146.504 578.38 146.368 578.708C146.24 579.036 146.176 579.4 146.176 579.8C146.176 580.192 146.24 580.552 146.368 580.88C146.504 581.208 146.692 581.496 146.932 581.744C147.18 581.984 147.468 582.168 147.796 582.296C148.132 582.424 148.5 582.488 148.9 582.488C149.284 582.488 149.656 582.428 150.016 582.308C150.384 582.18 150.74 581.968 151.084 581.672L152.188 583.076C151.732 583.42 151.2 583.684 150.592 583.868C149.992 584.052 149.392 584.144 148.792 584.144ZM150.412 582.824V579.668H152.188V583.076L150.412 582.824ZM154.954 584V575.6H156.898V584H154.954ZM159.852 584V575.6H161.46L166.416 581.648H165.636V575.6H167.556V584H165.96L160.992 577.952H161.772V584H159.852ZM169.399 584L173.143 575.6H175.063L178.819 584H176.779L173.707 576.584H174.475L171.391 584H169.399ZM171.271 582.2L171.787 580.724H176.107L176.635 582.2H171.271Z" fill="#333333"/>
<mask id="mask5_1237_15716" style="mask-type:alpha" maskUnits="userSpaceOnUse" x="129" y="600" width="46" height="46">
<rect x="129.5" y="600.5" width="45" height="45" fill="#D9D9D9"/>
</mask>
<g mask="url(#mask5_1237_15716)">
<path d="M138.875 639.875C137.844 639.875 136.961 639.508 136.227 638.773C135.492 638.039 135.125 637.156 135.125 636.125V609.875C135.125 608.844 135.492 607.961 136.227 607.227C136.961 606.492 137.844 606.125 138.875 606.125H165.125C166.156 606.125 167.039 606.492 167.773 607.227C168.508 607.961 168.875 608.844 168.875 609.875V636.125C168.875 637.156 168.508 638.039 167.773 638.773C167.039 639.508 166.156 639.875 165.125 639.875H138.875ZM138.875 636.125H165.125V615.5H138.875V636.125Z" fill="#833177"/>
</g>
<path d="M216 2L226 2" stroke="#833177" stroke-width="4" stroke-linecap="round"/>
<path d="M221 113V2" stroke="#833177" stroke-width="4" stroke-linecap="round"/>
<path d="M216 113H226" stroke="#833177" stroke-width="4" stroke-linecap="round"/>
<path d="M233.92 61.08C233.287 61.08 232.793 60.92 232.44 60.6C232.087 60.2733 231.91 59.79 231.91 59.15V54.43H233.47V59.13C233.47 59.3567 233.53 59.5333 233.65 59.66C233.77 59.78 233.933 59.84 234.14 59.84C234.387 59.84 234.597 59.7733 234.77 59.64L235.19 60.74C235.03 60.8533 234.837 60.94 234.61 61C234.39 61.0533 234.16 61.08 233.92 61.08ZM231.08 56.94V55.74H234.81V56.94H231.08ZM238.46 61.08C237.886 61.08 237.376 60.96 236.93 60.72C236.49 60.48 236.14 60.1533 235.88 59.74C235.626 59.32 235.5 58.8433 235.5 58.31C235.5 57.77 235.626 57.2933 235.88 56.88C236.14 56.46 236.49 56.1333 236.93 55.9C237.376 55.66 237.886 55.54 238.46 55.54C239.026 55.54 239.533 55.66 239.98 55.9C240.426 56.1333 240.776 56.4567 241.03 56.87C241.283 57.2833 241.41 57.7633 241.41 58.31C241.41 58.8433 241.283 59.32 241.03 59.74C240.776 60.1533 240.426 60.48 239.98 60.72C239.533 60.96 239.026 61.08 238.46 61.08ZM238.46 59.8C238.72 59.8 238.953 59.74 239.16 59.62C239.366 59.5 239.53 59.33 239.65 59.11C239.77 58.8833 239.83 58.6167 239.83 58.31C239.83 57.9967 239.77 57.73 239.65 57.51C239.53 57.29 239.366 57.12 239.16 57C238.953 56.88 238.72 56.82 238.46 56.82C238.2 56.82 237.966 56.88 237.76 57C237.553 57.12 237.386 57.29 237.26 57.51C237.14 57.73 237.08 57.9967 237.08 58.31C237.08 58.6167 237.14 58.8833 237.26 59.11C237.386 59.33 237.553 59.5 237.76 59.62C237.966 59.74 238.2 59.8 238.46 59.8ZM243.742 59.9L243.782 58L246.292 55.62H248.152L245.742 58.07L244.932 58.73L243.742 59.9ZM242.452 61V53.58H244.012V61H242.452ZM246.462 61L244.642 58.74L245.622 57.53L248.352 61H246.462ZM251.49 61.08C250.876 61.08 250.336 60.96 249.87 60.72C249.41 60.48 249.053 60.1533 248.8 59.74C248.546 59.32 248.42 58.8433 248.42 58.31C248.42 57.77 248.543 57.2933 248.79 56.88C249.043 56.46 249.386 56.1333 249.82 55.9C250.253 55.66 250.743 55.54 251.29 55.54C251.816 55.54 252.29 55.6533 252.71 55.88C253.136 56.1 253.473 56.42 253.72 56.84C253.966 57.2533 254.09 57.75 254.09 58.33C254.09 58.39 254.086 58.46 254.08 58.54C254.073 58.6133 254.066 58.6833 254.06 58.75H249.69V57.84H253.24L252.64 58.11C252.64 57.83 252.583 57.5867 252.47 57.38C252.356 57.1733 252.2 57.0133 252 56.9C251.8 56.78 251.566 56.72 251.3 56.72C251.033 56.72 250.796 56.78 250.59 56.9C250.39 57.0133 250.233 57.1767 250.12 57.39C250.006 57.5967 249.95 57.8433 249.95 58.13V58.37C249.95 58.6633 250.013 58.9233 250.14 59.15C250.273 59.37 250.456 59.54 250.69 59.66C250.93 59.7733 251.21 59.83 251.53 59.83C251.816 59.83 252.066 59.7867 252.28 59.7C252.5 59.6133 252.7 59.4833 252.88 59.31L253.71 60.21C253.463 60.49 253.153 60.7067 252.78 60.86C252.406 61.0067 251.976 61.08 251.49 61.08ZM258.398 55.54C258.825 55.54 259.205 55.6267 259.538 55.8C259.878 55.9667 260.145 56.2267 260.338 56.58C260.532 56.9267 260.628 57.3733 260.628 57.92V61H259.068V58.16C259.068 57.7267 258.972 57.4067 258.778 57.2C258.592 56.9933 258.325 56.89 257.978 56.89C257.732 56.89 257.508 56.9433 257.308 57.05C257.115 57.15 256.962 57.3067 256.848 57.52C256.742 57.7333 256.688 58.0067 256.688 58.34V61H255.128V55.62H256.618V57.11L256.338 56.66C256.532 56.3 256.808 56.0233 257.168 55.83C257.528 55.6367 257.938 55.54 258.398 55.54ZM263.852 61.08C263.392 61.08 262.949 61.0267 262.522 60.92C262.102 60.8067 261.769 60.6667 261.522 60.5L262.042 59.38C262.289 59.5333 262.579 59.66 262.912 59.76C263.252 59.8533 263.586 59.9 263.912 59.9C264.272 59.9 264.526 59.8567 264.672 59.77C264.826 59.6833 264.902 59.5633 264.902 59.41C264.902 59.2833 264.842 59.19 264.722 59.13C264.609 59.0633 264.456 59.0133 264.262 58.98C264.069 58.9467 263.856 58.9133 263.622 58.88C263.396 58.8467 263.166 58.8033 262.932 58.75C262.699 58.69 262.486 58.6033 262.292 58.49C262.099 58.3767 261.942 58.2233 261.822 58.03C261.709 57.8367 261.652 57.5867 261.652 57.28C261.652 56.94 261.749 56.64 261.942 56.38C262.142 56.12 262.429 55.9167 262.802 55.77C263.176 55.6167 263.622 55.54 264.142 55.54C264.509 55.54 264.882 55.58 265.262 55.66C265.642 55.74 265.959 55.8567 266.212 56.01L265.692 57.12C265.432 56.9667 265.169 56.8633 264.902 56.81C264.642 56.75 264.389 56.72 264.142 56.72C263.796 56.72 263.542 56.7667 263.382 56.86C263.222 56.9533 263.142 57.0733 263.142 57.22C263.142 57.3533 263.199 57.4533 263.312 57.52C263.432 57.5867 263.589 57.64 263.782 57.68C263.976 57.72 264.186 57.7567 264.412 57.79C264.646 57.8167 264.879 57.86 265.112 57.92C265.346 57.98 265.556 58.0667 265.742 58.18C265.936 58.2867 266.092 58.4367 266.212 58.63C266.332 58.8167 266.392 59.0633 266.392 59.37C266.392 59.7033 266.292 60 266.092 60.26C265.892 60.5133 265.602 60.7133 265.222 60.86C264.849 61.0067 264.392 61.08 263.852 61.08Z" fill="#833177"/>
<path d="M216 335H226" stroke="#833177" stroke-width="4" stroke-linecap="round"/>
<path d="M221 557V335" stroke="#833177" stroke-width="4" stroke-linecap="round"/>
<path d="M216 557H226" stroke="#833177" stroke-width="4" stroke-linecap="round"/>
<path d="M234.94 449.62C233.947 449.62 233.17 449.343 232.61 448.79C232.05 448.237 231.77 447.447 231.77 446.42V442.5H233.39V446.36C233.39 447.027 233.527 447.507 233.8 447.8C234.073 448.093 234.457 448.24 234.95 448.24C235.443 448.24 235.827 448.093 236.1 447.8C236.373 447.507 236.51 447.027 236.51 446.36V442.5H238.11V446.42C238.11 447.447 237.83 448.237 237.27 448.79C236.71 449.343 235.933 449.62 234.94 449.62ZM239.711 449.5V442.5H241.331V449.5H239.711ZM247.274 447.9L247.184 446.03L250.534 442.5H252.334L249.314 445.75L248.414 446.71L247.274 447.9ZM245.824 449.5V442.5H247.434V449.5H245.824ZM250.614 449.5L248.124 446.45L249.184 445.3L252.504 449.5H250.614ZM253.116 449.5V444.12H254.676V449.5H253.116ZM253.896 443.37C253.61 443.37 253.376 443.287 253.196 443.12C253.016 442.953 252.926 442.747 252.926 442.5C252.926 442.253 253.016 442.047 253.196 441.88C253.376 441.713 253.61 441.63 253.896 441.63C254.183 441.63 254.416 441.71 254.596 441.87C254.776 442.023 254.866 442.223 254.866 442.47C254.866 442.73 254.776 442.947 254.596 443.12C254.423 443.287 254.19 443.37 253.896 443.37ZM258.324 449.58C257.691 449.58 257.198 449.42 256.844 449.1C256.491 448.773 256.314 448.29 256.314 447.65V442.93H257.874V447.63C257.874 447.857 257.934 448.033 258.054 448.16C258.174 448.28 258.338 448.34 258.544 448.34C258.791 448.34 259.001 448.273 259.174 448.14L259.594 449.24C259.434 449.353 259.241 449.44 259.014 449.5C258.794 449.553 258.564 449.58 258.324 449.58ZM255.484 445.44V444.24H259.214V445.44H255.484ZM262.28 449.58C261.82 449.58 261.377 449.527 260.95 449.42C260.53 449.307 260.197 449.167 259.95 449L260.47 447.88C260.717 448.033 261.007 448.16 261.34 448.26C261.68 448.353 262.013 448.4 262.34 448.4C262.7 448.4 262.953 448.357 263.1 448.27C263.253 448.183 263.33 448.063 263.33 447.91C263.33 447.783 263.27 447.69 263.15 447.63C263.037 447.563 262.883 447.513 262.69 447.48C262.497 447.447 262.283 447.413 262.05 447.38C261.823 447.347 261.593 447.303 261.36 447.25C261.127 447.19 260.913 447.103 260.72 446.99C260.527 446.877 260.37 446.723 260.25 446.53C260.137 446.337 260.08 446.087 260.08 445.78C260.08 445.44 260.177 445.14 260.37 444.88C260.57 444.62 260.857 444.417 261.23 444.27C261.603 444.117 262.05 444.04 262.57 444.04C262.937 444.04 263.31 444.08 263.69 444.16C264.07 444.24 264.387 444.357 264.64 444.51L264.12 445.62C263.86 445.467 263.597 445.363 263.33 445.31C263.07 445.25 262.817 445.22 262.57 445.22C262.223 445.22 261.97 445.267 261.81 445.36C261.65 445.453 261.57 445.573 261.57 445.72C261.57 445.853 261.627 445.953 261.74 446.02C261.86 446.087 262.017 446.14 262.21 446.18C262.403 446.22 262.613 446.257 262.84 446.29C263.073 446.317 263.307 446.36 263.54 446.42C263.773 446.48 263.983 446.567 264.17 446.68C264.363 446.787 264.52 446.937 264.64 447.13C264.76 447.317 264.82 447.563 264.82 447.87C264.82 448.203 264.72 448.5 264.52 448.76C264.32 449.013 264.03 449.213 263.65 449.36C263.277 449.507 262.82 449.58 262.28 449.58Z" fill="#833177"/>
<path d="M216 557H226" stroke="#833177" stroke-width="4" stroke-linecap="round"/>
<path d="M221 668V557" stroke="#833177" stroke-width="4" stroke-linecap="round"/>
<path d="M216 668H226" stroke="#833177" stroke-width="4" stroke-linecap="round"/>
<path d="M234.9 616.08C234.447 616.08 234.05 615.98 233.71 615.78C233.37 615.58 233.103 615.277 232.91 614.87C232.723 614.457 232.63 613.937 232.63 613.31C232.63 612.677 232.72 612.157 232.9 611.75C233.08 611.343 233.34 611.04 233.68 610.84C234.02 610.64 234.427 610.54 234.9 610.54C235.407 610.54 235.86 610.657 236.26 610.89C236.667 611.117 236.987 611.437 237.22 611.85C237.46 612.263 237.58 612.75 237.58 613.31C237.58 613.877 237.46 614.367 237.22 614.78C236.987 615.193 236.667 615.513 236.26 615.74C235.86 615.967 235.407 616.08 234.9 616.08ZM231.72 617.94V610.62H233.21V611.72L233.18 613.32L233.28 614.91V617.94H231.72ZM234.63 614.8C234.89 614.8 235.12 614.74 235.32 614.62C235.527 614.5 235.69 614.33 235.81 614.11C235.937 613.883 236 613.617 236 613.31C236 612.997 235.937 612.73 235.81 612.51C235.69 612.29 235.527 612.12 235.32 612C235.12 611.88 234.89 611.82 234.63 611.82C234.37 611.82 234.137 611.88 233.93 612C233.723 612.12 233.56 612.29 233.44 612.51C233.32 612.73 233.26 612.997 233.26 613.31C233.26 613.617 233.32 613.883 233.44 614.11C233.56 614.33 233.723 614.5 233.93 614.62C234.137 614.74 234.37 614.8 234.63 614.8ZM238.624 616V610.62H240.114V612.14L239.904 611.7C240.064 611.32 240.321 611.033 240.674 610.84C241.028 610.64 241.458 610.54 241.964 610.54V611.98C241.898 611.973 241.838 611.97 241.784 611.97C241.731 611.963 241.674 611.96 241.614 611.96C241.188 611.96 240.841 612.083 240.574 612.33C240.314 612.57 240.184 612.947 240.184 613.46V616H238.624ZM245.403 616.08C244.83 616.08 244.32 615.96 243.873 615.72C243.433 615.48 243.083 615.153 242.823 614.74C242.57 614.32 242.443 613.843 242.443 613.31C242.443 612.77 242.57 612.293 242.823 611.88C243.083 611.46 243.433 611.133 243.873 610.9C244.32 610.66 244.83 610.54 245.403 610.54C245.97 610.54 246.476 610.66 246.923 610.9C247.37 611.133 247.72 611.457 247.973 611.87C248.226 612.283 248.353 612.763 248.353 613.31C248.353 613.843 248.226 614.32 247.973 614.74C247.72 615.153 247.37 615.48 246.923 615.72C246.476 615.96 245.97 616.08 245.403 616.08ZM245.403 614.8C245.663 614.8 245.896 614.74 246.103 614.62C246.31 614.5 246.473 614.33 246.593 614.11C246.713 613.883 246.773 613.617 246.773 613.31C246.773 612.997 246.713 612.73 246.593 612.51C246.473 612.29 246.31 612.12 246.103 612C245.896 611.88 245.663 611.82 245.403 611.82C245.143 611.82 244.91 611.88 244.703 612C244.496 612.12 244.33 612.29 244.203 612.51C244.083 612.73 244.023 612.997 244.023 613.31C244.023 613.617 244.083 613.883 244.203 614.11C244.33 614.33 244.496 614.5 244.703 614.62C244.91 614.74 245.143 614.8 245.403 614.8ZM251.706 616.08C251.199 616.08 250.742 615.967 250.336 615.74C249.929 615.507 249.606 615.183 249.366 614.77C249.132 614.357 249.016 613.87 249.016 613.31C249.016 612.743 249.132 612.253 249.366 611.84C249.606 611.427 249.929 611.107 250.336 610.88C250.742 610.653 251.199 610.54 251.706 610.54C252.159 610.54 252.556 610.64 252.896 610.84C253.236 611.04 253.499 611.343 253.686 611.75C253.872 612.157 253.966 612.677 253.966 613.31C253.966 613.937 253.876 614.457 253.696 614.87C253.516 615.277 253.256 615.58 252.916 615.78C252.582 615.98 252.179 616.08 251.706 616.08ZM251.976 614.8C252.229 614.8 252.459 614.74 252.666 614.62C252.872 614.5 253.036 614.33 253.156 614.11C253.282 613.883 253.346 613.617 253.346 613.31C253.346 612.997 253.282 612.73 253.156 612.51C253.036 612.29 252.872 612.12 252.666 612C252.459 611.88 252.229 611.82 251.976 611.82C251.716 611.82 251.482 611.88 251.276 612C251.069 612.12 250.902 612.29 250.776 612.51C250.656 612.73 250.596 612.997 250.596 613.31C250.596 613.617 250.656 613.883 250.776 614.11C250.902 614.33 251.069 614.5 251.276 614.62C251.482 614.74 251.716 614.8 251.976 614.8ZM253.386 616V614.9L253.416 613.3L253.316 611.71V608.58H254.876V616H253.386ZM258.59 616.08C258.143 616.08 257.743 615.993 257.39 615.82C257.043 615.647 256.773 615.383 256.58 615.03C256.386 614.67 256.29 614.213 256.29 613.66V610.62H257.85V613.43C257.85 613.877 257.943 614.207 258.13 614.42C258.323 614.627 258.593 614.73 258.94 614.73C259.18 614.73 259.393 614.68 259.58 614.58C259.766 614.473 259.913 614.313 260.02 614.1C260.126 613.88 260.18 613.607 260.18 613.28V610.62H261.74V616H260.26V614.52L260.53 614.95C260.35 615.323 260.083 615.607 259.73 615.8C259.383 615.987 259.003 616.08 258.59 616.08ZM265.785 616.08C265.205 616.08 264.688 615.963 264.235 615.73C263.782 615.49 263.425 615.16 263.165 614.74C262.912 614.32 262.785 613.843 262.785 613.31C262.785 612.77 262.912 612.293 263.165 611.88C263.425 611.46 263.782 611.133 264.235 610.9C264.688 610.66 265.205 610.54 265.785 610.54C266.352 610.54 266.845 610.66 267.265 610.9C267.685 611.133 267.995 611.47 268.195 611.91L266.985 612.56C266.845 612.307 266.668 612.12 266.455 612C266.248 611.88 266.022 611.82 265.775 611.82C265.508 611.82 265.268 611.88 265.055 612C264.842 612.12 264.672 612.29 264.545 612.51C264.425 612.73 264.365 612.997 264.365 613.31C264.365 613.623 264.425 613.89 264.545 614.11C264.672 614.33 264.842 614.5 265.055 614.62C265.268 614.74 265.508 614.8 265.775 614.8C266.022 614.8 266.248 614.743 266.455 614.63C266.668 614.51 266.845 614.32 266.985 614.06L268.195 614.72C267.995 615.153 267.685 615.49 267.265 615.73C266.845 615.963 266.352 616.08 265.785 616.08ZM271.371 616.08C270.738 616.08 270.245 615.92 269.891 615.6C269.538 615.273 269.361 614.79 269.361 614.15V609.43H270.921V614.13C270.921 614.357 270.981 614.533 271.101 614.66C271.221 614.78 271.385 614.84 271.591 614.84C271.838 614.84 272.048 614.773 272.221 614.64L272.641 615.74C272.481 615.853 272.288 615.94 272.061 616C271.841 616.053 271.611 616.08 271.371 616.08ZM268.531 611.94V610.74H272.261V611.94H268.531ZM275.911 616.08C275.338 616.08 274.828 615.96 274.381 615.72C273.941 615.48 273.591 615.153 273.331 614.74C273.078 614.32 272.951 613.843 272.951 613.31C272.951 612.77 273.078 612.293 273.331 611.88C273.591 611.46 273.941 611.133 274.381 610.9C274.828 610.66 275.338 610.54 275.911 610.54C276.478 610.54 276.984 610.66 277.431 610.9C277.878 611.133 278.228 611.457 278.481 611.87C278.734 612.283 278.861 612.763 278.861 613.31C278.861 613.843 278.734 614.32 278.481 614.74C278.228 615.153 277.878 615.48 277.431 615.72C276.984 615.96 276.478 616.08 275.911 616.08ZM275.911 614.8C276.171 614.8 276.404 614.74 276.611 614.62C276.818 614.5 276.981 614.33 277.101 614.11C277.221 613.883 277.281 613.617 277.281 613.31C277.281 612.997 277.221 612.73 277.101 612.51C276.981 612.29 276.818 612.12 276.611 612C276.404 611.88 276.171 611.82 275.911 611.82C275.651 611.82 275.418 611.88 275.211 612C275.004 612.12 274.838 612.29 274.711 612.51C274.591 612.73 274.531 612.997 274.531 613.31C274.531 613.617 274.591 613.883 274.711 614.11C274.838 614.33 275.004 614.5 275.211 614.62C275.418 614.74 275.651 614.8 275.911 614.8ZM281.714 616.08C281.254 616.08 280.81 616.027 280.384 615.92C279.964 615.807 279.63 615.667 279.384 615.5L279.904 614.38C280.15 614.533 280.44 614.66 280.774 614.76C281.114 614.853 281.447 614.9 281.774 614.9C282.134 614.9 282.387 614.857 282.534 614.77C282.687 614.683 282.764 614.563 282.764 614.41C282.764 614.283 282.704 614.19 282.584 614.13C282.47 614.063 282.317 614.013 282.124 613.98C281.93 613.947 281.717 613.913 281.484 613.88C281.257 613.847 281.027 613.803 280.794 613.75C280.56 613.69 280.347 613.603 280.154 613.49C279.96 613.377 279.804 613.223 279.684 613.03C279.57 612.837 279.514 612.587 279.514 612.28C279.514 611.94 279.61 611.64 279.804 611.38C280.004 611.12 280.29 610.917 280.664 610.77C281.037 610.617 281.484 610.54 282.004 610.54C282.37 610.54 282.744 610.58 283.124 610.66C283.504 610.74 283.82 610.857 284.074 611.01L283.554 612.12C283.294 611.967 283.03 611.863 282.764 611.81C282.504 611.75 282.25 611.72 282.004 611.72C281.657 611.72 281.404 611.767 281.244 611.86C281.084 611.953 281.004 612.073 281.004 612.22C281.004 612.353 281.06 612.453 281.174 612.52C281.294 612.587 281.45 612.64 281.644 612.68C281.837 612.72 282.047 612.757 282.274 612.79C282.507 612.817 282.74 612.86 282.974 612.92C283.207 612.98 283.417 613.067 283.604 613.18C283.797 613.287 283.954 613.437 284.074 613.63C284.194 613.817 284.254 614.063 284.254 614.37C284.254 614.703 284.154 615 283.954 615.26C283.754 615.513 283.464 615.713 283.084 615.86C282.71 616.007 282.254 616.08 281.714 616.08Z" fill="#833177"/>
</svg>
