<svg width="50" height="50" viewBox="0 0 50 50" fill="none" xmlns="http://www.w3.org/2000/svg">
<path d="M16.6673 49.9999C18.8775 49.9999 20.9971 49.1219 22.5599 47.5591C24.1227 45.9963 25.0007 43.8767 25.0007 41.6666V33.3333H16.6673C14.4572 33.3333 12.3376 34.2112 10.7748 35.774C9.21196 37.3368 8.33398 39.4564 8.33398 41.6666C8.33398 43.8767 9.21196 45.9963 10.7748 47.5591C12.3376 49.1219 14.4572 49.9999 16.6673 49.9999Z" fill="#0ACF83"/>
<path d="M8.33398 25.0001C8.33398 22.7899 9.21196 20.6703 10.7748 19.1075C12.3376 17.5447 14.4572 16.6667 16.6673 16.6667H25.0007V33.3334H16.6673C14.4572 33.3334 12.3376 32.4554 10.7748 30.8926C9.21196 29.3298 8.33398 27.2102 8.33398 25.0001Z" fill="#A259FF"/>
<path d="M8.33398 8.33333C8.33398 6.12432 9.21106 4.00569 10.7725 2.44308C12.3339 0.880461 14.4518 0.00172579 16.6608 0L24.9941 0V16.6667H16.6673C14.4572 16.6667 12.3376 15.7887 10.7748 14.2259C9.21196 12.6631 8.33398 10.5435 8.33398 8.33333Z" fill="#F24E1E"/>
<path d="M25 0H33.3333C35.5435 0 37.6631 0.877974 39.2259 2.44078C40.7887 4.00358 41.6667 6.1232 41.6667 8.33333C41.6667 10.5435 40.7887 12.6631 39.2259 14.2259C37.6631 15.7887 35.5435 16.6667 33.3333 16.6667H25V0Z" fill="#FF7262"/>
<path d="M41.6667 25.0001C41.6667 27.2102 40.7887 29.3298 39.2259 30.8926C37.6631 32.4554 35.5435 33.3334 33.3333 33.3334C31.1232 33.3334 29.0036 32.4554 27.4408 30.8926C25.878 29.3298 25 27.2102 25 25.0001C25 22.7899 25.878 20.6703 27.4408 19.1075C29.0036 17.5447 31.1232 16.6667 33.3333 16.6667C35.5435 16.6667 37.6631 17.5447 39.2259 19.1075C40.7887 20.6703 41.6667 22.7899 41.6667 25.0001Z" fill="#1ABCFE"/>
</svg>
