<svg width="51" height="50" viewBox="0 0 51 50" fill="none" xmlns="http://www.w3.org/2000/svg">
<g style="mix-blend-mode:lighten">
<path fill-rule="evenodd" clip-rule="evenodd" d="M20.5336 34.4944C19.9562 34.895 19.2192 34.9872 18.5609 34.7411L1.72728 28.4489C0.889372 28.1357 0.333984 27.3352 0.333984 26.4407V24.3825C0.333984 23.521 0.849668 22.7431 1.64321 22.4077L18.4768 15.2922C19.1389 15.0124 19.8971 15.0829 20.4962 15.4801C21.0953 15.8773 21.4555 16.5482 21.4555 17.267V20.7071C21.4555 21.5884 20.9161 22.38 20.0959 22.7024L13.8941 25.1406L20.0152 27.2676C20.8775 27.5672 21.4555 28.3799 21.4555 29.2927V32.7329C21.4555 33.4356 21.1111 34.0938 20.5336 34.4944ZM7.71891 25.2646L19.3115 20.7071V17.267L2.47794 24.3825V26.4407L19.3115 32.7329V29.2927L7.71891 25.2646ZM29.2125 29.2927C29.2125 28.3799 29.7905 27.5672 30.6527 27.2676L36.7739 25.1406L30.572 22.7024C29.7518 22.38 29.2125 21.5884 29.2125 20.7071V17.267C29.2125 16.5482 29.5727 15.8773 30.1718 15.4801C30.7708 15.0829 31.5291 15.0124 32.1912 15.2922L49.0248 22.4077C49.8183 22.7431 50.334 23.521 50.334 24.3825V26.4407C50.334 27.3352 49.7786 28.1357 48.9407 28.4489L32.1071 34.7411C31.4488 34.9872 30.7117 34.895 30.1343 34.4944C29.5569 34.0938 29.2125 33.4356 29.2125 32.7329V29.2927ZM42.9491 25.2646L31.3564 29.2927V32.7329L48.19 26.4407V24.3825L31.3564 17.267V20.7071L42.9491 25.2646Z" fill="#333333"/>
<path fill-rule="evenodd" clip-rule="evenodd" d="M20.5336 34.4944C19.9562 34.895 19.2192 34.9872 18.5609 34.7411L1.72728 28.4489C0.889372 28.1357 0.333984 27.3352 0.333984 26.4407V24.3825C0.333984 23.521 0.849668 22.7431 1.64321 22.4077L18.4768 15.2922C19.1389 15.0124 19.8971 15.0829 20.4962 15.4801C21.0953 15.8773 21.4555 16.5482 21.4555 17.267V20.7071C21.4555 21.5884 20.9161 22.38 20.0959 22.7024L13.8941 25.1406L20.0152 27.2676C20.8775 27.5672 21.4555 28.3799 21.4555 29.2927V32.7329C21.4555 33.4356 21.1111 34.0938 20.5336 34.4944ZM7.71891 25.2646L19.3115 20.7071V17.267L2.47794 24.3825V26.4407L19.3115 32.7329V29.2927L7.71891 25.2646ZM29.2125 29.2927C29.2125 28.3799 29.7905 27.5672 30.6527 27.2676L36.7739 25.1406L30.572 22.7024C29.7518 22.38 29.2125 21.5884 29.2125 20.7071V17.267C29.2125 16.5482 29.5727 15.8773 30.1718 15.4801C30.7708 15.0829 31.5291 15.0124 32.1912 15.2922L49.0248 22.4077C49.8183 22.7431 50.334 23.521 50.334 24.3825V26.4407C50.334 27.3352 49.7786 28.1357 48.9407 28.4489L32.1071 34.7411C31.4488 34.9872 30.7117 34.895 30.1343 34.4944C29.5569 34.0938 29.2125 33.4356 29.2125 32.7329V29.2927ZM42.9491 25.2646L31.3564 29.2927V32.7329L48.19 26.4407V24.3825L31.3564 17.267V20.7071L42.9491 25.2646Z" fill="url(#paint0_angular_548_12036)" fill-opacity="0.1"/>
</g>
<g style="mix-blend-mode:multiply">
<path fill-rule="evenodd" clip-rule="evenodd" d="M11.2512 33.9973C12.9265 32.322 15.1987 31.3809 17.5679 31.3809H26.501V40.314C26.501 42.6832 25.5599 44.9554 23.8846 46.6307C22.2093 48.306 19.9371 49.2471 17.5679 49.2471C15.1987 49.2471 12.9265 48.306 11.2512 46.6307C9.57593 44.9554 8.63477 42.6832 8.63477 40.314C8.63477 37.9448 9.57593 35.6726 11.2512 33.9973ZM17.5679 33.9332C15.8756 33.9332 14.2526 34.6054 13.056 35.8021C11.8593 36.9987 11.1871 38.6217 11.1871 40.314C11.1871 42.0063 11.8593 43.6293 13.056 44.8259C14.2526 46.0225 15.8756 46.6948 17.5679 46.6948C19.2602 46.6948 20.8832 46.0225 22.0798 44.8259C23.2764 43.6293 23.9487 42.0063 23.9487 40.314V33.9332H17.5679Z" fill="#0ACF83"/>
</g>
<g style="mix-blend-mode:multiply">
<path fill-rule="evenodd" clip-rule="evenodd" d="M17.5679 18.6192C15.8756 18.6192 14.2526 19.2915 13.056 20.4881C11.8593 21.6847 11.1871 23.3077 11.1871 25C11.1871 26.6923 11.8593 28.3153 13.056 29.5119C14.2526 30.7086 15.8756 31.3808 17.5679 31.3808H23.9487V18.6192H17.5679ZM11.2512 18.6833C12.9265 17.0081 15.1987 16.0669 17.5679 16.0669H26.501V33.9332H17.5679C15.1987 33.9332 12.9265 32.992 11.2512 31.3167C9.57593 29.6414 8.63477 27.3692 8.63477 25C8.63477 22.6308 9.57593 20.3586 11.2512 18.6833Z" fill="#A259FF"/>
</g>
<g style="mix-blend-mode:multiply">
<path fill-rule="evenodd" clip-rule="evenodd" d="M17.5609 0.75293L26.495 0.75293V18.6192H17.5679C15.1987 18.6192 12.9265 17.678 11.2512 16.0027C9.57593 14.3274 8.63477 12.0553 8.63477 9.68606C8.63476 7.31805 9.57497 5.04694 11.2488 3.37185C12.9225 1.69676 15.1929 0.75478 17.5609 0.75293ZM23.9427 3.30525H17.5624C15.8711 3.30671 14.2497 3.97954 13.0542 5.17591C11.8587 6.3724 11.1871 7.99463 11.1871 9.68606C11.1871 11.3784 11.8594 13.0013 13.056 14.198C14.2526 15.3946 15.8756 16.0669 17.5679 16.0669H23.9427V3.30525Z" fill="#F24E1E"/>
</g>
<g style="mix-blend-mode:multiply">
<path fill-rule="evenodd" clip-rule="evenodd" d="M23.9492 0.75293H32.8823C35.2516 0.75293 37.5237 1.6941 39.199 3.36938C40.8743 5.04467 41.8155 7.31684 41.8155 9.68606C41.8155 12.0553 40.8743 14.3274 39.199 16.0027C37.5237 17.678 35.2516 18.6192 32.8823 18.6192H23.9492V0.75293ZM26.5015 3.30525V16.0669H32.8823C34.5746 16.0669 36.1976 15.3946 37.3943 14.198C38.5909 13.0013 39.2632 11.3784 39.2632 9.68606C39.2632 7.99376 38.5909 6.37078 37.3943 5.17415C36.1976 3.97751 34.5746 3.30525 32.8823 3.30525H26.5015Z" fill="#FF7262"/>
</g>
<g style="mix-blend-mode:multiply">
<path fill-rule="evenodd" clip-rule="evenodd" d="M32.8823 18.6192C31.1901 18.6192 29.5671 19.2915 28.3704 20.4881C27.1738 21.6847 26.5015 23.3077 26.5015 25C26.5015 26.6923 27.1738 28.3153 28.3704 29.5119C29.5671 30.7086 31.1901 31.3808 32.8823 31.3808C34.5746 31.3808 36.1976 30.7086 37.3943 29.5119C38.5909 28.3153 39.2632 26.6923 39.2632 25C39.2632 23.3077 38.5909 21.6847 37.3943 20.4881C36.1976 19.2915 34.5746 18.6192 32.8823 18.6192ZM26.5657 18.6833C28.241 17.0081 30.5131 16.0669 32.8823 16.0669C35.2516 16.0669 37.5237 17.0081 39.199 18.6833C40.8743 20.3586 41.8155 22.6308 41.8155 25C41.8155 27.3692 40.8743 29.6414 39.199 31.3167C37.5237 32.992 35.2516 33.9332 32.8823 33.9332C30.5131 33.9332 28.241 32.992 26.5657 31.3167C24.8904 29.6414 23.9492 27.3692 23.9492 25C23.9492 22.6308 24.8904 20.3586 26.5657 18.6833Z" fill="#1ABCFE"/>
</g>
<defs>
<radialGradient id="paint0_angular_548_12036" cx="0" cy="0" r="1" gradientUnits="userSpaceOnUse" gradientTransform="translate(25.334 24.9999) rotate(90) scale(9.87689 25)">
<stop stop-color="#EC48FC"/>
<stop offset="0.339956" stop-color="#440BD4"/>
<stop offset="0.640905" stop-color="#FF2079"/>
<stop offset="1" stop-color="#E92EFB"/>
</radialGradient>
</defs>
</svg>
