<svg width="80" height="80" viewBox="0 0 80 80" fill="none" xmlns="http://www.w3.org/2000/svg">
<g style="mix-blend-mode:multiply">
<mask id="mask0_1189_2833" style="mask-type:alpha" maskUnits="userSpaceOnUse" x="10" y="10" width="60" height="60">
<rect x="10" y="10" width="60" height="60" fill="#D9D9D9"/>
</mask>
<g mask="url(#mask0_1189_2833)">
<path d="M17.5 42.5V37.5H22.5V42.5H17.5ZM17.5 32.5V27.5H22.5V32.5H17.5ZM17.5 22.5V17.5H22.5V22.5H17.5ZM27.5 22.5V17.5H32.5V22.5H27.5ZM37.5 62.5V57.5H42.5V62.5H37.5ZM37.5 22.5V17.5H42.5V22.5H37.5ZM47.5 62.5V57.5H52.5V62.5H47.5ZM57.5 62.5V57.5H62.5V62.5H57.5ZM57.5 52.5V47.5H62.5V52.5H57.5ZM57.5 42.5V37.5H62.5V42.5H57.5ZM57.5 32.5V22.5H47.5V17.5H62.5V32.5H57.5ZM17.5 62.5V47.5H22.5V57.5H32.5V62.5H17.5Z" fill="#833177"/>
</g>
</g>
</svg>
