<svg width="51" height="50" viewBox="0 0 51 50" fill="none" xmlns="http://www.w3.org/2000/svg">
<g clip-path="url(#clip0_548_12097)">
<path d="M25.4999 0.625244C39.3053 0.625244 50.5 11.8143 50.5 25.617C50.5 36.6593 43.3367 46.0272 33.4033 49.3319C32.154 49.5631 31.6952 48.7897 31.6952 48.1296C31.6952 47.5337 31.7185 45.5648 31.7291 43.4766C38.6843 44.9884 40.1519 40.5278 40.1519 40.5278C41.2891 37.6391 42.9277 36.8711 42.9277 36.8711C45.1959 35.3199 42.7567 35.3517 42.7567 35.3517C40.2462 35.5281 38.9243 37.9272 38.9243 37.9272C36.6946 41.748 33.0759 40.6433 31.6493 40.0049C31.425 38.3894 30.777 37.2871 30.0621 36.663C35.6148 36.0309 41.4523 33.8879 41.4523 24.3118C41.4523 21.5834 40.4756 19.3539 38.8763 17.6037C39.1359 16.9741 39.9915 14.4323 38.6341 10.9899C38.6341 10.9899 36.5348 10.3182 31.7573 13.5517C29.7633 12.9978 27.6245 12.7202 25.4999 12.7108C23.3753 12.7202 21.235 12.9978 19.237 13.5517C14.4652 10.3182 12.3688 10.9899 12.3688 10.9899C11.0081 14.4323 11.8641 16.9741 12.1237 17.6037C10.5208 19.3539 9.55086 21.5832 9.55086 24.3118C9.55086 33.9107 15.3993 36.0244 20.9661 36.643C20.0695 37.4186 19.2705 38.9396 19.2705 41.2711C19.2705 44.615 19.2995 47.3063 19.2995 48.1296C19.2995 48.7946 18.8496 49.5739 17.5821 49.3285C7.65426 46.0201 0.5 36.6555 0.5 25.617C0.5 11.8143 11.6931 0.625244 25.4999 0.625244Z" fill="#161614"/>
<path d="M41.137 36.2268C41.1919 36.3508 41.3876 36.3881 41.5655 36.303C41.7468 36.2215 41.8488 36.0521 41.79 35.9275C41.736 35.7997 41.5404 35.764 41.3594 35.8499C41.1776 35.9312 41.0741 36.1021 41.137 36.2268ZM39.9073 37.3236C40.0265 37.4342 40.2596 37.3828 40.4179 37.2082C40.5814 37.0339 40.612 36.8011 40.491 36.6888C40.3681 36.5784 40.142 36.63 39.9781 36.8044C39.8145 36.9806 39.7828 37.2121 39.9075 37.3238M39.0636 38.727C39.2169 38.8335 39.4675 38.7337 39.6222 38.5114C39.7753 38.2893 39.7753 38.0228 39.6189 37.916C39.4636 37.8091 39.2169 37.9052 39.0601 38.1257C38.9071 38.3517 38.9071 38.6182 39.0638 38.7272M37.637 40.3525C37.774 40.5034 38.0658 40.4631 38.2795 40.2569C38.4979 40.0554 38.5589 39.7694 38.4215 39.6183C38.2828 39.467 37.9893 39.5095 37.774 39.7139C37.557 39.915 37.4909 40.2032 37.637 40.3525ZM35.7931 40.9013C35.8533 41.0969 36.1345 41.1859 36.4176 41.1028C36.7003 41.0172 36.8854 40.7878 36.8284 40.5901C36.7696 40.3931 36.4872 40.3004 36.2019 40.3894C35.9196 40.4746 35.7343 40.7022 35.7931 40.9013ZM33.6944 41.134C33.6873 41.3402 33.9275 41.5111 34.2247 41.5148C34.5237 41.5213 34.7655 41.3545 34.7686 41.1518C34.7686 40.9437 34.5339 40.7743 34.2351 40.7694C33.9379 40.7635 33.6944 40.9292 33.6944 41.134ZM31.6329 41.055C31.5972 41.2561 31.8038 41.4627 32.0989 41.5176C32.3891 41.5705 32.6577 41.4464 32.6948 41.2471C32.7309 41.0409 32.5203 40.8345 32.2307 40.781C31.935 40.7296 31.6705 40.8506 31.6329 41.055Z" fill="#161614"/>
</g>
<defs>
<clipPath id="clip0_548_12097">
<rect width="50" height="50" fill="white" transform="matrix(-1 0 0 1 50.5 0)"/>
</clipPath>
</defs>
</svg>
