<svg width="41" height="40" viewBox="0 0 41 40" fill="none" xmlns="http://www.w3.org/2000/svg">
<mask id="mask0_1213_11340" style="mask-type:alpha" maskUnits="userSpaceOnUse" x="5" y="5" width="31" height="30">
<rect x="5.5" y="5" width="30" height="30" fill="#D9D9D9"/>
</mask>
<g mask="url(#mask0_1213_11340)">
<path d="M9.75 27.5L8 25.75L14.625 19.125C15.3542 18.3958 16.2396 18.0313 17.2813 18.0313C18.3229 18.0313 19.2083 18.3958 19.9375 19.125L21.375 20.5625C21.625 20.8125 21.9219 20.9375 22.2656 20.9375C22.6094 20.9375 22.9062 20.8125 23.1562 20.5625L28.7188 15H25.5V12.5H33V20H30.5V16.7812L24.9063 22.3438C24.1771 23.0729 23.2917 23.4375 22.25 23.4375C21.2083 23.4375 20.3229 23.0729 19.5938 22.3438L18.125 20.875C17.8958 20.6458 17.6042 20.5313 17.25 20.5313C16.8958 20.5313 16.6042 20.6458 16.375 20.875L9.75 27.5Z" fill="#833177"/>
</g>
</svg>
