<svg width="41" height="40" viewBox="0 0 41 40" fill="none" xmlns="http://www.w3.org/2000/svg">
<mask id="mask0_1199_13603" style="mask-type:alpha" maskUnits="userSpaceOnUse" x="5" y="5" width="31" height="30">
<rect x="5.5" y="5" width="30" height="30" fill="#D9D9D9"/>
</mask>
<g mask="url(#mask0_1199_13603)">
<path d="M30 31.25L22.125 23.375C21.5 23.875 20.7812 24.2708 19.9687 24.5625C19.1562 24.8542 18.2917 25 17.375 25C15.1042 25 13.1823 24.2135 11.6094 22.6406C10.0365 21.0677 9.25 19.1458 9.25 16.875C9.25 14.6042 10.0365 12.6823 11.6094 11.1094C13.1823 9.53646 15.1042 8.75 17.375 8.75C19.6458 8.75 21.5677 9.53646 23.1406 11.1094C24.7135 12.6823 25.5 14.6042 25.5 16.875C25.5 17.7917 25.3542 18.6562 25.0625 19.4687C24.7708 20.2812 24.375 21 23.875 21.625L31.75 29.5L30 31.25ZM17.375 22.5C18.9375 22.5 20.2656 21.9531 21.3594 20.8594C22.4531 19.7656 23 18.4375 23 16.875C23 15.3125 22.4531 13.9844 21.3594 12.8906C20.2656 11.7969 18.9375 11.25 17.375 11.25C15.8125 11.25 14.4844 11.7969 13.3906 12.8906C12.2969 13.9844 11.75 15.3125 11.75 16.875C11.75 18.4375 12.2969 19.7656 13.3906 20.8594C14.4844 21.9531 15.8125 22.5 17.375 22.5Z" fill="#833177"/>
</g>
</svg>
