<svg width="51" height="50" viewBox="0 0 51 50" fill="none" xmlns="http://www.w3.org/2000/svg">
<g clip-path="url(#clip0_548_12075)">
<path d="M0.666016 0H50.666V50H0.666016V0Z" fill="#F7DF1E"/>
<path d="M13.8127 41.7835L17.6389 39.4679C18.3771 40.7767 19.0486 41.8841 20.6594 41.8841C22.2033 41.8841 23.177 41.2802 23.177 38.931V22.9548H27.8756V38.9974C27.8756 43.864 25.0229 46.0792 20.8607 46.0792C17.102 46.0792 14.9201 44.1325 13.8125 41.7831M30.4277 41.28L34.2535 39.0649C35.2607 40.7097 36.5697 41.9179 38.8854 41.9179C40.8324 41.9179 42.0738 40.9444 42.0738 39.6019C42.0738 37.9909 40.7984 37.4202 38.6504 36.4808L37.476 35.9769C34.0859 34.5341 31.8373 32.7216 31.8373 28.8954C31.8373 25.3712 34.5223 22.686 38.7178 22.686C41.7049 22.686 43.8529 23.7267 45.3967 26.4452L41.7381 28.7948C40.9324 27.3517 40.0602 26.7812 38.7176 26.7812C37.3414 26.7812 36.4688 27.6538 36.4688 28.7948C36.4688 30.2044 37.3414 30.7753 39.3551 31.6479L40.5297 32.1513C44.5238 33.8632 46.7725 35.6083 46.7725 39.5349C46.7725 43.7642 43.4498 46.0798 38.9859 46.0798C34.6229 46.0798 31.8035 43.9989 30.4275 41.2802" fill="black"/>
</g>
<defs>
<clipPath id="clip0_548_12075">
<rect width="50" height="50" fill="white" transform="translate(0.666016)"/>
</clipPath>
</defs>
</svg>
