<svg width="41" height="40" viewBox="0 0 41 40" fill="none" xmlns="http://www.w3.org/2000/svg">
<mask id="mask0_1213_11518" style="mask-type:alpha" maskUnits="userSpaceOnUse" x="5" y="5" width="31" height="30">
<rect x="5.5" y="5" width="30" height="30" fill="#D9D9D9"/>
</mask>
<g mask="url(#mask0_1213_11518)">
<path d="M11.75 31.25C10.6875 31.25 9.93228 30.776 9.48436 29.8281C9.03644 28.8802 9.14582 28 9.81249 27.1875L16.75 18.75V11.25H15.5C15.1458 11.25 14.8489 11.1302 14.6094 10.8906C14.3698 10.651 14.25 10.3542 14.25 10C14.25 9.64583 14.3698 9.34896 14.6094 9.10937C14.8489 8.86979 15.1458 8.75 15.5 8.75H25.5C25.8542 8.75 26.151 8.86979 26.3906 9.10937C26.6302 9.34896 26.75 9.64583 26.75 10C26.75 10.3542 26.6302 10.651 26.3906 10.8906C26.151 11.1302 25.8542 11.25 25.5 11.25H24.25V18.75L31.1875 27.1875C31.8542 28 31.9635 28.8802 31.5156 29.8281C31.0677 30.776 30.3125 31.25 29.25 31.25H11.75ZM11.75 28.75H29.25L21.75 19.625V11.25H19.25V19.625L11.75 28.75Z" fill="#833177"/>
</g>
</svg>
