<svg width="676" height="106" viewBox="0 0 676 106" fill="none" xmlns="http://www.w3.org/2000/svg">
<path fill-rule="evenodd" clip-rule="evenodd" d="M47.9422 25.6312H24.8537V43.7704H46.4839V49.5669H24.8537V67.7051L48.5618 67.7061V73.5027H21.8762C20.3356 73.5027 19.0684 72.3622 18.916 70.9007L18.9006 70.6044V22.7329C18.9006 21.2322 20.0715 19.998 21.572 19.8496L21.8762 19.8346H47.9422V25.6312ZM62.7691 73.4115H56.988V20.083H62.7691V73.4115ZM651.049 73.4115H656.83V22.7329H651.049V73.4115ZM210.295 40.2404C208.179 40.2404 206.573 41.9435 206.573 44.0628L206.578 73.4115H200.292V43.0313C200.292 38.0445 204.252 33.9948 209.265 33.9948H215.856V40.2404H210.295ZM527.372 42.6098C525.407 42.6098 523.915 44.1912 523.915 46.1592L523.92 73.4115H518.083V45.2013C518.083 40.5707 521.76 36.8103 526.415 36.8103H532.536V42.6098H527.372ZM425.585 73.4115H431.366V36.8103H425.585V73.4115ZM568.923 53.7474C568.923 46.1181 562.205 39.9032 553.933 39.9032C545.667 39.9032 538.949 46.1181 538.949 53.7474C538.949 61.3791 545.667 67.594 553.933 67.594C562.205 67.594 568.923 61.3791 568.923 53.7474ZM605.347 53.7474C605.347 46.1181 598.621 39.9032 590.35 39.9032C582.083 39.9032 575.354 46.1181 575.354 53.7474C575.354 61.3791 582.083 67.594 590.35 67.594C598.621 67.594 605.347 61.3791 605.347 53.7474ZM641.758 53.7474C641.758 46.1181 635.037 39.9032 626.771 39.9032C618.497 39.9032 611.778 46.1181 611.778 53.7474C611.778 61.3791 618.497 67.594 626.771 67.594C635.037 67.594 641.758 61.3791 641.758 53.7474ZM539.003 87.4889H532.536V53.7474C532.536 42.8381 542.12 33.9948 553.933 33.9948C561.63 33.9948 568.377 37.7527 572.141 43.3836C575.909 37.7527 582.659 33.9948 590.35 33.9948C598.038 33.9948 604.801 37.7503 608.558 43.3836C612.325 37.7503 619.067 33.9948 626.771 33.9948C638.585 33.9948 648.158 42.8381 648.158 53.7474C648.158 64.6567 638.585 73.4975 626.771 73.4975C619.067 73.4975 612.325 69.7445 608.558 64.116C604.801 69.7445 598.038 73.4975 590.35 73.4975C582.659 73.4975 575.909 69.7445 572.141 64.116C568.377 69.7445 561.63 73.4975 553.933 73.4975C548.119 73.4975 542.854 71.3567 539.003 67.886V87.4889ZM493.52 39.5343C500.133 39.5343 506.135 43.3555 508.331 49.321H478.685C480.878 43.3555 486.904 39.5343 493.52 39.5343ZM493.52 73.4115C503.595 73.4115 512.202 67.2416 514.571 58.3701H508.221C506.034 64.0557 500.152 67.8769 493.52 67.8769C485.459 67.8769 478.758 62.3568 477.97 54.8629H515.192V53.702C515.192 42.8347 505.466 33.9948 493.52 33.9948C481.563 33.9948 471.834 42.8347 471.834 53.702C471.834 64.5668 481.563 73.4115 493.52 73.4115ZM372.644 49.321C370.449 43.3555 364.447 39.5343 357.834 39.5343C351.218 39.5343 345.192 43.3555 342.999 49.321H372.644ZM378.885 58.3701C376.516 67.2416 367.908 73.4115 357.834 73.4115C345.877 73.4115 336.148 64.5668 336.148 53.702C336.148 42.8347 345.877 33.9948 357.834 33.9948C369.78 33.9948 379.506 42.8347 379.506 53.702V54.8629H342.284C343.071 62.3568 349.773 67.8769 357.834 67.8769C364.465 67.8769 370.347 64.0557 372.535 58.3701H378.885ZM189.58 49.1653H161.014C163.127 43.512 168.934 38.9633 175.308 38.9633C181.68 38.9633 187.464 43.512 189.58 49.1653ZM196.107 58.7014H189.831C187.67 64.3869 181.857 68.2081 175.303 68.2081C167.337 68.2081 160.715 62.6881 159.937 55.1942H196.721V54.0332C196.721 43.1659 187.109 34.326 175.303 34.326C163.487 34.326 153.873 43.1659 153.873 54.0332C153.873 64.898 163.487 73.7428 175.303 73.7428C185.259 73.7428 193.766 67.5729 196.107 58.7014ZM474.725 36.8103L458.67 73.4115H450.306L434.257 36.8103H441.567L454.487 66.2686L467.407 36.8103H474.725ZM403.162 22.7329V63.9186C403.183 65.9669 404.449 67.5665 406.954 67.5665H422.695V73.4115L401.005 73.4091C398.268 73.4091 396.68 71.8485 396.68 69.5905V22.7329H403.162ZM431.366 28.3638H425.585V22.7329H431.366V28.3638ZM272.896 53.4548C272.896 42.25 263.57 33.1667 252.067 33.1667C240.563 33.1667 231.238 42.25 231.238 53.4548C231.238 64.6595 240.563 73.7428 252.067 73.7428C263.57 73.7428 272.896 64.6595 272.896 53.4548ZM237.364 53.4548C237.364 45.5455 243.947 39.1338 252.067 39.1338C260.187 39.1338 266.769 45.5455 266.769 53.4548C266.769 61.364 260.187 67.7757 252.067 67.7757C243.947 67.7757 237.364 61.364 237.364 53.4548ZM332.407 21.0322V54.0344C332.407 64.919 323.348 73.7428 312.173 73.7428C300.998 73.7428 291.939 64.919 291.939 54.0344C291.939 43.1498 300.998 34.326 312.173 34.326C317.748 34.326 322.796 36.522 326.456 40.0744V21.0322H332.407ZM297.891 54.0344C297.891 46.3511 304.285 40.1226 312.173 40.1226C320.061 40.1226 326.456 46.3511 326.456 54.0344C326.456 61.7177 320.061 67.9462 312.173 67.9462C304.285 67.9462 297.891 61.7177 297.891 54.0344ZM226.737 73.7035L226.736 73.7428H231.476L231.476 68.0387L227.855 68.0382L227.443 68.0323C224.109 67.9265 222.827 66.4797 222.782 62.8271L222.782 38.9633H231.476V34.326H222.782L222.782 20.4143H217.193V62.8633L217.209 63.4347C217.471 69.4554 220.695 73.0835 226.235 73.6613L226.737 73.7035ZM122.044 33.1667V57.6919C122.044 64.9564 125.339 68.1089 132.985 68.1089C140.43 68.1089 143.749 65.1202 143.919 58.2569L143.926 57.6919V33.1667H149.877V57.6919C149.877 68.1812 143.894 73.9055 132.985 73.9055C122.299 73.9055 116.339 68.4124 116.101 58.3281L116.093 57.6919V33.1667H122.044ZM99.1995 20.3609L99.4806 20.3739C108.917 21.2461 113.874 27.4706 113.874 37.9491C113.874 48.2248 109.092 54.3272 99.824 55.1808L99.1995 55.23L86.57 55.2285L86.5696 73.7428H80.6185V23.2592C80.6185 21.7586 81.7894 20.5243 83.2898 20.3759L83.5941 20.3609H99.1995ZM99.0269 26.1552H86.57V49.4319L98.9978 49.4401C104.946 49.0465 107.76 45.7841 107.916 38.5938L107.923 37.9491C107.923 30.5019 105.241 26.9214 99.4385 26.2007L99.0269 26.1552Z" fill="#833177"/>
</svg>
