<svg width="150" height="150" viewBox="0 0 150 150" fill="none" xmlns="http://www.w3.org/2000/svg">
<path d="M82.233 91.5817H54.9713C51.9388 91.5817 50.9611 89.7198 50.9611 87.1792C50.9611 85.1243 50.9487 22.4872 50.9487 22.4872H41.3654V96.0028C41.3654 99.0914 44.0367 101.128 46.0045 101.128H82.2392V91.5879L82.233 91.5817Z" fill="#833177"/>
<path d="M82.2395 104.771V114.336H33.831C30.5182 114.336 28.2267 111.864 28.2267 108.657C28.2578 104.896 28.2267 22.4817 28.2267 22.4817H37.7726V98.8244C37.7726 102.181 39.2297 104.771 43.3146 104.771H82.2395Z" fill="#833177"/>
<path d="M15 22.4872H24.5895V111.346C24.5895 114.559 26.2023 117.965 30.8975 117.965H82.2389V127.511H26.3954C20.0314 127.511 15 122.231 15 115.935V22.4872Z" fill="#833177"/>
<path d="M54.5353 22.4872H64.131V74.663C64.131 76.5622 64.9966 78.3743 67.7178 78.3743H82.2329V87.9514H59.4172C55.9052 87.9514 54.5415 85.7221 54.5415 83.1815V22.4872H54.5353Z" fill="#833177"/>
<path d="M67.7672 58.4178H95.0289C98.0614 58.4178 99.0391 60.2796 99.0391 62.8202C99.0391 64.8752 99.0515 127.512 99.0515 127.512H108.635V53.9966C108.635 50.908 105.97 48.8718 103.996 48.8718H67.761V58.4116L67.7672 58.4178Z" fill="#FF6A13"/>
<path d="M67.7617 45.2281V35.6635H116.164C119.477 35.6635 121.768 38.1356 121.768 41.3425C121.731 45.1035 121.768 127.518 121.768 127.518H112.222V51.1748C112.222 47.8185 110.765 45.2281 106.68 45.2281H67.7555H67.7617Z" fill="#FF6A13"/>
<path d="M135 127.511H125.404V38.6524C125.404 35.4331 123.791 32.0331 119.096 32.0331H67.761V22.4872H123.598C129.968 22.4872 135 27.7677 135 34.0631V127.511Z" fill="#FF6A13"/>
<path d="M95.4586 127.512H85.8628V75.3365C85.8628 73.4372 84.9972 71.6252 82.2761 71.6252H67.761V62.0481H90.5828C94.0949 62.0481 95.4586 64.2774 95.4586 66.818V127.506V127.512Z" fill="#FF6A13"/>
</svg>
