<svg width="81" height="80" viewBox="0 0 81 80" fill="none" xmlns="http://www.w3.org/2000/svg">
<path fill-rule="evenodd" clip-rule="evenodd" d="M15.0807 33.052C11.5481 29.5504 11.5482 23.8733 15.0808 20.3718L24.6755 10.8615C27.6619 7.9015 32.2166 7.44371 35.6881 9.48816C36.7619 10.1205 36.7525 11.5712 35.8693 12.4465C34.9861 13.3219 33.5445 13.2466 32.3458 12.8991C30.8107 12.4541 29.0844 12.8316 27.8738 14.0316L18.279 23.5418C16.5127 25.2926 16.5127 28.1312 18.2789 29.8819C20.0452 31.6328 22.9091 31.6328 24.6754 29.882L43.8647 10.8616C47.3974 7.36011 53.1249 7.3601 56.6575 10.8616L66.2524 20.3718C69.7852 23.8733 69.7852 29.5505 66.2524 33.052C62.7197 36.5535 56.9922 36.5535 53.4596 33.052L50.2613 29.8819L46.2635 33.8445C43.2772 36.8045 38.7224 37.2623 35.2509 35.2178C34.1772 34.5855 34.1866 33.1348 35.0697 32.2594C35.9529 31.3841 37.3945 31.4594 38.5933 31.8069C40.1284 32.252 41.8546 31.8745 43.0653 30.6744L47.1773 26.5986C48.8805 24.9104 51.642 24.9104 53.3453 26.5986L56.6578 29.8819C58.4241 31.6327 61.2877 31.6327 63.0543 29.8819C64.8204 28.1312 64.8204 25.2926 63.0543 23.5418L53.4594 14.0317C51.693 12.2809 48.8293 12.2809 47.0629 14.0317L27.8737 33.0521C24.341 36.5537 18.6133 36.5536 15.0807 33.052Z" fill="#E6E6E6"/>
<path d="M19.2479 54.2999C17.0301 54.2999 15.3502 55.0938 14.2413 56.6815C13.2671 55.0938 11.7211 54.2999 9.67182 54.2999C7.55491 54.2999 6.00937 55.0276 5.00138 56.5161V54.763H0.666626V71.3017H5.00138V62.0069C5.00138 59.5923 6.24458 58.2692 8.15961 58.2692C9.94037 58.2692 10.9822 59.4269 10.9822 61.4115V71.3017H15.3164V62.0069C15.3164 59.5923 16.4592 58.2692 18.4413 58.2692C20.2221 58.2692 21.2639 59.4269 21.2639 61.4115V71.3017H25.5982V61.1138C25.5982 56.9792 23.1118 54.2999 19.2479 54.2999Z" fill="#E6E6E6"/>
<path d="M41.7119 56.7146C40.4016 55.0938 38.587 54.2999 36.2349 54.2999C33.9837 54.2999 32.0687 55.1599 30.456 56.8469C28.8766 58.5338 28.0701 60.5846 28.0701 63.0323C28.0701 65.48 28.8766 67.5639 30.456 69.2509C32.0687 70.9378 33.9837 71.7648 36.2349 71.7648C38.587 71.7648 40.4016 70.9709 41.7119 69.3501V71.3017H46.0462V54.763H41.7119V56.7146ZM33.7152 66.4062C32.8414 65.5131 32.4048 64.3885 32.4048 63.0323C32.4048 61.6762 32.8414 60.5515 33.7152 59.6915C34.5884 58.7984 35.6973 58.3684 37.0415 58.3684C38.3856 58.3684 39.4945 58.7984 40.3678 59.6915C41.2753 60.5515 41.7119 61.6762 41.7119 63.0323C41.7119 64.3885 41.2753 65.5131 40.3678 66.4062C39.4945 67.2662 38.3856 67.6962 37.0415 67.6962C35.6973 67.6962 34.5884 67.2662 33.7152 66.4062Z" fill="#E6E6E6"/>
<path d="M62.0396 57.6076V54.763H49.439V58.7653H56.1931L49.1034 68.457V71.3016H62.3753V67.2993H54.9161L62.0396 57.6076Z" fill="#E6E6E6"/>
<path d="M80.4986 64.7854C80.5995 64.157 80.6666 63.5946 80.6666 63.0323C80.6666 60.5515 79.8605 58.5007 78.2474 56.8138C76.6685 55.1269 74.6187 54.2999 72.1657 54.2999C69.5783 54.2999 67.4281 55.1269 65.7816 56.8138C64.1351 58.4677 63.2952 60.5515 63.2952 63.0323C63.2952 65.5462 64.1351 67.6301 65.8154 69.284C67.4952 70.9378 69.7131 71.7648 72.5018 71.7648C75.7276 71.7648 78.1802 70.574 79.8267 68.2255L76.3323 66.2408C75.4924 67.3324 74.2154 67.8947 72.5689 67.8947C69.9816 67.8947 68.4027 66.8693 67.8314 64.7854H80.4986ZM67.7642 61.4777C68.268 59.3608 69.8473 58.1369 72.1657 58.1369C74.1483 58.1369 75.8281 59.2284 76.3323 61.4777H67.7642Z" fill="#E6E6E6"/>
</svg>
