<svg width="41" height="40" viewBox="0 0 41 40" fill="none" xmlns="http://www.w3.org/2000/svg">
<mask id="mask0_1213_14378" style="mask-type:alpha" maskUnits="userSpaceOnUse" x="5" y="5" width="31" height="30">
<rect x="5.5" y="5" width="30" height="30" fill="#D9D9D9"/>
</mask>
<g mask="url(#mask0_1213_14378)">
<path d="M11.75 31.25C11.0625 31.25 10.474 31.0052 9.98438 30.5156C9.49479 30.026 9.25 29.4375 9.25 28.75V23.75H11.75V28.75H16.75V31.25H11.75ZM24.25 31.25V28.75H29.25V23.75H31.75V28.75C31.75 29.4375 31.5052 30.026 31.0156 30.5156C30.526 31.0052 29.9375 31.25 29.25 31.25H24.25ZM9.25 16.25V11.25C9.25 10.5625 9.49479 9.97396 9.98438 9.48438C10.474 8.99479 11.0625 8.75 11.75 8.75H16.75V11.25H11.75V16.25H9.25ZM29.25 16.25V11.25H24.25V8.75H29.25C29.9375 8.75 30.526 8.99479 31.0156 9.48438C31.5052 9.97396 31.75 10.5625 31.75 11.25V16.25H29.25Z" fill="#833177"/>
</g>
</svg>
