<svg width="46" height="50" viewBox="0 0 46 50" fill="none" xmlns="http://www.w3.org/2000/svg">
<path d="M23.0009 50C22.3119 50 21.6688 49.8163 21.0717 49.4947L14.9624 45.8659C14.0437 45.3606 14.503 45.1768 14.7786 45.085C16.0189 44.6716 16.2485 44.5797 17.5347 43.8447C17.6725 43.7529 17.8563 43.7988 17.9941 43.8907L22.6794 46.6927C22.8631 46.7846 23.0928 46.7846 23.2306 46.6927L41.5586 36.0818C41.7423 35.9899 41.8342 35.8062 41.8342 35.5765V14.4006C41.8342 14.1709 41.7423 13.9871 41.5586 13.8953L23.2306 3.33027C23.0469 3.2384 22.8172 3.2384 22.6794 3.33027L4.35143 13.8953C4.16769 13.9871 4.07582 14.2168 4.07582 14.4006V35.5765C4.07582 35.7602 4.16769 35.9899 4.35143 36.0818L9.35832 38.9757C12.0685 40.3537 13.7681 38.746 13.7681 37.1383V16.2379C13.7681 15.9623 13.9977 15.6867 14.3193 15.6867H16.6619C16.9376 15.6867 17.2132 15.9164 17.2132 16.2379V37.1383C17.2132 40.7671 15.238 42.8801 11.7929 42.8801C10.7364 42.8801 9.90954 42.8801 7.56686 41.7317L2.74371 38.9757C1.54941 38.2866 0.814453 37.0005 0.814453 35.6224V14.4465C0.814453 13.0684 1.54941 11.7823 2.74371 11.0932L21.0717 0.482315C22.2201 -0.160772 23.7818 -0.160772 24.9302 0.482315L43.2582 11.0932C44.4525 11.7823 45.1874 13.0684 45.1874 14.4465V35.6224C45.1874 37.0005 44.4525 38.2866 43.2582 38.9757L24.9302 49.5866C24.3331 49.8622 23.644 50 23.0009 50ZM28.6509 35.4387C20.6123 35.4387 18.9587 31.7639 18.9587 28.6403C18.9587 28.3647 19.1884 28.0891 19.5099 28.0891H21.8985C22.1741 28.0891 22.4038 28.2729 22.4038 28.5485C22.7713 30.983 23.8278 32.1773 28.6969 32.1773C32.5554 32.1773 34.209 31.3045 34.209 29.2375C34.209 28.0432 33.7497 27.1704 27.7322 26.5733C22.7253 26.068 19.6018 24.9655 19.6018 20.9692C19.6018 17.2485 22.7253 15.0436 27.9619 15.0436C33.8416 15.0436 36.7354 17.0648 37.1029 21.4745C37.1029 21.6123 37.057 21.7501 36.9651 21.8879C36.8732 21.9798 36.7354 22.0717 36.5976 22.0717H34.209C33.9794 22.0717 33.7497 21.8879 33.7037 21.6582C33.1525 19.1318 31.7286 18.305 27.9619 18.305C23.7359 18.305 23.2306 19.7749 23.2306 20.8774C23.2306 22.2095 23.8278 22.6229 29.5237 23.3578C35.1737 24.0928 37.8379 25.1493 37.8379 29.0997C37.7919 33.1419 34.4846 35.4387 28.6509 35.4387Z" fill="#539E43"/>
</svg>
