<svg width="41" height="40" viewBox="0 0 41 40" fill="none" xmlns="http://www.w3.org/2000/svg">
<mask id="mask0_1213_14622" style="mask-type:alpha" maskUnits="userSpaceOnUse" x="5" y="5" width="31" height="30">
<rect x="5.5" y="5" width="30" height="30" fill="#D9D9D9"/>
</mask>
<g mask="url(#mask0_1213_14622)">
<path d="M9.25 31.25V28.75H31.75V31.25H9.25ZM11.5625 25L8 18.9375L9.9375 18.5625L12.125 20.5L18.125 18.875L13.0625 10.3125L15.5 9.5625L24.0625 17.25L30.3125 15.5625C30.9792 15.375 31.5833 15.5 32.125 15.9375C32.6667 16.375 32.9375 16.9583 32.9375 17.6875C32.9375 18.1458 32.7969 18.5521 32.5156 18.9062C32.2344 19.2604 31.875 19.5 31.4375 19.625L11.5625 25Z" fill="#833177"/>
</g>
</svg>
