<svg width="81" height="80" viewBox="0 0 81 80" fill="none" xmlns="http://www.w3.org/2000/svg">
<g style="mix-blend-mode:multiply">
<mask id="mask0_1189_8523" style="mask-type:alpha" maskUnits="userSpaceOnUse" x="10" y="10" width="61" height="60">
<rect x="10.3351" y="10" width="60" height="60" fill="#D9D9D9"/>
</mask>
<g mask="url(#mask0_1189_8523)">
<path d="M22.8351 62.5C22.1267 62.5 21.533 62.2604 21.0538 61.7812C20.5747 61.3021 20.3351 60.7083 20.3351 60V57.5H17.8351V47.5C17.8351 46.7917 18.0747 46.1979 18.5538 45.7188C19.033 45.2396 19.6267 45 20.3351 45H22.8351V27.5C22.8351 24.75 23.8142 22.3958 25.7726 20.4375C27.7309 18.4792 30.0851 17.5 32.8351 17.5C35.5851 17.5 37.9392 18.4792 39.8976 20.4375C41.8559 22.3958 42.8351 24.75 42.8351 27.5V52.5C42.8351 53.875 43.3247 55.0521 44.3038 56.0313C45.283 57.0104 46.4601 57.5 47.8351 57.5C49.2101 57.5 50.3872 57.0104 51.3663 56.0313C52.3455 55.0521 52.8351 53.875 52.8351 52.5V35H50.3351C49.6267 35 49.033 34.7604 48.5538 34.2813C48.0747 33.8021 47.8351 33.2083 47.8351 32.5V22.5H50.3351V20C50.3351 19.2917 50.5747 18.6979 51.0538 18.2187C51.533 17.7396 52.1267 17.5 52.8351 17.5H57.8351C58.5434 17.5 59.1372 17.7396 59.6163 18.2187C60.0955 18.6979 60.3351 19.2917 60.3351 20V22.5H62.8351V32.5C62.8351 33.2083 62.5955 33.8021 62.1163 34.2813C61.6372 34.7604 61.0434 35 60.3351 35H57.8351V52.5C57.8351 55.25 56.8559 57.6042 54.8976 59.5625C52.9392 61.5208 50.5851 62.5 47.8351 62.5C45.0851 62.5 42.7309 61.5208 40.7726 59.5625C38.8143 57.6042 37.8351 55.25 37.8351 52.5V27.5C37.8351 26.125 37.3455 24.9479 36.3663 23.9688C35.3872 22.9896 34.2101 22.5 32.8351 22.5C31.4601 22.5 30.283 22.9896 29.3038 23.9688C28.3247 24.9479 27.8351 26.125 27.8351 27.5V45H30.3351C31.0434 45 31.6372 45.2396 32.1163 45.7188C32.5955 46.1979 32.8351 46.7917 32.8351 47.5V57.5H30.3351V60C30.3351 60.7083 30.0955 61.3021 29.6163 61.7812C29.1372 62.2604 28.5434 62.5 27.8351 62.5H22.8351Z" fill="#833177"/>
</g>
</g>
</svg>
