<svg width="50" height="50" viewBox="0 0 50 50" fill="none" xmlns="http://www.w3.org/2000/svg">
<path d="M29.4648 24.9599C29.4648 22.5692 27.466 20.6309 25 20.6309C22.5343 20.6309 20.5352 22.5692 20.5352 24.9599C20.5352 27.3509 22.5343 29.289 25 29.289C27.466 29.289 29.4648 27.3509 29.4648 24.9599Z" fill="#53C1DE"/>
<path fill-rule="evenodd" clip-rule="evenodd" d="M39.5007 16.9227C40.4435 13.2079 41.6287 6.31905 37.4507 3.98352C33.2922 1.65817 27.8807 6.11397 25.0232 8.78855C22.174 6.14062 16.6105 1.70387 12.436 4.04682C8.27918 6.37997 9.56107 13.1546 10.5248 16.8928C6.64718 17.9606 0 20.2606 0 24.9597C0 29.6456 6.64027 32.1479 10.495 33.2147C9.52763 36.9736 8.30993 43.6514 12.4721 45.9794C16.6622 48.3219 22.2083 43.9907 25.0923 41.2869C27.9682 43.9772 33.3277 48.3367 37.487 46.0022C41.6593 43.6604 40.5727 36.8639 39.6088 33.1041C43.3455 32.0349 50 29.5871 50 24.9597C50 20.3057 43.3172 17.9871 39.5007 16.9227ZM39.027 31.1116C38.3942 29.1692 37.54 27.1037 36.4952 24.9701C37.4925 22.8867 38.3135 20.8479 38.9287 18.9181C41.7265 19.7046 47.8642 21.5021 47.8642 24.9597C47.8642 28.4499 41.9743 30.2644 39.027 31.1116ZM36.4167 44.2099C33.3133 45.9516 28.7035 41.7826 26.5797 39.8014C27.9887 38.3072 29.3967 36.5702 30.7708 34.6414C33.1882 34.4336 35.4717 34.0936 37.5427 33.6294C38.221 36.2889 39.5337 42.4604 36.4167 44.2099ZM13.5394 44.1851C10.4357 42.4499 11.8543 36.4909 12.5659 33.7221C14.6139 34.1614 16.881 34.4774 19.304 34.6679C20.6872 36.5552 22.136 38.2901 23.596 39.8094C21.7922 41.5012 16.6575 45.9282 13.5394 44.1851ZM2.13582 24.9597C2.13582 21.4566 8.23678 19.6721 11.0984 18.8876C11.7242 20.8607 12.5449 22.9239 13.5354 25.0103C12.5321 27.1276 11.6996 29.2234 11.0681 31.2199C8.33948 30.4626 2.13582 28.4651 2.13582 24.9597ZM13.5062 5.83915C16.6225 4.09018 21.4578 8.34963 23.5265 10.2668C22.074 11.7791 20.6385 13.5009 19.2672 15.3774C16.9157 15.5887 14.6646 15.9281 12.5951 16.3828C11.8187 13.3678 10.3932 7.58623 13.5062 5.83915ZM32.2988 17.6284C33.8942 17.8236 35.4227 18.0832 36.8578 18.4009C36.427 19.7399 35.89 21.1401 35.2575 22.5754C34.3407 20.8887 33.3565 19.2359 32.2988 17.6284ZM25.0238 11.7468C26.009 12.7815 26.9957 13.9371 27.9663 15.1907C25.9975 15.1004 24.0255 15.1001 22.0567 15.1894C23.0282 13.9474 24.0233 12.7936 25.0238 11.7468ZM14.7608 22.5739C14.1388 21.1436 13.6066 19.7373 13.172 18.3791C14.5986 18.0696 16.12 17.8166 17.705 17.6246C16.6443 19.2286 15.6618 20.8808 14.7608 22.5739ZM17.7505 32.4427C16.1132 32.2656 14.5688 32.0254 13.1426 31.7244C13.5841 30.3424 14.128 28.9058 14.7633 27.4446C15.6767 29.1554 16.6742 30.8236 17.7505 32.4427ZM25.083 38.3191C24.0707 37.2599 23.0608 36.0884 22.0747 34.8284C24.0547 34.9037 26.0385 34.9039 28.0183 34.8182C27.0447 36.1012 26.0615 37.2744 25.083 38.3191ZM35.2778 27.3702C35.9462 28.8472 36.5095 30.2761 36.957 31.6347C35.5072 31.9556 33.942 32.2139 32.2928 32.4057C33.3583 30.7677 34.3582 29.0892 35.2778 27.3702ZM29.5788 32.6567C26.5502 32.8666 23.5027 32.8642 20.473 32.6739C18.7515 30.2357 17.219 27.6716 15.8962 25.0096C17.2127 22.3531 18.734 19.7939 20.4473 17.3596C23.4792 17.1374 26.5297 17.1368 29.5615 17.3609C31.2602 19.7951 32.7792 22.3476 34.1262 24.9801C32.7952 27.6352 31.2658 30.1996 29.5788 32.6567ZM36.3838 5.77758C39.501 7.52082 38.1135 13.712 37.4325 16.4042C35.3582 15.9401 33.1055 15.5947 30.7472 15.3801C29.3732 13.4833 27.9497 11.7585 26.5207 10.2657C28.6158 8.30727 33.2968 4.0514 36.3838 5.77758Z" fill="#53C1DE"/>
</svg>
