<svg width="81" height="80" viewBox="0 0 81 80" fill="none" xmlns="http://www.w3.org/2000/svg">
<g style="mix-blend-mode:multiply">
<mask id="mask0_1189_2359" style="mask-type:alpha" maskUnits="userSpaceOnUse" x="10" y="10" width="65" height="64">
<rect x="10.6675" y="10" width="64" height="64" fill="#D9D9D9"/>
</mask>
<g mask="url(#mask0_1189_2359)">
<path d="M24.0009 66V60.6667H37.3342V55.3333C33.6453 55.3333 30.5009 54.0333 27.9009 51.4333C25.3009 48.8333 24.0009 45.6889 24.0009 42C24.0009 39.2889 24.7453 36.8222 26.2342 34.6C27.7231 32.3778 29.7342 30.7556 32.2675 29.7333C32.6231 28.2222 33.412 27 34.6342 26.0667C35.8564 25.1333 37.2453 24.6667 38.8009 24.6667L37.3342 20.5333L39.8675 19.6L38.9342 17.2L44.0009 15.3333L44.8009 17.8667L47.3342 16.9333L54.6675 36.9333L52.1342 37.8667L53.0675 40.4L48.0009 42.2667L47.2009 39.7333L44.6675 40.6667L43.0675 36.2667C42.4009 36.8889 41.6342 37.3556 40.7675 37.6667C39.9009 37.9778 39.0231 38.0889 38.1342 38C37.1564 37.9111 36.2453 37.6111 35.4009 37.1C34.5564 36.5889 33.8231 35.9556 33.2009 35.2C32.0009 35.9111 31.0564 36.8667 30.3675 38.0667C29.6786 39.2667 29.3342 40.5778 29.3342 42C29.3342 44.2222 30.112 46.1111 31.6675 47.6667C33.2231 49.2222 35.112 50 37.3342 50H58.6675V55.3333H45.3342V60.6667H61.3342V66H24.0009ZM47.0675 35.4667L49.4675 34.5333L44.9342 22L42.4009 22.9333L47.0675 35.4667ZM38.6675 34C39.4231 34 40.0564 33.7445 40.5675 33.2333C41.0786 32.7222 41.3342 32.0889 41.3342 31.3333C41.3342 30.5778 41.0786 29.9445 40.5675 29.4333C40.0564 28.9222 39.4231 28.6667 38.6675 28.6667C37.912 28.6667 37.2786 28.9222 36.7675 29.4333C36.2564 29.9445 36.0009 30.5778 36.0009 31.3333C36.0009 32.0889 36.2564 32.7222 36.7675 33.2333C37.2786 33.7445 37.912 34 38.6675 34Z" fill="#833177"/>
</g>
</g>
</svg>
