<svg width="25" height="24" viewBox="0 0 25 24" fill="none" xmlns="http://www.w3.org/2000/svg">
<path d="M19.9863 9L21.2363 6.25L23.9863 5L21.2363 3.75L19.9863 1L18.7363 3.75L15.9863 5L18.7363 6.25L19.9863 9Z" fill="white"/>
<path d="M19.9863 15L18.7363 17.75L15.9863 19L18.7363 20.25L19.9863 23L21.2363 20.25L23.9863 19L21.2363 17.75L19.9863 15Z" fill="white"/>
<path d="M12.4863 9.5L9.98633 4L7.48633 9.5L1.98633 12L7.48633 14.5L9.98633 20L12.4863 14.5L17.9863 12L12.4863 9.5ZM10.9763 12.99L9.98633 15.17L8.99633 12.99L6.81633 12L8.99633 11.01L9.98633 8.83L10.9763 11.01L13.1563 12L10.9763 12.99Z" fill="white"/>
</svg>
