<svg width="25" height="24" viewBox="0 0 25 24" fill="none" xmlns="http://www.w3.org/2000/svg">
<path d="M19.3291 9L20.5791 6.25L23.3291 5L20.5791 3.75L19.3291 1L18.0791 3.75L15.3291 5L18.0791 6.25L19.3291 9Z" fill="#E10098"/>
<path d="M19.3291 15L18.0791 17.75L15.3291 19L18.0791 20.25L19.3291 23L20.5791 20.25L23.3291 19L20.5791 17.75L19.3291 15Z" fill="#E10098"/>
<path d="M11.8291 9.5L9.3291 4L6.8291 9.5L1.3291 12L6.8291 14.5L9.3291 20L11.8291 14.5L17.3291 12L11.8291 9.5ZM10.3191 12.99L9.3291 15.17L8.3391 12.99L6.1591 12L8.3391 11.01L9.3291 8.83L10.3191 11.01L12.4991 12L10.3191 12.99Z" fill="#E10098"/>
</svg>
