<svg width="41" height="41" viewBox="0 0 41 41" fill="none" xmlns="http://www.w3.org/2000/svg">
<mask id="mask0_1213_14347" style="mask-type:alpha" maskUnits="userSpaceOnUse" x="5" y="5" width="31" height="31">
<rect x="5.5" y="5.5" width="30" height="30" fill="#D9D9D9"/>
</mask>
<g mask="url(#mask0_1213_14347)">
<path d="M26.9375 31.375L19.375 23.75C18.9583 23.9167 18.5365 24.0417 18.1094 24.125C17.6823 24.2083 17.2292 24.25 16.75 24.25C14.6667 24.25 12.8958 23.5208 11.4375 22.0625C9.97917 20.6042 9.25 18.8333 9.25 16.75C9.25 16 9.35417 15.2865 9.5625 14.6094C9.77083 13.9323 10.0625 13.2917 10.4375 12.6875L15 17.25L17.25 15L12.6875 10.4375C13.2917 10.0625 13.9323 9.77083 14.6094 9.5625C15.2865 9.35417 16 9.25 16.75 9.25C18.8333 9.25 20.6042 9.97917 22.0625 11.4375C23.5208 12.8958 24.25 14.6667 24.25 16.75C24.25 17.2292 24.2083 17.6823 24.125 18.1094C24.0417 18.5365 23.9167 18.9583 23.75 19.375L31.375 26.9375C31.625 27.1875 31.75 27.4896 31.75 27.8438C31.75 28.1979 31.625 28.5 31.375 28.75L28.75 31.375C28.5 31.625 28.1979 31.75 27.8438 31.75C27.4896 31.75 27.1875 31.625 26.9375 31.375ZM27.8438 28.7187L28.6875 27.875L20.6875 19.875C21.0625 19.4583 21.3333 18.974 21.5 18.4219C21.6667 17.8698 21.75 17.3125 21.75 16.75C21.75 15.5 21.349 14.4115 20.5469 13.4844C19.7448 12.5573 18.75 12 17.5625 11.8125L19.875 14.125C20.125 14.375 20.25 14.6667 20.25 15C20.25 15.3333 20.125 15.625 19.875 15.875L15.875 19.875C15.625 20.125 15.3333 20.25 15 20.25C14.6667 20.25 14.375 20.125 14.125 19.875L11.8125 17.5625C12 18.75 12.5573 19.7448 13.4844 20.5469C14.4115 21.349 15.5 21.75 16.75 21.75C17.2917 21.75 17.8333 21.6667 18.375 21.5C18.9167 21.3333 19.4063 21.0729 19.8438 20.7188L27.8438 28.7187Z" fill="#833177"/>
</g>
</svg>
