<svg width="40" height="41" viewBox="0 0 40 41" fill="none" xmlns="http://www.w3.org/2000/svg">
<path d="M11.2643 35.7585V15.23H4.40471V35.7585H11.2643ZM7.83537 12.4255C10.2274 12.4255 11.7163 10.8491 11.7163 8.87921C11.6718 6.86487 10.2275 5.33228 7.88076 5.33228C5.53439 5.33228 4 6.8649 4 8.87921C4 10.8492 5.48856 12.4255 7.79059 12.4255H7.83515H7.83537ZM15.061 35.7585H21.9205V24.2944C21.9205 23.6808 21.9651 23.0679 22.1462 22.6293C22.6421 21.4035 23.7708 20.1338 25.6657 20.1338C28.1479 20.1338 29.1409 22.0164 29.1409 24.776V35.7583H36V23.9875C36 17.6819 32.6159 14.748 28.1027 14.748C24.4023 14.748 22.7775 16.8055 21.8749 18.2068H21.9207V15.2295H15.0611C15.1512 17.1558 15.0611 35.7581 15.0611 35.7581L15.061 35.7585Z" fill="#4D4D4D"/>
</svg>
