<svg width="70" height="70" viewBox="0 0 70 70" fill="none" xmlns="http://www.w3.org/2000/svg">
<rect x="4.375" y="4.375" width="61.25" height="61.25" rx="2.66667" fill="#0F4DBC"/>
<path d="M51.6621 18.3486C42.6368 13.6958 33.7222 13.2006 28.18 14.8655C17.9328 17.9381 14.7527 30.9613 24.2505 37.3474C24.824 37.7352 24.4623 38.5465 23.7422 39.8432C22.8527 41.4593 21.2008 44.6329 18.2847 46.9234C16.5317 48.3049 15.3881 48.8751 16.8348 50.5824C16.8348 50.5824 20.0441 54.1795 22.4194 55.2222C25.2769 56.4766 25.9937 56.2648 28.1213 54.274C29.4604 53.0196 32.1127 49.5984 35.3122 44.1409C36.974 41.3062 39.1928 41.2541 38.8931 45.9199C38.8931 45.9199 38.4564 50.4097 38.3326 51.3383C37.9775 54.0134 38.2544 54.9387 40.6525 54.9615C40.6525 54.9615 45.8005 54.678 47.5861 54.4271C50.1014 54.085 49.9646 53.6777 50.6227 51.6935C54.1384 41.1074 54.4349 22.9395 54.4349 22.9395C54.588 20.4991 53.8191 19.4597 51.6621 18.3486ZM45.0739 28.1429C45.0739 28.1429 41.8776 30.3357 41.7994 30.3943C41.5257 30.6029 41.1543 30.8538 41.1021 31.8671C41.0826 32.2906 40.9588 35.2752 40.9523 35.6531C40.9458 36.0637 40.7665 37.1878 39.4665 36.0474C39.4665 36.0474 37.29 34.1413 36.9674 33.8579C36.8925 33.7927 36.1464 32.9455 34.9832 33.4473L31.575 34.8093C31.575 34.8093 29.5256 35.6466 30.2848 33.8057C31.0244 32.0104 31.5229 30.5247 31.6891 30.0457C31.8585 29.5439 31.7999 28.8369 31.3828 28.3449C31.1938 28.1201 29.5549 25.9566 29.1835 25.4223C29.1835 25.4223 27.8378 23.8257 30.0795 23.9332C30.0795 23.9332 33.9047 24.0212 33.9666 24.0245C34.0318 24.031 34.7486 24.0799 35.2569 23.2751C35.8857 22.2846 37.7364 19.968 37.3519 20.46C37.6745 20.0494 38.4239 19.0394 38.9191 20.7174C38.9191 20.7174 39.6229 22.9264 39.9585 23.855C40.1866 24.4871 40.3299 24.9075 41.4671 25.2756L44.9827 26.5464C44.9827 26.5464 46.6249 27.0546 45.0739 28.1429Z" fill="white"/>
</svg>
