<svg width="80" height="25" viewBox="0 0 80 25" fill="none" xmlns="http://www.w3.org/2000/svg">
<path d="M74.8862 12.9351C74.5288 12.3863 74.0694 11.9339 73.5764 11.5555C73.7426 11.4745 73.9102 11.3586 74.0721 11.2036C74.829 10.4831 75.2102 9.27519 74.5413 8.4974C72.6939 6.34975 69.5827 6.07327 67.7605 7.04795C67.0022 7.4529 66.4157 7.94583 65.9912 8.53371C65.7329 7.94024 65.1757 7.55623 64.4566 7.52412C64.1857 7.51015 63.7137 7.53808 63.3646 7.5688C62.4919 7.64421 61.8649 8.28515 61.7644 9.18163C61.6163 8.89677 61.3859 8.65659 61.0829 8.4974C60.8469 8.37452 60.4741 8.23488 59.9728 8.05056C59.977 8.05195 59.5259 7.88439 59.5259 7.88439C59.5315 7.88578 59.5371 7.88857 59.5413 7.88997C58.5834 7.51434 57.712 7.79222 57.1507 8.6538C56.8924 9.04897 56.4469 9.81559 56.0671 10.895C56.2123 8.9247 56.2388 7.48222 56.2416 7.34538C56.2416 7.36074 56.2402 7.3761 56.2402 7.39146C56.3282 5.99646 55.8269 5.15025 54.5115 4.473C50.1673 2.23459 46.0787 2.19828 43.7007 2.91044C41.2276 3.65193 39.3802 5.69066 38.9613 8.12456C36.9002 6.9502 34.9997 7.07308 33.6955 7.69727C33.7151 7.4152 33.6718 7.09961 33.4665 6.80637C33.0783 6.25061 32.4011 6.2157 32.1455 6.20173C31.3845 6.16264 30.71 6.16124 30.3749 6.16403C30.3344 6.16403 30.2799 6.16124 30.2213 6.15845C29.8554 6.14029 28.9995 6.0998 28.5051 6.97533C28.5009 6.98232 28.4968 6.99069 28.4926 6.99768C28.0988 7.73916 27.645 8.57001 27.3056 9.16487L25.623 6.97394C25.6132 6.96137 25.5992 6.94322 25.5881 6.93065L25.5671 6.90691C25.084 6.33439 24.4807 6.21709 23.6694 6.53826C23.1039 6.76448 22.2968 7.11218 21.7592 7.38448C21.5399 7.49619 21.0247 7.75592 20.8725 8.35218C20.8362 8.496 20.8278 8.63425 20.8376 8.76551C20.353 8.53929 19.8308 8.3815 19.2764 8.30191C18.3981 8.17763 17.5309 8.25862 16.7336 8.51695C16.7391 8.09245 16.5381 6.88317 16.344 6.49079C16.3412 6.48381 16.33 6.46007 16.323 6.44331C15.9628 5.61525 15.2953 5.27732 14.3401 5.4407C11.0279 6.00345 9.83958 6.06768 6.19221 6.0984C4.87821 6.11097 4.55006 6.91808 4.47046 7.26439C4.34898 7.78245 4.35317 10.0879 4.42857 10.5906C4.63524 11.973 5.90595 11.9465 6.32347 11.9367C6.94487 11.9241 7.38194 11.8976 7.73383 11.8767C7.79108 11.8725 7.84554 11.8697 7.8972 11.8669C7.96982 13.0091 8.29099 15.5841 8.89144 18.0711L8.89702 18.0976C9.28242 19.716 10.5783 19.568 10.9651 19.4842C11.4231 19.3851 13.0261 18.934 13.6266 18.7022C14.1865 18.4858 14.5315 17.9929 14.5524 17.3812C14.5538 17.3338 14.5538 17.2863 14.551 17.2388C14.8778 17.5725 15.252 17.8644 15.6723 18.106C16.9067 18.8139 18.4721 19.0178 19.7581 18.6366C20.6323 18.3769 21.3724 18.0124 21.9756 17.546C22.0859 17.7722 22.2325 17.9663 22.361 18.1185C22.6124 18.4174 23.9306 19.9185 25.2515 20.1042C25.7165 20.1698 25.9651 20.0846 26.2625 19.9562L26.2933 19.9436C27.261 19.5317 28.6252 17.856 30.3512 14.9655C30.4238 14.844 30.4964 14.7211 30.5676 14.5982C30.481 14.8217 30.4252 15.0451 30.4 15.2489C30.3037 16.0365 30.6989 16.4917 31.0047 16.7654C31.0033 16.764 31.108 16.859 31.108 16.859C31.7853 17.4762 33.1956 18.7609 35.8069 18.8782C36.0484 18.8893 36.9086 18.8977 37.8428 18.5668C37.8302 19.1924 38.2268 19.6587 38.3623 19.8193C38.3678 19.8263 38.3734 19.8319 38.379 19.8389C38.534 20.0134 39.9346 21.5564 41.1159 22.0773C42.6841 22.7657 43.4102 22.6442 44.6474 21.4838C45.2185 20.949 46.2561 19.6448 47.5351 17.5418C47.4709 18.1925 47.3773 19.1211 47.3452 19.3641C47.2475 20.0958 47.1944 20.861 47.6999 21.4433C48.1621 21.9782 48.8477 22.0452 49.3225 22.0508C49.3449 22.0508 49.3658 22.0508 49.3881 22.0494C49.4803 22.0438 51.6461 21.9237 52.4449 21.812C53.8161 21.6249 54.1708 21.1794 54.4864 20.188L54.559 19.966C54.9765 18.7078 55.2921 17.2248 55.5295 15.7251C55.8018 16.8213 56.4665 17.7499 57.4342 18.3364C58.9171 19.2356 60.8064 19.1784 62.4905 18.1828C63.2194 17.7513 63.8059 17.1899 64.2751 16.5588C64.3225 16.637 64.3714 16.7082 64.4147 16.771L64.4524 16.8269C65.0179 17.6563 66.8416 19.2831 69.6959 19.4968C70.7013 19.5722 72.5906 19.5107 73.9395 18.2582C74.2816 17.9398 75.1083 17.0559 75.3792 15.7363C75.583 14.7309 75.4085 13.7353 74.8862 12.9351ZM45.1962 7.76569C45.1962 7.76569 45.1962 7.76709 45.1976 7.76709C45.1976 7.76709 45.1962 7.76709 45.1962 7.76569Z" fill="white"/>
<path d="M54.0527 5.36404C50.1847 3.36999 46.3642 3.15774 43.989 3.8713C39.5973 5.18809 38.2344 10.7695 42.3049 13.5064C42.5507 13.6726 42.3957 14.0203 42.0871 14.576C41.7059 15.2686 40.9979 16.6287 39.7481 17.6104C38.9969 18.2024 38.5067 18.4468 39.1267 19.1785C39.1267 19.1785 40.5022 20.7201 41.5201 21.167C42.7448 21.7046 43.052 21.6138 43.9638 20.7606C44.5377 20.223 45.6744 18.7568 47.0456 16.4179C47.7578 15.203 48.7087 15.1807 48.5803 17.1803C48.5803 17.1803 48.3932 19.1045 48.3401 19.5025C48.1879 20.6489 48.3066 21.0455 49.3343 21.0553C49.3343 21.0553 51.5406 20.9338 52.3059 20.8263C53.3839 20.6796 53.3252 20.5051 53.6073 19.6547C55.114 15.1178 55.2411 7.33155 55.2411 7.33155C55.3067 6.28566 54.9771 5.84021 54.0527 5.36404ZM51.2292 9.56159C51.2292 9.56159 49.8594 10.5014 49.8259 10.5265C49.7086 10.6159 49.5494 10.7234 49.527 11.1577C49.5187 11.3392 49.4656 12.6183 49.4628 12.7803C49.46 12.9562 49.3832 13.438 48.826 12.9492C48.826 12.9492 47.8933 12.1323 47.755 12.0109C47.7229 11.9829 47.4031 11.6199 46.9046 11.8349L45.444 12.4186C45.444 12.4186 44.5657 12.7775 44.891 11.9885C45.208 11.2191 45.4216 10.5823 45.4929 10.3771C45.5655 10.162 45.5403 9.85902 45.3616 9.64816C45.2806 9.55181 44.5782 8.62461 44.419 8.3956C44.419 8.3956 43.8423 7.71137 44.803 7.75745C44.803 7.75745 46.4424 7.79515 46.4689 7.79655C46.4969 7.79934 46.8041 7.82029 47.0219 7.47538C47.2914 7.05088 48.0846 6.05804 47.9198 6.2689C48.058 6.09295 48.3792 5.66007 48.5915 6.37921C48.5915 6.37921 48.8931 7.32597 49.0369 7.72394C49.1347 7.99484 49.1961 8.17497 49.6834 8.33276L51.1901 8.87736C51.1901 8.87736 51.8939 9.09519 51.2292 9.56159Z" fill="#0F4DBC"/>
<path d="M22.3043 11.3991C21.602 10.2331 20.4765 9.48603 19.1359 9.29612C17.4226 9.05314 15.7651 9.75274 14.8099 11.1198C14.1089 12.1238 13.8827 13.3331 14.176 14.5256C14.8811 17.3994 17.706 18.2037 19.4725 17.68C21.4665 17.088 22.5822 15.922 22.8852 14.1165C23.0319 13.2451 22.8196 12.2551 22.3043 11.3991ZM17.4477 15.2838C16.8891 15.0967 16.473 14.2072 16.6755 13.2409C16.8766 12.2746 17.5552 11.6043 18.1878 11.8054C18.7477 11.9856 19.1611 12.9281 18.9656 13.8972C18.7575 14.9264 18.0872 15.5003 17.4477 15.2838Z" fill="#FF6E00"/>
<path d="M57.9904 9.20116C57.8284 9.44832 56.5535 11.3851 56.3943 14.3608C56.3245 15.6832 56.9054 16.8506 57.9513 17.4845C59.1117 18.1883 60.617 18.1283 61.9771 17.324C64.8997 15.5952 65.2279 11.2371 65.1455 9.27237C65.1273 8.81715 64.8606 8.54486 64.4138 8.52531C64.242 8.51693 63.872 8.53089 63.4517 8.5672C63.0286 8.6035 62.773 8.89954 62.7521 9.3785L62.7493 9.50836C62.7297 11.3362 62.6055 12.9533 61.8109 13.9531C61.2915 14.6094 60.6701 14.8719 60.2609 14.7029C59.8951 14.5521 59.6633 14.0606 59.7191 13.5607C59.8602 12.3137 60.3866 11.3307 60.7134 10.7023L60.8516 10.4314C61.0513 10.0097 60.9507 9.56003 60.617 9.38409C60.4229 9.28355 60.0012 9.12715 59.627 8.9903L59.1759 8.82274C58.8548 8.69706 58.3828 8.59931 57.9904 9.20116Z" fill="#69BE28"/>
<path d="M68.2331 7.93085C66.9652 8.60809 66.3131 9.5353 66.179 10.8465C65.9975 12.6171 68.4049 13.8515 68.9788 14.1643C69.6672 14.54 69.6923 14.9728 69.515 15.2284C69.2329 15.6333 68.4509 15.5188 67.8742 15.2884C67.2417 15.0357 66.9205 14.7341 66.3996 14.128C66.0938 13.7747 65.1652 14.7899 65.02 15.4993C64.953 15.8232 65.0801 15.9754 65.2769 16.2645C65.7824 17.0074 67.4092 18.3242 69.7677 18.5015C70.4185 18.5504 72.1123 18.5895 73.2531 17.5282C73.7153 17.0981 74.2194 16.386 74.394 15.5398C74.5141 14.9547 74.5057 14.1853 74.0477 13.4843C73.4053 12.5012 72.3357 11.8477 71.146 11.2878C69.4131 10.4723 69.7482 9.98912 70.135 9.7657C70.4981 9.55624 71.7325 9.70426 72.6988 10.6217C73.1889 11.0881 74.2055 9.64282 73.7824 9.15129C72.2394 7.35553 69.6183 7.18936 68.2331 7.93085Z" fill="#F01450"/>
<path d="M32.5986 8.05508C31.6323 11.183 27.5102 18.3409 25.9001 19.0265C25.6725 19.1229 25.6264 19.1494 25.3905 19.1173C24.5359 18.9972 23.4704 17.8871 23.1283 17.4793C22.9761 17.2978 22.6465 16.8817 22.9119 16.6624C23.9173 15.8302 25.1656 14.5623 25.2243 13.8222C25.2368 13.6588 25.1894 13.4898 25.1307 13.4088C25.0372 13.2776 22.4245 9.71399 22.162 9.33278C21.7165 8.68345 21.7193 8.52985 22.2123 8.28129C22.7052 8.03134 23.4886 7.69202 24.0387 7.47278C24.5889 7.25495 24.6727 7.40715 24.8277 7.58729L27.1695 10.637C27.3384 10.7571 27.492 10.7222 27.6149 10.5728C27.9123 10.2097 29.1775 7.84562 29.3771 7.47139C29.6103 7.05806 29.9943 7.17116 30.3825 7.16837C30.7931 7.16558 31.4298 7.17116 32.0945 7.20468C32.7355 7.23679 32.7941 7.42391 32.5986 8.05508Z" fill="#69BE28"/>
<path d="M33.7729 8.79932C32.7186 9.47796 32.2173 10.3298 32.1922 11.479C32.1586 13.0318 34.2351 14.0581 34.7559 14.2899C35.3815 14.5678 35.4709 14.9015 35.3592 15.1543C35.1944 15.5257 34.8216 15.5942 34.3845 15.5006C33.5913 15.3316 32.9727 14.6139 32.3472 14.2536C31.9939 14.0497 31.473 14.7479 31.3962 15.3749C31.3613 15.6612 31.4465 15.819 31.6741 16.0228C32.2578 16.5465 33.4629 17.7753 35.8535 17.8814C36.4218 17.9066 37.8978 17.7935 38.8152 16.7895C39.1867 16.3831 39.5763 15.8427 39.667 15.0942C39.7299 14.5776 39.614 13.9464 39.2216 13.332C38.892 12.8181 38.2916 12.3043 37.2373 11.8532C35.5295 11.1243 36.0685 10.3912 36.4749 10.253C36.8212 10.1343 37.43 10.225 38.441 10.8562C38.9898 11.1983 39.7159 9.85639 39.2621 9.51846C36.9943 7.82743 34.9249 8.05784 33.7729 8.79932Z" fill="#F01450"/>
<path d="M6.19966 7.1038C9.90848 7.07308 11.1624 7.00047 14.5082 6.43074C15.2622 6.30227 15.3237 6.68907 15.4466 6.93763C15.5499 7.14569 15.7454 8.2279 15.7328 8.50717C15.7189 8.78366 15.8515 9.18582 15.4005 9.31568C13.9915 9.72203 13.6229 9.8491 12.6873 10.1382C12.2558 10.2708 12.2823 10.4579 12.2949 10.8014C12.3619 12.6991 12.9708 15.2043 13.4036 16.6062C13.5852 17.1955 13.6676 17.6186 13.2682 17.7722C12.7138 17.9859 11.1694 18.4188 10.7547 18.5095C10.0369 18.6645 9.93361 18.1199 9.86659 17.8406C9.25776 15.3188 8.95614 12.748 8.89609 11.7887C8.86677 11.2986 8.71177 10.8419 8.26632 10.8517C7.8097 10.8629 7.29723 10.9187 6.303 10.9397C5.77097 10.9509 5.4903 10.9173 5.41908 10.444C5.34787 9.97199 5.36742 7.82853 5.44561 7.49339C5.52242 7.15826 5.89944 7.10659 6.19966 7.1038Z" fill="#F01450"/>
<path d="M75.1795 7.53516C75.5411 7.53516 75.8274 7.827 75.8274 8.19425C75.8274 8.5643 75.5411 8.85335 75.1795 8.85335C74.8192 8.85335 74.5273 8.5643 74.5273 8.19425C74.5273 7.827 74.8192 7.53516 75.1795 7.53516ZM75.1795 7.63989C74.889 7.63989 74.6516 7.88705 74.6516 8.19425C74.6516 8.50565 74.889 8.75141 75.1795 8.75141C75.4713 8.7556 75.7059 8.50565 75.7059 8.19704C75.7059 7.88705 75.4727 7.63989 75.1795 7.63989ZM75.0552 8.57547H74.9407V7.84236C75.0007 7.83259 75.0566 7.82421 75.1459 7.82421C75.2591 7.82421 75.3317 7.84934 75.3764 7.88146C75.4182 7.91079 75.4448 7.96245 75.4448 8.03227C75.4448 8.12862 75.3805 8.19006 75.2995 8.21241V8.21659C75.3638 8.22916 75.4085 8.28781 75.4224 8.39394C75.4406 8.50984 75.4559 8.55312 75.4671 8.57407H75.3442C75.3289 8.55312 75.3107 8.4833 75.2968 8.38835C75.2814 8.29619 75.2311 8.25988 75.1376 8.25988H75.0552V8.57547ZM75.0552 8.17191H75.1376C75.2367 8.17191 75.3219 8.13421 75.3219 8.04763C75.3219 7.982 75.2716 7.91777 75.1376 7.91777C75.1027 7.91777 75.0761 7.92056 75.0552 7.92475V8.17191Z" fill="#0F4DBC"/>
</svg>
